%TF.GenerationSoftware,KiCad,Pcbnew,(5.1.8)-1*%
%TF.CreationDate,2021-07-02T09:49:44+03:00*%
%TF.ProjectId,Automation 101_Agriboard,4175746f-6d61-4746-996f-6e203130315f,rev?*%
%TF.SameCoordinates,Original*%
%TF.FileFunction,Copper,L2,Bot*%
%TF.FilePolarity,Positive*%
%FSLAX46Y46*%
G04 Gerber Fmt 4.6, Leading zero omitted, Abs format (unit mm)*
G04 Created by KiCad (PCBNEW (5.1.8)-1) date 2021-07-02 09:49:44*
%MOMM*%
%LPD*%
G01*
G04 APERTURE LIST*
%TA.AperFunction,ComponentPad*%
%ADD10R,1.600000X1.600000*%
%TD*%
%TA.AperFunction,ComponentPad*%
%ADD11C,1.600000*%
%TD*%
%TA.AperFunction,ComponentPad*%
%ADD12C,2.500000*%
%TD*%
%TA.AperFunction,ComponentPad*%
%ADD13R,2.500000X2.500000*%
%TD*%
%TA.AperFunction,ComponentPad*%
%ADD14R,3.500000X3.500000*%
%TD*%
%TA.AperFunction,ComponentPad*%
%ADD15R,1.700000X1.700000*%
%TD*%
%TA.AperFunction,ComponentPad*%
%ADD16O,1.700000X1.700000*%
%TD*%
%TA.AperFunction,ComponentPad*%
%ADD17O,1.200000X1.600000*%
%TD*%
%TA.AperFunction,ComponentPad*%
%ADD18O,1.200000X1.200000*%
%TD*%
%TA.AperFunction,ComponentPad*%
%ADD19O,1.905000X2.000000*%
%TD*%
%TA.AperFunction,ComponentPad*%
%ADD20R,1.905000X2.000000*%
%TD*%
%TA.AperFunction,ViaPad*%
%ADD21C,0.800000*%
%TD*%
%TA.AperFunction,Conductor*%
%ADD22C,0.500000*%
%TD*%
%TA.AperFunction,Conductor*%
%ADD23C,0.250000*%
%TD*%
%TA.AperFunction,Conductor*%
%ADD24C,0.750000*%
%TD*%
%TA.AperFunction,Conductor*%
%ADD25C,0.254000*%
%TD*%
%TA.AperFunction,Conductor*%
%ADD26C,0.100000*%
%TD*%
G04 APERTURE END LIST*
D10*
%TO.P,C7,1*%
%TO.N,+24V*%
X73860000Y-41120000D03*
D11*
%TO.P,C7,2*%
%TO.N,GND*%
X76360000Y-41120000D03*
%TD*%
%TO.P,C13,2*%
%TO.N,GND*%
X79760000Y-40920000D03*
D10*
%TO.P,C13,1*%
%TO.N,+12V*%
X82260000Y-40920000D03*
%TD*%
%TO.P,C16,1*%
%TO.N,+12V*%
X85860000Y-41120000D03*
D11*
%TO.P,C16,2*%
%TO.N,GND*%
X88360000Y-41120000D03*
%TD*%
%TO.P,C17,2*%
%TO.N,GND*%
X92260000Y-41120000D03*
D10*
%TO.P,C17,1*%
%TO.N,Vin*%
X94760000Y-41120000D03*
%TD*%
D12*
%TO.P,J2,2*%
%TO.N,GND*%
X61470000Y-52900000D03*
D13*
%TO.P,J2,1*%
%TO.N,+24V*%
X61470000Y-47900000D03*
%TD*%
D14*
%TO.P,J3,1*%
%TO.N,+24V*%
X67760000Y-36520000D03*
%TO.P,J3,2*%
%TO.N,GND*%
%TA.AperFunction,ComponentPad*%
G36*
G01*
X60260000Y-37520000D02*
X60260000Y-35520000D01*
G75*
G02*
X61010000Y-34770000I750000J0D01*
G01*
X62510000Y-34770000D01*
G75*
G02*
X63260000Y-35520000I0J-750000D01*
G01*
X63260000Y-37520000D01*
G75*
G02*
X62510000Y-38270000I-750000J0D01*
G01*
X61010000Y-38270000D01*
G75*
G02*
X60260000Y-37520000I0J750000D01*
G01*
G37*
%TD.AperFunction*%
%TO.P,J3,3*%
%TA.AperFunction,ComponentPad*%
G36*
G01*
X63010000Y-42095000D02*
X63010000Y-40345000D01*
G75*
G02*
X63885000Y-39470000I875000J0D01*
G01*
X65635000Y-39470000D01*
G75*
G02*
X66510000Y-40345000I0J-875000D01*
G01*
X66510000Y-42095000D01*
G75*
G02*
X65635000Y-42970000I-875000J0D01*
G01*
X63885000Y-42970000D01*
G75*
G02*
X63010000Y-42095000I0J875000D01*
G01*
G37*
%TD.AperFunction*%
%TD*%
D15*
%TO.P,J4,1*%
%TO.N,+3V3*%
X126300000Y-36650000D03*
D16*
%TO.P,J4,2*%
%TO.N,Trigger*%
X123760000Y-36650000D03*
%TO.P,J4,3*%
%TO.N,Echo*%
X121220000Y-36650000D03*
%TO.P,J4,4*%
%TO.N,GND*%
X118680000Y-36650000D03*
%TD*%
D13*
%TO.P,J5,1*%
%TO.N,Net-(J5-Pad1)*%
X61970000Y-76200000D03*
D12*
%TO.P,J5,2*%
%TO.N,Net-(J5-Pad2)*%
X61970000Y-71200000D03*
%TD*%
D16*
%TO.P,J6,4*%
%TO.N,GND*%
X103620000Y-36610000D03*
%TO.P,J6,3*%
%TO.N,N/C*%
X106160000Y-36610000D03*
%TO.P,J6,2*%
%TO.N,DHTPIN*%
X108700000Y-36610000D03*
D15*
%TO.P,J6,1*%
%TO.N,+3V3*%
X111240000Y-36610000D03*
%TD*%
%TO.P,J7,1*%
%TO.N,GND*%
X112830000Y-88560000D03*
D16*
%TO.P,J7,2*%
%TO.N,+3V3*%
X115370000Y-88560000D03*
%TO.P,J7,3*%
%TO.N,PH_Meter_Pin*%
X117910000Y-88560000D03*
%TD*%
D15*
%TO.P,J8,1*%
%TO.N,GND*%
X109810000Y-83690000D03*
D16*
%TO.P,J8,2*%
%TO.N,HEATER_RELAY*%
X112350000Y-83690000D03*
%TO.P,J8,3*%
%TO.N,FAN_RELAY*%
X114890000Y-83690000D03*
%TO.P,J8,4*%
%TO.N,HUMIDIFIER_RELAY*%
X117430000Y-83690000D03*
%TO.P,J8,5*%
%TO.N,N/C*%
X119970000Y-83690000D03*
%TO.P,J8,6*%
%TO.N,+3V3*%
X122510000Y-83690000D03*
%TD*%
D15*
%TO.P,J9,1*%
%TO.N,GND*%
X83760000Y-60740000D03*
D16*
%TO.P,J9,2*%
X86300000Y-60740000D03*
%TO.P,J9,3*%
%TO.N,PWM_PUMP*%
X88840000Y-60740000D03*
%TO.P,J9,4*%
%TO.N,+3V3*%
X91380000Y-60740000D03*
%TO.P,J9,5*%
%TO.N,FAULT_PIN*%
X93920000Y-60740000D03*
%TO.P,J9,6*%
%TO.N,N/C*%
X96460000Y-60740000D03*
%TO.P,J9,7*%
X99000000Y-60740000D03*
%TO.P,J9,8*%
%TO.N,VM*%
X101540000Y-60740000D03*
%TD*%
D15*
%TO.P,J10,1*%
%TO.N,GND*%
X84580000Y-76810000D03*
%TD*%
%TO.P,J11,1*%
%TO.N,VM*%
X84500000Y-71790000D03*
%TD*%
%TO.P,J12,1*%
%TO.N,+3V3*%
X101500000Y-65860000D03*
%TD*%
%TO.P,J13,1*%
%TO.N,GND*%
X101500000Y-63260000D03*
%TD*%
D13*
%TO.P,J14,1*%
%TO.N,+12V*%
X61470000Y-60000000D03*
D12*
%TO.P,J14,2*%
%TO.N,GND*%
X61470000Y-65000000D03*
%TD*%
D17*
%TO.P,Q3,1*%
%TO.N,HUMIDIFIER_RELAY*%
X119290000Y-77060000D03*
D18*
%TO.P,Q3,2*%
%TO.N,Net-(Q3-Pad2)*%
X120560000Y-75790000D03*
%TO.P,Q3,3*%
%TO.N,Net-(Q3-Pad3)*%
X119290000Y-74520000D03*
%TD*%
D17*
%TO.P,Q4,1*%
%TO.N,FAN_RELAY*%
X112290000Y-77100000D03*
D18*
%TO.P,Q4,2*%
%TO.N,Net-(Q4-Pad2)*%
X113560000Y-75830000D03*
%TO.P,Q4,3*%
%TO.N,Net-(Q4-Pad3)*%
X112290000Y-74560000D03*
%TD*%
%TO.P,Q5,3*%
%TO.N,Net-(Q5-Pad3)*%
X109820000Y-66510000D03*
%TO.P,Q5,2*%
%TO.N,Net-(Q5-Pad2)*%
X111090000Y-67780000D03*
D17*
%TO.P,Q5,1*%
%TO.N,HEATER_RELAY*%
X109820000Y-69050000D03*
%TD*%
D11*
%TO.P,R13,1*%
%TO.N,LDR_PIN*%
X128720000Y-90710000D03*
%TO.P,R13,2*%
%TO.N,GND*%
X136920000Y-90710000D03*
%TD*%
D19*
%TO.P,U1,3*%
%TO.N,+12V*%
X79940000Y-35520000D03*
%TO.P,U1,2*%
%TO.N,GND*%
X77400000Y-35520000D03*
D20*
%TO.P,U1,1*%
%TO.N,+24V*%
X74860000Y-35520000D03*
%TD*%
%TO.P,U5,1*%
%TO.N,+12V*%
X87160000Y-35520000D03*
D19*
%TO.P,U5,2*%
%TO.N,GND*%
X89700000Y-35520000D03*
%TO.P,U5,3*%
%TO.N,Vin*%
X92240000Y-35520000D03*
%TD*%
D21*
%TO.N,GND*%
X132050000Y-73980000D03*
X110650000Y-59230000D03*
X106890000Y-61580000D03*
X137900000Y-38940000D03*
X133640000Y-38620000D03*
%TO.N,EN*%
X136810000Y-70450000D03*
X127560000Y-70250000D03*
X135145000Y-49595000D03*
%TO.N,+3V3*%
X135380000Y-38310000D03*
X137030000Y-40040000D03*
X130510000Y-80500000D03*
X134670000Y-75760000D03*
X84350000Y-55920000D03*
%TO.N,VBUS*%
X136360000Y-75840000D03*
X140020000Y-81970000D03*
%TO.N,D+*%
X139110000Y-80000000D03*
X138140000Y-81540000D03*
%TO.N,RX2*%
X80860000Y-67520000D03*
X76430000Y-67390000D03*
%TO.N,RXD0*%
X132170000Y-64730000D03*
X130580000Y-66050000D03*
%TO.N,RTS*%
X129230000Y-68770000D03*
X126460000Y-69150000D03*
%TO.N,IO0*%
X134520000Y-77020000D03*
X117700000Y-62940000D03*
X125847340Y-74852660D03*
X124230000Y-73180000D03*
%TO.N,Vin*%
X77700000Y-52200000D03*
X109710000Y-71940000D03*
X105880000Y-70050000D03*
X116810000Y-71710000D03*
X131010000Y-76730000D03*
%TO.N,DHTPIN*%
X123230000Y-41060000D03*
%TO.N,HUMIDIFIER*%
X120570000Y-69540000D03*
X123650000Y-48380000D03*
%TO.N,FAN*%
X115380000Y-68210000D03*
X126140000Y-49060000D03*
%TO.N,HEATER*%
X114480000Y-66730000D03*
X124940000Y-48850000D03*
%TD*%
D22*
%TO.N,GND*%
X137900000Y-38940000D02*
X136340000Y-37380000D01*
X136340000Y-37380000D02*
X134180000Y-37380000D01*
X134180000Y-37380000D02*
X133640000Y-37920000D01*
X133640000Y-37920000D02*
X133640000Y-38620000D01*
D23*
%TO.N,EN*%
X127680000Y-70250000D02*
X127560000Y-70250000D01*
X128260000Y-69670000D02*
X127680000Y-70250000D01*
X135145000Y-49595000D02*
X135145000Y-68785000D01*
X136245000Y-69885000D02*
X136030000Y-69670000D01*
X136810000Y-70450000D02*
X136245000Y-69885000D01*
X135580000Y-69490000D02*
X135715000Y-69355000D01*
X135580000Y-69670000D02*
X135580000Y-69490000D01*
X135145000Y-68785000D02*
X135715000Y-69355000D01*
X135715000Y-69355000D02*
X136245000Y-69885000D01*
X136030000Y-69670000D02*
X135580000Y-69670000D01*
X135580000Y-69670000D02*
X128260000Y-69670000D01*
D22*
%TO.N,+3V3*%
X135380000Y-38390000D02*
X137030000Y-40040000D01*
X135380000Y-38310000D02*
X135380000Y-38390000D01*
X130510000Y-80500000D02*
X132040000Y-78970000D01*
X132040000Y-78970000D02*
X135380000Y-78970000D01*
X135380000Y-78970000D02*
X135970000Y-78380000D01*
X135970000Y-78380000D02*
X135970000Y-77060000D01*
X135970000Y-77060000D02*
X134670000Y-75760000D01*
X86560000Y-55920000D02*
X84350000Y-55920000D01*
X91380000Y-60740000D02*
X86560000Y-55920000D01*
X104280000Y-63080000D02*
X104280000Y-60420000D01*
X104280000Y-60420000D02*
X102800000Y-58940000D01*
X93180000Y-58940000D02*
X91380000Y-60740000D01*
X102800000Y-58940000D02*
X93180000Y-58940000D01*
X103940000Y-63420000D02*
X103940000Y-82330000D01*
X101500000Y-65860000D02*
X103940000Y-63420000D01*
X103940000Y-63420000D02*
X104280000Y-63080000D01*
X103940000Y-82330000D02*
X108370000Y-86760000D01*
X108370000Y-86760000D02*
X114630000Y-86760000D01*
X115370000Y-87500000D02*
X115370000Y-88560000D01*
X114630000Y-86760000D02*
X115370000Y-87500000D01*
D23*
%TO.N,VBUS*%
X136360000Y-75840000D02*
X138260000Y-75840000D01*
X138260000Y-75840000D02*
X140000000Y-77580000D01*
X140000000Y-81950000D02*
X140020000Y-81970000D01*
X140000000Y-77580000D02*
X140000000Y-81950000D01*
%TO.N,D+*%
X139200000Y-80000000D02*
X139110000Y-80000000D01*
X138140000Y-81540000D02*
X138560000Y-81540000D01*
X139110000Y-80990000D02*
X139110000Y-80000000D01*
X138560000Y-81540000D02*
X139110000Y-80990000D01*
%TO.N,RX2*%
X80860000Y-67520000D02*
X76560000Y-67520000D01*
X76560000Y-67520000D02*
X76430000Y-67390000D01*
%TO.N,RXD0*%
X132170000Y-64730000D02*
X131670000Y-65230000D01*
X131670000Y-65230000D02*
X131400000Y-65230000D01*
X131400000Y-65230000D02*
X130580000Y-66050000D01*
%TO.N,RTS*%
X129230000Y-68770000D02*
X126840000Y-68770000D01*
X126840000Y-68770000D02*
X126460000Y-69150000D01*
%TO.N,IO0*%
X133640000Y-77900000D02*
X128894680Y-77900000D01*
X134520000Y-77020000D02*
X133640000Y-77900000D01*
X128894680Y-77900000D02*
X125847340Y-74852660D01*
X124230000Y-73180000D02*
X121300000Y-73180000D01*
X121300000Y-73180000D02*
X117520000Y-69400000D01*
X117520000Y-69400000D02*
X113820000Y-69400000D01*
X113820000Y-69400000D02*
X113350000Y-68930000D01*
X113350000Y-68930000D02*
X113350000Y-65200000D01*
X115610000Y-62940000D02*
X117700000Y-62940000D01*
X113350000Y-65200000D02*
X115610000Y-62940000D01*
D24*
%TO.N,Vin*%
X77700000Y-52200000D02*
X80780000Y-52200000D01*
X80780000Y-52200000D02*
X87810000Y-45170000D01*
X90710000Y-45170000D02*
X94760000Y-41120000D01*
X87810000Y-45170000D02*
X90710000Y-45170000D01*
X102965001Y-49325001D02*
X102965001Y-49375001D01*
X94760000Y-41120000D02*
X102965001Y-49325001D01*
X102965001Y-49375001D02*
X105880000Y-52290000D01*
X105880000Y-70640000D02*
X107210000Y-71970000D01*
X109680000Y-71970000D02*
X109710000Y-71940000D01*
X107210000Y-71970000D02*
X109680000Y-71970000D01*
X105880000Y-70050000D02*
X105880000Y-70640000D01*
X105880000Y-52290000D02*
X105880000Y-70050000D01*
X109940000Y-71710000D02*
X109710000Y-71940000D01*
X115800000Y-71710000D02*
X109940000Y-71710000D01*
X116810000Y-71710000D02*
X115800000Y-71710000D01*
D23*
X131010000Y-76730000D02*
X128185001Y-73905001D01*
X117570000Y-73480000D02*
X115800000Y-71710000D01*
X128185001Y-73905001D02*
X121388590Y-73905001D01*
X121388590Y-73905001D02*
X120963589Y-73480000D01*
X120963589Y-73480000D02*
X117570000Y-73480000D01*
D24*
%TO.N,+24V*%
X61470000Y-47900000D02*
X63090000Y-47900000D01*
X67760000Y-43230000D02*
X67760000Y-36520000D01*
X63090000Y-47900000D02*
X67760000Y-43230000D01*
D23*
%TO.N,DHTPIN*%
X108700000Y-36610000D02*
X113150000Y-41060000D01*
X113150000Y-41060000D02*
X123230000Y-41060000D01*
D24*
%TO.N,VM*%
X101284998Y-60740000D02*
X101540000Y-60740000D01*
X90234998Y-71790000D02*
X101284998Y-60740000D01*
X84500000Y-71790000D02*
X90234998Y-71790000D01*
D23*
%TO.N,HUMIDIFIER*%
X120570000Y-69540000D02*
X120570000Y-67240000D01*
X120570000Y-67240000D02*
X127040000Y-60770000D01*
X127040000Y-60770000D02*
X127040000Y-48870000D01*
X127040000Y-48870000D02*
X126140000Y-47970000D01*
X124060000Y-47970000D02*
X123650000Y-48380000D01*
X126140000Y-47970000D02*
X124060000Y-47970000D01*
%TO.N,FAN*%
X126140000Y-59890000D02*
X126140000Y-49060000D01*
X117820000Y-68210000D02*
X126140000Y-59890000D01*
X115380000Y-68210000D02*
X117820000Y-68210000D01*
%TO.N,HEATER*%
X114480000Y-66730000D02*
X118020000Y-66730000D01*
X118020000Y-66730000D02*
X124940000Y-59810000D01*
X124940000Y-59810000D02*
X124940000Y-48850000D01*
%TD*%
D25*
%TO.N,GND*%
X145090001Y-39721883D02*
X139129832Y-39743000D01*
X139070000Y-39743000D01*
X139045224Y-39745440D01*
X139021399Y-39752667D01*
X138999443Y-39764403D01*
X138980197Y-39780197D01*
X138964403Y-39799443D01*
X138952667Y-39821399D01*
X138945440Y-39845224D01*
X138943000Y-39870000D01*
X138943000Y-39980299D01*
X139002995Y-65448177D01*
X138913062Y-68326033D01*
X138915249Y-68353794D01*
X138922288Y-68377675D01*
X138933851Y-68399723D01*
X138949493Y-68419092D01*
X138968613Y-68435037D01*
X138990476Y-68446946D01*
X139014243Y-68454361D01*
X139038999Y-68456996D01*
X145090000Y-68504683D01*
X145090000Y-104340000D01*
X58030000Y-104340000D01*
X58030000Y-101394344D01*
X58295000Y-101394344D01*
X58295000Y-101765656D01*
X58367439Y-102129834D01*
X58509534Y-102472882D01*
X58715825Y-102781618D01*
X58978382Y-103044175D01*
X59287118Y-103250466D01*
X59630166Y-103392561D01*
X59994344Y-103465000D01*
X60365656Y-103465000D01*
X60729834Y-103392561D01*
X61072882Y-103250466D01*
X61381618Y-103044175D01*
X61644175Y-102781618D01*
X61850466Y-102472882D01*
X61992561Y-102129834D01*
X62065000Y-101765656D01*
X62065000Y-101394344D01*
X61992561Y-101030166D01*
X61948729Y-100924344D01*
X100955000Y-100924344D01*
X100955000Y-101295656D01*
X101027439Y-101659834D01*
X101169534Y-102002882D01*
X101375825Y-102311618D01*
X101638382Y-102574175D01*
X101947118Y-102780466D01*
X102290166Y-102922561D01*
X102654344Y-102995000D01*
X103025656Y-102995000D01*
X103389834Y-102922561D01*
X103732882Y-102780466D01*
X104041618Y-102574175D01*
X104304175Y-102311618D01*
X104510466Y-102002882D01*
X104652561Y-101659834D01*
X104725000Y-101295656D01*
X104725000Y-101134344D01*
X125855000Y-101134344D01*
X125855000Y-101505656D01*
X125927439Y-101869834D01*
X126069534Y-102212882D01*
X126275825Y-102521618D01*
X126538382Y-102784175D01*
X126847118Y-102990466D01*
X127190166Y-103132561D01*
X127554344Y-103205000D01*
X127925656Y-103205000D01*
X128289834Y-103132561D01*
X128632882Y-102990466D01*
X128941618Y-102784175D01*
X129204175Y-102521618D01*
X129410466Y-102212882D01*
X129517555Y-101954344D01*
X140885000Y-101954344D01*
X140885000Y-102325656D01*
X140957439Y-102689834D01*
X141099534Y-103032882D01*
X141305825Y-103341618D01*
X141568382Y-103604175D01*
X141877118Y-103810466D01*
X142220166Y-103952561D01*
X142584344Y-104025000D01*
X142955656Y-104025000D01*
X143319834Y-103952561D01*
X143662882Y-103810466D01*
X143971618Y-103604175D01*
X144234175Y-103341618D01*
X144440466Y-103032882D01*
X144582561Y-102689834D01*
X144655000Y-102325656D01*
X144655000Y-101954344D01*
X144582561Y-101590166D01*
X144440466Y-101247118D01*
X144234175Y-100938382D01*
X143971618Y-100675825D01*
X143662882Y-100469534D01*
X143319834Y-100327439D01*
X142955656Y-100255000D01*
X142584344Y-100255000D01*
X142220166Y-100327439D01*
X141877118Y-100469534D01*
X141568382Y-100675825D01*
X141305825Y-100938382D01*
X141099534Y-101247118D01*
X140957439Y-101590166D01*
X140885000Y-101954344D01*
X129517555Y-101954344D01*
X129552561Y-101869834D01*
X129625000Y-101505656D01*
X129625000Y-101134344D01*
X129552561Y-100770166D01*
X129410466Y-100427118D01*
X129204175Y-100118382D01*
X128941618Y-99855825D01*
X128632882Y-99649534D01*
X128289834Y-99507439D01*
X127925656Y-99435000D01*
X127554344Y-99435000D01*
X127190166Y-99507439D01*
X126847118Y-99649534D01*
X126538382Y-99855825D01*
X126275825Y-100118382D01*
X126069534Y-100427118D01*
X125927439Y-100770166D01*
X125855000Y-101134344D01*
X104725000Y-101134344D01*
X104725000Y-100924344D01*
X104652561Y-100560166D01*
X104510466Y-100217118D01*
X104304175Y-99908382D01*
X104041618Y-99645825D01*
X103732882Y-99439534D01*
X103389834Y-99297439D01*
X103025656Y-99225000D01*
X102654344Y-99225000D01*
X102290166Y-99297439D01*
X101947118Y-99439534D01*
X101638382Y-99645825D01*
X101375825Y-99908382D01*
X101169534Y-100217118D01*
X101027439Y-100560166D01*
X100955000Y-100924344D01*
X61948729Y-100924344D01*
X61850466Y-100687118D01*
X61644175Y-100378382D01*
X61381618Y-100115825D01*
X61072882Y-99909534D01*
X60729834Y-99767439D01*
X60365656Y-99695000D01*
X59994344Y-99695000D01*
X59630166Y-99767439D01*
X59287118Y-99909534D01*
X58978382Y-100115825D01*
X58715825Y-100378382D01*
X58509534Y-100687118D01*
X58367439Y-101030166D01*
X58295000Y-101394344D01*
X58030000Y-101394344D01*
X58030000Y-90568665D01*
X127285000Y-90568665D01*
X127285000Y-90851335D01*
X127340147Y-91128574D01*
X127448320Y-91389727D01*
X127605363Y-91624759D01*
X127805241Y-91824637D01*
X128040273Y-91981680D01*
X128301426Y-92089853D01*
X128578665Y-92145000D01*
X128861335Y-92145000D01*
X129138574Y-92089853D01*
X129399727Y-91981680D01*
X129634759Y-91824637D01*
X129756694Y-91702702D01*
X136106903Y-91702702D01*
X136178486Y-91946671D01*
X136433996Y-92067571D01*
X136708184Y-92136300D01*
X136990512Y-92150217D01*
X137270130Y-92108787D01*
X137536292Y-92013603D01*
X137661514Y-91946671D01*
X137733097Y-91702702D01*
X136920000Y-90889605D01*
X136106903Y-91702702D01*
X129756694Y-91702702D01*
X129834637Y-91624759D01*
X129991680Y-91389727D01*
X130099853Y-91128574D01*
X130155000Y-90851335D01*
X130155000Y-90780512D01*
X135479783Y-90780512D01*
X135521213Y-91060130D01*
X135616397Y-91326292D01*
X135683329Y-91451514D01*
X135927298Y-91523097D01*
X136740395Y-90710000D01*
X137099605Y-90710000D01*
X137912702Y-91523097D01*
X138156671Y-91451514D01*
X138277571Y-91196004D01*
X138346300Y-90921816D01*
X138360217Y-90639488D01*
X138318787Y-90359870D01*
X138223603Y-90093708D01*
X138156671Y-89968486D01*
X137912702Y-89896903D01*
X137099605Y-90710000D01*
X136740395Y-90710000D01*
X135927298Y-89896903D01*
X135683329Y-89968486D01*
X135562429Y-90223996D01*
X135493700Y-90498184D01*
X135479783Y-90780512D01*
X130155000Y-90780512D01*
X130155000Y-90568665D01*
X130099853Y-90291426D01*
X129991680Y-90030273D01*
X129834637Y-89795241D01*
X129756694Y-89717298D01*
X136106903Y-89717298D01*
X136920000Y-90530395D01*
X137733097Y-89717298D01*
X137661514Y-89473329D01*
X137406004Y-89352429D01*
X137131816Y-89283700D01*
X136849488Y-89269783D01*
X136569870Y-89311213D01*
X136303708Y-89406397D01*
X136178486Y-89473329D01*
X136106903Y-89717298D01*
X129756694Y-89717298D01*
X129634759Y-89595363D01*
X129399727Y-89438320D01*
X129138574Y-89330147D01*
X128861335Y-89275000D01*
X128578665Y-89275000D01*
X128301426Y-89330147D01*
X128040273Y-89438320D01*
X127805241Y-89595363D01*
X127605363Y-89795241D01*
X127448320Y-90030273D01*
X127340147Y-90291426D01*
X127285000Y-90568665D01*
X58030000Y-90568665D01*
X58030000Y-89410000D01*
X111341928Y-89410000D01*
X111354188Y-89534482D01*
X111390498Y-89654180D01*
X111449463Y-89764494D01*
X111528815Y-89861185D01*
X111625506Y-89940537D01*
X111735820Y-89999502D01*
X111855518Y-90035812D01*
X111980000Y-90048072D01*
X112544250Y-90045000D01*
X112703000Y-89886250D01*
X112703000Y-88687000D01*
X111503750Y-88687000D01*
X111345000Y-88845750D01*
X111341928Y-89410000D01*
X58030000Y-89410000D01*
X58030000Y-84201581D01*
X58301853Y-84383228D01*
X58608504Y-84510246D01*
X58934042Y-84575000D01*
X59265958Y-84575000D01*
X59591496Y-84510246D01*
X59898147Y-84383228D01*
X60174125Y-84198825D01*
X60408825Y-83964125D01*
X60593228Y-83688147D01*
X60720246Y-83381496D01*
X60763500Y-83164042D01*
X98295000Y-83164042D01*
X98295000Y-83495958D01*
X98359754Y-83821496D01*
X98486772Y-84128147D01*
X98671175Y-84404125D01*
X98905875Y-84638825D01*
X99181853Y-84823228D01*
X99488504Y-84950246D01*
X99814042Y-85015000D01*
X100145958Y-85015000D01*
X100471496Y-84950246D01*
X100778147Y-84823228D01*
X101054125Y-84638825D01*
X101288825Y-84404125D01*
X101473228Y-84128147D01*
X101600246Y-83821496D01*
X101665000Y-83495958D01*
X101665000Y-83164042D01*
X101600246Y-82838504D01*
X101473228Y-82531853D01*
X101288825Y-82255875D01*
X101054125Y-82021175D01*
X100778147Y-81836772D01*
X100471496Y-81709754D01*
X100145958Y-81645000D01*
X99814042Y-81645000D01*
X99488504Y-81709754D01*
X99181853Y-81836772D01*
X98905875Y-82021175D01*
X98671175Y-82255875D01*
X98486772Y-82531853D01*
X98359754Y-82838504D01*
X98295000Y-83164042D01*
X60763500Y-83164042D01*
X60785000Y-83055958D01*
X60785000Y-82724042D01*
X60720246Y-82398504D01*
X60593228Y-82091853D01*
X60408825Y-81815875D01*
X60174125Y-81581175D01*
X59898147Y-81396772D01*
X59591496Y-81269754D01*
X59265958Y-81205000D01*
X58934042Y-81205000D01*
X58608504Y-81269754D01*
X58301853Y-81396772D01*
X58030000Y-81578419D01*
X58030000Y-74950000D01*
X60081928Y-74950000D01*
X60081928Y-77450000D01*
X60094188Y-77574482D01*
X60130498Y-77694180D01*
X60189463Y-77804494D01*
X60268815Y-77901185D01*
X60365506Y-77980537D01*
X60475820Y-78039502D01*
X60595518Y-78075812D01*
X60720000Y-78088072D01*
X63220000Y-78088072D01*
X63344482Y-78075812D01*
X63464180Y-78039502D01*
X63574494Y-77980537D01*
X63671185Y-77901185D01*
X63750537Y-77804494D01*
X63809502Y-77694180D01*
X63819870Y-77660000D01*
X83091928Y-77660000D01*
X83104188Y-77784482D01*
X83140498Y-77904180D01*
X83199463Y-78014494D01*
X83278815Y-78111185D01*
X83375506Y-78190537D01*
X83485820Y-78249502D01*
X83605518Y-78285812D01*
X83730000Y-78298072D01*
X84294250Y-78295000D01*
X84453000Y-78136250D01*
X84453000Y-76937000D01*
X84707000Y-76937000D01*
X84707000Y-78136250D01*
X84865750Y-78295000D01*
X85430000Y-78298072D01*
X85554482Y-78285812D01*
X85674180Y-78249502D01*
X85784494Y-78190537D01*
X85881185Y-78111185D01*
X85960537Y-78014494D01*
X86019502Y-77904180D01*
X86055812Y-77784482D01*
X86068072Y-77660000D01*
X86065000Y-77095750D01*
X85906250Y-76937000D01*
X84707000Y-76937000D01*
X84453000Y-76937000D01*
X83253750Y-76937000D01*
X83095000Y-77095750D01*
X83091928Y-77660000D01*
X63819870Y-77660000D01*
X63845812Y-77574482D01*
X63858072Y-77450000D01*
X63858072Y-75960000D01*
X83091928Y-75960000D01*
X83095000Y-76524250D01*
X83253750Y-76683000D01*
X84453000Y-76683000D01*
X84453000Y-75483750D01*
X84707000Y-75483750D01*
X84707000Y-76683000D01*
X85906250Y-76683000D01*
X86065000Y-76524250D01*
X86068072Y-75960000D01*
X86055812Y-75835518D01*
X86019502Y-75715820D01*
X85960537Y-75605506D01*
X85881185Y-75508815D01*
X85784494Y-75429463D01*
X85674180Y-75370498D01*
X85554482Y-75334188D01*
X85430000Y-75321928D01*
X84865750Y-75325000D01*
X84707000Y-75483750D01*
X84453000Y-75483750D01*
X84294250Y-75325000D01*
X83730000Y-75321928D01*
X83605518Y-75334188D01*
X83485820Y-75370498D01*
X83375506Y-75429463D01*
X83278815Y-75508815D01*
X83199463Y-75605506D01*
X83140498Y-75715820D01*
X83104188Y-75835518D01*
X83091928Y-75960000D01*
X63858072Y-75960000D01*
X63858072Y-74950000D01*
X63845812Y-74825518D01*
X63809502Y-74705820D01*
X63750537Y-74595506D01*
X63671185Y-74498815D01*
X63574494Y-74419463D01*
X63464180Y-74360498D01*
X63344482Y-74324188D01*
X63220000Y-74311928D01*
X60720000Y-74311928D01*
X60595518Y-74324188D01*
X60475820Y-74360498D01*
X60365506Y-74419463D01*
X60268815Y-74498815D01*
X60189463Y-74595506D01*
X60130498Y-74705820D01*
X60094188Y-74825518D01*
X60081928Y-74950000D01*
X58030000Y-74950000D01*
X58030000Y-71014344D01*
X60085000Y-71014344D01*
X60085000Y-71385656D01*
X60157439Y-71749834D01*
X60299534Y-72092882D01*
X60505825Y-72401618D01*
X60768382Y-72664175D01*
X61077118Y-72870466D01*
X61420166Y-73012561D01*
X61784344Y-73085000D01*
X62155656Y-73085000D01*
X62519834Y-73012561D01*
X62862882Y-72870466D01*
X63171618Y-72664175D01*
X63434175Y-72401618D01*
X63640466Y-72092882D01*
X63782561Y-71749834D01*
X63855000Y-71385656D01*
X63855000Y-71014344D01*
X63782561Y-70650166D01*
X63640466Y-70307118D01*
X63434175Y-69998382D01*
X63171618Y-69735825D01*
X62862882Y-69529534D01*
X62519834Y-69387439D01*
X62155656Y-69315000D01*
X61784344Y-69315000D01*
X61420166Y-69387439D01*
X61077118Y-69529534D01*
X60768382Y-69735825D01*
X60505825Y-69998382D01*
X60299534Y-70307118D01*
X60157439Y-70650166D01*
X60085000Y-71014344D01*
X58030000Y-71014344D01*
X58030000Y-67288061D01*
X75395000Y-67288061D01*
X75395000Y-67491939D01*
X75434774Y-67691898D01*
X75512795Y-67880256D01*
X75626063Y-68049774D01*
X75770226Y-68193937D01*
X75939744Y-68307205D01*
X76128102Y-68385226D01*
X76328061Y-68425000D01*
X76531939Y-68425000D01*
X76731898Y-68385226D01*
X76920256Y-68307205D01*
X76960971Y-68280000D01*
X80156289Y-68280000D01*
X80200226Y-68323937D01*
X80369744Y-68437205D01*
X80558102Y-68515226D01*
X80758061Y-68555000D01*
X80961939Y-68555000D01*
X81161898Y-68515226D01*
X81350256Y-68437205D01*
X81519774Y-68323937D01*
X81663937Y-68179774D01*
X81777205Y-68010256D01*
X81855226Y-67821898D01*
X81895000Y-67621939D01*
X81895000Y-67484042D01*
X82685000Y-67484042D01*
X82685000Y-67815958D01*
X82749754Y-68141496D01*
X82876772Y-68448147D01*
X83061175Y-68724125D01*
X83295875Y-68958825D01*
X83571853Y-69143228D01*
X83878504Y-69270246D01*
X84204042Y-69335000D01*
X84535958Y-69335000D01*
X84861496Y-69270246D01*
X85168147Y-69143228D01*
X85444125Y-68958825D01*
X85678825Y-68724125D01*
X85863228Y-68448147D01*
X85990246Y-68141496D01*
X86055000Y-67815958D01*
X86055000Y-67484042D01*
X85990246Y-67158504D01*
X85863228Y-66851853D01*
X85678825Y-66575875D01*
X85444125Y-66341175D01*
X85168147Y-66156772D01*
X84861496Y-66029754D01*
X84535958Y-65965000D01*
X84204042Y-65965000D01*
X83878504Y-66029754D01*
X83571853Y-66156772D01*
X83295875Y-66341175D01*
X83061175Y-66575875D01*
X82876772Y-66851853D01*
X82749754Y-67158504D01*
X82685000Y-67484042D01*
X81895000Y-67484042D01*
X81895000Y-67418061D01*
X81855226Y-67218102D01*
X81777205Y-67029744D01*
X81663937Y-66860226D01*
X81519774Y-66716063D01*
X81350256Y-66602795D01*
X81161898Y-66524774D01*
X80961939Y-66485000D01*
X80758061Y-66485000D01*
X80558102Y-66524774D01*
X80369744Y-66602795D01*
X80200226Y-66716063D01*
X80156289Y-66760000D01*
X77253831Y-66760000D01*
X77233937Y-66730226D01*
X77089774Y-66586063D01*
X76920256Y-66472795D01*
X76731898Y-66394774D01*
X76531939Y-66355000D01*
X76328061Y-66355000D01*
X76128102Y-66394774D01*
X75939744Y-66472795D01*
X75770226Y-66586063D01*
X75626063Y-66730226D01*
X75512795Y-66899744D01*
X75434774Y-67088102D01*
X75395000Y-67288061D01*
X58030000Y-67288061D01*
X58030000Y-66313605D01*
X60336000Y-66313605D01*
X60461914Y-66603577D01*
X60794126Y-66769433D01*
X61152312Y-66867290D01*
X61522706Y-66893389D01*
X61891075Y-66846725D01*
X62243262Y-66729094D01*
X62478086Y-66603577D01*
X62604000Y-66313605D01*
X61470000Y-65179605D01*
X60336000Y-66313605D01*
X58030000Y-66313605D01*
X58030000Y-65052706D01*
X59576611Y-65052706D01*
X59623275Y-65421075D01*
X59740906Y-65773262D01*
X59866423Y-66008086D01*
X60156395Y-66134000D01*
X61290395Y-65000000D01*
X61649605Y-65000000D01*
X62783605Y-66134000D01*
X63073577Y-66008086D01*
X63239433Y-65675874D01*
X63337290Y-65317688D01*
X63363389Y-64947294D01*
X63316725Y-64578925D01*
X63199094Y-64226738D01*
X63073577Y-63991914D01*
X62783605Y-63866000D01*
X61649605Y-65000000D01*
X61290395Y-65000000D01*
X60156395Y-63866000D01*
X59866423Y-63991914D01*
X59700567Y-64324126D01*
X59602710Y-64682312D01*
X59576611Y-65052706D01*
X58030000Y-65052706D01*
X58030000Y-63686395D01*
X60336000Y-63686395D01*
X61470000Y-64820395D01*
X62604000Y-63686395D01*
X62478086Y-63396423D01*
X62145874Y-63230567D01*
X61787688Y-63132710D01*
X61417294Y-63106611D01*
X61048925Y-63153275D01*
X60696738Y-63270906D01*
X60461914Y-63396423D01*
X60336000Y-63686395D01*
X58030000Y-63686395D01*
X58030000Y-58750000D01*
X59581928Y-58750000D01*
X59581928Y-61250000D01*
X59594188Y-61374482D01*
X59630498Y-61494180D01*
X59689463Y-61604494D01*
X59768815Y-61701185D01*
X59865506Y-61780537D01*
X59975820Y-61839502D01*
X60095518Y-61875812D01*
X60220000Y-61888072D01*
X62720000Y-61888072D01*
X62844482Y-61875812D01*
X62964180Y-61839502D01*
X63074494Y-61780537D01*
X63171185Y-61701185D01*
X63250537Y-61604494D01*
X63258284Y-61590000D01*
X82271928Y-61590000D01*
X82284188Y-61714482D01*
X82320498Y-61834180D01*
X82379463Y-61944494D01*
X82458815Y-62041185D01*
X82555506Y-62120537D01*
X82665820Y-62179502D01*
X82785518Y-62215812D01*
X82910000Y-62228072D01*
X83474250Y-62225000D01*
X83633000Y-62066250D01*
X83633000Y-60867000D01*
X83887000Y-60867000D01*
X83887000Y-62066250D01*
X84045750Y-62225000D01*
X84610000Y-62228072D01*
X84734482Y-62215812D01*
X84854180Y-62179502D01*
X84964494Y-62120537D01*
X85061185Y-62041185D01*
X85140537Y-61944494D01*
X85199502Y-61834180D01*
X85223966Y-61753534D01*
X85299731Y-61837588D01*
X85533080Y-62011641D01*
X85795901Y-62136825D01*
X85943110Y-62181476D01*
X86173000Y-62060155D01*
X86173000Y-60867000D01*
X83887000Y-60867000D01*
X83633000Y-60867000D01*
X82433750Y-60867000D01*
X82275000Y-61025750D01*
X82271928Y-61590000D01*
X63258284Y-61590000D01*
X63309502Y-61494180D01*
X63345812Y-61374482D01*
X63358072Y-61250000D01*
X63358072Y-59890000D01*
X82271928Y-59890000D01*
X82275000Y-60454250D01*
X82433750Y-60613000D01*
X83633000Y-60613000D01*
X83633000Y-59413750D01*
X83887000Y-59413750D01*
X83887000Y-60613000D01*
X86173000Y-60613000D01*
X86173000Y-59419845D01*
X85943110Y-59298524D01*
X85795901Y-59343175D01*
X85533080Y-59468359D01*
X85299731Y-59642412D01*
X85223966Y-59726466D01*
X85199502Y-59645820D01*
X85140537Y-59535506D01*
X85061185Y-59438815D01*
X84964494Y-59359463D01*
X84854180Y-59300498D01*
X84734482Y-59264188D01*
X84610000Y-59251928D01*
X84045750Y-59255000D01*
X83887000Y-59413750D01*
X83633000Y-59413750D01*
X83474250Y-59255000D01*
X82910000Y-59251928D01*
X82785518Y-59264188D01*
X82665820Y-59300498D01*
X82555506Y-59359463D01*
X82458815Y-59438815D01*
X82379463Y-59535506D01*
X82320498Y-59645820D01*
X82284188Y-59765518D01*
X82271928Y-59890000D01*
X63358072Y-59890000D01*
X63358072Y-58750000D01*
X63345812Y-58625518D01*
X63309502Y-58505820D01*
X63250537Y-58395506D01*
X63171185Y-58298815D01*
X63074494Y-58219463D01*
X62964180Y-58160498D01*
X62844482Y-58124188D01*
X62720000Y-58111928D01*
X60220000Y-58111928D01*
X60095518Y-58124188D01*
X59975820Y-58160498D01*
X59865506Y-58219463D01*
X59768815Y-58298815D01*
X59689463Y-58395506D01*
X59630498Y-58505820D01*
X59594188Y-58625518D01*
X59581928Y-58750000D01*
X58030000Y-58750000D01*
X58030000Y-54213605D01*
X60336000Y-54213605D01*
X60461914Y-54503577D01*
X60794126Y-54669433D01*
X61152312Y-54767290D01*
X61522706Y-54793389D01*
X61891075Y-54746725D01*
X62243262Y-54629094D01*
X62478086Y-54503577D01*
X62604000Y-54213605D01*
X61470000Y-53079605D01*
X60336000Y-54213605D01*
X58030000Y-54213605D01*
X58030000Y-52952706D01*
X59576611Y-52952706D01*
X59623275Y-53321075D01*
X59740906Y-53673262D01*
X59866423Y-53908086D01*
X60156395Y-54034000D01*
X61290395Y-52900000D01*
X61649605Y-52900000D01*
X62783605Y-54034000D01*
X63073577Y-53908086D01*
X63239433Y-53575874D01*
X63337290Y-53217688D01*
X63363389Y-52847294D01*
X63316725Y-52478925D01*
X63199094Y-52126738D01*
X63183766Y-52098061D01*
X76665000Y-52098061D01*
X76665000Y-52301939D01*
X76704774Y-52501898D01*
X76782795Y-52690256D01*
X76896063Y-52859774D01*
X77040226Y-53003937D01*
X77209744Y-53117205D01*
X77398102Y-53195226D01*
X77598061Y-53235000D01*
X77801939Y-53235000D01*
X77927623Y-53210000D01*
X80730392Y-53210000D01*
X80780000Y-53214886D01*
X80977994Y-53195385D01*
X80978518Y-53195226D01*
X81168380Y-53137632D01*
X81343840Y-53043847D01*
X81497633Y-52917633D01*
X81529261Y-52879094D01*
X88228355Y-46180000D01*
X90660392Y-46180000D01*
X90710000Y-46184886D01*
X90907994Y-46165385D01*
X91059378Y-46119463D01*
X91098380Y-46107632D01*
X91273840Y-46013847D01*
X91427633Y-45887633D01*
X91459261Y-45849094D01*
X94750284Y-42558072D01*
X94769717Y-42558072D01*
X102087474Y-49875830D01*
X102121154Y-49938841D01*
X102247368Y-50092634D01*
X102285907Y-50124262D01*
X104870000Y-52708355D01*
X104870000Y-59758421D01*
X103456534Y-58344956D01*
X103428817Y-58311183D01*
X103294059Y-58200589D01*
X103140313Y-58118411D01*
X102973490Y-58067805D01*
X102843477Y-58055000D01*
X102843469Y-58055000D01*
X102800000Y-58050719D01*
X102756531Y-58055000D01*
X93223465Y-58055000D01*
X93179999Y-58050719D01*
X93136533Y-58055000D01*
X93136523Y-58055000D01*
X93006510Y-58067805D01*
X92839687Y-58118411D01*
X92685941Y-58200589D01*
X92685939Y-58200590D01*
X92685940Y-58200590D01*
X92584953Y-58283468D01*
X92584951Y-58283470D01*
X92551183Y-58311183D01*
X92523470Y-58344951D01*
X91598960Y-59269461D01*
X91526260Y-59255000D01*
X91233740Y-59255000D01*
X91161040Y-59269461D01*
X87216534Y-55324956D01*
X87188817Y-55291183D01*
X87054059Y-55180589D01*
X86900313Y-55098411D01*
X86733490Y-55047805D01*
X86603477Y-55035000D01*
X86603469Y-55035000D01*
X86560000Y-55030719D01*
X86516531Y-55035000D01*
X84888454Y-55035000D01*
X84840256Y-55002795D01*
X84651898Y-54924774D01*
X84451939Y-54885000D01*
X84248061Y-54885000D01*
X84048102Y-54924774D01*
X83859744Y-55002795D01*
X83690226Y-55116063D01*
X83546063Y-55260226D01*
X83432795Y-55429744D01*
X83354774Y-55618102D01*
X83315000Y-55818061D01*
X83315000Y-56021939D01*
X83354774Y-56221898D01*
X83432795Y-56410256D01*
X83546063Y-56579774D01*
X83690226Y-56723937D01*
X83859744Y-56837205D01*
X84048102Y-56915226D01*
X84248061Y-56955000D01*
X84451939Y-56955000D01*
X84651898Y-56915226D01*
X84840256Y-56837205D01*
X84888454Y-56805000D01*
X86193422Y-56805000D01*
X88651770Y-59263348D01*
X88406842Y-59312068D01*
X88136589Y-59424010D01*
X87893368Y-59586525D01*
X87686525Y-59793368D01*
X87564805Y-59975534D01*
X87495178Y-59858645D01*
X87300269Y-59642412D01*
X87066920Y-59468359D01*
X86804099Y-59343175D01*
X86656890Y-59298524D01*
X86427000Y-59419845D01*
X86427000Y-60613000D01*
X86447000Y-60613000D01*
X86447000Y-60867000D01*
X86427000Y-60867000D01*
X86427000Y-62060155D01*
X86656890Y-62181476D01*
X86804099Y-62136825D01*
X87066920Y-62011641D01*
X87300269Y-61837588D01*
X87495178Y-61621355D01*
X87564805Y-61504466D01*
X87686525Y-61686632D01*
X87893368Y-61893475D01*
X88136589Y-62055990D01*
X88406842Y-62167932D01*
X88693740Y-62225000D01*
X88986260Y-62225000D01*
X89273158Y-62167932D01*
X89543411Y-62055990D01*
X89786632Y-61893475D01*
X89993475Y-61686632D01*
X90110000Y-61512240D01*
X90226525Y-61686632D01*
X90433368Y-61893475D01*
X90676589Y-62055990D01*
X90946842Y-62167932D01*
X91233740Y-62225000D01*
X91526260Y-62225000D01*
X91813158Y-62167932D01*
X92083411Y-62055990D01*
X92326632Y-61893475D01*
X92533475Y-61686632D01*
X92650000Y-61512240D01*
X92766525Y-61686632D01*
X92973368Y-61893475D01*
X93216589Y-62055990D01*
X93486842Y-62167932D01*
X93773740Y-62225000D01*
X94066260Y-62225000D01*
X94353158Y-62167932D01*
X94623411Y-62055990D01*
X94866632Y-61893475D01*
X95073475Y-61686632D01*
X95190000Y-61512240D01*
X95306525Y-61686632D01*
X95513368Y-61893475D01*
X95756589Y-62055990D01*
X96026842Y-62167932D01*
X96313740Y-62225000D01*
X96606260Y-62225000D01*
X96893158Y-62167932D01*
X97163411Y-62055990D01*
X97406632Y-61893475D01*
X97613475Y-61686632D01*
X97730000Y-61512240D01*
X97846525Y-61686632D01*
X98053368Y-61893475D01*
X98296589Y-62055990D01*
X98469168Y-62127474D01*
X89816643Y-70780000D01*
X85965038Y-70780000D01*
X85939502Y-70695820D01*
X85880537Y-70585506D01*
X85801185Y-70488815D01*
X85704494Y-70409463D01*
X85594180Y-70350498D01*
X85474482Y-70314188D01*
X85350000Y-70301928D01*
X83650000Y-70301928D01*
X83525518Y-70314188D01*
X83405820Y-70350498D01*
X83295506Y-70409463D01*
X83198815Y-70488815D01*
X83119463Y-70585506D01*
X83060498Y-70695820D01*
X83024188Y-70815518D01*
X83011928Y-70940000D01*
X83011928Y-72640000D01*
X83024188Y-72764482D01*
X83060498Y-72884180D01*
X83119463Y-72994494D01*
X83198815Y-73091185D01*
X83295506Y-73170537D01*
X83405820Y-73229502D01*
X83525518Y-73265812D01*
X83650000Y-73278072D01*
X85350000Y-73278072D01*
X85474482Y-73265812D01*
X85594180Y-73229502D01*
X85704494Y-73170537D01*
X85801185Y-73091185D01*
X85880537Y-72994494D01*
X85939502Y-72884180D01*
X85965038Y-72800000D01*
X90185390Y-72800000D01*
X90234998Y-72804886D01*
X90432992Y-72785385D01*
X90438065Y-72783846D01*
X90623378Y-72727632D01*
X90798838Y-72633847D01*
X90952631Y-72507633D01*
X90984259Y-72469094D01*
X100066352Y-63387002D01*
X100173748Y-63387002D01*
X100015000Y-63545750D01*
X100011928Y-64110000D01*
X100024188Y-64234482D01*
X100060498Y-64354180D01*
X100119463Y-64464494D01*
X100197842Y-64560000D01*
X100119463Y-64655506D01*
X100060498Y-64765820D01*
X100024188Y-64885518D01*
X100011928Y-65010000D01*
X100011928Y-66710000D01*
X100024188Y-66834482D01*
X100060498Y-66954180D01*
X100119463Y-67064494D01*
X100198815Y-67161185D01*
X100295506Y-67240537D01*
X100405820Y-67299502D01*
X100525518Y-67335812D01*
X100650000Y-67348072D01*
X102350000Y-67348072D01*
X102474482Y-67335812D01*
X102594180Y-67299502D01*
X102704494Y-67240537D01*
X102801185Y-67161185D01*
X102880537Y-67064494D01*
X102939502Y-66954180D01*
X102975812Y-66834482D01*
X102988072Y-66710000D01*
X102988072Y-65623506D01*
X103055000Y-65556578D01*
X103055001Y-82286521D01*
X103050719Y-82330000D01*
X103067805Y-82503490D01*
X103118412Y-82670313D01*
X103200590Y-82824059D01*
X103283468Y-82925046D01*
X103283471Y-82925049D01*
X103311184Y-82958817D01*
X103344951Y-82986530D01*
X107713470Y-87355049D01*
X107741183Y-87388817D01*
X107774951Y-87416530D01*
X107774953Y-87416532D01*
X107823682Y-87456523D01*
X107875941Y-87499411D01*
X108029687Y-87581589D01*
X108196510Y-87632195D01*
X108326523Y-87645000D01*
X108326533Y-87645000D01*
X108369999Y-87649281D01*
X108413466Y-87645000D01*
X111348330Y-87645000D01*
X111341928Y-87710000D01*
X111345000Y-88274250D01*
X111503750Y-88433000D01*
X112703000Y-88433000D01*
X112703000Y-88413000D01*
X112957000Y-88413000D01*
X112957000Y-88433000D01*
X112977000Y-88433000D01*
X112977000Y-88687000D01*
X112957000Y-88687000D01*
X112957000Y-89886250D01*
X113115750Y-90045000D01*
X113680000Y-90048072D01*
X113804482Y-90035812D01*
X113924180Y-89999502D01*
X114034494Y-89940537D01*
X114131185Y-89861185D01*
X114210537Y-89764494D01*
X114269502Y-89654180D01*
X114291513Y-89581620D01*
X114423368Y-89713475D01*
X114666589Y-89875990D01*
X114936842Y-89987932D01*
X115223740Y-90045000D01*
X115516260Y-90045000D01*
X115803158Y-89987932D01*
X116073411Y-89875990D01*
X116316632Y-89713475D01*
X116523475Y-89506632D01*
X116640000Y-89332240D01*
X116756525Y-89506632D01*
X116963368Y-89713475D01*
X117206589Y-89875990D01*
X117476842Y-89987932D01*
X117763740Y-90045000D01*
X118056260Y-90045000D01*
X118343158Y-89987932D01*
X118613411Y-89875990D01*
X118856632Y-89713475D01*
X119063475Y-89506632D01*
X119225990Y-89263411D01*
X119337932Y-88993158D01*
X119395000Y-88706260D01*
X119395000Y-88413740D01*
X119337932Y-88126842D01*
X119225990Y-87856589D01*
X119063475Y-87613368D01*
X118856632Y-87406525D01*
X118613411Y-87244010D01*
X118343158Y-87132068D01*
X118056260Y-87075000D01*
X117763740Y-87075000D01*
X117476842Y-87132068D01*
X117206589Y-87244010D01*
X116963368Y-87406525D01*
X116756525Y-87613368D01*
X116640000Y-87787760D01*
X116523475Y-87613368D01*
X116316632Y-87406525D01*
X116245387Y-87358921D01*
X116242195Y-87326510D01*
X116191589Y-87159687D01*
X116109411Y-87005941D01*
X116085210Y-86976452D01*
X116026532Y-86904953D01*
X116026530Y-86904951D01*
X115998817Y-86871183D01*
X115965050Y-86843471D01*
X115286534Y-86164956D01*
X115258817Y-86131183D01*
X115124059Y-86020589D01*
X114970313Y-85938411D01*
X114803490Y-85887805D01*
X114673477Y-85875000D01*
X114673469Y-85875000D01*
X114630000Y-85870719D01*
X114586531Y-85875000D01*
X108736579Y-85875000D01*
X107401579Y-84540000D01*
X108321928Y-84540000D01*
X108334188Y-84664482D01*
X108370498Y-84784180D01*
X108429463Y-84894494D01*
X108508815Y-84991185D01*
X108605506Y-85070537D01*
X108715820Y-85129502D01*
X108835518Y-85165812D01*
X108960000Y-85178072D01*
X109524250Y-85175000D01*
X109683000Y-85016250D01*
X109683000Y-83817000D01*
X108483750Y-83817000D01*
X108325000Y-83975750D01*
X108321928Y-84540000D01*
X107401579Y-84540000D01*
X105701579Y-82840000D01*
X108321928Y-82840000D01*
X108325000Y-83404250D01*
X108483750Y-83563000D01*
X109683000Y-83563000D01*
X109683000Y-82363750D01*
X109937000Y-82363750D01*
X109937000Y-83563000D01*
X109957000Y-83563000D01*
X109957000Y-83817000D01*
X109937000Y-83817000D01*
X109937000Y-85016250D01*
X110095750Y-85175000D01*
X110660000Y-85178072D01*
X110784482Y-85165812D01*
X110904180Y-85129502D01*
X111014494Y-85070537D01*
X111111185Y-84991185D01*
X111190537Y-84894494D01*
X111249502Y-84784180D01*
X111271513Y-84711620D01*
X111403368Y-84843475D01*
X111646589Y-85005990D01*
X111916842Y-85117932D01*
X112203740Y-85175000D01*
X112496260Y-85175000D01*
X112783158Y-85117932D01*
X113053411Y-85005990D01*
X113296632Y-84843475D01*
X113503475Y-84636632D01*
X113620000Y-84462240D01*
X113736525Y-84636632D01*
X113943368Y-84843475D01*
X114186589Y-85005990D01*
X114456842Y-85117932D01*
X114743740Y-85175000D01*
X115036260Y-85175000D01*
X115323158Y-85117932D01*
X115593411Y-85005990D01*
X115836632Y-84843475D01*
X116043475Y-84636632D01*
X116160000Y-84462240D01*
X116276525Y-84636632D01*
X116483368Y-84843475D01*
X116726589Y-85005990D01*
X116996842Y-85117932D01*
X117283740Y-85175000D01*
X117576260Y-85175000D01*
X117863158Y-85117932D01*
X118133411Y-85005990D01*
X118376632Y-84843475D01*
X118583475Y-84636632D01*
X118700000Y-84462240D01*
X118816525Y-84636632D01*
X119023368Y-84843475D01*
X119266589Y-85005990D01*
X119536842Y-85117932D01*
X119823740Y-85175000D01*
X120116260Y-85175000D01*
X120403158Y-85117932D01*
X120673411Y-85005990D01*
X120916632Y-84843475D01*
X121123475Y-84636632D01*
X121240000Y-84462240D01*
X121356525Y-84636632D01*
X121563368Y-84843475D01*
X121806589Y-85005990D01*
X122076842Y-85117932D01*
X122363740Y-85175000D01*
X122656260Y-85175000D01*
X122943158Y-85117932D01*
X123213411Y-85005990D01*
X123456632Y-84843475D01*
X123663475Y-84636632D01*
X123825990Y-84393411D01*
X123937932Y-84123158D01*
X123995000Y-83836260D01*
X123995000Y-83543740D01*
X123937932Y-83256842D01*
X123825990Y-82986589D01*
X123663926Y-82744042D01*
X126205000Y-82744042D01*
X126205000Y-83075958D01*
X126269754Y-83401496D01*
X126396772Y-83708147D01*
X126581175Y-83984125D01*
X126815875Y-84218825D01*
X127091853Y-84403228D01*
X127398504Y-84530246D01*
X127724042Y-84595000D01*
X128055958Y-84595000D01*
X128381496Y-84530246D01*
X128688147Y-84403228D01*
X128964125Y-84218825D01*
X129198825Y-83984125D01*
X129383228Y-83708147D01*
X129510246Y-83401496D01*
X129575000Y-83075958D01*
X129575000Y-82744042D01*
X129510246Y-82418504D01*
X129383228Y-82111853D01*
X129198825Y-81835875D01*
X128964125Y-81601175D01*
X128688147Y-81416772D01*
X128381496Y-81289754D01*
X128055958Y-81225000D01*
X127724042Y-81225000D01*
X127398504Y-81289754D01*
X127091853Y-81416772D01*
X126815875Y-81601175D01*
X126581175Y-81835875D01*
X126396772Y-82111853D01*
X126269754Y-82418504D01*
X126205000Y-82744042D01*
X123663926Y-82744042D01*
X123663475Y-82743368D01*
X123456632Y-82536525D01*
X123213411Y-82374010D01*
X122943158Y-82262068D01*
X122656260Y-82205000D01*
X122363740Y-82205000D01*
X122076842Y-82262068D01*
X121806589Y-82374010D01*
X121563368Y-82536525D01*
X121356525Y-82743368D01*
X121240000Y-82917760D01*
X121123475Y-82743368D01*
X120916632Y-82536525D01*
X120673411Y-82374010D01*
X120403158Y-82262068D01*
X120116260Y-82205000D01*
X119823740Y-82205000D01*
X119536842Y-82262068D01*
X119266589Y-82374010D01*
X119023368Y-82536525D01*
X118816525Y-82743368D01*
X118700000Y-82917760D01*
X118583475Y-82743368D01*
X118376632Y-82536525D01*
X118133411Y-82374010D01*
X117863158Y-82262068D01*
X117576260Y-82205000D01*
X117283740Y-82205000D01*
X116996842Y-82262068D01*
X116726589Y-82374010D01*
X116483368Y-82536525D01*
X116276525Y-82743368D01*
X116160000Y-82917760D01*
X116043475Y-82743368D01*
X115836632Y-82536525D01*
X115593411Y-82374010D01*
X115323158Y-82262068D01*
X115036260Y-82205000D01*
X114743740Y-82205000D01*
X114456842Y-82262068D01*
X114186589Y-82374010D01*
X113943368Y-82536525D01*
X113736525Y-82743368D01*
X113620000Y-82917760D01*
X113503475Y-82743368D01*
X113296632Y-82536525D01*
X113053411Y-82374010D01*
X112783158Y-82262068D01*
X112496260Y-82205000D01*
X112203740Y-82205000D01*
X111916842Y-82262068D01*
X111646589Y-82374010D01*
X111403368Y-82536525D01*
X111271513Y-82668380D01*
X111249502Y-82595820D01*
X111190537Y-82485506D01*
X111111185Y-82388815D01*
X111014494Y-82309463D01*
X110904180Y-82250498D01*
X110784482Y-82214188D01*
X110660000Y-82201928D01*
X110095750Y-82205000D01*
X109937000Y-82363750D01*
X109683000Y-82363750D01*
X109524250Y-82205000D01*
X108960000Y-82201928D01*
X108835518Y-82214188D01*
X108715820Y-82250498D01*
X108605506Y-82309463D01*
X108508815Y-82388815D01*
X108429463Y-82485506D01*
X108370498Y-82595820D01*
X108334188Y-82715518D01*
X108321928Y-82840000D01*
X105701579Y-82840000D01*
X104825000Y-81963422D01*
X104825000Y-74438363D01*
X111055000Y-74438363D01*
X111055000Y-74681637D01*
X111102460Y-74920236D01*
X111195557Y-75144992D01*
X111330713Y-75347267D01*
X111502733Y-75519287D01*
X111705008Y-75654443D01*
X111889580Y-75730895D01*
X111815099Y-75753489D01*
X111600551Y-75868167D01*
X111412498Y-76022498D01*
X111258167Y-76210552D01*
X111143489Y-76425100D01*
X111072870Y-76657899D01*
X111055000Y-76839336D01*
X111055000Y-77360665D01*
X111072870Y-77542102D01*
X111143489Y-77774901D01*
X111258168Y-77989449D01*
X111412499Y-78177502D01*
X111600552Y-78331833D01*
X111815100Y-78446511D01*
X112047899Y-78517130D01*
X112290000Y-78540975D01*
X112532102Y-78517130D01*
X112764901Y-78446511D01*
X112979449Y-78331833D01*
X113167502Y-78177502D01*
X113321833Y-77989449D01*
X113436511Y-77774900D01*
X113507130Y-77542101D01*
X113525000Y-77360664D01*
X113525000Y-77065000D01*
X113681637Y-77065000D01*
X113920236Y-77017540D01*
X114144992Y-76924443D01*
X114347267Y-76789287D01*
X114519287Y-76617267D01*
X114654443Y-76414992D01*
X114747540Y-76190236D01*
X114795000Y-75951637D01*
X114795000Y-75708363D01*
X114747540Y-75469764D01*
X114654443Y-75245008D01*
X114519287Y-75042733D01*
X114347267Y-74870713D01*
X114144992Y-74735557D01*
X113920236Y-74642460D01*
X113681637Y-74595000D01*
X113525000Y-74595000D01*
X113525000Y-74438363D01*
X113477540Y-74199764D01*
X113384443Y-73975008D01*
X113249287Y-73772733D01*
X113077267Y-73600713D01*
X112874992Y-73465557D01*
X112650236Y-73372460D01*
X112411637Y-73325000D01*
X112168363Y-73325000D01*
X111929764Y-73372460D01*
X111705008Y-73465557D01*
X111502733Y-73600713D01*
X111330713Y-73772733D01*
X111195557Y-73975008D01*
X111102460Y-74199764D01*
X111055000Y-74438363D01*
X104825000Y-74438363D01*
X104825000Y-63786578D01*
X104870001Y-63741577D01*
X104870001Y-69822372D01*
X104845000Y-69948061D01*
X104845000Y-70151939D01*
X104870000Y-70277623D01*
X104870000Y-70590392D01*
X104865114Y-70640000D01*
X104870000Y-70689607D01*
X104870000Y-70689608D01*
X104876135Y-70751898D01*
X104884615Y-70837994D01*
X104942368Y-71028379D01*
X105036154Y-71203840D01*
X105082983Y-71260901D01*
X105162368Y-71357633D01*
X105200901Y-71389256D01*
X106460739Y-72649094D01*
X106492367Y-72687633D01*
X106646160Y-72813847D01*
X106821620Y-72907632D01*
X107012006Y-72965385D01*
X107160392Y-72980000D01*
X107160394Y-72980000D01*
X107209999Y-72984886D01*
X107259604Y-72980000D01*
X109630392Y-72980000D01*
X109680000Y-72984886D01*
X109780373Y-72975000D01*
X109811939Y-72975000D01*
X109842900Y-72968841D01*
X109877994Y-72965385D01*
X109877997Y-72965384D01*
X109911738Y-72955149D01*
X110011898Y-72935226D01*
X110200256Y-72857205D01*
X110369774Y-72743937D01*
X110393711Y-72720000D01*
X115735199Y-72720000D01*
X117006200Y-73991002D01*
X117029999Y-74020001D01*
X117058997Y-74043799D01*
X117145723Y-74114974D01*
X117229519Y-74159764D01*
X117277753Y-74185546D01*
X117421014Y-74229003D01*
X117532667Y-74240000D01*
X117532677Y-74240000D01*
X117569999Y-74243676D01*
X117607322Y-74240000D01*
X118086500Y-74240000D01*
X118055000Y-74398363D01*
X118055000Y-74641637D01*
X118102460Y-74880236D01*
X118195557Y-75104992D01*
X118330713Y-75307267D01*
X118502733Y-75479287D01*
X118705008Y-75614443D01*
X118889580Y-75690895D01*
X118815099Y-75713489D01*
X118600551Y-75828167D01*
X118412498Y-75982498D01*
X118258167Y-76170552D01*
X118143489Y-76385100D01*
X118072870Y-76617899D01*
X118055000Y-76799336D01*
X118055000Y-77320665D01*
X118072870Y-77502102D01*
X118143489Y-77734901D01*
X118258168Y-77949449D01*
X118412499Y-78137502D01*
X118600552Y-78291833D01*
X118815100Y-78406511D01*
X119047899Y-78477130D01*
X119290000Y-78500975D01*
X119532102Y-78477130D01*
X119764901Y-78406511D01*
X119979449Y-78291833D01*
X120167502Y-78137502D01*
X120321833Y-77949449D01*
X120436511Y-77734900D01*
X120507130Y-77502101D01*
X120525000Y-77320664D01*
X120525000Y-77025000D01*
X120681637Y-77025000D01*
X120920236Y-76977540D01*
X121144992Y-76884443D01*
X121347267Y-76749287D01*
X121519287Y-76577267D01*
X121654443Y-76374992D01*
X121747540Y-76150236D01*
X121795000Y-75911637D01*
X121795000Y-75668363D01*
X121747540Y-75429764D01*
X121654443Y-75205008D01*
X121519287Y-75002733D01*
X121347267Y-74830713D01*
X121144992Y-74695557D01*
X120920236Y-74602460D01*
X120681637Y-74555000D01*
X120525000Y-74555000D01*
X120525000Y-74398363D01*
X120493500Y-74240000D01*
X120648788Y-74240000D01*
X120824786Y-74415998D01*
X120848589Y-74445002D01*
X120964314Y-74539975D01*
X121096343Y-74610547D01*
X121239604Y-74654004D01*
X121351257Y-74665001D01*
X121351266Y-74665001D01*
X121388589Y-74668677D01*
X121425912Y-74665001D01*
X124829391Y-74665001D01*
X124812340Y-74750721D01*
X124812340Y-74954599D01*
X124852114Y-75154558D01*
X124930135Y-75342916D01*
X125043403Y-75512434D01*
X125187566Y-75656597D01*
X125357084Y-75769865D01*
X125545442Y-75847886D01*
X125745401Y-75887660D01*
X125807539Y-75887660D01*
X128330881Y-78411003D01*
X128354679Y-78440001D01*
X128383677Y-78463799D01*
X128470404Y-78534974D01*
X128602433Y-78605546D01*
X128745694Y-78649003D01*
X128894680Y-78663677D01*
X128932013Y-78660000D01*
X131098421Y-78660000D01*
X130264957Y-79493465D01*
X130208102Y-79504774D01*
X130019744Y-79582795D01*
X129850226Y-79696063D01*
X129706063Y-79840226D01*
X129592795Y-80009744D01*
X129514774Y-80198102D01*
X129475000Y-80398061D01*
X129475000Y-80601939D01*
X129514774Y-80801898D01*
X129592795Y-80990256D01*
X129706063Y-81159774D01*
X129850226Y-81303937D01*
X130019744Y-81417205D01*
X130208102Y-81495226D01*
X130408061Y-81535000D01*
X130611939Y-81535000D01*
X130811898Y-81495226D01*
X131000256Y-81417205D01*
X131169774Y-81303937D01*
X131313937Y-81159774D01*
X131427205Y-80990256D01*
X131505226Y-80801898D01*
X131516535Y-80745043D01*
X132406579Y-79855000D01*
X135336531Y-79855000D01*
X135380000Y-79859281D01*
X135423469Y-79855000D01*
X135423477Y-79855000D01*
X135553490Y-79842195D01*
X135720313Y-79791589D01*
X135874059Y-79709411D01*
X136008817Y-79598817D01*
X136036534Y-79565044D01*
X136565045Y-79036533D01*
X136598817Y-79008817D01*
X136709411Y-78874059D01*
X136791589Y-78720313D01*
X136842195Y-78553490D01*
X136855000Y-78423477D01*
X136855000Y-78423470D01*
X136859281Y-78380001D01*
X136855000Y-78336532D01*
X136855000Y-77103469D01*
X136859281Y-77060000D01*
X136855000Y-77016531D01*
X136855000Y-77016523D01*
X136842195Y-76886510D01*
X136808249Y-76774605D01*
X136850256Y-76757205D01*
X137019774Y-76643937D01*
X137063711Y-76600000D01*
X137945199Y-76600000D01*
X139240000Y-77894802D01*
X139240000Y-78970582D01*
X139211939Y-78965000D01*
X139008061Y-78965000D01*
X138808102Y-79004774D01*
X138619744Y-79082795D01*
X138450226Y-79196063D01*
X138306063Y-79340226D01*
X138192795Y-79509744D01*
X138114774Y-79698102D01*
X138075000Y-79898061D01*
X138075000Y-80101939D01*
X138114774Y-80301898D01*
X138192795Y-80490256D01*
X138202647Y-80505000D01*
X138038061Y-80505000D01*
X137838102Y-80544774D01*
X137649744Y-80622795D01*
X137480226Y-80736063D01*
X137336063Y-80880226D01*
X137222795Y-81049744D01*
X137144774Y-81238102D01*
X137105000Y-81438061D01*
X137105000Y-81641939D01*
X137144774Y-81841898D01*
X137222795Y-82030256D01*
X137336063Y-82199774D01*
X137480226Y-82343937D01*
X137649744Y-82457205D01*
X137838102Y-82535226D01*
X138038061Y-82575000D01*
X138241939Y-82575000D01*
X138441898Y-82535226D01*
X138630256Y-82457205D01*
X138799774Y-82343937D01*
X138943937Y-82199774D01*
X138947303Y-82194737D01*
X138984276Y-82174974D01*
X139002517Y-82160004D01*
X139024774Y-82271898D01*
X139102795Y-82460256D01*
X139216063Y-82629774D01*
X139360226Y-82773937D01*
X139529744Y-82887205D01*
X139718102Y-82965226D01*
X139918061Y-83005000D01*
X140121939Y-83005000D01*
X140321898Y-82965226D01*
X140510256Y-82887205D01*
X140679774Y-82773937D01*
X140823937Y-82629774D01*
X140937205Y-82460256D01*
X141015226Y-82271898D01*
X141055000Y-82071939D01*
X141055000Y-81868061D01*
X141015226Y-81668102D01*
X140937205Y-81479744D01*
X140823937Y-81310226D01*
X140760000Y-81246289D01*
X140760000Y-77617333D01*
X140763677Y-77580000D01*
X140754884Y-77490719D01*
X140749003Y-77431014D01*
X140705546Y-77287753D01*
X140634974Y-77155724D01*
X140540001Y-77039999D01*
X140511004Y-77016202D01*
X138823804Y-75329003D01*
X138800001Y-75299999D01*
X138684276Y-75205026D01*
X138552247Y-75134454D01*
X138408986Y-75090997D01*
X138297333Y-75080000D01*
X138297322Y-75080000D01*
X138260000Y-75076324D01*
X138222678Y-75080000D01*
X137063711Y-75080000D01*
X137019774Y-75036063D01*
X136850256Y-74922795D01*
X136661898Y-74844774D01*
X136461939Y-74805000D01*
X136258061Y-74805000D01*
X136058102Y-74844774D01*
X135869744Y-74922795D01*
X135700226Y-75036063D01*
X135556063Y-75180226D01*
X135541727Y-75201681D01*
X135473937Y-75100226D01*
X135329774Y-74956063D01*
X135160256Y-74842795D01*
X134971898Y-74764774D01*
X134771939Y-74725000D01*
X134568061Y-74725000D01*
X134368102Y-74764774D01*
X134179744Y-74842795D01*
X134010226Y-74956063D01*
X133866063Y-75100226D01*
X133752795Y-75269744D01*
X133674774Y-75458102D01*
X133635000Y-75658061D01*
X133635000Y-75861939D01*
X133674774Y-76061898D01*
X133752795Y-76250256D01*
X133782130Y-76294159D01*
X133716063Y-76360226D01*
X133602795Y-76529744D01*
X133524774Y-76718102D01*
X133485000Y-76918061D01*
X133485000Y-76980199D01*
X133325199Y-77140000D01*
X131960448Y-77140000D01*
X132005226Y-77031898D01*
X132045000Y-76831939D01*
X132045000Y-76628061D01*
X132005226Y-76428102D01*
X131927205Y-76239744D01*
X131813937Y-76070226D01*
X131669774Y-75926063D01*
X131500256Y-75812795D01*
X131311898Y-75734774D01*
X131111939Y-75695000D01*
X131049802Y-75695000D01*
X128748805Y-73394004D01*
X128725002Y-73365000D01*
X128609277Y-73270027D01*
X128477248Y-73199455D01*
X128333987Y-73155998D01*
X128222334Y-73145001D01*
X128222323Y-73145001D01*
X128185001Y-73141325D01*
X128147679Y-73145001D01*
X125265000Y-73145001D01*
X125265000Y-73078061D01*
X125225226Y-72878102D01*
X125147205Y-72689744D01*
X125033937Y-72520226D01*
X124889774Y-72376063D01*
X124720256Y-72262795D01*
X124531898Y-72184774D01*
X124331939Y-72145000D01*
X124128061Y-72145000D01*
X123928102Y-72184774D01*
X123739744Y-72262795D01*
X123570226Y-72376063D01*
X123526289Y-72420000D01*
X121614802Y-72420000D01*
X118110789Y-68915988D01*
X118112247Y-68915546D01*
X118244276Y-68844974D01*
X118360001Y-68750001D01*
X118383804Y-68720997D01*
X119810001Y-67294800D01*
X119810000Y-68836289D01*
X119766063Y-68880226D01*
X119652795Y-69049744D01*
X119574774Y-69238102D01*
X119535000Y-69438061D01*
X119535000Y-69641939D01*
X119574774Y-69841898D01*
X119652795Y-70030256D01*
X119766063Y-70199774D01*
X119910226Y-70343937D01*
X120079744Y-70457205D01*
X120268102Y-70535226D01*
X120468061Y-70575000D01*
X120671939Y-70575000D01*
X120871898Y-70535226D01*
X121060256Y-70457205D01*
X121229774Y-70343937D01*
X121373937Y-70199774D01*
X121487205Y-70030256D01*
X121565226Y-69841898D01*
X121605000Y-69641939D01*
X121605000Y-69438061D01*
X121565226Y-69238102D01*
X121487205Y-69049744D01*
X121486081Y-69048061D01*
X125425000Y-69048061D01*
X125425000Y-69251939D01*
X125464774Y-69451898D01*
X125542795Y-69640256D01*
X125656063Y-69809774D01*
X125800226Y-69953937D01*
X125969744Y-70067205D01*
X126158102Y-70145226D01*
X126358061Y-70185000D01*
X126525000Y-70185000D01*
X126525000Y-70351939D01*
X126564774Y-70551898D01*
X126642795Y-70740256D01*
X126756063Y-70909774D01*
X126900226Y-71053937D01*
X127069744Y-71167205D01*
X127258102Y-71245226D01*
X127458061Y-71285000D01*
X127661939Y-71285000D01*
X127861898Y-71245226D01*
X128050256Y-71167205D01*
X128219774Y-71053937D01*
X128363937Y-70909774D01*
X128477205Y-70740256D01*
X128555226Y-70551898D01*
X128579473Y-70430000D01*
X135542667Y-70430000D01*
X135580000Y-70433677D01*
X135617333Y-70430000D01*
X135715198Y-70430000D01*
X135733997Y-70448799D01*
X135734002Y-70448803D01*
X135775000Y-70489801D01*
X135775000Y-70551939D01*
X135814774Y-70751898D01*
X135892795Y-70940256D01*
X136006063Y-71109774D01*
X136150226Y-71253937D01*
X136319744Y-71367205D01*
X136508102Y-71445226D01*
X136708061Y-71485000D01*
X136911939Y-71485000D01*
X137111898Y-71445226D01*
X137300256Y-71367205D01*
X137469774Y-71253937D01*
X137613937Y-71109774D01*
X137727205Y-70940256D01*
X137805226Y-70751898D01*
X137823891Y-70658061D01*
X141955000Y-70658061D01*
X141955000Y-70861939D01*
X141994774Y-71061898D01*
X142072795Y-71250256D01*
X142186063Y-71419774D01*
X142330226Y-71563937D01*
X142499744Y-71677205D01*
X142688102Y-71755226D01*
X142888061Y-71795000D01*
X143091939Y-71795000D01*
X143291898Y-71755226D01*
X143480256Y-71677205D01*
X143649774Y-71563937D01*
X143793937Y-71419774D01*
X143907205Y-71250256D01*
X143985226Y-71061898D01*
X144025000Y-70861939D01*
X144025000Y-70658061D01*
X143985226Y-70458102D01*
X143907205Y-70269744D01*
X143793937Y-70100226D01*
X143649774Y-69956063D01*
X143480256Y-69842795D01*
X143291898Y-69764774D01*
X143091939Y-69725000D01*
X142888061Y-69725000D01*
X142688102Y-69764774D01*
X142499744Y-69842795D01*
X142330226Y-69956063D01*
X142186063Y-70100226D01*
X142072795Y-70269744D01*
X141994774Y-70458102D01*
X141955000Y-70658061D01*
X137823891Y-70658061D01*
X137845000Y-70551939D01*
X137845000Y-70348061D01*
X137805226Y-70148102D01*
X137727205Y-69959744D01*
X137613937Y-69790226D01*
X137469774Y-69646063D01*
X137300256Y-69532795D01*
X137111898Y-69454774D01*
X136911939Y-69415000D01*
X136849801Y-69415000D01*
X136808803Y-69374002D01*
X136808799Y-69373997D01*
X136593801Y-69158999D01*
X136570001Y-69129999D01*
X136541000Y-69106199D01*
X136278803Y-68844002D01*
X136278799Y-68843997D01*
X136255001Y-68814999D01*
X136226002Y-68791200D01*
X135905000Y-68470199D01*
X135905000Y-50298711D01*
X135948937Y-50254774D01*
X136062205Y-50085256D01*
X136140226Y-49896898D01*
X136180000Y-49696939D01*
X136180000Y-49493061D01*
X136140226Y-49293102D01*
X136062205Y-49104744D01*
X135948937Y-48935226D01*
X135804774Y-48791063D01*
X135635256Y-48677795D01*
X135446898Y-48599774D01*
X135246939Y-48560000D01*
X135043061Y-48560000D01*
X134843102Y-48599774D01*
X134654744Y-48677795D01*
X134485226Y-48791063D01*
X134341063Y-48935226D01*
X134227795Y-49104744D01*
X134149774Y-49293102D01*
X134110000Y-49493061D01*
X134110000Y-49696939D01*
X134149774Y-49896898D01*
X134227795Y-50085256D01*
X134341063Y-50254774D01*
X134385000Y-50298711D01*
X134385001Y-68747667D01*
X134381324Y-68785000D01*
X134385001Y-68822333D01*
X134393636Y-68910000D01*
X130257429Y-68910000D01*
X130265000Y-68871939D01*
X130265000Y-68668061D01*
X130225226Y-68468102D01*
X130147205Y-68279744D01*
X130033937Y-68110226D01*
X129889774Y-67966063D01*
X129720256Y-67852795D01*
X129531898Y-67774774D01*
X129331939Y-67735000D01*
X129128061Y-67735000D01*
X128928102Y-67774774D01*
X128739744Y-67852795D01*
X128570226Y-67966063D01*
X128526289Y-68010000D01*
X126877322Y-68010000D01*
X126839999Y-68006324D01*
X126802676Y-68010000D01*
X126802667Y-68010000D01*
X126691014Y-68020997D01*
X126547753Y-68064454D01*
X126453189Y-68115000D01*
X126358061Y-68115000D01*
X126158102Y-68154774D01*
X125969744Y-68232795D01*
X125800226Y-68346063D01*
X125656063Y-68490226D01*
X125542795Y-68659744D01*
X125464774Y-68848102D01*
X125425000Y-69048061D01*
X121486081Y-69048061D01*
X121373937Y-68880226D01*
X121330000Y-68836289D01*
X121330000Y-67554801D01*
X122936740Y-65948061D01*
X129545000Y-65948061D01*
X129545000Y-66151939D01*
X129584774Y-66351898D01*
X129662795Y-66540256D01*
X129776063Y-66709774D01*
X129920226Y-66853937D01*
X130089744Y-66967205D01*
X130278102Y-67045226D01*
X130478061Y-67085000D01*
X130681939Y-67085000D01*
X130881898Y-67045226D01*
X131070256Y-66967205D01*
X131239774Y-66853937D01*
X131383937Y-66709774D01*
X131497205Y-66540256D01*
X131575226Y-66351898D01*
X131615000Y-66151939D01*
X131615000Y-66089802D01*
X131715618Y-65989184D01*
X131818986Y-65979003D01*
X131962247Y-65935546D01*
X132094276Y-65864974D01*
X132210001Y-65770001D01*
X132214105Y-65765000D01*
X132271939Y-65765000D01*
X132471898Y-65725226D01*
X132660256Y-65647205D01*
X132829774Y-65533937D01*
X132973937Y-65389774D01*
X133087205Y-65220256D01*
X133165226Y-65031898D01*
X133205000Y-64831939D01*
X133205000Y-64628061D01*
X133165226Y-64428102D01*
X133087205Y-64239744D01*
X132973937Y-64070226D01*
X132829774Y-63926063D01*
X132660256Y-63812795D01*
X132471898Y-63734774D01*
X132271939Y-63695000D01*
X132068061Y-63695000D01*
X131868102Y-63734774D01*
X131679744Y-63812795D01*
X131510226Y-63926063D01*
X131366063Y-64070226D01*
X131252795Y-64239744D01*
X131174774Y-64428102D01*
X131158681Y-64509005D01*
X131107753Y-64524454D01*
X130975723Y-64595026D01*
X130902029Y-64655506D01*
X130859999Y-64689999D01*
X130836201Y-64718998D01*
X130540198Y-65015000D01*
X130478061Y-65015000D01*
X130278102Y-65054774D01*
X130089744Y-65132795D01*
X129920226Y-65246063D01*
X129776063Y-65390226D01*
X129662795Y-65559744D01*
X129584774Y-65748102D01*
X129545000Y-65948061D01*
X122936740Y-65948061D01*
X127551004Y-61333798D01*
X127580001Y-61310001D01*
X127674974Y-61194276D01*
X127745546Y-61062247D01*
X127789003Y-60918986D01*
X127800000Y-60807333D01*
X127800000Y-60807325D01*
X127803676Y-60770000D01*
X127800000Y-60732675D01*
X127800000Y-48907322D01*
X127803676Y-48869999D01*
X127800000Y-48832676D01*
X127800000Y-48832667D01*
X127789003Y-48721014D01*
X127745546Y-48577753D01*
X127674974Y-48445724D01*
X127580001Y-48329999D01*
X127551003Y-48306201D01*
X126703803Y-47459002D01*
X126680001Y-47429999D01*
X126564276Y-47335026D01*
X126432247Y-47264454D01*
X126288986Y-47220997D01*
X126177333Y-47210000D01*
X126177322Y-47210000D01*
X126140000Y-47206324D01*
X126102678Y-47210000D01*
X124097333Y-47210000D01*
X124060000Y-47206323D01*
X124022667Y-47210000D01*
X123911014Y-47220997D01*
X123767753Y-47264454D01*
X123635724Y-47335026D01*
X123623571Y-47345000D01*
X123548061Y-47345000D01*
X123348102Y-47384774D01*
X123159744Y-47462795D01*
X122990226Y-47576063D01*
X122846063Y-47720226D01*
X122732795Y-47889744D01*
X122654774Y-48078102D01*
X122615000Y-48278061D01*
X122615000Y-48481939D01*
X122654774Y-48681898D01*
X122732795Y-48870256D01*
X122846063Y-49039774D01*
X122990226Y-49183937D01*
X123159744Y-49297205D01*
X123348102Y-49375226D01*
X123548061Y-49415000D01*
X123751939Y-49415000D01*
X123951898Y-49375226D01*
X124025727Y-49344645D01*
X124136063Y-49509774D01*
X124180001Y-49553712D01*
X124180000Y-59495198D01*
X117705199Y-65970000D01*
X115183711Y-65970000D01*
X115139774Y-65926063D01*
X114970256Y-65812795D01*
X114781898Y-65734774D01*
X114581939Y-65695000D01*
X114378061Y-65695000D01*
X114178102Y-65734774D01*
X114110000Y-65762983D01*
X114110000Y-65514801D01*
X115924802Y-63700000D01*
X116996289Y-63700000D01*
X117040226Y-63743937D01*
X117209744Y-63857205D01*
X117398102Y-63935226D01*
X117598061Y-63975000D01*
X117801939Y-63975000D01*
X118001898Y-63935226D01*
X118190256Y-63857205D01*
X118359774Y-63743937D01*
X118503937Y-63599774D01*
X118617205Y-63430256D01*
X118695226Y-63241898D01*
X118735000Y-63041939D01*
X118735000Y-62838061D01*
X118695226Y-62638102D01*
X118617205Y-62449744D01*
X118503937Y-62280226D01*
X118359774Y-62136063D01*
X118190256Y-62022795D01*
X118001898Y-61944774D01*
X117801939Y-61905000D01*
X117598061Y-61905000D01*
X117398102Y-61944774D01*
X117209744Y-62022795D01*
X117040226Y-62136063D01*
X116996289Y-62180000D01*
X115647325Y-62180000D01*
X115610000Y-62176324D01*
X115572675Y-62180000D01*
X115572667Y-62180000D01*
X115461014Y-62190997D01*
X115317753Y-62234454D01*
X115185724Y-62305026D01*
X115069999Y-62399999D01*
X115046201Y-62428997D01*
X112838998Y-64636201D01*
X112810000Y-64659999D01*
X112786202Y-64688997D01*
X112786201Y-64688998D01*
X112715026Y-64775724D01*
X112644454Y-64907754D01*
X112616473Y-65000000D01*
X112600998Y-65051014D01*
X112590001Y-65162667D01*
X112586324Y-65200000D01*
X112590001Y-65237332D01*
X112590000Y-68892677D01*
X112586324Y-68930000D01*
X112590000Y-68967322D01*
X112590000Y-68967332D01*
X112600997Y-69078985D01*
X112639572Y-69206153D01*
X112644454Y-69222246D01*
X112715026Y-69354276D01*
X112744530Y-69390226D01*
X112809999Y-69470001D01*
X112839002Y-69493803D01*
X113256200Y-69911002D01*
X113279999Y-69940001D01*
X113395724Y-70034974D01*
X113527753Y-70105546D01*
X113671014Y-70149003D01*
X113782667Y-70160000D01*
X113782676Y-70160000D01*
X113819999Y-70163676D01*
X113857322Y-70160000D01*
X117205199Y-70160000D01*
X119765198Y-72720000D01*
X117884802Y-72720000D01*
X117574256Y-72409455D01*
X117613937Y-72369774D01*
X117727205Y-72200256D01*
X117805226Y-72011898D01*
X117845000Y-71811939D01*
X117845000Y-71608061D01*
X117805226Y-71408102D01*
X117727205Y-71219744D01*
X117613937Y-71050226D01*
X117469774Y-70906063D01*
X117300256Y-70792795D01*
X117111898Y-70714774D01*
X116911939Y-70675000D01*
X116708061Y-70675000D01*
X116582377Y-70700000D01*
X109989604Y-70700000D01*
X109939999Y-70695114D01*
X109890394Y-70700000D01*
X109890392Y-70700000D01*
X109742006Y-70714615D01*
X109551620Y-70772368D01*
X109376160Y-70866153D01*
X109261807Y-70960000D01*
X107628355Y-70960000D01*
X106899287Y-70230932D01*
X106915000Y-70151939D01*
X106915000Y-69948061D01*
X106890000Y-69822377D01*
X106890000Y-66388363D01*
X108585000Y-66388363D01*
X108585000Y-66631637D01*
X108632460Y-66870236D01*
X108725557Y-67094992D01*
X108860713Y-67297267D01*
X109032733Y-67469287D01*
X109235008Y-67604443D01*
X109419580Y-67680895D01*
X109345099Y-67703489D01*
X109130551Y-67818167D01*
X108942498Y-67972498D01*
X108788167Y-68160552D01*
X108673489Y-68375100D01*
X108602870Y-68607899D01*
X108585000Y-68789336D01*
X108585000Y-69310665D01*
X108602870Y-69492102D01*
X108673489Y-69724901D01*
X108788168Y-69939449D01*
X108942499Y-70127502D01*
X109130552Y-70281833D01*
X109345100Y-70396511D01*
X109577899Y-70467130D01*
X109820000Y-70490975D01*
X110062102Y-70467130D01*
X110294901Y-70396511D01*
X110509449Y-70281833D01*
X110697502Y-70127502D01*
X110851833Y-69939449D01*
X110966511Y-69724900D01*
X111037130Y-69492101D01*
X111055000Y-69310664D01*
X111055000Y-69015000D01*
X111211637Y-69015000D01*
X111450236Y-68967540D01*
X111674992Y-68874443D01*
X111877267Y-68739287D01*
X112049287Y-68567267D01*
X112184443Y-68364992D01*
X112277540Y-68140236D01*
X112325000Y-67901637D01*
X112325000Y-67658363D01*
X112277540Y-67419764D01*
X112184443Y-67195008D01*
X112049287Y-66992733D01*
X111877267Y-66820713D01*
X111674992Y-66685557D01*
X111450236Y-66592460D01*
X111211637Y-66545000D01*
X111055000Y-66545000D01*
X111055000Y-66388363D01*
X111007540Y-66149764D01*
X110914443Y-65925008D01*
X110779287Y-65722733D01*
X110607267Y-65550713D01*
X110404992Y-65415557D01*
X110180236Y-65322460D01*
X109941637Y-65275000D01*
X109698363Y-65275000D01*
X109459764Y-65322460D01*
X109235008Y-65415557D01*
X109032733Y-65550713D01*
X108860713Y-65722733D01*
X108725557Y-65925008D01*
X108632460Y-66149764D01*
X108585000Y-66388363D01*
X106890000Y-66388363D01*
X106890000Y-52339604D01*
X106894886Y-52289999D01*
X106888398Y-52224126D01*
X106875385Y-52092006D01*
X106817632Y-51901620D01*
X106723847Y-51726160D01*
X106597633Y-51572367D01*
X106559094Y-51540739D01*
X103842529Y-48824174D01*
X103808848Y-48761161D01*
X103682634Y-48607368D01*
X103644101Y-48575745D01*
X96198072Y-41129717D01*
X96198072Y-40320000D01*
X96185812Y-40195518D01*
X96149502Y-40075820D01*
X96090537Y-39965506D01*
X96011185Y-39868815D01*
X95914494Y-39789463D01*
X95804180Y-39730498D01*
X95684482Y-39694188D01*
X95560000Y-39681928D01*
X93960000Y-39681928D01*
X93835518Y-39694188D01*
X93715820Y-39730498D01*
X93605506Y-39789463D01*
X93508815Y-39868815D01*
X93429463Y-39965506D01*
X93370498Y-40075820D01*
X93334188Y-40195518D01*
X93321928Y-40320000D01*
X93321928Y-40327215D01*
X93252702Y-40306903D01*
X92439605Y-41120000D01*
X92453748Y-41134143D01*
X92274143Y-41313748D01*
X92260000Y-41299605D01*
X91446903Y-42112702D01*
X91518486Y-42356671D01*
X91773996Y-42477571D01*
X91933973Y-42517671D01*
X90291645Y-44160000D01*
X87859604Y-44160000D01*
X87809999Y-44155114D01*
X87760394Y-44160000D01*
X87760392Y-44160000D01*
X87612006Y-44174615D01*
X87421620Y-44232368D01*
X87246160Y-44326153D01*
X87092367Y-44452367D01*
X87060739Y-44490906D01*
X80361645Y-51190000D01*
X77927623Y-51190000D01*
X77801939Y-51165000D01*
X77598061Y-51165000D01*
X77398102Y-51204774D01*
X77209744Y-51282795D01*
X77040226Y-51396063D01*
X76896063Y-51540226D01*
X76782795Y-51709744D01*
X76704774Y-51898102D01*
X76665000Y-52098061D01*
X63183766Y-52098061D01*
X63073577Y-51891914D01*
X62783605Y-51766000D01*
X61649605Y-52900000D01*
X61290395Y-52900000D01*
X60156395Y-51766000D01*
X59866423Y-51891914D01*
X59700567Y-52224126D01*
X59602710Y-52582312D01*
X59576611Y-52952706D01*
X58030000Y-52952706D01*
X58030000Y-51586395D01*
X60336000Y-51586395D01*
X61470000Y-52720395D01*
X62604000Y-51586395D01*
X62478086Y-51296423D01*
X62145874Y-51130567D01*
X61787688Y-51032710D01*
X61417294Y-51006611D01*
X61048925Y-51053275D01*
X60696738Y-51170906D01*
X60461914Y-51296423D01*
X60336000Y-51586395D01*
X58030000Y-51586395D01*
X58030000Y-46650000D01*
X59581928Y-46650000D01*
X59581928Y-49150000D01*
X59594188Y-49274482D01*
X59630498Y-49394180D01*
X59689463Y-49504494D01*
X59768815Y-49601185D01*
X59865506Y-49680537D01*
X59975820Y-49739502D01*
X60095518Y-49775812D01*
X60220000Y-49788072D01*
X62720000Y-49788072D01*
X62844482Y-49775812D01*
X62964180Y-49739502D01*
X63074494Y-49680537D01*
X63171185Y-49601185D01*
X63250537Y-49504494D01*
X63309502Y-49394180D01*
X63345812Y-49274482D01*
X63358072Y-49150000D01*
X63358072Y-48874127D01*
X63371680Y-48869999D01*
X63478380Y-48837632D01*
X63653840Y-48743847D01*
X63807633Y-48617633D01*
X63839261Y-48579094D01*
X67831255Y-44587100D01*
X67897439Y-44919834D01*
X68039534Y-45262882D01*
X68245825Y-45571618D01*
X68508382Y-45834175D01*
X68817118Y-46040466D01*
X69160166Y-46182561D01*
X69524344Y-46255000D01*
X69895656Y-46255000D01*
X70259834Y-46182561D01*
X70602882Y-46040466D01*
X70911618Y-45834175D01*
X71174175Y-45571618D01*
X71380466Y-45262882D01*
X71522561Y-44919834D01*
X71595000Y-44555656D01*
X71595000Y-44184344D01*
X71522561Y-43820166D01*
X71380466Y-43477118D01*
X71174175Y-43168382D01*
X70911618Y-42905825D01*
X70602882Y-42699534D01*
X70259834Y-42557439D01*
X69895656Y-42485000D01*
X69524344Y-42485000D01*
X69160166Y-42557439D01*
X68817118Y-42699534D01*
X68770000Y-42731017D01*
X68770000Y-40320000D01*
X72421928Y-40320000D01*
X72421928Y-41920000D01*
X72434188Y-42044482D01*
X72470498Y-42164180D01*
X72529463Y-42274494D01*
X72608815Y-42371185D01*
X72705506Y-42450537D01*
X72815820Y-42509502D01*
X72935518Y-42545812D01*
X73060000Y-42558072D01*
X74660000Y-42558072D01*
X74784482Y-42545812D01*
X74904180Y-42509502D01*
X75014494Y-42450537D01*
X75111185Y-42371185D01*
X75190537Y-42274494D01*
X75249502Y-42164180D01*
X75265117Y-42112702D01*
X75546903Y-42112702D01*
X75618486Y-42356671D01*
X75873996Y-42477571D01*
X76148184Y-42546300D01*
X76430512Y-42560217D01*
X76710130Y-42518787D01*
X76976292Y-42423603D01*
X77101514Y-42356671D01*
X77173097Y-42112702D01*
X76360000Y-41299605D01*
X75546903Y-42112702D01*
X75265117Y-42112702D01*
X75285812Y-42044482D01*
X75298072Y-41920000D01*
X75298072Y-41912785D01*
X75367298Y-41933097D01*
X76180395Y-41120000D01*
X76539605Y-41120000D01*
X77352702Y-41933097D01*
X77422212Y-41912702D01*
X78946903Y-41912702D01*
X79018486Y-42156671D01*
X79273996Y-42277571D01*
X79548184Y-42346300D01*
X79830512Y-42360217D01*
X80110130Y-42318787D01*
X80376292Y-42223603D01*
X80501514Y-42156671D01*
X80573097Y-41912702D01*
X79760000Y-41099605D01*
X78946903Y-41912702D01*
X77422212Y-41912702D01*
X77596671Y-41861514D01*
X77717571Y-41606004D01*
X77786300Y-41331816D01*
X77800217Y-41049488D01*
X77791479Y-40990512D01*
X78319783Y-40990512D01*
X78361213Y-41270130D01*
X78456397Y-41536292D01*
X78523329Y-41661514D01*
X78767298Y-41733097D01*
X79580395Y-40920000D01*
X79939605Y-40920000D01*
X80752702Y-41733097D01*
X80821928Y-41712785D01*
X80821928Y-41720000D01*
X80834188Y-41844482D01*
X80870498Y-41964180D01*
X80929463Y-42074494D01*
X81008815Y-42171185D01*
X81105506Y-42250537D01*
X81215820Y-42309502D01*
X81335518Y-42345812D01*
X81460000Y-42358072D01*
X83060000Y-42358072D01*
X83184482Y-42345812D01*
X83304180Y-42309502D01*
X83414494Y-42250537D01*
X83511185Y-42171185D01*
X83590537Y-42074494D01*
X83649502Y-41964180D01*
X83685812Y-41844482D01*
X83698072Y-41720000D01*
X83698072Y-40320000D01*
X84421928Y-40320000D01*
X84421928Y-41920000D01*
X84434188Y-42044482D01*
X84470498Y-42164180D01*
X84529463Y-42274494D01*
X84608815Y-42371185D01*
X84705506Y-42450537D01*
X84815820Y-42509502D01*
X84935518Y-42545812D01*
X85060000Y-42558072D01*
X86660000Y-42558072D01*
X86784482Y-42545812D01*
X86904180Y-42509502D01*
X87014494Y-42450537D01*
X87111185Y-42371185D01*
X87190537Y-42274494D01*
X87249502Y-42164180D01*
X87265117Y-42112702D01*
X87546903Y-42112702D01*
X87618486Y-42356671D01*
X87873996Y-42477571D01*
X88148184Y-42546300D01*
X88430512Y-42560217D01*
X88710130Y-42518787D01*
X88976292Y-42423603D01*
X89101514Y-42356671D01*
X89173097Y-42112702D01*
X88360000Y-41299605D01*
X87546903Y-42112702D01*
X87265117Y-42112702D01*
X87285812Y-42044482D01*
X87298072Y-41920000D01*
X87298072Y-41912785D01*
X87367298Y-41933097D01*
X88180395Y-41120000D01*
X88539605Y-41120000D01*
X89352702Y-41933097D01*
X89596671Y-41861514D01*
X89717571Y-41606004D01*
X89786300Y-41331816D01*
X89793265Y-41190512D01*
X90819783Y-41190512D01*
X90861213Y-41470130D01*
X90956397Y-41736292D01*
X91023329Y-41861514D01*
X91267298Y-41933097D01*
X92080395Y-41120000D01*
X91267298Y-40306903D01*
X91023329Y-40378486D01*
X90902429Y-40633996D01*
X90833700Y-40908184D01*
X90819783Y-41190512D01*
X89793265Y-41190512D01*
X89800217Y-41049488D01*
X89758787Y-40769870D01*
X89663603Y-40503708D01*
X89596671Y-40378486D01*
X89352702Y-40306903D01*
X88539605Y-41120000D01*
X88180395Y-41120000D01*
X87367298Y-40306903D01*
X87298072Y-40327215D01*
X87298072Y-40320000D01*
X87285812Y-40195518D01*
X87265118Y-40127298D01*
X87546903Y-40127298D01*
X88360000Y-40940395D01*
X89173097Y-40127298D01*
X91446903Y-40127298D01*
X92260000Y-40940395D01*
X93073097Y-40127298D01*
X93001514Y-39883329D01*
X92746004Y-39762429D01*
X92471816Y-39693700D01*
X92189488Y-39679783D01*
X91909870Y-39721213D01*
X91643708Y-39816397D01*
X91518486Y-39883329D01*
X91446903Y-40127298D01*
X89173097Y-40127298D01*
X89101514Y-39883329D01*
X88846004Y-39762429D01*
X88571816Y-39693700D01*
X88289488Y-39679783D01*
X88009870Y-39721213D01*
X87743708Y-39816397D01*
X87618486Y-39883329D01*
X87546903Y-40127298D01*
X87265118Y-40127298D01*
X87249502Y-40075820D01*
X87190537Y-39965506D01*
X87111185Y-39868815D01*
X87014494Y-39789463D01*
X86904180Y-39730498D01*
X86784482Y-39694188D01*
X86660000Y-39681928D01*
X85060000Y-39681928D01*
X84935518Y-39694188D01*
X84815820Y-39730498D01*
X84705506Y-39789463D01*
X84608815Y-39868815D01*
X84529463Y-39965506D01*
X84470498Y-40075820D01*
X84434188Y-40195518D01*
X84421928Y-40320000D01*
X83698072Y-40320000D01*
X83698072Y-40120000D01*
X83685812Y-39995518D01*
X83649502Y-39875820D01*
X83590537Y-39765506D01*
X83511185Y-39668815D01*
X83414494Y-39589463D01*
X83304180Y-39530498D01*
X83184482Y-39494188D01*
X83060000Y-39481928D01*
X81460000Y-39481928D01*
X81335518Y-39494188D01*
X81215820Y-39530498D01*
X81105506Y-39589463D01*
X81008815Y-39668815D01*
X80929463Y-39765506D01*
X80870498Y-39875820D01*
X80834188Y-39995518D01*
X80821928Y-40120000D01*
X80821928Y-40127215D01*
X80752702Y-40106903D01*
X79939605Y-40920000D01*
X79580395Y-40920000D01*
X78767298Y-40106903D01*
X78523329Y-40178486D01*
X78402429Y-40433996D01*
X78333700Y-40708184D01*
X78319783Y-40990512D01*
X77791479Y-40990512D01*
X77758787Y-40769870D01*
X77663603Y-40503708D01*
X77596671Y-40378486D01*
X77352702Y-40306903D01*
X76539605Y-41120000D01*
X76180395Y-41120000D01*
X75367298Y-40306903D01*
X75298072Y-40327215D01*
X75298072Y-40320000D01*
X75285812Y-40195518D01*
X75265118Y-40127298D01*
X75546903Y-40127298D01*
X76360000Y-40940395D01*
X77173097Y-40127298D01*
X77114415Y-39927298D01*
X78946903Y-39927298D01*
X79760000Y-40740395D01*
X80573097Y-39927298D01*
X80501514Y-39683329D01*
X80246004Y-39562429D01*
X79971816Y-39493700D01*
X79689488Y-39479783D01*
X79409870Y-39521213D01*
X79143708Y-39616397D01*
X79018486Y-39683329D01*
X78946903Y-39927298D01*
X77114415Y-39927298D01*
X77101514Y-39883329D01*
X76846004Y-39762429D01*
X76571816Y-39693700D01*
X76289488Y-39679783D01*
X76009870Y-39721213D01*
X75743708Y-39816397D01*
X75618486Y-39883329D01*
X75546903Y-40127298D01*
X75265118Y-40127298D01*
X75249502Y-40075820D01*
X75190537Y-39965506D01*
X75111185Y-39868815D01*
X75014494Y-39789463D01*
X74904180Y-39730498D01*
X74784482Y-39694188D01*
X74660000Y-39681928D01*
X73060000Y-39681928D01*
X72935518Y-39694188D01*
X72815820Y-39730498D01*
X72705506Y-39789463D01*
X72608815Y-39868815D01*
X72529463Y-39965506D01*
X72470498Y-40075820D01*
X72434188Y-40195518D01*
X72421928Y-40320000D01*
X68770000Y-40320000D01*
X68770000Y-38908072D01*
X69510000Y-38908072D01*
X69634482Y-38895812D01*
X69754180Y-38859502D01*
X69864494Y-38800537D01*
X69961185Y-38721185D01*
X70040537Y-38624494D01*
X70099502Y-38514180D01*
X70135812Y-38394482D01*
X70148072Y-38270000D01*
X70148072Y-34770000D01*
X70135812Y-34645518D01*
X70099502Y-34525820D01*
X70096392Y-34520000D01*
X73269428Y-34520000D01*
X73269428Y-36520000D01*
X73281688Y-36644482D01*
X73317998Y-36764180D01*
X73376963Y-36874494D01*
X73456315Y-36971185D01*
X73553006Y-37050537D01*
X73663320Y-37109502D01*
X73783018Y-37145812D01*
X73907500Y-37158072D01*
X75812500Y-37158072D01*
X75936982Y-37145812D01*
X76056680Y-37109502D01*
X76166994Y-37050537D01*
X76263685Y-36971185D01*
X76343037Y-36874494D01*
X76392059Y-36782781D01*
X76533077Y-36895969D01*
X76808906Y-37039571D01*
X77027020Y-37110563D01*
X77273000Y-36990594D01*
X77273000Y-35647000D01*
X77253000Y-35647000D01*
X77253000Y-35393000D01*
X77273000Y-35393000D01*
X77273000Y-34049406D01*
X77527000Y-34049406D01*
X77527000Y-35393000D01*
X77547000Y-35393000D01*
X77547000Y-35647000D01*
X77527000Y-35647000D01*
X77527000Y-36990594D01*
X77772980Y-37110563D01*
X77991094Y-37039571D01*
X78266923Y-36895969D01*
X78509437Y-36701315D01*
X78664837Y-36516101D01*
X78812037Y-36695463D01*
X79053766Y-36893845D01*
X79329552Y-37041255D01*
X79628797Y-37132030D01*
X79940000Y-37162681D01*
X80251204Y-37132030D01*
X80550449Y-37041255D01*
X80826235Y-36893845D01*
X81067963Y-36695463D01*
X81266345Y-36453734D01*
X81413755Y-36177948D01*
X81504530Y-35878703D01*
X81527500Y-35645485D01*
X81527500Y-35394514D01*
X81504530Y-35161296D01*
X81413755Y-34862051D01*
X81266345Y-34586265D01*
X81211963Y-34520000D01*
X85569428Y-34520000D01*
X85569428Y-36520000D01*
X85581688Y-36644482D01*
X85617998Y-36764180D01*
X85676963Y-36874494D01*
X85756315Y-36971185D01*
X85853006Y-37050537D01*
X85963320Y-37109502D01*
X86083018Y-37145812D01*
X86207500Y-37158072D01*
X88112500Y-37158072D01*
X88236982Y-37145812D01*
X88356680Y-37109502D01*
X88466994Y-37050537D01*
X88563685Y-36971185D01*
X88643037Y-36874494D01*
X88692059Y-36782781D01*
X88833077Y-36895969D01*
X89108906Y-37039571D01*
X89327020Y-37110563D01*
X89573000Y-36990594D01*
X89573000Y-35647000D01*
X89553000Y-35647000D01*
X89553000Y-35393000D01*
X89573000Y-35393000D01*
X89573000Y-34049406D01*
X89827000Y-34049406D01*
X89827000Y-35393000D01*
X89847000Y-35393000D01*
X89847000Y-35647000D01*
X89827000Y-35647000D01*
X89827000Y-36990594D01*
X90072980Y-37110563D01*
X90291094Y-37039571D01*
X90566923Y-36895969D01*
X90809437Y-36701315D01*
X90964837Y-36516101D01*
X91112037Y-36695463D01*
X91353766Y-36893845D01*
X91629552Y-37041255D01*
X91928797Y-37132030D01*
X92240000Y-37162681D01*
X92551204Y-37132030D01*
X92850449Y-37041255D01*
X92989574Y-36966891D01*
X102178519Y-36966891D01*
X102275843Y-37241252D01*
X102424822Y-37491355D01*
X102619731Y-37707588D01*
X102853080Y-37881641D01*
X103115901Y-38006825D01*
X103263110Y-38051476D01*
X103493000Y-37930155D01*
X103493000Y-36737000D01*
X102299186Y-36737000D01*
X102178519Y-36966891D01*
X92989574Y-36966891D01*
X93126235Y-36893845D01*
X93367963Y-36695463D01*
X93566345Y-36453734D01*
X93673580Y-36253109D01*
X102178519Y-36253109D01*
X102299186Y-36483000D01*
X103493000Y-36483000D01*
X103493000Y-35289845D01*
X103747000Y-35289845D01*
X103747000Y-36483000D01*
X103767000Y-36483000D01*
X103767000Y-36737000D01*
X103747000Y-36737000D01*
X103747000Y-37930155D01*
X103976890Y-38051476D01*
X104124099Y-38006825D01*
X104386920Y-37881641D01*
X104620269Y-37707588D01*
X104815178Y-37491355D01*
X104884805Y-37374466D01*
X105006525Y-37556632D01*
X105213368Y-37763475D01*
X105456589Y-37925990D01*
X105726842Y-38037932D01*
X106013740Y-38095000D01*
X106306260Y-38095000D01*
X106593158Y-38037932D01*
X106863411Y-37925990D01*
X107106632Y-37763475D01*
X107313475Y-37556632D01*
X107430000Y-37382240D01*
X107546525Y-37556632D01*
X107753368Y-37763475D01*
X107996589Y-37925990D01*
X108266842Y-38037932D01*
X108553740Y-38095000D01*
X108846260Y-38095000D01*
X109066408Y-38051209D01*
X112586201Y-41571003D01*
X112609999Y-41600001D01*
X112725724Y-41694974D01*
X112857753Y-41765546D01*
X113001014Y-41809003D01*
X113112667Y-41820000D01*
X113112676Y-41820000D01*
X113149999Y-41823676D01*
X113187322Y-41820000D01*
X122526289Y-41820000D01*
X122570226Y-41863937D01*
X122739744Y-41977205D01*
X122928102Y-42055226D01*
X123128061Y-42095000D01*
X123331939Y-42095000D01*
X123531898Y-42055226D01*
X123720256Y-41977205D01*
X123889774Y-41863937D01*
X124033937Y-41719774D01*
X124147205Y-41550256D01*
X124225226Y-41361898D01*
X124265000Y-41161939D01*
X124265000Y-40958061D01*
X124225226Y-40758102D01*
X124147205Y-40569744D01*
X124033937Y-40400226D01*
X123889774Y-40256063D01*
X123720256Y-40142795D01*
X123531898Y-40064774D01*
X123331939Y-40025000D01*
X123128061Y-40025000D01*
X122928102Y-40064774D01*
X122739744Y-40142795D01*
X122570226Y-40256063D01*
X122526289Y-40300000D01*
X113464802Y-40300000D01*
X111372863Y-38208061D01*
X134345000Y-38208061D01*
X134345000Y-38411939D01*
X134384774Y-38611898D01*
X134462795Y-38800256D01*
X134576063Y-38969774D01*
X134720226Y-39113937D01*
X134889744Y-39227205D01*
X135019285Y-39280863D01*
X136023465Y-40285044D01*
X136034774Y-40341898D01*
X136112795Y-40530256D01*
X136226063Y-40699774D01*
X136370226Y-40843937D01*
X136539744Y-40957205D01*
X136728102Y-41035226D01*
X136928061Y-41075000D01*
X137131939Y-41075000D01*
X137331898Y-41035226D01*
X137520256Y-40957205D01*
X137689774Y-40843937D01*
X137833937Y-40699774D01*
X137947205Y-40530256D01*
X138025226Y-40341898D01*
X138065000Y-40141939D01*
X138065000Y-39938061D01*
X138025226Y-39738102D01*
X137947205Y-39549744D01*
X137833937Y-39380226D01*
X137689774Y-39236063D01*
X137520256Y-39122795D01*
X137331898Y-39044774D01*
X137275044Y-39033465D01*
X136406399Y-38164821D01*
X136375226Y-38008102D01*
X136297205Y-37819744D01*
X136242627Y-37738061D01*
X140885000Y-37738061D01*
X140885000Y-37941939D01*
X140924774Y-38141898D01*
X141002795Y-38330256D01*
X141116063Y-38499774D01*
X141260226Y-38643937D01*
X141429744Y-38757205D01*
X141618102Y-38835226D01*
X141818061Y-38875000D01*
X142021939Y-38875000D01*
X142221898Y-38835226D01*
X142410256Y-38757205D01*
X142579774Y-38643937D01*
X142723937Y-38499774D01*
X142837205Y-38330256D01*
X142915226Y-38141898D01*
X142955000Y-37941939D01*
X142955000Y-37738061D01*
X142915226Y-37538102D01*
X142837205Y-37349744D01*
X142723937Y-37180226D01*
X142579774Y-37036063D01*
X142410256Y-36922795D01*
X142221898Y-36844774D01*
X142021939Y-36805000D01*
X141818061Y-36805000D01*
X141618102Y-36844774D01*
X141429744Y-36922795D01*
X141260226Y-37036063D01*
X141116063Y-37180226D01*
X141002795Y-37349744D01*
X140924774Y-37538102D01*
X140885000Y-37738061D01*
X136242627Y-37738061D01*
X136183937Y-37650226D01*
X136039774Y-37506063D01*
X135870256Y-37392795D01*
X135681898Y-37314774D01*
X135481939Y-37275000D01*
X135278061Y-37275000D01*
X135078102Y-37314774D01*
X134889744Y-37392795D01*
X134720226Y-37506063D01*
X134576063Y-37650226D01*
X134462795Y-37819744D01*
X134384774Y-38008102D01*
X134345000Y-38208061D01*
X111372863Y-38208061D01*
X111262873Y-38098072D01*
X112090000Y-38098072D01*
X112214482Y-38085812D01*
X112334180Y-38049502D01*
X112444494Y-37990537D01*
X112541185Y-37911185D01*
X112620537Y-37814494D01*
X112679502Y-37704180D01*
X112715812Y-37584482D01*
X112728072Y-37460000D01*
X112728072Y-37006891D01*
X117238519Y-37006891D01*
X117335843Y-37281252D01*
X117484822Y-37531355D01*
X117679731Y-37747588D01*
X117913080Y-37921641D01*
X118175901Y-38046825D01*
X118323110Y-38091476D01*
X118553000Y-37970155D01*
X118553000Y-36777000D01*
X117359186Y-36777000D01*
X117238519Y-37006891D01*
X112728072Y-37006891D01*
X112728072Y-36293109D01*
X117238519Y-36293109D01*
X117359186Y-36523000D01*
X118553000Y-36523000D01*
X118553000Y-35329845D01*
X118807000Y-35329845D01*
X118807000Y-36523000D01*
X118827000Y-36523000D01*
X118827000Y-36777000D01*
X118807000Y-36777000D01*
X118807000Y-37970155D01*
X119036890Y-38091476D01*
X119184099Y-38046825D01*
X119446920Y-37921641D01*
X119680269Y-37747588D01*
X119875178Y-37531355D01*
X119944805Y-37414466D01*
X120066525Y-37596632D01*
X120273368Y-37803475D01*
X120516589Y-37965990D01*
X120786842Y-38077932D01*
X121073740Y-38135000D01*
X121366260Y-38135000D01*
X121653158Y-38077932D01*
X121923411Y-37965990D01*
X122166632Y-37803475D01*
X122373475Y-37596632D01*
X122490000Y-37422240D01*
X122606525Y-37596632D01*
X122813368Y-37803475D01*
X123056589Y-37965990D01*
X123326842Y-38077932D01*
X123613740Y-38135000D01*
X123906260Y-38135000D01*
X124193158Y-38077932D01*
X124463411Y-37965990D01*
X124706632Y-37803475D01*
X124838487Y-37671620D01*
X124860498Y-37744180D01*
X124919463Y-37854494D01*
X124998815Y-37951185D01*
X125095506Y-38030537D01*
X125205820Y-38089502D01*
X125325518Y-38125812D01*
X125450000Y-38138072D01*
X127150000Y-38138072D01*
X127274482Y-38125812D01*
X127394180Y-38089502D01*
X127504494Y-38030537D01*
X127601185Y-37951185D01*
X127680537Y-37854494D01*
X127739502Y-37744180D01*
X127775812Y-37624482D01*
X127788072Y-37500000D01*
X127788072Y-35800000D01*
X127775812Y-35675518D01*
X127739502Y-35555820D01*
X127680537Y-35445506D01*
X127601185Y-35348815D01*
X127504494Y-35269463D01*
X127394180Y-35210498D01*
X127274482Y-35174188D01*
X127150000Y-35161928D01*
X125450000Y-35161928D01*
X125325518Y-35174188D01*
X125205820Y-35210498D01*
X125095506Y-35269463D01*
X124998815Y-35348815D01*
X124919463Y-35445506D01*
X124860498Y-35555820D01*
X124838487Y-35628380D01*
X124706632Y-35496525D01*
X124463411Y-35334010D01*
X124193158Y-35222068D01*
X123906260Y-35165000D01*
X123613740Y-35165000D01*
X123326842Y-35222068D01*
X123056589Y-35334010D01*
X122813368Y-35496525D01*
X122606525Y-35703368D01*
X122490000Y-35877760D01*
X122373475Y-35703368D01*
X122166632Y-35496525D01*
X121923411Y-35334010D01*
X121653158Y-35222068D01*
X121366260Y-35165000D01*
X121073740Y-35165000D01*
X120786842Y-35222068D01*
X120516589Y-35334010D01*
X120273368Y-35496525D01*
X120066525Y-35703368D01*
X119944805Y-35885534D01*
X119875178Y-35768645D01*
X119680269Y-35552412D01*
X119446920Y-35378359D01*
X119184099Y-35253175D01*
X119036890Y-35208524D01*
X118807000Y-35329845D01*
X118553000Y-35329845D01*
X118323110Y-35208524D01*
X118175901Y-35253175D01*
X117913080Y-35378359D01*
X117679731Y-35552412D01*
X117484822Y-35768645D01*
X117335843Y-36018748D01*
X117238519Y-36293109D01*
X112728072Y-36293109D01*
X112728072Y-35760000D01*
X112715812Y-35635518D01*
X112679502Y-35515820D01*
X112620537Y-35405506D01*
X112541185Y-35308815D01*
X112444494Y-35229463D01*
X112334180Y-35170498D01*
X112214482Y-35134188D01*
X112090000Y-35121928D01*
X110390000Y-35121928D01*
X110265518Y-35134188D01*
X110145820Y-35170498D01*
X110035506Y-35229463D01*
X109938815Y-35308815D01*
X109859463Y-35405506D01*
X109800498Y-35515820D01*
X109778487Y-35588380D01*
X109646632Y-35456525D01*
X109403411Y-35294010D01*
X109133158Y-35182068D01*
X108846260Y-35125000D01*
X108553740Y-35125000D01*
X108266842Y-35182068D01*
X107996589Y-35294010D01*
X107753368Y-35456525D01*
X107546525Y-35663368D01*
X107430000Y-35837760D01*
X107313475Y-35663368D01*
X107106632Y-35456525D01*
X106863411Y-35294010D01*
X106593158Y-35182068D01*
X106306260Y-35125000D01*
X106013740Y-35125000D01*
X105726842Y-35182068D01*
X105456589Y-35294010D01*
X105213368Y-35456525D01*
X105006525Y-35663368D01*
X104884805Y-35845534D01*
X104815178Y-35728645D01*
X104620269Y-35512412D01*
X104386920Y-35338359D01*
X104124099Y-35213175D01*
X103976890Y-35168524D01*
X103747000Y-35289845D01*
X103493000Y-35289845D01*
X103263110Y-35168524D01*
X103115901Y-35213175D01*
X102853080Y-35338359D01*
X102619731Y-35512412D01*
X102424822Y-35728645D01*
X102275843Y-35978748D01*
X102178519Y-36253109D01*
X93673580Y-36253109D01*
X93713755Y-36177948D01*
X93804530Y-35878703D01*
X93827500Y-35645485D01*
X93827500Y-35394514D01*
X93804530Y-35161296D01*
X93713755Y-34862051D01*
X93566345Y-34586265D01*
X93367963Y-34344537D01*
X93126234Y-34146155D01*
X92850448Y-33998745D01*
X92551203Y-33907970D01*
X92240000Y-33877319D01*
X91928796Y-33907970D01*
X91629551Y-33998745D01*
X91353765Y-34146155D01*
X91112037Y-34344537D01*
X90964838Y-34523900D01*
X90809437Y-34338685D01*
X90566923Y-34144031D01*
X90291094Y-34000429D01*
X90072980Y-33929437D01*
X89827000Y-34049406D01*
X89573000Y-34049406D01*
X89327020Y-33929437D01*
X89108906Y-34000429D01*
X88833077Y-34144031D01*
X88692059Y-34257219D01*
X88643037Y-34165506D01*
X88563685Y-34068815D01*
X88466994Y-33989463D01*
X88356680Y-33930498D01*
X88236982Y-33894188D01*
X88112500Y-33881928D01*
X86207500Y-33881928D01*
X86083018Y-33894188D01*
X85963320Y-33930498D01*
X85853006Y-33989463D01*
X85756315Y-34068815D01*
X85676963Y-34165506D01*
X85617998Y-34275820D01*
X85581688Y-34395518D01*
X85569428Y-34520000D01*
X81211963Y-34520000D01*
X81067963Y-34344537D01*
X80826234Y-34146155D01*
X80550448Y-33998745D01*
X80251203Y-33907970D01*
X79940000Y-33877319D01*
X79628796Y-33907970D01*
X79329551Y-33998745D01*
X79053765Y-34146155D01*
X78812037Y-34344537D01*
X78664838Y-34523900D01*
X78509437Y-34338685D01*
X78266923Y-34144031D01*
X77991094Y-34000429D01*
X77772980Y-33929437D01*
X77527000Y-34049406D01*
X77273000Y-34049406D01*
X77027020Y-33929437D01*
X76808906Y-34000429D01*
X76533077Y-34144031D01*
X76392059Y-34257219D01*
X76343037Y-34165506D01*
X76263685Y-34068815D01*
X76166994Y-33989463D01*
X76056680Y-33930498D01*
X75936982Y-33894188D01*
X75812500Y-33881928D01*
X73907500Y-33881928D01*
X73783018Y-33894188D01*
X73663320Y-33930498D01*
X73553006Y-33989463D01*
X73456315Y-34068815D01*
X73376963Y-34165506D01*
X73317998Y-34275820D01*
X73281688Y-34395518D01*
X73269428Y-34520000D01*
X70096392Y-34520000D01*
X70040537Y-34415506D01*
X69961185Y-34318815D01*
X69864494Y-34239463D01*
X69754180Y-34180498D01*
X69634482Y-34144188D01*
X69510000Y-34131928D01*
X66010000Y-34131928D01*
X65885518Y-34144188D01*
X65765820Y-34180498D01*
X65655506Y-34239463D01*
X65558815Y-34318815D01*
X65479463Y-34415506D01*
X65420498Y-34525820D01*
X65384188Y-34645518D01*
X65371928Y-34770000D01*
X65371928Y-38270000D01*
X65384188Y-38394482D01*
X65420498Y-38514180D01*
X65479463Y-38624494D01*
X65558815Y-38721185D01*
X65655506Y-38800537D01*
X65717345Y-38833591D01*
X65045750Y-38835000D01*
X64887000Y-38993750D01*
X64887000Y-41093000D01*
X64907000Y-41093000D01*
X64907000Y-41347000D01*
X64887000Y-41347000D01*
X64887000Y-43446250D01*
X65045750Y-43605000D01*
X65954738Y-43606907D01*
X63255972Y-46305673D01*
X63250537Y-46295506D01*
X63171185Y-46198815D01*
X63074494Y-46119463D01*
X62964180Y-46060498D01*
X62844482Y-46024188D01*
X62720000Y-46011928D01*
X60220000Y-46011928D01*
X60095518Y-46024188D01*
X59975820Y-46060498D01*
X59865506Y-46119463D01*
X59768815Y-46198815D01*
X59689463Y-46295506D01*
X59630498Y-46405820D01*
X59594188Y-46525518D01*
X59581928Y-46650000D01*
X58030000Y-46650000D01*
X58030000Y-42970000D01*
X62371928Y-42970000D01*
X62384188Y-43094482D01*
X62420498Y-43214180D01*
X62479463Y-43324494D01*
X62558815Y-43421185D01*
X62655506Y-43500537D01*
X62765820Y-43559502D01*
X62885518Y-43595812D01*
X63010000Y-43608072D01*
X64474250Y-43605000D01*
X64633000Y-43446250D01*
X64633000Y-41347000D01*
X62533750Y-41347000D01*
X62375000Y-41505750D01*
X62371928Y-42970000D01*
X58030000Y-42970000D01*
X58030000Y-38270000D01*
X59621928Y-38270000D01*
X59634188Y-38394482D01*
X59670498Y-38514180D01*
X59729463Y-38624494D01*
X59808815Y-38721185D01*
X59905506Y-38800537D01*
X60015820Y-38859502D01*
X60135518Y-38895812D01*
X60260000Y-38908072D01*
X61474250Y-38905000D01*
X61633000Y-38746250D01*
X61633000Y-36647000D01*
X61887000Y-36647000D01*
X61887000Y-38746250D01*
X62045750Y-38905000D01*
X62716805Y-38906698D01*
X62655506Y-38939463D01*
X62558815Y-39018815D01*
X62479463Y-39115506D01*
X62420498Y-39225820D01*
X62384188Y-39345518D01*
X62371928Y-39470000D01*
X62375000Y-40934250D01*
X62533750Y-41093000D01*
X64633000Y-41093000D01*
X64633000Y-38993750D01*
X64474250Y-38835000D01*
X63553633Y-38833069D01*
X63614494Y-38800537D01*
X63711185Y-38721185D01*
X63790537Y-38624494D01*
X63849502Y-38514180D01*
X63885812Y-38394482D01*
X63898072Y-38270000D01*
X63895000Y-36805750D01*
X63736250Y-36647000D01*
X61887000Y-36647000D01*
X61633000Y-36647000D01*
X59783750Y-36647000D01*
X59625000Y-36805750D01*
X59621928Y-38270000D01*
X58030000Y-38270000D01*
X58030000Y-34770000D01*
X59621928Y-34770000D01*
X59625000Y-36234250D01*
X59783750Y-36393000D01*
X61633000Y-36393000D01*
X61633000Y-34293750D01*
X61887000Y-34293750D01*
X61887000Y-36393000D01*
X63736250Y-36393000D01*
X63895000Y-36234250D01*
X63898072Y-34770000D01*
X63885812Y-34645518D01*
X63849502Y-34525820D01*
X63790537Y-34415506D01*
X63711185Y-34318815D01*
X63614494Y-34239463D01*
X63504180Y-34180498D01*
X63384482Y-34144188D01*
X63260000Y-34131928D01*
X62045750Y-34135000D01*
X61887000Y-34293750D01*
X61633000Y-34293750D01*
X61474250Y-34135000D01*
X60260000Y-34131928D01*
X60135518Y-34144188D01*
X60015820Y-34180498D01*
X59905506Y-34239463D01*
X59808815Y-34318815D01*
X59729463Y-34415506D01*
X59670498Y-34525820D01*
X59634188Y-34645518D01*
X59621928Y-34770000D01*
X58030000Y-34770000D01*
X58030000Y-33674344D01*
X140815000Y-33674344D01*
X140815000Y-34045656D01*
X140887439Y-34409834D01*
X141029534Y-34752882D01*
X141235825Y-35061618D01*
X141498382Y-35324175D01*
X141807118Y-35530466D01*
X142150166Y-35672561D01*
X142514344Y-35745000D01*
X142885656Y-35745000D01*
X143249834Y-35672561D01*
X143592882Y-35530466D01*
X143901618Y-35324175D01*
X144164175Y-35061618D01*
X144370466Y-34752882D01*
X144512561Y-34409834D01*
X144585000Y-34045656D01*
X144585000Y-33674344D01*
X144512561Y-33310166D01*
X144370466Y-32967118D01*
X144164175Y-32658382D01*
X143901618Y-32395825D01*
X143592882Y-32189534D01*
X143249834Y-32047439D01*
X142885656Y-31975000D01*
X142514344Y-31975000D01*
X142150166Y-32047439D01*
X141807118Y-32189534D01*
X141498382Y-32395825D01*
X141235825Y-32658382D01*
X141029534Y-32967118D01*
X140887439Y-33310166D01*
X140815000Y-33674344D01*
X58030000Y-33674344D01*
X58030000Y-31600000D01*
X145090001Y-31600000D01*
X145090001Y-39721883D01*
%TA.AperFunction,Conductor*%
D26*
G36*
X145090001Y-39721883D02*
G01*
X139129832Y-39743000D01*
X139070000Y-39743000D01*
X139045224Y-39745440D01*
X139021399Y-39752667D01*
X138999443Y-39764403D01*
X138980197Y-39780197D01*
X138964403Y-39799443D01*
X138952667Y-39821399D01*
X138945440Y-39845224D01*
X138943000Y-39870000D01*
X138943000Y-39980299D01*
X139002995Y-65448177D01*
X138913062Y-68326033D01*
X138915249Y-68353794D01*
X138922288Y-68377675D01*
X138933851Y-68399723D01*
X138949493Y-68419092D01*
X138968613Y-68435037D01*
X138990476Y-68446946D01*
X139014243Y-68454361D01*
X139038999Y-68456996D01*
X145090000Y-68504683D01*
X145090000Y-104340000D01*
X58030000Y-104340000D01*
X58030000Y-101394344D01*
X58295000Y-101394344D01*
X58295000Y-101765656D01*
X58367439Y-102129834D01*
X58509534Y-102472882D01*
X58715825Y-102781618D01*
X58978382Y-103044175D01*
X59287118Y-103250466D01*
X59630166Y-103392561D01*
X59994344Y-103465000D01*
X60365656Y-103465000D01*
X60729834Y-103392561D01*
X61072882Y-103250466D01*
X61381618Y-103044175D01*
X61644175Y-102781618D01*
X61850466Y-102472882D01*
X61992561Y-102129834D01*
X62065000Y-101765656D01*
X62065000Y-101394344D01*
X61992561Y-101030166D01*
X61948729Y-100924344D01*
X100955000Y-100924344D01*
X100955000Y-101295656D01*
X101027439Y-101659834D01*
X101169534Y-102002882D01*
X101375825Y-102311618D01*
X101638382Y-102574175D01*
X101947118Y-102780466D01*
X102290166Y-102922561D01*
X102654344Y-102995000D01*
X103025656Y-102995000D01*
X103389834Y-102922561D01*
X103732882Y-102780466D01*
X104041618Y-102574175D01*
X104304175Y-102311618D01*
X104510466Y-102002882D01*
X104652561Y-101659834D01*
X104725000Y-101295656D01*
X104725000Y-101134344D01*
X125855000Y-101134344D01*
X125855000Y-101505656D01*
X125927439Y-101869834D01*
X126069534Y-102212882D01*
X126275825Y-102521618D01*
X126538382Y-102784175D01*
X126847118Y-102990466D01*
X127190166Y-103132561D01*
X127554344Y-103205000D01*
X127925656Y-103205000D01*
X128289834Y-103132561D01*
X128632882Y-102990466D01*
X128941618Y-102784175D01*
X129204175Y-102521618D01*
X129410466Y-102212882D01*
X129517555Y-101954344D01*
X140885000Y-101954344D01*
X140885000Y-102325656D01*
X140957439Y-102689834D01*
X141099534Y-103032882D01*
X141305825Y-103341618D01*
X141568382Y-103604175D01*
X141877118Y-103810466D01*
X142220166Y-103952561D01*
X142584344Y-104025000D01*
X142955656Y-104025000D01*
X143319834Y-103952561D01*
X143662882Y-103810466D01*
X143971618Y-103604175D01*
X144234175Y-103341618D01*
X144440466Y-103032882D01*
X144582561Y-102689834D01*
X144655000Y-102325656D01*
X144655000Y-101954344D01*
X144582561Y-101590166D01*
X144440466Y-101247118D01*
X144234175Y-100938382D01*
X143971618Y-100675825D01*
X143662882Y-100469534D01*
X143319834Y-100327439D01*
X142955656Y-100255000D01*
X142584344Y-100255000D01*
X142220166Y-100327439D01*
X141877118Y-100469534D01*
X141568382Y-100675825D01*
X141305825Y-100938382D01*
X141099534Y-101247118D01*
X140957439Y-101590166D01*
X140885000Y-101954344D01*
X129517555Y-101954344D01*
X129552561Y-101869834D01*
X129625000Y-101505656D01*
X129625000Y-101134344D01*
X129552561Y-100770166D01*
X129410466Y-100427118D01*
X129204175Y-100118382D01*
X128941618Y-99855825D01*
X128632882Y-99649534D01*
X128289834Y-99507439D01*
X127925656Y-99435000D01*
X127554344Y-99435000D01*
X127190166Y-99507439D01*
X126847118Y-99649534D01*
X126538382Y-99855825D01*
X126275825Y-100118382D01*
X126069534Y-100427118D01*
X125927439Y-100770166D01*
X125855000Y-101134344D01*
X104725000Y-101134344D01*
X104725000Y-100924344D01*
X104652561Y-100560166D01*
X104510466Y-100217118D01*
X104304175Y-99908382D01*
X104041618Y-99645825D01*
X103732882Y-99439534D01*
X103389834Y-99297439D01*
X103025656Y-99225000D01*
X102654344Y-99225000D01*
X102290166Y-99297439D01*
X101947118Y-99439534D01*
X101638382Y-99645825D01*
X101375825Y-99908382D01*
X101169534Y-100217118D01*
X101027439Y-100560166D01*
X100955000Y-100924344D01*
X61948729Y-100924344D01*
X61850466Y-100687118D01*
X61644175Y-100378382D01*
X61381618Y-100115825D01*
X61072882Y-99909534D01*
X60729834Y-99767439D01*
X60365656Y-99695000D01*
X59994344Y-99695000D01*
X59630166Y-99767439D01*
X59287118Y-99909534D01*
X58978382Y-100115825D01*
X58715825Y-100378382D01*
X58509534Y-100687118D01*
X58367439Y-101030166D01*
X58295000Y-101394344D01*
X58030000Y-101394344D01*
X58030000Y-90568665D01*
X127285000Y-90568665D01*
X127285000Y-90851335D01*
X127340147Y-91128574D01*
X127448320Y-91389727D01*
X127605363Y-91624759D01*
X127805241Y-91824637D01*
X128040273Y-91981680D01*
X128301426Y-92089853D01*
X128578665Y-92145000D01*
X128861335Y-92145000D01*
X129138574Y-92089853D01*
X129399727Y-91981680D01*
X129634759Y-91824637D01*
X129756694Y-91702702D01*
X136106903Y-91702702D01*
X136178486Y-91946671D01*
X136433996Y-92067571D01*
X136708184Y-92136300D01*
X136990512Y-92150217D01*
X137270130Y-92108787D01*
X137536292Y-92013603D01*
X137661514Y-91946671D01*
X137733097Y-91702702D01*
X136920000Y-90889605D01*
X136106903Y-91702702D01*
X129756694Y-91702702D01*
X129834637Y-91624759D01*
X129991680Y-91389727D01*
X130099853Y-91128574D01*
X130155000Y-90851335D01*
X130155000Y-90780512D01*
X135479783Y-90780512D01*
X135521213Y-91060130D01*
X135616397Y-91326292D01*
X135683329Y-91451514D01*
X135927298Y-91523097D01*
X136740395Y-90710000D01*
X137099605Y-90710000D01*
X137912702Y-91523097D01*
X138156671Y-91451514D01*
X138277571Y-91196004D01*
X138346300Y-90921816D01*
X138360217Y-90639488D01*
X138318787Y-90359870D01*
X138223603Y-90093708D01*
X138156671Y-89968486D01*
X137912702Y-89896903D01*
X137099605Y-90710000D01*
X136740395Y-90710000D01*
X135927298Y-89896903D01*
X135683329Y-89968486D01*
X135562429Y-90223996D01*
X135493700Y-90498184D01*
X135479783Y-90780512D01*
X130155000Y-90780512D01*
X130155000Y-90568665D01*
X130099853Y-90291426D01*
X129991680Y-90030273D01*
X129834637Y-89795241D01*
X129756694Y-89717298D01*
X136106903Y-89717298D01*
X136920000Y-90530395D01*
X137733097Y-89717298D01*
X137661514Y-89473329D01*
X137406004Y-89352429D01*
X137131816Y-89283700D01*
X136849488Y-89269783D01*
X136569870Y-89311213D01*
X136303708Y-89406397D01*
X136178486Y-89473329D01*
X136106903Y-89717298D01*
X129756694Y-89717298D01*
X129634759Y-89595363D01*
X129399727Y-89438320D01*
X129138574Y-89330147D01*
X128861335Y-89275000D01*
X128578665Y-89275000D01*
X128301426Y-89330147D01*
X128040273Y-89438320D01*
X127805241Y-89595363D01*
X127605363Y-89795241D01*
X127448320Y-90030273D01*
X127340147Y-90291426D01*
X127285000Y-90568665D01*
X58030000Y-90568665D01*
X58030000Y-89410000D01*
X111341928Y-89410000D01*
X111354188Y-89534482D01*
X111390498Y-89654180D01*
X111449463Y-89764494D01*
X111528815Y-89861185D01*
X111625506Y-89940537D01*
X111735820Y-89999502D01*
X111855518Y-90035812D01*
X111980000Y-90048072D01*
X112544250Y-90045000D01*
X112703000Y-89886250D01*
X112703000Y-88687000D01*
X111503750Y-88687000D01*
X111345000Y-88845750D01*
X111341928Y-89410000D01*
X58030000Y-89410000D01*
X58030000Y-84201581D01*
X58301853Y-84383228D01*
X58608504Y-84510246D01*
X58934042Y-84575000D01*
X59265958Y-84575000D01*
X59591496Y-84510246D01*
X59898147Y-84383228D01*
X60174125Y-84198825D01*
X60408825Y-83964125D01*
X60593228Y-83688147D01*
X60720246Y-83381496D01*
X60763500Y-83164042D01*
X98295000Y-83164042D01*
X98295000Y-83495958D01*
X98359754Y-83821496D01*
X98486772Y-84128147D01*
X98671175Y-84404125D01*
X98905875Y-84638825D01*
X99181853Y-84823228D01*
X99488504Y-84950246D01*
X99814042Y-85015000D01*
X100145958Y-85015000D01*
X100471496Y-84950246D01*
X100778147Y-84823228D01*
X101054125Y-84638825D01*
X101288825Y-84404125D01*
X101473228Y-84128147D01*
X101600246Y-83821496D01*
X101665000Y-83495958D01*
X101665000Y-83164042D01*
X101600246Y-82838504D01*
X101473228Y-82531853D01*
X101288825Y-82255875D01*
X101054125Y-82021175D01*
X100778147Y-81836772D01*
X100471496Y-81709754D01*
X100145958Y-81645000D01*
X99814042Y-81645000D01*
X99488504Y-81709754D01*
X99181853Y-81836772D01*
X98905875Y-82021175D01*
X98671175Y-82255875D01*
X98486772Y-82531853D01*
X98359754Y-82838504D01*
X98295000Y-83164042D01*
X60763500Y-83164042D01*
X60785000Y-83055958D01*
X60785000Y-82724042D01*
X60720246Y-82398504D01*
X60593228Y-82091853D01*
X60408825Y-81815875D01*
X60174125Y-81581175D01*
X59898147Y-81396772D01*
X59591496Y-81269754D01*
X59265958Y-81205000D01*
X58934042Y-81205000D01*
X58608504Y-81269754D01*
X58301853Y-81396772D01*
X58030000Y-81578419D01*
X58030000Y-74950000D01*
X60081928Y-74950000D01*
X60081928Y-77450000D01*
X60094188Y-77574482D01*
X60130498Y-77694180D01*
X60189463Y-77804494D01*
X60268815Y-77901185D01*
X60365506Y-77980537D01*
X60475820Y-78039502D01*
X60595518Y-78075812D01*
X60720000Y-78088072D01*
X63220000Y-78088072D01*
X63344482Y-78075812D01*
X63464180Y-78039502D01*
X63574494Y-77980537D01*
X63671185Y-77901185D01*
X63750537Y-77804494D01*
X63809502Y-77694180D01*
X63819870Y-77660000D01*
X83091928Y-77660000D01*
X83104188Y-77784482D01*
X83140498Y-77904180D01*
X83199463Y-78014494D01*
X83278815Y-78111185D01*
X83375506Y-78190537D01*
X83485820Y-78249502D01*
X83605518Y-78285812D01*
X83730000Y-78298072D01*
X84294250Y-78295000D01*
X84453000Y-78136250D01*
X84453000Y-76937000D01*
X84707000Y-76937000D01*
X84707000Y-78136250D01*
X84865750Y-78295000D01*
X85430000Y-78298072D01*
X85554482Y-78285812D01*
X85674180Y-78249502D01*
X85784494Y-78190537D01*
X85881185Y-78111185D01*
X85960537Y-78014494D01*
X86019502Y-77904180D01*
X86055812Y-77784482D01*
X86068072Y-77660000D01*
X86065000Y-77095750D01*
X85906250Y-76937000D01*
X84707000Y-76937000D01*
X84453000Y-76937000D01*
X83253750Y-76937000D01*
X83095000Y-77095750D01*
X83091928Y-77660000D01*
X63819870Y-77660000D01*
X63845812Y-77574482D01*
X63858072Y-77450000D01*
X63858072Y-75960000D01*
X83091928Y-75960000D01*
X83095000Y-76524250D01*
X83253750Y-76683000D01*
X84453000Y-76683000D01*
X84453000Y-75483750D01*
X84707000Y-75483750D01*
X84707000Y-76683000D01*
X85906250Y-76683000D01*
X86065000Y-76524250D01*
X86068072Y-75960000D01*
X86055812Y-75835518D01*
X86019502Y-75715820D01*
X85960537Y-75605506D01*
X85881185Y-75508815D01*
X85784494Y-75429463D01*
X85674180Y-75370498D01*
X85554482Y-75334188D01*
X85430000Y-75321928D01*
X84865750Y-75325000D01*
X84707000Y-75483750D01*
X84453000Y-75483750D01*
X84294250Y-75325000D01*
X83730000Y-75321928D01*
X83605518Y-75334188D01*
X83485820Y-75370498D01*
X83375506Y-75429463D01*
X83278815Y-75508815D01*
X83199463Y-75605506D01*
X83140498Y-75715820D01*
X83104188Y-75835518D01*
X83091928Y-75960000D01*
X63858072Y-75960000D01*
X63858072Y-74950000D01*
X63845812Y-74825518D01*
X63809502Y-74705820D01*
X63750537Y-74595506D01*
X63671185Y-74498815D01*
X63574494Y-74419463D01*
X63464180Y-74360498D01*
X63344482Y-74324188D01*
X63220000Y-74311928D01*
X60720000Y-74311928D01*
X60595518Y-74324188D01*
X60475820Y-74360498D01*
X60365506Y-74419463D01*
X60268815Y-74498815D01*
X60189463Y-74595506D01*
X60130498Y-74705820D01*
X60094188Y-74825518D01*
X60081928Y-74950000D01*
X58030000Y-74950000D01*
X58030000Y-71014344D01*
X60085000Y-71014344D01*
X60085000Y-71385656D01*
X60157439Y-71749834D01*
X60299534Y-72092882D01*
X60505825Y-72401618D01*
X60768382Y-72664175D01*
X61077118Y-72870466D01*
X61420166Y-73012561D01*
X61784344Y-73085000D01*
X62155656Y-73085000D01*
X62519834Y-73012561D01*
X62862882Y-72870466D01*
X63171618Y-72664175D01*
X63434175Y-72401618D01*
X63640466Y-72092882D01*
X63782561Y-71749834D01*
X63855000Y-71385656D01*
X63855000Y-71014344D01*
X63782561Y-70650166D01*
X63640466Y-70307118D01*
X63434175Y-69998382D01*
X63171618Y-69735825D01*
X62862882Y-69529534D01*
X62519834Y-69387439D01*
X62155656Y-69315000D01*
X61784344Y-69315000D01*
X61420166Y-69387439D01*
X61077118Y-69529534D01*
X60768382Y-69735825D01*
X60505825Y-69998382D01*
X60299534Y-70307118D01*
X60157439Y-70650166D01*
X60085000Y-71014344D01*
X58030000Y-71014344D01*
X58030000Y-67288061D01*
X75395000Y-67288061D01*
X75395000Y-67491939D01*
X75434774Y-67691898D01*
X75512795Y-67880256D01*
X75626063Y-68049774D01*
X75770226Y-68193937D01*
X75939744Y-68307205D01*
X76128102Y-68385226D01*
X76328061Y-68425000D01*
X76531939Y-68425000D01*
X76731898Y-68385226D01*
X76920256Y-68307205D01*
X76960971Y-68280000D01*
X80156289Y-68280000D01*
X80200226Y-68323937D01*
X80369744Y-68437205D01*
X80558102Y-68515226D01*
X80758061Y-68555000D01*
X80961939Y-68555000D01*
X81161898Y-68515226D01*
X81350256Y-68437205D01*
X81519774Y-68323937D01*
X81663937Y-68179774D01*
X81777205Y-68010256D01*
X81855226Y-67821898D01*
X81895000Y-67621939D01*
X81895000Y-67484042D01*
X82685000Y-67484042D01*
X82685000Y-67815958D01*
X82749754Y-68141496D01*
X82876772Y-68448147D01*
X83061175Y-68724125D01*
X83295875Y-68958825D01*
X83571853Y-69143228D01*
X83878504Y-69270246D01*
X84204042Y-69335000D01*
X84535958Y-69335000D01*
X84861496Y-69270246D01*
X85168147Y-69143228D01*
X85444125Y-68958825D01*
X85678825Y-68724125D01*
X85863228Y-68448147D01*
X85990246Y-68141496D01*
X86055000Y-67815958D01*
X86055000Y-67484042D01*
X85990246Y-67158504D01*
X85863228Y-66851853D01*
X85678825Y-66575875D01*
X85444125Y-66341175D01*
X85168147Y-66156772D01*
X84861496Y-66029754D01*
X84535958Y-65965000D01*
X84204042Y-65965000D01*
X83878504Y-66029754D01*
X83571853Y-66156772D01*
X83295875Y-66341175D01*
X83061175Y-66575875D01*
X82876772Y-66851853D01*
X82749754Y-67158504D01*
X82685000Y-67484042D01*
X81895000Y-67484042D01*
X81895000Y-67418061D01*
X81855226Y-67218102D01*
X81777205Y-67029744D01*
X81663937Y-66860226D01*
X81519774Y-66716063D01*
X81350256Y-66602795D01*
X81161898Y-66524774D01*
X80961939Y-66485000D01*
X80758061Y-66485000D01*
X80558102Y-66524774D01*
X80369744Y-66602795D01*
X80200226Y-66716063D01*
X80156289Y-66760000D01*
X77253831Y-66760000D01*
X77233937Y-66730226D01*
X77089774Y-66586063D01*
X76920256Y-66472795D01*
X76731898Y-66394774D01*
X76531939Y-66355000D01*
X76328061Y-66355000D01*
X76128102Y-66394774D01*
X75939744Y-66472795D01*
X75770226Y-66586063D01*
X75626063Y-66730226D01*
X75512795Y-66899744D01*
X75434774Y-67088102D01*
X75395000Y-67288061D01*
X58030000Y-67288061D01*
X58030000Y-66313605D01*
X60336000Y-66313605D01*
X60461914Y-66603577D01*
X60794126Y-66769433D01*
X61152312Y-66867290D01*
X61522706Y-66893389D01*
X61891075Y-66846725D01*
X62243262Y-66729094D01*
X62478086Y-66603577D01*
X62604000Y-66313605D01*
X61470000Y-65179605D01*
X60336000Y-66313605D01*
X58030000Y-66313605D01*
X58030000Y-65052706D01*
X59576611Y-65052706D01*
X59623275Y-65421075D01*
X59740906Y-65773262D01*
X59866423Y-66008086D01*
X60156395Y-66134000D01*
X61290395Y-65000000D01*
X61649605Y-65000000D01*
X62783605Y-66134000D01*
X63073577Y-66008086D01*
X63239433Y-65675874D01*
X63337290Y-65317688D01*
X63363389Y-64947294D01*
X63316725Y-64578925D01*
X63199094Y-64226738D01*
X63073577Y-63991914D01*
X62783605Y-63866000D01*
X61649605Y-65000000D01*
X61290395Y-65000000D01*
X60156395Y-63866000D01*
X59866423Y-63991914D01*
X59700567Y-64324126D01*
X59602710Y-64682312D01*
X59576611Y-65052706D01*
X58030000Y-65052706D01*
X58030000Y-63686395D01*
X60336000Y-63686395D01*
X61470000Y-64820395D01*
X62604000Y-63686395D01*
X62478086Y-63396423D01*
X62145874Y-63230567D01*
X61787688Y-63132710D01*
X61417294Y-63106611D01*
X61048925Y-63153275D01*
X60696738Y-63270906D01*
X60461914Y-63396423D01*
X60336000Y-63686395D01*
X58030000Y-63686395D01*
X58030000Y-58750000D01*
X59581928Y-58750000D01*
X59581928Y-61250000D01*
X59594188Y-61374482D01*
X59630498Y-61494180D01*
X59689463Y-61604494D01*
X59768815Y-61701185D01*
X59865506Y-61780537D01*
X59975820Y-61839502D01*
X60095518Y-61875812D01*
X60220000Y-61888072D01*
X62720000Y-61888072D01*
X62844482Y-61875812D01*
X62964180Y-61839502D01*
X63074494Y-61780537D01*
X63171185Y-61701185D01*
X63250537Y-61604494D01*
X63258284Y-61590000D01*
X82271928Y-61590000D01*
X82284188Y-61714482D01*
X82320498Y-61834180D01*
X82379463Y-61944494D01*
X82458815Y-62041185D01*
X82555506Y-62120537D01*
X82665820Y-62179502D01*
X82785518Y-62215812D01*
X82910000Y-62228072D01*
X83474250Y-62225000D01*
X83633000Y-62066250D01*
X83633000Y-60867000D01*
X83887000Y-60867000D01*
X83887000Y-62066250D01*
X84045750Y-62225000D01*
X84610000Y-62228072D01*
X84734482Y-62215812D01*
X84854180Y-62179502D01*
X84964494Y-62120537D01*
X85061185Y-62041185D01*
X85140537Y-61944494D01*
X85199502Y-61834180D01*
X85223966Y-61753534D01*
X85299731Y-61837588D01*
X85533080Y-62011641D01*
X85795901Y-62136825D01*
X85943110Y-62181476D01*
X86173000Y-62060155D01*
X86173000Y-60867000D01*
X83887000Y-60867000D01*
X83633000Y-60867000D01*
X82433750Y-60867000D01*
X82275000Y-61025750D01*
X82271928Y-61590000D01*
X63258284Y-61590000D01*
X63309502Y-61494180D01*
X63345812Y-61374482D01*
X63358072Y-61250000D01*
X63358072Y-59890000D01*
X82271928Y-59890000D01*
X82275000Y-60454250D01*
X82433750Y-60613000D01*
X83633000Y-60613000D01*
X83633000Y-59413750D01*
X83887000Y-59413750D01*
X83887000Y-60613000D01*
X86173000Y-60613000D01*
X86173000Y-59419845D01*
X85943110Y-59298524D01*
X85795901Y-59343175D01*
X85533080Y-59468359D01*
X85299731Y-59642412D01*
X85223966Y-59726466D01*
X85199502Y-59645820D01*
X85140537Y-59535506D01*
X85061185Y-59438815D01*
X84964494Y-59359463D01*
X84854180Y-59300498D01*
X84734482Y-59264188D01*
X84610000Y-59251928D01*
X84045750Y-59255000D01*
X83887000Y-59413750D01*
X83633000Y-59413750D01*
X83474250Y-59255000D01*
X82910000Y-59251928D01*
X82785518Y-59264188D01*
X82665820Y-59300498D01*
X82555506Y-59359463D01*
X82458815Y-59438815D01*
X82379463Y-59535506D01*
X82320498Y-59645820D01*
X82284188Y-59765518D01*
X82271928Y-59890000D01*
X63358072Y-59890000D01*
X63358072Y-58750000D01*
X63345812Y-58625518D01*
X63309502Y-58505820D01*
X63250537Y-58395506D01*
X63171185Y-58298815D01*
X63074494Y-58219463D01*
X62964180Y-58160498D01*
X62844482Y-58124188D01*
X62720000Y-58111928D01*
X60220000Y-58111928D01*
X60095518Y-58124188D01*
X59975820Y-58160498D01*
X59865506Y-58219463D01*
X59768815Y-58298815D01*
X59689463Y-58395506D01*
X59630498Y-58505820D01*
X59594188Y-58625518D01*
X59581928Y-58750000D01*
X58030000Y-58750000D01*
X58030000Y-54213605D01*
X60336000Y-54213605D01*
X60461914Y-54503577D01*
X60794126Y-54669433D01*
X61152312Y-54767290D01*
X61522706Y-54793389D01*
X61891075Y-54746725D01*
X62243262Y-54629094D01*
X62478086Y-54503577D01*
X62604000Y-54213605D01*
X61470000Y-53079605D01*
X60336000Y-54213605D01*
X58030000Y-54213605D01*
X58030000Y-52952706D01*
X59576611Y-52952706D01*
X59623275Y-53321075D01*
X59740906Y-53673262D01*
X59866423Y-53908086D01*
X60156395Y-54034000D01*
X61290395Y-52900000D01*
X61649605Y-52900000D01*
X62783605Y-54034000D01*
X63073577Y-53908086D01*
X63239433Y-53575874D01*
X63337290Y-53217688D01*
X63363389Y-52847294D01*
X63316725Y-52478925D01*
X63199094Y-52126738D01*
X63183766Y-52098061D01*
X76665000Y-52098061D01*
X76665000Y-52301939D01*
X76704774Y-52501898D01*
X76782795Y-52690256D01*
X76896063Y-52859774D01*
X77040226Y-53003937D01*
X77209744Y-53117205D01*
X77398102Y-53195226D01*
X77598061Y-53235000D01*
X77801939Y-53235000D01*
X77927623Y-53210000D01*
X80730392Y-53210000D01*
X80780000Y-53214886D01*
X80977994Y-53195385D01*
X80978518Y-53195226D01*
X81168380Y-53137632D01*
X81343840Y-53043847D01*
X81497633Y-52917633D01*
X81529261Y-52879094D01*
X88228355Y-46180000D01*
X90660392Y-46180000D01*
X90710000Y-46184886D01*
X90907994Y-46165385D01*
X91059378Y-46119463D01*
X91098380Y-46107632D01*
X91273840Y-46013847D01*
X91427633Y-45887633D01*
X91459261Y-45849094D01*
X94750284Y-42558072D01*
X94769717Y-42558072D01*
X102087474Y-49875830D01*
X102121154Y-49938841D01*
X102247368Y-50092634D01*
X102285907Y-50124262D01*
X104870000Y-52708355D01*
X104870000Y-59758421D01*
X103456534Y-58344956D01*
X103428817Y-58311183D01*
X103294059Y-58200589D01*
X103140313Y-58118411D01*
X102973490Y-58067805D01*
X102843477Y-58055000D01*
X102843469Y-58055000D01*
X102800000Y-58050719D01*
X102756531Y-58055000D01*
X93223465Y-58055000D01*
X93179999Y-58050719D01*
X93136533Y-58055000D01*
X93136523Y-58055000D01*
X93006510Y-58067805D01*
X92839687Y-58118411D01*
X92685941Y-58200589D01*
X92685939Y-58200590D01*
X92685940Y-58200590D01*
X92584953Y-58283468D01*
X92584951Y-58283470D01*
X92551183Y-58311183D01*
X92523470Y-58344951D01*
X91598960Y-59269461D01*
X91526260Y-59255000D01*
X91233740Y-59255000D01*
X91161040Y-59269461D01*
X87216534Y-55324956D01*
X87188817Y-55291183D01*
X87054059Y-55180589D01*
X86900313Y-55098411D01*
X86733490Y-55047805D01*
X86603477Y-55035000D01*
X86603469Y-55035000D01*
X86560000Y-55030719D01*
X86516531Y-55035000D01*
X84888454Y-55035000D01*
X84840256Y-55002795D01*
X84651898Y-54924774D01*
X84451939Y-54885000D01*
X84248061Y-54885000D01*
X84048102Y-54924774D01*
X83859744Y-55002795D01*
X83690226Y-55116063D01*
X83546063Y-55260226D01*
X83432795Y-55429744D01*
X83354774Y-55618102D01*
X83315000Y-55818061D01*
X83315000Y-56021939D01*
X83354774Y-56221898D01*
X83432795Y-56410256D01*
X83546063Y-56579774D01*
X83690226Y-56723937D01*
X83859744Y-56837205D01*
X84048102Y-56915226D01*
X84248061Y-56955000D01*
X84451939Y-56955000D01*
X84651898Y-56915226D01*
X84840256Y-56837205D01*
X84888454Y-56805000D01*
X86193422Y-56805000D01*
X88651770Y-59263348D01*
X88406842Y-59312068D01*
X88136589Y-59424010D01*
X87893368Y-59586525D01*
X87686525Y-59793368D01*
X87564805Y-59975534D01*
X87495178Y-59858645D01*
X87300269Y-59642412D01*
X87066920Y-59468359D01*
X86804099Y-59343175D01*
X86656890Y-59298524D01*
X86427000Y-59419845D01*
X86427000Y-60613000D01*
X86447000Y-60613000D01*
X86447000Y-60867000D01*
X86427000Y-60867000D01*
X86427000Y-62060155D01*
X86656890Y-62181476D01*
X86804099Y-62136825D01*
X87066920Y-62011641D01*
X87300269Y-61837588D01*
X87495178Y-61621355D01*
X87564805Y-61504466D01*
X87686525Y-61686632D01*
X87893368Y-61893475D01*
X88136589Y-62055990D01*
X88406842Y-62167932D01*
X88693740Y-62225000D01*
X88986260Y-62225000D01*
X89273158Y-62167932D01*
X89543411Y-62055990D01*
X89786632Y-61893475D01*
X89993475Y-61686632D01*
X90110000Y-61512240D01*
X90226525Y-61686632D01*
X90433368Y-61893475D01*
X90676589Y-62055990D01*
X90946842Y-62167932D01*
X91233740Y-62225000D01*
X91526260Y-62225000D01*
X91813158Y-62167932D01*
X92083411Y-62055990D01*
X92326632Y-61893475D01*
X92533475Y-61686632D01*
X92650000Y-61512240D01*
X92766525Y-61686632D01*
X92973368Y-61893475D01*
X93216589Y-62055990D01*
X93486842Y-62167932D01*
X93773740Y-62225000D01*
X94066260Y-62225000D01*
X94353158Y-62167932D01*
X94623411Y-62055990D01*
X94866632Y-61893475D01*
X95073475Y-61686632D01*
X95190000Y-61512240D01*
X95306525Y-61686632D01*
X95513368Y-61893475D01*
X95756589Y-62055990D01*
X96026842Y-62167932D01*
X96313740Y-62225000D01*
X96606260Y-62225000D01*
X96893158Y-62167932D01*
X97163411Y-62055990D01*
X97406632Y-61893475D01*
X97613475Y-61686632D01*
X97730000Y-61512240D01*
X97846525Y-61686632D01*
X98053368Y-61893475D01*
X98296589Y-62055990D01*
X98469168Y-62127474D01*
X89816643Y-70780000D01*
X85965038Y-70780000D01*
X85939502Y-70695820D01*
X85880537Y-70585506D01*
X85801185Y-70488815D01*
X85704494Y-70409463D01*
X85594180Y-70350498D01*
X85474482Y-70314188D01*
X85350000Y-70301928D01*
X83650000Y-70301928D01*
X83525518Y-70314188D01*
X83405820Y-70350498D01*
X83295506Y-70409463D01*
X83198815Y-70488815D01*
X83119463Y-70585506D01*
X83060498Y-70695820D01*
X83024188Y-70815518D01*
X83011928Y-70940000D01*
X83011928Y-72640000D01*
X83024188Y-72764482D01*
X83060498Y-72884180D01*
X83119463Y-72994494D01*
X83198815Y-73091185D01*
X83295506Y-73170537D01*
X83405820Y-73229502D01*
X83525518Y-73265812D01*
X83650000Y-73278072D01*
X85350000Y-73278072D01*
X85474482Y-73265812D01*
X85594180Y-73229502D01*
X85704494Y-73170537D01*
X85801185Y-73091185D01*
X85880537Y-72994494D01*
X85939502Y-72884180D01*
X85965038Y-72800000D01*
X90185390Y-72800000D01*
X90234998Y-72804886D01*
X90432992Y-72785385D01*
X90438065Y-72783846D01*
X90623378Y-72727632D01*
X90798838Y-72633847D01*
X90952631Y-72507633D01*
X90984259Y-72469094D01*
X100066352Y-63387002D01*
X100173748Y-63387002D01*
X100015000Y-63545750D01*
X100011928Y-64110000D01*
X100024188Y-64234482D01*
X100060498Y-64354180D01*
X100119463Y-64464494D01*
X100197842Y-64560000D01*
X100119463Y-64655506D01*
X100060498Y-64765820D01*
X100024188Y-64885518D01*
X100011928Y-65010000D01*
X100011928Y-66710000D01*
X100024188Y-66834482D01*
X100060498Y-66954180D01*
X100119463Y-67064494D01*
X100198815Y-67161185D01*
X100295506Y-67240537D01*
X100405820Y-67299502D01*
X100525518Y-67335812D01*
X100650000Y-67348072D01*
X102350000Y-67348072D01*
X102474482Y-67335812D01*
X102594180Y-67299502D01*
X102704494Y-67240537D01*
X102801185Y-67161185D01*
X102880537Y-67064494D01*
X102939502Y-66954180D01*
X102975812Y-66834482D01*
X102988072Y-66710000D01*
X102988072Y-65623506D01*
X103055000Y-65556578D01*
X103055001Y-82286521D01*
X103050719Y-82330000D01*
X103067805Y-82503490D01*
X103118412Y-82670313D01*
X103200590Y-82824059D01*
X103283468Y-82925046D01*
X103283471Y-82925049D01*
X103311184Y-82958817D01*
X103344951Y-82986530D01*
X107713470Y-87355049D01*
X107741183Y-87388817D01*
X107774951Y-87416530D01*
X107774953Y-87416532D01*
X107823682Y-87456523D01*
X107875941Y-87499411D01*
X108029687Y-87581589D01*
X108196510Y-87632195D01*
X108326523Y-87645000D01*
X108326533Y-87645000D01*
X108369999Y-87649281D01*
X108413466Y-87645000D01*
X111348330Y-87645000D01*
X111341928Y-87710000D01*
X111345000Y-88274250D01*
X111503750Y-88433000D01*
X112703000Y-88433000D01*
X112703000Y-88413000D01*
X112957000Y-88413000D01*
X112957000Y-88433000D01*
X112977000Y-88433000D01*
X112977000Y-88687000D01*
X112957000Y-88687000D01*
X112957000Y-89886250D01*
X113115750Y-90045000D01*
X113680000Y-90048072D01*
X113804482Y-90035812D01*
X113924180Y-89999502D01*
X114034494Y-89940537D01*
X114131185Y-89861185D01*
X114210537Y-89764494D01*
X114269502Y-89654180D01*
X114291513Y-89581620D01*
X114423368Y-89713475D01*
X114666589Y-89875990D01*
X114936842Y-89987932D01*
X115223740Y-90045000D01*
X115516260Y-90045000D01*
X115803158Y-89987932D01*
X116073411Y-89875990D01*
X116316632Y-89713475D01*
X116523475Y-89506632D01*
X116640000Y-89332240D01*
X116756525Y-89506632D01*
X116963368Y-89713475D01*
X117206589Y-89875990D01*
X117476842Y-89987932D01*
X117763740Y-90045000D01*
X118056260Y-90045000D01*
X118343158Y-89987932D01*
X118613411Y-89875990D01*
X118856632Y-89713475D01*
X119063475Y-89506632D01*
X119225990Y-89263411D01*
X119337932Y-88993158D01*
X119395000Y-88706260D01*
X119395000Y-88413740D01*
X119337932Y-88126842D01*
X119225990Y-87856589D01*
X119063475Y-87613368D01*
X118856632Y-87406525D01*
X118613411Y-87244010D01*
X118343158Y-87132068D01*
X118056260Y-87075000D01*
X117763740Y-87075000D01*
X117476842Y-87132068D01*
X117206589Y-87244010D01*
X116963368Y-87406525D01*
X116756525Y-87613368D01*
X116640000Y-87787760D01*
X116523475Y-87613368D01*
X116316632Y-87406525D01*
X116245387Y-87358921D01*
X116242195Y-87326510D01*
X116191589Y-87159687D01*
X116109411Y-87005941D01*
X116085210Y-86976452D01*
X116026532Y-86904953D01*
X116026530Y-86904951D01*
X115998817Y-86871183D01*
X115965050Y-86843471D01*
X115286534Y-86164956D01*
X115258817Y-86131183D01*
X115124059Y-86020589D01*
X114970313Y-85938411D01*
X114803490Y-85887805D01*
X114673477Y-85875000D01*
X114673469Y-85875000D01*
X114630000Y-85870719D01*
X114586531Y-85875000D01*
X108736579Y-85875000D01*
X107401579Y-84540000D01*
X108321928Y-84540000D01*
X108334188Y-84664482D01*
X108370498Y-84784180D01*
X108429463Y-84894494D01*
X108508815Y-84991185D01*
X108605506Y-85070537D01*
X108715820Y-85129502D01*
X108835518Y-85165812D01*
X108960000Y-85178072D01*
X109524250Y-85175000D01*
X109683000Y-85016250D01*
X109683000Y-83817000D01*
X108483750Y-83817000D01*
X108325000Y-83975750D01*
X108321928Y-84540000D01*
X107401579Y-84540000D01*
X105701579Y-82840000D01*
X108321928Y-82840000D01*
X108325000Y-83404250D01*
X108483750Y-83563000D01*
X109683000Y-83563000D01*
X109683000Y-82363750D01*
X109937000Y-82363750D01*
X109937000Y-83563000D01*
X109957000Y-83563000D01*
X109957000Y-83817000D01*
X109937000Y-83817000D01*
X109937000Y-85016250D01*
X110095750Y-85175000D01*
X110660000Y-85178072D01*
X110784482Y-85165812D01*
X110904180Y-85129502D01*
X111014494Y-85070537D01*
X111111185Y-84991185D01*
X111190537Y-84894494D01*
X111249502Y-84784180D01*
X111271513Y-84711620D01*
X111403368Y-84843475D01*
X111646589Y-85005990D01*
X111916842Y-85117932D01*
X112203740Y-85175000D01*
X112496260Y-85175000D01*
X112783158Y-85117932D01*
X113053411Y-85005990D01*
X113296632Y-84843475D01*
X113503475Y-84636632D01*
X113620000Y-84462240D01*
X113736525Y-84636632D01*
X113943368Y-84843475D01*
X114186589Y-85005990D01*
X114456842Y-85117932D01*
X114743740Y-85175000D01*
X115036260Y-85175000D01*
X115323158Y-85117932D01*
X115593411Y-85005990D01*
X115836632Y-84843475D01*
X116043475Y-84636632D01*
X116160000Y-84462240D01*
X116276525Y-84636632D01*
X116483368Y-84843475D01*
X116726589Y-85005990D01*
X116996842Y-85117932D01*
X117283740Y-85175000D01*
X117576260Y-85175000D01*
X117863158Y-85117932D01*
X118133411Y-85005990D01*
X118376632Y-84843475D01*
X118583475Y-84636632D01*
X118700000Y-84462240D01*
X118816525Y-84636632D01*
X119023368Y-84843475D01*
X119266589Y-85005990D01*
X119536842Y-85117932D01*
X119823740Y-85175000D01*
X120116260Y-85175000D01*
X120403158Y-85117932D01*
X120673411Y-85005990D01*
X120916632Y-84843475D01*
X121123475Y-84636632D01*
X121240000Y-84462240D01*
X121356525Y-84636632D01*
X121563368Y-84843475D01*
X121806589Y-85005990D01*
X122076842Y-85117932D01*
X122363740Y-85175000D01*
X122656260Y-85175000D01*
X122943158Y-85117932D01*
X123213411Y-85005990D01*
X123456632Y-84843475D01*
X123663475Y-84636632D01*
X123825990Y-84393411D01*
X123937932Y-84123158D01*
X123995000Y-83836260D01*
X123995000Y-83543740D01*
X123937932Y-83256842D01*
X123825990Y-82986589D01*
X123663926Y-82744042D01*
X126205000Y-82744042D01*
X126205000Y-83075958D01*
X126269754Y-83401496D01*
X126396772Y-83708147D01*
X126581175Y-83984125D01*
X126815875Y-84218825D01*
X127091853Y-84403228D01*
X127398504Y-84530246D01*
X127724042Y-84595000D01*
X128055958Y-84595000D01*
X128381496Y-84530246D01*
X128688147Y-84403228D01*
X128964125Y-84218825D01*
X129198825Y-83984125D01*
X129383228Y-83708147D01*
X129510246Y-83401496D01*
X129575000Y-83075958D01*
X129575000Y-82744042D01*
X129510246Y-82418504D01*
X129383228Y-82111853D01*
X129198825Y-81835875D01*
X128964125Y-81601175D01*
X128688147Y-81416772D01*
X128381496Y-81289754D01*
X128055958Y-81225000D01*
X127724042Y-81225000D01*
X127398504Y-81289754D01*
X127091853Y-81416772D01*
X126815875Y-81601175D01*
X126581175Y-81835875D01*
X126396772Y-82111853D01*
X126269754Y-82418504D01*
X126205000Y-82744042D01*
X123663926Y-82744042D01*
X123663475Y-82743368D01*
X123456632Y-82536525D01*
X123213411Y-82374010D01*
X122943158Y-82262068D01*
X122656260Y-82205000D01*
X122363740Y-82205000D01*
X122076842Y-82262068D01*
X121806589Y-82374010D01*
X121563368Y-82536525D01*
X121356525Y-82743368D01*
X121240000Y-82917760D01*
X121123475Y-82743368D01*
X120916632Y-82536525D01*
X120673411Y-82374010D01*
X120403158Y-82262068D01*
X120116260Y-82205000D01*
X119823740Y-82205000D01*
X119536842Y-82262068D01*
X119266589Y-82374010D01*
X119023368Y-82536525D01*
X118816525Y-82743368D01*
X118700000Y-82917760D01*
X118583475Y-82743368D01*
X118376632Y-82536525D01*
X118133411Y-82374010D01*
X117863158Y-82262068D01*
X117576260Y-82205000D01*
X117283740Y-82205000D01*
X116996842Y-82262068D01*
X116726589Y-82374010D01*
X116483368Y-82536525D01*
X116276525Y-82743368D01*
X116160000Y-82917760D01*
X116043475Y-82743368D01*
X115836632Y-82536525D01*
X115593411Y-82374010D01*
X115323158Y-82262068D01*
X115036260Y-82205000D01*
X114743740Y-82205000D01*
X114456842Y-82262068D01*
X114186589Y-82374010D01*
X113943368Y-82536525D01*
X113736525Y-82743368D01*
X113620000Y-82917760D01*
X113503475Y-82743368D01*
X113296632Y-82536525D01*
X113053411Y-82374010D01*
X112783158Y-82262068D01*
X112496260Y-82205000D01*
X112203740Y-82205000D01*
X111916842Y-82262068D01*
X111646589Y-82374010D01*
X111403368Y-82536525D01*
X111271513Y-82668380D01*
X111249502Y-82595820D01*
X111190537Y-82485506D01*
X111111185Y-82388815D01*
X111014494Y-82309463D01*
X110904180Y-82250498D01*
X110784482Y-82214188D01*
X110660000Y-82201928D01*
X110095750Y-82205000D01*
X109937000Y-82363750D01*
X109683000Y-82363750D01*
X109524250Y-82205000D01*
X108960000Y-82201928D01*
X108835518Y-82214188D01*
X108715820Y-82250498D01*
X108605506Y-82309463D01*
X108508815Y-82388815D01*
X108429463Y-82485506D01*
X108370498Y-82595820D01*
X108334188Y-82715518D01*
X108321928Y-82840000D01*
X105701579Y-82840000D01*
X104825000Y-81963422D01*
X104825000Y-74438363D01*
X111055000Y-74438363D01*
X111055000Y-74681637D01*
X111102460Y-74920236D01*
X111195557Y-75144992D01*
X111330713Y-75347267D01*
X111502733Y-75519287D01*
X111705008Y-75654443D01*
X111889580Y-75730895D01*
X111815099Y-75753489D01*
X111600551Y-75868167D01*
X111412498Y-76022498D01*
X111258167Y-76210552D01*
X111143489Y-76425100D01*
X111072870Y-76657899D01*
X111055000Y-76839336D01*
X111055000Y-77360665D01*
X111072870Y-77542102D01*
X111143489Y-77774901D01*
X111258168Y-77989449D01*
X111412499Y-78177502D01*
X111600552Y-78331833D01*
X111815100Y-78446511D01*
X112047899Y-78517130D01*
X112290000Y-78540975D01*
X112532102Y-78517130D01*
X112764901Y-78446511D01*
X112979449Y-78331833D01*
X113167502Y-78177502D01*
X113321833Y-77989449D01*
X113436511Y-77774900D01*
X113507130Y-77542101D01*
X113525000Y-77360664D01*
X113525000Y-77065000D01*
X113681637Y-77065000D01*
X113920236Y-77017540D01*
X114144992Y-76924443D01*
X114347267Y-76789287D01*
X114519287Y-76617267D01*
X114654443Y-76414992D01*
X114747540Y-76190236D01*
X114795000Y-75951637D01*
X114795000Y-75708363D01*
X114747540Y-75469764D01*
X114654443Y-75245008D01*
X114519287Y-75042733D01*
X114347267Y-74870713D01*
X114144992Y-74735557D01*
X113920236Y-74642460D01*
X113681637Y-74595000D01*
X113525000Y-74595000D01*
X113525000Y-74438363D01*
X113477540Y-74199764D01*
X113384443Y-73975008D01*
X113249287Y-73772733D01*
X113077267Y-73600713D01*
X112874992Y-73465557D01*
X112650236Y-73372460D01*
X112411637Y-73325000D01*
X112168363Y-73325000D01*
X111929764Y-73372460D01*
X111705008Y-73465557D01*
X111502733Y-73600713D01*
X111330713Y-73772733D01*
X111195557Y-73975008D01*
X111102460Y-74199764D01*
X111055000Y-74438363D01*
X104825000Y-74438363D01*
X104825000Y-63786578D01*
X104870001Y-63741577D01*
X104870001Y-69822372D01*
X104845000Y-69948061D01*
X104845000Y-70151939D01*
X104870000Y-70277623D01*
X104870000Y-70590392D01*
X104865114Y-70640000D01*
X104870000Y-70689607D01*
X104870000Y-70689608D01*
X104876135Y-70751898D01*
X104884615Y-70837994D01*
X104942368Y-71028379D01*
X105036154Y-71203840D01*
X105082983Y-71260901D01*
X105162368Y-71357633D01*
X105200901Y-71389256D01*
X106460739Y-72649094D01*
X106492367Y-72687633D01*
X106646160Y-72813847D01*
X106821620Y-72907632D01*
X107012006Y-72965385D01*
X107160392Y-72980000D01*
X107160394Y-72980000D01*
X107209999Y-72984886D01*
X107259604Y-72980000D01*
X109630392Y-72980000D01*
X109680000Y-72984886D01*
X109780373Y-72975000D01*
X109811939Y-72975000D01*
X109842900Y-72968841D01*
X109877994Y-72965385D01*
X109877997Y-72965384D01*
X109911738Y-72955149D01*
X110011898Y-72935226D01*
X110200256Y-72857205D01*
X110369774Y-72743937D01*
X110393711Y-72720000D01*
X115735199Y-72720000D01*
X117006200Y-73991002D01*
X117029999Y-74020001D01*
X117058997Y-74043799D01*
X117145723Y-74114974D01*
X117229519Y-74159764D01*
X117277753Y-74185546D01*
X117421014Y-74229003D01*
X117532667Y-74240000D01*
X117532677Y-74240000D01*
X117569999Y-74243676D01*
X117607322Y-74240000D01*
X118086500Y-74240000D01*
X118055000Y-74398363D01*
X118055000Y-74641637D01*
X118102460Y-74880236D01*
X118195557Y-75104992D01*
X118330713Y-75307267D01*
X118502733Y-75479287D01*
X118705008Y-75614443D01*
X118889580Y-75690895D01*
X118815099Y-75713489D01*
X118600551Y-75828167D01*
X118412498Y-75982498D01*
X118258167Y-76170552D01*
X118143489Y-76385100D01*
X118072870Y-76617899D01*
X118055000Y-76799336D01*
X118055000Y-77320665D01*
X118072870Y-77502102D01*
X118143489Y-77734901D01*
X118258168Y-77949449D01*
X118412499Y-78137502D01*
X118600552Y-78291833D01*
X118815100Y-78406511D01*
X119047899Y-78477130D01*
X119290000Y-78500975D01*
X119532102Y-78477130D01*
X119764901Y-78406511D01*
X119979449Y-78291833D01*
X120167502Y-78137502D01*
X120321833Y-77949449D01*
X120436511Y-77734900D01*
X120507130Y-77502101D01*
X120525000Y-77320664D01*
X120525000Y-77025000D01*
X120681637Y-77025000D01*
X120920236Y-76977540D01*
X121144992Y-76884443D01*
X121347267Y-76749287D01*
X121519287Y-76577267D01*
X121654443Y-76374992D01*
X121747540Y-76150236D01*
X121795000Y-75911637D01*
X121795000Y-75668363D01*
X121747540Y-75429764D01*
X121654443Y-75205008D01*
X121519287Y-75002733D01*
X121347267Y-74830713D01*
X121144992Y-74695557D01*
X120920236Y-74602460D01*
X120681637Y-74555000D01*
X120525000Y-74555000D01*
X120525000Y-74398363D01*
X120493500Y-74240000D01*
X120648788Y-74240000D01*
X120824786Y-74415998D01*
X120848589Y-74445002D01*
X120964314Y-74539975D01*
X121096343Y-74610547D01*
X121239604Y-74654004D01*
X121351257Y-74665001D01*
X121351266Y-74665001D01*
X121388589Y-74668677D01*
X121425912Y-74665001D01*
X124829391Y-74665001D01*
X124812340Y-74750721D01*
X124812340Y-74954599D01*
X124852114Y-75154558D01*
X124930135Y-75342916D01*
X125043403Y-75512434D01*
X125187566Y-75656597D01*
X125357084Y-75769865D01*
X125545442Y-75847886D01*
X125745401Y-75887660D01*
X125807539Y-75887660D01*
X128330881Y-78411003D01*
X128354679Y-78440001D01*
X128383677Y-78463799D01*
X128470404Y-78534974D01*
X128602433Y-78605546D01*
X128745694Y-78649003D01*
X128894680Y-78663677D01*
X128932013Y-78660000D01*
X131098421Y-78660000D01*
X130264957Y-79493465D01*
X130208102Y-79504774D01*
X130019744Y-79582795D01*
X129850226Y-79696063D01*
X129706063Y-79840226D01*
X129592795Y-80009744D01*
X129514774Y-80198102D01*
X129475000Y-80398061D01*
X129475000Y-80601939D01*
X129514774Y-80801898D01*
X129592795Y-80990256D01*
X129706063Y-81159774D01*
X129850226Y-81303937D01*
X130019744Y-81417205D01*
X130208102Y-81495226D01*
X130408061Y-81535000D01*
X130611939Y-81535000D01*
X130811898Y-81495226D01*
X131000256Y-81417205D01*
X131169774Y-81303937D01*
X131313937Y-81159774D01*
X131427205Y-80990256D01*
X131505226Y-80801898D01*
X131516535Y-80745043D01*
X132406579Y-79855000D01*
X135336531Y-79855000D01*
X135380000Y-79859281D01*
X135423469Y-79855000D01*
X135423477Y-79855000D01*
X135553490Y-79842195D01*
X135720313Y-79791589D01*
X135874059Y-79709411D01*
X136008817Y-79598817D01*
X136036534Y-79565044D01*
X136565045Y-79036533D01*
X136598817Y-79008817D01*
X136709411Y-78874059D01*
X136791589Y-78720313D01*
X136842195Y-78553490D01*
X136855000Y-78423477D01*
X136855000Y-78423470D01*
X136859281Y-78380001D01*
X136855000Y-78336532D01*
X136855000Y-77103469D01*
X136859281Y-77060000D01*
X136855000Y-77016531D01*
X136855000Y-77016523D01*
X136842195Y-76886510D01*
X136808249Y-76774605D01*
X136850256Y-76757205D01*
X137019774Y-76643937D01*
X137063711Y-76600000D01*
X137945199Y-76600000D01*
X139240000Y-77894802D01*
X139240000Y-78970582D01*
X139211939Y-78965000D01*
X139008061Y-78965000D01*
X138808102Y-79004774D01*
X138619744Y-79082795D01*
X138450226Y-79196063D01*
X138306063Y-79340226D01*
X138192795Y-79509744D01*
X138114774Y-79698102D01*
X138075000Y-79898061D01*
X138075000Y-80101939D01*
X138114774Y-80301898D01*
X138192795Y-80490256D01*
X138202647Y-80505000D01*
X138038061Y-80505000D01*
X137838102Y-80544774D01*
X137649744Y-80622795D01*
X137480226Y-80736063D01*
X137336063Y-80880226D01*
X137222795Y-81049744D01*
X137144774Y-81238102D01*
X137105000Y-81438061D01*
X137105000Y-81641939D01*
X137144774Y-81841898D01*
X137222795Y-82030256D01*
X137336063Y-82199774D01*
X137480226Y-82343937D01*
X137649744Y-82457205D01*
X137838102Y-82535226D01*
X138038061Y-82575000D01*
X138241939Y-82575000D01*
X138441898Y-82535226D01*
X138630256Y-82457205D01*
X138799774Y-82343937D01*
X138943937Y-82199774D01*
X138947303Y-82194737D01*
X138984276Y-82174974D01*
X139002517Y-82160004D01*
X139024774Y-82271898D01*
X139102795Y-82460256D01*
X139216063Y-82629774D01*
X139360226Y-82773937D01*
X139529744Y-82887205D01*
X139718102Y-82965226D01*
X139918061Y-83005000D01*
X140121939Y-83005000D01*
X140321898Y-82965226D01*
X140510256Y-82887205D01*
X140679774Y-82773937D01*
X140823937Y-82629774D01*
X140937205Y-82460256D01*
X141015226Y-82271898D01*
X141055000Y-82071939D01*
X141055000Y-81868061D01*
X141015226Y-81668102D01*
X140937205Y-81479744D01*
X140823937Y-81310226D01*
X140760000Y-81246289D01*
X140760000Y-77617333D01*
X140763677Y-77580000D01*
X140754884Y-77490719D01*
X140749003Y-77431014D01*
X140705546Y-77287753D01*
X140634974Y-77155724D01*
X140540001Y-77039999D01*
X140511004Y-77016202D01*
X138823804Y-75329003D01*
X138800001Y-75299999D01*
X138684276Y-75205026D01*
X138552247Y-75134454D01*
X138408986Y-75090997D01*
X138297333Y-75080000D01*
X138297322Y-75080000D01*
X138260000Y-75076324D01*
X138222678Y-75080000D01*
X137063711Y-75080000D01*
X137019774Y-75036063D01*
X136850256Y-74922795D01*
X136661898Y-74844774D01*
X136461939Y-74805000D01*
X136258061Y-74805000D01*
X136058102Y-74844774D01*
X135869744Y-74922795D01*
X135700226Y-75036063D01*
X135556063Y-75180226D01*
X135541727Y-75201681D01*
X135473937Y-75100226D01*
X135329774Y-74956063D01*
X135160256Y-74842795D01*
X134971898Y-74764774D01*
X134771939Y-74725000D01*
X134568061Y-74725000D01*
X134368102Y-74764774D01*
X134179744Y-74842795D01*
X134010226Y-74956063D01*
X133866063Y-75100226D01*
X133752795Y-75269744D01*
X133674774Y-75458102D01*
X133635000Y-75658061D01*
X133635000Y-75861939D01*
X133674774Y-76061898D01*
X133752795Y-76250256D01*
X133782130Y-76294159D01*
X133716063Y-76360226D01*
X133602795Y-76529744D01*
X133524774Y-76718102D01*
X133485000Y-76918061D01*
X133485000Y-76980199D01*
X133325199Y-77140000D01*
X131960448Y-77140000D01*
X132005226Y-77031898D01*
X132045000Y-76831939D01*
X132045000Y-76628061D01*
X132005226Y-76428102D01*
X131927205Y-76239744D01*
X131813937Y-76070226D01*
X131669774Y-75926063D01*
X131500256Y-75812795D01*
X131311898Y-75734774D01*
X131111939Y-75695000D01*
X131049802Y-75695000D01*
X128748805Y-73394004D01*
X128725002Y-73365000D01*
X128609277Y-73270027D01*
X128477248Y-73199455D01*
X128333987Y-73155998D01*
X128222334Y-73145001D01*
X128222323Y-73145001D01*
X128185001Y-73141325D01*
X128147679Y-73145001D01*
X125265000Y-73145001D01*
X125265000Y-73078061D01*
X125225226Y-72878102D01*
X125147205Y-72689744D01*
X125033937Y-72520226D01*
X124889774Y-72376063D01*
X124720256Y-72262795D01*
X124531898Y-72184774D01*
X124331939Y-72145000D01*
X124128061Y-72145000D01*
X123928102Y-72184774D01*
X123739744Y-72262795D01*
X123570226Y-72376063D01*
X123526289Y-72420000D01*
X121614802Y-72420000D01*
X118110789Y-68915988D01*
X118112247Y-68915546D01*
X118244276Y-68844974D01*
X118360001Y-68750001D01*
X118383804Y-68720997D01*
X119810001Y-67294800D01*
X119810000Y-68836289D01*
X119766063Y-68880226D01*
X119652795Y-69049744D01*
X119574774Y-69238102D01*
X119535000Y-69438061D01*
X119535000Y-69641939D01*
X119574774Y-69841898D01*
X119652795Y-70030256D01*
X119766063Y-70199774D01*
X119910226Y-70343937D01*
X120079744Y-70457205D01*
X120268102Y-70535226D01*
X120468061Y-70575000D01*
X120671939Y-70575000D01*
X120871898Y-70535226D01*
X121060256Y-70457205D01*
X121229774Y-70343937D01*
X121373937Y-70199774D01*
X121487205Y-70030256D01*
X121565226Y-69841898D01*
X121605000Y-69641939D01*
X121605000Y-69438061D01*
X121565226Y-69238102D01*
X121487205Y-69049744D01*
X121486081Y-69048061D01*
X125425000Y-69048061D01*
X125425000Y-69251939D01*
X125464774Y-69451898D01*
X125542795Y-69640256D01*
X125656063Y-69809774D01*
X125800226Y-69953937D01*
X125969744Y-70067205D01*
X126158102Y-70145226D01*
X126358061Y-70185000D01*
X126525000Y-70185000D01*
X126525000Y-70351939D01*
X126564774Y-70551898D01*
X126642795Y-70740256D01*
X126756063Y-70909774D01*
X126900226Y-71053937D01*
X127069744Y-71167205D01*
X127258102Y-71245226D01*
X127458061Y-71285000D01*
X127661939Y-71285000D01*
X127861898Y-71245226D01*
X128050256Y-71167205D01*
X128219774Y-71053937D01*
X128363937Y-70909774D01*
X128477205Y-70740256D01*
X128555226Y-70551898D01*
X128579473Y-70430000D01*
X135542667Y-70430000D01*
X135580000Y-70433677D01*
X135617333Y-70430000D01*
X135715198Y-70430000D01*
X135733997Y-70448799D01*
X135734002Y-70448803D01*
X135775000Y-70489801D01*
X135775000Y-70551939D01*
X135814774Y-70751898D01*
X135892795Y-70940256D01*
X136006063Y-71109774D01*
X136150226Y-71253937D01*
X136319744Y-71367205D01*
X136508102Y-71445226D01*
X136708061Y-71485000D01*
X136911939Y-71485000D01*
X137111898Y-71445226D01*
X137300256Y-71367205D01*
X137469774Y-71253937D01*
X137613937Y-71109774D01*
X137727205Y-70940256D01*
X137805226Y-70751898D01*
X137823891Y-70658061D01*
X141955000Y-70658061D01*
X141955000Y-70861939D01*
X141994774Y-71061898D01*
X142072795Y-71250256D01*
X142186063Y-71419774D01*
X142330226Y-71563937D01*
X142499744Y-71677205D01*
X142688102Y-71755226D01*
X142888061Y-71795000D01*
X143091939Y-71795000D01*
X143291898Y-71755226D01*
X143480256Y-71677205D01*
X143649774Y-71563937D01*
X143793937Y-71419774D01*
X143907205Y-71250256D01*
X143985226Y-71061898D01*
X144025000Y-70861939D01*
X144025000Y-70658061D01*
X143985226Y-70458102D01*
X143907205Y-70269744D01*
X143793937Y-70100226D01*
X143649774Y-69956063D01*
X143480256Y-69842795D01*
X143291898Y-69764774D01*
X143091939Y-69725000D01*
X142888061Y-69725000D01*
X142688102Y-69764774D01*
X142499744Y-69842795D01*
X142330226Y-69956063D01*
X142186063Y-70100226D01*
X142072795Y-70269744D01*
X141994774Y-70458102D01*
X141955000Y-70658061D01*
X137823891Y-70658061D01*
X137845000Y-70551939D01*
X137845000Y-70348061D01*
X137805226Y-70148102D01*
X137727205Y-69959744D01*
X137613937Y-69790226D01*
X137469774Y-69646063D01*
X137300256Y-69532795D01*
X137111898Y-69454774D01*
X136911939Y-69415000D01*
X136849801Y-69415000D01*
X136808803Y-69374002D01*
X136808799Y-69373997D01*
X136593801Y-69158999D01*
X136570001Y-69129999D01*
X136541000Y-69106199D01*
X136278803Y-68844002D01*
X136278799Y-68843997D01*
X136255001Y-68814999D01*
X136226002Y-68791200D01*
X135905000Y-68470199D01*
X135905000Y-50298711D01*
X135948937Y-50254774D01*
X136062205Y-50085256D01*
X136140226Y-49896898D01*
X136180000Y-49696939D01*
X136180000Y-49493061D01*
X136140226Y-49293102D01*
X136062205Y-49104744D01*
X135948937Y-48935226D01*
X135804774Y-48791063D01*
X135635256Y-48677795D01*
X135446898Y-48599774D01*
X135246939Y-48560000D01*
X135043061Y-48560000D01*
X134843102Y-48599774D01*
X134654744Y-48677795D01*
X134485226Y-48791063D01*
X134341063Y-48935226D01*
X134227795Y-49104744D01*
X134149774Y-49293102D01*
X134110000Y-49493061D01*
X134110000Y-49696939D01*
X134149774Y-49896898D01*
X134227795Y-50085256D01*
X134341063Y-50254774D01*
X134385000Y-50298711D01*
X134385001Y-68747667D01*
X134381324Y-68785000D01*
X134385001Y-68822333D01*
X134393636Y-68910000D01*
X130257429Y-68910000D01*
X130265000Y-68871939D01*
X130265000Y-68668061D01*
X130225226Y-68468102D01*
X130147205Y-68279744D01*
X130033937Y-68110226D01*
X129889774Y-67966063D01*
X129720256Y-67852795D01*
X129531898Y-67774774D01*
X129331939Y-67735000D01*
X129128061Y-67735000D01*
X128928102Y-67774774D01*
X128739744Y-67852795D01*
X128570226Y-67966063D01*
X128526289Y-68010000D01*
X126877322Y-68010000D01*
X126839999Y-68006324D01*
X126802676Y-68010000D01*
X126802667Y-68010000D01*
X126691014Y-68020997D01*
X126547753Y-68064454D01*
X126453189Y-68115000D01*
X126358061Y-68115000D01*
X126158102Y-68154774D01*
X125969744Y-68232795D01*
X125800226Y-68346063D01*
X125656063Y-68490226D01*
X125542795Y-68659744D01*
X125464774Y-68848102D01*
X125425000Y-69048061D01*
X121486081Y-69048061D01*
X121373937Y-68880226D01*
X121330000Y-68836289D01*
X121330000Y-67554801D01*
X122936740Y-65948061D01*
X129545000Y-65948061D01*
X129545000Y-66151939D01*
X129584774Y-66351898D01*
X129662795Y-66540256D01*
X129776063Y-66709774D01*
X129920226Y-66853937D01*
X130089744Y-66967205D01*
X130278102Y-67045226D01*
X130478061Y-67085000D01*
X130681939Y-67085000D01*
X130881898Y-67045226D01*
X131070256Y-66967205D01*
X131239774Y-66853937D01*
X131383937Y-66709774D01*
X131497205Y-66540256D01*
X131575226Y-66351898D01*
X131615000Y-66151939D01*
X131615000Y-66089802D01*
X131715618Y-65989184D01*
X131818986Y-65979003D01*
X131962247Y-65935546D01*
X132094276Y-65864974D01*
X132210001Y-65770001D01*
X132214105Y-65765000D01*
X132271939Y-65765000D01*
X132471898Y-65725226D01*
X132660256Y-65647205D01*
X132829774Y-65533937D01*
X132973937Y-65389774D01*
X133087205Y-65220256D01*
X133165226Y-65031898D01*
X133205000Y-64831939D01*
X133205000Y-64628061D01*
X133165226Y-64428102D01*
X133087205Y-64239744D01*
X132973937Y-64070226D01*
X132829774Y-63926063D01*
X132660256Y-63812795D01*
X132471898Y-63734774D01*
X132271939Y-63695000D01*
X132068061Y-63695000D01*
X131868102Y-63734774D01*
X131679744Y-63812795D01*
X131510226Y-63926063D01*
X131366063Y-64070226D01*
X131252795Y-64239744D01*
X131174774Y-64428102D01*
X131158681Y-64509005D01*
X131107753Y-64524454D01*
X130975723Y-64595026D01*
X130902029Y-64655506D01*
X130859999Y-64689999D01*
X130836201Y-64718998D01*
X130540198Y-65015000D01*
X130478061Y-65015000D01*
X130278102Y-65054774D01*
X130089744Y-65132795D01*
X129920226Y-65246063D01*
X129776063Y-65390226D01*
X129662795Y-65559744D01*
X129584774Y-65748102D01*
X129545000Y-65948061D01*
X122936740Y-65948061D01*
X127551004Y-61333798D01*
X127580001Y-61310001D01*
X127674974Y-61194276D01*
X127745546Y-61062247D01*
X127789003Y-60918986D01*
X127800000Y-60807333D01*
X127800000Y-60807325D01*
X127803676Y-60770000D01*
X127800000Y-60732675D01*
X127800000Y-48907322D01*
X127803676Y-48869999D01*
X127800000Y-48832676D01*
X127800000Y-48832667D01*
X127789003Y-48721014D01*
X127745546Y-48577753D01*
X127674974Y-48445724D01*
X127580001Y-48329999D01*
X127551003Y-48306201D01*
X126703803Y-47459002D01*
X126680001Y-47429999D01*
X126564276Y-47335026D01*
X126432247Y-47264454D01*
X126288986Y-47220997D01*
X126177333Y-47210000D01*
X126177322Y-47210000D01*
X126140000Y-47206324D01*
X126102678Y-47210000D01*
X124097333Y-47210000D01*
X124060000Y-47206323D01*
X124022667Y-47210000D01*
X123911014Y-47220997D01*
X123767753Y-47264454D01*
X123635724Y-47335026D01*
X123623571Y-47345000D01*
X123548061Y-47345000D01*
X123348102Y-47384774D01*
X123159744Y-47462795D01*
X122990226Y-47576063D01*
X122846063Y-47720226D01*
X122732795Y-47889744D01*
X122654774Y-48078102D01*
X122615000Y-48278061D01*
X122615000Y-48481939D01*
X122654774Y-48681898D01*
X122732795Y-48870256D01*
X122846063Y-49039774D01*
X122990226Y-49183937D01*
X123159744Y-49297205D01*
X123348102Y-49375226D01*
X123548061Y-49415000D01*
X123751939Y-49415000D01*
X123951898Y-49375226D01*
X124025727Y-49344645D01*
X124136063Y-49509774D01*
X124180001Y-49553712D01*
X124180000Y-59495198D01*
X117705199Y-65970000D01*
X115183711Y-65970000D01*
X115139774Y-65926063D01*
X114970256Y-65812795D01*
X114781898Y-65734774D01*
X114581939Y-65695000D01*
X114378061Y-65695000D01*
X114178102Y-65734774D01*
X114110000Y-65762983D01*
X114110000Y-65514801D01*
X115924802Y-63700000D01*
X116996289Y-63700000D01*
X117040226Y-63743937D01*
X117209744Y-63857205D01*
X117398102Y-63935226D01*
X117598061Y-63975000D01*
X117801939Y-63975000D01*
X118001898Y-63935226D01*
X118190256Y-63857205D01*
X118359774Y-63743937D01*
X118503937Y-63599774D01*
X118617205Y-63430256D01*
X118695226Y-63241898D01*
X118735000Y-63041939D01*
X118735000Y-62838061D01*
X118695226Y-62638102D01*
X118617205Y-62449744D01*
X118503937Y-62280226D01*
X118359774Y-62136063D01*
X118190256Y-62022795D01*
X118001898Y-61944774D01*
X117801939Y-61905000D01*
X117598061Y-61905000D01*
X117398102Y-61944774D01*
X117209744Y-62022795D01*
X117040226Y-62136063D01*
X116996289Y-62180000D01*
X115647325Y-62180000D01*
X115610000Y-62176324D01*
X115572675Y-62180000D01*
X115572667Y-62180000D01*
X115461014Y-62190997D01*
X115317753Y-62234454D01*
X115185724Y-62305026D01*
X115069999Y-62399999D01*
X115046201Y-62428997D01*
X112838998Y-64636201D01*
X112810000Y-64659999D01*
X112786202Y-64688997D01*
X112786201Y-64688998D01*
X112715026Y-64775724D01*
X112644454Y-64907754D01*
X112616473Y-65000000D01*
X112600998Y-65051014D01*
X112590001Y-65162667D01*
X112586324Y-65200000D01*
X112590001Y-65237332D01*
X112590000Y-68892677D01*
X112586324Y-68930000D01*
X112590000Y-68967322D01*
X112590000Y-68967332D01*
X112600997Y-69078985D01*
X112639572Y-69206153D01*
X112644454Y-69222246D01*
X112715026Y-69354276D01*
X112744530Y-69390226D01*
X112809999Y-69470001D01*
X112839002Y-69493803D01*
X113256200Y-69911002D01*
X113279999Y-69940001D01*
X113395724Y-70034974D01*
X113527753Y-70105546D01*
X113671014Y-70149003D01*
X113782667Y-70160000D01*
X113782676Y-70160000D01*
X113819999Y-70163676D01*
X113857322Y-70160000D01*
X117205199Y-70160000D01*
X119765198Y-72720000D01*
X117884802Y-72720000D01*
X117574256Y-72409455D01*
X117613937Y-72369774D01*
X117727205Y-72200256D01*
X117805226Y-72011898D01*
X117845000Y-71811939D01*
X117845000Y-71608061D01*
X117805226Y-71408102D01*
X117727205Y-71219744D01*
X117613937Y-71050226D01*
X117469774Y-70906063D01*
X117300256Y-70792795D01*
X117111898Y-70714774D01*
X116911939Y-70675000D01*
X116708061Y-70675000D01*
X116582377Y-70700000D01*
X109989604Y-70700000D01*
X109939999Y-70695114D01*
X109890394Y-70700000D01*
X109890392Y-70700000D01*
X109742006Y-70714615D01*
X109551620Y-70772368D01*
X109376160Y-70866153D01*
X109261807Y-70960000D01*
X107628355Y-70960000D01*
X106899287Y-70230932D01*
X106915000Y-70151939D01*
X106915000Y-69948061D01*
X106890000Y-69822377D01*
X106890000Y-66388363D01*
X108585000Y-66388363D01*
X108585000Y-66631637D01*
X108632460Y-66870236D01*
X108725557Y-67094992D01*
X108860713Y-67297267D01*
X109032733Y-67469287D01*
X109235008Y-67604443D01*
X109419580Y-67680895D01*
X109345099Y-67703489D01*
X109130551Y-67818167D01*
X108942498Y-67972498D01*
X108788167Y-68160552D01*
X108673489Y-68375100D01*
X108602870Y-68607899D01*
X108585000Y-68789336D01*
X108585000Y-69310665D01*
X108602870Y-69492102D01*
X108673489Y-69724901D01*
X108788168Y-69939449D01*
X108942499Y-70127502D01*
X109130552Y-70281833D01*
X109345100Y-70396511D01*
X109577899Y-70467130D01*
X109820000Y-70490975D01*
X110062102Y-70467130D01*
X110294901Y-70396511D01*
X110509449Y-70281833D01*
X110697502Y-70127502D01*
X110851833Y-69939449D01*
X110966511Y-69724900D01*
X111037130Y-69492101D01*
X111055000Y-69310664D01*
X111055000Y-69015000D01*
X111211637Y-69015000D01*
X111450236Y-68967540D01*
X111674992Y-68874443D01*
X111877267Y-68739287D01*
X112049287Y-68567267D01*
X112184443Y-68364992D01*
X112277540Y-68140236D01*
X112325000Y-67901637D01*
X112325000Y-67658363D01*
X112277540Y-67419764D01*
X112184443Y-67195008D01*
X112049287Y-66992733D01*
X111877267Y-66820713D01*
X111674992Y-66685557D01*
X111450236Y-66592460D01*
X111211637Y-66545000D01*
X111055000Y-66545000D01*
X111055000Y-66388363D01*
X111007540Y-66149764D01*
X110914443Y-65925008D01*
X110779287Y-65722733D01*
X110607267Y-65550713D01*
X110404992Y-65415557D01*
X110180236Y-65322460D01*
X109941637Y-65275000D01*
X109698363Y-65275000D01*
X109459764Y-65322460D01*
X109235008Y-65415557D01*
X109032733Y-65550713D01*
X108860713Y-65722733D01*
X108725557Y-65925008D01*
X108632460Y-66149764D01*
X108585000Y-66388363D01*
X106890000Y-66388363D01*
X106890000Y-52339604D01*
X106894886Y-52289999D01*
X106888398Y-52224126D01*
X106875385Y-52092006D01*
X106817632Y-51901620D01*
X106723847Y-51726160D01*
X106597633Y-51572367D01*
X106559094Y-51540739D01*
X103842529Y-48824174D01*
X103808848Y-48761161D01*
X103682634Y-48607368D01*
X103644101Y-48575745D01*
X96198072Y-41129717D01*
X96198072Y-40320000D01*
X96185812Y-40195518D01*
X96149502Y-40075820D01*
X96090537Y-39965506D01*
X96011185Y-39868815D01*
X95914494Y-39789463D01*
X95804180Y-39730498D01*
X95684482Y-39694188D01*
X95560000Y-39681928D01*
X93960000Y-39681928D01*
X93835518Y-39694188D01*
X93715820Y-39730498D01*
X93605506Y-39789463D01*
X93508815Y-39868815D01*
X93429463Y-39965506D01*
X93370498Y-40075820D01*
X93334188Y-40195518D01*
X93321928Y-40320000D01*
X93321928Y-40327215D01*
X93252702Y-40306903D01*
X92439605Y-41120000D01*
X92453748Y-41134143D01*
X92274143Y-41313748D01*
X92260000Y-41299605D01*
X91446903Y-42112702D01*
X91518486Y-42356671D01*
X91773996Y-42477571D01*
X91933973Y-42517671D01*
X90291645Y-44160000D01*
X87859604Y-44160000D01*
X87809999Y-44155114D01*
X87760394Y-44160000D01*
X87760392Y-44160000D01*
X87612006Y-44174615D01*
X87421620Y-44232368D01*
X87246160Y-44326153D01*
X87092367Y-44452367D01*
X87060739Y-44490906D01*
X80361645Y-51190000D01*
X77927623Y-51190000D01*
X77801939Y-51165000D01*
X77598061Y-51165000D01*
X77398102Y-51204774D01*
X77209744Y-51282795D01*
X77040226Y-51396063D01*
X76896063Y-51540226D01*
X76782795Y-51709744D01*
X76704774Y-51898102D01*
X76665000Y-52098061D01*
X63183766Y-52098061D01*
X63073577Y-51891914D01*
X62783605Y-51766000D01*
X61649605Y-52900000D01*
X61290395Y-52900000D01*
X60156395Y-51766000D01*
X59866423Y-51891914D01*
X59700567Y-52224126D01*
X59602710Y-52582312D01*
X59576611Y-52952706D01*
X58030000Y-52952706D01*
X58030000Y-51586395D01*
X60336000Y-51586395D01*
X61470000Y-52720395D01*
X62604000Y-51586395D01*
X62478086Y-51296423D01*
X62145874Y-51130567D01*
X61787688Y-51032710D01*
X61417294Y-51006611D01*
X61048925Y-51053275D01*
X60696738Y-51170906D01*
X60461914Y-51296423D01*
X60336000Y-51586395D01*
X58030000Y-51586395D01*
X58030000Y-46650000D01*
X59581928Y-46650000D01*
X59581928Y-49150000D01*
X59594188Y-49274482D01*
X59630498Y-49394180D01*
X59689463Y-49504494D01*
X59768815Y-49601185D01*
X59865506Y-49680537D01*
X59975820Y-49739502D01*
X60095518Y-49775812D01*
X60220000Y-49788072D01*
X62720000Y-49788072D01*
X62844482Y-49775812D01*
X62964180Y-49739502D01*
X63074494Y-49680537D01*
X63171185Y-49601185D01*
X63250537Y-49504494D01*
X63309502Y-49394180D01*
X63345812Y-49274482D01*
X63358072Y-49150000D01*
X63358072Y-48874127D01*
X63371680Y-48869999D01*
X63478380Y-48837632D01*
X63653840Y-48743847D01*
X63807633Y-48617633D01*
X63839261Y-48579094D01*
X67831255Y-44587100D01*
X67897439Y-44919834D01*
X68039534Y-45262882D01*
X68245825Y-45571618D01*
X68508382Y-45834175D01*
X68817118Y-46040466D01*
X69160166Y-46182561D01*
X69524344Y-46255000D01*
X69895656Y-46255000D01*
X70259834Y-46182561D01*
X70602882Y-46040466D01*
X70911618Y-45834175D01*
X71174175Y-45571618D01*
X71380466Y-45262882D01*
X71522561Y-44919834D01*
X71595000Y-44555656D01*
X71595000Y-44184344D01*
X71522561Y-43820166D01*
X71380466Y-43477118D01*
X71174175Y-43168382D01*
X70911618Y-42905825D01*
X70602882Y-42699534D01*
X70259834Y-42557439D01*
X69895656Y-42485000D01*
X69524344Y-42485000D01*
X69160166Y-42557439D01*
X68817118Y-42699534D01*
X68770000Y-42731017D01*
X68770000Y-40320000D01*
X72421928Y-40320000D01*
X72421928Y-41920000D01*
X72434188Y-42044482D01*
X72470498Y-42164180D01*
X72529463Y-42274494D01*
X72608815Y-42371185D01*
X72705506Y-42450537D01*
X72815820Y-42509502D01*
X72935518Y-42545812D01*
X73060000Y-42558072D01*
X74660000Y-42558072D01*
X74784482Y-42545812D01*
X74904180Y-42509502D01*
X75014494Y-42450537D01*
X75111185Y-42371185D01*
X75190537Y-42274494D01*
X75249502Y-42164180D01*
X75265117Y-42112702D01*
X75546903Y-42112702D01*
X75618486Y-42356671D01*
X75873996Y-42477571D01*
X76148184Y-42546300D01*
X76430512Y-42560217D01*
X76710130Y-42518787D01*
X76976292Y-42423603D01*
X77101514Y-42356671D01*
X77173097Y-42112702D01*
X76360000Y-41299605D01*
X75546903Y-42112702D01*
X75265117Y-42112702D01*
X75285812Y-42044482D01*
X75298072Y-41920000D01*
X75298072Y-41912785D01*
X75367298Y-41933097D01*
X76180395Y-41120000D01*
X76539605Y-41120000D01*
X77352702Y-41933097D01*
X77422212Y-41912702D01*
X78946903Y-41912702D01*
X79018486Y-42156671D01*
X79273996Y-42277571D01*
X79548184Y-42346300D01*
X79830512Y-42360217D01*
X80110130Y-42318787D01*
X80376292Y-42223603D01*
X80501514Y-42156671D01*
X80573097Y-41912702D01*
X79760000Y-41099605D01*
X78946903Y-41912702D01*
X77422212Y-41912702D01*
X77596671Y-41861514D01*
X77717571Y-41606004D01*
X77786300Y-41331816D01*
X77800217Y-41049488D01*
X77791479Y-40990512D01*
X78319783Y-40990512D01*
X78361213Y-41270130D01*
X78456397Y-41536292D01*
X78523329Y-41661514D01*
X78767298Y-41733097D01*
X79580395Y-40920000D01*
X79939605Y-40920000D01*
X80752702Y-41733097D01*
X80821928Y-41712785D01*
X80821928Y-41720000D01*
X80834188Y-41844482D01*
X80870498Y-41964180D01*
X80929463Y-42074494D01*
X81008815Y-42171185D01*
X81105506Y-42250537D01*
X81215820Y-42309502D01*
X81335518Y-42345812D01*
X81460000Y-42358072D01*
X83060000Y-42358072D01*
X83184482Y-42345812D01*
X83304180Y-42309502D01*
X83414494Y-42250537D01*
X83511185Y-42171185D01*
X83590537Y-42074494D01*
X83649502Y-41964180D01*
X83685812Y-41844482D01*
X83698072Y-41720000D01*
X83698072Y-40320000D01*
X84421928Y-40320000D01*
X84421928Y-41920000D01*
X84434188Y-42044482D01*
X84470498Y-42164180D01*
X84529463Y-42274494D01*
X84608815Y-42371185D01*
X84705506Y-42450537D01*
X84815820Y-42509502D01*
X84935518Y-42545812D01*
X85060000Y-42558072D01*
X86660000Y-42558072D01*
X86784482Y-42545812D01*
X86904180Y-42509502D01*
X87014494Y-42450537D01*
X87111185Y-42371185D01*
X87190537Y-42274494D01*
X87249502Y-42164180D01*
X87265117Y-42112702D01*
X87546903Y-42112702D01*
X87618486Y-42356671D01*
X87873996Y-42477571D01*
X88148184Y-42546300D01*
X88430512Y-42560217D01*
X88710130Y-42518787D01*
X88976292Y-42423603D01*
X89101514Y-42356671D01*
X89173097Y-42112702D01*
X88360000Y-41299605D01*
X87546903Y-42112702D01*
X87265117Y-42112702D01*
X87285812Y-42044482D01*
X87298072Y-41920000D01*
X87298072Y-41912785D01*
X87367298Y-41933097D01*
X88180395Y-41120000D01*
X88539605Y-41120000D01*
X89352702Y-41933097D01*
X89596671Y-41861514D01*
X89717571Y-41606004D01*
X89786300Y-41331816D01*
X89793265Y-41190512D01*
X90819783Y-41190512D01*
X90861213Y-41470130D01*
X90956397Y-41736292D01*
X91023329Y-41861514D01*
X91267298Y-41933097D01*
X92080395Y-41120000D01*
X91267298Y-40306903D01*
X91023329Y-40378486D01*
X90902429Y-40633996D01*
X90833700Y-40908184D01*
X90819783Y-41190512D01*
X89793265Y-41190512D01*
X89800217Y-41049488D01*
X89758787Y-40769870D01*
X89663603Y-40503708D01*
X89596671Y-40378486D01*
X89352702Y-40306903D01*
X88539605Y-41120000D01*
X88180395Y-41120000D01*
X87367298Y-40306903D01*
X87298072Y-40327215D01*
X87298072Y-40320000D01*
X87285812Y-40195518D01*
X87265118Y-40127298D01*
X87546903Y-40127298D01*
X88360000Y-40940395D01*
X89173097Y-40127298D01*
X91446903Y-40127298D01*
X92260000Y-40940395D01*
X93073097Y-40127298D01*
X93001514Y-39883329D01*
X92746004Y-39762429D01*
X92471816Y-39693700D01*
X92189488Y-39679783D01*
X91909870Y-39721213D01*
X91643708Y-39816397D01*
X91518486Y-39883329D01*
X91446903Y-40127298D01*
X89173097Y-40127298D01*
X89101514Y-39883329D01*
X88846004Y-39762429D01*
X88571816Y-39693700D01*
X88289488Y-39679783D01*
X88009870Y-39721213D01*
X87743708Y-39816397D01*
X87618486Y-39883329D01*
X87546903Y-40127298D01*
X87265118Y-40127298D01*
X87249502Y-40075820D01*
X87190537Y-39965506D01*
X87111185Y-39868815D01*
X87014494Y-39789463D01*
X86904180Y-39730498D01*
X86784482Y-39694188D01*
X86660000Y-39681928D01*
X85060000Y-39681928D01*
X84935518Y-39694188D01*
X84815820Y-39730498D01*
X84705506Y-39789463D01*
X84608815Y-39868815D01*
X84529463Y-39965506D01*
X84470498Y-40075820D01*
X84434188Y-40195518D01*
X84421928Y-40320000D01*
X83698072Y-40320000D01*
X83698072Y-40120000D01*
X83685812Y-39995518D01*
X83649502Y-39875820D01*
X83590537Y-39765506D01*
X83511185Y-39668815D01*
X83414494Y-39589463D01*
X83304180Y-39530498D01*
X83184482Y-39494188D01*
X83060000Y-39481928D01*
X81460000Y-39481928D01*
X81335518Y-39494188D01*
X81215820Y-39530498D01*
X81105506Y-39589463D01*
X81008815Y-39668815D01*
X80929463Y-39765506D01*
X80870498Y-39875820D01*
X80834188Y-39995518D01*
X80821928Y-40120000D01*
X80821928Y-40127215D01*
X80752702Y-40106903D01*
X79939605Y-40920000D01*
X79580395Y-40920000D01*
X78767298Y-40106903D01*
X78523329Y-40178486D01*
X78402429Y-40433996D01*
X78333700Y-40708184D01*
X78319783Y-40990512D01*
X77791479Y-40990512D01*
X77758787Y-40769870D01*
X77663603Y-40503708D01*
X77596671Y-40378486D01*
X77352702Y-40306903D01*
X76539605Y-41120000D01*
X76180395Y-41120000D01*
X75367298Y-40306903D01*
X75298072Y-40327215D01*
X75298072Y-40320000D01*
X75285812Y-40195518D01*
X75265118Y-40127298D01*
X75546903Y-40127298D01*
X76360000Y-40940395D01*
X77173097Y-40127298D01*
X77114415Y-39927298D01*
X78946903Y-39927298D01*
X79760000Y-40740395D01*
X80573097Y-39927298D01*
X80501514Y-39683329D01*
X80246004Y-39562429D01*
X79971816Y-39493700D01*
X79689488Y-39479783D01*
X79409870Y-39521213D01*
X79143708Y-39616397D01*
X79018486Y-39683329D01*
X78946903Y-39927298D01*
X77114415Y-39927298D01*
X77101514Y-39883329D01*
X76846004Y-39762429D01*
X76571816Y-39693700D01*
X76289488Y-39679783D01*
X76009870Y-39721213D01*
X75743708Y-39816397D01*
X75618486Y-39883329D01*
X75546903Y-40127298D01*
X75265118Y-40127298D01*
X75249502Y-40075820D01*
X75190537Y-39965506D01*
X75111185Y-39868815D01*
X75014494Y-39789463D01*
X74904180Y-39730498D01*
X74784482Y-39694188D01*
X74660000Y-39681928D01*
X73060000Y-39681928D01*
X72935518Y-39694188D01*
X72815820Y-39730498D01*
X72705506Y-39789463D01*
X72608815Y-39868815D01*
X72529463Y-39965506D01*
X72470498Y-40075820D01*
X72434188Y-40195518D01*
X72421928Y-40320000D01*
X68770000Y-40320000D01*
X68770000Y-38908072D01*
X69510000Y-38908072D01*
X69634482Y-38895812D01*
X69754180Y-38859502D01*
X69864494Y-38800537D01*
X69961185Y-38721185D01*
X70040537Y-38624494D01*
X70099502Y-38514180D01*
X70135812Y-38394482D01*
X70148072Y-38270000D01*
X70148072Y-34770000D01*
X70135812Y-34645518D01*
X70099502Y-34525820D01*
X70096392Y-34520000D01*
X73269428Y-34520000D01*
X73269428Y-36520000D01*
X73281688Y-36644482D01*
X73317998Y-36764180D01*
X73376963Y-36874494D01*
X73456315Y-36971185D01*
X73553006Y-37050537D01*
X73663320Y-37109502D01*
X73783018Y-37145812D01*
X73907500Y-37158072D01*
X75812500Y-37158072D01*
X75936982Y-37145812D01*
X76056680Y-37109502D01*
X76166994Y-37050537D01*
X76263685Y-36971185D01*
X76343037Y-36874494D01*
X76392059Y-36782781D01*
X76533077Y-36895969D01*
X76808906Y-37039571D01*
X77027020Y-37110563D01*
X77273000Y-36990594D01*
X77273000Y-35647000D01*
X77253000Y-35647000D01*
X77253000Y-35393000D01*
X77273000Y-35393000D01*
X77273000Y-34049406D01*
X77527000Y-34049406D01*
X77527000Y-35393000D01*
X77547000Y-35393000D01*
X77547000Y-35647000D01*
X77527000Y-35647000D01*
X77527000Y-36990594D01*
X77772980Y-37110563D01*
X77991094Y-37039571D01*
X78266923Y-36895969D01*
X78509437Y-36701315D01*
X78664837Y-36516101D01*
X78812037Y-36695463D01*
X79053766Y-36893845D01*
X79329552Y-37041255D01*
X79628797Y-37132030D01*
X79940000Y-37162681D01*
X80251204Y-37132030D01*
X80550449Y-37041255D01*
X80826235Y-36893845D01*
X81067963Y-36695463D01*
X81266345Y-36453734D01*
X81413755Y-36177948D01*
X81504530Y-35878703D01*
X81527500Y-35645485D01*
X81527500Y-35394514D01*
X81504530Y-35161296D01*
X81413755Y-34862051D01*
X81266345Y-34586265D01*
X81211963Y-34520000D01*
X85569428Y-34520000D01*
X85569428Y-36520000D01*
X85581688Y-36644482D01*
X85617998Y-36764180D01*
X85676963Y-36874494D01*
X85756315Y-36971185D01*
X85853006Y-37050537D01*
X85963320Y-37109502D01*
X86083018Y-37145812D01*
X86207500Y-37158072D01*
X88112500Y-37158072D01*
X88236982Y-37145812D01*
X88356680Y-37109502D01*
X88466994Y-37050537D01*
X88563685Y-36971185D01*
X88643037Y-36874494D01*
X88692059Y-36782781D01*
X88833077Y-36895969D01*
X89108906Y-37039571D01*
X89327020Y-37110563D01*
X89573000Y-36990594D01*
X89573000Y-35647000D01*
X89553000Y-35647000D01*
X89553000Y-35393000D01*
X89573000Y-35393000D01*
X89573000Y-34049406D01*
X89827000Y-34049406D01*
X89827000Y-35393000D01*
X89847000Y-35393000D01*
X89847000Y-35647000D01*
X89827000Y-35647000D01*
X89827000Y-36990594D01*
X90072980Y-37110563D01*
X90291094Y-37039571D01*
X90566923Y-36895969D01*
X90809437Y-36701315D01*
X90964837Y-36516101D01*
X91112037Y-36695463D01*
X91353766Y-36893845D01*
X91629552Y-37041255D01*
X91928797Y-37132030D01*
X92240000Y-37162681D01*
X92551204Y-37132030D01*
X92850449Y-37041255D01*
X92989574Y-36966891D01*
X102178519Y-36966891D01*
X102275843Y-37241252D01*
X102424822Y-37491355D01*
X102619731Y-37707588D01*
X102853080Y-37881641D01*
X103115901Y-38006825D01*
X103263110Y-38051476D01*
X103493000Y-37930155D01*
X103493000Y-36737000D01*
X102299186Y-36737000D01*
X102178519Y-36966891D01*
X92989574Y-36966891D01*
X93126235Y-36893845D01*
X93367963Y-36695463D01*
X93566345Y-36453734D01*
X93673580Y-36253109D01*
X102178519Y-36253109D01*
X102299186Y-36483000D01*
X103493000Y-36483000D01*
X103493000Y-35289845D01*
X103747000Y-35289845D01*
X103747000Y-36483000D01*
X103767000Y-36483000D01*
X103767000Y-36737000D01*
X103747000Y-36737000D01*
X103747000Y-37930155D01*
X103976890Y-38051476D01*
X104124099Y-38006825D01*
X104386920Y-37881641D01*
X104620269Y-37707588D01*
X104815178Y-37491355D01*
X104884805Y-37374466D01*
X105006525Y-37556632D01*
X105213368Y-37763475D01*
X105456589Y-37925990D01*
X105726842Y-38037932D01*
X106013740Y-38095000D01*
X106306260Y-38095000D01*
X106593158Y-38037932D01*
X106863411Y-37925990D01*
X107106632Y-37763475D01*
X107313475Y-37556632D01*
X107430000Y-37382240D01*
X107546525Y-37556632D01*
X107753368Y-37763475D01*
X107996589Y-37925990D01*
X108266842Y-38037932D01*
X108553740Y-38095000D01*
X108846260Y-38095000D01*
X109066408Y-38051209D01*
X112586201Y-41571003D01*
X112609999Y-41600001D01*
X112725724Y-41694974D01*
X112857753Y-41765546D01*
X113001014Y-41809003D01*
X113112667Y-41820000D01*
X113112676Y-41820000D01*
X113149999Y-41823676D01*
X113187322Y-41820000D01*
X122526289Y-41820000D01*
X122570226Y-41863937D01*
X122739744Y-41977205D01*
X122928102Y-42055226D01*
X123128061Y-42095000D01*
X123331939Y-42095000D01*
X123531898Y-42055226D01*
X123720256Y-41977205D01*
X123889774Y-41863937D01*
X124033937Y-41719774D01*
X124147205Y-41550256D01*
X124225226Y-41361898D01*
X124265000Y-41161939D01*
X124265000Y-40958061D01*
X124225226Y-40758102D01*
X124147205Y-40569744D01*
X124033937Y-40400226D01*
X123889774Y-40256063D01*
X123720256Y-40142795D01*
X123531898Y-40064774D01*
X123331939Y-40025000D01*
X123128061Y-40025000D01*
X122928102Y-40064774D01*
X122739744Y-40142795D01*
X122570226Y-40256063D01*
X122526289Y-40300000D01*
X113464802Y-40300000D01*
X111372863Y-38208061D01*
X134345000Y-38208061D01*
X134345000Y-38411939D01*
X134384774Y-38611898D01*
X134462795Y-38800256D01*
X134576063Y-38969774D01*
X134720226Y-39113937D01*
X134889744Y-39227205D01*
X135019285Y-39280863D01*
X136023465Y-40285044D01*
X136034774Y-40341898D01*
X136112795Y-40530256D01*
X136226063Y-40699774D01*
X136370226Y-40843937D01*
X136539744Y-40957205D01*
X136728102Y-41035226D01*
X136928061Y-41075000D01*
X137131939Y-41075000D01*
X137331898Y-41035226D01*
X137520256Y-40957205D01*
X137689774Y-40843937D01*
X137833937Y-40699774D01*
X137947205Y-40530256D01*
X138025226Y-40341898D01*
X138065000Y-40141939D01*
X138065000Y-39938061D01*
X138025226Y-39738102D01*
X137947205Y-39549744D01*
X137833937Y-39380226D01*
X137689774Y-39236063D01*
X137520256Y-39122795D01*
X137331898Y-39044774D01*
X137275044Y-39033465D01*
X136406399Y-38164821D01*
X136375226Y-38008102D01*
X136297205Y-37819744D01*
X136242627Y-37738061D01*
X140885000Y-37738061D01*
X140885000Y-37941939D01*
X140924774Y-38141898D01*
X141002795Y-38330256D01*
X141116063Y-38499774D01*
X141260226Y-38643937D01*
X141429744Y-38757205D01*
X141618102Y-38835226D01*
X141818061Y-38875000D01*
X142021939Y-38875000D01*
X142221898Y-38835226D01*
X142410256Y-38757205D01*
X142579774Y-38643937D01*
X142723937Y-38499774D01*
X142837205Y-38330256D01*
X142915226Y-38141898D01*
X142955000Y-37941939D01*
X142955000Y-37738061D01*
X142915226Y-37538102D01*
X142837205Y-37349744D01*
X142723937Y-37180226D01*
X142579774Y-37036063D01*
X142410256Y-36922795D01*
X142221898Y-36844774D01*
X142021939Y-36805000D01*
X141818061Y-36805000D01*
X141618102Y-36844774D01*
X141429744Y-36922795D01*
X141260226Y-37036063D01*
X141116063Y-37180226D01*
X141002795Y-37349744D01*
X140924774Y-37538102D01*
X140885000Y-37738061D01*
X136242627Y-37738061D01*
X136183937Y-37650226D01*
X136039774Y-37506063D01*
X135870256Y-37392795D01*
X135681898Y-37314774D01*
X135481939Y-37275000D01*
X135278061Y-37275000D01*
X135078102Y-37314774D01*
X134889744Y-37392795D01*
X134720226Y-37506063D01*
X134576063Y-37650226D01*
X134462795Y-37819744D01*
X134384774Y-38008102D01*
X134345000Y-38208061D01*
X111372863Y-38208061D01*
X111262873Y-38098072D01*
X112090000Y-38098072D01*
X112214482Y-38085812D01*
X112334180Y-38049502D01*
X112444494Y-37990537D01*
X112541185Y-37911185D01*
X112620537Y-37814494D01*
X112679502Y-37704180D01*
X112715812Y-37584482D01*
X112728072Y-37460000D01*
X112728072Y-37006891D01*
X117238519Y-37006891D01*
X117335843Y-37281252D01*
X117484822Y-37531355D01*
X117679731Y-37747588D01*
X117913080Y-37921641D01*
X118175901Y-38046825D01*
X118323110Y-38091476D01*
X118553000Y-37970155D01*
X118553000Y-36777000D01*
X117359186Y-36777000D01*
X117238519Y-37006891D01*
X112728072Y-37006891D01*
X112728072Y-36293109D01*
X117238519Y-36293109D01*
X117359186Y-36523000D01*
X118553000Y-36523000D01*
X118553000Y-35329845D01*
X118807000Y-35329845D01*
X118807000Y-36523000D01*
X118827000Y-36523000D01*
X118827000Y-36777000D01*
X118807000Y-36777000D01*
X118807000Y-37970155D01*
X119036890Y-38091476D01*
X119184099Y-38046825D01*
X119446920Y-37921641D01*
X119680269Y-37747588D01*
X119875178Y-37531355D01*
X119944805Y-37414466D01*
X120066525Y-37596632D01*
X120273368Y-37803475D01*
X120516589Y-37965990D01*
X120786842Y-38077932D01*
X121073740Y-38135000D01*
X121366260Y-38135000D01*
X121653158Y-38077932D01*
X121923411Y-37965990D01*
X122166632Y-37803475D01*
X122373475Y-37596632D01*
X122490000Y-37422240D01*
X122606525Y-37596632D01*
X122813368Y-37803475D01*
X123056589Y-37965990D01*
X123326842Y-38077932D01*
X123613740Y-38135000D01*
X123906260Y-38135000D01*
X124193158Y-38077932D01*
X124463411Y-37965990D01*
X124706632Y-37803475D01*
X124838487Y-37671620D01*
X124860498Y-37744180D01*
X124919463Y-37854494D01*
X124998815Y-37951185D01*
X125095506Y-38030537D01*
X125205820Y-38089502D01*
X125325518Y-38125812D01*
X125450000Y-38138072D01*
X127150000Y-38138072D01*
X127274482Y-38125812D01*
X127394180Y-38089502D01*
X127504494Y-38030537D01*
X127601185Y-37951185D01*
X127680537Y-37854494D01*
X127739502Y-37744180D01*
X127775812Y-37624482D01*
X127788072Y-37500000D01*
X127788072Y-35800000D01*
X127775812Y-35675518D01*
X127739502Y-35555820D01*
X127680537Y-35445506D01*
X127601185Y-35348815D01*
X127504494Y-35269463D01*
X127394180Y-35210498D01*
X127274482Y-35174188D01*
X127150000Y-35161928D01*
X125450000Y-35161928D01*
X125325518Y-35174188D01*
X125205820Y-35210498D01*
X125095506Y-35269463D01*
X124998815Y-35348815D01*
X124919463Y-35445506D01*
X124860498Y-35555820D01*
X124838487Y-35628380D01*
X124706632Y-35496525D01*
X124463411Y-35334010D01*
X124193158Y-35222068D01*
X123906260Y-35165000D01*
X123613740Y-35165000D01*
X123326842Y-35222068D01*
X123056589Y-35334010D01*
X122813368Y-35496525D01*
X122606525Y-35703368D01*
X122490000Y-35877760D01*
X122373475Y-35703368D01*
X122166632Y-35496525D01*
X121923411Y-35334010D01*
X121653158Y-35222068D01*
X121366260Y-35165000D01*
X121073740Y-35165000D01*
X120786842Y-35222068D01*
X120516589Y-35334010D01*
X120273368Y-35496525D01*
X120066525Y-35703368D01*
X119944805Y-35885534D01*
X119875178Y-35768645D01*
X119680269Y-35552412D01*
X119446920Y-35378359D01*
X119184099Y-35253175D01*
X119036890Y-35208524D01*
X118807000Y-35329845D01*
X118553000Y-35329845D01*
X118323110Y-35208524D01*
X118175901Y-35253175D01*
X117913080Y-35378359D01*
X117679731Y-35552412D01*
X117484822Y-35768645D01*
X117335843Y-36018748D01*
X117238519Y-36293109D01*
X112728072Y-36293109D01*
X112728072Y-35760000D01*
X112715812Y-35635518D01*
X112679502Y-35515820D01*
X112620537Y-35405506D01*
X112541185Y-35308815D01*
X112444494Y-35229463D01*
X112334180Y-35170498D01*
X112214482Y-35134188D01*
X112090000Y-35121928D01*
X110390000Y-35121928D01*
X110265518Y-35134188D01*
X110145820Y-35170498D01*
X110035506Y-35229463D01*
X109938815Y-35308815D01*
X109859463Y-35405506D01*
X109800498Y-35515820D01*
X109778487Y-35588380D01*
X109646632Y-35456525D01*
X109403411Y-35294010D01*
X109133158Y-35182068D01*
X108846260Y-35125000D01*
X108553740Y-35125000D01*
X108266842Y-35182068D01*
X107996589Y-35294010D01*
X107753368Y-35456525D01*
X107546525Y-35663368D01*
X107430000Y-35837760D01*
X107313475Y-35663368D01*
X107106632Y-35456525D01*
X106863411Y-35294010D01*
X106593158Y-35182068D01*
X106306260Y-35125000D01*
X106013740Y-35125000D01*
X105726842Y-35182068D01*
X105456589Y-35294010D01*
X105213368Y-35456525D01*
X105006525Y-35663368D01*
X104884805Y-35845534D01*
X104815178Y-35728645D01*
X104620269Y-35512412D01*
X104386920Y-35338359D01*
X104124099Y-35213175D01*
X103976890Y-35168524D01*
X103747000Y-35289845D01*
X103493000Y-35289845D01*
X103263110Y-35168524D01*
X103115901Y-35213175D01*
X102853080Y-35338359D01*
X102619731Y-35512412D01*
X102424822Y-35728645D01*
X102275843Y-35978748D01*
X102178519Y-36253109D01*
X93673580Y-36253109D01*
X93713755Y-36177948D01*
X93804530Y-35878703D01*
X93827500Y-35645485D01*
X93827500Y-35394514D01*
X93804530Y-35161296D01*
X93713755Y-34862051D01*
X93566345Y-34586265D01*
X93367963Y-34344537D01*
X93126234Y-34146155D01*
X92850448Y-33998745D01*
X92551203Y-33907970D01*
X92240000Y-33877319D01*
X91928796Y-33907970D01*
X91629551Y-33998745D01*
X91353765Y-34146155D01*
X91112037Y-34344537D01*
X90964838Y-34523900D01*
X90809437Y-34338685D01*
X90566923Y-34144031D01*
X90291094Y-34000429D01*
X90072980Y-33929437D01*
X89827000Y-34049406D01*
X89573000Y-34049406D01*
X89327020Y-33929437D01*
X89108906Y-34000429D01*
X88833077Y-34144031D01*
X88692059Y-34257219D01*
X88643037Y-34165506D01*
X88563685Y-34068815D01*
X88466994Y-33989463D01*
X88356680Y-33930498D01*
X88236982Y-33894188D01*
X88112500Y-33881928D01*
X86207500Y-33881928D01*
X86083018Y-33894188D01*
X85963320Y-33930498D01*
X85853006Y-33989463D01*
X85756315Y-34068815D01*
X85676963Y-34165506D01*
X85617998Y-34275820D01*
X85581688Y-34395518D01*
X85569428Y-34520000D01*
X81211963Y-34520000D01*
X81067963Y-34344537D01*
X80826234Y-34146155D01*
X80550448Y-33998745D01*
X80251203Y-33907970D01*
X79940000Y-33877319D01*
X79628796Y-33907970D01*
X79329551Y-33998745D01*
X79053765Y-34146155D01*
X78812037Y-34344537D01*
X78664838Y-34523900D01*
X78509437Y-34338685D01*
X78266923Y-34144031D01*
X77991094Y-34000429D01*
X77772980Y-33929437D01*
X77527000Y-34049406D01*
X77273000Y-34049406D01*
X77027020Y-33929437D01*
X76808906Y-34000429D01*
X76533077Y-34144031D01*
X76392059Y-34257219D01*
X76343037Y-34165506D01*
X76263685Y-34068815D01*
X76166994Y-33989463D01*
X76056680Y-33930498D01*
X75936982Y-33894188D01*
X75812500Y-33881928D01*
X73907500Y-33881928D01*
X73783018Y-33894188D01*
X73663320Y-33930498D01*
X73553006Y-33989463D01*
X73456315Y-34068815D01*
X73376963Y-34165506D01*
X73317998Y-34275820D01*
X73281688Y-34395518D01*
X73269428Y-34520000D01*
X70096392Y-34520000D01*
X70040537Y-34415506D01*
X69961185Y-34318815D01*
X69864494Y-34239463D01*
X69754180Y-34180498D01*
X69634482Y-34144188D01*
X69510000Y-34131928D01*
X66010000Y-34131928D01*
X65885518Y-34144188D01*
X65765820Y-34180498D01*
X65655506Y-34239463D01*
X65558815Y-34318815D01*
X65479463Y-34415506D01*
X65420498Y-34525820D01*
X65384188Y-34645518D01*
X65371928Y-34770000D01*
X65371928Y-38270000D01*
X65384188Y-38394482D01*
X65420498Y-38514180D01*
X65479463Y-38624494D01*
X65558815Y-38721185D01*
X65655506Y-38800537D01*
X65717345Y-38833591D01*
X65045750Y-38835000D01*
X64887000Y-38993750D01*
X64887000Y-41093000D01*
X64907000Y-41093000D01*
X64907000Y-41347000D01*
X64887000Y-41347000D01*
X64887000Y-43446250D01*
X65045750Y-43605000D01*
X65954738Y-43606907D01*
X63255972Y-46305673D01*
X63250537Y-46295506D01*
X63171185Y-46198815D01*
X63074494Y-46119463D01*
X62964180Y-46060498D01*
X62844482Y-46024188D01*
X62720000Y-46011928D01*
X60220000Y-46011928D01*
X60095518Y-46024188D01*
X59975820Y-46060498D01*
X59865506Y-46119463D01*
X59768815Y-46198815D01*
X59689463Y-46295506D01*
X59630498Y-46405820D01*
X59594188Y-46525518D01*
X59581928Y-46650000D01*
X58030000Y-46650000D01*
X58030000Y-42970000D01*
X62371928Y-42970000D01*
X62384188Y-43094482D01*
X62420498Y-43214180D01*
X62479463Y-43324494D01*
X62558815Y-43421185D01*
X62655506Y-43500537D01*
X62765820Y-43559502D01*
X62885518Y-43595812D01*
X63010000Y-43608072D01*
X64474250Y-43605000D01*
X64633000Y-43446250D01*
X64633000Y-41347000D01*
X62533750Y-41347000D01*
X62375000Y-41505750D01*
X62371928Y-42970000D01*
X58030000Y-42970000D01*
X58030000Y-38270000D01*
X59621928Y-38270000D01*
X59634188Y-38394482D01*
X59670498Y-38514180D01*
X59729463Y-38624494D01*
X59808815Y-38721185D01*
X59905506Y-38800537D01*
X60015820Y-38859502D01*
X60135518Y-38895812D01*
X60260000Y-38908072D01*
X61474250Y-38905000D01*
X61633000Y-38746250D01*
X61633000Y-36647000D01*
X61887000Y-36647000D01*
X61887000Y-38746250D01*
X62045750Y-38905000D01*
X62716805Y-38906698D01*
X62655506Y-38939463D01*
X62558815Y-39018815D01*
X62479463Y-39115506D01*
X62420498Y-39225820D01*
X62384188Y-39345518D01*
X62371928Y-39470000D01*
X62375000Y-40934250D01*
X62533750Y-41093000D01*
X64633000Y-41093000D01*
X64633000Y-38993750D01*
X64474250Y-38835000D01*
X63553633Y-38833069D01*
X63614494Y-38800537D01*
X63711185Y-38721185D01*
X63790537Y-38624494D01*
X63849502Y-38514180D01*
X63885812Y-38394482D01*
X63898072Y-38270000D01*
X63895000Y-36805750D01*
X63736250Y-36647000D01*
X61887000Y-36647000D01*
X61633000Y-36647000D01*
X59783750Y-36647000D01*
X59625000Y-36805750D01*
X59621928Y-38270000D01*
X58030000Y-38270000D01*
X58030000Y-34770000D01*
X59621928Y-34770000D01*
X59625000Y-36234250D01*
X59783750Y-36393000D01*
X61633000Y-36393000D01*
X61633000Y-34293750D01*
X61887000Y-34293750D01*
X61887000Y-36393000D01*
X63736250Y-36393000D01*
X63895000Y-36234250D01*
X63898072Y-34770000D01*
X63885812Y-34645518D01*
X63849502Y-34525820D01*
X63790537Y-34415506D01*
X63711185Y-34318815D01*
X63614494Y-34239463D01*
X63504180Y-34180498D01*
X63384482Y-34144188D01*
X63260000Y-34131928D01*
X62045750Y-34135000D01*
X61887000Y-34293750D01*
X61633000Y-34293750D01*
X61474250Y-34135000D01*
X60260000Y-34131928D01*
X60135518Y-34144188D01*
X60015820Y-34180498D01*
X59905506Y-34239463D01*
X59808815Y-34318815D01*
X59729463Y-34415506D01*
X59670498Y-34525820D01*
X59634188Y-34645518D01*
X59621928Y-34770000D01*
X58030000Y-34770000D01*
X58030000Y-33674344D01*
X140815000Y-33674344D01*
X140815000Y-34045656D01*
X140887439Y-34409834D01*
X141029534Y-34752882D01*
X141235825Y-35061618D01*
X141498382Y-35324175D01*
X141807118Y-35530466D01*
X142150166Y-35672561D01*
X142514344Y-35745000D01*
X142885656Y-35745000D01*
X143249834Y-35672561D01*
X143592882Y-35530466D01*
X143901618Y-35324175D01*
X144164175Y-35061618D01*
X144370466Y-34752882D01*
X144512561Y-34409834D01*
X144585000Y-34045656D01*
X144585000Y-33674344D01*
X144512561Y-33310166D01*
X144370466Y-32967118D01*
X144164175Y-32658382D01*
X143901618Y-32395825D01*
X143592882Y-32189534D01*
X143249834Y-32047439D01*
X142885656Y-31975000D01*
X142514344Y-31975000D01*
X142150166Y-32047439D01*
X141807118Y-32189534D01*
X141498382Y-32395825D01*
X141235825Y-32658382D01*
X141029534Y-32967118D01*
X140887439Y-33310166D01*
X140815000Y-33674344D01*
X58030000Y-33674344D01*
X58030000Y-31600000D01*
X145090001Y-31600000D01*
X145090001Y-39721883D01*
G37*
%TD.AperFunction*%
D25*
X101627000Y-63133000D02*
X101647000Y-63133000D01*
X101647000Y-63387000D01*
X101627000Y-63387000D01*
X101627000Y-63407000D01*
X101373000Y-63407000D01*
X101373000Y-63387000D01*
X101353000Y-63387000D01*
X101353000Y-63133000D01*
X101373000Y-63133000D01*
X101373000Y-63113000D01*
X101627000Y-63113000D01*
X101627000Y-63133000D01*
%TA.AperFunction,Conductor*%
D26*
G36*
X101627000Y-63133000D02*
G01*
X101647000Y-63133000D01*
X101647000Y-63387000D01*
X101627000Y-63387000D01*
X101627000Y-63407000D01*
X101373000Y-63407000D01*
X101373000Y-63387000D01*
X101353000Y-63387000D01*
X101353000Y-63133000D01*
X101373000Y-63133000D01*
X101373000Y-63113000D01*
X101627000Y-63113000D01*
X101627000Y-63133000D01*
G37*
%TD.AperFunction*%
%TD*%
M02*
