%TF.GenerationSoftware,KiCad,Pcbnew,(5.1.8)-1*%
%TF.CreationDate,2021-07-02T09:49:45+03:00*%
%TF.ProjectId,Automation 101_Agriboard,4175746f-6d61-4746-996f-6e203130315f,rev?*%
%TF.SameCoordinates,Original*%
%TF.FileFunction,Soldermask,Top*%
%TF.FilePolarity,Negative*%
%FSLAX46Y46*%
G04 Gerber Fmt 4.6, Leading zero omitted, Abs format (unit mm)*
G04 Created by KiCad (PCBNEW (5.1.8)-1) date 2021-07-02 09:49:45*
%MOMM*%
%LPD*%
G01*
G04 APERTURE LIST*
%ADD10C,2.100000*%
%ADD11R,1.600000X1.600000*%
%ADD12C,1.600000*%
%ADD13C,2.500000*%
%ADD14R,1.380000X0.450000*%
%ADD15R,1.550000X1.425000*%
%ADD16R,1.300000X1.650000*%
%ADD17R,1.900000X1.800000*%
%ADD18R,1.900000X1.000000*%
%ADD19R,2.500000X2.500000*%
%ADD20R,3.500000X3.500000*%
%ADD21R,1.700000X1.700000*%
%ADD22O,1.700000X1.700000*%
%ADD23R,1.220000X0.650000*%
%ADD24O,1.200000X1.600000*%
%ADD25O,1.200000X1.200000*%
%ADD26R,0.900000X1.700000*%
%ADD27C,0.800000*%
%ADD28O,1.905000X2.000000*%
%ADD29R,1.905000X2.000000*%
%ADD30R,3.350000X3.350000*%
%ADD31R,5.000000X5.000000*%
%ADD32R,0.900000X2.000000*%
%ADD33R,2.000000X0.900000*%
%ADD34R,2.000000X3.800000*%
%ADD35R,2.000000X1.500000*%
G04 APERTURE END LIST*
D10*
%TO.C,REF\u002A\u002A*%
X59100000Y-82890000D03*
%TD*%
%TO.C,REF\u002A\u002A*%
X127890000Y-82910000D03*
%TD*%
%TO.C,REF\u002A\u002A*%
X84370000Y-67650000D03*
%TD*%
%TO.C,REF\u002A\u002A*%
X99980000Y-83330000D03*
%TD*%
%TO.C,C2*%
G36*
G01*
X133070000Y-40030000D02*
X133410000Y-40030000D01*
G75*
G02*
X133550000Y-40170000I0J-140000D01*
G01*
X133550000Y-40450000D01*
G75*
G02*
X133410000Y-40590000I-140000J0D01*
G01*
X133070000Y-40590000D01*
G75*
G02*
X132930000Y-40450000I0J140000D01*
G01*
X132930000Y-40170000D01*
G75*
G02*
X133070000Y-40030000I140000J0D01*
G01*
G37*
G36*
G01*
X133070000Y-40990000D02*
X133410000Y-40990000D01*
G75*
G02*
X133550000Y-41130000I0J-140000D01*
G01*
X133550000Y-41410000D01*
G75*
G02*
X133410000Y-41550000I-140000J0D01*
G01*
X133070000Y-41550000D01*
G75*
G02*
X132930000Y-41410000I0J140000D01*
G01*
X132930000Y-41130000D01*
G75*
G02*
X133070000Y-40990000I140000J0D01*
G01*
G37*
%TD*%
%TO.C,C3*%
G36*
G01*
X137410000Y-43920000D02*
X137410000Y-43580000D01*
G75*
G02*
X137550000Y-43440000I140000J0D01*
G01*
X137830000Y-43440000D01*
G75*
G02*
X137970000Y-43580000I0J-140000D01*
G01*
X137970000Y-43920000D01*
G75*
G02*
X137830000Y-44060000I-140000J0D01*
G01*
X137550000Y-44060000D01*
G75*
G02*
X137410000Y-43920000I0J140000D01*
G01*
G37*
G36*
G01*
X136450000Y-43920000D02*
X136450000Y-43580000D01*
G75*
G02*
X136590000Y-43440000I140000J0D01*
G01*
X136870000Y-43440000D01*
G75*
G02*
X137010000Y-43580000I0J-140000D01*
G01*
X137010000Y-43920000D01*
G75*
G02*
X136870000Y-44060000I-140000J0D01*
G01*
X136590000Y-44060000D01*
G75*
G02*
X136450000Y-43920000I0J140000D01*
G01*
G37*
%TD*%
%TO.C,C4*%
G36*
G01*
X136450000Y-42760000D02*
X136450000Y-42420000D01*
G75*
G02*
X136590000Y-42280000I140000J0D01*
G01*
X136870000Y-42280000D01*
G75*
G02*
X137010000Y-42420000I0J-140000D01*
G01*
X137010000Y-42760000D01*
G75*
G02*
X136870000Y-42900000I-140000J0D01*
G01*
X136590000Y-42900000D01*
G75*
G02*
X136450000Y-42760000I0J140000D01*
G01*
G37*
G36*
G01*
X137410000Y-42760000D02*
X137410000Y-42420000D01*
G75*
G02*
X137550000Y-42280000I140000J0D01*
G01*
X137830000Y-42280000D01*
G75*
G02*
X137970000Y-42420000I0J-140000D01*
G01*
X137970000Y-42760000D01*
G75*
G02*
X137830000Y-42900000I-140000J0D01*
G01*
X137550000Y-42900000D01*
G75*
G02*
X137410000Y-42760000I0J140000D01*
G01*
G37*
%TD*%
%TO.C,C5*%
G36*
G01*
X134780000Y-73750000D02*
X134780000Y-73410000D01*
G75*
G02*
X134920000Y-73270000I140000J0D01*
G01*
X135200000Y-73270000D01*
G75*
G02*
X135340000Y-73410000I0J-140000D01*
G01*
X135340000Y-73750000D01*
G75*
G02*
X135200000Y-73890000I-140000J0D01*
G01*
X134920000Y-73890000D01*
G75*
G02*
X134780000Y-73750000I0J140000D01*
G01*
G37*
G36*
G01*
X133820000Y-73750000D02*
X133820000Y-73410000D01*
G75*
G02*
X133960000Y-73270000I140000J0D01*
G01*
X134240000Y-73270000D01*
G75*
G02*
X134380000Y-73410000I0J-140000D01*
G01*
X134380000Y-73750000D01*
G75*
G02*
X134240000Y-73890000I-140000J0D01*
G01*
X133960000Y-73890000D01*
G75*
G02*
X133820000Y-73750000I0J140000D01*
G01*
G37*
%TD*%
%TO.C,C6*%
G36*
G01*
X134780000Y-74750000D02*
X134780000Y-74410000D01*
G75*
G02*
X134920000Y-74270000I140000J0D01*
G01*
X135200000Y-74270000D01*
G75*
G02*
X135340000Y-74410000I0J-140000D01*
G01*
X135340000Y-74750000D01*
G75*
G02*
X135200000Y-74890000I-140000J0D01*
G01*
X134920000Y-74890000D01*
G75*
G02*
X134780000Y-74750000I0J140000D01*
G01*
G37*
G36*
G01*
X133820000Y-74750000D02*
X133820000Y-74410000D01*
G75*
G02*
X133960000Y-74270000I140000J0D01*
G01*
X134240000Y-74270000D01*
G75*
G02*
X134380000Y-74410000I0J-140000D01*
G01*
X134380000Y-74750000D01*
G75*
G02*
X134240000Y-74890000I-140000J0D01*
G01*
X133960000Y-74890000D01*
G75*
G02*
X133820000Y-74750000I0J140000D01*
G01*
G37*
%TD*%
D11*
%TO.C,C7*%
X73860000Y-41120000D03*
D12*
X76360000Y-41120000D03*
%TD*%
%TO.C,C8*%
G36*
G01*
X137040000Y-72840000D02*
X137040000Y-72500000D01*
G75*
G02*
X137180000Y-72360000I140000J0D01*
G01*
X137460000Y-72360000D01*
G75*
G02*
X137600000Y-72500000I0J-140000D01*
G01*
X137600000Y-72840000D01*
G75*
G02*
X137460000Y-72980000I-140000J0D01*
G01*
X137180000Y-72980000D01*
G75*
G02*
X137040000Y-72840000I0J140000D01*
G01*
G37*
G36*
G01*
X136080000Y-72840000D02*
X136080000Y-72500000D01*
G75*
G02*
X136220000Y-72360000I140000J0D01*
G01*
X136500000Y-72360000D01*
G75*
G02*
X136640000Y-72500000I0J-140000D01*
G01*
X136640000Y-72840000D01*
G75*
G02*
X136500000Y-72980000I-140000J0D01*
G01*
X136220000Y-72980000D01*
G75*
G02*
X136080000Y-72840000I0J140000D01*
G01*
G37*
%TD*%
%TO.C,C9*%
G36*
G01*
X71695000Y-52224999D02*
X71695000Y-52775001D01*
G75*
G02*
X71445001Y-53025000I-249999J0D01*
G01*
X70694999Y-53025000D01*
G75*
G02*
X70445000Y-52775001I0J249999D01*
G01*
X70445000Y-52224999D01*
G75*
G02*
X70694999Y-51975000I249999J0D01*
G01*
X71445001Y-51975000D01*
G75*
G02*
X71695000Y-52224999I0J-249999D01*
G01*
G37*
G36*
G01*
X73295000Y-52224999D02*
X73295000Y-52775001D01*
G75*
G02*
X73045001Y-53025000I-249999J0D01*
G01*
X72294999Y-53025000D01*
G75*
G02*
X72045000Y-52775001I0J249999D01*
G01*
X72045000Y-52224999D01*
G75*
G02*
X72294999Y-51975000I249999J0D01*
G01*
X73045001Y-51975000D01*
G75*
G02*
X73295000Y-52224999I0J-249999D01*
G01*
G37*
%TD*%
%TO.C,C10*%
G36*
G01*
X136080000Y-71830000D02*
X136080000Y-71490000D01*
G75*
G02*
X136220000Y-71350000I140000J0D01*
G01*
X136500000Y-71350000D01*
G75*
G02*
X136640000Y-71490000I0J-140000D01*
G01*
X136640000Y-71830000D01*
G75*
G02*
X136500000Y-71970000I-140000J0D01*
G01*
X136220000Y-71970000D01*
G75*
G02*
X136080000Y-71830000I0J140000D01*
G01*
G37*
G36*
G01*
X137040000Y-71830000D02*
X137040000Y-71490000D01*
G75*
G02*
X137180000Y-71350000I140000J0D01*
G01*
X137460000Y-71350000D01*
G75*
G02*
X137600000Y-71490000I0J-140000D01*
G01*
X137600000Y-71830000D01*
G75*
G02*
X137460000Y-71970000I-140000J0D01*
G01*
X137180000Y-71970000D01*
G75*
G02*
X137040000Y-71830000I0J140000D01*
G01*
G37*
%TD*%
%TO.C,C11*%
G36*
G01*
X136460000Y-41730000D02*
X136460000Y-41390000D01*
G75*
G02*
X136600000Y-41250000I140000J0D01*
G01*
X136880000Y-41250000D01*
G75*
G02*
X137020000Y-41390000I0J-140000D01*
G01*
X137020000Y-41730000D01*
G75*
G02*
X136880000Y-41870000I-140000J0D01*
G01*
X136600000Y-41870000D01*
G75*
G02*
X136460000Y-41730000I0J140000D01*
G01*
G37*
G36*
G01*
X137420000Y-41730000D02*
X137420000Y-41390000D01*
G75*
G02*
X137560000Y-41250000I140000J0D01*
G01*
X137840000Y-41250000D01*
G75*
G02*
X137980000Y-41390000I0J-140000D01*
G01*
X137980000Y-41730000D01*
G75*
G02*
X137840000Y-41870000I-140000J0D01*
G01*
X137560000Y-41870000D01*
G75*
G02*
X137420000Y-41730000I0J140000D01*
G01*
G37*
%TD*%
%TO.C,C12*%
G36*
G01*
X72930000Y-53830000D02*
X72930000Y-54170000D01*
G75*
G02*
X72790000Y-54310000I-140000J0D01*
G01*
X72510000Y-54310000D01*
G75*
G02*
X72370000Y-54170000I0J140000D01*
G01*
X72370000Y-53830000D01*
G75*
G02*
X72510000Y-53690000I140000J0D01*
G01*
X72790000Y-53690000D01*
G75*
G02*
X72930000Y-53830000I0J-140000D01*
G01*
G37*
G36*
G01*
X71970000Y-53830000D02*
X71970000Y-54170000D01*
G75*
G02*
X71830000Y-54310000I-140000J0D01*
G01*
X71550000Y-54310000D01*
G75*
G02*
X71410000Y-54170000I0J140000D01*
G01*
X71410000Y-53830000D01*
G75*
G02*
X71550000Y-53690000I140000J0D01*
G01*
X71830000Y-53690000D01*
G75*
G02*
X71970000Y-53830000I0J-140000D01*
G01*
G37*
%TD*%
%TO.C,C13*%
X79760000Y-40920000D03*
D11*
X82260000Y-40920000D03*
%TD*%
%TO.C,C14*%
G36*
G01*
X72345001Y-50225000D02*
X71794999Y-50225000D01*
G75*
G02*
X71545000Y-49975001I0J249999D01*
G01*
X71545000Y-49224999D01*
G75*
G02*
X71794999Y-48975000I249999J0D01*
G01*
X72345001Y-48975000D01*
G75*
G02*
X72595000Y-49224999I0J-249999D01*
G01*
X72595000Y-49975001D01*
G75*
G02*
X72345001Y-50225000I-249999J0D01*
G01*
G37*
G36*
G01*
X72345001Y-48625000D02*
X71794999Y-48625000D01*
G75*
G02*
X71545000Y-48375001I0J249999D01*
G01*
X71545000Y-47624999D01*
G75*
G02*
X71794999Y-47375000I249999J0D01*
G01*
X72345001Y-47375000D01*
G75*
G02*
X72595000Y-47624999I0J-249999D01*
G01*
X72595000Y-48375001D01*
G75*
G02*
X72345001Y-48625000I-249999J0D01*
G01*
G37*
%TD*%
%TO.C,C15*%
G36*
G01*
X70640000Y-49420000D02*
X70300000Y-49420000D01*
G75*
G02*
X70160000Y-49280000I0J140000D01*
G01*
X70160000Y-49000000D01*
G75*
G02*
X70300000Y-48860000I140000J0D01*
G01*
X70640000Y-48860000D01*
G75*
G02*
X70780000Y-49000000I0J-140000D01*
G01*
X70780000Y-49280000D01*
G75*
G02*
X70640000Y-49420000I-140000J0D01*
G01*
G37*
G36*
G01*
X70640000Y-50380000D02*
X70300000Y-50380000D01*
G75*
G02*
X70160000Y-50240000I0J140000D01*
G01*
X70160000Y-49960000D01*
G75*
G02*
X70300000Y-49820000I140000J0D01*
G01*
X70640000Y-49820000D01*
G75*
G02*
X70780000Y-49960000I0J-140000D01*
G01*
X70780000Y-50240000D01*
G75*
G02*
X70640000Y-50380000I-140000J0D01*
G01*
G37*
%TD*%
%TO.C,C16*%
X85860000Y-41120000D03*
D12*
X88360000Y-41120000D03*
%TD*%
%TO.C,C17*%
X92260000Y-41120000D03*
D11*
X94760000Y-41120000D03*
%TD*%
%TO.C,D1*%
G36*
G01*
X87010000Y-50217500D02*
X87010000Y-50562500D01*
G75*
G02*
X86862500Y-50710000I-147500J0D01*
G01*
X86567500Y-50710000D01*
G75*
G02*
X86420000Y-50562500I0J147500D01*
G01*
X86420000Y-50217500D01*
G75*
G02*
X86567500Y-50070000I147500J0D01*
G01*
X86862500Y-50070000D01*
G75*
G02*
X87010000Y-50217500I0J-147500D01*
G01*
G37*
G36*
G01*
X87980000Y-50217500D02*
X87980000Y-50562500D01*
G75*
G02*
X87832500Y-50710000I-147500J0D01*
G01*
X87537500Y-50710000D01*
G75*
G02*
X87390000Y-50562500I0J147500D01*
G01*
X87390000Y-50217500D01*
G75*
G02*
X87537500Y-50070000I147500J0D01*
G01*
X87832500Y-50070000D01*
G75*
G02*
X87980000Y-50217500I0J-147500D01*
G01*
G37*
%TD*%
%TO.C,D2*%
G36*
G01*
X115430000Y-58702500D02*
X115430000Y-58357500D01*
G75*
G02*
X115577500Y-58210000I147500J0D01*
G01*
X115872500Y-58210000D01*
G75*
G02*
X116020000Y-58357500I0J-147500D01*
G01*
X116020000Y-58702500D01*
G75*
G02*
X115872500Y-58850000I-147500J0D01*
G01*
X115577500Y-58850000D01*
G75*
G02*
X115430000Y-58702500I0J147500D01*
G01*
G37*
G36*
G01*
X116400000Y-58702500D02*
X116400000Y-58357500D01*
G75*
G02*
X116547500Y-58210000I147500J0D01*
G01*
X116842500Y-58210000D01*
G75*
G02*
X116990000Y-58357500I0J-147500D01*
G01*
X116990000Y-58702500D01*
G75*
G02*
X116842500Y-58850000I-147500J0D01*
G01*
X116547500Y-58850000D01*
G75*
G02*
X116400000Y-58702500I0J147500D01*
G01*
G37*
%TD*%
%TO.C,D3*%
G36*
G01*
X137615000Y-83020000D02*
X137615000Y-82820000D01*
G75*
G02*
X137715000Y-82720000I100000J0D01*
G01*
X138150000Y-82720000D01*
G75*
G02*
X138250000Y-82820000I0J-100000D01*
G01*
X138250000Y-83020000D01*
G75*
G02*
X138150000Y-83120000I-100000J0D01*
G01*
X137715000Y-83120000D01*
G75*
G02*
X137615000Y-83020000I0J100000D01*
G01*
G37*
G36*
G01*
X138430000Y-83020000D02*
X138430000Y-82820000D01*
G75*
G02*
X138530000Y-82720000I100000J0D01*
G01*
X138965000Y-82720000D01*
G75*
G02*
X139065000Y-82820000I0J-100000D01*
G01*
X139065000Y-83020000D01*
G75*
G02*
X138965000Y-83120000I-100000J0D01*
G01*
X138530000Y-83120000D01*
G75*
G02*
X138430000Y-83020000I0J100000D01*
G01*
G37*
%TD*%
%TO.C,D4*%
G36*
G01*
X94725000Y-56739999D02*
X94725000Y-57640001D01*
G75*
G02*
X94475001Y-57890000I-249999J0D01*
G01*
X93824999Y-57890000D01*
G75*
G02*
X93575000Y-57640001I0J249999D01*
G01*
X93575000Y-56739999D01*
G75*
G02*
X93824999Y-56490000I249999J0D01*
G01*
X94475001Y-56490000D01*
G75*
G02*
X94725000Y-56739999I0J-249999D01*
G01*
G37*
G36*
G01*
X92675000Y-56739999D02*
X92675000Y-57640001D01*
G75*
G02*
X92425001Y-57890000I-249999J0D01*
G01*
X91774999Y-57890000D01*
G75*
G02*
X91525000Y-57640001I0J249999D01*
G01*
X91525000Y-56739999D01*
G75*
G02*
X91774999Y-56490000I249999J0D01*
G01*
X92425001Y-56490000D01*
G75*
G02*
X92675000Y-56739999I0J-249999D01*
G01*
G37*
%TD*%
D13*
%TO.C,H1*%
X127740000Y-101320000D03*
%TD*%
%TO.C,H2*%
X102840000Y-101110000D03*
%TD*%
%TO.C,H5*%
X69710000Y-44370000D03*
%TD*%
%TO.C,H6*%
X142700000Y-33860000D03*
%TD*%
%TO.C,H7*%
X60180000Y-101580000D03*
%TD*%
%TO.C,H8*%
X142770000Y-102140000D03*
%TD*%
D14*
%TO.C,J1*%
X141590000Y-81970000D03*
X141590000Y-81320000D03*
X141590000Y-80670000D03*
X141590000Y-80020000D03*
X141590000Y-79370000D03*
D15*
X141675000Y-83157500D03*
X141675000Y-78182500D03*
D16*
X144250000Y-84045000D03*
X144250000Y-77295000D03*
D17*
X144250000Y-81820000D03*
D18*
X144250000Y-79120000D03*
%TD*%
D13*
%TO.C,J2*%
X61470000Y-52900000D03*
D19*
X61470000Y-47900000D03*
%TD*%
D20*
%TO.C,J3*%
X67760000Y-36520000D03*
G36*
G01*
X60260000Y-37520000D02*
X60260000Y-35520000D01*
G75*
G02*
X61010000Y-34770000I750000J0D01*
G01*
X62510000Y-34770000D01*
G75*
G02*
X63260000Y-35520000I0J-750000D01*
G01*
X63260000Y-37520000D01*
G75*
G02*
X62510000Y-38270000I-750000J0D01*
G01*
X61010000Y-38270000D01*
G75*
G02*
X60260000Y-37520000I0J750000D01*
G01*
G37*
G36*
G01*
X63010000Y-42095000D02*
X63010000Y-40345000D01*
G75*
G02*
X63885000Y-39470000I875000J0D01*
G01*
X65635000Y-39470000D01*
G75*
G02*
X66510000Y-40345000I0J-875000D01*
G01*
X66510000Y-42095000D01*
G75*
G02*
X65635000Y-42970000I-875000J0D01*
G01*
X63885000Y-42970000D01*
G75*
G02*
X63010000Y-42095000I0J875000D01*
G01*
G37*
%TD*%
D21*
%TO.C,J4*%
X126300000Y-36650000D03*
D22*
X123760000Y-36650000D03*
X121220000Y-36650000D03*
X118680000Y-36650000D03*
%TD*%
D19*
%TO.C,J5*%
X61970000Y-76200000D03*
D13*
X61970000Y-71200000D03*
%TD*%
D22*
%TO.C,J6*%
X103620000Y-36610000D03*
X106160000Y-36610000D03*
X108700000Y-36610000D03*
D21*
X111240000Y-36610000D03*
%TD*%
%TO.C,J7*%
X112830000Y-88560000D03*
D22*
X115370000Y-88560000D03*
X117910000Y-88560000D03*
%TD*%
D21*
%TO.C,J8*%
X109810000Y-83690000D03*
D22*
X112350000Y-83690000D03*
X114890000Y-83690000D03*
X117430000Y-83690000D03*
X119970000Y-83690000D03*
X122510000Y-83690000D03*
%TD*%
D21*
%TO.C,J9*%
X83760000Y-60740000D03*
D22*
X86300000Y-60740000D03*
X88840000Y-60740000D03*
X91380000Y-60740000D03*
X93920000Y-60740000D03*
X96460000Y-60740000D03*
X99000000Y-60740000D03*
X101540000Y-60740000D03*
%TD*%
D21*
%TO.C,J10*%
X84580000Y-76810000D03*
%TD*%
%TO.C,J11*%
X84500000Y-71790000D03*
%TD*%
%TO.C,J12*%
X101500000Y-65860000D03*
%TD*%
%TO.C,J13*%
X101500000Y-63260000D03*
%TD*%
D19*
%TO.C,J14*%
X61470000Y-60000000D03*
D13*
X61470000Y-65000000D03*
%TD*%
D23*
%TO.C,Q1*%
X127560000Y-70250000D03*
X124940000Y-71200000D03*
X124940000Y-69300000D03*
%TD*%
%TO.C,Q2*%
X124810000Y-74250000D03*
X124810000Y-76150000D03*
X127430000Y-75200000D03*
%TD*%
D24*
%TO.C,Q3*%
X119290000Y-77060000D03*
D25*
X120560000Y-75790000D03*
X119290000Y-74520000D03*
%TD*%
D24*
%TO.C,Q4*%
X112290000Y-77100000D03*
D25*
X113560000Y-75830000D03*
X112290000Y-74560000D03*
%TD*%
%TO.C,Q5*%
X109820000Y-66510000D03*
X111090000Y-67780000D03*
D24*
X109820000Y-69050000D03*
%TD*%
%TO.C,R1*%
G36*
G01*
X133907500Y-41390000D02*
X133907500Y-41070000D01*
G75*
G02*
X134067500Y-40910000I160000J0D01*
G01*
X134462500Y-40910000D01*
G75*
G02*
X134622500Y-41070000I0J-160000D01*
G01*
X134622500Y-41390000D01*
G75*
G02*
X134462500Y-41550000I-160000J0D01*
G01*
X134067500Y-41550000D01*
G75*
G02*
X133907500Y-41390000I0J160000D01*
G01*
G37*
G36*
G01*
X135102500Y-41390000D02*
X135102500Y-41070000D01*
G75*
G02*
X135262500Y-40910000I160000J0D01*
G01*
X135657500Y-40910000D01*
G75*
G02*
X135817500Y-41070000I0J-160000D01*
G01*
X135817500Y-41390000D01*
G75*
G02*
X135657500Y-41550000I-160000J0D01*
G01*
X135262500Y-41550000D01*
G75*
G02*
X135102500Y-41390000I0J160000D01*
G01*
G37*
%TD*%
%TO.C,R2*%
G36*
G01*
X135800000Y-42345000D02*
X135800000Y-42715000D01*
G75*
G02*
X135665000Y-42850000I-135000J0D01*
G01*
X135395000Y-42850000D01*
G75*
G02*
X135260000Y-42715000I0J135000D01*
G01*
X135260000Y-42345000D01*
G75*
G02*
X135395000Y-42210000I135000J0D01*
G01*
X135665000Y-42210000D01*
G75*
G02*
X135800000Y-42345000I0J-135000D01*
G01*
G37*
G36*
G01*
X134780000Y-42345000D02*
X134780000Y-42715000D01*
G75*
G02*
X134645000Y-42850000I-135000J0D01*
G01*
X134375000Y-42850000D01*
G75*
G02*
X134240000Y-42715000I0J135000D01*
G01*
X134240000Y-42345000D01*
G75*
G02*
X134375000Y-42210000I135000J0D01*
G01*
X134645000Y-42210000D01*
G75*
G02*
X134780000Y-42345000I0J-135000D01*
G01*
G37*
%TD*%
%TO.C,R3*%
G36*
G01*
X87430000Y-48975000D02*
X87430000Y-48605000D01*
G75*
G02*
X87565000Y-48470000I135000J0D01*
G01*
X87835000Y-48470000D01*
G75*
G02*
X87970000Y-48605000I0J-135000D01*
G01*
X87970000Y-48975000D01*
G75*
G02*
X87835000Y-49110000I-135000J0D01*
G01*
X87565000Y-49110000D01*
G75*
G02*
X87430000Y-48975000I0J135000D01*
G01*
G37*
G36*
G01*
X86410000Y-48975000D02*
X86410000Y-48605000D01*
G75*
G02*
X86545000Y-48470000I135000J0D01*
G01*
X86815000Y-48470000D01*
G75*
G02*
X86950000Y-48605000I0J-135000D01*
G01*
X86950000Y-48975000D01*
G75*
G02*
X86815000Y-49110000I-135000J0D01*
G01*
X86545000Y-49110000D01*
G75*
G02*
X86410000Y-48975000I0J135000D01*
G01*
G37*
%TD*%
%TO.C,R4*%
G36*
G01*
X114160000Y-58765000D02*
X114160000Y-58395000D01*
G75*
G02*
X114295000Y-58260000I135000J0D01*
G01*
X114565000Y-58260000D01*
G75*
G02*
X114700000Y-58395000I0J-135000D01*
G01*
X114700000Y-58765000D01*
G75*
G02*
X114565000Y-58900000I-135000J0D01*
G01*
X114295000Y-58900000D01*
G75*
G02*
X114160000Y-58765000I0J135000D01*
G01*
G37*
G36*
G01*
X113140000Y-58765000D02*
X113140000Y-58395000D01*
G75*
G02*
X113275000Y-58260000I135000J0D01*
G01*
X113545000Y-58260000D01*
G75*
G02*
X113680000Y-58395000I0J-135000D01*
G01*
X113680000Y-58765000D01*
G75*
G02*
X113545000Y-58900000I-135000J0D01*
G01*
X113275000Y-58900000D01*
G75*
G02*
X113140000Y-58765000I0J135000D01*
G01*
G37*
%TD*%
%TO.C,R5*%
G36*
G01*
X125817500Y-72640000D02*
X125817500Y-72320000D01*
G75*
G02*
X125977500Y-72160000I160000J0D01*
G01*
X126372500Y-72160000D01*
G75*
G02*
X126532500Y-72320000I0J-160000D01*
G01*
X126532500Y-72640000D01*
G75*
G02*
X126372500Y-72800000I-160000J0D01*
G01*
X125977500Y-72800000D01*
G75*
G02*
X125817500Y-72640000I0J160000D01*
G01*
G37*
G36*
G01*
X124622500Y-72640000D02*
X124622500Y-72320000D01*
G75*
G02*
X124782500Y-72160000I160000J0D01*
G01*
X125177500Y-72160000D01*
G75*
G02*
X125337500Y-72320000I0J-160000D01*
G01*
X125337500Y-72640000D01*
G75*
G02*
X125177500Y-72800000I-160000J0D01*
G01*
X124782500Y-72800000D01*
G75*
G02*
X124622500Y-72640000I0J160000D01*
G01*
G37*
%TD*%
%TO.C,R6*%
G36*
G01*
X125897500Y-77350000D02*
X125897500Y-77670000D01*
G75*
G02*
X125737500Y-77830000I-160000J0D01*
G01*
X125342500Y-77830000D01*
G75*
G02*
X125182500Y-77670000I0J160000D01*
G01*
X125182500Y-77350000D01*
G75*
G02*
X125342500Y-77190000I160000J0D01*
G01*
X125737500Y-77190000D01*
G75*
G02*
X125897500Y-77350000I0J-160000D01*
G01*
G37*
G36*
G01*
X124702500Y-77350000D02*
X124702500Y-77670000D01*
G75*
G02*
X124542500Y-77830000I-160000J0D01*
G01*
X124147500Y-77830000D01*
G75*
G02*
X123987500Y-77670000I0J160000D01*
G01*
X123987500Y-77350000D01*
G75*
G02*
X124147500Y-77190000I160000J0D01*
G01*
X124542500Y-77190000D01*
G75*
G02*
X124702500Y-77350000I0J-160000D01*
G01*
G37*
%TD*%
%TO.C,R7*%
G36*
G01*
X120775000Y-71310000D02*
X120405000Y-71310000D01*
G75*
G02*
X120270000Y-71175000I0J135000D01*
G01*
X120270000Y-70905000D01*
G75*
G02*
X120405000Y-70770000I135000J0D01*
G01*
X120775000Y-70770000D01*
G75*
G02*
X120910000Y-70905000I0J-135000D01*
G01*
X120910000Y-71175000D01*
G75*
G02*
X120775000Y-71310000I-135000J0D01*
G01*
G37*
G36*
G01*
X120775000Y-72330000D02*
X120405000Y-72330000D01*
G75*
G02*
X120270000Y-72195000I0J135000D01*
G01*
X120270000Y-71925000D01*
G75*
G02*
X120405000Y-71790000I135000J0D01*
G01*
X120775000Y-71790000D01*
G75*
G02*
X120910000Y-71925000I0J-135000D01*
G01*
X120910000Y-72195000D01*
G75*
G02*
X120775000Y-72330000I-135000J0D01*
G01*
G37*
%TD*%
%TO.C,R8*%
G36*
G01*
X117920000Y-71945000D02*
X117920000Y-71575000D01*
G75*
G02*
X118055000Y-71440000I135000J0D01*
G01*
X118325000Y-71440000D01*
G75*
G02*
X118460000Y-71575000I0J-135000D01*
G01*
X118460000Y-71945000D01*
G75*
G02*
X118325000Y-72080000I-135000J0D01*
G01*
X118055000Y-72080000D01*
G75*
G02*
X117920000Y-71945000I0J135000D01*
G01*
G37*
G36*
G01*
X118940000Y-71945000D02*
X118940000Y-71575000D01*
G75*
G02*
X119075000Y-71440000I135000J0D01*
G01*
X119345000Y-71440000D01*
G75*
G02*
X119480000Y-71575000I0J-135000D01*
G01*
X119480000Y-71945000D01*
G75*
G02*
X119345000Y-72080000I-135000J0D01*
G01*
X119075000Y-72080000D01*
G75*
G02*
X118940000Y-71945000I0J135000D01*
G01*
G37*
%TD*%
%TO.C,R9*%
G36*
G01*
X113875000Y-71130000D02*
X113505000Y-71130000D01*
G75*
G02*
X113370000Y-70995000I0J135000D01*
G01*
X113370000Y-70725000D01*
G75*
G02*
X113505000Y-70590000I135000J0D01*
G01*
X113875000Y-70590000D01*
G75*
G02*
X114010000Y-70725000I0J-135000D01*
G01*
X114010000Y-70995000D01*
G75*
G02*
X113875000Y-71130000I-135000J0D01*
G01*
G37*
G36*
G01*
X113875000Y-72150000D02*
X113505000Y-72150000D01*
G75*
G02*
X113370000Y-72015000I0J135000D01*
G01*
X113370000Y-71745000D01*
G75*
G02*
X113505000Y-71610000I135000J0D01*
G01*
X113875000Y-71610000D01*
G75*
G02*
X114010000Y-71745000I0J-135000D01*
G01*
X114010000Y-72015000D01*
G75*
G02*
X113875000Y-72150000I-135000J0D01*
G01*
G37*
%TD*%
%TO.C,R10*%
G36*
G01*
X111100000Y-72045000D02*
X111100000Y-71675000D01*
G75*
G02*
X111235000Y-71540000I135000J0D01*
G01*
X111505000Y-71540000D01*
G75*
G02*
X111640000Y-71675000I0J-135000D01*
G01*
X111640000Y-72045000D01*
G75*
G02*
X111505000Y-72180000I-135000J0D01*
G01*
X111235000Y-72180000D01*
G75*
G02*
X111100000Y-72045000I0J135000D01*
G01*
G37*
G36*
G01*
X112120000Y-72045000D02*
X112120000Y-71675000D01*
G75*
G02*
X112255000Y-71540000I135000J0D01*
G01*
X112525000Y-71540000D01*
G75*
G02*
X112660000Y-71675000I0J-135000D01*
G01*
X112660000Y-72045000D01*
G75*
G02*
X112525000Y-72180000I-135000J0D01*
G01*
X112255000Y-72180000D01*
G75*
G02*
X112120000Y-72045000I0J135000D01*
G01*
G37*
%TD*%
%TO.C,R11*%
G36*
G01*
X113625000Y-68060000D02*
X113255000Y-68060000D01*
G75*
G02*
X113120000Y-67925000I0J135000D01*
G01*
X113120000Y-67655000D01*
G75*
G02*
X113255000Y-67520000I135000J0D01*
G01*
X113625000Y-67520000D01*
G75*
G02*
X113760000Y-67655000I0J-135000D01*
G01*
X113760000Y-67925000D01*
G75*
G02*
X113625000Y-68060000I-135000J0D01*
G01*
G37*
G36*
G01*
X113625000Y-67040000D02*
X113255000Y-67040000D01*
G75*
G02*
X113120000Y-66905000I0J135000D01*
G01*
X113120000Y-66635000D01*
G75*
G02*
X113255000Y-66500000I135000J0D01*
G01*
X113625000Y-66500000D01*
G75*
G02*
X113760000Y-66635000I0J-135000D01*
G01*
X113760000Y-66905000D01*
G75*
G02*
X113625000Y-67040000I-135000J0D01*
G01*
G37*
%TD*%
%TO.C,R12*%
G36*
G01*
X131260000Y-82000001D02*
X131260000Y-81099999D01*
G75*
G02*
X131509999Y-80850000I249999J0D01*
G01*
X132210001Y-80850000D01*
G75*
G02*
X132460000Y-81099999I0J-249999D01*
G01*
X132460000Y-82000001D01*
G75*
G02*
X132210001Y-82250000I-249999J0D01*
G01*
X131509999Y-82250000D01*
G75*
G02*
X131260000Y-82000001I0J249999D01*
G01*
G37*
G36*
G01*
X133260000Y-82000001D02*
X133260000Y-81099999D01*
G75*
G02*
X133509999Y-80850000I249999J0D01*
G01*
X134210001Y-80850000D01*
G75*
G02*
X134460000Y-81099999I0J-249999D01*
G01*
X134460000Y-82000001D01*
G75*
G02*
X134210001Y-82250000I-249999J0D01*
G01*
X133509999Y-82250000D01*
G75*
G02*
X133260000Y-82000001I0J249999D01*
G01*
G37*
%TD*%
D12*
%TO.C,R13*%
X128720000Y-90710000D03*
X136920000Y-90710000D03*
%TD*%
%TO.C,R14*%
G36*
G01*
X104010000Y-72145000D02*
X104010000Y-71775000D01*
G75*
G02*
X104145000Y-71640000I135000J0D01*
G01*
X104415000Y-71640000D01*
G75*
G02*
X104550000Y-71775000I0J-135000D01*
G01*
X104550000Y-72145000D01*
G75*
G02*
X104415000Y-72280000I-135000J0D01*
G01*
X104145000Y-72280000D01*
G75*
G02*
X104010000Y-72145000I0J135000D01*
G01*
G37*
G36*
G01*
X105030000Y-72145000D02*
X105030000Y-71775000D01*
G75*
G02*
X105165000Y-71640000I135000J0D01*
G01*
X105435000Y-71640000D01*
G75*
G02*
X105570000Y-71775000I0J-135000D01*
G01*
X105570000Y-72145000D01*
G75*
G02*
X105435000Y-72280000I-135000J0D01*
G01*
X105165000Y-72280000D01*
G75*
G02*
X105030000Y-72145000I0J135000D01*
G01*
G37*
%TD*%
%TO.C,R15*%
G36*
G01*
X85750000Y-57810001D02*
X85750000Y-56909999D01*
G75*
G02*
X85999999Y-56660000I249999J0D01*
G01*
X86700001Y-56660000D01*
G75*
G02*
X86950000Y-56909999I0J-249999D01*
G01*
X86950000Y-57810001D01*
G75*
G02*
X86700001Y-58060000I-249999J0D01*
G01*
X85999999Y-58060000D01*
G75*
G02*
X85750000Y-57810001I0J249999D01*
G01*
G37*
G36*
G01*
X83750000Y-57810001D02*
X83750000Y-56909999D01*
G75*
G02*
X83999999Y-56660000I249999J0D01*
G01*
X84700001Y-56660000D01*
G75*
G02*
X84950000Y-56909999I0J-249999D01*
G01*
X84950000Y-57810001D01*
G75*
G02*
X84700001Y-58060000I-249999J0D01*
G01*
X83999999Y-58060000D01*
G75*
G02*
X83750000Y-57810001I0J249999D01*
G01*
G37*
%TD*%
%TO.C,R16*%
G36*
G01*
X87590000Y-57780001D02*
X87590000Y-56879999D01*
G75*
G02*
X87839999Y-56630000I249999J0D01*
G01*
X88540001Y-56630000D01*
G75*
G02*
X88790000Y-56879999I0J-249999D01*
G01*
X88790000Y-57780001D01*
G75*
G02*
X88540001Y-58030000I-249999J0D01*
G01*
X87839999Y-58030000D01*
G75*
G02*
X87590000Y-57780001I0J249999D01*
G01*
G37*
G36*
G01*
X89590000Y-57780001D02*
X89590000Y-56879999D01*
G75*
G02*
X89839999Y-56630000I249999J0D01*
G01*
X90540001Y-56630000D01*
G75*
G02*
X90790000Y-56879999I0J-249999D01*
G01*
X90790000Y-57780001D01*
G75*
G02*
X90540001Y-58030000I-249999J0D01*
G01*
X89839999Y-58030000D01*
G75*
G02*
X89590000Y-57780001I0J249999D01*
G01*
G37*
%TD*%
D26*
%TO.C,SW2*%
X143620000Y-37840000D03*
X140220000Y-37840000D03*
D27*
X141920000Y-37840000D03*
%TD*%
%TO.C,SW3*%
X142990000Y-70760000D03*
D26*
X144690000Y-70760000D03*
X141290000Y-70760000D03*
%TD*%
D28*
%TO.C,U1*%
X79940000Y-35520000D03*
X77400000Y-35520000D03*
D29*
X74860000Y-35520000D03*
%TD*%
%TO.C,U2*%
G36*
G01*
X131342500Y-72810000D02*
X131217500Y-72810000D01*
G75*
G02*
X131155000Y-72747500I0J62500D01*
G01*
X131155000Y-72072500D01*
G75*
G02*
X131217500Y-72010000I62500J0D01*
G01*
X131342500Y-72010000D01*
G75*
G02*
X131405000Y-72072500I0J-62500D01*
G01*
X131405000Y-72747500D01*
G75*
G02*
X131342500Y-72810000I-62500J0D01*
G01*
G37*
G36*
G01*
X131842500Y-72810000D02*
X131717500Y-72810000D01*
G75*
G02*
X131655000Y-72747500I0J62500D01*
G01*
X131655000Y-72072500D01*
G75*
G02*
X131717500Y-72010000I62500J0D01*
G01*
X131842500Y-72010000D01*
G75*
G02*
X131905000Y-72072500I0J-62500D01*
G01*
X131905000Y-72747500D01*
G75*
G02*
X131842500Y-72810000I-62500J0D01*
G01*
G37*
G36*
G01*
X132342500Y-72810000D02*
X132217500Y-72810000D01*
G75*
G02*
X132155000Y-72747500I0J62500D01*
G01*
X132155000Y-72072500D01*
G75*
G02*
X132217500Y-72010000I62500J0D01*
G01*
X132342500Y-72010000D01*
G75*
G02*
X132405000Y-72072500I0J-62500D01*
G01*
X132405000Y-72747500D01*
G75*
G02*
X132342500Y-72810000I-62500J0D01*
G01*
G37*
G36*
G01*
X132842500Y-72810000D02*
X132717500Y-72810000D01*
G75*
G02*
X132655000Y-72747500I0J62500D01*
G01*
X132655000Y-72072500D01*
G75*
G02*
X132717500Y-72010000I62500J0D01*
G01*
X132842500Y-72010000D01*
G75*
G02*
X132905000Y-72072500I0J-62500D01*
G01*
X132905000Y-72747500D01*
G75*
G02*
X132842500Y-72810000I-62500J0D01*
G01*
G37*
G36*
G01*
X133342500Y-72810000D02*
X133217500Y-72810000D01*
G75*
G02*
X133155000Y-72747500I0J62500D01*
G01*
X133155000Y-72072500D01*
G75*
G02*
X133217500Y-72010000I62500J0D01*
G01*
X133342500Y-72010000D01*
G75*
G02*
X133405000Y-72072500I0J-62500D01*
G01*
X133405000Y-72747500D01*
G75*
G02*
X133342500Y-72810000I-62500J0D01*
G01*
G37*
G36*
G01*
X133842500Y-72810000D02*
X133717500Y-72810000D01*
G75*
G02*
X133655000Y-72747500I0J62500D01*
G01*
X133655000Y-72072500D01*
G75*
G02*
X133717500Y-72010000I62500J0D01*
G01*
X133842500Y-72010000D01*
G75*
G02*
X133905000Y-72072500I0J-62500D01*
G01*
X133905000Y-72747500D01*
G75*
G02*
X133842500Y-72810000I-62500J0D01*
G01*
G37*
G36*
G01*
X134342500Y-72810000D02*
X134217500Y-72810000D01*
G75*
G02*
X134155000Y-72747500I0J62500D01*
G01*
X134155000Y-72072500D01*
G75*
G02*
X134217500Y-72010000I62500J0D01*
G01*
X134342500Y-72010000D01*
G75*
G02*
X134405000Y-72072500I0J-62500D01*
G01*
X134405000Y-72747500D01*
G75*
G02*
X134342500Y-72810000I-62500J0D01*
G01*
G37*
G36*
G01*
X135567500Y-71585000D02*
X134892500Y-71585000D01*
G75*
G02*
X134830000Y-71522500I0J62500D01*
G01*
X134830000Y-71397500D01*
G75*
G02*
X134892500Y-71335000I62500J0D01*
G01*
X135567500Y-71335000D01*
G75*
G02*
X135630000Y-71397500I0J-62500D01*
G01*
X135630000Y-71522500D01*
G75*
G02*
X135567500Y-71585000I-62500J0D01*
G01*
G37*
G36*
G01*
X135567500Y-71085000D02*
X134892500Y-71085000D01*
G75*
G02*
X134830000Y-71022500I0J62500D01*
G01*
X134830000Y-70897500D01*
G75*
G02*
X134892500Y-70835000I62500J0D01*
G01*
X135567500Y-70835000D01*
G75*
G02*
X135630000Y-70897500I0J-62500D01*
G01*
X135630000Y-71022500D01*
G75*
G02*
X135567500Y-71085000I-62500J0D01*
G01*
G37*
G36*
G01*
X135567500Y-70585000D02*
X134892500Y-70585000D01*
G75*
G02*
X134830000Y-70522500I0J62500D01*
G01*
X134830000Y-70397500D01*
G75*
G02*
X134892500Y-70335000I62500J0D01*
G01*
X135567500Y-70335000D01*
G75*
G02*
X135630000Y-70397500I0J-62500D01*
G01*
X135630000Y-70522500D01*
G75*
G02*
X135567500Y-70585000I-62500J0D01*
G01*
G37*
G36*
G01*
X135567500Y-70085000D02*
X134892500Y-70085000D01*
G75*
G02*
X134830000Y-70022500I0J62500D01*
G01*
X134830000Y-69897500D01*
G75*
G02*
X134892500Y-69835000I62500J0D01*
G01*
X135567500Y-69835000D01*
G75*
G02*
X135630000Y-69897500I0J-62500D01*
G01*
X135630000Y-70022500D01*
G75*
G02*
X135567500Y-70085000I-62500J0D01*
G01*
G37*
G36*
G01*
X135567500Y-69585000D02*
X134892500Y-69585000D01*
G75*
G02*
X134830000Y-69522500I0J62500D01*
G01*
X134830000Y-69397500D01*
G75*
G02*
X134892500Y-69335000I62500J0D01*
G01*
X135567500Y-69335000D01*
G75*
G02*
X135630000Y-69397500I0J-62500D01*
G01*
X135630000Y-69522500D01*
G75*
G02*
X135567500Y-69585000I-62500J0D01*
G01*
G37*
G36*
G01*
X135567500Y-69085000D02*
X134892500Y-69085000D01*
G75*
G02*
X134830000Y-69022500I0J62500D01*
G01*
X134830000Y-68897500D01*
G75*
G02*
X134892500Y-68835000I62500J0D01*
G01*
X135567500Y-68835000D01*
G75*
G02*
X135630000Y-68897500I0J-62500D01*
G01*
X135630000Y-69022500D01*
G75*
G02*
X135567500Y-69085000I-62500J0D01*
G01*
G37*
G36*
G01*
X135567500Y-68585000D02*
X134892500Y-68585000D01*
G75*
G02*
X134830000Y-68522500I0J62500D01*
G01*
X134830000Y-68397500D01*
G75*
G02*
X134892500Y-68335000I62500J0D01*
G01*
X135567500Y-68335000D01*
G75*
G02*
X135630000Y-68397500I0J-62500D01*
G01*
X135630000Y-68522500D01*
G75*
G02*
X135567500Y-68585000I-62500J0D01*
G01*
G37*
G36*
G01*
X134342500Y-67910000D02*
X134217500Y-67910000D01*
G75*
G02*
X134155000Y-67847500I0J62500D01*
G01*
X134155000Y-67172500D01*
G75*
G02*
X134217500Y-67110000I62500J0D01*
G01*
X134342500Y-67110000D01*
G75*
G02*
X134405000Y-67172500I0J-62500D01*
G01*
X134405000Y-67847500D01*
G75*
G02*
X134342500Y-67910000I-62500J0D01*
G01*
G37*
G36*
G01*
X133842500Y-67910000D02*
X133717500Y-67910000D01*
G75*
G02*
X133655000Y-67847500I0J62500D01*
G01*
X133655000Y-67172500D01*
G75*
G02*
X133717500Y-67110000I62500J0D01*
G01*
X133842500Y-67110000D01*
G75*
G02*
X133905000Y-67172500I0J-62500D01*
G01*
X133905000Y-67847500D01*
G75*
G02*
X133842500Y-67910000I-62500J0D01*
G01*
G37*
G36*
G01*
X133342500Y-67910000D02*
X133217500Y-67910000D01*
G75*
G02*
X133155000Y-67847500I0J62500D01*
G01*
X133155000Y-67172500D01*
G75*
G02*
X133217500Y-67110000I62500J0D01*
G01*
X133342500Y-67110000D01*
G75*
G02*
X133405000Y-67172500I0J-62500D01*
G01*
X133405000Y-67847500D01*
G75*
G02*
X133342500Y-67910000I-62500J0D01*
G01*
G37*
G36*
G01*
X132842500Y-67910000D02*
X132717500Y-67910000D01*
G75*
G02*
X132655000Y-67847500I0J62500D01*
G01*
X132655000Y-67172500D01*
G75*
G02*
X132717500Y-67110000I62500J0D01*
G01*
X132842500Y-67110000D01*
G75*
G02*
X132905000Y-67172500I0J-62500D01*
G01*
X132905000Y-67847500D01*
G75*
G02*
X132842500Y-67910000I-62500J0D01*
G01*
G37*
G36*
G01*
X132342500Y-67910000D02*
X132217500Y-67910000D01*
G75*
G02*
X132155000Y-67847500I0J62500D01*
G01*
X132155000Y-67172500D01*
G75*
G02*
X132217500Y-67110000I62500J0D01*
G01*
X132342500Y-67110000D01*
G75*
G02*
X132405000Y-67172500I0J-62500D01*
G01*
X132405000Y-67847500D01*
G75*
G02*
X132342500Y-67910000I-62500J0D01*
G01*
G37*
G36*
G01*
X131842500Y-67910000D02*
X131717500Y-67910000D01*
G75*
G02*
X131655000Y-67847500I0J62500D01*
G01*
X131655000Y-67172500D01*
G75*
G02*
X131717500Y-67110000I62500J0D01*
G01*
X131842500Y-67110000D01*
G75*
G02*
X131905000Y-67172500I0J-62500D01*
G01*
X131905000Y-67847500D01*
G75*
G02*
X131842500Y-67910000I-62500J0D01*
G01*
G37*
G36*
G01*
X131342500Y-67910000D02*
X131217500Y-67910000D01*
G75*
G02*
X131155000Y-67847500I0J62500D01*
G01*
X131155000Y-67172500D01*
G75*
G02*
X131217500Y-67110000I62500J0D01*
G01*
X131342500Y-67110000D01*
G75*
G02*
X131405000Y-67172500I0J-62500D01*
G01*
X131405000Y-67847500D01*
G75*
G02*
X131342500Y-67910000I-62500J0D01*
G01*
G37*
G36*
G01*
X130667500Y-68585000D02*
X129992500Y-68585000D01*
G75*
G02*
X129930000Y-68522500I0J62500D01*
G01*
X129930000Y-68397500D01*
G75*
G02*
X129992500Y-68335000I62500J0D01*
G01*
X130667500Y-68335000D01*
G75*
G02*
X130730000Y-68397500I0J-62500D01*
G01*
X130730000Y-68522500D01*
G75*
G02*
X130667500Y-68585000I-62500J0D01*
G01*
G37*
G36*
G01*
X130667500Y-69085000D02*
X129992500Y-69085000D01*
G75*
G02*
X129930000Y-69022500I0J62500D01*
G01*
X129930000Y-68897500D01*
G75*
G02*
X129992500Y-68835000I62500J0D01*
G01*
X130667500Y-68835000D01*
G75*
G02*
X130730000Y-68897500I0J-62500D01*
G01*
X130730000Y-69022500D01*
G75*
G02*
X130667500Y-69085000I-62500J0D01*
G01*
G37*
G36*
G01*
X130667500Y-69585000D02*
X129992500Y-69585000D01*
G75*
G02*
X129930000Y-69522500I0J62500D01*
G01*
X129930000Y-69397500D01*
G75*
G02*
X129992500Y-69335000I62500J0D01*
G01*
X130667500Y-69335000D01*
G75*
G02*
X130730000Y-69397500I0J-62500D01*
G01*
X130730000Y-69522500D01*
G75*
G02*
X130667500Y-69585000I-62500J0D01*
G01*
G37*
G36*
G01*
X130667500Y-70085000D02*
X129992500Y-70085000D01*
G75*
G02*
X129930000Y-70022500I0J62500D01*
G01*
X129930000Y-69897500D01*
G75*
G02*
X129992500Y-69835000I62500J0D01*
G01*
X130667500Y-69835000D01*
G75*
G02*
X130730000Y-69897500I0J-62500D01*
G01*
X130730000Y-70022500D01*
G75*
G02*
X130667500Y-70085000I-62500J0D01*
G01*
G37*
G36*
G01*
X130667500Y-70585000D02*
X129992500Y-70585000D01*
G75*
G02*
X129930000Y-70522500I0J62500D01*
G01*
X129930000Y-70397500D01*
G75*
G02*
X129992500Y-70335000I62500J0D01*
G01*
X130667500Y-70335000D01*
G75*
G02*
X130730000Y-70397500I0J-62500D01*
G01*
X130730000Y-70522500D01*
G75*
G02*
X130667500Y-70585000I-62500J0D01*
G01*
G37*
G36*
G01*
X130667500Y-71085000D02*
X129992500Y-71085000D01*
G75*
G02*
X129930000Y-71022500I0J62500D01*
G01*
X129930000Y-70897500D01*
G75*
G02*
X129992500Y-70835000I62500J0D01*
G01*
X130667500Y-70835000D01*
G75*
G02*
X130730000Y-70897500I0J-62500D01*
G01*
X130730000Y-71022500D01*
G75*
G02*
X130667500Y-71085000I-62500J0D01*
G01*
G37*
G36*
G01*
X130667500Y-71585000D02*
X129992500Y-71585000D01*
G75*
G02*
X129930000Y-71522500I0J62500D01*
G01*
X129930000Y-71397500D01*
G75*
G02*
X129992500Y-71335000I62500J0D01*
G01*
X130667500Y-71335000D01*
G75*
G02*
X130730000Y-71397500I0J-62500D01*
G01*
X130730000Y-71522500D01*
G75*
G02*
X130667500Y-71585000I-62500J0D01*
G01*
G37*
D30*
X132780000Y-69960000D03*
%TD*%
D31*
%TO.C,U3*%
X130185000Y-53060000D03*
D32*
X137685000Y-45560000D03*
X136415000Y-45560000D03*
X135145000Y-45560000D03*
X133875000Y-45560000D03*
X132605000Y-45560000D03*
X131335000Y-45560000D03*
X130065000Y-45560000D03*
X128795000Y-45560000D03*
X127525000Y-45560000D03*
X126255000Y-45560000D03*
X124985000Y-45560000D03*
X123715000Y-45560000D03*
X122445000Y-45560000D03*
X121175000Y-45560000D03*
D33*
X120175000Y-48345000D03*
X120175000Y-49615000D03*
X120175000Y-50885000D03*
X120175000Y-52155000D03*
X120175000Y-53425000D03*
X120175000Y-54695000D03*
X120175000Y-55965000D03*
X120175000Y-57235000D03*
X120175000Y-58505000D03*
X120175000Y-59775000D03*
D32*
X121175000Y-62560000D03*
X122445000Y-62560000D03*
X123715000Y-62560000D03*
X124985000Y-62560000D03*
X126255000Y-62560000D03*
X127525000Y-62560000D03*
X128795000Y-62560000D03*
X130065000Y-62560000D03*
X131335000Y-62560000D03*
X132605000Y-62560000D03*
X133875000Y-62560000D03*
X135145000Y-62560000D03*
X136415000Y-62560000D03*
X137685000Y-62560000D03*
%TD*%
D34*
%TO.C,U4*%
X81220000Y-49900000D03*
D35*
X74920000Y-49900000D03*
X74920000Y-52200000D03*
X74920000Y-47600000D03*
%TD*%
D29*
%TO.C,U5*%
X87160000Y-35520000D03*
D28*
X89700000Y-35520000D03*
X92240000Y-35520000D03*
%TD*%
%TO.C,U6*%
G36*
G01*
X75030000Y-66905000D02*
X75030000Y-67205000D01*
G75*
G02*
X74880000Y-67355000I-150000J0D01*
G01*
X73230000Y-67355000D01*
G75*
G02*
X73080000Y-67205000I0J150000D01*
G01*
X73080000Y-66905000D01*
G75*
G02*
X73230000Y-66755000I150000J0D01*
G01*
X74880000Y-66755000D01*
G75*
G02*
X75030000Y-66905000I0J-150000D01*
G01*
G37*
G36*
G01*
X75030000Y-65635000D02*
X75030000Y-65935000D01*
G75*
G02*
X74880000Y-66085000I-150000J0D01*
G01*
X73230000Y-66085000D01*
G75*
G02*
X73080000Y-65935000I0J150000D01*
G01*
X73080000Y-65635000D01*
G75*
G02*
X73230000Y-65485000I150000J0D01*
G01*
X74880000Y-65485000D01*
G75*
G02*
X75030000Y-65635000I0J-150000D01*
G01*
G37*
G36*
G01*
X75030000Y-64365000D02*
X75030000Y-64665000D01*
G75*
G02*
X74880000Y-64815000I-150000J0D01*
G01*
X73230000Y-64815000D01*
G75*
G02*
X73080000Y-64665000I0J150000D01*
G01*
X73080000Y-64365000D01*
G75*
G02*
X73230000Y-64215000I150000J0D01*
G01*
X74880000Y-64215000D01*
G75*
G02*
X75030000Y-64365000I0J-150000D01*
G01*
G37*
G36*
G01*
X75030000Y-63095000D02*
X75030000Y-63395000D01*
G75*
G02*
X74880000Y-63545000I-150000J0D01*
G01*
X73230000Y-63545000D01*
G75*
G02*
X73080000Y-63395000I0J150000D01*
G01*
X73080000Y-63095000D01*
G75*
G02*
X73230000Y-62945000I150000J0D01*
G01*
X74880000Y-62945000D01*
G75*
G02*
X75030000Y-63095000I0J-150000D01*
G01*
G37*
G36*
G01*
X70080000Y-63095000D02*
X70080000Y-63395000D01*
G75*
G02*
X69930000Y-63545000I-150000J0D01*
G01*
X68280000Y-63545000D01*
G75*
G02*
X68130000Y-63395000I0J150000D01*
G01*
X68130000Y-63095000D01*
G75*
G02*
X68280000Y-62945000I150000J0D01*
G01*
X69930000Y-62945000D01*
G75*
G02*
X70080000Y-63095000I0J-150000D01*
G01*
G37*
G36*
G01*
X70080000Y-64365000D02*
X70080000Y-64665000D01*
G75*
G02*
X69930000Y-64815000I-150000J0D01*
G01*
X68280000Y-64815000D01*
G75*
G02*
X68130000Y-64665000I0J150000D01*
G01*
X68130000Y-64365000D01*
G75*
G02*
X68280000Y-64215000I150000J0D01*
G01*
X69930000Y-64215000D01*
G75*
G02*
X70080000Y-64365000I0J-150000D01*
G01*
G37*
G36*
G01*
X70080000Y-65635000D02*
X70080000Y-65935000D01*
G75*
G02*
X69930000Y-66085000I-150000J0D01*
G01*
X68280000Y-66085000D01*
G75*
G02*
X68130000Y-65935000I0J150000D01*
G01*
X68130000Y-65635000D01*
G75*
G02*
X68280000Y-65485000I150000J0D01*
G01*
X69930000Y-65485000D01*
G75*
G02*
X70080000Y-65635000I0J-150000D01*
G01*
G37*
G36*
G01*
X70080000Y-66905000D02*
X70080000Y-67205000D01*
G75*
G02*
X69930000Y-67355000I-150000J0D01*
G01*
X68280000Y-67355000D01*
G75*
G02*
X68130000Y-67205000I0J150000D01*
G01*
X68130000Y-66905000D01*
G75*
G02*
X68280000Y-66755000I150000J0D01*
G01*
X69930000Y-66755000D01*
G75*
G02*
X70080000Y-66905000I0J-150000D01*
G01*
G37*
%TD*%
%TO.C,C18*%
G36*
G01*
X68215000Y-69585000D02*
X68215000Y-68635000D01*
G75*
G02*
X68465000Y-68385000I250000J0D01*
G01*
X69140000Y-68385000D01*
G75*
G02*
X69390000Y-68635000I0J-250000D01*
G01*
X69390000Y-69585000D01*
G75*
G02*
X69140000Y-69835000I-250000J0D01*
G01*
X68465000Y-69835000D01*
G75*
G02*
X68215000Y-69585000I0J250000D01*
G01*
G37*
G36*
G01*
X70290000Y-69585000D02*
X70290000Y-68635000D01*
G75*
G02*
X70540000Y-68385000I250000J0D01*
G01*
X71215000Y-68385000D01*
G75*
G02*
X71465000Y-68635000I0J-250000D01*
G01*
X71465000Y-69585000D01*
G75*
G02*
X71215000Y-69835000I-250000J0D01*
G01*
X70540000Y-69835000D01*
G75*
G02*
X70290000Y-69585000I0J250000D01*
G01*
G37*
%TD*%
M02*
