%TF.GenerationSoftware,KiCad,Pcbnew,(5.1.8)-1*%
%TF.CreationDate,2021-07-02T09:49:44+03:00*%
%TF.ProjectId,Automation 101_Agriboard,4175746f-6d61-4746-996f-6e203130315f,rev?*%
%TF.SameCoordinates,Original*%
%TF.FileFunction,Legend,Top*%
%TF.FilePolarity,Positive*%
%FSLAX46Y46*%
G04 Gerber Fmt 4.6, Leading zero omitted, Abs format (unit mm)*
G04 Created by KiCad (PCBNEW (5.1.8)-1) date 2021-07-02 09:49:44*
%MOMM*%
%LPD*%
G01*
G04 APERTURE LIST*
%ADD10C,0.200000*%
%ADD11C,0.150000*%
%ADD12C,0.010000*%
%ADD13C,0.120000*%
%ADD14C,0.100000*%
G04 APERTURE END LIST*
D10*
X88534761Y-48919523D02*
X88534761Y-44919523D01*
X89868095Y-47776666D01*
X91201428Y-44919523D01*
X91201428Y-48919523D01*
X92915714Y-47776666D02*
X94820476Y-47776666D01*
X92534761Y-48919523D02*
X93868095Y-44919523D01*
X95201428Y-48919523D01*
X98820476Y-48538571D02*
X98630000Y-48729047D01*
X98058571Y-48919523D01*
X97677619Y-48919523D01*
X97106190Y-48729047D01*
X96725238Y-48348095D01*
X96534761Y-47967142D01*
X96344285Y-47205238D01*
X96344285Y-46633809D01*
X96534761Y-45871904D01*
X96725238Y-45490952D01*
X97106190Y-45110000D01*
X97677619Y-44919523D01*
X98058571Y-44919523D01*
X98630000Y-45110000D01*
X98820476Y-45300476D01*
X100534761Y-48919523D02*
X100534761Y-44919523D01*
X100534761Y-46824285D02*
X102820476Y-46824285D01*
X102820476Y-48919523D02*
X102820476Y-44919523D01*
X104534761Y-47776666D02*
X106439523Y-47776666D01*
X104153809Y-48919523D02*
X105487142Y-44919523D01*
X106820476Y-48919523D01*
X108153809Y-48919523D02*
X108153809Y-44919523D01*
X109106190Y-44919523D01*
X109677619Y-45110000D01*
X110058571Y-45490952D01*
X110249047Y-45871904D01*
X110439523Y-46633809D01*
X110439523Y-47205238D01*
X110249047Y-47967142D01*
X110058571Y-48348095D01*
X109677619Y-48729047D01*
X109106190Y-48919523D01*
X108153809Y-48919523D01*
X111963333Y-47776666D02*
X113868095Y-47776666D01*
X111582380Y-48919523D02*
X112915714Y-44919523D01*
X114249047Y-48919523D01*
X86915714Y-53976666D02*
X88820476Y-53976666D01*
X86534761Y-55119523D02*
X87868095Y-51119523D01*
X89201428Y-55119523D01*
X92630000Y-51310000D02*
X92249047Y-51119523D01*
X91677619Y-51119523D01*
X91106190Y-51310000D01*
X90725238Y-51690952D01*
X90534761Y-52071904D01*
X90344285Y-52833809D01*
X90344285Y-53405238D01*
X90534761Y-54167142D01*
X90725238Y-54548095D01*
X91106190Y-54929047D01*
X91677619Y-55119523D01*
X92058571Y-55119523D01*
X92630000Y-54929047D01*
X92820476Y-54738571D01*
X92820476Y-53405238D01*
X92058571Y-53405238D01*
X96820476Y-55119523D02*
X95487142Y-53214761D01*
X94534761Y-55119523D02*
X94534761Y-51119523D01*
X96058571Y-51119523D01*
X96439523Y-51310000D01*
X96630000Y-51500476D01*
X96820476Y-51881428D01*
X96820476Y-52452857D01*
X96630000Y-52833809D01*
X96439523Y-53024285D01*
X96058571Y-53214761D01*
X94534761Y-53214761D01*
X98534761Y-55119523D02*
X98534761Y-51119523D01*
X101772857Y-53024285D02*
X102344285Y-53214761D01*
X102534761Y-53405238D01*
X102725238Y-53786190D01*
X102725238Y-54357619D01*
X102534761Y-54738571D01*
X102344285Y-54929047D01*
X101963333Y-55119523D01*
X100439523Y-55119523D01*
X100439523Y-51119523D01*
X101772857Y-51119523D01*
X102153809Y-51310000D01*
X102344285Y-51500476D01*
X102534761Y-51881428D01*
X102534761Y-52262380D01*
X102344285Y-52643333D01*
X102153809Y-52833809D01*
X101772857Y-53024285D01*
X100439523Y-53024285D01*
X105201428Y-51119523D02*
X105963333Y-51119523D01*
X106344285Y-51310000D01*
X106725238Y-51690952D01*
X106915714Y-52452857D01*
X106915714Y-53786190D01*
X106725238Y-54548095D01*
X106344285Y-54929047D01*
X105963333Y-55119523D01*
X105201428Y-55119523D01*
X104820476Y-54929047D01*
X104439523Y-54548095D01*
X104249047Y-53786190D01*
X104249047Y-52452857D01*
X104439523Y-51690952D01*
X104820476Y-51310000D01*
X105201428Y-51119523D01*
X108439523Y-53976666D02*
X110344285Y-53976666D01*
X108058571Y-55119523D02*
X109391904Y-51119523D01*
X110725238Y-55119523D01*
X114344285Y-55119523D02*
X113010952Y-53214761D01*
X112058571Y-55119523D02*
X112058571Y-51119523D01*
X113582380Y-51119523D01*
X113963333Y-51310000D01*
X114153809Y-51500476D01*
X114344285Y-51881428D01*
X114344285Y-52452857D01*
X114153809Y-52833809D01*
X113963333Y-53024285D01*
X113582380Y-53214761D01*
X112058571Y-53214761D01*
X116058571Y-55119523D02*
X116058571Y-51119523D01*
X117010952Y-51119523D01*
X117582380Y-51310000D01*
X117963333Y-51690952D01*
X118153809Y-52071904D01*
X118344285Y-52833809D01*
X118344285Y-53405238D01*
X118153809Y-54167142D01*
X117963333Y-54548095D01*
X117582380Y-54929047D01*
X117010952Y-55119523D01*
X116058571Y-55119523D01*
D11*
X111158095Y-81462380D02*
X110824761Y-80986190D01*
X110586666Y-81462380D02*
X110586666Y-80462380D01*
X110967619Y-80462380D01*
X111062857Y-80510000D01*
X111110476Y-80557619D01*
X111158095Y-80652857D01*
X111158095Y-80795714D01*
X111110476Y-80890952D01*
X111062857Y-80938571D01*
X110967619Y-80986190D01*
X110586666Y-80986190D01*
X111586666Y-80938571D02*
X111920000Y-80938571D01*
X112062857Y-81462380D02*
X111586666Y-81462380D01*
X111586666Y-80462380D01*
X112062857Y-80462380D01*
X112967619Y-81462380D02*
X112491428Y-81462380D01*
X112491428Y-80462380D01*
X113253333Y-81176666D02*
X113729523Y-81176666D01*
X113158095Y-81462380D02*
X113491428Y-80462380D01*
X113824761Y-81462380D01*
X114348571Y-80986190D02*
X114348571Y-81462380D01*
X114015238Y-80462380D02*
X114348571Y-80986190D01*
X114681904Y-80462380D01*
X115777142Y-81462380D02*
X115777142Y-80462380D01*
X116110476Y-81176666D01*
X116443809Y-80462380D01*
X116443809Y-81462380D01*
X117110476Y-80462380D02*
X117300952Y-80462380D01*
X117396190Y-80510000D01*
X117491428Y-80605238D01*
X117539047Y-80795714D01*
X117539047Y-81129047D01*
X117491428Y-81319523D01*
X117396190Y-81414761D01*
X117300952Y-81462380D01*
X117110476Y-81462380D01*
X117015238Y-81414761D01*
X116920000Y-81319523D01*
X116872380Y-81129047D01*
X116872380Y-80795714D01*
X116920000Y-80605238D01*
X117015238Y-80510000D01*
X117110476Y-80462380D01*
X117967619Y-81462380D02*
X117967619Y-80462380D01*
X118205714Y-80462380D01*
X118348571Y-80510000D01*
X118443809Y-80605238D01*
X118491428Y-80700476D01*
X118539047Y-80890952D01*
X118539047Y-81033809D01*
X118491428Y-81224285D01*
X118443809Y-81319523D01*
X118348571Y-81414761D01*
X118205714Y-81462380D01*
X117967619Y-81462380D01*
X118967619Y-80462380D02*
X118967619Y-81271904D01*
X119015238Y-81367142D01*
X119062857Y-81414761D01*
X119158095Y-81462380D01*
X119348571Y-81462380D01*
X119443809Y-81414761D01*
X119491428Y-81367142D01*
X119539047Y-81271904D01*
X119539047Y-80462380D01*
X120491428Y-81462380D02*
X120015238Y-81462380D01*
X120015238Y-80462380D01*
X120824761Y-80938571D02*
X121158095Y-80938571D01*
X121300952Y-81462380D02*
X120824761Y-81462380D01*
X120824761Y-80462380D01*
X121300952Y-80462380D01*
X108592857Y-101062380D02*
X108592857Y-100062380D01*
X108973809Y-100062380D01*
X109069047Y-100110000D01*
X109116666Y-100157619D01*
X109164285Y-100252857D01*
X109164285Y-100395714D01*
X109116666Y-100490952D01*
X109069047Y-100538571D01*
X108973809Y-100586190D01*
X108592857Y-100586190D01*
X109592857Y-101062380D02*
X109592857Y-100062380D01*
X109592857Y-100538571D02*
X110164285Y-100538571D01*
X110164285Y-101062380D02*
X110164285Y-100062380D01*
X110402380Y-101157619D02*
X111164285Y-101157619D01*
X111402380Y-101062380D02*
X111402380Y-100062380D01*
X111735714Y-100776666D01*
X112069047Y-100062380D01*
X112069047Y-101062380D01*
X112545238Y-100538571D02*
X112878571Y-100538571D01*
X113021428Y-101062380D02*
X112545238Y-101062380D01*
X112545238Y-100062380D01*
X113021428Y-100062380D01*
X113307142Y-100062380D02*
X113878571Y-100062380D01*
X113592857Y-101062380D02*
X113592857Y-100062380D01*
X114211904Y-100538571D02*
X114545238Y-100538571D01*
X114688095Y-101062380D02*
X114211904Y-101062380D01*
X114211904Y-100062380D01*
X114688095Y-100062380D01*
X115688095Y-101062380D02*
X115354761Y-100586190D01*
X115116666Y-101062380D02*
X115116666Y-100062380D01*
X115497619Y-100062380D01*
X115592857Y-100110000D01*
X115640476Y-100157619D01*
X115688095Y-100252857D01*
X115688095Y-100395714D01*
X115640476Y-100490952D01*
X115592857Y-100538571D01*
X115497619Y-100586190D01*
X115116666Y-100586190D01*
X115878571Y-101157619D02*
X116640476Y-101157619D01*
X116830952Y-101014761D02*
X116973809Y-101062380D01*
X117211904Y-101062380D01*
X117307142Y-101014761D01*
X117354761Y-100967142D01*
X117402380Y-100871904D01*
X117402380Y-100776666D01*
X117354761Y-100681428D01*
X117307142Y-100633809D01*
X117211904Y-100586190D01*
X117021428Y-100538571D01*
X116926190Y-100490952D01*
X116878571Y-100443333D01*
X116830952Y-100348095D01*
X116830952Y-100252857D01*
X116878571Y-100157619D01*
X116926190Y-100110000D01*
X117021428Y-100062380D01*
X117259523Y-100062380D01*
X117402380Y-100110000D01*
X117830952Y-100538571D02*
X118164285Y-100538571D01*
X118307142Y-101062380D02*
X117830952Y-101062380D01*
X117830952Y-100062380D01*
X118307142Y-100062380D01*
X118735714Y-101062380D02*
X118735714Y-100062380D01*
X119307142Y-101062380D01*
X119307142Y-100062380D01*
X119735714Y-101014761D02*
X119878571Y-101062380D01*
X120116666Y-101062380D01*
X120211904Y-101014761D01*
X120259523Y-100967142D01*
X120307142Y-100871904D01*
X120307142Y-100776666D01*
X120259523Y-100681428D01*
X120211904Y-100633809D01*
X120116666Y-100586190D01*
X119926190Y-100538571D01*
X119830952Y-100490952D01*
X119783333Y-100443333D01*
X119735714Y-100348095D01*
X119735714Y-100252857D01*
X119783333Y-100157619D01*
X119830952Y-100110000D01*
X119926190Y-100062380D01*
X120164285Y-100062380D01*
X120307142Y-100110000D01*
X120926190Y-100062380D02*
X121116666Y-100062380D01*
X121211904Y-100110000D01*
X121307142Y-100205238D01*
X121354761Y-100395714D01*
X121354761Y-100729047D01*
X121307142Y-100919523D01*
X121211904Y-101014761D01*
X121116666Y-101062380D01*
X120926190Y-101062380D01*
X120830952Y-101014761D01*
X120735714Y-100919523D01*
X120688095Y-100729047D01*
X120688095Y-100395714D01*
X120735714Y-100205238D01*
X120830952Y-100110000D01*
X120926190Y-100062380D01*
X122354761Y-101062380D02*
X122021428Y-100586190D01*
X121783333Y-101062380D02*
X121783333Y-100062380D01*
X122164285Y-100062380D01*
X122259523Y-100110000D01*
X122307142Y-100157619D01*
X122354761Y-100252857D01*
X122354761Y-100395714D01*
X122307142Y-100490952D01*
X122259523Y-100538571D01*
X122164285Y-100586190D01*
X121783333Y-100586190D01*
X102127619Y-39942380D02*
X102127619Y-38942380D01*
X102365714Y-38942380D01*
X102508571Y-38990000D01*
X102603809Y-39085238D01*
X102651428Y-39180476D01*
X102699047Y-39370952D01*
X102699047Y-39513809D01*
X102651428Y-39704285D01*
X102603809Y-39799523D01*
X102508571Y-39894761D01*
X102365714Y-39942380D01*
X102127619Y-39942380D01*
X103127619Y-39942380D02*
X103127619Y-38942380D01*
X103127619Y-39418571D02*
X103699047Y-39418571D01*
X103699047Y-39942380D02*
X103699047Y-38942380D01*
X104032380Y-38942380D02*
X104603809Y-38942380D01*
X104318095Y-39942380D02*
X104318095Y-38942380D01*
X104889523Y-39037619D02*
X104937142Y-38990000D01*
X105032380Y-38942380D01*
X105270476Y-38942380D01*
X105365714Y-38990000D01*
X105413333Y-39037619D01*
X105460952Y-39132857D01*
X105460952Y-39228095D01*
X105413333Y-39370952D01*
X104841904Y-39942380D01*
X105460952Y-39942380D01*
X105841904Y-39037619D02*
X105889523Y-38990000D01*
X105984761Y-38942380D01*
X106222857Y-38942380D01*
X106318095Y-38990000D01*
X106365714Y-39037619D01*
X106413333Y-39132857D01*
X106413333Y-39228095D01*
X106365714Y-39370952D01*
X105794285Y-39942380D01*
X106413333Y-39942380D01*
X107556190Y-39894761D02*
X107699047Y-39942380D01*
X107937142Y-39942380D01*
X108032380Y-39894761D01*
X108080000Y-39847142D01*
X108127619Y-39751904D01*
X108127619Y-39656666D01*
X108080000Y-39561428D01*
X108032380Y-39513809D01*
X107937142Y-39466190D01*
X107746666Y-39418571D01*
X107651428Y-39370952D01*
X107603809Y-39323333D01*
X107556190Y-39228095D01*
X107556190Y-39132857D01*
X107603809Y-39037619D01*
X107651428Y-38990000D01*
X107746666Y-38942380D01*
X107984761Y-38942380D01*
X108127619Y-38990000D01*
X108556190Y-39418571D02*
X108889523Y-39418571D01*
X109032380Y-39942380D02*
X108556190Y-39942380D01*
X108556190Y-38942380D01*
X109032380Y-38942380D01*
X109460952Y-39942380D02*
X109460952Y-38942380D01*
X110032380Y-39942380D01*
X110032380Y-38942380D01*
X110460952Y-39894761D02*
X110603809Y-39942380D01*
X110841904Y-39942380D01*
X110937142Y-39894761D01*
X110984761Y-39847142D01*
X111032380Y-39751904D01*
X111032380Y-39656666D01*
X110984761Y-39561428D01*
X110937142Y-39513809D01*
X110841904Y-39466190D01*
X110651428Y-39418571D01*
X110556190Y-39370952D01*
X110508571Y-39323333D01*
X110460952Y-39228095D01*
X110460952Y-39132857D01*
X110508571Y-39037619D01*
X110556190Y-38990000D01*
X110651428Y-38942380D01*
X110889523Y-38942380D01*
X111032380Y-38990000D01*
X111651428Y-38942380D02*
X111841904Y-38942380D01*
X111937142Y-38990000D01*
X112032380Y-39085238D01*
X112080000Y-39275714D01*
X112080000Y-39609047D01*
X112032380Y-39799523D01*
X111937142Y-39894761D01*
X111841904Y-39942380D01*
X111651428Y-39942380D01*
X111556190Y-39894761D01*
X111460952Y-39799523D01*
X111413333Y-39609047D01*
X111413333Y-39275714D01*
X111460952Y-39085238D01*
X111556190Y-38990000D01*
X111651428Y-38942380D01*
X113080000Y-39942380D02*
X112746666Y-39466190D01*
X112508571Y-39942380D02*
X112508571Y-38942380D01*
X112889523Y-38942380D01*
X112984761Y-38990000D01*
X113032380Y-39037619D01*
X113080000Y-39132857D01*
X113080000Y-39275714D01*
X113032380Y-39370952D01*
X112984761Y-39418571D01*
X112889523Y-39466190D01*
X112508571Y-39466190D01*
X114594761Y-39102380D02*
X114594761Y-39911904D01*
X114642380Y-40007142D01*
X114690000Y-40054761D01*
X114785238Y-40102380D01*
X114975714Y-40102380D01*
X115070952Y-40054761D01*
X115118571Y-40007142D01*
X115166190Y-39911904D01*
X115166190Y-39102380D01*
X116118571Y-40102380D02*
X115642380Y-40102380D01*
X115642380Y-39102380D01*
X116309047Y-39102380D02*
X116880476Y-39102380D01*
X116594761Y-40102380D02*
X116594761Y-39102380D01*
X117785238Y-40102380D02*
X117451904Y-39626190D01*
X117213809Y-40102380D02*
X117213809Y-39102380D01*
X117594761Y-39102380D01*
X117690000Y-39150000D01*
X117737619Y-39197619D01*
X117785238Y-39292857D01*
X117785238Y-39435714D01*
X117737619Y-39530952D01*
X117690000Y-39578571D01*
X117594761Y-39626190D01*
X117213809Y-39626190D01*
X118166190Y-39816666D02*
X118642380Y-39816666D01*
X118070952Y-40102380D02*
X118404285Y-39102380D01*
X118737619Y-40102380D01*
X119023333Y-40054761D02*
X119166190Y-40102380D01*
X119404285Y-40102380D01*
X119499523Y-40054761D01*
X119547142Y-40007142D01*
X119594761Y-39911904D01*
X119594761Y-39816666D01*
X119547142Y-39721428D01*
X119499523Y-39673809D01*
X119404285Y-39626190D01*
X119213809Y-39578571D01*
X119118571Y-39530952D01*
X119070952Y-39483333D01*
X119023333Y-39388095D01*
X119023333Y-39292857D01*
X119070952Y-39197619D01*
X119118571Y-39150000D01*
X119213809Y-39102380D01*
X119451904Y-39102380D01*
X119594761Y-39150000D01*
X120213809Y-39102380D02*
X120404285Y-39102380D01*
X120499523Y-39150000D01*
X120594761Y-39245238D01*
X120642380Y-39435714D01*
X120642380Y-39769047D01*
X120594761Y-39959523D01*
X120499523Y-40054761D01*
X120404285Y-40102380D01*
X120213809Y-40102380D01*
X120118571Y-40054761D01*
X120023333Y-39959523D01*
X119975714Y-39769047D01*
X119975714Y-39435714D01*
X120023333Y-39245238D01*
X120118571Y-39150000D01*
X120213809Y-39102380D01*
X121070952Y-40102380D02*
X121070952Y-39102380D01*
X121642380Y-40102380D01*
X121642380Y-39102380D01*
X122118571Y-40102380D02*
X122118571Y-39102380D01*
X123166190Y-40007142D02*
X123118571Y-40054761D01*
X122975714Y-40102380D01*
X122880476Y-40102380D01*
X122737619Y-40054761D01*
X122642380Y-39959523D01*
X122594761Y-39864285D01*
X122547142Y-39673809D01*
X122547142Y-39530952D01*
X122594761Y-39340476D01*
X122642380Y-39245238D01*
X122737619Y-39150000D01*
X122880476Y-39102380D01*
X122975714Y-39102380D01*
X123118571Y-39150000D01*
X123166190Y-39197619D01*
X123356666Y-40197619D02*
X124118571Y-40197619D01*
X124309047Y-40054761D02*
X124451904Y-40102380D01*
X124690000Y-40102380D01*
X124785238Y-40054761D01*
X124832857Y-40007142D01*
X124880476Y-39911904D01*
X124880476Y-39816666D01*
X124832857Y-39721428D01*
X124785238Y-39673809D01*
X124690000Y-39626190D01*
X124499523Y-39578571D01*
X124404285Y-39530952D01*
X124356666Y-39483333D01*
X124309047Y-39388095D01*
X124309047Y-39292857D01*
X124356666Y-39197619D01*
X124404285Y-39150000D01*
X124499523Y-39102380D01*
X124737619Y-39102380D01*
X124880476Y-39150000D01*
X125309047Y-39578571D02*
X125642380Y-39578571D01*
X125785238Y-40102380D02*
X125309047Y-40102380D01*
X125309047Y-39102380D01*
X125785238Y-39102380D01*
X126213809Y-40102380D02*
X126213809Y-39102380D01*
X126785238Y-40102380D01*
X126785238Y-39102380D01*
X127213809Y-40054761D02*
X127356666Y-40102380D01*
X127594761Y-40102380D01*
X127690000Y-40054761D01*
X127737619Y-40007142D01*
X127785238Y-39911904D01*
X127785238Y-39816666D01*
X127737619Y-39721428D01*
X127690000Y-39673809D01*
X127594761Y-39626190D01*
X127404285Y-39578571D01*
X127309047Y-39530952D01*
X127261428Y-39483333D01*
X127213809Y-39388095D01*
X127213809Y-39292857D01*
X127261428Y-39197619D01*
X127309047Y-39150000D01*
X127404285Y-39102380D01*
X127642380Y-39102380D01*
X127785238Y-39150000D01*
X128404285Y-39102380D02*
X128594761Y-39102380D01*
X128690000Y-39150000D01*
X128785238Y-39245238D01*
X128832857Y-39435714D01*
X128832857Y-39769047D01*
X128785238Y-39959523D01*
X128690000Y-40054761D01*
X128594761Y-40102380D01*
X128404285Y-40102380D01*
X128309047Y-40054761D01*
X128213809Y-39959523D01*
X128166190Y-39769047D01*
X128166190Y-39435714D01*
X128213809Y-39245238D01*
X128309047Y-39150000D01*
X128404285Y-39102380D01*
X129832857Y-40102380D02*
X129499523Y-39626190D01*
X129261428Y-40102380D02*
X129261428Y-39102380D01*
X129642380Y-39102380D01*
X129737619Y-39150000D01*
X129785238Y-39197619D01*
X129832857Y-39292857D01*
X129832857Y-39435714D01*
X129785238Y-39530952D01*
X129737619Y-39578571D01*
X129642380Y-39626190D01*
X129261428Y-39626190D01*
X82728571Y-94362380D02*
X82728571Y-93362380D01*
X83061904Y-94076666D01*
X83395238Y-93362380D01*
X83395238Y-94362380D01*
X84061904Y-93362380D02*
X84252380Y-93362380D01*
X84347619Y-93410000D01*
X84442857Y-93505238D01*
X84490476Y-93695714D01*
X84490476Y-94029047D01*
X84442857Y-94219523D01*
X84347619Y-94314761D01*
X84252380Y-94362380D01*
X84061904Y-94362380D01*
X83966666Y-94314761D01*
X83871428Y-94219523D01*
X83823809Y-94029047D01*
X83823809Y-93695714D01*
X83871428Y-93505238D01*
X83966666Y-93410000D01*
X84061904Y-93362380D01*
X84776190Y-93362380D02*
X85347619Y-93362380D01*
X85061904Y-94362380D02*
X85061904Y-93362380D01*
X85871428Y-93362380D02*
X86061904Y-93362380D01*
X86157142Y-93410000D01*
X86252380Y-93505238D01*
X86300000Y-93695714D01*
X86300000Y-94029047D01*
X86252380Y-94219523D01*
X86157142Y-94314761D01*
X86061904Y-94362380D01*
X85871428Y-94362380D01*
X85776190Y-94314761D01*
X85680952Y-94219523D01*
X85633333Y-94029047D01*
X85633333Y-93695714D01*
X85680952Y-93505238D01*
X85776190Y-93410000D01*
X85871428Y-93362380D01*
X87300000Y-94362380D02*
X86966666Y-93886190D01*
X86728571Y-94362380D02*
X86728571Y-93362380D01*
X87109523Y-93362380D01*
X87204761Y-93410000D01*
X87252380Y-93457619D01*
X87300000Y-93552857D01*
X87300000Y-93695714D01*
X87252380Y-93790952D01*
X87204761Y-93838571D01*
X87109523Y-93886190D01*
X86728571Y-93886190D01*
X88490476Y-94362380D02*
X88490476Y-93362380D01*
X88728571Y-93362380D01*
X88871428Y-93410000D01*
X88966666Y-93505238D01*
X89014285Y-93600476D01*
X89061904Y-93790952D01*
X89061904Y-93933809D01*
X89014285Y-94124285D01*
X88966666Y-94219523D01*
X88871428Y-94314761D01*
X88728571Y-94362380D01*
X88490476Y-94362380D01*
X90061904Y-94362380D02*
X89728571Y-93886190D01*
X89490476Y-94362380D02*
X89490476Y-93362380D01*
X89871428Y-93362380D01*
X89966666Y-93410000D01*
X90014285Y-93457619D01*
X90061904Y-93552857D01*
X90061904Y-93695714D01*
X90014285Y-93790952D01*
X89966666Y-93838571D01*
X89871428Y-93886190D01*
X89490476Y-93886190D01*
X90490476Y-94362380D02*
X90490476Y-93362380D01*
X90823809Y-93362380D02*
X91157142Y-94362380D01*
X91490476Y-93362380D01*
X91823809Y-93838571D02*
X92157142Y-93838571D01*
X92300000Y-94362380D02*
X91823809Y-94362380D01*
X91823809Y-93362380D01*
X92300000Y-93362380D01*
X93300000Y-94362380D02*
X92966666Y-93886190D01*
X92728571Y-94362380D02*
X92728571Y-93362380D01*
X93109523Y-93362380D01*
X93204761Y-93410000D01*
X93252380Y-93457619D01*
X93300000Y-93552857D01*
X93300000Y-93695714D01*
X93252380Y-93790952D01*
X93204761Y-93838571D01*
X93109523Y-93886190D01*
X92728571Y-93886190D01*
X94014285Y-94743333D02*
X93966666Y-94695714D01*
X93871428Y-94552857D01*
X93823809Y-94457619D01*
X93776190Y-94314761D01*
X93728571Y-94076666D01*
X93728571Y-93886190D01*
X93776190Y-93648095D01*
X93823809Y-93505238D01*
X93871428Y-93410000D01*
X93966666Y-93267142D01*
X94014285Y-93219523D01*
X94347619Y-93457619D02*
X94395238Y-93410000D01*
X94490476Y-93362380D01*
X94728571Y-93362380D01*
X94823809Y-93410000D01*
X94871428Y-93457619D01*
X94919047Y-93552857D01*
X94919047Y-93648095D01*
X94871428Y-93790952D01*
X94300000Y-94362380D01*
X94919047Y-94362380D01*
X95776190Y-93695714D02*
X95776190Y-94362380D01*
X95538095Y-93314761D02*
X95300000Y-94029047D01*
X95919047Y-94029047D01*
X96157142Y-93362380D02*
X96490476Y-94362380D01*
X96823809Y-93362380D01*
X98442857Y-94362380D02*
X97871428Y-94362380D01*
X98157142Y-94362380D02*
X98157142Y-93362380D01*
X98061904Y-93505238D01*
X97966666Y-93600476D01*
X97871428Y-93648095D01*
X99061904Y-93362380D02*
X99157142Y-93362380D01*
X99252380Y-93410000D01*
X99300000Y-93457619D01*
X99347619Y-93552857D01*
X99395238Y-93743333D01*
X99395238Y-93981428D01*
X99347619Y-94171904D01*
X99300000Y-94267142D01*
X99252380Y-94314761D01*
X99157142Y-94362380D01*
X99061904Y-94362380D01*
X98966666Y-94314761D01*
X98919047Y-94267142D01*
X98871428Y-94171904D01*
X98823809Y-93981428D01*
X98823809Y-93743333D01*
X98871428Y-93552857D01*
X98919047Y-93457619D01*
X98966666Y-93410000D01*
X99061904Y-93362380D01*
X99776190Y-94076666D02*
X100252380Y-94076666D01*
X99680952Y-94362380D02*
X100014285Y-93362380D01*
X100347619Y-94362380D01*
X100585714Y-94743333D02*
X100633333Y-94695714D01*
X100728571Y-94552857D01*
X100776190Y-94457619D01*
X100823809Y-94314761D01*
X100871428Y-94076666D01*
X100871428Y-93886190D01*
X100823809Y-93648095D01*
X100776190Y-93505238D01*
X100728571Y-93410000D01*
X100633333Y-93267142D01*
X100585714Y-93219523D01*
D12*
%TO.C,REF\u002A\u002A*%
G36*
X88081900Y-75831903D02*
G01*
X88193450Y-75887522D01*
X88291908Y-75989931D01*
X88319023Y-76027864D01*
X88348562Y-76077500D01*
X88367728Y-76131412D01*
X88378693Y-76203364D01*
X88383629Y-76307122D01*
X88384713Y-76444101D01*
X88379818Y-76631815D01*
X88362804Y-76772758D01*
X88330177Y-76877908D01*
X88278442Y-76958243D01*
X88204104Y-77024741D01*
X88198642Y-77028678D01*
X88125380Y-77068953D01*
X88037160Y-77088880D01*
X87924962Y-77093793D01*
X87742567Y-77093793D01*
X87742491Y-77270857D01*
X87740793Y-77369470D01*
X87730450Y-77427314D01*
X87703422Y-77462006D01*
X87651668Y-77491164D01*
X87639239Y-77497121D01*
X87581077Y-77525039D01*
X87536044Y-77542672D01*
X87502559Y-77544194D01*
X87479038Y-77523781D01*
X87463900Y-77475607D01*
X87455563Y-77393846D01*
X87452444Y-77272672D01*
X87452960Y-77106260D01*
X87455529Y-76888785D01*
X87456332Y-76823736D01*
X87459222Y-76599502D01*
X87461812Y-76452821D01*
X87742414Y-76452821D01*
X87743991Y-76577326D01*
X87751000Y-76658787D01*
X87766858Y-76712515D01*
X87794981Y-76753823D01*
X87814075Y-76773971D01*
X87892135Y-76832921D01*
X87961247Y-76837720D01*
X88032560Y-76789038D01*
X88034368Y-76787241D01*
X88063383Y-76749618D01*
X88081033Y-76698484D01*
X88089936Y-76619738D01*
X88092709Y-76499276D01*
X88092759Y-76472588D01*
X88086058Y-76306583D01*
X88064248Y-76191505D01*
X88024765Y-76121254D01*
X87965044Y-76089729D01*
X87930528Y-76086552D01*
X87848611Y-76101460D01*
X87792421Y-76150548D01*
X87758598Y-76240362D01*
X87743780Y-76377445D01*
X87742414Y-76452821D01*
X87461812Y-76452821D01*
X87462287Y-76425952D01*
X87466247Y-76295382D01*
X87471826Y-76200087D01*
X87479746Y-76132364D01*
X87490731Y-76084507D01*
X87505501Y-76048813D01*
X87524782Y-76017578D01*
X87533049Y-76005824D01*
X87642712Y-75894797D01*
X87781365Y-75831847D01*
X87941754Y-75814297D01*
X88081900Y-75831903D01*
G37*
X88081900Y-75831903D02*
X88193450Y-75887522D01*
X88291908Y-75989931D01*
X88319023Y-76027864D01*
X88348562Y-76077500D01*
X88367728Y-76131412D01*
X88378693Y-76203364D01*
X88383629Y-76307122D01*
X88384713Y-76444101D01*
X88379818Y-76631815D01*
X88362804Y-76772758D01*
X88330177Y-76877908D01*
X88278442Y-76958243D01*
X88204104Y-77024741D01*
X88198642Y-77028678D01*
X88125380Y-77068953D01*
X88037160Y-77088880D01*
X87924962Y-77093793D01*
X87742567Y-77093793D01*
X87742491Y-77270857D01*
X87740793Y-77369470D01*
X87730450Y-77427314D01*
X87703422Y-77462006D01*
X87651668Y-77491164D01*
X87639239Y-77497121D01*
X87581077Y-77525039D01*
X87536044Y-77542672D01*
X87502559Y-77544194D01*
X87479038Y-77523781D01*
X87463900Y-77475607D01*
X87455563Y-77393846D01*
X87452444Y-77272672D01*
X87452960Y-77106260D01*
X87455529Y-76888785D01*
X87456332Y-76823736D01*
X87459222Y-76599502D01*
X87461812Y-76452821D01*
X87742414Y-76452821D01*
X87743991Y-76577326D01*
X87751000Y-76658787D01*
X87766858Y-76712515D01*
X87794981Y-76753823D01*
X87814075Y-76773971D01*
X87892135Y-76832921D01*
X87961247Y-76837720D01*
X88032560Y-76789038D01*
X88034368Y-76787241D01*
X88063383Y-76749618D01*
X88081033Y-76698484D01*
X88089936Y-76619738D01*
X88092709Y-76499276D01*
X88092759Y-76472588D01*
X88086058Y-76306583D01*
X88064248Y-76191505D01*
X88024765Y-76121254D01*
X87965044Y-76089729D01*
X87930528Y-76086552D01*
X87848611Y-76101460D01*
X87792421Y-76150548D01*
X87758598Y-76240362D01*
X87743780Y-76377445D01*
X87742414Y-76452821D01*
X87461812Y-76452821D01*
X87462287Y-76425952D01*
X87466247Y-76295382D01*
X87471826Y-76200087D01*
X87479746Y-76132364D01*
X87490731Y-76084507D01*
X87505501Y-76048813D01*
X87524782Y-76017578D01*
X87533049Y-76005824D01*
X87642712Y-75894797D01*
X87781365Y-75831847D01*
X87941754Y-75814297D01*
X88081900Y-75831903D01*
G36*
X90327429Y-75847719D02*
G01*
X90421123Y-75901914D01*
X90486264Y-75955707D01*
X90533907Y-76012066D01*
X90566728Y-76080987D01*
X90587406Y-76172468D01*
X90598620Y-76296506D01*
X90603049Y-76463098D01*
X90603563Y-76582851D01*
X90603563Y-77023659D01*
X90479483Y-77079283D01*
X90355402Y-77134907D01*
X90340805Y-76652095D01*
X90334773Y-76471779D01*
X90328445Y-76340901D01*
X90320606Y-76250511D01*
X90310037Y-76191664D01*
X90295523Y-76155413D01*
X90275848Y-76132810D01*
X90269535Y-76127917D01*
X90173888Y-76089706D01*
X90077207Y-76104827D01*
X90019655Y-76144943D01*
X89996245Y-76173370D01*
X89980039Y-76210672D01*
X89969741Y-76267223D01*
X89964049Y-76353394D01*
X89961664Y-76479558D01*
X89961264Y-76611042D01*
X89961186Y-76775999D01*
X89958361Y-76892761D01*
X89948907Y-76971510D01*
X89928940Y-77022431D01*
X89894576Y-77055706D01*
X89841932Y-77081520D01*
X89771617Y-77108344D01*
X89694820Y-77137542D01*
X89703962Y-76619346D01*
X89707643Y-76432539D01*
X89711950Y-76294490D01*
X89718123Y-76195568D01*
X89727402Y-76126145D01*
X89741027Y-76076590D01*
X89760239Y-76037273D01*
X89783402Y-76002584D01*
X89895152Y-75891770D01*
X90031513Y-75827689D01*
X90179825Y-75812339D01*
X90327429Y-75847719D01*
G37*
X90327429Y-75847719D02*
X90421123Y-75901914D01*
X90486264Y-75955707D01*
X90533907Y-76012066D01*
X90566728Y-76080987D01*
X90587406Y-76172468D01*
X90598620Y-76296506D01*
X90603049Y-76463098D01*
X90603563Y-76582851D01*
X90603563Y-77023659D01*
X90479483Y-77079283D01*
X90355402Y-77134907D01*
X90340805Y-76652095D01*
X90334773Y-76471779D01*
X90328445Y-76340901D01*
X90320606Y-76250511D01*
X90310037Y-76191664D01*
X90295523Y-76155413D01*
X90275848Y-76132810D01*
X90269535Y-76127917D01*
X90173888Y-76089706D01*
X90077207Y-76104827D01*
X90019655Y-76144943D01*
X89996245Y-76173370D01*
X89980039Y-76210672D01*
X89969741Y-76267223D01*
X89964049Y-76353394D01*
X89961664Y-76479558D01*
X89961264Y-76611042D01*
X89961186Y-76775999D01*
X89958361Y-76892761D01*
X89948907Y-76971510D01*
X89928940Y-77022431D01*
X89894576Y-77055706D01*
X89841932Y-77081520D01*
X89771617Y-77108344D01*
X89694820Y-77137542D01*
X89703962Y-76619346D01*
X89707643Y-76432539D01*
X89711950Y-76294490D01*
X89718123Y-76195568D01*
X89727402Y-76126145D01*
X89741027Y-76076590D01*
X89760239Y-76037273D01*
X89783402Y-76002584D01*
X89895152Y-75891770D01*
X90031513Y-75827689D01*
X90179825Y-75812339D01*
X90327429Y-75847719D01*
G36*
X86958221Y-75836015D02*
G01*
X87095061Y-75907968D01*
X87196051Y-76023766D01*
X87231925Y-76098213D01*
X87259839Y-76209992D01*
X87274129Y-76351227D01*
X87275484Y-76505371D01*
X87264595Y-76655879D01*
X87242153Y-76786205D01*
X87208850Y-76879803D01*
X87198615Y-76895922D01*
X87077382Y-77016249D01*
X86933387Y-77088317D01*
X86777139Y-77109408D01*
X86619148Y-77076802D01*
X86575180Y-77057253D01*
X86489556Y-76997012D01*
X86414408Y-76917135D01*
X86407306Y-76907004D01*
X86378439Y-76858181D01*
X86359357Y-76805990D01*
X86348084Y-76737285D01*
X86342645Y-76638918D01*
X86341062Y-76497744D01*
X86341035Y-76466092D01*
X86341107Y-76456019D01*
X86632989Y-76456019D01*
X86634687Y-76589256D01*
X86641372Y-76677674D01*
X86655425Y-76734785D01*
X86679229Y-76774102D01*
X86691379Y-76787241D01*
X86761236Y-76837172D01*
X86829059Y-76834895D01*
X86897635Y-76791584D01*
X86938535Y-76745346D01*
X86962758Y-76677857D01*
X86976361Y-76571433D01*
X86977294Y-76559020D01*
X86979616Y-76366147D01*
X86955350Y-76222900D01*
X86904824Y-76130160D01*
X86828368Y-76088807D01*
X86801076Y-76086552D01*
X86729411Y-76097893D01*
X86680390Y-76137184D01*
X86650418Y-76212326D01*
X86635899Y-76331222D01*
X86632989Y-76456019D01*
X86341107Y-76456019D01*
X86342122Y-76315659D01*
X86346688Y-76210549D01*
X86356688Y-76137714D01*
X86374079Y-76084108D01*
X86400816Y-76036681D01*
X86406724Y-76027864D01*
X86506032Y-75909007D01*
X86614242Y-75840008D01*
X86745981Y-75812619D01*
X86790717Y-75811281D01*
X86958221Y-75836015D01*
G37*
X86958221Y-75836015D02*
X87095061Y-75907968D01*
X87196051Y-76023766D01*
X87231925Y-76098213D01*
X87259839Y-76209992D01*
X87274129Y-76351227D01*
X87275484Y-76505371D01*
X87264595Y-76655879D01*
X87242153Y-76786205D01*
X87208850Y-76879803D01*
X87198615Y-76895922D01*
X87077382Y-77016249D01*
X86933387Y-77088317D01*
X86777139Y-77109408D01*
X86619148Y-77076802D01*
X86575180Y-77057253D01*
X86489556Y-76997012D01*
X86414408Y-76917135D01*
X86407306Y-76907004D01*
X86378439Y-76858181D01*
X86359357Y-76805990D01*
X86348084Y-76737285D01*
X86342645Y-76638918D01*
X86341062Y-76497744D01*
X86341035Y-76466092D01*
X86341107Y-76456019D01*
X86632989Y-76456019D01*
X86634687Y-76589256D01*
X86641372Y-76677674D01*
X86655425Y-76734785D01*
X86679229Y-76774102D01*
X86691379Y-76787241D01*
X86761236Y-76837172D01*
X86829059Y-76834895D01*
X86897635Y-76791584D01*
X86938535Y-76745346D01*
X86962758Y-76677857D01*
X86976361Y-76571433D01*
X86977294Y-76559020D01*
X86979616Y-76366147D01*
X86955350Y-76222900D01*
X86904824Y-76130160D01*
X86828368Y-76088807D01*
X86801076Y-76086552D01*
X86729411Y-76097893D01*
X86680390Y-76137184D01*
X86650418Y-76212326D01*
X86635899Y-76331222D01*
X86632989Y-76456019D01*
X86341107Y-76456019D01*
X86342122Y-76315659D01*
X86346688Y-76210549D01*
X86356688Y-76137714D01*
X86374079Y-76084108D01*
X86400816Y-76036681D01*
X86406724Y-76027864D01*
X86506032Y-75909007D01*
X86614242Y-75840008D01*
X86745981Y-75812619D01*
X86790717Y-75811281D01*
X86958221Y-75836015D01*
G36*
X89225552Y-75854676D02*
G01*
X89340658Y-75932111D01*
X89429611Y-76043949D01*
X89482749Y-76186265D01*
X89493497Y-76291015D01*
X89492276Y-76334726D01*
X89482056Y-76368194D01*
X89453961Y-76398179D01*
X89399116Y-76431440D01*
X89308645Y-76474738D01*
X89173672Y-76534833D01*
X89172989Y-76535134D01*
X89048751Y-76592037D01*
X88946873Y-76642565D01*
X88877767Y-76681280D01*
X88851846Y-76702740D01*
X88851839Y-76702913D01*
X88874685Y-76749644D01*
X88928109Y-76801154D01*
X88989442Y-76838261D01*
X89020515Y-76845632D01*
X89105289Y-76820138D01*
X89178293Y-76756291D01*
X89213913Y-76686094D01*
X89248180Y-76634343D01*
X89315303Y-76575409D01*
X89394208Y-76524496D01*
X89463821Y-76496809D01*
X89478377Y-76495287D01*
X89494763Y-76520321D01*
X89495750Y-76584311D01*
X89483708Y-76670593D01*
X89461007Y-76762501D01*
X89430014Y-76843369D01*
X89428448Y-76846509D01*
X89335181Y-76976734D01*
X89214304Y-77065311D01*
X89077027Y-77108786D01*
X88934560Y-77103706D01*
X88798112Y-77046616D01*
X88792045Y-77042602D01*
X88684710Y-76945326D01*
X88614132Y-76818409D01*
X88575074Y-76651526D01*
X88569832Y-76604639D01*
X88560548Y-76383329D01*
X88571678Y-76280124D01*
X88851839Y-76280124D01*
X88855479Y-76344503D01*
X88875389Y-76363291D01*
X88925026Y-76349235D01*
X89003267Y-76316009D01*
X89090726Y-76274359D01*
X89092899Y-76273256D01*
X89167030Y-76234265D01*
X89196781Y-76208244D01*
X89189445Y-76180965D01*
X89158553Y-76145121D01*
X89079960Y-76093251D01*
X88995323Y-76089439D01*
X88919403Y-76127189D01*
X88866965Y-76200001D01*
X88851839Y-76280124D01*
X88571678Y-76280124D01*
X88579644Y-76206261D01*
X88628634Y-76065829D01*
X88696836Y-75967447D01*
X88819935Y-75868030D01*
X88955528Y-75818711D01*
X89093955Y-75815568D01*
X89225552Y-75854676D01*
G37*
X89225552Y-75854676D02*
X89340658Y-75932111D01*
X89429611Y-76043949D01*
X89482749Y-76186265D01*
X89493497Y-76291015D01*
X89492276Y-76334726D01*
X89482056Y-76368194D01*
X89453961Y-76398179D01*
X89399116Y-76431440D01*
X89308645Y-76474738D01*
X89173672Y-76534833D01*
X89172989Y-76535134D01*
X89048751Y-76592037D01*
X88946873Y-76642565D01*
X88877767Y-76681280D01*
X88851846Y-76702740D01*
X88851839Y-76702913D01*
X88874685Y-76749644D01*
X88928109Y-76801154D01*
X88989442Y-76838261D01*
X89020515Y-76845632D01*
X89105289Y-76820138D01*
X89178293Y-76756291D01*
X89213913Y-76686094D01*
X89248180Y-76634343D01*
X89315303Y-76575409D01*
X89394208Y-76524496D01*
X89463821Y-76496809D01*
X89478377Y-76495287D01*
X89494763Y-76520321D01*
X89495750Y-76584311D01*
X89483708Y-76670593D01*
X89461007Y-76762501D01*
X89430014Y-76843369D01*
X89428448Y-76846509D01*
X89335181Y-76976734D01*
X89214304Y-77065311D01*
X89077027Y-77108786D01*
X88934560Y-77103706D01*
X88798112Y-77046616D01*
X88792045Y-77042602D01*
X88684710Y-76945326D01*
X88614132Y-76818409D01*
X88575074Y-76651526D01*
X88569832Y-76604639D01*
X88560548Y-76383329D01*
X88571678Y-76280124D01*
X88851839Y-76280124D01*
X88855479Y-76344503D01*
X88875389Y-76363291D01*
X88925026Y-76349235D01*
X89003267Y-76316009D01*
X89090726Y-76274359D01*
X89092899Y-76273256D01*
X89167030Y-76234265D01*
X89196781Y-76208244D01*
X89189445Y-76180965D01*
X89158553Y-76145121D01*
X89079960Y-76093251D01*
X88995323Y-76089439D01*
X88919403Y-76127189D01*
X88866965Y-76200001D01*
X88851839Y-76280124D01*
X88571678Y-76280124D01*
X88579644Y-76206261D01*
X88628634Y-76065829D01*
X88696836Y-75967447D01*
X88819935Y-75868030D01*
X88955528Y-75818711D01*
X89093955Y-75815568D01*
X89225552Y-75854676D01*
G36*
X91654598Y-75693857D02*
G01*
X91663154Y-75813188D01*
X91672981Y-75883506D01*
X91686599Y-75914179D01*
X91706527Y-75914571D01*
X91712989Y-75910910D01*
X91798940Y-75884398D01*
X91910745Y-75885946D01*
X92024414Y-75913199D01*
X92095510Y-75948455D01*
X92168405Y-76004778D01*
X92221693Y-76068519D01*
X92258275Y-76149510D01*
X92281050Y-76257586D01*
X92292919Y-76402580D01*
X92296782Y-76594326D01*
X92296851Y-76631109D01*
X92296897Y-77044288D01*
X92204954Y-77076339D01*
X92139652Y-77098144D01*
X92103824Y-77108297D01*
X92102770Y-77108391D01*
X92099242Y-77080860D01*
X92096239Y-77004923D01*
X92093990Y-76890565D01*
X92092724Y-76747769D01*
X92092529Y-76660951D01*
X92092123Y-76489773D01*
X92090032Y-76367088D01*
X92084947Y-76283000D01*
X92075560Y-76227614D01*
X92060561Y-76191032D01*
X92038642Y-76163359D01*
X92024957Y-76150032D01*
X91930949Y-76096328D01*
X91828364Y-76092307D01*
X91735290Y-76137725D01*
X91718078Y-76154123D01*
X91692832Y-76184957D01*
X91675320Y-76221531D01*
X91664142Y-76274415D01*
X91657896Y-76354177D01*
X91655182Y-76471385D01*
X91654598Y-76632991D01*
X91654598Y-77044288D01*
X91562655Y-77076339D01*
X91497353Y-77098144D01*
X91461525Y-77108297D01*
X91460471Y-77108391D01*
X91457775Y-77080448D01*
X91455345Y-77001630D01*
X91453278Y-76879453D01*
X91451671Y-76721432D01*
X91450623Y-76535083D01*
X91450231Y-76327920D01*
X91450230Y-76318706D01*
X91450230Y-75529020D01*
X91545115Y-75488997D01*
X91640000Y-75448973D01*
X91654598Y-75693857D01*
G37*
X91654598Y-75693857D02*
X91663154Y-75813188D01*
X91672981Y-75883506D01*
X91686599Y-75914179D01*
X91706527Y-75914571D01*
X91712989Y-75910910D01*
X91798940Y-75884398D01*
X91910745Y-75885946D01*
X92024414Y-75913199D01*
X92095510Y-75948455D01*
X92168405Y-76004778D01*
X92221693Y-76068519D01*
X92258275Y-76149510D01*
X92281050Y-76257586D01*
X92292919Y-76402580D01*
X92296782Y-76594326D01*
X92296851Y-76631109D01*
X92296897Y-77044288D01*
X92204954Y-77076339D01*
X92139652Y-77098144D01*
X92103824Y-77108297D01*
X92102770Y-77108391D01*
X92099242Y-77080860D01*
X92096239Y-77004923D01*
X92093990Y-76890565D01*
X92092724Y-76747769D01*
X92092529Y-76660951D01*
X92092123Y-76489773D01*
X92090032Y-76367088D01*
X92084947Y-76283000D01*
X92075560Y-76227614D01*
X92060561Y-76191032D01*
X92038642Y-76163359D01*
X92024957Y-76150032D01*
X91930949Y-76096328D01*
X91828364Y-76092307D01*
X91735290Y-76137725D01*
X91718078Y-76154123D01*
X91692832Y-76184957D01*
X91675320Y-76221531D01*
X91664142Y-76274415D01*
X91657896Y-76354177D01*
X91655182Y-76471385D01*
X91654598Y-76632991D01*
X91654598Y-77044288D01*
X91562655Y-77076339D01*
X91497353Y-77098144D01*
X91461525Y-77108297D01*
X91460471Y-77108391D01*
X91457775Y-77080448D01*
X91455345Y-77001630D01*
X91453278Y-76879453D01*
X91451671Y-76721432D01*
X91450623Y-76535083D01*
X91450231Y-76327920D01*
X91450230Y-76318706D01*
X91450230Y-75529020D01*
X91545115Y-75488997D01*
X91640000Y-75448973D01*
X91654598Y-75693857D01*
G36*
X92989944Y-75894360D02*
G01*
X93104343Y-75936842D01*
X93105652Y-75937658D01*
X93176403Y-75989730D01*
X93228636Y-76050584D01*
X93265371Y-76129887D01*
X93289634Y-76237309D01*
X93304445Y-76382517D01*
X93312829Y-76575179D01*
X93313564Y-76602628D01*
X93324120Y-77016521D01*
X93235291Y-77062456D01*
X93171018Y-77093498D01*
X93132210Y-77108206D01*
X93130415Y-77108391D01*
X93123700Y-77081250D01*
X93118365Y-77008041D01*
X93115083Y-76901081D01*
X93114368Y-76814469D01*
X93114351Y-76674162D01*
X93107937Y-76586051D01*
X93085580Y-76544025D01*
X93037732Y-76541975D01*
X92954849Y-76573790D01*
X92829713Y-76632272D01*
X92737697Y-76680845D01*
X92690371Y-76722986D01*
X92676458Y-76768916D01*
X92676437Y-76771189D01*
X92699395Y-76850311D01*
X92767370Y-76893055D01*
X92871398Y-76899246D01*
X92946330Y-76898172D01*
X92985839Y-76919753D01*
X93010478Y-76971591D01*
X93024659Y-77037632D01*
X93004223Y-77075104D01*
X92996528Y-77080467D01*
X92924083Y-77102006D01*
X92822633Y-77105055D01*
X92718157Y-77090778D01*
X92644125Y-77064688D01*
X92541772Y-76977785D01*
X92483591Y-76856816D01*
X92472069Y-76762308D01*
X92480862Y-76677062D01*
X92512680Y-76607476D01*
X92575684Y-76545672D01*
X92678031Y-76483772D01*
X92827882Y-76413897D01*
X92837012Y-76409948D01*
X92971997Y-76347588D01*
X93055294Y-76296446D01*
X93090997Y-76250488D01*
X93083203Y-76203683D01*
X93036007Y-76149998D01*
X93021894Y-76137644D01*
X92927359Y-76089741D01*
X92829406Y-76091758D01*
X92744097Y-76138724D01*
X92687496Y-76225669D01*
X92682237Y-76242734D01*
X92631023Y-76325504D01*
X92566037Y-76365372D01*
X92472069Y-76404882D01*
X92472069Y-76302658D01*
X92500653Y-76154072D01*
X92585495Y-76017784D01*
X92629645Y-75972191D01*
X92730005Y-75913674D01*
X92857635Y-75887184D01*
X92989944Y-75894360D01*
G37*
X92989944Y-75894360D02*
X93104343Y-75936842D01*
X93105652Y-75937658D01*
X93176403Y-75989730D01*
X93228636Y-76050584D01*
X93265371Y-76129887D01*
X93289634Y-76237309D01*
X93304445Y-76382517D01*
X93312829Y-76575179D01*
X93313564Y-76602628D01*
X93324120Y-77016521D01*
X93235291Y-77062456D01*
X93171018Y-77093498D01*
X93132210Y-77108206D01*
X93130415Y-77108391D01*
X93123700Y-77081250D01*
X93118365Y-77008041D01*
X93115083Y-76901081D01*
X93114368Y-76814469D01*
X93114351Y-76674162D01*
X93107937Y-76586051D01*
X93085580Y-76544025D01*
X93037732Y-76541975D01*
X92954849Y-76573790D01*
X92829713Y-76632272D01*
X92737697Y-76680845D01*
X92690371Y-76722986D01*
X92676458Y-76768916D01*
X92676437Y-76771189D01*
X92699395Y-76850311D01*
X92767370Y-76893055D01*
X92871398Y-76899246D01*
X92946330Y-76898172D01*
X92985839Y-76919753D01*
X93010478Y-76971591D01*
X93024659Y-77037632D01*
X93004223Y-77075104D01*
X92996528Y-77080467D01*
X92924083Y-77102006D01*
X92822633Y-77105055D01*
X92718157Y-77090778D01*
X92644125Y-77064688D01*
X92541772Y-76977785D01*
X92483591Y-76856816D01*
X92472069Y-76762308D01*
X92480862Y-76677062D01*
X92512680Y-76607476D01*
X92575684Y-76545672D01*
X92678031Y-76483772D01*
X92827882Y-76413897D01*
X92837012Y-76409948D01*
X92971997Y-76347588D01*
X93055294Y-76296446D01*
X93090997Y-76250488D01*
X93083203Y-76203683D01*
X93036007Y-76149998D01*
X93021894Y-76137644D01*
X92927359Y-76089741D01*
X92829406Y-76091758D01*
X92744097Y-76138724D01*
X92687496Y-76225669D01*
X92682237Y-76242734D01*
X92631023Y-76325504D01*
X92566037Y-76365372D01*
X92472069Y-76404882D01*
X92472069Y-76302658D01*
X92500653Y-76154072D01*
X92585495Y-76017784D01*
X92629645Y-75972191D01*
X92730005Y-75913674D01*
X92857635Y-75887184D01*
X92989944Y-75894360D01*
G36*
X93975943Y-75891920D02*
G01*
X94108565Y-75940859D01*
X94216010Y-76027419D01*
X94258032Y-76088352D01*
X94303843Y-76200161D01*
X94302891Y-76281006D01*
X94254808Y-76335378D01*
X94237017Y-76344624D01*
X94160204Y-76373450D01*
X94120976Y-76366065D01*
X94107689Y-76317658D01*
X94107012Y-76290920D01*
X94082686Y-76192548D01*
X94019281Y-76123734D01*
X93931154Y-76090498D01*
X93832663Y-76098861D01*
X93752602Y-76142296D01*
X93725561Y-76167072D01*
X93706394Y-76197129D01*
X93693446Y-76242565D01*
X93685064Y-76313476D01*
X93679593Y-76419960D01*
X93675378Y-76572112D01*
X93674287Y-76620287D01*
X93670307Y-76785095D01*
X93665781Y-76901088D01*
X93658995Y-76977833D01*
X93648231Y-77024893D01*
X93631773Y-77051835D01*
X93607906Y-77068223D01*
X93592626Y-77075463D01*
X93527733Y-77100220D01*
X93489534Y-77108391D01*
X93476912Y-77081103D01*
X93469208Y-76998603D01*
X93466380Y-76859941D01*
X93468386Y-76664162D01*
X93469011Y-76633965D01*
X93473421Y-76455349D01*
X93478635Y-76324923D01*
X93486055Y-76232492D01*
X93497082Y-76167858D01*
X93513117Y-76120825D01*
X93535561Y-76081196D01*
X93547302Y-76064215D01*
X93614619Y-75989080D01*
X93689910Y-75930638D01*
X93699128Y-75925536D01*
X93834133Y-75885260D01*
X93975943Y-75891920D01*
G37*
X93975943Y-75891920D02*
X94108565Y-75940859D01*
X94216010Y-76027419D01*
X94258032Y-76088352D01*
X94303843Y-76200161D01*
X94302891Y-76281006D01*
X94254808Y-76335378D01*
X94237017Y-76344624D01*
X94160204Y-76373450D01*
X94120976Y-76366065D01*
X94107689Y-76317658D01*
X94107012Y-76290920D01*
X94082686Y-76192548D01*
X94019281Y-76123734D01*
X93931154Y-76090498D01*
X93832663Y-76098861D01*
X93752602Y-76142296D01*
X93725561Y-76167072D01*
X93706394Y-76197129D01*
X93693446Y-76242565D01*
X93685064Y-76313476D01*
X93679593Y-76419960D01*
X93675378Y-76572112D01*
X93674287Y-76620287D01*
X93670307Y-76785095D01*
X93665781Y-76901088D01*
X93658995Y-76977833D01*
X93648231Y-77024893D01*
X93631773Y-77051835D01*
X93607906Y-77068223D01*
X93592626Y-77075463D01*
X93527733Y-77100220D01*
X93489534Y-77108391D01*
X93476912Y-77081103D01*
X93469208Y-76998603D01*
X93466380Y-76859941D01*
X93468386Y-76664162D01*
X93469011Y-76633965D01*
X93473421Y-76455349D01*
X93478635Y-76324923D01*
X93486055Y-76232492D01*
X93497082Y-76167858D01*
X93513117Y-76120825D01*
X93535561Y-76081196D01*
X93547302Y-76064215D01*
X93614619Y-75989080D01*
X93689910Y-75930638D01*
X93699128Y-75925536D01*
X93834133Y-75885260D01*
X93975943Y-75891920D01*
G36*
X95303914Y-76124455D02*
G01*
X95303543Y-76342661D01*
X95302108Y-76510519D01*
X95299002Y-76636070D01*
X95293622Y-76727355D01*
X95285362Y-76792415D01*
X95273616Y-76839291D01*
X95257781Y-76876024D01*
X95245790Y-76896991D01*
X95146490Y-77010694D01*
X95020588Y-77081965D01*
X94881291Y-77107538D01*
X94741805Y-77084150D01*
X94658743Y-77042119D01*
X94571545Y-76969411D01*
X94512117Y-76880612D01*
X94476261Y-76764320D01*
X94459781Y-76609135D01*
X94457447Y-76495287D01*
X94457761Y-76487106D01*
X94661724Y-76487106D01*
X94662970Y-76617657D01*
X94668678Y-76704080D01*
X94681804Y-76760618D01*
X94705306Y-76801514D01*
X94733386Y-76832362D01*
X94827688Y-76891905D01*
X94928940Y-76896992D01*
X95024636Y-76847279D01*
X95032084Y-76840543D01*
X95063874Y-76805502D01*
X95083808Y-76763811D01*
X95094600Y-76701762D01*
X95098965Y-76605644D01*
X95099655Y-76499379D01*
X95098159Y-76365880D01*
X95091964Y-76276822D01*
X95078514Y-76218293D01*
X95055251Y-76176382D01*
X95036175Y-76154123D01*
X94947563Y-76097985D01*
X94845508Y-76091235D01*
X94748095Y-76134114D01*
X94729296Y-76150032D01*
X94697293Y-76185382D01*
X94677318Y-76227502D01*
X94666593Y-76290251D01*
X94662339Y-76387487D01*
X94661724Y-76487106D01*
X94457761Y-76487106D01*
X94464504Y-76311947D01*
X94488472Y-76174195D01*
X94533548Y-76070632D01*
X94603928Y-75989856D01*
X94658743Y-75948455D01*
X94758376Y-75903728D01*
X94873855Y-75882967D01*
X94981199Y-75888525D01*
X95041264Y-75910943D01*
X95064835Y-75917323D01*
X95080477Y-75893535D01*
X95091395Y-75829788D01*
X95099655Y-75732687D01*
X95108699Y-75624541D01*
X95121261Y-75559475D01*
X95144119Y-75522268D01*
X95184051Y-75497699D01*
X95209138Y-75486819D01*
X95304023Y-75447072D01*
X95303914Y-76124455D01*
G37*
X95303914Y-76124455D02*
X95303543Y-76342661D01*
X95302108Y-76510519D01*
X95299002Y-76636070D01*
X95293622Y-76727355D01*
X95285362Y-76792415D01*
X95273616Y-76839291D01*
X95257781Y-76876024D01*
X95245790Y-76896991D01*
X95146490Y-77010694D01*
X95020588Y-77081965D01*
X94881291Y-77107538D01*
X94741805Y-77084150D01*
X94658743Y-77042119D01*
X94571545Y-76969411D01*
X94512117Y-76880612D01*
X94476261Y-76764320D01*
X94459781Y-76609135D01*
X94457447Y-76495287D01*
X94457761Y-76487106D01*
X94661724Y-76487106D01*
X94662970Y-76617657D01*
X94668678Y-76704080D01*
X94681804Y-76760618D01*
X94705306Y-76801514D01*
X94733386Y-76832362D01*
X94827688Y-76891905D01*
X94928940Y-76896992D01*
X95024636Y-76847279D01*
X95032084Y-76840543D01*
X95063874Y-76805502D01*
X95083808Y-76763811D01*
X95094600Y-76701762D01*
X95098965Y-76605644D01*
X95099655Y-76499379D01*
X95098159Y-76365880D01*
X95091964Y-76276822D01*
X95078514Y-76218293D01*
X95055251Y-76176382D01*
X95036175Y-76154123D01*
X94947563Y-76097985D01*
X94845508Y-76091235D01*
X94748095Y-76134114D01*
X94729296Y-76150032D01*
X94697293Y-76185382D01*
X94677318Y-76227502D01*
X94666593Y-76290251D01*
X94662339Y-76387487D01*
X94661724Y-76487106D01*
X94457761Y-76487106D01*
X94464504Y-76311947D01*
X94488472Y-76174195D01*
X94533548Y-76070632D01*
X94603928Y-75989856D01*
X94658743Y-75948455D01*
X94758376Y-75903728D01*
X94873855Y-75882967D01*
X94981199Y-75888525D01*
X95041264Y-75910943D01*
X95064835Y-75917323D01*
X95080477Y-75893535D01*
X95091395Y-75829788D01*
X95099655Y-75732687D01*
X95108699Y-75624541D01*
X95121261Y-75559475D01*
X95144119Y-75522268D01*
X95184051Y-75497699D01*
X95209138Y-75486819D01*
X95304023Y-75447072D01*
X95303914Y-76124455D01*
G36*
X96490124Y-75909840D02*
G01*
X96494579Y-75986653D01*
X96498071Y-76103391D01*
X96500315Y-76250821D01*
X96501035Y-76405455D01*
X96501035Y-76928727D01*
X96408645Y-77021117D01*
X96344978Y-77078047D01*
X96289089Y-77101107D01*
X96212702Y-77099647D01*
X96182380Y-77095934D01*
X96087610Y-77085126D01*
X96009222Y-77078933D01*
X95990115Y-77078361D01*
X95925699Y-77082102D01*
X95833571Y-77091494D01*
X95797850Y-77095934D01*
X95710114Y-77102801D01*
X95651153Y-77087885D01*
X95592690Y-77041835D01*
X95571585Y-77021117D01*
X95479195Y-76928727D01*
X95479195Y-75949947D01*
X95553558Y-75916066D01*
X95617590Y-75890970D01*
X95655052Y-75882184D01*
X95664657Y-75909950D01*
X95673635Y-75987530D01*
X95681386Y-76106348D01*
X95687314Y-76257828D01*
X95690173Y-76385805D01*
X95698161Y-76889425D01*
X95767848Y-76899278D01*
X95831229Y-76892389D01*
X95862286Y-76870083D01*
X95870967Y-76828379D01*
X95878378Y-76739544D01*
X95883931Y-76614834D01*
X95887036Y-76465507D01*
X95887484Y-76388661D01*
X95887931Y-75946287D01*
X95979874Y-75914235D01*
X96044949Y-75892443D01*
X96080347Y-75882281D01*
X96081368Y-75882184D01*
X96084920Y-75909809D01*
X96088823Y-75986411D01*
X96092751Y-76102579D01*
X96096376Y-76248904D01*
X96098908Y-76385805D01*
X96106897Y-76889425D01*
X96282069Y-76889425D01*
X96290107Y-76429965D01*
X96298146Y-75970505D01*
X96383543Y-75926344D01*
X96446593Y-75896019D01*
X96483910Y-75882258D01*
X96484987Y-75882184D01*
X96490124Y-75909840D01*
G37*
X96490124Y-75909840D02*
X96494579Y-75986653D01*
X96498071Y-76103391D01*
X96500315Y-76250821D01*
X96501035Y-76405455D01*
X96501035Y-76928727D01*
X96408645Y-77021117D01*
X96344978Y-77078047D01*
X96289089Y-77101107D01*
X96212702Y-77099647D01*
X96182380Y-77095934D01*
X96087610Y-77085126D01*
X96009222Y-77078933D01*
X95990115Y-77078361D01*
X95925699Y-77082102D01*
X95833571Y-77091494D01*
X95797850Y-77095934D01*
X95710114Y-77102801D01*
X95651153Y-77087885D01*
X95592690Y-77041835D01*
X95571585Y-77021117D01*
X95479195Y-76928727D01*
X95479195Y-75949947D01*
X95553558Y-75916066D01*
X95617590Y-75890970D01*
X95655052Y-75882184D01*
X95664657Y-75909950D01*
X95673635Y-75987530D01*
X95681386Y-76106348D01*
X95687314Y-76257828D01*
X95690173Y-76385805D01*
X95698161Y-76889425D01*
X95767848Y-76899278D01*
X95831229Y-76892389D01*
X95862286Y-76870083D01*
X95870967Y-76828379D01*
X95878378Y-76739544D01*
X95883931Y-76614834D01*
X95887036Y-76465507D01*
X95887484Y-76388661D01*
X95887931Y-75946287D01*
X95979874Y-75914235D01*
X96044949Y-75892443D01*
X96080347Y-75882281D01*
X96081368Y-75882184D01*
X96084920Y-75909809D01*
X96088823Y-75986411D01*
X96092751Y-76102579D01*
X96096376Y-76248904D01*
X96098908Y-76385805D01*
X96106897Y-76889425D01*
X96282069Y-76889425D01*
X96290107Y-76429965D01*
X96298146Y-75970505D01*
X96383543Y-75926344D01*
X96446593Y-75896019D01*
X96483910Y-75882258D01*
X96484987Y-75882184D01*
X96490124Y-75909840D01*
G36*
X97224406Y-75905156D02*
G01*
X97308469Y-75943393D01*
X97374450Y-75989726D01*
X97422794Y-76041532D01*
X97456172Y-76108363D01*
X97477253Y-76199769D01*
X97488707Y-76325301D01*
X97493203Y-76494508D01*
X97493678Y-76605933D01*
X97493678Y-77040627D01*
X97419316Y-77074509D01*
X97360746Y-77099272D01*
X97331730Y-77108391D01*
X97326179Y-77081257D01*
X97321775Y-77008094D01*
X97319078Y-76901263D01*
X97318506Y-76816437D01*
X97316046Y-76693887D01*
X97309412Y-76596668D01*
X97299726Y-76537134D01*
X97292032Y-76524483D01*
X97240311Y-76537402D01*
X97159117Y-76570539D01*
X97065102Y-76615461D01*
X96974917Y-76663735D01*
X96905215Y-76706928D01*
X96872648Y-76736608D01*
X96872519Y-76736929D01*
X96875320Y-76791857D01*
X96900439Y-76844292D01*
X96944541Y-76886881D01*
X97008909Y-76901126D01*
X97063921Y-76899466D01*
X97141835Y-76898245D01*
X97182732Y-76916498D01*
X97207295Y-76964726D01*
X97210392Y-76973820D01*
X97221040Y-77042598D01*
X97192565Y-77084360D01*
X97118344Y-77104263D01*
X97038168Y-77107944D01*
X96893890Y-77080658D01*
X96819203Y-77041690D01*
X96726963Y-76950148D01*
X96678043Y-76837782D01*
X96673654Y-76719051D01*
X96715001Y-76608411D01*
X96777197Y-76539080D01*
X96839294Y-76500265D01*
X96936895Y-76451125D01*
X97050632Y-76401292D01*
X97069590Y-76393677D01*
X97194521Y-76338545D01*
X97266539Y-76289954D01*
X97289700Y-76241647D01*
X97268064Y-76187370D01*
X97230920Y-76144943D01*
X97143127Y-76092702D01*
X97046530Y-76088784D01*
X96957944Y-76129041D01*
X96894186Y-76209326D01*
X96885817Y-76230040D01*
X96837096Y-76306225D01*
X96765965Y-76362785D01*
X96676207Y-76409201D01*
X96676207Y-76277584D01*
X96681490Y-76197168D01*
X96704142Y-76133786D01*
X96754367Y-76066163D01*
X96802582Y-76014076D01*
X96877554Y-75940322D01*
X96935806Y-75900702D01*
X96998372Y-75884810D01*
X97069193Y-75882184D01*
X97224406Y-75905156D01*
G37*
X97224406Y-75905156D02*
X97308469Y-75943393D01*
X97374450Y-75989726D01*
X97422794Y-76041532D01*
X97456172Y-76108363D01*
X97477253Y-76199769D01*
X97488707Y-76325301D01*
X97493203Y-76494508D01*
X97493678Y-76605933D01*
X97493678Y-77040627D01*
X97419316Y-77074509D01*
X97360746Y-77099272D01*
X97331730Y-77108391D01*
X97326179Y-77081257D01*
X97321775Y-77008094D01*
X97319078Y-76901263D01*
X97318506Y-76816437D01*
X97316046Y-76693887D01*
X97309412Y-76596668D01*
X97299726Y-76537134D01*
X97292032Y-76524483D01*
X97240311Y-76537402D01*
X97159117Y-76570539D01*
X97065102Y-76615461D01*
X96974917Y-76663735D01*
X96905215Y-76706928D01*
X96872648Y-76736608D01*
X96872519Y-76736929D01*
X96875320Y-76791857D01*
X96900439Y-76844292D01*
X96944541Y-76886881D01*
X97008909Y-76901126D01*
X97063921Y-76899466D01*
X97141835Y-76898245D01*
X97182732Y-76916498D01*
X97207295Y-76964726D01*
X97210392Y-76973820D01*
X97221040Y-77042598D01*
X97192565Y-77084360D01*
X97118344Y-77104263D01*
X97038168Y-77107944D01*
X96893890Y-77080658D01*
X96819203Y-77041690D01*
X96726963Y-76950148D01*
X96678043Y-76837782D01*
X96673654Y-76719051D01*
X96715001Y-76608411D01*
X96777197Y-76539080D01*
X96839294Y-76500265D01*
X96936895Y-76451125D01*
X97050632Y-76401292D01*
X97069590Y-76393677D01*
X97194521Y-76338545D01*
X97266539Y-76289954D01*
X97289700Y-76241647D01*
X97268064Y-76187370D01*
X97230920Y-76144943D01*
X97143127Y-76092702D01*
X97046530Y-76088784D01*
X96957944Y-76129041D01*
X96894186Y-76209326D01*
X96885817Y-76230040D01*
X96837096Y-76306225D01*
X96765965Y-76362785D01*
X96676207Y-76409201D01*
X96676207Y-76277584D01*
X96681490Y-76197168D01*
X96704142Y-76133786D01*
X96754367Y-76066163D01*
X96802582Y-76014076D01*
X96877554Y-75940322D01*
X96935806Y-75900702D01*
X96998372Y-75884810D01*
X97069193Y-75882184D01*
X97224406Y-75905156D01*
G36*
X98245690Y-75910018D02*
G01*
X98280585Y-75925269D01*
X98363877Y-75991235D01*
X98435103Y-76086618D01*
X98479153Y-76188406D01*
X98486322Y-76238587D01*
X98462285Y-76308647D01*
X98409561Y-76345717D01*
X98353031Y-76368164D01*
X98327146Y-76372300D01*
X98314542Y-76342283D01*
X98289654Y-76276961D01*
X98278735Y-76247445D01*
X98217508Y-76145348D01*
X98128861Y-76094423D01*
X98015193Y-76095989D01*
X98006774Y-76097994D01*
X97946088Y-76126767D01*
X97901474Y-76182859D01*
X97871002Y-76273163D01*
X97852744Y-76404571D01*
X97844771Y-76583974D01*
X97844023Y-76679433D01*
X97843652Y-76829913D01*
X97841223Y-76932495D01*
X97834760Y-76997672D01*
X97822288Y-77035938D01*
X97801833Y-77057785D01*
X97771419Y-77073707D01*
X97769661Y-77074509D01*
X97711091Y-77099272D01*
X97682075Y-77108391D01*
X97677616Y-77080822D01*
X97673799Y-77004620D01*
X97670899Y-76889541D01*
X97669191Y-76745341D01*
X97668851Y-76639814D01*
X97670588Y-76435613D01*
X97677382Y-76280697D01*
X97691607Y-76166024D01*
X97715638Y-76082551D01*
X97751848Y-76021236D01*
X97802612Y-75973034D01*
X97852739Y-75939393D01*
X97973275Y-75894619D01*
X98113557Y-75884521D01*
X98245690Y-75910018D01*
G37*
X98245690Y-75910018D02*
X98280585Y-75925269D01*
X98363877Y-75991235D01*
X98435103Y-76086618D01*
X98479153Y-76188406D01*
X98486322Y-76238587D01*
X98462285Y-76308647D01*
X98409561Y-76345717D01*
X98353031Y-76368164D01*
X98327146Y-76372300D01*
X98314542Y-76342283D01*
X98289654Y-76276961D01*
X98278735Y-76247445D01*
X98217508Y-76145348D01*
X98128861Y-76094423D01*
X98015193Y-76095989D01*
X98006774Y-76097994D01*
X97946088Y-76126767D01*
X97901474Y-76182859D01*
X97871002Y-76273163D01*
X97852744Y-76404571D01*
X97844771Y-76583974D01*
X97844023Y-76679433D01*
X97843652Y-76829913D01*
X97841223Y-76932495D01*
X97834760Y-76997672D01*
X97822288Y-77035938D01*
X97801833Y-77057785D01*
X97771419Y-77073707D01*
X97769661Y-77074509D01*
X97711091Y-77099272D01*
X97682075Y-77108391D01*
X97677616Y-77080822D01*
X97673799Y-77004620D01*
X97670899Y-76889541D01*
X97669191Y-76745341D01*
X97668851Y-76639814D01*
X97670588Y-76435613D01*
X97677382Y-76280697D01*
X97691607Y-76166024D01*
X97715638Y-76082551D01*
X97751848Y-76021236D01*
X97802612Y-75973034D01*
X97852739Y-75939393D01*
X97973275Y-75894619D01*
X98113557Y-75884521D01*
X98245690Y-75910018D01*
G36*
X99253439Y-75926540D02*
G01*
X99368950Y-76002034D01*
X99424664Y-76069617D01*
X99468804Y-76192255D01*
X99472309Y-76289298D01*
X99464368Y-76419056D01*
X99165115Y-76550039D01*
X99019611Y-76616958D01*
X98924537Y-76670790D01*
X98875101Y-76717416D01*
X98866511Y-76762720D01*
X98893972Y-76812582D01*
X98924253Y-76845632D01*
X99012363Y-76898633D01*
X99108196Y-76902347D01*
X99196212Y-76861041D01*
X99260869Y-76778983D01*
X99272433Y-76750008D01*
X99327825Y-76659509D01*
X99391553Y-76620940D01*
X99478966Y-76587946D01*
X99478966Y-76713034D01*
X99471238Y-76798156D01*
X99440966Y-76869938D01*
X99377518Y-76952356D01*
X99368088Y-76963066D01*
X99297513Y-77036391D01*
X99236847Y-77075742D01*
X99160950Y-77093845D01*
X99098030Y-77099774D01*
X98985487Y-77101251D01*
X98905370Y-77082535D01*
X98855390Y-77054747D01*
X98776838Y-76993641D01*
X98722463Y-76927554D01*
X98688052Y-76844441D01*
X98669388Y-76732254D01*
X98662256Y-76578946D01*
X98661687Y-76501136D01*
X98663622Y-76407853D01*
X98839899Y-76407853D01*
X98841944Y-76457896D01*
X98847039Y-76466092D01*
X98880666Y-76454958D01*
X98953030Y-76425493D01*
X99049747Y-76383601D01*
X99069973Y-76374597D01*
X99192203Y-76312442D01*
X99259547Y-76257815D01*
X99274348Y-76206649D01*
X99238947Y-76154876D01*
X99209711Y-76132000D01*
X99104216Y-76086250D01*
X99005476Y-76093808D01*
X98922812Y-76149651D01*
X98865548Y-76248753D01*
X98847188Y-76327414D01*
X98839899Y-76407853D01*
X98663622Y-76407853D01*
X98665459Y-76319351D01*
X98679359Y-76184853D01*
X98706894Y-76086916D01*
X98751572Y-76014811D01*
X98816901Y-75957813D01*
X98845383Y-75939393D01*
X98974763Y-75891422D01*
X99116412Y-75888403D01*
X99253439Y-75926540D01*
G37*
X99253439Y-75926540D02*
X99368950Y-76002034D01*
X99424664Y-76069617D01*
X99468804Y-76192255D01*
X99472309Y-76289298D01*
X99464368Y-76419056D01*
X99165115Y-76550039D01*
X99019611Y-76616958D01*
X98924537Y-76670790D01*
X98875101Y-76717416D01*
X98866511Y-76762720D01*
X98893972Y-76812582D01*
X98924253Y-76845632D01*
X99012363Y-76898633D01*
X99108196Y-76902347D01*
X99196212Y-76861041D01*
X99260869Y-76778983D01*
X99272433Y-76750008D01*
X99327825Y-76659509D01*
X99391553Y-76620940D01*
X99478966Y-76587946D01*
X99478966Y-76713034D01*
X99471238Y-76798156D01*
X99440966Y-76869938D01*
X99377518Y-76952356D01*
X99368088Y-76963066D01*
X99297513Y-77036391D01*
X99236847Y-77075742D01*
X99160950Y-77093845D01*
X99098030Y-77099774D01*
X98985487Y-77101251D01*
X98905370Y-77082535D01*
X98855390Y-77054747D01*
X98776838Y-76993641D01*
X98722463Y-76927554D01*
X98688052Y-76844441D01*
X98669388Y-76732254D01*
X98662256Y-76578946D01*
X98661687Y-76501136D01*
X98663622Y-76407853D01*
X98839899Y-76407853D01*
X98841944Y-76457896D01*
X98847039Y-76466092D01*
X98880666Y-76454958D01*
X98953030Y-76425493D01*
X99049747Y-76383601D01*
X99069973Y-76374597D01*
X99192203Y-76312442D01*
X99259547Y-76257815D01*
X99274348Y-76206649D01*
X99238947Y-76154876D01*
X99209711Y-76132000D01*
X99104216Y-76086250D01*
X99005476Y-76093808D01*
X98922812Y-76149651D01*
X98865548Y-76248753D01*
X98847188Y-76327414D01*
X98839899Y-76407853D01*
X98663622Y-76407853D01*
X98665459Y-76319351D01*
X98679359Y-76184853D01*
X98706894Y-76086916D01*
X98751572Y-76014811D01*
X98816901Y-75957813D01*
X98845383Y-75939393D01*
X98974763Y-75891422D01*
X99116412Y-75888403D01*
X99253439Y-75926540D01*
G36*
X93119014Y-66422998D02*
G01*
X93277006Y-66423863D01*
X93391347Y-66426205D01*
X93469407Y-66430762D01*
X93518554Y-66438270D01*
X93546159Y-66449466D01*
X93559592Y-66465088D01*
X93566221Y-66485873D01*
X93566865Y-66488563D01*
X93576935Y-66537113D01*
X93595575Y-66632905D01*
X93620845Y-66765743D01*
X93650807Y-66925431D01*
X93683522Y-67101774D01*
X93684664Y-67107967D01*
X93717433Y-67280782D01*
X93748093Y-67433469D01*
X93774664Y-67556871D01*
X93795167Y-67641831D01*
X93807626Y-67679190D01*
X93808220Y-67679852D01*
X93844919Y-67698095D01*
X93920586Y-67728497D01*
X94018878Y-67764493D01*
X94019425Y-67764685D01*
X94143233Y-67811222D01*
X94289196Y-67870504D01*
X94426781Y-67930109D01*
X94433293Y-67933056D01*
X94657390Y-68034765D01*
X95153619Y-67695897D01*
X95305846Y-67592592D01*
X95443741Y-67500237D01*
X95559315Y-67424084D01*
X95644579Y-67369385D01*
X95691544Y-67341393D01*
X95696004Y-67339317D01*
X95730134Y-67348560D01*
X95793881Y-67393156D01*
X95889731Y-67475209D01*
X96020169Y-67596821D01*
X96153328Y-67726205D01*
X96281694Y-67853702D01*
X96396581Y-67970046D01*
X96491073Y-68068052D01*
X96558253Y-68140536D01*
X96591206Y-68180313D01*
X96592432Y-68182361D01*
X96596074Y-68209656D01*
X96582350Y-68254234D01*
X96547869Y-68322112D01*
X96489239Y-68419311D01*
X96403070Y-68551851D01*
X96288200Y-68722476D01*
X96186254Y-68872655D01*
X96095123Y-69007350D01*
X96020073Y-69118740D01*
X95966369Y-69199005D01*
X95939280Y-69240325D01*
X95937574Y-69243130D01*
X95940882Y-69282721D01*
X95965953Y-69359669D01*
X96007798Y-69459432D01*
X96022712Y-69491291D01*
X96087786Y-69633226D01*
X96157212Y-69794273D01*
X96213609Y-69933621D01*
X96254247Y-70037044D01*
X96286526Y-70115642D01*
X96305178Y-70156720D01*
X96307497Y-70159885D01*
X96341803Y-70165128D01*
X96422669Y-70179494D01*
X96539343Y-70200937D01*
X96681075Y-70227413D01*
X96837110Y-70256877D01*
X96996698Y-70287283D01*
X97149085Y-70316588D01*
X97283521Y-70342745D01*
X97389252Y-70363710D01*
X97455526Y-70377439D01*
X97471782Y-70381320D01*
X97488573Y-70390900D01*
X97501249Y-70412536D01*
X97510378Y-70453531D01*
X97516531Y-70521189D01*
X97520280Y-70622812D01*
X97522192Y-70765703D01*
X97522840Y-70957165D01*
X97522874Y-71035645D01*
X97522874Y-71673906D01*
X97369598Y-71704160D01*
X97284322Y-71720564D01*
X97157070Y-71744509D01*
X97003315Y-71773107D01*
X96838534Y-71803467D01*
X96792989Y-71811806D01*
X96640932Y-71841370D01*
X96508468Y-71870442D01*
X96406714Y-71896329D01*
X96346788Y-71916337D01*
X96336805Y-71922301D01*
X96312293Y-71964534D01*
X96277148Y-72046370D01*
X96238173Y-72151683D01*
X96230442Y-72174368D01*
X96179360Y-72315018D01*
X96115954Y-72473714D01*
X96053904Y-72616225D01*
X96053598Y-72616886D01*
X95950267Y-72840440D01*
X96629961Y-73840232D01*
X96193621Y-74277300D01*
X96061649Y-74407381D01*
X95941279Y-74522048D01*
X95839273Y-74615181D01*
X95762391Y-74680658D01*
X95717393Y-74712357D01*
X95710938Y-74714368D01*
X95673040Y-74698529D01*
X95595708Y-74654496D01*
X95487389Y-74587490D01*
X95356532Y-74502734D01*
X95215052Y-74407816D01*
X95071461Y-74310998D01*
X94943435Y-74226751D01*
X94839105Y-74160258D01*
X94766600Y-74116702D01*
X94734158Y-74101264D01*
X94694576Y-74114328D01*
X94619519Y-74148750D01*
X94524468Y-74197380D01*
X94514392Y-74202785D01*
X94386391Y-74266980D01*
X94298618Y-74298463D01*
X94244028Y-74298798D01*
X94215575Y-74269548D01*
X94215410Y-74269138D01*
X94201188Y-74234498D01*
X94167269Y-74152269D01*
X94116284Y-74028814D01*
X94050862Y-73870498D01*
X93973634Y-73683686D01*
X93887229Y-73474742D01*
X93803551Y-73272446D01*
X93711588Y-73049200D01*
X93627150Y-72842392D01*
X93552769Y-72658362D01*
X93490974Y-72503451D01*
X93444297Y-72383996D01*
X93415268Y-72306339D01*
X93406322Y-72277356D01*
X93428756Y-72244110D01*
X93487439Y-72191123D01*
X93565689Y-72132704D01*
X93788534Y-71947952D01*
X93962718Y-71736182D01*
X94086154Y-71501856D01*
X94156754Y-71249434D01*
X94172431Y-70983377D01*
X94161036Y-70860575D01*
X94098950Y-70605793D01*
X93992023Y-70380801D01*
X93846889Y-70187817D01*
X93670178Y-70029061D01*
X93468522Y-69906750D01*
X93248554Y-69823105D01*
X93016906Y-69780344D01*
X92780209Y-69780687D01*
X92545095Y-69826352D01*
X92318196Y-69919559D01*
X92106144Y-70062527D01*
X92017636Y-70143383D01*
X91847889Y-70351007D01*
X91729699Y-70577895D01*
X91662278Y-70817433D01*
X91644840Y-71063007D01*
X91676598Y-71308003D01*
X91756765Y-71545808D01*
X91884555Y-71769807D01*
X92059180Y-71973387D01*
X92254312Y-72132704D01*
X92335591Y-72193602D01*
X92393009Y-72246015D01*
X92413678Y-72277406D01*
X92402856Y-72311639D01*
X92372077Y-72393419D01*
X92323874Y-72516407D01*
X92260778Y-72674263D01*
X92185322Y-72860649D01*
X92100038Y-73069226D01*
X92016219Y-73272496D01*
X91923745Y-73495933D01*
X91838089Y-73702984D01*
X91761882Y-73887286D01*
X91697753Y-74042475D01*
X91648332Y-74162188D01*
X91616248Y-74240061D01*
X91604359Y-74269138D01*
X91576274Y-74298677D01*
X91521949Y-74298591D01*
X91434395Y-74267326D01*
X91306619Y-74203329D01*
X91305608Y-74202785D01*
X91209402Y-74153121D01*
X91131631Y-74116945D01*
X91087777Y-74101408D01*
X91085842Y-74101264D01*
X91052829Y-74117024D01*
X90979946Y-74160850D01*
X90875322Y-74227557D01*
X90747090Y-74311964D01*
X90604948Y-74407816D01*
X90460233Y-74504867D01*
X90329804Y-74589270D01*
X90222110Y-74655801D01*
X90145598Y-74699238D01*
X90109062Y-74714368D01*
X90075418Y-74694482D01*
X90007776Y-74638903D01*
X89912893Y-74553754D01*
X89797530Y-74445153D01*
X89668445Y-74319221D01*
X89626229Y-74277149D01*
X89189739Y-73839931D01*
X89521977Y-73352340D01*
X89622946Y-73202605D01*
X89711562Y-73068220D01*
X89782854Y-72956969D01*
X89831850Y-72876639D01*
X89853578Y-72835014D01*
X89854215Y-72832053D01*
X89842760Y-72792818D01*
X89811949Y-72713895D01*
X89767116Y-72608509D01*
X89735647Y-72537954D01*
X89676808Y-72402876D01*
X89621396Y-72266409D01*
X89578436Y-72151103D01*
X89566766Y-72115977D01*
X89533611Y-72022174D01*
X89501201Y-71949694D01*
X89483399Y-71922301D01*
X89444114Y-71905536D01*
X89358374Y-71881770D01*
X89237303Y-71853697D01*
X89092027Y-71824009D01*
X89027012Y-71811806D01*
X88861913Y-71781468D01*
X88703552Y-71752093D01*
X88567404Y-71726569D01*
X88468943Y-71707785D01*
X88450402Y-71704160D01*
X88297127Y-71673906D01*
X88297127Y-71035645D01*
X88297471Y-70825770D01*
X88298884Y-70666980D01*
X88301936Y-70551973D01*
X88307197Y-70473446D01*
X88315237Y-70424096D01*
X88326627Y-70396619D01*
X88341937Y-70383713D01*
X88348218Y-70381320D01*
X88386104Y-70372833D01*
X88469805Y-70355900D01*
X88588567Y-70332566D01*
X88731639Y-70304875D01*
X88888268Y-70274873D01*
X89047703Y-70244604D01*
X89199191Y-70216115D01*
X89331981Y-70191449D01*
X89435319Y-70172651D01*
X89498455Y-70161767D01*
X89512503Y-70159885D01*
X89525230Y-70134704D01*
X89553400Y-70067622D01*
X89591748Y-69971333D01*
X89606391Y-69933621D01*
X89665452Y-69787921D01*
X89735000Y-69626951D01*
X89797288Y-69491291D01*
X89843121Y-69387561D01*
X89873613Y-69302326D01*
X89883792Y-69250126D01*
X89882169Y-69243130D01*
X89860657Y-69210102D01*
X89811535Y-69136643D01*
X89740077Y-69030577D01*
X89651555Y-68899726D01*
X89551241Y-68751912D01*
X89531406Y-68722734D01*
X89415012Y-68549863D01*
X89329452Y-68418226D01*
X89271316Y-68321761D01*
X89237192Y-68254408D01*
X89223669Y-68210106D01*
X89227336Y-68182794D01*
X89227430Y-68182620D01*
X89256293Y-68146746D01*
X89320133Y-68077391D01*
X89412031Y-67981745D01*
X89525067Y-67866999D01*
X89652321Y-67740341D01*
X89666672Y-67726205D01*
X89827043Y-67570903D01*
X89950805Y-67456870D01*
X90040445Y-67382002D01*
X90098448Y-67344196D01*
X90123996Y-67339317D01*
X90161282Y-67360603D01*
X90238657Y-67409773D01*
X90348133Y-67481575D01*
X90481720Y-67570755D01*
X90631430Y-67672063D01*
X90666382Y-67695897D01*
X91162610Y-68034765D01*
X91386707Y-67933056D01*
X91522989Y-67873783D01*
X91669276Y-67814170D01*
X91795035Y-67766640D01*
X91800575Y-67764685D01*
X91898943Y-67728677D01*
X91974771Y-67698229D01*
X92011718Y-67679905D01*
X92011780Y-67679852D01*
X92023504Y-67646729D01*
X92043432Y-67565267D01*
X92069587Y-67444625D01*
X92099990Y-67293959D01*
X92132663Y-67122428D01*
X92135336Y-67107967D01*
X92168110Y-66931235D01*
X92198198Y-66770810D01*
X92223661Y-66636888D01*
X92242559Y-66539663D01*
X92252953Y-66489332D01*
X92253135Y-66488563D01*
X92259461Y-66467153D01*
X92271761Y-66450988D01*
X92297406Y-66439331D01*
X92343765Y-66431445D01*
X92418208Y-66426593D01*
X92528105Y-66424039D01*
X92680825Y-66423045D01*
X92883738Y-66422874D01*
X92910000Y-66422874D01*
X93119014Y-66422998D01*
G37*
X93119014Y-66422998D02*
X93277006Y-66423863D01*
X93391347Y-66426205D01*
X93469407Y-66430762D01*
X93518554Y-66438270D01*
X93546159Y-66449466D01*
X93559592Y-66465088D01*
X93566221Y-66485873D01*
X93566865Y-66488563D01*
X93576935Y-66537113D01*
X93595575Y-66632905D01*
X93620845Y-66765743D01*
X93650807Y-66925431D01*
X93683522Y-67101774D01*
X93684664Y-67107967D01*
X93717433Y-67280782D01*
X93748093Y-67433469D01*
X93774664Y-67556871D01*
X93795167Y-67641831D01*
X93807626Y-67679190D01*
X93808220Y-67679852D01*
X93844919Y-67698095D01*
X93920586Y-67728497D01*
X94018878Y-67764493D01*
X94019425Y-67764685D01*
X94143233Y-67811222D01*
X94289196Y-67870504D01*
X94426781Y-67930109D01*
X94433293Y-67933056D01*
X94657390Y-68034765D01*
X95153619Y-67695897D01*
X95305846Y-67592592D01*
X95443741Y-67500237D01*
X95559315Y-67424084D01*
X95644579Y-67369385D01*
X95691544Y-67341393D01*
X95696004Y-67339317D01*
X95730134Y-67348560D01*
X95793881Y-67393156D01*
X95889731Y-67475209D01*
X96020169Y-67596821D01*
X96153328Y-67726205D01*
X96281694Y-67853702D01*
X96396581Y-67970046D01*
X96491073Y-68068052D01*
X96558253Y-68140536D01*
X96591206Y-68180313D01*
X96592432Y-68182361D01*
X96596074Y-68209656D01*
X96582350Y-68254234D01*
X96547869Y-68322112D01*
X96489239Y-68419311D01*
X96403070Y-68551851D01*
X96288200Y-68722476D01*
X96186254Y-68872655D01*
X96095123Y-69007350D01*
X96020073Y-69118740D01*
X95966369Y-69199005D01*
X95939280Y-69240325D01*
X95937574Y-69243130D01*
X95940882Y-69282721D01*
X95965953Y-69359669D01*
X96007798Y-69459432D01*
X96022712Y-69491291D01*
X96087786Y-69633226D01*
X96157212Y-69794273D01*
X96213609Y-69933621D01*
X96254247Y-70037044D01*
X96286526Y-70115642D01*
X96305178Y-70156720D01*
X96307497Y-70159885D01*
X96341803Y-70165128D01*
X96422669Y-70179494D01*
X96539343Y-70200937D01*
X96681075Y-70227413D01*
X96837110Y-70256877D01*
X96996698Y-70287283D01*
X97149085Y-70316588D01*
X97283521Y-70342745D01*
X97389252Y-70363710D01*
X97455526Y-70377439D01*
X97471782Y-70381320D01*
X97488573Y-70390900D01*
X97501249Y-70412536D01*
X97510378Y-70453531D01*
X97516531Y-70521189D01*
X97520280Y-70622812D01*
X97522192Y-70765703D01*
X97522840Y-70957165D01*
X97522874Y-71035645D01*
X97522874Y-71673906D01*
X97369598Y-71704160D01*
X97284322Y-71720564D01*
X97157070Y-71744509D01*
X97003315Y-71773107D01*
X96838534Y-71803467D01*
X96792989Y-71811806D01*
X96640932Y-71841370D01*
X96508468Y-71870442D01*
X96406714Y-71896329D01*
X96346788Y-71916337D01*
X96336805Y-71922301D01*
X96312293Y-71964534D01*
X96277148Y-72046370D01*
X96238173Y-72151683D01*
X96230442Y-72174368D01*
X96179360Y-72315018D01*
X96115954Y-72473714D01*
X96053904Y-72616225D01*
X96053598Y-72616886D01*
X95950267Y-72840440D01*
X96629961Y-73840232D01*
X96193621Y-74277300D01*
X96061649Y-74407381D01*
X95941279Y-74522048D01*
X95839273Y-74615181D01*
X95762391Y-74680658D01*
X95717393Y-74712357D01*
X95710938Y-74714368D01*
X95673040Y-74698529D01*
X95595708Y-74654496D01*
X95487389Y-74587490D01*
X95356532Y-74502734D01*
X95215052Y-74407816D01*
X95071461Y-74310998D01*
X94943435Y-74226751D01*
X94839105Y-74160258D01*
X94766600Y-74116702D01*
X94734158Y-74101264D01*
X94694576Y-74114328D01*
X94619519Y-74148750D01*
X94524468Y-74197380D01*
X94514392Y-74202785D01*
X94386391Y-74266980D01*
X94298618Y-74298463D01*
X94244028Y-74298798D01*
X94215575Y-74269548D01*
X94215410Y-74269138D01*
X94201188Y-74234498D01*
X94167269Y-74152269D01*
X94116284Y-74028814D01*
X94050862Y-73870498D01*
X93973634Y-73683686D01*
X93887229Y-73474742D01*
X93803551Y-73272446D01*
X93711588Y-73049200D01*
X93627150Y-72842392D01*
X93552769Y-72658362D01*
X93490974Y-72503451D01*
X93444297Y-72383996D01*
X93415268Y-72306339D01*
X93406322Y-72277356D01*
X93428756Y-72244110D01*
X93487439Y-72191123D01*
X93565689Y-72132704D01*
X93788534Y-71947952D01*
X93962718Y-71736182D01*
X94086154Y-71501856D01*
X94156754Y-71249434D01*
X94172431Y-70983377D01*
X94161036Y-70860575D01*
X94098950Y-70605793D01*
X93992023Y-70380801D01*
X93846889Y-70187817D01*
X93670178Y-70029061D01*
X93468522Y-69906750D01*
X93248554Y-69823105D01*
X93016906Y-69780344D01*
X92780209Y-69780687D01*
X92545095Y-69826352D01*
X92318196Y-69919559D01*
X92106144Y-70062527D01*
X92017636Y-70143383D01*
X91847889Y-70351007D01*
X91729699Y-70577895D01*
X91662278Y-70817433D01*
X91644840Y-71063007D01*
X91676598Y-71308003D01*
X91756765Y-71545808D01*
X91884555Y-71769807D01*
X92059180Y-71973387D01*
X92254312Y-72132704D01*
X92335591Y-72193602D01*
X92393009Y-72246015D01*
X92413678Y-72277406D01*
X92402856Y-72311639D01*
X92372077Y-72393419D01*
X92323874Y-72516407D01*
X92260778Y-72674263D01*
X92185322Y-72860649D01*
X92100038Y-73069226D01*
X92016219Y-73272496D01*
X91923745Y-73495933D01*
X91838089Y-73702984D01*
X91761882Y-73887286D01*
X91697753Y-74042475D01*
X91648332Y-74162188D01*
X91616248Y-74240061D01*
X91604359Y-74269138D01*
X91576274Y-74298677D01*
X91521949Y-74298591D01*
X91434395Y-74267326D01*
X91306619Y-74203329D01*
X91305608Y-74202785D01*
X91209402Y-74153121D01*
X91131631Y-74116945D01*
X91087777Y-74101408D01*
X91085842Y-74101264D01*
X91052829Y-74117024D01*
X90979946Y-74160850D01*
X90875322Y-74227557D01*
X90747090Y-74311964D01*
X90604948Y-74407816D01*
X90460233Y-74504867D01*
X90329804Y-74589270D01*
X90222110Y-74655801D01*
X90145598Y-74699238D01*
X90109062Y-74714368D01*
X90075418Y-74694482D01*
X90007776Y-74638903D01*
X89912893Y-74553754D01*
X89797530Y-74445153D01*
X89668445Y-74319221D01*
X89626229Y-74277149D01*
X89189739Y-73839931D01*
X89521977Y-73352340D01*
X89622946Y-73202605D01*
X89711562Y-73068220D01*
X89782854Y-72956969D01*
X89831850Y-72876639D01*
X89853578Y-72835014D01*
X89854215Y-72832053D01*
X89842760Y-72792818D01*
X89811949Y-72713895D01*
X89767116Y-72608509D01*
X89735647Y-72537954D01*
X89676808Y-72402876D01*
X89621396Y-72266409D01*
X89578436Y-72151103D01*
X89566766Y-72115977D01*
X89533611Y-72022174D01*
X89501201Y-71949694D01*
X89483399Y-71922301D01*
X89444114Y-71905536D01*
X89358374Y-71881770D01*
X89237303Y-71853697D01*
X89092027Y-71824009D01*
X89027012Y-71811806D01*
X88861913Y-71781468D01*
X88703552Y-71752093D01*
X88567404Y-71726569D01*
X88468943Y-71707785D01*
X88450402Y-71704160D01*
X88297127Y-71673906D01*
X88297127Y-71035645D01*
X88297471Y-70825770D01*
X88298884Y-70666980D01*
X88301936Y-70551973D01*
X88307197Y-70473446D01*
X88315237Y-70424096D01*
X88326627Y-70396619D01*
X88341937Y-70383713D01*
X88348218Y-70381320D01*
X88386104Y-70372833D01*
X88469805Y-70355900D01*
X88588567Y-70332566D01*
X88731639Y-70304875D01*
X88888268Y-70274873D01*
X89047703Y-70244604D01*
X89199191Y-70216115D01*
X89331981Y-70191449D01*
X89435319Y-70172651D01*
X89498455Y-70161767D01*
X89512503Y-70159885D01*
X89525230Y-70134704D01*
X89553400Y-70067622D01*
X89591748Y-69971333D01*
X89606391Y-69933621D01*
X89665452Y-69787921D01*
X89735000Y-69626951D01*
X89797288Y-69491291D01*
X89843121Y-69387561D01*
X89873613Y-69302326D01*
X89883792Y-69250126D01*
X89882169Y-69243130D01*
X89860657Y-69210102D01*
X89811535Y-69136643D01*
X89740077Y-69030577D01*
X89651555Y-68899726D01*
X89551241Y-68751912D01*
X89531406Y-68722734D01*
X89415012Y-68549863D01*
X89329452Y-68418226D01*
X89271316Y-68321761D01*
X89237192Y-68254408D01*
X89223669Y-68210106D01*
X89227336Y-68182794D01*
X89227430Y-68182620D01*
X89256293Y-68146746D01*
X89320133Y-68077391D01*
X89412031Y-67981745D01*
X89525067Y-67866999D01*
X89652321Y-67740341D01*
X89666672Y-67726205D01*
X89827043Y-67570903D01*
X89950805Y-67456870D01*
X90040445Y-67382002D01*
X90098448Y-67344196D01*
X90123996Y-67339317D01*
X90161282Y-67360603D01*
X90238657Y-67409773D01*
X90348133Y-67481575D01*
X90481720Y-67570755D01*
X90631430Y-67672063D01*
X90666382Y-67695897D01*
X91162610Y-68034765D01*
X91386707Y-67933056D01*
X91522989Y-67873783D01*
X91669276Y-67814170D01*
X91795035Y-67766640D01*
X91800575Y-67764685D01*
X91898943Y-67728677D01*
X91974771Y-67698229D01*
X92011718Y-67679905D01*
X92011780Y-67679852D01*
X92023504Y-67646729D01*
X92043432Y-67565267D01*
X92069587Y-67444625D01*
X92099990Y-67293959D01*
X92132663Y-67122428D01*
X92135336Y-67107967D01*
X92168110Y-66931235D01*
X92198198Y-66770810D01*
X92223661Y-66636888D01*
X92242559Y-66539663D01*
X92252953Y-66489332D01*
X92253135Y-66488563D01*
X92259461Y-66467153D01*
X92271761Y-66450988D01*
X92297406Y-66439331D01*
X92343765Y-66431445D01*
X92418208Y-66426593D01*
X92528105Y-66424039D01*
X92680825Y-66423045D01*
X92883738Y-66422874D01*
X92910000Y-66422874D01*
X93119014Y-66422998D01*
D13*
%TO.C,C2*%
X132880000Y-40682164D02*
X132880000Y-40897836D01*
X133600000Y-40682164D02*
X133600000Y-40897836D01*
%TO.C,C3*%
X137102164Y-43390000D02*
X137317836Y-43390000D01*
X137102164Y-44110000D02*
X137317836Y-44110000D01*
%TO.C,C4*%
X137102164Y-42950000D02*
X137317836Y-42950000D01*
X137102164Y-42230000D02*
X137317836Y-42230000D01*
%TO.C,C5*%
X134472164Y-73220000D02*
X134687836Y-73220000D01*
X134472164Y-73940000D02*
X134687836Y-73940000D01*
%TO.C,C6*%
X134472164Y-74220000D02*
X134687836Y-74220000D01*
X134472164Y-74940000D02*
X134687836Y-74940000D01*
%TO.C,C7*%
X72555225Y-39395000D02*
X72555225Y-39895000D01*
X72305225Y-39645000D02*
X72805225Y-39645000D01*
X77711000Y-40836000D02*
X77711000Y-41404000D01*
X77671000Y-40602000D02*
X77671000Y-41638000D01*
X77631000Y-40443000D02*
X77631000Y-41797000D01*
X77591000Y-40315000D02*
X77591000Y-41925000D01*
X77551000Y-40205000D02*
X77551000Y-42035000D01*
X77511000Y-40109000D02*
X77511000Y-42131000D01*
X77471000Y-40022000D02*
X77471000Y-42218000D01*
X77431000Y-39942000D02*
X77431000Y-42298000D01*
X77391000Y-42160000D02*
X77391000Y-42371000D01*
X77391000Y-39869000D02*
X77391000Y-40080000D01*
X77351000Y-42160000D02*
X77351000Y-42439000D01*
X77351000Y-39801000D02*
X77351000Y-40080000D01*
X77311000Y-42160000D02*
X77311000Y-42503000D01*
X77311000Y-39737000D02*
X77311000Y-40080000D01*
X77271000Y-42160000D02*
X77271000Y-42563000D01*
X77271000Y-39677000D02*
X77271000Y-40080000D01*
X77231000Y-42160000D02*
X77231000Y-42620000D01*
X77231000Y-39620000D02*
X77231000Y-40080000D01*
X77191000Y-42160000D02*
X77191000Y-42674000D01*
X77191000Y-39566000D02*
X77191000Y-40080000D01*
X77151000Y-42160000D02*
X77151000Y-42725000D01*
X77151000Y-39515000D02*
X77151000Y-40080000D01*
X77111000Y-42160000D02*
X77111000Y-42773000D01*
X77111000Y-39467000D02*
X77111000Y-40080000D01*
X77071000Y-42160000D02*
X77071000Y-42819000D01*
X77071000Y-39421000D02*
X77071000Y-40080000D01*
X77031000Y-42160000D02*
X77031000Y-42863000D01*
X77031000Y-39377000D02*
X77031000Y-40080000D01*
X76991000Y-42160000D02*
X76991000Y-42905000D01*
X76991000Y-39335000D02*
X76991000Y-40080000D01*
X76951000Y-42160000D02*
X76951000Y-42946000D01*
X76951000Y-39294000D02*
X76951000Y-40080000D01*
X76911000Y-42160000D02*
X76911000Y-42984000D01*
X76911000Y-39256000D02*
X76911000Y-40080000D01*
X76871000Y-42160000D02*
X76871000Y-43021000D01*
X76871000Y-39219000D02*
X76871000Y-40080000D01*
X76831000Y-42160000D02*
X76831000Y-43057000D01*
X76831000Y-39183000D02*
X76831000Y-40080000D01*
X76791000Y-42160000D02*
X76791000Y-43091000D01*
X76791000Y-39149000D02*
X76791000Y-40080000D01*
X76751000Y-42160000D02*
X76751000Y-43124000D01*
X76751000Y-39116000D02*
X76751000Y-40080000D01*
X76711000Y-42160000D02*
X76711000Y-43155000D01*
X76711000Y-39085000D02*
X76711000Y-40080000D01*
X76671000Y-42160000D02*
X76671000Y-43185000D01*
X76671000Y-39055000D02*
X76671000Y-40080000D01*
X76631000Y-42160000D02*
X76631000Y-43215000D01*
X76631000Y-39025000D02*
X76631000Y-40080000D01*
X76591000Y-42160000D02*
X76591000Y-43242000D01*
X76591000Y-38998000D02*
X76591000Y-40080000D01*
X76551000Y-42160000D02*
X76551000Y-43269000D01*
X76551000Y-38971000D02*
X76551000Y-40080000D01*
X76511000Y-42160000D02*
X76511000Y-43295000D01*
X76511000Y-38945000D02*
X76511000Y-40080000D01*
X76471000Y-42160000D02*
X76471000Y-43320000D01*
X76471000Y-38920000D02*
X76471000Y-40080000D01*
X76431000Y-42160000D02*
X76431000Y-43344000D01*
X76431000Y-38896000D02*
X76431000Y-40080000D01*
X76391000Y-42160000D02*
X76391000Y-43367000D01*
X76391000Y-38873000D02*
X76391000Y-40080000D01*
X76351000Y-42160000D02*
X76351000Y-43388000D01*
X76351000Y-38852000D02*
X76351000Y-40080000D01*
X76311000Y-42160000D02*
X76311000Y-43410000D01*
X76311000Y-38830000D02*
X76311000Y-40080000D01*
X76271000Y-42160000D02*
X76271000Y-43430000D01*
X76271000Y-38810000D02*
X76271000Y-40080000D01*
X76231000Y-42160000D02*
X76231000Y-43449000D01*
X76231000Y-38791000D02*
X76231000Y-40080000D01*
X76191000Y-42160000D02*
X76191000Y-43468000D01*
X76191000Y-38772000D02*
X76191000Y-40080000D01*
X76151000Y-42160000D02*
X76151000Y-43485000D01*
X76151000Y-38755000D02*
X76151000Y-40080000D01*
X76111000Y-42160000D02*
X76111000Y-43502000D01*
X76111000Y-38738000D02*
X76111000Y-40080000D01*
X76071000Y-42160000D02*
X76071000Y-43518000D01*
X76071000Y-38722000D02*
X76071000Y-40080000D01*
X76031000Y-42160000D02*
X76031000Y-43534000D01*
X76031000Y-38706000D02*
X76031000Y-40080000D01*
X75991000Y-42160000D02*
X75991000Y-43548000D01*
X75991000Y-38692000D02*
X75991000Y-40080000D01*
X75951000Y-42160000D02*
X75951000Y-43562000D01*
X75951000Y-38678000D02*
X75951000Y-40080000D01*
X75911000Y-42160000D02*
X75911000Y-43575000D01*
X75911000Y-38665000D02*
X75911000Y-40080000D01*
X75871000Y-42160000D02*
X75871000Y-43588000D01*
X75871000Y-38652000D02*
X75871000Y-40080000D01*
X75831000Y-42160000D02*
X75831000Y-43600000D01*
X75831000Y-38640000D02*
X75831000Y-40080000D01*
X75790000Y-42160000D02*
X75790000Y-43611000D01*
X75790000Y-38629000D02*
X75790000Y-40080000D01*
X75750000Y-42160000D02*
X75750000Y-43621000D01*
X75750000Y-38619000D02*
X75750000Y-40080000D01*
X75710000Y-42160000D02*
X75710000Y-43631000D01*
X75710000Y-38609000D02*
X75710000Y-40080000D01*
X75670000Y-42160000D02*
X75670000Y-43640000D01*
X75670000Y-38600000D02*
X75670000Y-40080000D01*
X75630000Y-42160000D02*
X75630000Y-43648000D01*
X75630000Y-38592000D02*
X75630000Y-40080000D01*
X75590000Y-42160000D02*
X75590000Y-43656000D01*
X75590000Y-38584000D02*
X75590000Y-40080000D01*
X75550000Y-42160000D02*
X75550000Y-43663000D01*
X75550000Y-38577000D02*
X75550000Y-40080000D01*
X75510000Y-42160000D02*
X75510000Y-43670000D01*
X75510000Y-38570000D02*
X75510000Y-40080000D01*
X75470000Y-42160000D02*
X75470000Y-43676000D01*
X75470000Y-38564000D02*
X75470000Y-40080000D01*
X75430000Y-42160000D02*
X75430000Y-43681000D01*
X75430000Y-38559000D02*
X75430000Y-40080000D01*
X75390000Y-42160000D02*
X75390000Y-43685000D01*
X75390000Y-38555000D02*
X75390000Y-40080000D01*
X75350000Y-42160000D02*
X75350000Y-43689000D01*
X75350000Y-38551000D02*
X75350000Y-40080000D01*
X75310000Y-38547000D02*
X75310000Y-43693000D01*
X75270000Y-38544000D02*
X75270000Y-43696000D01*
X75230000Y-38542000D02*
X75230000Y-43698000D01*
X75190000Y-38541000D02*
X75190000Y-43699000D01*
X75150000Y-38540000D02*
X75150000Y-43700000D01*
X75110000Y-38540000D02*
X75110000Y-43700000D01*
X77730000Y-41120000D02*
G75*
G03*
X77730000Y-41120000I-2620000J0D01*
G01*
%TO.C,C8*%
X136732164Y-72310000D02*
X136947836Y-72310000D01*
X136732164Y-73030000D02*
X136947836Y-73030000D01*
%TO.C,C9*%
X71070000Y-53285000D02*
X73555000Y-53285000D01*
X73555000Y-53285000D02*
X73555000Y-51715000D01*
X73555000Y-51715000D02*
X71070000Y-51715000D01*
%TO.C,C10*%
X136732164Y-72020000D02*
X136947836Y-72020000D01*
X136732164Y-71300000D02*
X136947836Y-71300000D01*
%TO.C,C11*%
X137112164Y-41920000D02*
X137327836Y-41920000D01*
X137112164Y-41200000D02*
X137327836Y-41200000D01*
%TO.C,C12*%
X72277836Y-53640000D02*
X72062164Y-53640000D01*
X72277836Y-54360000D02*
X72062164Y-54360000D01*
%TO.C,C13*%
X83630000Y-40920000D02*
G75*
G03*
X83630000Y-40920000I-2620000J0D01*
G01*
X81010000Y-43500000D02*
X81010000Y-38340000D01*
X80970000Y-43500000D02*
X80970000Y-38340000D01*
X80930000Y-43499000D02*
X80930000Y-38341000D01*
X80890000Y-43498000D02*
X80890000Y-38342000D01*
X80850000Y-43496000D02*
X80850000Y-38344000D01*
X80810000Y-43493000D02*
X80810000Y-38347000D01*
X80770000Y-43489000D02*
X80770000Y-41960000D01*
X80770000Y-39880000D02*
X80770000Y-38351000D01*
X80730000Y-43485000D02*
X80730000Y-41960000D01*
X80730000Y-39880000D02*
X80730000Y-38355000D01*
X80690000Y-43481000D02*
X80690000Y-41960000D01*
X80690000Y-39880000D02*
X80690000Y-38359000D01*
X80650000Y-43476000D02*
X80650000Y-41960000D01*
X80650000Y-39880000D02*
X80650000Y-38364000D01*
X80610000Y-43470000D02*
X80610000Y-41960000D01*
X80610000Y-39880000D02*
X80610000Y-38370000D01*
X80570000Y-43463000D02*
X80570000Y-41960000D01*
X80570000Y-39880000D02*
X80570000Y-38377000D01*
X80530000Y-43456000D02*
X80530000Y-41960000D01*
X80530000Y-39880000D02*
X80530000Y-38384000D01*
X80490000Y-43448000D02*
X80490000Y-41960000D01*
X80490000Y-39880000D02*
X80490000Y-38392000D01*
X80450000Y-43440000D02*
X80450000Y-41960000D01*
X80450000Y-39880000D02*
X80450000Y-38400000D01*
X80410000Y-43431000D02*
X80410000Y-41960000D01*
X80410000Y-39880000D02*
X80410000Y-38409000D01*
X80370000Y-43421000D02*
X80370000Y-41960000D01*
X80370000Y-39880000D02*
X80370000Y-38419000D01*
X80330000Y-43411000D02*
X80330000Y-41960000D01*
X80330000Y-39880000D02*
X80330000Y-38429000D01*
X80289000Y-43400000D02*
X80289000Y-41960000D01*
X80289000Y-39880000D02*
X80289000Y-38440000D01*
X80249000Y-43388000D02*
X80249000Y-41960000D01*
X80249000Y-39880000D02*
X80249000Y-38452000D01*
X80209000Y-43375000D02*
X80209000Y-41960000D01*
X80209000Y-39880000D02*
X80209000Y-38465000D01*
X80169000Y-43362000D02*
X80169000Y-41960000D01*
X80169000Y-39880000D02*
X80169000Y-38478000D01*
X80129000Y-43348000D02*
X80129000Y-41960000D01*
X80129000Y-39880000D02*
X80129000Y-38492000D01*
X80089000Y-43334000D02*
X80089000Y-41960000D01*
X80089000Y-39880000D02*
X80089000Y-38506000D01*
X80049000Y-43318000D02*
X80049000Y-41960000D01*
X80049000Y-39880000D02*
X80049000Y-38522000D01*
X80009000Y-43302000D02*
X80009000Y-41960000D01*
X80009000Y-39880000D02*
X80009000Y-38538000D01*
X79969000Y-43285000D02*
X79969000Y-41960000D01*
X79969000Y-39880000D02*
X79969000Y-38555000D01*
X79929000Y-43268000D02*
X79929000Y-41960000D01*
X79929000Y-39880000D02*
X79929000Y-38572000D01*
X79889000Y-43249000D02*
X79889000Y-41960000D01*
X79889000Y-39880000D02*
X79889000Y-38591000D01*
X79849000Y-43230000D02*
X79849000Y-41960000D01*
X79849000Y-39880000D02*
X79849000Y-38610000D01*
X79809000Y-43210000D02*
X79809000Y-41960000D01*
X79809000Y-39880000D02*
X79809000Y-38630000D01*
X79769000Y-43188000D02*
X79769000Y-41960000D01*
X79769000Y-39880000D02*
X79769000Y-38652000D01*
X79729000Y-43167000D02*
X79729000Y-41960000D01*
X79729000Y-39880000D02*
X79729000Y-38673000D01*
X79689000Y-43144000D02*
X79689000Y-41960000D01*
X79689000Y-39880000D02*
X79689000Y-38696000D01*
X79649000Y-43120000D02*
X79649000Y-41960000D01*
X79649000Y-39880000D02*
X79649000Y-38720000D01*
X79609000Y-43095000D02*
X79609000Y-41960000D01*
X79609000Y-39880000D02*
X79609000Y-38745000D01*
X79569000Y-43069000D02*
X79569000Y-41960000D01*
X79569000Y-39880000D02*
X79569000Y-38771000D01*
X79529000Y-43042000D02*
X79529000Y-41960000D01*
X79529000Y-39880000D02*
X79529000Y-38798000D01*
X79489000Y-43015000D02*
X79489000Y-41960000D01*
X79489000Y-39880000D02*
X79489000Y-38825000D01*
X79449000Y-42985000D02*
X79449000Y-41960000D01*
X79449000Y-39880000D02*
X79449000Y-38855000D01*
X79409000Y-42955000D02*
X79409000Y-41960000D01*
X79409000Y-39880000D02*
X79409000Y-38885000D01*
X79369000Y-42924000D02*
X79369000Y-41960000D01*
X79369000Y-39880000D02*
X79369000Y-38916000D01*
X79329000Y-42891000D02*
X79329000Y-41960000D01*
X79329000Y-39880000D02*
X79329000Y-38949000D01*
X79289000Y-42857000D02*
X79289000Y-41960000D01*
X79289000Y-39880000D02*
X79289000Y-38983000D01*
X79249000Y-42821000D02*
X79249000Y-41960000D01*
X79249000Y-39880000D02*
X79249000Y-39019000D01*
X79209000Y-42784000D02*
X79209000Y-41960000D01*
X79209000Y-39880000D02*
X79209000Y-39056000D01*
X79169000Y-42746000D02*
X79169000Y-41960000D01*
X79169000Y-39880000D02*
X79169000Y-39094000D01*
X79129000Y-42705000D02*
X79129000Y-41960000D01*
X79129000Y-39880000D02*
X79129000Y-39135000D01*
X79089000Y-42663000D02*
X79089000Y-41960000D01*
X79089000Y-39880000D02*
X79089000Y-39177000D01*
X79049000Y-42619000D02*
X79049000Y-41960000D01*
X79049000Y-39880000D02*
X79049000Y-39221000D01*
X79009000Y-42573000D02*
X79009000Y-41960000D01*
X79009000Y-39880000D02*
X79009000Y-39267000D01*
X78969000Y-42525000D02*
X78969000Y-41960000D01*
X78969000Y-39880000D02*
X78969000Y-39315000D01*
X78929000Y-42474000D02*
X78929000Y-41960000D01*
X78929000Y-39880000D02*
X78929000Y-39366000D01*
X78889000Y-42420000D02*
X78889000Y-41960000D01*
X78889000Y-39880000D02*
X78889000Y-39420000D01*
X78849000Y-42363000D02*
X78849000Y-41960000D01*
X78849000Y-39880000D02*
X78849000Y-39477000D01*
X78809000Y-42303000D02*
X78809000Y-41960000D01*
X78809000Y-39880000D02*
X78809000Y-39537000D01*
X78769000Y-42239000D02*
X78769000Y-41960000D01*
X78769000Y-39880000D02*
X78769000Y-39601000D01*
X78729000Y-42171000D02*
X78729000Y-41960000D01*
X78729000Y-39880000D02*
X78729000Y-39669000D01*
X78689000Y-42098000D02*
X78689000Y-39742000D01*
X78649000Y-42018000D02*
X78649000Y-39822000D01*
X78609000Y-41931000D02*
X78609000Y-39909000D01*
X78569000Y-41835000D02*
X78569000Y-40005000D01*
X78529000Y-41725000D02*
X78529000Y-40115000D01*
X78489000Y-41597000D02*
X78489000Y-40243000D01*
X78449000Y-41438000D02*
X78449000Y-40402000D01*
X78409000Y-41204000D02*
X78409000Y-40636000D01*
X83814775Y-42395000D02*
X83314775Y-42395000D01*
X83564775Y-42645000D02*
X83564775Y-42145000D01*
%TO.C,C14*%
X72855000Y-50485000D02*
X72855000Y-48000000D01*
X71285000Y-50485000D02*
X72855000Y-50485000D01*
X71285000Y-48000000D02*
X71285000Y-50485000D01*
%TO.C,C15*%
X70110000Y-49727836D02*
X70110000Y-49512164D01*
X70830000Y-49727836D02*
X70830000Y-49512164D01*
%TO.C,C16*%
X84555225Y-39395000D02*
X84555225Y-39895000D01*
X84305225Y-39645000D02*
X84805225Y-39645000D01*
X89711000Y-40836000D02*
X89711000Y-41404000D01*
X89671000Y-40602000D02*
X89671000Y-41638000D01*
X89631000Y-40443000D02*
X89631000Y-41797000D01*
X89591000Y-40315000D02*
X89591000Y-41925000D01*
X89551000Y-40205000D02*
X89551000Y-42035000D01*
X89511000Y-40109000D02*
X89511000Y-42131000D01*
X89471000Y-40022000D02*
X89471000Y-42218000D01*
X89431000Y-39942000D02*
X89431000Y-42298000D01*
X89391000Y-42160000D02*
X89391000Y-42371000D01*
X89391000Y-39869000D02*
X89391000Y-40080000D01*
X89351000Y-42160000D02*
X89351000Y-42439000D01*
X89351000Y-39801000D02*
X89351000Y-40080000D01*
X89311000Y-42160000D02*
X89311000Y-42503000D01*
X89311000Y-39737000D02*
X89311000Y-40080000D01*
X89271000Y-42160000D02*
X89271000Y-42563000D01*
X89271000Y-39677000D02*
X89271000Y-40080000D01*
X89231000Y-42160000D02*
X89231000Y-42620000D01*
X89231000Y-39620000D02*
X89231000Y-40080000D01*
X89191000Y-42160000D02*
X89191000Y-42674000D01*
X89191000Y-39566000D02*
X89191000Y-40080000D01*
X89151000Y-42160000D02*
X89151000Y-42725000D01*
X89151000Y-39515000D02*
X89151000Y-40080000D01*
X89111000Y-42160000D02*
X89111000Y-42773000D01*
X89111000Y-39467000D02*
X89111000Y-40080000D01*
X89071000Y-42160000D02*
X89071000Y-42819000D01*
X89071000Y-39421000D02*
X89071000Y-40080000D01*
X89031000Y-42160000D02*
X89031000Y-42863000D01*
X89031000Y-39377000D02*
X89031000Y-40080000D01*
X88991000Y-42160000D02*
X88991000Y-42905000D01*
X88991000Y-39335000D02*
X88991000Y-40080000D01*
X88951000Y-42160000D02*
X88951000Y-42946000D01*
X88951000Y-39294000D02*
X88951000Y-40080000D01*
X88911000Y-42160000D02*
X88911000Y-42984000D01*
X88911000Y-39256000D02*
X88911000Y-40080000D01*
X88871000Y-42160000D02*
X88871000Y-43021000D01*
X88871000Y-39219000D02*
X88871000Y-40080000D01*
X88831000Y-42160000D02*
X88831000Y-43057000D01*
X88831000Y-39183000D02*
X88831000Y-40080000D01*
X88791000Y-42160000D02*
X88791000Y-43091000D01*
X88791000Y-39149000D02*
X88791000Y-40080000D01*
X88751000Y-42160000D02*
X88751000Y-43124000D01*
X88751000Y-39116000D02*
X88751000Y-40080000D01*
X88711000Y-42160000D02*
X88711000Y-43155000D01*
X88711000Y-39085000D02*
X88711000Y-40080000D01*
X88671000Y-42160000D02*
X88671000Y-43185000D01*
X88671000Y-39055000D02*
X88671000Y-40080000D01*
X88631000Y-42160000D02*
X88631000Y-43215000D01*
X88631000Y-39025000D02*
X88631000Y-40080000D01*
X88591000Y-42160000D02*
X88591000Y-43242000D01*
X88591000Y-38998000D02*
X88591000Y-40080000D01*
X88551000Y-42160000D02*
X88551000Y-43269000D01*
X88551000Y-38971000D02*
X88551000Y-40080000D01*
X88511000Y-42160000D02*
X88511000Y-43295000D01*
X88511000Y-38945000D02*
X88511000Y-40080000D01*
X88471000Y-42160000D02*
X88471000Y-43320000D01*
X88471000Y-38920000D02*
X88471000Y-40080000D01*
X88431000Y-42160000D02*
X88431000Y-43344000D01*
X88431000Y-38896000D02*
X88431000Y-40080000D01*
X88391000Y-42160000D02*
X88391000Y-43367000D01*
X88391000Y-38873000D02*
X88391000Y-40080000D01*
X88351000Y-42160000D02*
X88351000Y-43388000D01*
X88351000Y-38852000D02*
X88351000Y-40080000D01*
X88311000Y-42160000D02*
X88311000Y-43410000D01*
X88311000Y-38830000D02*
X88311000Y-40080000D01*
X88271000Y-42160000D02*
X88271000Y-43430000D01*
X88271000Y-38810000D02*
X88271000Y-40080000D01*
X88231000Y-42160000D02*
X88231000Y-43449000D01*
X88231000Y-38791000D02*
X88231000Y-40080000D01*
X88191000Y-42160000D02*
X88191000Y-43468000D01*
X88191000Y-38772000D02*
X88191000Y-40080000D01*
X88151000Y-42160000D02*
X88151000Y-43485000D01*
X88151000Y-38755000D02*
X88151000Y-40080000D01*
X88111000Y-42160000D02*
X88111000Y-43502000D01*
X88111000Y-38738000D02*
X88111000Y-40080000D01*
X88071000Y-42160000D02*
X88071000Y-43518000D01*
X88071000Y-38722000D02*
X88071000Y-40080000D01*
X88031000Y-42160000D02*
X88031000Y-43534000D01*
X88031000Y-38706000D02*
X88031000Y-40080000D01*
X87991000Y-42160000D02*
X87991000Y-43548000D01*
X87991000Y-38692000D02*
X87991000Y-40080000D01*
X87951000Y-42160000D02*
X87951000Y-43562000D01*
X87951000Y-38678000D02*
X87951000Y-40080000D01*
X87911000Y-42160000D02*
X87911000Y-43575000D01*
X87911000Y-38665000D02*
X87911000Y-40080000D01*
X87871000Y-42160000D02*
X87871000Y-43588000D01*
X87871000Y-38652000D02*
X87871000Y-40080000D01*
X87831000Y-42160000D02*
X87831000Y-43600000D01*
X87831000Y-38640000D02*
X87831000Y-40080000D01*
X87790000Y-42160000D02*
X87790000Y-43611000D01*
X87790000Y-38629000D02*
X87790000Y-40080000D01*
X87750000Y-42160000D02*
X87750000Y-43621000D01*
X87750000Y-38619000D02*
X87750000Y-40080000D01*
X87710000Y-42160000D02*
X87710000Y-43631000D01*
X87710000Y-38609000D02*
X87710000Y-40080000D01*
X87670000Y-42160000D02*
X87670000Y-43640000D01*
X87670000Y-38600000D02*
X87670000Y-40080000D01*
X87630000Y-42160000D02*
X87630000Y-43648000D01*
X87630000Y-38592000D02*
X87630000Y-40080000D01*
X87590000Y-42160000D02*
X87590000Y-43656000D01*
X87590000Y-38584000D02*
X87590000Y-40080000D01*
X87550000Y-42160000D02*
X87550000Y-43663000D01*
X87550000Y-38577000D02*
X87550000Y-40080000D01*
X87510000Y-42160000D02*
X87510000Y-43670000D01*
X87510000Y-38570000D02*
X87510000Y-40080000D01*
X87470000Y-42160000D02*
X87470000Y-43676000D01*
X87470000Y-38564000D02*
X87470000Y-40080000D01*
X87430000Y-42160000D02*
X87430000Y-43681000D01*
X87430000Y-38559000D02*
X87430000Y-40080000D01*
X87390000Y-42160000D02*
X87390000Y-43685000D01*
X87390000Y-38555000D02*
X87390000Y-40080000D01*
X87350000Y-42160000D02*
X87350000Y-43689000D01*
X87350000Y-38551000D02*
X87350000Y-40080000D01*
X87310000Y-38547000D02*
X87310000Y-43693000D01*
X87270000Y-38544000D02*
X87270000Y-43696000D01*
X87230000Y-38542000D02*
X87230000Y-43698000D01*
X87190000Y-38541000D02*
X87190000Y-43699000D01*
X87150000Y-38540000D02*
X87150000Y-43700000D01*
X87110000Y-38540000D02*
X87110000Y-43700000D01*
X89730000Y-41120000D02*
G75*
G03*
X89730000Y-41120000I-2620000J0D01*
G01*
%TO.C,C17*%
X96130000Y-41120000D02*
G75*
G03*
X96130000Y-41120000I-2620000J0D01*
G01*
X93510000Y-43700000D02*
X93510000Y-38540000D01*
X93470000Y-43700000D02*
X93470000Y-38540000D01*
X93430000Y-43699000D02*
X93430000Y-38541000D01*
X93390000Y-43698000D02*
X93390000Y-38542000D01*
X93350000Y-43696000D02*
X93350000Y-38544000D01*
X93310000Y-43693000D02*
X93310000Y-38547000D01*
X93270000Y-43689000D02*
X93270000Y-42160000D01*
X93270000Y-40080000D02*
X93270000Y-38551000D01*
X93230000Y-43685000D02*
X93230000Y-42160000D01*
X93230000Y-40080000D02*
X93230000Y-38555000D01*
X93190000Y-43681000D02*
X93190000Y-42160000D01*
X93190000Y-40080000D02*
X93190000Y-38559000D01*
X93150000Y-43676000D02*
X93150000Y-42160000D01*
X93150000Y-40080000D02*
X93150000Y-38564000D01*
X93110000Y-43670000D02*
X93110000Y-42160000D01*
X93110000Y-40080000D02*
X93110000Y-38570000D01*
X93070000Y-43663000D02*
X93070000Y-42160000D01*
X93070000Y-40080000D02*
X93070000Y-38577000D01*
X93030000Y-43656000D02*
X93030000Y-42160000D01*
X93030000Y-40080000D02*
X93030000Y-38584000D01*
X92990000Y-43648000D02*
X92990000Y-42160000D01*
X92990000Y-40080000D02*
X92990000Y-38592000D01*
X92950000Y-43640000D02*
X92950000Y-42160000D01*
X92950000Y-40080000D02*
X92950000Y-38600000D01*
X92910000Y-43631000D02*
X92910000Y-42160000D01*
X92910000Y-40080000D02*
X92910000Y-38609000D01*
X92870000Y-43621000D02*
X92870000Y-42160000D01*
X92870000Y-40080000D02*
X92870000Y-38619000D01*
X92830000Y-43611000D02*
X92830000Y-42160000D01*
X92830000Y-40080000D02*
X92830000Y-38629000D01*
X92789000Y-43600000D02*
X92789000Y-42160000D01*
X92789000Y-40080000D02*
X92789000Y-38640000D01*
X92749000Y-43588000D02*
X92749000Y-42160000D01*
X92749000Y-40080000D02*
X92749000Y-38652000D01*
X92709000Y-43575000D02*
X92709000Y-42160000D01*
X92709000Y-40080000D02*
X92709000Y-38665000D01*
X92669000Y-43562000D02*
X92669000Y-42160000D01*
X92669000Y-40080000D02*
X92669000Y-38678000D01*
X92629000Y-43548000D02*
X92629000Y-42160000D01*
X92629000Y-40080000D02*
X92629000Y-38692000D01*
X92589000Y-43534000D02*
X92589000Y-42160000D01*
X92589000Y-40080000D02*
X92589000Y-38706000D01*
X92549000Y-43518000D02*
X92549000Y-42160000D01*
X92549000Y-40080000D02*
X92549000Y-38722000D01*
X92509000Y-43502000D02*
X92509000Y-42160000D01*
X92509000Y-40080000D02*
X92509000Y-38738000D01*
X92469000Y-43485000D02*
X92469000Y-42160000D01*
X92469000Y-40080000D02*
X92469000Y-38755000D01*
X92429000Y-43468000D02*
X92429000Y-42160000D01*
X92429000Y-40080000D02*
X92429000Y-38772000D01*
X92389000Y-43449000D02*
X92389000Y-42160000D01*
X92389000Y-40080000D02*
X92389000Y-38791000D01*
X92349000Y-43430000D02*
X92349000Y-42160000D01*
X92349000Y-40080000D02*
X92349000Y-38810000D01*
X92309000Y-43410000D02*
X92309000Y-42160000D01*
X92309000Y-40080000D02*
X92309000Y-38830000D01*
X92269000Y-43388000D02*
X92269000Y-42160000D01*
X92269000Y-40080000D02*
X92269000Y-38852000D01*
X92229000Y-43367000D02*
X92229000Y-42160000D01*
X92229000Y-40080000D02*
X92229000Y-38873000D01*
X92189000Y-43344000D02*
X92189000Y-42160000D01*
X92189000Y-40080000D02*
X92189000Y-38896000D01*
X92149000Y-43320000D02*
X92149000Y-42160000D01*
X92149000Y-40080000D02*
X92149000Y-38920000D01*
X92109000Y-43295000D02*
X92109000Y-42160000D01*
X92109000Y-40080000D02*
X92109000Y-38945000D01*
X92069000Y-43269000D02*
X92069000Y-42160000D01*
X92069000Y-40080000D02*
X92069000Y-38971000D01*
X92029000Y-43242000D02*
X92029000Y-42160000D01*
X92029000Y-40080000D02*
X92029000Y-38998000D01*
X91989000Y-43215000D02*
X91989000Y-42160000D01*
X91989000Y-40080000D02*
X91989000Y-39025000D01*
X91949000Y-43185000D02*
X91949000Y-42160000D01*
X91949000Y-40080000D02*
X91949000Y-39055000D01*
X91909000Y-43155000D02*
X91909000Y-42160000D01*
X91909000Y-40080000D02*
X91909000Y-39085000D01*
X91869000Y-43124000D02*
X91869000Y-42160000D01*
X91869000Y-40080000D02*
X91869000Y-39116000D01*
X91829000Y-43091000D02*
X91829000Y-42160000D01*
X91829000Y-40080000D02*
X91829000Y-39149000D01*
X91789000Y-43057000D02*
X91789000Y-42160000D01*
X91789000Y-40080000D02*
X91789000Y-39183000D01*
X91749000Y-43021000D02*
X91749000Y-42160000D01*
X91749000Y-40080000D02*
X91749000Y-39219000D01*
X91709000Y-42984000D02*
X91709000Y-42160000D01*
X91709000Y-40080000D02*
X91709000Y-39256000D01*
X91669000Y-42946000D02*
X91669000Y-42160000D01*
X91669000Y-40080000D02*
X91669000Y-39294000D01*
X91629000Y-42905000D02*
X91629000Y-42160000D01*
X91629000Y-40080000D02*
X91629000Y-39335000D01*
X91589000Y-42863000D02*
X91589000Y-42160000D01*
X91589000Y-40080000D02*
X91589000Y-39377000D01*
X91549000Y-42819000D02*
X91549000Y-42160000D01*
X91549000Y-40080000D02*
X91549000Y-39421000D01*
X91509000Y-42773000D02*
X91509000Y-42160000D01*
X91509000Y-40080000D02*
X91509000Y-39467000D01*
X91469000Y-42725000D02*
X91469000Y-42160000D01*
X91469000Y-40080000D02*
X91469000Y-39515000D01*
X91429000Y-42674000D02*
X91429000Y-42160000D01*
X91429000Y-40080000D02*
X91429000Y-39566000D01*
X91389000Y-42620000D02*
X91389000Y-42160000D01*
X91389000Y-40080000D02*
X91389000Y-39620000D01*
X91349000Y-42563000D02*
X91349000Y-42160000D01*
X91349000Y-40080000D02*
X91349000Y-39677000D01*
X91309000Y-42503000D02*
X91309000Y-42160000D01*
X91309000Y-40080000D02*
X91309000Y-39737000D01*
X91269000Y-42439000D02*
X91269000Y-42160000D01*
X91269000Y-40080000D02*
X91269000Y-39801000D01*
X91229000Y-42371000D02*
X91229000Y-42160000D01*
X91229000Y-40080000D02*
X91229000Y-39869000D01*
X91189000Y-42298000D02*
X91189000Y-39942000D01*
X91149000Y-42218000D02*
X91149000Y-40022000D01*
X91109000Y-42131000D02*
X91109000Y-40109000D01*
X91069000Y-42035000D02*
X91069000Y-40205000D01*
X91029000Y-41925000D02*
X91029000Y-40315000D01*
X90989000Y-41797000D02*
X90989000Y-40443000D01*
X90949000Y-41638000D02*
X90949000Y-40602000D01*
X90909000Y-41404000D02*
X90909000Y-40836000D01*
X96314775Y-42595000D02*
X95814775Y-42595000D01*
X96064775Y-42845000D02*
X96064775Y-42345000D01*
D14*
%TO.C,D1*%
X88340000Y-50390000D02*
G75*
G03*
X88340000Y-50390000I-50000J0D01*
G01*
%TO.C,D2*%
X115170000Y-58530000D02*
G75*
G03*
X115170000Y-58530000I-50000J0D01*
G01*
%TO.C,D3*%
X137355000Y-82920000D02*
G75*
G03*
X137355000Y-82920000I-50000J0D01*
G01*
D13*
%TO.C,D4*%
X94985000Y-56230000D02*
X92125000Y-56230000D01*
X94985000Y-58150000D02*
X94985000Y-56230000D01*
X92125000Y-58150000D02*
X94985000Y-58150000D01*
%TO.C,J1*%
X145650000Y-84480000D02*
X145390000Y-84480000D01*
X143110000Y-84480000D02*
X141340000Y-84480000D01*
X141340000Y-84480000D02*
X141340000Y-84100000D01*
X141340000Y-76860000D02*
X143110000Y-76860000D01*
X145390000Y-76860000D02*
X145650000Y-76860000D01*
X141340000Y-76860000D02*
X141340000Y-77240000D01*
%TO.C,J2*%
X65020000Y-47900000D02*
G75*
G03*
X65020000Y-47900000I-550000J0D01*
G01*
X63150000Y-52900000D02*
G75*
G03*
X63150000Y-52900000I-1680000J0D01*
G01*
X65020000Y-52900000D02*
G75*
G03*
X65020000Y-52900000I-550000J0D01*
G01*
X58570000Y-45340000D02*
X58570000Y-55460000D01*
X59170000Y-45340000D02*
X59170000Y-55460000D01*
X63870000Y-45340000D02*
X63870000Y-55460000D01*
X65630000Y-45340000D02*
X65630000Y-55460000D01*
X57909000Y-45340000D02*
X57909000Y-55460000D01*
X65630000Y-45340000D02*
X57909000Y-45340000D01*
X65630000Y-55460000D02*
X57909000Y-55460000D01*
X62539000Y-54175000D02*
X62446000Y-54081000D01*
X60254000Y-51890000D02*
X60196000Y-51831000D01*
X62745000Y-53970000D02*
X62686000Y-53911000D01*
X60494000Y-51720000D02*
X60401000Y-51626000D01*
X58510000Y-45100000D02*
X57670000Y-45100000D01*
X57670000Y-45100000D02*
X57670000Y-45700000D01*
X59789550Y-47929383D02*
G75*
G02*
X59986000Y-47111000I1680450J29383D01*
G01*
X60680912Y-46416047D02*
G75*
G02*
X62259000Y-46416000I789088J-1483953D01*
G01*
X62953953Y-47110912D02*
G75*
G02*
X62954000Y-48689000I-1483953J-789088D01*
G01*
X62259088Y-49383953D02*
G75*
G02*
X60681000Y-49384000I-789088J1483953D01*
G01*
X59986648Y-48688712D02*
G75*
G02*
X59790000Y-47900000I1483352J788712D01*
G01*
%TO.C,J3*%
X68660000Y-31920000D02*
X68660000Y-34520000D01*
X53960000Y-31920000D02*
X68660000Y-31920000D01*
X68660000Y-41120000D02*
X66760000Y-41120000D01*
X68660000Y-38420000D02*
X68660000Y-41120000D01*
X53960000Y-41120000D02*
X53960000Y-31920000D01*
X62760000Y-41120000D02*
X53960000Y-41120000D01*
X67810000Y-31720000D02*
X68860000Y-31720000D01*
X68860000Y-32770000D02*
X68860000Y-31720000D01*
%TO.C,J4*%
X127630000Y-35320000D02*
X127630000Y-36650000D01*
X126300000Y-35320000D02*
X127630000Y-35320000D01*
X125030000Y-35320000D02*
X125030000Y-37980000D01*
X125030000Y-37980000D02*
X117350000Y-37980000D01*
X125030000Y-35320000D02*
X117350000Y-35320000D01*
X117350000Y-35320000D02*
X117350000Y-37980000D01*
%TO.C,J5*%
X65770000Y-79000000D02*
X65770000Y-78400000D01*
X64930000Y-79000000D02*
X65770000Y-79000000D01*
X62946000Y-72380000D02*
X63039000Y-72474000D01*
X60695000Y-70130000D02*
X60754000Y-70189000D01*
X63186000Y-72210000D02*
X63244000Y-72269000D01*
X60901000Y-69925000D02*
X60994000Y-70019000D01*
X57810000Y-68640000D02*
X65531000Y-68640000D01*
X57810000Y-78760000D02*
X65531000Y-78760000D01*
X65531000Y-78760000D02*
X65531000Y-68640000D01*
X57810000Y-78760000D02*
X57810000Y-68640000D01*
X59570000Y-78760000D02*
X59570000Y-68640000D01*
X64270000Y-78760000D02*
X64270000Y-68640000D01*
X64870000Y-78760000D02*
X64870000Y-68640000D01*
X59520000Y-71200000D02*
G75*
G03*
X59520000Y-71200000I-550000J0D01*
G01*
X63650000Y-71200000D02*
G75*
G03*
X63650000Y-71200000I-1680000J0D01*
G01*
X59520000Y-76200000D02*
G75*
G03*
X59520000Y-76200000I-550000J0D01*
G01*
X63453352Y-75411288D02*
G75*
G02*
X63650000Y-76200000I-1483352J-788712D01*
G01*
X61180912Y-74716047D02*
G75*
G02*
X62759000Y-74716000I789088J-1483953D01*
G01*
X60486047Y-76989088D02*
G75*
G02*
X60486000Y-75411000I1483953J789088D01*
G01*
X62759088Y-77683953D02*
G75*
G02*
X61181000Y-77684000I-789088J1483953D01*
G01*
X63650450Y-76170617D02*
G75*
G02*
X63454000Y-76989000I-1680450J-29383D01*
G01*
%TO.C,J7*%
X111500000Y-88560000D02*
X111500000Y-87450000D01*
X111500000Y-87450000D02*
X112830000Y-87450000D01*
X111500000Y-98650000D02*
X119240000Y-98650000D01*
X119240000Y-98650000D02*
X119240000Y-90020000D01*
X111500000Y-90020000D02*
X119240000Y-90020000D01*
X111500000Y-98650000D02*
X111500000Y-90020000D01*
X116640000Y-98650000D02*
X116640000Y-90020000D01*
X114100000Y-98650000D02*
X114100000Y-90020000D01*
X118270000Y-90020000D02*
X118270000Y-89610000D01*
X117550000Y-90020000D02*
X117550000Y-89610000D01*
X115730000Y-90020000D02*
X115730000Y-89610000D01*
X115010000Y-90020000D02*
X115010000Y-89610000D01*
X113190000Y-90020000D02*
X113190000Y-89670000D01*
X112470000Y-90020000D02*
X112470000Y-89670000D01*
X113981900Y-98650000D02*
X113981900Y-90020000D01*
X113863805Y-98650000D02*
X113863805Y-90020000D01*
X113745710Y-98650000D02*
X113745710Y-90020000D01*
X113627615Y-98650000D02*
X113627615Y-90020000D01*
X113509520Y-98650000D02*
X113509520Y-90020000D01*
X113391425Y-98650000D02*
X113391425Y-90020000D01*
X113273330Y-98650000D02*
X113273330Y-90020000D01*
X113155235Y-98650000D02*
X113155235Y-90020000D01*
X113037140Y-98650000D02*
X113037140Y-90020000D01*
X112919045Y-98650000D02*
X112919045Y-90020000D01*
X112800950Y-98650000D02*
X112800950Y-90020000D01*
X112682855Y-98650000D02*
X112682855Y-90020000D01*
X112564760Y-98650000D02*
X112564760Y-90020000D01*
X112446665Y-98650000D02*
X112446665Y-90020000D01*
X112328570Y-98650000D02*
X112328570Y-90020000D01*
X112210475Y-98650000D02*
X112210475Y-90020000D01*
X112092380Y-98650000D02*
X112092380Y-90020000D01*
X111974285Y-98650000D02*
X111974285Y-90020000D01*
X111856190Y-98650000D02*
X111856190Y-90020000D01*
X111738095Y-98650000D02*
X111738095Y-90020000D01*
X111620000Y-98650000D02*
X111620000Y-90020000D01*
%TO.C,J9*%
X82430000Y-62070000D02*
X82430000Y-60740000D01*
X83760000Y-62070000D02*
X82430000Y-62070000D01*
X85030000Y-62070000D02*
X85030000Y-59410000D01*
X85030000Y-59410000D02*
X102870000Y-59410000D01*
X85030000Y-62070000D02*
X102870000Y-62070000D01*
X102870000Y-62070000D02*
X102870000Y-59410000D01*
%TO.C,J10*%
X83250000Y-78140000D02*
X85910000Y-78140000D01*
X83250000Y-78080000D02*
X83250000Y-78140000D01*
X85910000Y-78080000D02*
X85910000Y-78140000D01*
X83250000Y-78080000D02*
X85910000Y-78080000D01*
X83250000Y-76810000D02*
X83250000Y-75480000D01*
X83250000Y-75480000D02*
X84580000Y-75480000D01*
%TO.C,J11*%
X83170000Y-70460000D02*
X84500000Y-70460000D01*
X83170000Y-71790000D02*
X83170000Y-70460000D01*
X83170000Y-73060000D02*
X85830000Y-73060000D01*
X85830000Y-73060000D02*
X85830000Y-73120000D01*
X83170000Y-73060000D02*
X83170000Y-73120000D01*
X83170000Y-73120000D02*
X85830000Y-73120000D01*
%TO.C,J12*%
X100170000Y-64530000D02*
X101500000Y-64530000D01*
X100170000Y-65860000D02*
X100170000Y-64530000D01*
X100170000Y-67130000D02*
X102830000Y-67130000D01*
X102830000Y-67130000D02*
X102830000Y-67190000D01*
X100170000Y-67130000D02*
X100170000Y-67190000D01*
X100170000Y-67190000D02*
X102830000Y-67190000D01*
%TO.C,J13*%
X100170000Y-64590000D02*
X102830000Y-64590000D01*
X100170000Y-64530000D02*
X100170000Y-64590000D01*
X102830000Y-64530000D02*
X102830000Y-64590000D01*
X100170000Y-64530000D02*
X102830000Y-64530000D01*
X100170000Y-63260000D02*
X100170000Y-61930000D01*
X100170000Y-61930000D02*
X101500000Y-61930000D01*
%TO.C,J14*%
X57670000Y-57200000D02*
X57670000Y-57800000D01*
X58510000Y-57200000D02*
X57670000Y-57200000D01*
X60494000Y-63820000D02*
X60401000Y-63726000D01*
X62745000Y-66070000D02*
X62686000Y-66011000D01*
X60254000Y-63990000D02*
X60196000Y-63931000D01*
X62539000Y-66275000D02*
X62446000Y-66181000D01*
X65630000Y-67560000D02*
X57909000Y-67560000D01*
X65630000Y-57440000D02*
X57909000Y-57440000D01*
X57909000Y-57440000D02*
X57909000Y-67560000D01*
X65630000Y-57440000D02*
X65630000Y-67560000D01*
X63870000Y-57440000D02*
X63870000Y-67560000D01*
X59170000Y-57440000D02*
X59170000Y-67560000D01*
X58570000Y-57440000D02*
X58570000Y-67560000D01*
X65020000Y-65000000D02*
G75*
G03*
X65020000Y-65000000I-550000J0D01*
G01*
X63150000Y-65000000D02*
G75*
G03*
X63150000Y-65000000I-1680000J0D01*
G01*
X65020000Y-60000000D02*
G75*
G03*
X65020000Y-60000000I-550000J0D01*
G01*
X59986648Y-60788712D02*
G75*
G02*
X59790000Y-60000000I1483352J788712D01*
G01*
X62259088Y-61483953D02*
G75*
G02*
X60681000Y-61484000I-789088J1483953D01*
G01*
X62953953Y-59210912D02*
G75*
G02*
X62954000Y-60789000I-1483953J-789088D01*
G01*
X60680912Y-58516047D02*
G75*
G02*
X62259000Y-58516000I789088J-1483953D01*
G01*
X59789550Y-60029383D02*
G75*
G02*
X59986000Y-59211000I1680450J29383D01*
G01*
%TO.C,Q1*%
X127200000Y-70750000D02*
X127200000Y-71800000D01*
X127200000Y-71800000D02*
X125350000Y-71800000D01*
X127200000Y-68750000D02*
X127200000Y-69750000D01*
X127180000Y-68740000D02*
X124750000Y-68740000D01*
%TO.C,Q2*%
X127050000Y-73690000D02*
X124620000Y-73690000D01*
X127070000Y-73700000D02*
X127070000Y-74700000D01*
X127070000Y-76750000D02*
X125220000Y-76750000D01*
X127070000Y-75700000D02*
X127070000Y-76750000D01*
%TO.C,Q3*%
X116795501Y-79274448D02*
X117707669Y-78362281D01*
X115805552Y-78284499D02*
X116795501Y-79274448D01*
X116717719Y-77372331D02*
X115805552Y-78284499D01*
X117707456Y-78362150D02*
G75*
G03*
X116717719Y-77372331I1582544J2572150D01*
G01*
%TO.C,Q4*%
X109795501Y-79314448D02*
X110707669Y-78402281D01*
X108805552Y-78324499D02*
X109795501Y-79314448D01*
X109717719Y-77412331D02*
X108805552Y-78324499D01*
X110707456Y-78402150D02*
G75*
G03*
X109717719Y-77412331I1582544J2572150D01*
G01*
%TO.C,Q5*%
X107247719Y-69362331D02*
X106335552Y-70274499D01*
X106335552Y-70274499D02*
X107325501Y-71264448D01*
X107325501Y-71264448D02*
X108237669Y-70352281D01*
X108237456Y-70352150D02*
G75*
G03*
X107247719Y-69362331I1582544J2572150D01*
G01*
%TO.C,R1*%
X134694879Y-41610000D02*
X135030121Y-41610000D01*
X134694879Y-40850000D02*
X135030121Y-40850000D01*
%TO.C,R2*%
X135173641Y-42150000D02*
X134866359Y-42150000D01*
X135173641Y-42910000D02*
X134866359Y-42910000D01*
%TO.C,R3*%
X87036359Y-48410000D02*
X87343641Y-48410000D01*
X87036359Y-49170000D02*
X87343641Y-49170000D01*
%TO.C,R4*%
X113766359Y-58200000D02*
X114073641Y-58200000D01*
X113766359Y-58960000D02*
X114073641Y-58960000D01*
%TO.C,R5*%
X125409879Y-72100000D02*
X125745121Y-72100000D01*
X125409879Y-72860000D02*
X125745121Y-72860000D01*
%TO.C,R6*%
X125110121Y-77130000D02*
X124774879Y-77130000D01*
X125110121Y-77890000D02*
X124774879Y-77890000D01*
%TO.C,R7*%
X120210000Y-71703641D02*
X120210000Y-71396359D01*
X120970000Y-71703641D02*
X120970000Y-71396359D01*
%TO.C,R8*%
X118546359Y-72140000D02*
X118853641Y-72140000D01*
X118546359Y-71380000D02*
X118853641Y-71380000D01*
%TO.C,R9*%
X113310000Y-71523641D02*
X113310000Y-71216359D01*
X114070000Y-71523641D02*
X114070000Y-71216359D01*
%TO.C,R10*%
X111726359Y-72240000D02*
X112033641Y-72240000D01*
X111726359Y-71480000D02*
X112033641Y-71480000D01*
%TO.C,R11*%
X113820000Y-67433641D02*
X113820000Y-67126359D01*
X113060000Y-67433641D02*
X113060000Y-67126359D01*
%TO.C,R12*%
X132632936Y-82285000D02*
X133087064Y-82285000D01*
X132632936Y-80815000D02*
X133087064Y-80815000D01*
%TO.C,R13*%
X129020000Y-85910000D02*
X136620000Y-85910000D01*
X136620000Y-95510000D02*
X129020000Y-95510000D01*
X136642162Y-95492371D02*
G75*
G03*
X136620000Y-85910000I-3822162J4782371D01*
G01*
X128997838Y-85927629D02*
G75*
G03*
X129020000Y-95510000I3822162J-4782371D01*
G01*
%TO.C,R14*%
X104636359Y-72340000D02*
X104943641Y-72340000D01*
X104636359Y-71580000D02*
X104943641Y-71580000D01*
%TO.C,R15*%
X85122936Y-56625000D02*
X85577064Y-56625000D01*
X85122936Y-58095000D02*
X85577064Y-58095000D01*
%TO.C,R16*%
X88962936Y-58065000D02*
X89417064Y-58065000D01*
X88962936Y-56595000D02*
X89417064Y-56595000D01*
%TO.C,SW2*%
X140270000Y-39240000D02*
X140270000Y-38940000D01*
X143570000Y-39240000D02*
X140270000Y-39240000D01*
X143570000Y-38940000D02*
X143570000Y-39240000D01*
X140270000Y-36440000D02*
X140270000Y-36740000D01*
X143570000Y-36440000D02*
X140270000Y-36440000D01*
X143570000Y-36740000D02*
X143570000Y-36440000D01*
%TO.C,SW3*%
X141340000Y-71860000D02*
X141340000Y-72160000D01*
X141340000Y-72160000D02*
X144640000Y-72160000D01*
X144640000Y-72160000D02*
X144640000Y-71860000D01*
X141340000Y-69660000D02*
X141340000Y-69360000D01*
X141340000Y-69360000D02*
X144640000Y-69360000D01*
X144640000Y-69360000D02*
X144640000Y-69660000D01*
%TO.C,U1*%
X72280000Y-32250000D02*
X82520000Y-32250000D01*
X72280000Y-36891000D02*
X82520000Y-36891000D01*
X72280000Y-32250000D02*
X72280000Y-36891000D01*
X82520000Y-32250000D02*
X82520000Y-36891000D01*
X72280000Y-33760000D02*
X82520000Y-33760000D01*
X75550000Y-32250000D02*
X75550000Y-33760000D01*
X79251000Y-32250000D02*
X79251000Y-33760000D01*
%TO.C,U2*%
X130170000Y-71845000D02*
X130170000Y-72570000D01*
X135390000Y-67350000D02*
X134665000Y-67350000D01*
X135390000Y-68075000D02*
X135390000Y-67350000D01*
X135390000Y-72570000D02*
X134665000Y-72570000D01*
X135390000Y-71845000D02*
X135390000Y-72570000D01*
X130170000Y-67350000D02*
X130895000Y-67350000D01*
X130170000Y-68075000D02*
X130170000Y-67350000D01*
%TO.C,U3*%
X138875000Y-44940000D02*
X138875000Y-44560000D01*
X145295000Y-44940000D02*
X138875000Y-44940000D01*
X145295000Y-63180000D02*
X138875000Y-63180000D01*
X145295000Y-44940000D02*
X145295000Y-63180000D01*
X119550000Y-63180000D02*
X119550000Y-62180000D01*
X120330000Y-63180000D02*
X119550000Y-63180000D01*
X119550000Y-44940000D02*
X119550000Y-45940000D01*
X120330000Y-44940000D02*
X119550000Y-44940000D01*
%TO.C,U4*%
X73970000Y-46490000D02*
X79980000Y-46490000D01*
X76220000Y-53310000D02*
X79980000Y-53310000D01*
X79980000Y-46490000D02*
X79980000Y-47750000D01*
X79980000Y-53310000D02*
X79980000Y-52050000D01*
%TO.C,U5*%
X91551000Y-32250000D02*
X91551000Y-33760000D01*
X87850000Y-32250000D02*
X87850000Y-33760000D01*
X84580000Y-33760000D02*
X94820000Y-33760000D01*
X94820000Y-32250000D02*
X94820000Y-36891000D01*
X84580000Y-32250000D02*
X84580000Y-36891000D01*
X84580000Y-36891000D02*
X94820000Y-36891000D01*
X84580000Y-32250000D02*
X94820000Y-32250000D01*
%TO.C,U6*%
X71580000Y-67710000D02*
X75030000Y-67710000D01*
X71580000Y-67710000D02*
X69630000Y-67710000D01*
X71580000Y-62590000D02*
X73530000Y-62590000D01*
X71580000Y-62590000D02*
X69630000Y-62590000D01*
%TO.C,C18*%
X69578748Y-69845000D02*
X70101252Y-69845000D01*
X69578748Y-68375000D02*
X70101252Y-68375000D01*
%TO.C,REF\u002A\u002A*%
D11*
X57766666Y-80142380D02*
X57433333Y-79666190D01*
X57195238Y-80142380D02*
X57195238Y-79142380D01*
X57576190Y-79142380D01*
X57671428Y-79190000D01*
X57719047Y-79237619D01*
X57766666Y-79332857D01*
X57766666Y-79475714D01*
X57719047Y-79570952D01*
X57671428Y-79618571D01*
X57576190Y-79666190D01*
X57195238Y-79666190D01*
X58195238Y-79618571D02*
X58528571Y-79618571D01*
X58671428Y-80142380D02*
X58195238Y-80142380D01*
X58195238Y-79142380D01*
X58671428Y-79142380D01*
X59433333Y-79618571D02*
X59100000Y-79618571D01*
X59100000Y-80142380D02*
X59100000Y-79142380D01*
X59576190Y-79142380D01*
X60100000Y-79142380D02*
X60100000Y-79380476D01*
X59861904Y-79285238D02*
X60100000Y-79380476D01*
X60338095Y-79285238D01*
X59957142Y-79570952D02*
X60100000Y-79380476D01*
X60242857Y-79570952D01*
X60861904Y-79142380D02*
X60861904Y-79380476D01*
X60623809Y-79285238D02*
X60861904Y-79380476D01*
X61100000Y-79285238D01*
X60719047Y-79570952D02*
X60861904Y-79380476D01*
X61004761Y-79570952D01*
X126556666Y-80162380D02*
X126223333Y-79686190D01*
X125985238Y-80162380D02*
X125985238Y-79162380D01*
X126366190Y-79162380D01*
X126461428Y-79210000D01*
X126509047Y-79257619D01*
X126556666Y-79352857D01*
X126556666Y-79495714D01*
X126509047Y-79590952D01*
X126461428Y-79638571D01*
X126366190Y-79686190D01*
X125985238Y-79686190D01*
X126985238Y-79638571D02*
X127318571Y-79638571D01*
X127461428Y-80162380D02*
X126985238Y-80162380D01*
X126985238Y-79162380D01*
X127461428Y-79162380D01*
X128223333Y-79638571D02*
X127890000Y-79638571D01*
X127890000Y-80162380D02*
X127890000Y-79162380D01*
X128366190Y-79162380D01*
X128890000Y-79162380D02*
X128890000Y-79400476D01*
X128651904Y-79305238D02*
X128890000Y-79400476D01*
X129128095Y-79305238D01*
X128747142Y-79590952D02*
X128890000Y-79400476D01*
X129032857Y-79590952D01*
X129651904Y-79162380D02*
X129651904Y-79400476D01*
X129413809Y-79305238D02*
X129651904Y-79400476D01*
X129890000Y-79305238D01*
X129509047Y-79590952D02*
X129651904Y-79400476D01*
X129794761Y-79590952D01*
%TO.C,*%
%TO.C,REF\u002A\u002A*%
X83036666Y-64902380D02*
X82703333Y-64426190D01*
X82465238Y-64902380D02*
X82465238Y-63902380D01*
X82846190Y-63902380D01*
X82941428Y-63950000D01*
X82989047Y-63997619D01*
X83036666Y-64092857D01*
X83036666Y-64235714D01*
X82989047Y-64330952D01*
X82941428Y-64378571D01*
X82846190Y-64426190D01*
X82465238Y-64426190D01*
X83465238Y-64378571D02*
X83798571Y-64378571D01*
X83941428Y-64902380D02*
X83465238Y-64902380D01*
X83465238Y-63902380D01*
X83941428Y-63902380D01*
X84703333Y-64378571D02*
X84370000Y-64378571D01*
X84370000Y-64902380D02*
X84370000Y-63902380D01*
X84846190Y-63902380D01*
X85370000Y-63902380D02*
X85370000Y-64140476D01*
X85131904Y-64045238D02*
X85370000Y-64140476D01*
X85608095Y-64045238D01*
X85227142Y-64330952D02*
X85370000Y-64140476D01*
X85512857Y-64330952D01*
X86131904Y-63902380D02*
X86131904Y-64140476D01*
X85893809Y-64045238D02*
X86131904Y-64140476D01*
X86370000Y-64045238D01*
X85989047Y-64330952D02*
X86131904Y-64140476D01*
X86274761Y-64330952D01*
X98646666Y-80582380D02*
X98313333Y-80106190D01*
X98075238Y-80582380D02*
X98075238Y-79582380D01*
X98456190Y-79582380D01*
X98551428Y-79630000D01*
X98599047Y-79677619D01*
X98646666Y-79772857D01*
X98646666Y-79915714D01*
X98599047Y-80010952D01*
X98551428Y-80058571D01*
X98456190Y-80106190D01*
X98075238Y-80106190D01*
X99075238Y-80058571D02*
X99408571Y-80058571D01*
X99551428Y-80582380D02*
X99075238Y-80582380D01*
X99075238Y-79582380D01*
X99551428Y-79582380D01*
X100313333Y-80058571D02*
X99980000Y-80058571D01*
X99980000Y-80582380D02*
X99980000Y-79582380D01*
X100456190Y-79582380D01*
X100980000Y-79582380D02*
X100980000Y-79820476D01*
X100741904Y-79725238D02*
X100980000Y-79820476D01*
X101218095Y-79725238D01*
X100837142Y-80010952D02*
X100980000Y-79820476D01*
X101122857Y-80010952D01*
X101741904Y-79582380D02*
X101741904Y-79820476D01*
X101503809Y-79725238D02*
X101741904Y-79820476D01*
X101980000Y-79725238D01*
X101599047Y-80010952D02*
X101741904Y-79820476D01*
X101884761Y-80010952D01*
%TO.C,C2*%
X132337142Y-40926666D02*
X132384761Y-40974285D01*
X132432380Y-41117142D01*
X132432380Y-41212380D01*
X132384761Y-41355238D01*
X132289523Y-41450476D01*
X132194285Y-41498095D01*
X132003809Y-41545714D01*
X131860952Y-41545714D01*
X131670476Y-41498095D01*
X131575238Y-41450476D01*
X131480000Y-41355238D01*
X131432380Y-41212380D01*
X131432380Y-41117142D01*
X131480000Y-40974285D01*
X131527619Y-40926666D01*
X131527619Y-40545714D02*
X131480000Y-40498095D01*
X131432380Y-40402857D01*
X131432380Y-40164761D01*
X131480000Y-40069523D01*
X131527619Y-40021904D01*
X131622857Y-39974285D01*
X131718095Y-39974285D01*
X131860952Y-40021904D01*
X132432380Y-40593333D01*
X132432380Y-39974285D01*
%TO.C,C3*%
X138705000Y-44077857D02*
X138669285Y-44113571D01*
X138562142Y-44149285D01*
X138490714Y-44149285D01*
X138383571Y-44113571D01*
X138312142Y-44042142D01*
X138276428Y-43970714D01*
X138240714Y-43827857D01*
X138240714Y-43720714D01*
X138276428Y-43577857D01*
X138312142Y-43506428D01*
X138383571Y-43435000D01*
X138490714Y-43399285D01*
X138562142Y-43399285D01*
X138669285Y-43435000D01*
X138705000Y-43470714D01*
X138955000Y-43399285D02*
X139419285Y-43399285D01*
X139169285Y-43685000D01*
X139276428Y-43685000D01*
X139347857Y-43720714D01*
X139383571Y-43756428D01*
X139419285Y-43827857D01*
X139419285Y-44006428D01*
X139383571Y-44077857D01*
X139347857Y-44113571D01*
X139276428Y-44149285D01*
X139062142Y-44149285D01*
X138990714Y-44113571D01*
X138955000Y-44077857D01*
%TO.C,C4*%
X138685000Y-42817857D02*
X138649285Y-42853571D01*
X138542142Y-42889285D01*
X138470714Y-42889285D01*
X138363571Y-42853571D01*
X138292142Y-42782142D01*
X138256428Y-42710714D01*
X138220714Y-42567857D01*
X138220714Y-42460714D01*
X138256428Y-42317857D01*
X138292142Y-42246428D01*
X138363571Y-42175000D01*
X138470714Y-42139285D01*
X138542142Y-42139285D01*
X138649285Y-42175000D01*
X138685000Y-42210714D01*
X139327857Y-42389285D02*
X139327857Y-42889285D01*
X139149285Y-42103571D02*
X138970714Y-42639285D01*
X139435000Y-42639285D01*
%TO.C,C5*%
X132775000Y-73977857D02*
X132739285Y-74013571D01*
X132632142Y-74049285D01*
X132560714Y-74049285D01*
X132453571Y-74013571D01*
X132382142Y-73942142D01*
X132346428Y-73870714D01*
X132310714Y-73727857D01*
X132310714Y-73620714D01*
X132346428Y-73477857D01*
X132382142Y-73406428D01*
X132453571Y-73335000D01*
X132560714Y-73299285D01*
X132632142Y-73299285D01*
X132739285Y-73335000D01*
X132775000Y-73370714D01*
X133453571Y-73299285D02*
X133096428Y-73299285D01*
X133060714Y-73656428D01*
X133096428Y-73620714D01*
X133167857Y-73585000D01*
X133346428Y-73585000D01*
X133417857Y-73620714D01*
X133453571Y-73656428D01*
X133489285Y-73727857D01*
X133489285Y-73906428D01*
X133453571Y-73977857D01*
X133417857Y-74013571D01*
X133346428Y-74049285D01*
X133167857Y-74049285D01*
X133096428Y-74013571D01*
X133060714Y-73977857D01*
%TO.C,C6*%
X132825000Y-74917857D02*
X132789285Y-74953571D01*
X132682142Y-74989285D01*
X132610714Y-74989285D01*
X132503571Y-74953571D01*
X132432142Y-74882142D01*
X132396428Y-74810714D01*
X132360714Y-74667857D01*
X132360714Y-74560714D01*
X132396428Y-74417857D01*
X132432142Y-74346428D01*
X132503571Y-74275000D01*
X132610714Y-74239285D01*
X132682142Y-74239285D01*
X132789285Y-74275000D01*
X132825000Y-74310714D01*
X133467857Y-74239285D02*
X133325000Y-74239285D01*
X133253571Y-74275000D01*
X133217857Y-74310714D01*
X133146428Y-74417857D01*
X133110714Y-74560714D01*
X133110714Y-74846428D01*
X133146428Y-74917857D01*
X133182142Y-74953571D01*
X133253571Y-74989285D01*
X133396428Y-74989285D01*
X133467857Y-74953571D01*
X133503571Y-74917857D01*
X133539285Y-74846428D01*
X133539285Y-74667857D01*
X133503571Y-74596428D01*
X133467857Y-74560714D01*
X133396428Y-74525000D01*
X133253571Y-74525000D01*
X133182142Y-74560714D01*
X133146428Y-74596428D01*
X133110714Y-74667857D01*
%TO.C,C7*%
X74943333Y-38147142D02*
X74895714Y-38194761D01*
X74752857Y-38242380D01*
X74657619Y-38242380D01*
X74514761Y-38194761D01*
X74419523Y-38099523D01*
X74371904Y-38004285D01*
X74324285Y-37813809D01*
X74324285Y-37670952D01*
X74371904Y-37480476D01*
X74419523Y-37385238D01*
X74514761Y-37290000D01*
X74657619Y-37242380D01*
X74752857Y-37242380D01*
X74895714Y-37290000D01*
X74943333Y-37337619D01*
X75276666Y-37242380D02*
X75943333Y-37242380D01*
X75514761Y-38242380D01*
%TO.C,C8*%
X138305000Y-72997857D02*
X138269285Y-73033571D01*
X138162142Y-73069285D01*
X138090714Y-73069285D01*
X137983571Y-73033571D01*
X137912142Y-72962142D01*
X137876428Y-72890714D01*
X137840714Y-72747857D01*
X137840714Y-72640714D01*
X137876428Y-72497857D01*
X137912142Y-72426428D01*
X137983571Y-72355000D01*
X138090714Y-72319285D01*
X138162142Y-72319285D01*
X138269285Y-72355000D01*
X138305000Y-72390714D01*
X138733571Y-72640714D02*
X138662142Y-72605000D01*
X138626428Y-72569285D01*
X138590714Y-72497857D01*
X138590714Y-72462142D01*
X138626428Y-72390714D01*
X138662142Y-72355000D01*
X138733571Y-72319285D01*
X138876428Y-72319285D01*
X138947857Y-72355000D01*
X138983571Y-72390714D01*
X139019285Y-72462142D01*
X139019285Y-72497857D01*
X138983571Y-72569285D01*
X138947857Y-72605000D01*
X138876428Y-72640714D01*
X138733571Y-72640714D01*
X138662142Y-72676428D01*
X138626428Y-72712142D01*
X138590714Y-72783571D01*
X138590714Y-72926428D01*
X138626428Y-72997857D01*
X138662142Y-73033571D01*
X138733571Y-73069285D01*
X138876428Y-73069285D01*
X138947857Y-73033571D01*
X138983571Y-72997857D01*
X139019285Y-72926428D01*
X139019285Y-72783571D01*
X138983571Y-72712142D01*
X138947857Y-72676428D01*
X138876428Y-72640714D01*
%TO.C,C9*%
X69153333Y-52817142D02*
X69105714Y-52864761D01*
X68962857Y-52912380D01*
X68867619Y-52912380D01*
X68724761Y-52864761D01*
X68629523Y-52769523D01*
X68581904Y-52674285D01*
X68534285Y-52483809D01*
X68534285Y-52340952D01*
X68581904Y-52150476D01*
X68629523Y-52055238D01*
X68724761Y-51960000D01*
X68867619Y-51912380D01*
X68962857Y-51912380D01*
X69105714Y-51960000D01*
X69153333Y-52007619D01*
X69629523Y-52912380D02*
X69820000Y-52912380D01*
X69915238Y-52864761D01*
X69962857Y-52817142D01*
X70058095Y-52674285D01*
X70105714Y-52483809D01*
X70105714Y-52102857D01*
X70058095Y-52007619D01*
X70010476Y-51960000D01*
X69915238Y-51912380D01*
X69724761Y-51912380D01*
X69629523Y-51960000D01*
X69581904Y-52007619D01*
X69534285Y-52102857D01*
X69534285Y-52340952D01*
X69581904Y-52436190D01*
X69629523Y-52483809D01*
X69724761Y-52531428D01*
X69915238Y-52531428D01*
X70010476Y-52483809D01*
X70058095Y-52436190D01*
X70105714Y-52340952D01*
%TO.C,C10*%
X138297857Y-71937857D02*
X138262142Y-71973571D01*
X138155000Y-72009285D01*
X138083571Y-72009285D01*
X137976428Y-71973571D01*
X137905000Y-71902142D01*
X137869285Y-71830714D01*
X137833571Y-71687857D01*
X137833571Y-71580714D01*
X137869285Y-71437857D01*
X137905000Y-71366428D01*
X137976428Y-71295000D01*
X138083571Y-71259285D01*
X138155000Y-71259285D01*
X138262142Y-71295000D01*
X138297857Y-71330714D01*
X139012142Y-72009285D02*
X138583571Y-72009285D01*
X138797857Y-72009285D02*
X138797857Y-71259285D01*
X138726428Y-71366428D01*
X138655000Y-71437857D01*
X138583571Y-71473571D01*
X139476428Y-71259285D02*
X139547857Y-71259285D01*
X139619285Y-71295000D01*
X139655000Y-71330714D01*
X139690714Y-71402142D01*
X139726428Y-71545000D01*
X139726428Y-71723571D01*
X139690714Y-71866428D01*
X139655000Y-71937857D01*
X139619285Y-71973571D01*
X139547857Y-72009285D01*
X139476428Y-72009285D01*
X139405000Y-71973571D01*
X139369285Y-71937857D01*
X139333571Y-71866428D01*
X139297857Y-71723571D01*
X139297857Y-71545000D01*
X139333571Y-71402142D01*
X139369285Y-71330714D01*
X139405000Y-71295000D01*
X139476428Y-71259285D01*
%TO.C,C11*%
X138707857Y-41847857D02*
X138672142Y-41883571D01*
X138565000Y-41919285D01*
X138493571Y-41919285D01*
X138386428Y-41883571D01*
X138315000Y-41812142D01*
X138279285Y-41740714D01*
X138243571Y-41597857D01*
X138243571Y-41490714D01*
X138279285Y-41347857D01*
X138315000Y-41276428D01*
X138386428Y-41205000D01*
X138493571Y-41169285D01*
X138565000Y-41169285D01*
X138672142Y-41205000D01*
X138707857Y-41240714D01*
X139422142Y-41919285D02*
X138993571Y-41919285D01*
X139207857Y-41919285D02*
X139207857Y-41169285D01*
X139136428Y-41276428D01*
X139065000Y-41347857D01*
X138993571Y-41383571D01*
X140136428Y-41919285D02*
X139707857Y-41919285D01*
X139922142Y-41919285D02*
X139922142Y-41169285D01*
X139850714Y-41276428D01*
X139779285Y-41347857D01*
X139707857Y-41383571D01*
%TO.C,C12*%
X71527142Y-55517142D02*
X71479523Y-55564761D01*
X71336666Y-55612380D01*
X71241428Y-55612380D01*
X71098571Y-55564761D01*
X71003333Y-55469523D01*
X70955714Y-55374285D01*
X70908095Y-55183809D01*
X70908095Y-55040952D01*
X70955714Y-54850476D01*
X71003333Y-54755238D01*
X71098571Y-54660000D01*
X71241428Y-54612380D01*
X71336666Y-54612380D01*
X71479523Y-54660000D01*
X71527142Y-54707619D01*
X72479523Y-55612380D02*
X71908095Y-55612380D01*
X72193809Y-55612380D02*
X72193809Y-54612380D01*
X72098571Y-54755238D01*
X72003333Y-54850476D01*
X71908095Y-54898095D01*
X72860476Y-54707619D02*
X72908095Y-54660000D01*
X73003333Y-54612380D01*
X73241428Y-54612380D01*
X73336666Y-54660000D01*
X73384285Y-54707619D01*
X73431904Y-54802857D01*
X73431904Y-54898095D01*
X73384285Y-55040952D01*
X72812857Y-55612380D01*
X73431904Y-55612380D01*
%TO.C,C13*%
X80367142Y-45027142D02*
X80319523Y-45074761D01*
X80176666Y-45122380D01*
X80081428Y-45122380D01*
X79938571Y-45074761D01*
X79843333Y-44979523D01*
X79795714Y-44884285D01*
X79748095Y-44693809D01*
X79748095Y-44550952D01*
X79795714Y-44360476D01*
X79843333Y-44265238D01*
X79938571Y-44170000D01*
X80081428Y-44122380D01*
X80176666Y-44122380D01*
X80319523Y-44170000D01*
X80367142Y-44217619D01*
X81319523Y-45122380D02*
X80748095Y-45122380D01*
X81033809Y-45122380D02*
X81033809Y-44122380D01*
X80938571Y-44265238D01*
X80843333Y-44360476D01*
X80748095Y-44408095D01*
X81652857Y-44122380D02*
X82271904Y-44122380D01*
X81938571Y-44503333D01*
X82081428Y-44503333D01*
X82176666Y-44550952D01*
X82224285Y-44598571D01*
X82271904Y-44693809D01*
X82271904Y-44931904D01*
X82224285Y-45027142D01*
X82176666Y-45074761D01*
X82081428Y-45122380D01*
X81795714Y-45122380D01*
X81700476Y-45074761D01*
X81652857Y-45027142D01*
%TO.C,C14*%
X71297142Y-46857142D02*
X71249523Y-46904761D01*
X71106666Y-46952380D01*
X71011428Y-46952380D01*
X70868571Y-46904761D01*
X70773333Y-46809523D01*
X70725714Y-46714285D01*
X70678095Y-46523809D01*
X70678095Y-46380952D01*
X70725714Y-46190476D01*
X70773333Y-46095238D01*
X70868571Y-46000000D01*
X71011428Y-45952380D01*
X71106666Y-45952380D01*
X71249523Y-46000000D01*
X71297142Y-46047619D01*
X72249523Y-46952380D02*
X71678095Y-46952380D01*
X71963809Y-46952380D02*
X71963809Y-45952380D01*
X71868571Y-46095238D01*
X71773333Y-46190476D01*
X71678095Y-46238095D01*
X73106666Y-46285714D02*
X73106666Y-46952380D01*
X72868571Y-45904761D02*
X72630476Y-46619047D01*
X73249523Y-46619047D01*
%TO.C,C15*%
X69667142Y-50262857D02*
X69714761Y-50310476D01*
X69762380Y-50453333D01*
X69762380Y-50548571D01*
X69714761Y-50691428D01*
X69619523Y-50786666D01*
X69524285Y-50834285D01*
X69333809Y-50881904D01*
X69190952Y-50881904D01*
X69000476Y-50834285D01*
X68905238Y-50786666D01*
X68810000Y-50691428D01*
X68762380Y-50548571D01*
X68762380Y-50453333D01*
X68810000Y-50310476D01*
X68857619Y-50262857D01*
X69762380Y-49310476D02*
X69762380Y-49881904D01*
X69762380Y-49596190D02*
X68762380Y-49596190D01*
X68905238Y-49691428D01*
X69000476Y-49786666D01*
X69048095Y-49881904D01*
X68762380Y-48405714D02*
X68762380Y-48881904D01*
X69238571Y-48929523D01*
X69190952Y-48881904D01*
X69143333Y-48786666D01*
X69143333Y-48548571D01*
X69190952Y-48453333D01*
X69238571Y-48405714D01*
X69333809Y-48358095D01*
X69571904Y-48358095D01*
X69667142Y-48405714D01*
X69714761Y-48453333D01*
X69762380Y-48548571D01*
X69762380Y-48786666D01*
X69714761Y-48881904D01*
X69667142Y-48929523D01*
%TO.C,C16*%
X86457142Y-38097142D02*
X86409523Y-38144761D01*
X86266666Y-38192380D01*
X86171428Y-38192380D01*
X86028571Y-38144761D01*
X85933333Y-38049523D01*
X85885714Y-37954285D01*
X85838095Y-37763809D01*
X85838095Y-37620952D01*
X85885714Y-37430476D01*
X85933333Y-37335238D01*
X86028571Y-37240000D01*
X86171428Y-37192380D01*
X86266666Y-37192380D01*
X86409523Y-37240000D01*
X86457142Y-37287619D01*
X87409523Y-38192380D02*
X86838095Y-38192380D01*
X87123809Y-38192380D02*
X87123809Y-37192380D01*
X87028571Y-37335238D01*
X86933333Y-37430476D01*
X86838095Y-37478095D01*
X88266666Y-37192380D02*
X88076190Y-37192380D01*
X87980952Y-37240000D01*
X87933333Y-37287619D01*
X87838095Y-37430476D01*
X87790476Y-37620952D01*
X87790476Y-38001904D01*
X87838095Y-38097142D01*
X87885714Y-38144761D01*
X87980952Y-38192380D01*
X88171428Y-38192380D01*
X88266666Y-38144761D01*
X88314285Y-38097142D01*
X88361904Y-38001904D01*
X88361904Y-37763809D01*
X88314285Y-37668571D01*
X88266666Y-37620952D01*
X88171428Y-37573333D01*
X87980952Y-37573333D01*
X87885714Y-37620952D01*
X87838095Y-37668571D01*
X87790476Y-37763809D01*
%TO.C,C17*%
X92817142Y-38077142D02*
X92769523Y-38124761D01*
X92626666Y-38172380D01*
X92531428Y-38172380D01*
X92388571Y-38124761D01*
X92293333Y-38029523D01*
X92245714Y-37934285D01*
X92198095Y-37743809D01*
X92198095Y-37600952D01*
X92245714Y-37410476D01*
X92293333Y-37315238D01*
X92388571Y-37220000D01*
X92531428Y-37172380D01*
X92626666Y-37172380D01*
X92769523Y-37220000D01*
X92817142Y-37267619D01*
X93769523Y-38172380D02*
X93198095Y-38172380D01*
X93483809Y-38172380D02*
X93483809Y-37172380D01*
X93388571Y-37315238D01*
X93293333Y-37410476D01*
X93198095Y-37458095D01*
X94102857Y-37172380D02*
X94769523Y-37172380D01*
X94340952Y-38172380D01*
%TO.C,D1*%
X84571904Y-50812380D02*
X84571904Y-49812380D01*
X84810000Y-49812380D01*
X84952857Y-49860000D01*
X85048095Y-49955238D01*
X85095714Y-50050476D01*
X85143333Y-50240952D01*
X85143333Y-50383809D01*
X85095714Y-50574285D01*
X85048095Y-50669523D01*
X84952857Y-50764761D01*
X84810000Y-50812380D01*
X84571904Y-50812380D01*
X86095714Y-50812380D02*
X85524285Y-50812380D01*
X85810000Y-50812380D02*
X85810000Y-49812380D01*
X85714761Y-49955238D01*
X85619523Y-50050476D01*
X85524285Y-50098095D01*
%TO.C,D2*%
X115441903Y-57687379D02*
X115441903Y-56687379D01*
X115679999Y-56687379D01*
X115822856Y-56734999D01*
X115918094Y-56830237D01*
X115965713Y-56925475D01*
X116013332Y-57115951D01*
X116013332Y-57258808D01*
X115965713Y-57449284D01*
X115918094Y-57544522D01*
X115822856Y-57639760D01*
X115679999Y-57687379D01*
X115441903Y-57687379D01*
X116394284Y-56782618D02*
X116441903Y-56734999D01*
X116537141Y-56687379D01*
X116775237Y-56687379D01*
X116870475Y-56734999D01*
X116918094Y-56782618D01*
X116965713Y-56877856D01*
X116965713Y-56973094D01*
X116918094Y-57115951D01*
X116346665Y-57687379D01*
X116965713Y-57687379D01*
%TO.C,D3*%
X137591904Y-84402380D02*
X137591904Y-83402380D01*
X137830000Y-83402380D01*
X137972857Y-83450000D01*
X138068095Y-83545238D01*
X138115714Y-83640476D01*
X138163333Y-83830952D01*
X138163333Y-83973809D01*
X138115714Y-84164285D01*
X138068095Y-84259523D01*
X137972857Y-84354761D01*
X137830000Y-84402380D01*
X137591904Y-84402380D01*
X138496666Y-83402380D02*
X139115714Y-83402380D01*
X138782380Y-83783333D01*
X138925238Y-83783333D01*
X139020476Y-83830952D01*
X139068095Y-83878571D01*
X139115714Y-83973809D01*
X139115714Y-84211904D01*
X139068095Y-84307142D01*
X139020476Y-84354761D01*
X138925238Y-84402380D01*
X138639523Y-84402380D01*
X138544285Y-84354761D01*
X138496666Y-84307142D01*
%TO.C,D4*%
X95221904Y-57722380D02*
X95221904Y-56722380D01*
X95460000Y-56722380D01*
X95602857Y-56770000D01*
X95698095Y-56865238D01*
X95745714Y-56960476D01*
X95793333Y-57150952D01*
X95793333Y-57293809D01*
X95745714Y-57484285D01*
X95698095Y-57579523D01*
X95602857Y-57674761D01*
X95460000Y-57722380D01*
X95221904Y-57722380D01*
X96650476Y-57055714D02*
X96650476Y-57722380D01*
X96412380Y-56674761D02*
X96174285Y-57389047D01*
X96793333Y-57389047D01*
%TO.C,H1*%
X127248095Y-97982380D02*
X127248095Y-96982380D01*
X127248095Y-97458571D02*
X127819523Y-97458571D01*
X127819523Y-97982380D02*
X127819523Y-96982380D01*
X128819523Y-97982380D02*
X128248095Y-97982380D01*
X128533809Y-97982380D02*
X128533809Y-96982380D01*
X128438571Y-97125238D01*
X128343333Y-97220476D01*
X128248095Y-97268095D01*
%TO.C,H2*%
X102358095Y-98052380D02*
X102358095Y-97052380D01*
X102358095Y-97528571D02*
X102929523Y-97528571D01*
X102929523Y-98052380D02*
X102929523Y-97052380D01*
X103358095Y-97147619D02*
X103405714Y-97100000D01*
X103500952Y-97052380D01*
X103739047Y-97052380D01*
X103834285Y-97100000D01*
X103881904Y-97147619D01*
X103929523Y-97242857D01*
X103929523Y-97338095D01*
X103881904Y-97480952D01*
X103310476Y-98052380D01*
X103929523Y-98052380D01*
%TO.C,H5*%
X68948095Y-41322380D02*
X68948095Y-40322380D01*
X68948095Y-40798571D02*
X69519523Y-40798571D01*
X69519523Y-41322380D02*
X69519523Y-40322380D01*
X70471904Y-40322380D02*
X69995714Y-40322380D01*
X69948095Y-40798571D01*
X69995714Y-40750952D01*
X70090952Y-40703333D01*
X70329047Y-40703333D01*
X70424285Y-40750952D01*
X70471904Y-40798571D01*
X70519523Y-40893809D01*
X70519523Y-41131904D01*
X70471904Y-41227142D01*
X70424285Y-41274761D01*
X70329047Y-41322380D01*
X70090952Y-41322380D01*
X69995714Y-41274761D01*
X69948095Y-41227142D01*
%TO.C,H6*%
X137768095Y-34222380D02*
X137768095Y-33222380D01*
X137768095Y-33698571D02*
X138339523Y-33698571D01*
X138339523Y-34222380D02*
X138339523Y-33222380D01*
X139244285Y-33222380D02*
X139053809Y-33222380D01*
X138958571Y-33270000D01*
X138910952Y-33317619D01*
X138815714Y-33460476D01*
X138768095Y-33650952D01*
X138768095Y-34031904D01*
X138815714Y-34127142D01*
X138863333Y-34174761D01*
X138958571Y-34222380D01*
X139149047Y-34222380D01*
X139244285Y-34174761D01*
X139291904Y-34127142D01*
X139339523Y-34031904D01*
X139339523Y-33793809D01*
X139291904Y-33698571D01*
X139244285Y-33650952D01*
X139149047Y-33603333D01*
X138958571Y-33603333D01*
X138863333Y-33650952D01*
X138815714Y-33698571D01*
X138768095Y-33793809D01*
%TO.C,H7*%
X57132380Y-102341904D02*
X56132380Y-102341904D01*
X56608571Y-102341904D02*
X56608571Y-101770476D01*
X57132380Y-101770476D02*
X56132380Y-101770476D01*
X56132380Y-101389523D02*
X56132380Y-100722857D01*
X57132380Y-101151428D01*
%TO.C,H8*%
X142008095Y-99092380D02*
X142008095Y-98092380D01*
X142008095Y-98568571D02*
X142579523Y-98568571D01*
X142579523Y-99092380D02*
X142579523Y-98092380D01*
X143198571Y-98520952D02*
X143103333Y-98473333D01*
X143055714Y-98425714D01*
X143008095Y-98330476D01*
X143008095Y-98282857D01*
X143055714Y-98187619D01*
X143103333Y-98140000D01*
X143198571Y-98092380D01*
X143389047Y-98092380D01*
X143484285Y-98140000D01*
X143531904Y-98187619D01*
X143579523Y-98282857D01*
X143579523Y-98330476D01*
X143531904Y-98425714D01*
X143484285Y-98473333D01*
X143389047Y-98520952D01*
X143198571Y-98520952D01*
X143103333Y-98568571D01*
X143055714Y-98616190D01*
X143008095Y-98711428D01*
X143008095Y-98901904D01*
X143055714Y-98997142D01*
X143103333Y-99044761D01*
X143198571Y-99092380D01*
X143389047Y-99092380D01*
X143484285Y-99044761D01*
X143531904Y-98997142D01*
X143579523Y-98901904D01*
X143579523Y-98711428D01*
X143531904Y-98616190D01*
X143484285Y-98568571D01*
X143389047Y-98520952D01*
%TO.C,J1*%
X142836666Y-74842380D02*
X142836666Y-75556666D01*
X142789047Y-75699523D01*
X142693809Y-75794761D01*
X142550952Y-75842380D01*
X142455714Y-75842380D01*
X143836666Y-75842380D02*
X143265238Y-75842380D01*
X143550952Y-75842380D02*
X143550952Y-74842380D01*
X143455714Y-74985238D01*
X143360476Y-75080476D01*
X143265238Y-75128095D01*
%TO.C,J2*%
X66082380Y-50733333D02*
X66796666Y-50733333D01*
X66939523Y-50780952D01*
X67034761Y-50876190D01*
X67082380Y-51019047D01*
X67082380Y-51114285D01*
X66177619Y-50304761D02*
X66130000Y-50257142D01*
X66082380Y-50161904D01*
X66082380Y-49923809D01*
X66130000Y-49828571D01*
X66177619Y-49780952D01*
X66272857Y-49733333D01*
X66368095Y-49733333D01*
X66510952Y-49780952D01*
X67082380Y-50352380D01*
X67082380Y-49733333D01*
%TO.C,J3*%
X58976666Y-41722380D02*
X58976666Y-42436666D01*
X58929047Y-42579523D01*
X58833809Y-42674761D01*
X58690952Y-42722380D01*
X58595714Y-42722380D01*
X59357619Y-41722380D02*
X59976666Y-41722380D01*
X59643333Y-42103333D01*
X59786190Y-42103333D01*
X59881428Y-42150952D01*
X59929047Y-42198571D01*
X59976666Y-42293809D01*
X59976666Y-42531904D01*
X59929047Y-42627142D01*
X59881428Y-42674761D01*
X59786190Y-42722380D01*
X59500476Y-42722380D01*
X59405238Y-42674761D01*
X59357619Y-42627142D01*
%TO.C,J4*%
X121856666Y-33962380D02*
X121856666Y-34676666D01*
X121809047Y-34819523D01*
X121713809Y-34914761D01*
X121570952Y-34962380D01*
X121475714Y-34962380D01*
X122761428Y-34295714D02*
X122761428Y-34962380D01*
X122523333Y-33914761D02*
X122285238Y-34629047D01*
X122904285Y-34629047D01*
%TO.C,J5*%
X56262380Y-74033333D02*
X56976666Y-74033333D01*
X57119523Y-74080952D01*
X57214761Y-74176190D01*
X57262380Y-74319047D01*
X57262380Y-74414285D01*
X56262380Y-73080952D02*
X56262380Y-73557142D01*
X56738571Y-73604761D01*
X56690952Y-73557142D01*
X56643333Y-73461904D01*
X56643333Y-73223809D01*
X56690952Y-73128571D01*
X56738571Y-73080952D01*
X56833809Y-73033333D01*
X57071904Y-73033333D01*
X57167142Y-73080952D01*
X57214761Y-73128571D01*
X57262380Y-73223809D01*
X57262380Y-73461904D01*
X57214761Y-73557142D01*
X57167142Y-73604761D01*
%TO.C,J7*%
X109512380Y-93273333D02*
X110226666Y-93273333D01*
X110369523Y-93320952D01*
X110464761Y-93416190D01*
X110512380Y-93559047D01*
X110512380Y-93654285D01*
X109512380Y-92892380D02*
X109512380Y-92225714D01*
X110512380Y-92654285D01*
%TO.C,J9*%
X80882380Y-61073333D02*
X81596666Y-61073333D01*
X81739523Y-61120952D01*
X81834761Y-61216190D01*
X81882380Y-61359047D01*
X81882380Y-61454285D01*
X81882380Y-60549523D02*
X81882380Y-60359047D01*
X81834761Y-60263809D01*
X81787142Y-60216190D01*
X81644285Y-60120952D01*
X81453809Y-60073333D01*
X81072857Y-60073333D01*
X80977619Y-60120952D01*
X80930000Y-60168571D01*
X80882380Y-60263809D01*
X80882380Y-60454285D01*
X80930000Y-60549523D01*
X80977619Y-60597142D01*
X81072857Y-60644761D01*
X81310952Y-60644761D01*
X81406190Y-60597142D01*
X81453809Y-60549523D01*
X81501428Y-60454285D01*
X81501428Y-60263809D01*
X81453809Y-60168571D01*
X81406190Y-60120952D01*
X81310952Y-60073333D01*
%TO.C,J10*%
X83770476Y-73932380D02*
X83770476Y-74646666D01*
X83722857Y-74789523D01*
X83627619Y-74884761D01*
X83484761Y-74932380D01*
X83389523Y-74932380D01*
X84770476Y-74932380D02*
X84199047Y-74932380D01*
X84484761Y-74932380D02*
X84484761Y-73932380D01*
X84389523Y-74075238D01*
X84294285Y-74170476D01*
X84199047Y-74218095D01*
X85389523Y-73932380D02*
X85484761Y-73932380D01*
X85580000Y-73980000D01*
X85627619Y-74027619D01*
X85675238Y-74122857D01*
X85722857Y-74313333D01*
X85722857Y-74551428D01*
X85675238Y-74741904D01*
X85627619Y-74837142D01*
X85580000Y-74884761D01*
X85484761Y-74932380D01*
X85389523Y-74932380D01*
X85294285Y-74884761D01*
X85246666Y-74837142D01*
X85199047Y-74741904D01*
X85151428Y-74551428D01*
X85151428Y-74313333D01*
X85199047Y-74122857D01*
X85246666Y-74027619D01*
X85294285Y-73980000D01*
X85389523Y-73932380D01*
%TO.C,J11*%
X80630476Y-70812380D02*
X80630476Y-71526666D01*
X80582857Y-71669523D01*
X80487619Y-71764761D01*
X80344761Y-71812380D01*
X80249523Y-71812380D01*
X81630476Y-71812380D02*
X81059047Y-71812380D01*
X81344761Y-71812380D02*
X81344761Y-70812380D01*
X81249523Y-70955238D01*
X81154285Y-71050476D01*
X81059047Y-71098095D01*
X82582857Y-71812380D02*
X82011428Y-71812380D01*
X82297142Y-71812380D02*
X82297142Y-70812380D01*
X82201904Y-70955238D01*
X82106666Y-71050476D01*
X82011428Y-71098095D01*
%TO.C,J12*%
X100690476Y-62982380D02*
X100690476Y-63696666D01*
X100642857Y-63839523D01*
X100547619Y-63934761D01*
X100404761Y-63982380D01*
X100309523Y-63982380D01*
X101690476Y-63982380D02*
X101119047Y-63982380D01*
X101404761Y-63982380D02*
X101404761Y-62982380D01*
X101309523Y-63125238D01*
X101214285Y-63220476D01*
X101119047Y-63268095D01*
X102071428Y-63077619D02*
X102119047Y-63030000D01*
X102214285Y-62982380D01*
X102452380Y-62982380D01*
X102547619Y-63030000D01*
X102595238Y-63077619D01*
X102642857Y-63172857D01*
X102642857Y-63268095D01*
X102595238Y-63410952D01*
X102023809Y-63982380D01*
X102642857Y-63982380D01*
%TO.C,J13*%
X100690476Y-60382380D02*
X100690476Y-61096666D01*
X100642857Y-61239523D01*
X100547619Y-61334761D01*
X100404761Y-61382380D01*
X100309523Y-61382380D01*
X101690476Y-61382380D02*
X101119047Y-61382380D01*
X101404761Y-61382380D02*
X101404761Y-60382380D01*
X101309523Y-60525238D01*
X101214285Y-60620476D01*
X101119047Y-60668095D01*
X102023809Y-60382380D02*
X102642857Y-60382380D01*
X102309523Y-60763333D01*
X102452380Y-60763333D01*
X102547619Y-60810952D01*
X102595238Y-60858571D01*
X102642857Y-60953809D01*
X102642857Y-61191904D01*
X102595238Y-61287142D01*
X102547619Y-61334761D01*
X102452380Y-61382380D01*
X102166666Y-61382380D01*
X102071428Y-61334761D01*
X102023809Y-61287142D01*
%TO.C,J14*%
X66082380Y-63309523D02*
X66796666Y-63309523D01*
X66939523Y-63357142D01*
X67034761Y-63452380D01*
X67082380Y-63595238D01*
X67082380Y-63690476D01*
X67082380Y-62309523D02*
X67082380Y-62880952D01*
X67082380Y-62595238D02*
X66082380Y-62595238D01*
X66225238Y-62690476D01*
X66320476Y-62785714D01*
X66368095Y-62880952D01*
X66415714Y-61452380D02*
X67082380Y-61452380D01*
X66034761Y-61690476D02*
X66749047Y-61928571D01*
X66749047Y-61309523D01*
%TO.C,Q1*%
X126154761Y-68347619D02*
X126059523Y-68300000D01*
X125964285Y-68204761D01*
X125821428Y-68061904D01*
X125726190Y-68014285D01*
X125630952Y-68014285D01*
X125678571Y-68252380D02*
X125583333Y-68204761D01*
X125488095Y-68109523D01*
X125440476Y-67919047D01*
X125440476Y-67585714D01*
X125488095Y-67395238D01*
X125583333Y-67300000D01*
X125678571Y-67252380D01*
X125869047Y-67252380D01*
X125964285Y-67300000D01*
X126059523Y-67395238D01*
X126107142Y-67585714D01*
X126107142Y-67919047D01*
X126059523Y-68109523D01*
X125964285Y-68204761D01*
X125869047Y-68252380D01*
X125678571Y-68252380D01*
X127059523Y-68252380D02*
X126488095Y-68252380D01*
X126773809Y-68252380D02*
X126773809Y-67252380D01*
X126678571Y-67395238D01*
X126583333Y-67490476D01*
X126488095Y-67538095D01*
%TO.C,Q2*%
X129014761Y-76087619D02*
X128919523Y-76040000D01*
X128824285Y-75944761D01*
X128681428Y-75801904D01*
X128586190Y-75754285D01*
X128490952Y-75754285D01*
X128538571Y-75992380D02*
X128443333Y-75944761D01*
X128348095Y-75849523D01*
X128300476Y-75659047D01*
X128300476Y-75325714D01*
X128348095Y-75135238D01*
X128443333Y-75040000D01*
X128538571Y-74992380D01*
X128729047Y-74992380D01*
X128824285Y-75040000D01*
X128919523Y-75135238D01*
X128967142Y-75325714D01*
X128967142Y-75659047D01*
X128919523Y-75849523D01*
X128824285Y-75944761D01*
X128729047Y-75992380D01*
X128538571Y-75992380D01*
X129348095Y-75087619D02*
X129395714Y-75040000D01*
X129490952Y-74992380D01*
X129729047Y-74992380D01*
X129824285Y-75040000D01*
X129871904Y-75087619D01*
X129919523Y-75182857D01*
X129919523Y-75278095D01*
X129871904Y-75420952D01*
X129300476Y-75992380D01*
X129919523Y-75992380D01*
%TO.C,Q3*%
X116334761Y-73607619D02*
X116239523Y-73560000D01*
X116144285Y-73464761D01*
X116001428Y-73321904D01*
X115906190Y-73274285D01*
X115810952Y-73274285D01*
X115858571Y-73512380D02*
X115763333Y-73464761D01*
X115668095Y-73369523D01*
X115620476Y-73179047D01*
X115620476Y-72845714D01*
X115668095Y-72655238D01*
X115763333Y-72560000D01*
X115858571Y-72512380D01*
X116049047Y-72512380D01*
X116144285Y-72560000D01*
X116239523Y-72655238D01*
X116287142Y-72845714D01*
X116287142Y-73179047D01*
X116239523Y-73369523D01*
X116144285Y-73464761D01*
X116049047Y-73512380D01*
X115858571Y-73512380D01*
X116620476Y-72512380D02*
X117239523Y-72512380D01*
X116906190Y-72893333D01*
X117049047Y-72893333D01*
X117144285Y-72940952D01*
X117191904Y-72988571D01*
X117239523Y-73083809D01*
X117239523Y-73321904D01*
X117191904Y-73417142D01*
X117144285Y-73464761D01*
X117049047Y-73512380D01*
X116763333Y-73512380D01*
X116668095Y-73464761D01*
X116620476Y-73417142D01*
%TO.C,Q4*%
X108817619Y-75925238D02*
X108770000Y-76020476D01*
X108674761Y-76115714D01*
X108531904Y-76258571D01*
X108484285Y-76353809D01*
X108484285Y-76449047D01*
X108722380Y-76401428D02*
X108674761Y-76496666D01*
X108579523Y-76591904D01*
X108389047Y-76639523D01*
X108055714Y-76639523D01*
X107865238Y-76591904D01*
X107770000Y-76496666D01*
X107722380Y-76401428D01*
X107722380Y-76210952D01*
X107770000Y-76115714D01*
X107865238Y-76020476D01*
X108055714Y-75972857D01*
X108389047Y-75972857D01*
X108579523Y-76020476D01*
X108674761Y-76115714D01*
X108722380Y-76210952D01*
X108722380Y-76401428D01*
X108055714Y-75115714D02*
X108722380Y-75115714D01*
X107674761Y-75353809D02*
X108389047Y-75591904D01*
X108389047Y-74972857D01*
%TO.C,Q5*%
X109654761Y-64597619D02*
X109559523Y-64550000D01*
X109464285Y-64454761D01*
X109321428Y-64311904D01*
X109226190Y-64264285D01*
X109130952Y-64264285D01*
X109178571Y-64502380D02*
X109083333Y-64454761D01*
X108988095Y-64359523D01*
X108940476Y-64169047D01*
X108940476Y-63835714D01*
X108988095Y-63645238D01*
X109083333Y-63550000D01*
X109178571Y-63502380D01*
X109369047Y-63502380D01*
X109464285Y-63550000D01*
X109559523Y-63645238D01*
X109607142Y-63835714D01*
X109607142Y-64169047D01*
X109559523Y-64359523D01*
X109464285Y-64454761D01*
X109369047Y-64502380D01*
X109178571Y-64502380D01*
X110511904Y-63502380D02*
X110035714Y-63502380D01*
X109988095Y-63978571D01*
X110035714Y-63930952D01*
X110130952Y-63883333D01*
X110369047Y-63883333D01*
X110464285Y-63930952D01*
X110511904Y-63978571D01*
X110559523Y-64073809D01*
X110559523Y-64311904D01*
X110511904Y-64407142D01*
X110464285Y-64454761D01*
X110369047Y-64502380D01*
X110130952Y-64502380D01*
X110035714Y-64454761D01*
X109988095Y-64407142D01*
%TO.C,R1*%
X134823333Y-40662380D02*
X134490000Y-40186190D01*
X134251904Y-40662380D02*
X134251904Y-39662380D01*
X134632857Y-39662380D01*
X134728095Y-39710000D01*
X134775714Y-39757619D01*
X134823333Y-39852857D01*
X134823333Y-39995714D01*
X134775714Y-40090952D01*
X134728095Y-40138571D01*
X134632857Y-40186190D01*
X134251904Y-40186190D01*
X135775714Y-40662380D02*
X135204285Y-40662380D01*
X135490000Y-40662380D02*
X135490000Y-39662380D01*
X135394761Y-39805238D01*
X135299523Y-39900476D01*
X135204285Y-39948095D01*
%TO.C,R2*%
X132823333Y-42962380D02*
X132490000Y-42486190D01*
X132251904Y-42962380D02*
X132251904Y-41962380D01*
X132632857Y-41962380D01*
X132728095Y-42010000D01*
X132775714Y-42057619D01*
X132823333Y-42152857D01*
X132823333Y-42295714D01*
X132775714Y-42390952D01*
X132728095Y-42438571D01*
X132632857Y-42486190D01*
X132251904Y-42486190D01*
X133204285Y-42057619D02*
X133251904Y-42010000D01*
X133347142Y-41962380D01*
X133585238Y-41962380D01*
X133680476Y-42010000D01*
X133728095Y-42057619D01*
X133775714Y-42152857D01*
X133775714Y-42248095D01*
X133728095Y-42390952D01*
X133156666Y-42962380D01*
X133775714Y-42962380D01*
%TO.C,R3*%
X87023333Y-48072380D02*
X86690000Y-47596190D01*
X86451904Y-48072380D02*
X86451904Y-47072380D01*
X86832857Y-47072380D01*
X86928095Y-47120000D01*
X86975714Y-47167619D01*
X87023333Y-47262857D01*
X87023333Y-47405714D01*
X86975714Y-47500952D01*
X86928095Y-47548571D01*
X86832857Y-47596190D01*
X86451904Y-47596190D01*
X87356666Y-47072380D02*
X87975714Y-47072380D01*
X87642380Y-47453333D01*
X87785238Y-47453333D01*
X87880476Y-47500952D01*
X87928095Y-47548571D01*
X87975714Y-47643809D01*
X87975714Y-47881904D01*
X87928095Y-47977142D01*
X87880476Y-48024761D01*
X87785238Y-48072380D01*
X87499523Y-48072380D01*
X87404285Y-48024761D01*
X87356666Y-47977142D01*
%TO.C,R4*%
X113753333Y-57862380D02*
X113420000Y-57386190D01*
X113181904Y-57862380D02*
X113181904Y-56862380D01*
X113562857Y-56862380D01*
X113658095Y-56910000D01*
X113705714Y-56957619D01*
X113753333Y-57052857D01*
X113753333Y-57195714D01*
X113705714Y-57290952D01*
X113658095Y-57338571D01*
X113562857Y-57386190D01*
X113181904Y-57386190D01*
X114610476Y-57195714D02*
X114610476Y-57862380D01*
X114372380Y-56814761D02*
X114134285Y-57529047D01*
X114753333Y-57529047D01*
%TO.C,R5*%
X123625000Y-72739285D02*
X123375000Y-72382142D01*
X123196428Y-72739285D02*
X123196428Y-71989285D01*
X123482142Y-71989285D01*
X123553571Y-72025000D01*
X123589285Y-72060714D01*
X123625000Y-72132142D01*
X123625000Y-72239285D01*
X123589285Y-72310714D01*
X123553571Y-72346428D01*
X123482142Y-72382142D01*
X123196428Y-72382142D01*
X124303571Y-71989285D02*
X123946428Y-71989285D01*
X123910714Y-72346428D01*
X123946428Y-72310714D01*
X124017857Y-72275000D01*
X124196428Y-72275000D01*
X124267857Y-72310714D01*
X124303571Y-72346428D01*
X124339285Y-72417857D01*
X124339285Y-72596428D01*
X124303571Y-72667857D01*
X124267857Y-72703571D01*
X124196428Y-72739285D01*
X124017857Y-72739285D01*
X123946428Y-72703571D01*
X123910714Y-72667857D01*
%TO.C,R6*%
X124775833Y-79132380D02*
X124442500Y-78656190D01*
X124204404Y-79132380D02*
X124204404Y-78132380D01*
X124585357Y-78132380D01*
X124680595Y-78180000D01*
X124728214Y-78227619D01*
X124775833Y-78322857D01*
X124775833Y-78465714D01*
X124728214Y-78560952D01*
X124680595Y-78608571D01*
X124585357Y-78656190D01*
X124204404Y-78656190D01*
X125632976Y-78132380D02*
X125442500Y-78132380D01*
X125347261Y-78180000D01*
X125299642Y-78227619D01*
X125204404Y-78370476D01*
X125156785Y-78560952D01*
X125156785Y-78941904D01*
X125204404Y-79037142D01*
X125252023Y-79084761D01*
X125347261Y-79132380D01*
X125537738Y-79132380D01*
X125632976Y-79084761D01*
X125680595Y-79037142D01*
X125728214Y-78941904D01*
X125728214Y-78703809D01*
X125680595Y-78608571D01*
X125632976Y-78560952D01*
X125537738Y-78513333D01*
X125347261Y-78513333D01*
X125252023Y-78560952D01*
X125204404Y-78608571D01*
X125156785Y-78703809D01*
%TO.C,R7*%
X121585000Y-71979285D02*
X121335000Y-71622142D01*
X121156428Y-71979285D02*
X121156428Y-71229285D01*
X121442142Y-71229285D01*
X121513571Y-71265000D01*
X121549285Y-71300714D01*
X121585000Y-71372142D01*
X121585000Y-71479285D01*
X121549285Y-71550714D01*
X121513571Y-71586428D01*
X121442142Y-71622142D01*
X121156428Y-71622142D01*
X121835000Y-71229285D02*
X122335000Y-71229285D01*
X122013571Y-71979285D01*
%TO.C,R8*%
X118533333Y-71042380D02*
X118200000Y-70566190D01*
X117961904Y-71042380D02*
X117961904Y-70042380D01*
X118342857Y-70042380D01*
X118438095Y-70090000D01*
X118485714Y-70137619D01*
X118533333Y-70232857D01*
X118533333Y-70375714D01*
X118485714Y-70470952D01*
X118438095Y-70518571D01*
X118342857Y-70566190D01*
X117961904Y-70566190D01*
X119104761Y-70470952D02*
X119009523Y-70423333D01*
X118961904Y-70375714D01*
X118914285Y-70280476D01*
X118914285Y-70232857D01*
X118961904Y-70137619D01*
X119009523Y-70090000D01*
X119104761Y-70042380D01*
X119295238Y-70042380D01*
X119390476Y-70090000D01*
X119438095Y-70137619D01*
X119485714Y-70232857D01*
X119485714Y-70280476D01*
X119438095Y-70375714D01*
X119390476Y-70423333D01*
X119295238Y-70470952D01*
X119104761Y-70470952D01*
X119009523Y-70518571D01*
X118961904Y-70566190D01*
X118914285Y-70661428D01*
X118914285Y-70851904D01*
X118961904Y-70947142D01*
X119009523Y-70994761D01*
X119104761Y-71042380D01*
X119295238Y-71042380D01*
X119390476Y-70994761D01*
X119438095Y-70947142D01*
X119485714Y-70851904D01*
X119485714Y-70661428D01*
X119438095Y-70566190D01*
X119390476Y-70518571D01*
X119295238Y-70470952D01*
%TO.C,R9*%
X115282380Y-71556666D02*
X114806190Y-71890000D01*
X115282380Y-72128095D02*
X114282380Y-72128095D01*
X114282380Y-71747142D01*
X114330000Y-71651904D01*
X114377619Y-71604285D01*
X114472857Y-71556666D01*
X114615714Y-71556666D01*
X114710952Y-71604285D01*
X114758571Y-71651904D01*
X114806190Y-71747142D01*
X114806190Y-72128095D01*
X115282380Y-71080476D02*
X115282380Y-70890000D01*
X115234761Y-70794761D01*
X115187142Y-70747142D01*
X115044285Y-70651904D01*
X114853809Y-70604285D01*
X114472857Y-70604285D01*
X114377619Y-70651904D01*
X114330000Y-70699523D01*
X114282380Y-70794761D01*
X114282380Y-70985238D01*
X114330000Y-71080476D01*
X114377619Y-71128095D01*
X114472857Y-71175714D01*
X114710952Y-71175714D01*
X114806190Y-71128095D01*
X114853809Y-71080476D01*
X114901428Y-70985238D01*
X114901428Y-70794761D01*
X114853809Y-70699523D01*
X114806190Y-70651904D01*
X114710952Y-70604285D01*
%TO.C,R10*%
X111177142Y-71252380D02*
X110843809Y-70776190D01*
X110605714Y-71252380D02*
X110605714Y-70252380D01*
X110986666Y-70252380D01*
X111081904Y-70300000D01*
X111129523Y-70347619D01*
X111177142Y-70442857D01*
X111177142Y-70585714D01*
X111129523Y-70680952D01*
X111081904Y-70728571D01*
X110986666Y-70776190D01*
X110605714Y-70776190D01*
X112129523Y-71252380D02*
X111558095Y-71252380D01*
X111843809Y-71252380D02*
X111843809Y-70252380D01*
X111748571Y-70395238D01*
X111653333Y-70490476D01*
X111558095Y-70538095D01*
X112748571Y-70252380D02*
X112843809Y-70252380D01*
X112939047Y-70300000D01*
X112986666Y-70347619D01*
X113034285Y-70442857D01*
X113081904Y-70633333D01*
X113081904Y-70871428D01*
X113034285Y-71061904D01*
X112986666Y-71157142D01*
X112939047Y-71204761D01*
X112843809Y-71252380D01*
X112748571Y-71252380D01*
X112653333Y-71204761D01*
X112605714Y-71157142D01*
X112558095Y-71061904D01*
X112510476Y-70871428D01*
X112510476Y-70633333D01*
X112558095Y-70442857D01*
X112605714Y-70347619D01*
X112653333Y-70300000D01*
X112748571Y-70252380D01*
%TO.C,R11*%
X113237142Y-66192380D02*
X112903809Y-65716190D01*
X112665714Y-66192380D02*
X112665714Y-65192380D01*
X113046666Y-65192380D01*
X113141904Y-65240000D01*
X113189523Y-65287619D01*
X113237142Y-65382857D01*
X113237142Y-65525714D01*
X113189523Y-65620952D01*
X113141904Y-65668571D01*
X113046666Y-65716190D01*
X112665714Y-65716190D01*
X114189523Y-66192380D02*
X113618095Y-66192380D01*
X113903809Y-66192380D02*
X113903809Y-65192380D01*
X113808571Y-65335238D01*
X113713333Y-65430476D01*
X113618095Y-65478095D01*
X115141904Y-66192380D02*
X114570476Y-66192380D01*
X114856190Y-66192380D02*
X114856190Y-65192380D01*
X114760952Y-65335238D01*
X114665714Y-65430476D01*
X114570476Y-65478095D01*
%TO.C,R12*%
X132217142Y-80352380D02*
X131883809Y-79876190D01*
X131645714Y-80352380D02*
X131645714Y-79352380D01*
X132026666Y-79352380D01*
X132121904Y-79400000D01*
X132169523Y-79447619D01*
X132217142Y-79542857D01*
X132217142Y-79685714D01*
X132169523Y-79780952D01*
X132121904Y-79828571D01*
X132026666Y-79876190D01*
X131645714Y-79876190D01*
X133169523Y-80352380D02*
X132598095Y-80352380D01*
X132883809Y-80352380D02*
X132883809Y-79352380D01*
X132788571Y-79495238D01*
X132693333Y-79590476D01*
X132598095Y-79638095D01*
X133550476Y-79447619D02*
X133598095Y-79400000D01*
X133693333Y-79352380D01*
X133931428Y-79352380D01*
X134026666Y-79400000D01*
X134074285Y-79447619D01*
X134121904Y-79542857D01*
X134121904Y-79638095D01*
X134074285Y-79780952D01*
X133502857Y-80352380D01*
X134121904Y-80352380D01*
%TO.C,R13*%
X132177142Y-85362380D02*
X131843809Y-84886190D01*
X131605714Y-85362380D02*
X131605714Y-84362380D01*
X131986666Y-84362380D01*
X132081904Y-84410000D01*
X132129523Y-84457619D01*
X132177142Y-84552857D01*
X132177142Y-84695714D01*
X132129523Y-84790952D01*
X132081904Y-84838571D01*
X131986666Y-84886190D01*
X131605714Y-84886190D01*
X133129523Y-85362380D02*
X132558095Y-85362380D01*
X132843809Y-85362380D02*
X132843809Y-84362380D01*
X132748571Y-84505238D01*
X132653333Y-84600476D01*
X132558095Y-84648095D01*
X133462857Y-84362380D02*
X134081904Y-84362380D01*
X133748571Y-84743333D01*
X133891428Y-84743333D01*
X133986666Y-84790952D01*
X134034285Y-84838571D01*
X134081904Y-84933809D01*
X134081904Y-85171904D01*
X134034285Y-85267142D01*
X133986666Y-85314761D01*
X133891428Y-85362380D01*
X133605714Y-85362380D01*
X133510476Y-85314761D01*
X133462857Y-85267142D01*
%TO.C,R14*%
X104147142Y-71242380D02*
X103813809Y-70766190D01*
X103575714Y-71242380D02*
X103575714Y-70242380D01*
X103956666Y-70242380D01*
X104051904Y-70290000D01*
X104099523Y-70337619D01*
X104147142Y-70432857D01*
X104147142Y-70575714D01*
X104099523Y-70670952D01*
X104051904Y-70718571D01*
X103956666Y-70766190D01*
X103575714Y-70766190D01*
X105099523Y-71242380D02*
X104528095Y-71242380D01*
X104813809Y-71242380D02*
X104813809Y-70242380D01*
X104718571Y-70385238D01*
X104623333Y-70480476D01*
X104528095Y-70528095D01*
X105956666Y-70575714D02*
X105956666Y-71242380D01*
X105718571Y-70194761D02*
X105480476Y-70909047D01*
X106099523Y-70909047D01*
%TO.C,R15*%
X81467142Y-57642380D02*
X81133809Y-57166190D01*
X80895714Y-57642380D02*
X80895714Y-56642380D01*
X81276666Y-56642380D01*
X81371904Y-56690000D01*
X81419523Y-56737619D01*
X81467142Y-56832857D01*
X81467142Y-56975714D01*
X81419523Y-57070952D01*
X81371904Y-57118571D01*
X81276666Y-57166190D01*
X80895714Y-57166190D01*
X82419523Y-57642380D02*
X81848095Y-57642380D01*
X82133809Y-57642380D02*
X82133809Y-56642380D01*
X82038571Y-56785238D01*
X81943333Y-56880476D01*
X81848095Y-56928095D01*
X83324285Y-56642380D02*
X82848095Y-56642380D01*
X82800476Y-57118571D01*
X82848095Y-57070952D01*
X82943333Y-57023333D01*
X83181428Y-57023333D01*
X83276666Y-57070952D01*
X83324285Y-57118571D01*
X83371904Y-57213809D01*
X83371904Y-57451904D01*
X83324285Y-57547142D01*
X83276666Y-57594761D01*
X83181428Y-57642380D01*
X82943333Y-57642380D01*
X82848095Y-57594761D01*
X82800476Y-57547142D01*
%TO.C,R16*%
X88537142Y-56342380D02*
X88203809Y-55866190D01*
X87965714Y-56342380D02*
X87965714Y-55342380D01*
X88346666Y-55342380D01*
X88441904Y-55390000D01*
X88489523Y-55437619D01*
X88537142Y-55532857D01*
X88537142Y-55675714D01*
X88489523Y-55770952D01*
X88441904Y-55818571D01*
X88346666Y-55866190D01*
X87965714Y-55866190D01*
X89489523Y-56342380D02*
X88918095Y-56342380D01*
X89203809Y-56342380D02*
X89203809Y-55342380D01*
X89108571Y-55485238D01*
X89013333Y-55580476D01*
X88918095Y-55628095D01*
X90346666Y-55342380D02*
X90156190Y-55342380D01*
X90060952Y-55390000D01*
X90013333Y-55437619D01*
X89918095Y-55580476D01*
X89870476Y-55770952D01*
X89870476Y-56151904D01*
X89918095Y-56247142D01*
X89965714Y-56294761D01*
X90060952Y-56342380D01*
X90251428Y-56342380D01*
X90346666Y-56294761D01*
X90394285Y-56247142D01*
X90441904Y-56151904D01*
X90441904Y-55913809D01*
X90394285Y-55818571D01*
X90346666Y-55770952D01*
X90251428Y-55723333D01*
X90060952Y-55723333D01*
X89965714Y-55770952D01*
X89918095Y-55818571D01*
X89870476Y-55913809D01*
%TO.C,SW2*%
X140586666Y-40744761D02*
X140729523Y-40792380D01*
X140967619Y-40792380D01*
X141062857Y-40744761D01*
X141110476Y-40697142D01*
X141158095Y-40601904D01*
X141158095Y-40506666D01*
X141110476Y-40411428D01*
X141062857Y-40363809D01*
X140967619Y-40316190D01*
X140777142Y-40268571D01*
X140681904Y-40220952D01*
X140634285Y-40173333D01*
X140586666Y-40078095D01*
X140586666Y-39982857D01*
X140634285Y-39887619D01*
X140681904Y-39840000D01*
X140777142Y-39792380D01*
X141015238Y-39792380D01*
X141158095Y-39840000D01*
X141491428Y-39792380D02*
X141729523Y-40792380D01*
X141920000Y-40078095D01*
X142110476Y-40792380D01*
X142348571Y-39792380D01*
X142681904Y-39887619D02*
X142729523Y-39840000D01*
X142824761Y-39792380D01*
X143062857Y-39792380D01*
X143158095Y-39840000D01*
X143205714Y-39887619D01*
X143253333Y-39982857D01*
X143253333Y-40078095D01*
X143205714Y-40220952D01*
X142634285Y-40792380D01*
X143253333Y-40792380D01*
%TO.C,SW3*%
X141636666Y-68934761D02*
X141779523Y-68982380D01*
X142017619Y-68982380D01*
X142112857Y-68934761D01*
X142160476Y-68887142D01*
X142208095Y-68791904D01*
X142208095Y-68696666D01*
X142160476Y-68601428D01*
X142112857Y-68553809D01*
X142017619Y-68506190D01*
X141827142Y-68458571D01*
X141731904Y-68410952D01*
X141684285Y-68363333D01*
X141636666Y-68268095D01*
X141636666Y-68172857D01*
X141684285Y-68077619D01*
X141731904Y-68030000D01*
X141827142Y-67982380D01*
X142065238Y-67982380D01*
X142208095Y-68030000D01*
X142541428Y-67982380D02*
X142779523Y-68982380D01*
X142970000Y-68268095D01*
X143160476Y-68982380D01*
X143398571Y-67982380D01*
X143684285Y-67982380D02*
X144303333Y-67982380D01*
X143970000Y-68363333D01*
X144112857Y-68363333D01*
X144208095Y-68410952D01*
X144255714Y-68458571D01*
X144303333Y-68553809D01*
X144303333Y-68791904D01*
X144255714Y-68887142D01*
X144208095Y-68934761D01*
X144112857Y-68982380D01*
X143827142Y-68982380D01*
X143731904Y-68934761D01*
X143684285Y-68887142D01*
%TO.C,U1*%
X70608095Y-32622380D02*
X70608095Y-33431904D01*
X70655714Y-33527142D01*
X70703333Y-33574761D01*
X70798571Y-33622380D01*
X70989047Y-33622380D01*
X71084285Y-33574761D01*
X71131904Y-33527142D01*
X71179523Y-33431904D01*
X71179523Y-32622380D01*
X72179523Y-33622380D02*
X71608095Y-33622380D01*
X71893809Y-33622380D02*
X71893809Y-32622380D01*
X71798571Y-32765238D01*
X71703333Y-32860476D01*
X71608095Y-32908095D01*
%TO.C,U2*%
X131898095Y-65722380D02*
X131898095Y-66531904D01*
X131945714Y-66627142D01*
X131993333Y-66674761D01*
X132088571Y-66722380D01*
X132279047Y-66722380D01*
X132374285Y-66674761D01*
X132421904Y-66627142D01*
X132469523Y-66531904D01*
X132469523Y-65722380D01*
X132898095Y-65817619D02*
X132945714Y-65770000D01*
X133040952Y-65722380D01*
X133279047Y-65722380D01*
X133374285Y-65770000D01*
X133421904Y-65817619D01*
X133469523Y-65912857D01*
X133469523Y-66008095D01*
X133421904Y-66150952D01*
X132850476Y-66722380D01*
X133469523Y-66722380D01*
%TO.C,U3*%
X130008095Y-48762380D02*
X130008095Y-49571904D01*
X130055714Y-49667142D01*
X130103333Y-49714761D01*
X130198571Y-49762380D01*
X130389047Y-49762380D01*
X130484285Y-49714761D01*
X130531904Y-49667142D01*
X130579523Y-49571904D01*
X130579523Y-48762380D01*
X130960476Y-48762380D02*
X131579523Y-48762380D01*
X131246190Y-49143333D01*
X131389047Y-49143333D01*
X131484285Y-49190952D01*
X131531904Y-49238571D01*
X131579523Y-49333809D01*
X131579523Y-49571904D01*
X131531904Y-49667142D01*
X131484285Y-49714761D01*
X131389047Y-49762380D01*
X131103333Y-49762380D01*
X131008095Y-49714761D01*
X130960476Y-49667142D01*
%TO.C,U4*%
X77308095Y-44852380D02*
X77308095Y-45661904D01*
X77355714Y-45757142D01*
X77403333Y-45804761D01*
X77498571Y-45852380D01*
X77689047Y-45852380D01*
X77784285Y-45804761D01*
X77831904Y-45757142D01*
X77879523Y-45661904D01*
X77879523Y-44852380D01*
X78784285Y-45185714D02*
X78784285Y-45852380D01*
X78546190Y-44804761D02*
X78308095Y-45519047D01*
X78927142Y-45519047D01*
%TO.C,U5*%
X95398095Y-33822380D02*
X95398095Y-34631904D01*
X95445714Y-34727142D01*
X95493333Y-34774761D01*
X95588571Y-34822380D01*
X95779047Y-34822380D01*
X95874285Y-34774761D01*
X95921904Y-34727142D01*
X95969523Y-34631904D01*
X95969523Y-33822380D01*
X96921904Y-33822380D02*
X96445714Y-33822380D01*
X96398095Y-34298571D01*
X96445714Y-34250952D01*
X96540952Y-34203333D01*
X96779047Y-34203333D01*
X96874285Y-34250952D01*
X96921904Y-34298571D01*
X96969523Y-34393809D01*
X96969523Y-34631904D01*
X96921904Y-34727142D01*
X96874285Y-34774761D01*
X96779047Y-34822380D01*
X96540952Y-34822380D01*
X96445714Y-34774761D01*
X96398095Y-34727142D01*
%TO.C,U6*%
X71048095Y-61272380D02*
X71048095Y-62081904D01*
X71095714Y-62177142D01*
X71143333Y-62224761D01*
X71238571Y-62272380D01*
X71429047Y-62272380D01*
X71524285Y-62224761D01*
X71571904Y-62177142D01*
X71619523Y-62081904D01*
X71619523Y-61272380D01*
X72524285Y-61272380D02*
X72333809Y-61272380D01*
X72238571Y-61320000D01*
X72190952Y-61367619D01*
X72095714Y-61510476D01*
X72048095Y-61700952D01*
X72048095Y-62081904D01*
X72095714Y-62177142D01*
X72143333Y-62224761D01*
X72238571Y-62272380D01*
X72429047Y-62272380D01*
X72524285Y-62224761D01*
X72571904Y-62177142D01*
X72619523Y-62081904D01*
X72619523Y-61843809D01*
X72571904Y-61748571D01*
X72524285Y-61700952D01*
X72429047Y-61653333D01*
X72238571Y-61653333D01*
X72143333Y-61700952D01*
X72095714Y-61748571D01*
X72048095Y-61843809D01*
%TO.C,C18*%
X69107142Y-71137142D02*
X69059523Y-71184761D01*
X68916666Y-71232380D01*
X68821428Y-71232380D01*
X68678571Y-71184761D01*
X68583333Y-71089523D01*
X68535714Y-70994285D01*
X68488095Y-70803809D01*
X68488095Y-70660952D01*
X68535714Y-70470476D01*
X68583333Y-70375238D01*
X68678571Y-70280000D01*
X68821428Y-70232380D01*
X68916666Y-70232380D01*
X69059523Y-70280000D01*
X69107142Y-70327619D01*
X70059523Y-71232380D02*
X69488095Y-71232380D01*
X69773809Y-71232380D02*
X69773809Y-70232380D01*
X69678571Y-70375238D01*
X69583333Y-70470476D01*
X69488095Y-70518095D01*
X70630952Y-70660952D02*
X70535714Y-70613333D01*
X70488095Y-70565714D01*
X70440476Y-70470476D01*
X70440476Y-70422857D01*
X70488095Y-70327619D01*
X70535714Y-70280000D01*
X70630952Y-70232380D01*
X70821428Y-70232380D01*
X70916666Y-70280000D01*
X70964285Y-70327619D01*
X71011904Y-70422857D01*
X71011904Y-70470476D01*
X70964285Y-70565714D01*
X70916666Y-70613333D01*
X70821428Y-70660952D01*
X70630952Y-70660952D01*
X70535714Y-70708571D01*
X70488095Y-70756190D01*
X70440476Y-70851428D01*
X70440476Y-71041904D01*
X70488095Y-71137142D01*
X70535714Y-71184761D01*
X70630952Y-71232380D01*
X70821428Y-71232380D01*
X70916666Y-71184761D01*
X70964285Y-71137142D01*
X71011904Y-71041904D01*
X71011904Y-70851428D01*
X70964285Y-70756190D01*
X70916666Y-70708571D01*
X70821428Y-70660952D01*
%TD*%
M02*
