M48
; DRILL file {KiCad (5.1.8)-1} date 07/02/21 09:49:37
; FORMAT={-:-/ absolute / metric / decimal}
; #@! TF.CreationDate,2021-07-02T09:49:37+03:00
; #@! TF.GenerationSoftware,Kicad,Pcbnew,(5.1.8)-1
; #@! TF.FileFunction,Plated,1,2,PTH
FMAT,2
METRIC
T1C0.400
T2C0.700
T3C0.800
T4C1.000
T5C1.100
T6C1.300
%
G90
G05
T1
X76.43Y-67.39
X77.7Y-52.2
X80.86Y-67.52
X84.35Y-55.92
X105.88Y-70.05
X106.89Y-61.58
X109.71Y-71.94
X110.65Y-59.23
X114.48Y-66.73
X115.38Y-68.21
X116.81Y-71.71
X117.7Y-62.94
X120.57Y-69.54
X123.23Y-41.06
X123.65Y-48.38
X124.23Y-73.18
X124.94Y-48.85
X125.847Y-74.853
X126.14Y-49.06
X126.46Y-69.15
X127.56Y-70.25
X129.23Y-68.77
X130.51Y-80.5
X130.58Y-66.05
X131.01Y-76.73
X132.05Y-73.98
X132.17Y-64.73
X133.64Y-38.62
X134.52Y-77.02
X134.67Y-75.76
X135.145Y-49.595
X135.38Y-38.31
X136.36Y-75.84
X136.81Y-70.45
X137.03Y-40.04
X137.9Y-38.94
X138.14Y-81.54
X139.11Y-80.0
X140.02Y-81.97
T2
X112.29Y-74.56
X112.29Y-77.1
X113.56Y-75.83
X119.29Y-74.52
X119.29Y-77.06
X120.56Y-75.79
X109.82Y-66.51
X109.82Y-69.05
X111.09Y-67.78
T3
X85.86Y-41.12
X88.36Y-41.12
X128.72Y-90.71
X136.92Y-90.71
X92.26Y-41.12
X94.76Y-41.12
X73.86Y-41.12
X76.36Y-41.12
X79.76Y-40.92
X82.26Y-40.92
T4
X83.76Y-60.74
X86.3Y-60.74
X88.84Y-60.74
X91.38Y-60.74
X93.92Y-60.74
X96.46Y-60.74
X99.0Y-60.74
X101.54Y-60.74
X103.62Y-36.61
X106.16Y-36.61
X108.7Y-36.61
X111.24Y-36.61
X109.81Y-83.69
X112.35Y-83.69
X114.89Y-83.69
X117.43Y-83.69
X119.97Y-83.69
X122.51Y-83.69
X112.83Y-88.56
X115.37Y-88.56
X117.91Y-88.56
X101.5Y-65.86
X101.5Y-63.26
X84.58Y-76.81
X118.68Y-36.65
X121.22Y-36.65
X123.76Y-36.65
X126.3Y-36.65
X84.5Y-71.79
T5
X87.16Y-35.52
X89.7Y-35.52
X92.24Y-35.52
X74.86Y-35.52
X77.4Y-35.52
X79.94Y-35.52
T6
X61.97Y-71.2
X61.97Y-76.2
X61.47Y-47.9
X61.47Y-52.9
X61.47Y-60.0
X61.47Y-65.0
T4
G00X61.76Y-35.52
M15
G01X61.76Y-37.52
M16
G05
G00X63.76Y-41.22
M15
G01X65.76Y-41.22
M16
G05
G00X67.76Y-35.52
M15
G01X67.76Y-37.52
M16
G05
T0
M30
