%TF.GenerationSoftware,KiCad,Pcbnew,(5.1.8)-1*%
%TF.CreationDate,2021-07-02T09:49:45+03:00*%
%TF.ProjectId,Automation 101_Agriboard,4175746f-6d61-4746-996f-6e203130315f,rev?*%
%TF.SameCoordinates,Original*%
%TF.FileFunction,Legend,Bot*%
%TF.FilePolarity,Positive*%
%FSLAX46Y46*%
G04 Gerber Fmt 4.6, Leading zero omitted, Abs format (unit mm)*
G04 Created by KiCad (PCBNEW (5.1.8)-1) date 2021-07-02 09:49:45*
%MOMM*%
%LPD*%
G01*
G04 APERTURE LIST*
%ADD10C,0.120000*%
%ADD11C,0.150000*%
G04 APERTURE END LIST*
D10*
%TO.C,J6*%
X102290000Y-37940000D02*
X102290000Y-35280000D01*
X109970000Y-37940000D02*
X102290000Y-37940000D01*
X109970000Y-35280000D02*
X102290000Y-35280000D01*
X109970000Y-37940000D02*
X109970000Y-35280000D01*
X111240000Y-37940000D02*
X112570000Y-37940000D01*
X112570000Y-37940000D02*
X112570000Y-36610000D01*
%TO.C,J8*%
X108480000Y-83690000D02*
X108480000Y-85020000D01*
X108480000Y-85020000D02*
X109810000Y-85020000D01*
X111080000Y-85020000D02*
X123840000Y-85020000D01*
X123840000Y-82360000D02*
X123840000Y-85020000D01*
X111080000Y-82360000D02*
X123840000Y-82360000D01*
X111080000Y-82360000D02*
X111080000Y-85020000D01*
%TO.C,J6*%
D11*
X114117619Y-36943333D02*
X113403333Y-36943333D01*
X113260476Y-36990952D01*
X113165238Y-37086190D01*
X113117619Y-37229047D01*
X113117619Y-37324285D01*
X114117619Y-36038571D02*
X114117619Y-36229047D01*
X114070000Y-36324285D01*
X114022380Y-36371904D01*
X113879523Y-36467142D01*
X113689047Y-36514761D01*
X113308095Y-36514761D01*
X113212857Y-36467142D01*
X113165238Y-36419523D01*
X113117619Y-36324285D01*
X113117619Y-36133809D01*
X113165238Y-36038571D01*
X113212857Y-35990952D01*
X113308095Y-35943333D01*
X113546190Y-35943333D01*
X113641428Y-35990952D01*
X113689047Y-36038571D01*
X113736666Y-36133809D01*
X113736666Y-36324285D01*
X113689047Y-36419523D01*
X113641428Y-36467142D01*
X113546190Y-36514761D01*
%TO.C,J8*%
X106492380Y-83356666D02*
X107206666Y-83356666D01*
X107349523Y-83309047D01*
X107444761Y-83213809D01*
X107492380Y-83070952D01*
X107492380Y-82975714D01*
X106920952Y-83975714D02*
X106873333Y-83880476D01*
X106825714Y-83832857D01*
X106730476Y-83785238D01*
X106682857Y-83785238D01*
X106587619Y-83832857D01*
X106540000Y-83880476D01*
X106492380Y-83975714D01*
X106492380Y-84166190D01*
X106540000Y-84261428D01*
X106587619Y-84309047D01*
X106682857Y-84356666D01*
X106730476Y-84356666D01*
X106825714Y-84309047D01*
X106873333Y-84261428D01*
X106920952Y-84166190D01*
X106920952Y-83975714D01*
X106968571Y-83880476D01*
X107016190Y-83832857D01*
X107111428Y-83785238D01*
X107301904Y-83785238D01*
X107397142Y-83832857D01*
X107444761Y-83880476D01*
X107492380Y-83975714D01*
X107492380Y-84166190D01*
X107444761Y-84261428D01*
X107397142Y-84309047D01*
X107301904Y-84356666D01*
X107111428Y-84356666D01*
X107016190Y-84309047D01*
X106968571Y-84261428D01*
X106920952Y-84166190D01*
%TD*%
M02*
