%TF.GenerationSoftware,KiCad,Pcbnew,(5.1.8)-1*%
%TF.CreationDate,2021-07-02T09:13:15+03:00*%
%TF.ProjectId,CUSTOM stm32f103 DEVELOPMENT BOARD,43555354-4f4d-4207-9374-6d3332663130,rev?*%
%TF.SameCoordinates,Original*%
%TF.FileFunction,Copper,L2,Bot*%
%TF.FilePolarity,Positive*%
%FSLAX46Y46*%
G04 Gerber Fmt 4.6, Leading zero omitted, Abs format (unit mm)*
G04 Created by KiCad (PCBNEW (5.1.8)-1) date 2021-07-02 09:13:15*
%MOMM*%
%LPD*%
G01*
G04 APERTURE LIST*
%TA.AperFunction,ComponentPad*%
%ADD10R,3.500000X3.500000*%
%TD*%
%TA.AperFunction,ComponentPad*%
%ADD11O,1.700000X2.000000*%
%TD*%
%TA.AperFunction,ComponentPad*%
%ADD12R,1.700000X1.700000*%
%TD*%
%TA.AperFunction,ComponentPad*%
%ADD13O,1.700000X1.700000*%
%TD*%
%TA.AperFunction,ComponentPad*%
%ADD14O,2.190000X1.740000*%
%TD*%
%TA.AperFunction,ComponentPad*%
%ADD15C,0.500000*%
%TD*%
%TA.AperFunction,SMDPad,CuDef*%
%ADD16R,2.700000X2.700000*%
%TD*%
%TA.AperFunction,ViaPad*%
%ADD17C,0.800000*%
%TD*%
%TA.AperFunction,Conductor*%
%ADD18C,0.250000*%
%TD*%
%TA.AperFunction,Conductor*%
%ADD19C,0.750000*%
%TD*%
%TA.AperFunction,Conductor*%
%ADD20C,0.500000*%
%TD*%
%TA.AperFunction,Conductor*%
%ADD21C,0.200000*%
%TD*%
%TA.AperFunction,Conductor*%
%ADD22C,0.254000*%
%TD*%
%TA.AperFunction,Conductor*%
%ADD23C,0.100000*%
%TD*%
G04 APERTURE END LIST*
D10*
%TO.P,J2,1*%
%TO.N,TO_SYS*%
X19900000Y-187850000D03*
%TO.P,J2,2*%
%TO.N,GND*%
%TA.AperFunction,ComponentPad*%
G36*
G01*
X20900000Y-195350000D02*
X18900000Y-195350000D01*
G75*
G02*
X18150000Y-194600000I0J750000D01*
G01*
X18150000Y-193100000D01*
G75*
G02*
X18900000Y-192350000I750000J0D01*
G01*
X20900000Y-192350000D01*
G75*
G02*
X21650000Y-193100000I0J-750000D01*
G01*
X21650000Y-194600000D01*
G75*
G02*
X20900000Y-195350000I-750000J0D01*
G01*
G37*
%TD.AperFunction*%
%TO.P,J2,3*%
%TA.AperFunction,ComponentPad*%
G36*
G01*
X25475000Y-192600000D02*
X23725000Y-192600000D01*
G75*
G02*
X22850000Y-191725000I0J875000D01*
G01*
X22850000Y-189975000D01*
G75*
G02*
X23725000Y-189100000I875000J0D01*
G01*
X25475000Y-189100000D01*
G75*
G02*
X26350000Y-189975000I0J-875000D01*
G01*
X26350000Y-191725000D01*
G75*
G02*
X25475000Y-192600000I-875000J0D01*
G01*
G37*
%TD.AperFunction*%
%TD*%
%TO.P,J5,1*%
%TO.N,GND*%
%TA.AperFunction,ComponentPad*%
G36*
G01*
X33860000Y-194760000D02*
X33860000Y-196260000D01*
G75*
G02*
X33610000Y-196510000I-250000J0D01*
G01*
X32410000Y-196510000D01*
G75*
G02*
X32160000Y-196260000I0J250000D01*
G01*
X32160000Y-194760000D01*
G75*
G02*
X32410000Y-194510000I250000J0D01*
G01*
X33610000Y-194510000D01*
G75*
G02*
X33860000Y-194760000I0J-250000D01*
G01*
G37*
%TD.AperFunction*%
D11*
%TO.P,J5,2*%
%TO.N,Net-(J5-Pad2)*%
X30510000Y-195510000D03*
%TD*%
D12*
%TO.P,J6,1*%
%TO.N,LED*%
X41510000Y-163750000D03*
D13*
%TO.P,J6,2*%
%TO.N,SWDIO*%
X41510000Y-161210000D03*
%TO.P,J6,3*%
%TO.N,SWCLK*%
X41510000Y-158670000D03*
%TO.P,J6,4*%
%TO.N,GND*%
X41510000Y-156130000D03*
%TD*%
D12*
%TO.P,J7,1*%
%TO.N,TO_SYS*%
X16460000Y-146820000D03*
D13*
%TO.P,J7,2*%
%TO.N,PA0*%
X16460000Y-149360000D03*
%TO.P,J7,3*%
%TO.N,PA1*%
X16460000Y-151900000D03*
%TO.P,J7,4*%
%TO.N,PA4*%
X16460000Y-154440000D03*
%TO.P,J7,5*%
%TO.N,PA5*%
X16460000Y-156980000D03*
%TO.P,J7,6*%
%TO.N,PA6*%
X16460000Y-159520000D03*
%TO.P,J7,7*%
%TO.N,PA7*%
X16460000Y-162060000D03*
%TO.P,J7,8*%
%TO.N,PB10*%
X16460000Y-164600000D03*
%TO.P,J7,9*%
%TO.N,PB11*%
X16460000Y-167140000D03*
%TO.P,J7,10*%
%TO.N,GND*%
X16460000Y-169680000D03*
%TD*%
%TO.P,J8,1*%
%TO.N,LED*%
%TA.AperFunction,ComponentPad*%
G36*
G01*
X59784999Y-163340000D02*
X61475001Y-163340000D01*
G75*
G02*
X61725000Y-163589999I0J-249999D01*
G01*
X61725000Y-164830001D01*
G75*
G02*
X61475001Y-165080000I-249999J0D01*
G01*
X59784999Y-165080000D01*
G75*
G02*
X59535000Y-164830001I0J249999D01*
G01*
X59535000Y-163589999D01*
G75*
G02*
X59784999Y-163340000I249999J0D01*
G01*
G37*
%TD.AperFunction*%
D14*
%TO.P,J8,2*%
%TO.N,GND*%
X60630000Y-166750000D03*
%TO.P,J8,3*%
%TO.N,CS*%
X60630000Y-169290000D03*
%TO.P,J8,4*%
%TO.N,TFT_RESET*%
X60630000Y-171830000D03*
%TO.P,J8,5*%
%TO.N,A0*%
X60630000Y-174370000D03*
%TO.P,J8,6*%
%TO.N,MOSI2*%
X60630000Y-176910000D03*
%TO.P,J8,7*%
%TO.N,SCK*%
X60630000Y-179450000D03*
%TO.P,J8,8*%
%TO.N,LED*%
X60630000Y-181990000D03*
%TD*%
D15*
%TO.P,U3,25*%
%TO.N,GND*%
X23512500Y-175275000D03*
X24612500Y-175275000D03*
X25712500Y-175275000D03*
X23512500Y-176375000D03*
X24612500Y-176375000D03*
X25712500Y-176375000D03*
X23512500Y-177475000D03*
X24612500Y-177475000D03*
X25712500Y-177475000D03*
D16*
X24612500Y-176375000D03*
%TD*%
D17*
%TO.N,GND*%
X33314640Y-165430200D03*
X35468560Y-165394640D03*
X22778720Y-161066480D03*
X22753320Y-162097720D03*
X61880000Y-187140000D03*
X21110000Y-176370000D03*
X37647880Y-164489990D03*
X33180000Y-191330000D03*
X59500000Y-132300000D03*
X60300000Y-147800000D03*
X52800000Y-148200000D03*
X39000000Y-144900000D03*
X40600000Y-142600000D03*
X25600000Y-140900000D03*
X22500000Y-147800000D03*
X25500000Y-152600000D03*
X47400000Y-171400000D03*
X39400000Y-166200000D03*
X40600000Y-167600000D03*
X20100000Y-158900000D03*
X33500000Y-157900000D03*
X47100000Y-153600000D03*
X54400000Y-153700000D03*
X54000000Y-161100000D03*
X59300000Y-161300000D03*
X58300000Y-149000000D03*
X24900000Y-168900000D03*
X49400000Y-136225010D03*
X40000000Y-146400000D03*
X46600000Y-163300000D03*
X33500000Y-183400000D03*
X30575000Y-182025000D03*
X17000000Y-179000000D03*
X18900000Y-179500000D03*
X37335121Y-154276594D03*
X35298154Y-153301474D03*
%TO.N,LED*%
X49250000Y-177030000D03*
X35990000Y-175390000D03*
X37170000Y-175390000D03*
X38200000Y-175390000D03*
X49750000Y-176000000D03*
X51767079Y-171347114D03*
X54464193Y-168650000D03*
X42010000Y-167670000D03*
X44710000Y-159260000D03*
X43940000Y-156010000D03*
X48810000Y-149280000D03*
X50030000Y-140740000D03*
X32380000Y-156090000D03*
X28600000Y-152200000D03*
X31830000Y-169560000D03*
X42410000Y-143570000D03*
X28460000Y-137590000D03*
X38200839Y-155509197D03*
%TO.N,BOOT0*%
X47076360Y-164649990D03*
X39384500Y-157778286D03*
%TO.N,TO_SYS*%
X52390040Y-189824360D03*
X36864360Y-189824360D03*
X17710000Y-172890000D03*
X24310000Y-171190000D03*
X30210000Y-174480000D03*
X61900000Y-195400000D03*
%TO.N,Net-(C26-Pad1)*%
X29030000Y-175600000D03*
X39140000Y-183020000D03*
%TO.N,PC13*%
X35123120Y-139054840D03*
X41247345Y-151534145D03*
%TO.N,Net-(D7-Pad2)*%
X27590000Y-194590000D03*
X55200000Y-186320000D03*
%TO.N,Net-(D8-Pad2)*%
X50120000Y-184230000D03*
X36970000Y-193480000D03*
%TO.N,USB*%
X23680000Y-172940000D03*
X29230000Y-186090000D03*
%TO.N,MISO*%
X54599840Y-152328880D03*
X56220360Y-153238200D03*
X49752836Y-161709102D03*
%TO.N,MOSI*%
X49768760Y-156596080D03*
X60116720Y-142163800D03*
%TO.N,SD_CS*%
X38940412Y-160802018D03*
X43720000Y-158250000D03*
%TO.N,C_DETECT*%
X63129160Y-162478720D03*
X47330360Y-160975040D03*
X44497662Y-154332342D03*
%TO.N,SWDIO*%
X32527737Y-161347258D03*
%TO.N,SWCLK*%
X37211069Y-161682748D03*
%TO.N,PA0*%
X24795480Y-153563320D03*
X30143779Y-156579641D03*
%TO.N,PA1*%
X24759920Y-154716480D03*
X29142703Y-156603729D03*
%TO.N,CS*%
X33395920Y-167706040D03*
%TO.N,TFT_RESET*%
X31748059Y-160721058D03*
X30980691Y-158416150D03*
X48054218Y-167744182D03*
X29205018Y-157601797D03*
%TO.N,A0*%
X24079200Y-155788360D03*
X44610000Y-165550000D03*
X35990000Y-162600000D03*
X31954803Y-158866160D03*
%TO.N,MOSI2*%
X31704360Y-166949040D03*
%TO.N,SCK*%
X30388560Y-166994840D03*
%TO.N,DIO5*%
X52364640Y-134061200D03*
X30322520Y-133827520D03*
%TO.N,Net-(J9-Pad2)*%
X37282120Y-136982200D03*
X37103911Y-160688494D03*
%TO.N,Net-(J10-Pad2)*%
X18374360Y-134782560D03*
X29362845Y-160772262D03*
%TO.N,Net-(J11-Pad2)*%
X22082760Y-151831040D03*
X30723840Y-164886640D03*
%TO.N,BGATE*%
X37144960Y-180334920D03*
X25844598Y-180289278D03*
%TO.N,RST*%
X31109920Y-156240480D03*
X29785953Y-159866170D03*
%TO.N,DIO0*%
X34800000Y-154600000D03*
X36549640Y-153039952D03*
%TO.N,DIO1*%
X32471979Y-157490011D03*
X37715714Y-153351839D03*
%TO.N,LORA_RST*%
X30536611Y-161088761D03*
X38560000Y-154070000D03*
%TO.N,DIO2*%
X33634680Y-160329880D03*
X43281600Y-146050000D03*
%TO.N,Net-(C24-Pad2)*%
X26837500Y-181847500D03*
X21240000Y-178110000D03*
%TD*%
D18*
%TO.N,GND*%
X33010000Y-195510000D02*
X33010000Y-191470000D01*
X33150000Y-191330000D02*
X33180000Y-191330000D01*
X33010000Y-191470000D02*
X33150000Y-191330000D01*
D19*
X39400000Y-166400000D02*
X40600000Y-167600000D01*
X39400000Y-166200000D02*
X39400000Y-166400000D01*
D18*
X41510000Y-156130000D02*
X41510000Y-155790000D01*
X41510000Y-155790000D02*
X43700000Y-153600000D01*
X43700000Y-153600000D02*
X47100000Y-153600000D01*
X54400000Y-153700000D02*
X54400000Y-156200000D01*
X54400000Y-156200000D02*
X54300000Y-156300000D01*
X54300000Y-156300000D02*
X54300000Y-160800000D01*
X54300000Y-160800000D02*
X54000000Y-161100000D01*
D20*
%TO.N,LED*%
X49250000Y-177030000D02*
X54210000Y-181990000D01*
X54210000Y-181990000D02*
X60630000Y-181990000D01*
X51767079Y-171347114D02*
X54464193Y-168650000D01*
X41510000Y-163750000D02*
X44330000Y-163750000D01*
X44330000Y-163750000D02*
X45930000Y-165350000D01*
X45930000Y-165350000D02*
X45930000Y-166740000D01*
X45930000Y-166740000D02*
X45230000Y-167440000D01*
X42240000Y-167440000D02*
X42010000Y-167670000D01*
X45230000Y-167440000D02*
X42240000Y-167440000D01*
X44330000Y-163750000D02*
X44330000Y-159500000D01*
X44330000Y-159500000D02*
X44570000Y-159260000D01*
X44570000Y-159260000D02*
X44710000Y-159260000D01*
X44710000Y-159260000D02*
X44710000Y-156500000D01*
X44220000Y-156010000D02*
X43940000Y-156010000D01*
X44710000Y-156500000D02*
X44220000Y-156010000D01*
X48810000Y-149280000D02*
X50070000Y-148020000D01*
X50070000Y-140780000D02*
X50030000Y-140740000D01*
X50070000Y-148020000D02*
X50070000Y-142020000D01*
X50070000Y-142020000D02*
X50070000Y-140780000D01*
X27850000Y-135540000D02*
X27850000Y-135570000D01*
X27850000Y-135570000D02*
X24690000Y-138730000D01*
X24690000Y-138730000D02*
X24690000Y-150460000D01*
X24690000Y-150460000D02*
X26430000Y-152200000D01*
X26430000Y-152200000D02*
X28600000Y-152200000D01*
X28600000Y-152200000D02*
X29590000Y-153190000D01*
X29590000Y-153190000D02*
X29590000Y-153260000D01*
X32380000Y-156050000D02*
X32380000Y-156090000D01*
X29590000Y-153260000D02*
X32380000Y-156050000D01*
X35990000Y-173720000D02*
X35990000Y-175390000D01*
X31830000Y-169560000D02*
X35990000Y-173720000D01*
X28460000Y-135890000D02*
X28810000Y-135540000D01*
X28460000Y-137590000D02*
X28460000Y-135890000D01*
X28810000Y-135540000D02*
X27850000Y-135540000D01*
X44125011Y-136075011D02*
X29345011Y-136075011D01*
X50070000Y-142020000D02*
X44125011Y-136075011D01*
X29345011Y-136075011D02*
X28810000Y-135540000D01*
D18*
X42410000Y-143570000D02*
X42410000Y-151865721D01*
X38766524Y-155509197D02*
X38200839Y-155509197D01*
X42410000Y-151865721D02*
X38766524Y-155509197D01*
%TO.N,BOOT0*%
X42611715Y-157378287D02*
X39784499Y-157378287D01*
X43100000Y-155100000D02*
X42685001Y-155514999D01*
X44500000Y-155100000D02*
X43100000Y-155100000D01*
X47076360Y-164649990D02*
X46510675Y-164649990D01*
X45435002Y-156035002D02*
X44500000Y-155100000D01*
X45435002Y-163574317D02*
X45435002Y-156035002D01*
X42685001Y-157305001D02*
X42611715Y-157378287D01*
X42685001Y-155514999D02*
X42685001Y-157305001D01*
X39784499Y-157378287D02*
X39384500Y-157778286D01*
X46510675Y-164649990D02*
X45435002Y-163574317D01*
D20*
%TO.N,TO_SYS*%
X52390040Y-189824360D02*
X36864360Y-189824360D01*
X17710000Y-172890000D02*
X19170000Y-171430000D01*
X19170000Y-149530000D02*
X16460000Y-146820000D01*
X19170000Y-171430000D02*
X19170000Y-149530000D01*
X17710000Y-172890000D02*
X19440000Y-172890000D01*
X19440000Y-172890000D02*
X21140000Y-171190000D01*
X21140000Y-171190000D02*
X24310000Y-171190000D01*
X30210000Y-174480000D02*
X28970000Y-173240000D01*
X26360000Y-173240000D02*
X24310000Y-171190000D01*
X28970000Y-173240000D02*
X26360000Y-173240000D01*
X60100000Y-195400000D02*
X61900000Y-195400000D01*
X54524360Y-189824360D02*
X60100000Y-195400000D01*
X52390040Y-189824360D02*
X54524360Y-189824360D01*
D18*
%TO.N,Net-(C26-Pad1)*%
X29030000Y-175600000D02*
X32350000Y-178920000D01*
X32350000Y-178920000D02*
X37510000Y-178920000D01*
X37510000Y-178920000D02*
X39140000Y-180550000D01*
X39140000Y-180550000D02*
X39140000Y-183020000D01*
%TO.N,PC13*%
X35123120Y-139054840D02*
X41247345Y-145179065D01*
X41247345Y-145179065D02*
X41247345Y-151534145D01*
%TO.N,Net-(D7-Pad2)*%
X51170000Y-183130000D02*
X52520000Y-184480000D01*
X35110000Y-190080000D02*
X35330000Y-189860000D01*
X49420000Y-183130000D02*
X51170000Y-183130000D01*
X53610000Y-186320000D02*
X55200000Y-186320000D01*
X35330000Y-188970000D02*
X37980000Y-186320000D01*
X37980000Y-186320000D02*
X48900000Y-186320000D01*
X35330000Y-189860000D02*
X35330000Y-188970000D01*
X52520000Y-185230000D02*
X53610000Y-186320000D01*
X48900000Y-186320000D02*
X49070000Y-186150000D01*
X27590000Y-194590000D02*
X32100000Y-190080000D01*
X32100000Y-190080000D02*
X35110000Y-190080000D01*
X49070000Y-186150000D02*
X49070000Y-183480000D01*
X52520000Y-184480000D02*
X52520000Y-185230000D01*
X49070000Y-183480000D02*
X49420000Y-183130000D01*
%TO.N,Net-(D8-Pad2)*%
X36970000Y-193480000D02*
X36030000Y-192540000D01*
X36030000Y-192540000D02*
X36030000Y-189100000D01*
X36030000Y-189100000D02*
X37970000Y-187160000D01*
X37970000Y-187160000D02*
X49670000Y-187160000D01*
X50120000Y-186710000D02*
X50120000Y-184230000D01*
X49670000Y-187160000D02*
X50120000Y-186710000D01*
D20*
%TO.N,USB*%
X20150000Y-175230000D02*
X22440000Y-172940000D01*
X20150000Y-182020000D02*
X20150000Y-175230000D01*
X24220000Y-186090000D02*
X20150000Y-182020000D01*
X22440000Y-172940000D02*
X23680000Y-172940000D01*
X29230000Y-186090000D02*
X24220000Y-186090000D01*
D18*
%TO.N,MISO*%
X56220360Y-153238200D02*
X55311040Y-152328880D01*
X55311040Y-152328880D02*
X54599840Y-152328880D01*
X56220360Y-153238200D02*
X56220360Y-153238200D01*
X55487619Y-162109101D02*
X50152835Y-162109101D01*
X56220360Y-153238200D02*
X56220360Y-161376360D01*
X56220360Y-161376360D02*
X55487619Y-162109101D01*
X50152835Y-162109101D02*
X49752836Y-161709102D01*
%TO.N,MOSI*%
X49768760Y-156596080D02*
X49768760Y-155630880D01*
X49768760Y-155630880D02*
X51308000Y-154091640D01*
X51308000Y-154091640D02*
X51308000Y-147193000D01*
X51308000Y-147193000D02*
X56337200Y-142163800D01*
X56337200Y-142163800D02*
X60116720Y-142163800D01*
%TO.N,SD_CS*%
X41935001Y-160034999D02*
X43720000Y-158250000D01*
X39707431Y-160034999D02*
X41935001Y-160034999D01*
X38940412Y-160802018D02*
X39707431Y-160034999D01*
%TO.N,C_DETECT*%
X63129160Y-162478720D02*
X56718200Y-162478720D01*
X47330360Y-160975040D02*
X47330360Y-161681160D01*
X47330360Y-161681160D02*
X48503840Y-162854640D01*
X56342280Y-162854640D02*
X56718200Y-162478720D01*
X48503840Y-162854640D02*
X56342280Y-162854640D01*
X47330360Y-157165040D02*
X44497662Y-154332342D01*
X47330360Y-160975040D02*
X47330360Y-157165040D01*
%TO.N,SWDIO*%
X37066058Y-162563056D02*
X35850260Y-161347258D01*
X40156944Y-162563056D02*
X37066058Y-162563056D01*
X35850260Y-161347258D02*
X32527737Y-161347258D01*
X41510000Y-161210000D02*
X40156944Y-162563056D01*
%TO.N,SWCLK*%
X38215402Y-160332398D02*
X38215402Y-160678415D01*
X41510000Y-158670000D02*
X39877800Y-158670000D01*
X38215402Y-160678415D02*
X37211069Y-161682748D01*
X39877800Y-158670000D02*
X38215402Y-160332398D01*
D21*
%TO.N,PA0*%
X27127458Y-153563320D02*
X30143779Y-156579641D01*
X24795480Y-153563320D02*
X27127458Y-153563320D01*
%TO.N,PA1*%
X26647169Y-156603729D02*
X29142703Y-156603729D01*
X24759920Y-154716480D02*
X26647169Y-156603729D01*
D18*
%TO.N,CS*%
X33395920Y-167706040D02*
X34615120Y-168925240D01*
D21*
X60630000Y-169290000D02*
X59960000Y-169290000D01*
X59960000Y-169290000D02*
X54810000Y-174440000D01*
X53870000Y-174440000D02*
X48355240Y-168925240D01*
X54810000Y-174440000D02*
X53870000Y-174440000D01*
D18*
X34615120Y-168925240D02*
X48355240Y-168925240D01*
%TO.N,TFT_RESET*%
X37352444Y-168395002D02*
X47403398Y-168395002D01*
X31748059Y-162790617D02*
X37352444Y-168395002D01*
X47403398Y-168395002D02*
X48054218Y-167744182D01*
X31748059Y-160721058D02*
X31748059Y-162790617D01*
X30980691Y-158416150D02*
X30166338Y-157601797D01*
X30166338Y-157601797D02*
X29205018Y-157601797D01*
%TO.N,A0*%
X31679803Y-159141160D02*
X31954803Y-158866160D01*
X27432000Y-159141160D02*
X31679803Y-159141160D01*
X24079200Y-155788360D02*
X27432000Y-159141160D01*
D21*
X44359999Y-165299999D02*
X37094314Y-165299999D01*
X44610000Y-165550000D02*
X44359999Y-165299999D01*
X35990000Y-164195685D02*
X35990000Y-162600000D01*
X37094314Y-165299999D02*
X35990000Y-164195685D01*
D18*
%TO.N,MOSI2*%
X55328944Y-176910000D02*
X47908933Y-169489989D01*
X31704360Y-167059040D02*
X31704360Y-166949040D01*
X34135309Y-169489989D02*
X31704360Y-167059040D01*
X60630000Y-176910000D02*
X55328944Y-176910000D01*
X47908933Y-169489989D02*
X34135309Y-169489989D01*
%TO.N,SCK*%
X33670000Y-169940000D02*
X30724840Y-166994840D01*
X60630000Y-179450000D02*
X56740000Y-179450000D01*
X47230000Y-169940000D02*
X33670000Y-169940000D01*
X56740000Y-179450000D02*
X47230000Y-169940000D01*
X30724840Y-166994840D02*
X30388560Y-166994840D01*
%TO.N,DIO5*%
X31995000Y-135500000D02*
X30322520Y-133827520D01*
X50925840Y-135500000D02*
X31995000Y-135500000D01*
X52364640Y-134061200D02*
X50925840Y-135500000D01*
%TO.N,Net-(J9-Pad2)*%
X37282120Y-136982200D02*
X44224369Y-143924449D01*
X40047608Y-156032223D02*
X37103911Y-158975919D01*
X44224369Y-143924449D02*
X44224369Y-151747765D01*
X40047608Y-155924526D02*
X40047608Y-156032223D01*
X37103911Y-158975919D02*
X37103911Y-160688494D01*
X44224369Y-151747765D02*
X40047608Y-155924526D01*
%TO.N,Net-(J10-Pad2)*%
X18374360Y-134782560D02*
X23354198Y-139762398D01*
X23354198Y-156136362D02*
X27990098Y-160772262D01*
X23354198Y-139762398D02*
X23354198Y-156136362D01*
X27990098Y-160772262D02*
X28797160Y-160772262D01*
X28797160Y-160772262D02*
X29362845Y-160772262D01*
D21*
%TO.N,Net-(J11-Pad2)*%
X22082760Y-151831040D02*
X21682761Y-152231039D01*
X23749000Y-164886640D02*
X30158155Y-164886640D01*
X21682761Y-152231039D02*
X21682761Y-162820401D01*
X21682761Y-162820401D02*
X23749000Y-164886640D01*
X30158155Y-164886640D02*
X30723840Y-164886640D01*
%TO.N,BGATE*%
X25890240Y-180334920D02*
X25844598Y-180289278D01*
X37144960Y-180334920D02*
X25890240Y-180334920D01*
%TO.N,RST*%
X31109920Y-156240480D02*
X31109920Y-157163954D01*
X32135978Y-158190012D02*
X32744492Y-158190012D01*
X33223200Y-158668720D02*
X32325750Y-159566170D01*
X32744492Y-158190012D02*
X33223200Y-158668720D01*
X31109920Y-157163954D02*
X32135978Y-158190012D01*
X32325750Y-159566170D02*
X30085953Y-159566170D01*
X30085953Y-159566170D02*
X29785953Y-159866170D01*
%TO.N,DIO0*%
X34800000Y-154600000D02*
X34989592Y-154600000D01*
X34989592Y-154600000D02*
X36549640Y-153039952D01*
%TO.N,DIO1*%
X33472120Y-156494480D02*
X33319720Y-156646880D01*
X33472120Y-156494480D02*
X33467510Y-156494480D01*
X32871978Y-157090012D02*
X32471979Y-157490011D01*
X33467510Y-156494480D02*
X32871978Y-157090012D01*
X37490960Y-153576593D02*
X37715714Y-153351839D01*
X33472120Y-156494480D02*
X34081233Y-156494480D01*
X36999120Y-153576593D02*
X37490960Y-153576593D01*
X34081233Y-156494480D02*
X36999120Y-153576593D01*
D18*
%TO.N,LORA_RST*%
X32645853Y-159991181D02*
X38560000Y-154077034D01*
X30536611Y-161088761D02*
X30536611Y-160523076D01*
X30536611Y-160523076D02*
X31068506Y-159991181D01*
X31068506Y-159991181D02*
X32645853Y-159991181D01*
X38560000Y-154077034D02*
X38560000Y-154070000D01*
%TO.N,DIO2*%
X43281600Y-152054123D02*
X43281600Y-146050000D01*
X39597597Y-155845823D02*
X39597597Y-155738126D01*
X35113540Y-160329880D02*
X39597597Y-155845823D01*
X33634680Y-160329880D02*
X35113540Y-160329880D01*
X39597597Y-155738126D02*
X43281600Y-152054123D01*
%TO.N,Net-(C24-Pad2)*%
X26837500Y-181847500D02*
X23357500Y-181847500D01*
X23357500Y-181847500D02*
X21240000Y-179730000D01*
X21240000Y-179730000D02*
X21240000Y-178110000D01*
%TD*%
D22*
%TO.N,GND*%
X63960000Y-161859210D02*
X63933097Y-161818946D01*
X63788934Y-161674783D01*
X63619416Y-161561515D01*
X63431058Y-161483494D01*
X63231099Y-161443720D01*
X63027221Y-161443720D01*
X62827262Y-161483494D01*
X62638904Y-161561515D01*
X62469386Y-161674783D01*
X62425449Y-161718720D01*
X56899120Y-161718720D01*
X56925906Y-161668607D01*
X56969363Y-161525346D01*
X56980360Y-161413693D01*
X56980360Y-161413684D01*
X56984036Y-161376361D01*
X56980360Y-161339038D01*
X56980360Y-156375640D01*
X57073075Y-159064377D01*
X57075027Y-159082597D01*
X57081836Y-159106544D01*
X57093187Y-159128702D01*
X57108643Y-159148221D01*
X57127609Y-159164348D01*
X57149357Y-159176466D01*
X57173052Y-159184108D01*
X57197782Y-159186981D01*
X59487782Y-159226981D01*
X59514635Y-159224588D01*
X59538468Y-159217388D01*
X59560438Y-159205676D01*
X59579701Y-159189904D01*
X59595517Y-159170677D01*
X59607278Y-159148734D01*
X59614532Y-159124918D01*
X59617000Y-159100144D01*
X59623778Y-153115059D01*
X61273101Y-153115059D01*
X61393101Y-156125059D01*
X61395328Y-156144205D01*
X61402446Y-156168062D01*
X61414081Y-156190072D01*
X61429786Y-156209390D01*
X61448959Y-156225272D01*
X61470861Y-156237109D01*
X61494652Y-156244445D01*
X61519417Y-156246999D01*
X63699417Y-156256999D01*
X63725598Y-156254393D01*
X63749374Y-156247009D01*
X63771253Y-156235129D01*
X63790393Y-156219208D01*
X63806060Y-156199859D01*
X63817651Y-156177825D01*
X63824721Y-156153954D01*
X63826997Y-156129162D01*
X63806997Y-153099162D01*
X63804450Y-153074677D01*
X63797118Y-153050885D01*
X63785286Y-153028980D01*
X63769408Y-153009804D01*
X63750094Y-152994095D01*
X63728086Y-152982455D01*
X63704230Y-152975333D01*
X63679443Y-152973001D01*
X61399443Y-152983001D01*
X61370281Y-152986526D01*
X61346764Y-152994696D01*
X61325292Y-153007298D01*
X61306691Y-153023846D01*
X61291676Y-153043705D01*
X61280824Y-153066112D01*
X61274552Y-153090205D01*
X61273101Y-153115059D01*
X59623778Y-153115059D01*
X59627000Y-150270144D01*
X59623696Y-150241220D01*
X59615705Y-150217642D01*
X59603267Y-150196075D01*
X59586861Y-150177349D01*
X59567116Y-150162183D01*
X59544793Y-150151161D01*
X59520748Y-150144706D01*
X59495905Y-150143066D01*
X57046744Y-150222071D01*
X56864602Y-150135337D01*
X56847048Y-150128524D01*
X56822637Y-150123630D01*
X56797741Y-150123593D01*
X56773315Y-150128414D01*
X56750300Y-150137907D01*
X56729579Y-150151707D01*
X56711948Y-150169285D01*
X56698086Y-150189965D01*
X56688524Y-150212952D01*
X56683630Y-150237363D01*
X56683593Y-150262259D01*
X56688414Y-150286685D01*
X56697907Y-150309700D01*
X56711707Y-150330421D01*
X56774553Y-150407233D01*
X56843609Y-152409858D01*
X56710616Y-152320995D01*
X56522258Y-152242974D01*
X56322299Y-152203200D01*
X56260161Y-152203200D01*
X55874843Y-151817882D01*
X55851041Y-151788879D01*
X55735316Y-151693906D01*
X55603287Y-151623334D01*
X55460026Y-151579877D01*
X55348373Y-151568880D01*
X55348362Y-151568880D01*
X55311040Y-151565204D01*
X55300876Y-151566205D01*
X55259614Y-151524943D01*
X55090096Y-151411675D01*
X54901738Y-151333654D01*
X54701779Y-151293880D01*
X54497901Y-151293880D01*
X54297942Y-151333654D01*
X54109584Y-151411675D01*
X53940066Y-151524943D01*
X53795903Y-151669106D01*
X53682635Y-151838624D01*
X53604614Y-152026982D01*
X53564840Y-152226941D01*
X53564840Y-152430819D01*
X53604614Y-152630778D01*
X53682635Y-152819136D01*
X53795903Y-152988654D01*
X53940066Y-153132817D01*
X54109584Y-153246085D01*
X54297942Y-153324106D01*
X54497901Y-153363880D01*
X54701779Y-153363880D01*
X54901738Y-153324106D01*
X55090096Y-153246085D01*
X55128070Y-153220712D01*
X55185360Y-153278001D01*
X55185360Y-153340139D01*
X55225134Y-153540098D01*
X55303155Y-153728456D01*
X55416423Y-153897974D01*
X55460360Y-153941911D01*
X55460361Y-161061557D01*
X55172818Y-161349101D01*
X50723995Y-161349101D01*
X50670041Y-161218846D01*
X50556773Y-161049328D01*
X50412610Y-160905165D01*
X50243092Y-160791897D01*
X50054734Y-160713876D01*
X49854775Y-160674102D01*
X49650897Y-160674102D01*
X49450938Y-160713876D01*
X49262580Y-160791897D01*
X49093062Y-160905165D01*
X48948899Y-161049328D01*
X48835631Y-161218846D01*
X48757610Y-161407204D01*
X48717836Y-161607163D01*
X48717836Y-161811041D01*
X48757610Y-162011000D01*
X48773597Y-162049595D01*
X48224226Y-161500225D01*
X48247565Y-161465296D01*
X48325586Y-161276938D01*
X48365360Y-161076979D01*
X48365360Y-160873101D01*
X48325586Y-160673142D01*
X48247565Y-160484784D01*
X48134297Y-160315266D01*
X48090360Y-160271329D01*
X48090360Y-157202363D01*
X48094036Y-157165040D01*
X48090360Y-157127717D01*
X48090360Y-157127707D01*
X48079363Y-157016054D01*
X48035906Y-156872793D01*
X48025216Y-156852794D01*
X47965334Y-156740763D01*
X47894159Y-156654037D01*
X47870361Y-156625039D01*
X47841363Y-156601241D01*
X45532662Y-154292541D01*
X45532662Y-154230403D01*
X45492888Y-154030444D01*
X45414867Y-153842086D01*
X45301599Y-153672568D01*
X45157436Y-153528405D01*
X44987918Y-153415137D01*
X44799560Y-153337116D01*
X44599601Y-153297342D01*
X44395723Y-153297342D01*
X44195764Y-153337116D01*
X44007406Y-153415137D01*
X43837888Y-153528405D01*
X43693725Y-153672568D01*
X43580457Y-153842086D01*
X43502436Y-154030444D01*
X43462662Y-154230403D01*
X43462662Y-154340000D01*
X43137322Y-154340000D01*
X43099999Y-154336324D01*
X43062676Y-154340000D01*
X43062667Y-154340000D01*
X42951014Y-154350997D01*
X42807753Y-154394454D01*
X42675724Y-154465026D01*
X42559999Y-154559999D01*
X42536196Y-154589003D01*
X42265403Y-154859796D01*
X42216355Y-154830580D01*
X44735372Y-152311564D01*
X44764370Y-152287766D01*
X44814288Y-152226941D01*
X44859343Y-152172042D01*
X44929915Y-152040012D01*
X44930940Y-152036633D01*
X44973372Y-151896751D01*
X44984369Y-151785098D01*
X44984369Y-151785089D01*
X44988045Y-151747766D01*
X44984369Y-151710443D01*
X44984369Y-143961774D01*
X44988045Y-143924449D01*
X44984369Y-143887124D01*
X44984369Y-143887116D01*
X44973372Y-143775463D01*
X44929915Y-143632202D01*
X44859343Y-143500173D01*
X44764370Y-143384448D01*
X44735373Y-143360651D01*
X38334732Y-136960011D01*
X43758433Y-136960011D01*
X49185001Y-142386580D01*
X49185000Y-147653421D01*
X48564957Y-148273465D01*
X48508102Y-148284774D01*
X48319744Y-148362795D01*
X48150226Y-148476063D01*
X48006063Y-148620226D01*
X47892795Y-148789744D01*
X47814774Y-148978102D01*
X47775000Y-149178061D01*
X47775000Y-149381939D01*
X47814774Y-149581898D01*
X47892795Y-149770256D01*
X48006063Y-149939774D01*
X48150226Y-150083937D01*
X48319744Y-150197205D01*
X48508102Y-150275226D01*
X48708061Y-150315000D01*
X48911939Y-150315000D01*
X49111898Y-150275226D01*
X49300256Y-150197205D01*
X49469774Y-150083937D01*
X49613937Y-149939774D01*
X49727205Y-149770256D01*
X49805226Y-149581898D01*
X49816535Y-149525043D01*
X50548001Y-148793578D01*
X50548000Y-153776838D01*
X49257758Y-155067081D01*
X49228760Y-155090879D01*
X49204962Y-155119877D01*
X49204961Y-155119878D01*
X49133786Y-155206604D01*
X49063214Y-155338634D01*
X49042398Y-155407258D01*
X49019758Y-155481894D01*
X49016280Y-155517205D01*
X49005084Y-155630880D01*
X49008761Y-155668212D01*
X49008761Y-155892368D01*
X48964823Y-155936306D01*
X48851555Y-156105824D01*
X48773534Y-156294182D01*
X48733760Y-156494141D01*
X48733760Y-156698019D01*
X48773534Y-156897978D01*
X48851555Y-157086336D01*
X48964823Y-157255854D01*
X49108986Y-157400017D01*
X49278504Y-157513285D01*
X49466862Y-157591306D01*
X49666821Y-157631080D01*
X49870699Y-157631080D01*
X50070658Y-157591306D01*
X50259016Y-157513285D01*
X50428534Y-157400017D01*
X50572697Y-157255854D01*
X50685965Y-157086336D01*
X50763986Y-156897978D01*
X50803760Y-156698019D01*
X50803760Y-156494141D01*
X50763986Y-156294182D01*
X50685965Y-156105824D01*
X50572697Y-155936306D01*
X50555416Y-155919025D01*
X51819004Y-154655438D01*
X51848001Y-154631641D01*
X51896623Y-154572395D01*
X51942974Y-154515917D01*
X52013546Y-154383887D01*
X52017977Y-154369280D01*
X52057003Y-154240626D01*
X52068000Y-154128973D01*
X52068000Y-154128964D01*
X52071676Y-154091641D01*
X52068000Y-154054318D01*
X52068000Y-147507801D01*
X56652002Y-142923800D01*
X59413009Y-142923800D01*
X59456946Y-142967737D01*
X59626464Y-143081005D01*
X59814822Y-143159026D01*
X60014781Y-143198800D01*
X60218659Y-143198800D01*
X60418618Y-143159026D01*
X60606976Y-143081005D01*
X60776494Y-142967737D01*
X60920657Y-142823574D01*
X61033925Y-142654056D01*
X61111946Y-142465698D01*
X61151720Y-142265739D01*
X61151720Y-142061861D01*
X61111946Y-141861902D01*
X61033925Y-141673544D01*
X60920657Y-141504026D01*
X60776494Y-141359863D01*
X60606976Y-141246595D01*
X60418618Y-141168574D01*
X60218659Y-141128800D01*
X60014781Y-141128800D01*
X59814822Y-141168574D01*
X59626464Y-141246595D01*
X59456946Y-141359863D01*
X59413009Y-141403800D01*
X56374523Y-141403800D01*
X56337200Y-141400124D01*
X56299877Y-141403800D01*
X56299867Y-141403800D01*
X56188214Y-141414797D01*
X56044953Y-141458254D01*
X55912924Y-141528826D01*
X55797199Y-141623799D01*
X55773401Y-141652797D01*
X50955000Y-146471199D01*
X50955000Y-142063466D01*
X50959281Y-142019999D01*
X50955000Y-141976533D01*
X50955000Y-141211437D01*
X51025226Y-141041898D01*
X51065000Y-140841939D01*
X51065000Y-140638061D01*
X51025226Y-140438102D01*
X50947205Y-140249744D01*
X50833937Y-140080226D01*
X50689774Y-139936063D01*
X50520256Y-139822795D01*
X50331898Y-139744774D01*
X50131939Y-139705000D01*
X49928061Y-139705000D01*
X49728102Y-139744774D01*
X49539744Y-139822795D01*
X49370226Y-139936063D01*
X49303934Y-140002355D01*
X45561578Y-136260000D01*
X50888518Y-136260000D01*
X50925840Y-136263676D01*
X50963162Y-136260000D01*
X50963173Y-136260000D01*
X51074826Y-136249003D01*
X51218087Y-136205546D01*
X51350116Y-136134974D01*
X51465841Y-136040001D01*
X51489643Y-136010998D01*
X52404442Y-135096200D01*
X52466579Y-135096200D01*
X52666538Y-135056426D01*
X52854896Y-134978405D01*
X53024414Y-134865137D01*
X53168577Y-134720974D01*
X53281845Y-134551456D01*
X53359866Y-134363098D01*
X53399640Y-134163139D01*
X53399640Y-133959261D01*
X53359866Y-133759302D01*
X53281845Y-133570944D01*
X53168577Y-133401426D01*
X53024414Y-133257263D01*
X52854896Y-133143995D01*
X52666538Y-133065974D01*
X52466579Y-133026200D01*
X52262701Y-133026200D01*
X52062742Y-133065974D01*
X51874384Y-133143995D01*
X51704866Y-133257263D01*
X51560703Y-133401426D01*
X51447435Y-133570944D01*
X51369414Y-133759302D01*
X51329640Y-133959261D01*
X51329640Y-134021398D01*
X50611039Y-134740000D01*
X32309802Y-134740000D01*
X31376872Y-133807070D01*
X40373034Y-133807070D01*
X40374580Y-133829971D01*
X40380886Y-133854056D01*
X40391770Y-133876447D01*
X40406813Y-133896285D01*
X40425437Y-133912807D01*
X40446926Y-133925378D01*
X40946926Y-134155378D01*
X40971632Y-134163791D01*
X40996328Y-134166947D01*
X43416328Y-134236947D01*
X43431498Y-134236478D01*
X43455952Y-134231805D01*
X43479024Y-134222451D01*
X43499828Y-134208775D01*
X43517564Y-134191303D01*
X43531551Y-134170707D01*
X43541251Y-134147778D01*
X43546291Y-134123398D01*
X43546478Y-134098502D01*
X43541805Y-134074048D01*
X43532451Y-134050976D01*
X43518775Y-134030172D01*
X43501303Y-134012436D01*
X43188012Y-133751360D01*
X43205398Y-132725588D01*
X43695721Y-132581873D01*
X43709926Y-132576775D01*
X43731748Y-132564791D01*
X43750813Y-132548780D01*
X43766389Y-132529358D01*
X43777875Y-132507269D01*
X43784832Y-132483365D01*
X43786992Y-132458562D01*
X43784271Y-132433815D01*
X43776775Y-132410074D01*
X43764791Y-132388252D01*
X43748780Y-132369187D01*
X43729358Y-132353611D01*
X43707269Y-132342125D01*
X43683365Y-132335168D01*
X43658562Y-132333008D01*
X41204580Y-132360789D01*
X41203497Y-132360013D01*
X41180819Y-132349739D01*
X41156573Y-132344086D01*
X41131690Y-132343272D01*
X40521690Y-132383272D01*
X40508104Y-132384902D01*
X40484119Y-132391577D01*
X40461898Y-132402804D01*
X40442293Y-132418150D01*
X40426059Y-132437025D01*
X40413820Y-132458705D01*
X40406045Y-132482356D01*
X40403034Y-132507070D01*
X40373034Y-133807070D01*
X31376872Y-133807070D01*
X31357520Y-133787719D01*
X31357520Y-133725581D01*
X31317746Y-133525622D01*
X31239725Y-133337264D01*
X31126457Y-133167746D01*
X30982294Y-133023583D01*
X30812776Y-132910315D01*
X30624418Y-132832294D01*
X30424459Y-132792520D01*
X30220581Y-132792520D01*
X30020622Y-132832294D01*
X29832264Y-132910315D01*
X29662746Y-133023583D01*
X29518583Y-133167746D01*
X29405315Y-133337264D01*
X29327294Y-133525622D01*
X29287520Y-133725581D01*
X29287520Y-133929459D01*
X29327294Y-134129418D01*
X29405315Y-134317776D01*
X29518583Y-134487294D01*
X29662746Y-134631457D01*
X29832264Y-134744725D01*
X30020622Y-134822746D01*
X30220581Y-134862520D01*
X30282719Y-134862520D01*
X30610210Y-135190011D01*
X29711589Y-135190011D01*
X29466534Y-134944956D01*
X29438817Y-134911183D01*
X29304059Y-134800589D01*
X29150313Y-134718411D01*
X28983490Y-134667805D01*
X28853477Y-134655000D01*
X28853469Y-134655000D01*
X28810000Y-134650719D01*
X28766531Y-134655000D01*
X27893476Y-134655000D01*
X27850000Y-134650718D01*
X27806523Y-134655000D01*
X27676510Y-134667805D01*
X27509687Y-134718411D01*
X27355941Y-134800589D01*
X27221183Y-134911183D01*
X27110589Y-135045941D01*
X27096935Y-135071486D01*
X24094956Y-138073466D01*
X24061183Y-138101183D01*
X23950589Y-138235942D01*
X23868411Y-138389688D01*
X23817805Y-138556511D01*
X23805000Y-138686524D01*
X23805000Y-138686531D01*
X23800719Y-138730000D01*
X23805000Y-138773469D01*
X23805000Y-139138397D01*
X19409360Y-134742759D01*
X19409360Y-134680621D01*
X19369586Y-134480662D01*
X19291565Y-134292304D01*
X19178297Y-134122786D01*
X19034134Y-133978623D01*
X18864616Y-133865355D01*
X18676258Y-133787334D01*
X18476299Y-133747560D01*
X18272421Y-133747560D01*
X18072462Y-133787334D01*
X17884104Y-133865355D01*
X17714586Y-133978623D01*
X17570423Y-134122786D01*
X17457155Y-134292304D01*
X17379134Y-134480662D01*
X17339360Y-134680621D01*
X17339360Y-134884499D01*
X17379134Y-135084458D01*
X17457155Y-135272816D01*
X17570423Y-135442334D01*
X17714586Y-135586497D01*
X17884104Y-135699765D01*
X18072462Y-135777786D01*
X18272421Y-135817560D01*
X18334559Y-135817560D01*
X22594198Y-140077201D01*
X22594199Y-150927989D01*
X22573016Y-150913835D01*
X22384658Y-150835814D01*
X22184699Y-150796040D01*
X21980821Y-150796040D01*
X21780862Y-150835814D01*
X21592504Y-150913835D01*
X21422986Y-151027103D01*
X21278823Y-151171266D01*
X21165555Y-151340784D01*
X21087534Y-151529142D01*
X21047760Y-151729101D01*
X21047760Y-151859847D01*
X21000424Y-151948407D01*
X20980312Y-152014707D01*
X20958396Y-152086954D01*
X20944205Y-152231039D01*
X20947761Y-152267144D01*
X20947762Y-162784286D01*
X20944205Y-162820401D01*
X20958396Y-162964486D01*
X20996549Y-163090256D01*
X21000425Y-163103034D01*
X21068675Y-163230721D01*
X21160524Y-163342639D01*
X21188569Y-163365655D01*
X23203746Y-165380833D01*
X23226762Y-165408878D01*
X23338680Y-165500727D01*
X23466367Y-165568977D01*
X23604915Y-165611005D01*
X23712895Y-165621640D01*
X23712904Y-165621640D01*
X23748999Y-165625195D01*
X23785094Y-165621640D01*
X29995129Y-165621640D01*
X30064066Y-165690577D01*
X30233584Y-165803845D01*
X30421942Y-165881866D01*
X30621901Y-165921640D01*
X30825779Y-165921640D01*
X31025738Y-165881866D01*
X31214096Y-165803845D01*
X31383614Y-165690577D01*
X31527777Y-165546414D01*
X31641045Y-165376896D01*
X31719066Y-165188538D01*
X31758840Y-164988579D01*
X31758840Y-164784701D01*
X31719066Y-164584742D01*
X31641045Y-164396384D01*
X31527777Y-164226866D01*
X31383614Y-164082703D01*
X31214096Y-163969435D01*
X31025738Y-163891414D01*
X30825779Y-163851640D01*
X30621901Y-163851640D01*
X30421942Y-163891414D01*
X30233584Y-163969435D01*
X30064066Y-164082703D01*
X29995129Y-164151640D01*
X24053447Y-164151640D01*
X22417761Y-162515955D01*
X22417761Y-152812554D01*
X22573016Y-152748245D01*
X22594199Y-152734091D01*
X22594199Y-156099029D01*
X22590522Y-156136362D01*
X22594199Y-156173695D01*
X22605196Y-156285348D01*
X22613250Y-156311898D01*
X22648652Y-156428608D01*
X22719224Y-156560638D01*
X22775561Y-156629284D01*
X22814198Y-156676363D01*
X22843196Y-156700161D01*
X27426299Y-161283265D01*
X27450097Y-161312263D01*
X27565822Y-161407236D01*
X27697851Y-161477808D01*
X27841112Y-161521265D01*
X27952765Y-161532262D01*
X27952773Y-161532262D01*
X27990098Y-161535938D01*
X28027423Y-161532262D01*
X28659134Y-161532262D01*
X28703071Y-161576199D01*
X28872589Y-161689467D01*
X29060947Y-161767488D01*
X29260906Y-161807262D01*
X29464784Y-161807262D01*
X29664743Y-161767488D01*
X29727867Y-161741341D01*
X29732674Y-161748535D01*
X29876837Y-161892698D01*
X30046355Y-162005966D01*
X30234713Y-162083987D01*
X30434672Y-162123761D01*
X30638550Y-162123761D01*
X30838509Y-162083987D01*
X30988060Y-162022041D01*
X30988060Y-162753285D01*
X30984383Y-162790617D01*
X30988060Y-162827950D01*
X30999057Y-162939603D01*
X31006605Y-162964486D01*
X31042513Y-163082863D01*
X31113085Y-163214893D01*
X31168698Y-163282657D01*
X31208059Y-163330618D01*
X31237057Y-163354416D01*
X36047880Y-168165240D01*
X34929922Y-168165240D01*
X34430920Y-167666239D01*
X34430920Y-167604101D01*
X34391146Y-167404142D01*
X34313125Y-167215784D01*
X34199857Y-167046266D01*
X34055694Y-166902103D01*
X33886176Y-166788835D01*
X33697818Y-166710814D01*
X33497859Y-166671040D01*
X33293981Y-166671040D01*
X33094022Y-166710814D01*
X32905664Y-166788835D01*
X32739360Y-166899955D01*
X32739360Y-166847101D01*
X32699586Y-166647142D01*
X32621565Y-166458784D01*
X32508297Y-166289266D01*
X32364134Y-166145103D01*
X32194616Y-166031835D01*
X32006258Y-165953814D01*
X31806299Y-165914040D01*
X31602421Y-165914040D01*
X31402462Y-165953814D01*
X31214104Y-166031835D01*
X31044586Y-166145103D01*
X31018632Y-166171057D01*
X30878816Y-166077635D01*
X30690458Y-165999614D01*
X30490499Y-165959840D01*
X30286621Y-165959840D01*
X30086662Y-165999614D01*
X29898304Y-166077635D01*
X29728786Y-166190903D01*
X29584623Y-166335066D01*
X29471355Y-166504584D01*
X29393334Y-166692942D01*
X29353560Y-166892901D01*
X29353560Y-167096779D01*
X29393334Y-167296738D01*
X29471355Y-167485096D01*
X29584623Y-167654614D01*
X29728786Y-167798777D01*
X29898304Y-167912045D01*
X30086662Y-167990066D01*
X30286621Y-168029840D01*
X30490499Y-168029840D01*
X30652763Y-167997564D01*
X31314716Y-168659518D01*
X31170226Y-168756063D01*
X31026063Y-168900226D01*
X30912795Y-169069744D01*
X30834774Y-169258102D01*
X30795000Y-169458061D01*
X30795000Y-169661939D01*
X30834774Y-169861898D01*
X30912795Y-170050256D01*
X31026063Y-170219774D01*
X31170226Y-170363937D01*
X31339744Y-170477205D01*
X31528102Y-170555226D01*
X31584957Y-170566535D01*
X35105000Y-174086579D01*
X35105001Y-174851545D01*
X35072795Y-174899744D01*
X34994774Y-175088102D01*
X34955000Y-175288061D01*
X34955000Y-175491939D01*
X34994774Y-175691898D01*
X35072795Y-175880256D01*
X35186063Y-176049774D01*
X35330226Y-176193937D01*
X35499744Y-176307205D01*
X35688102Y-176385226D01*
X35888061Y-176425000D01*
X36091939Y-176425000D01*
X36291898Y-176385226D01*
X36480256Y-176307205D01*
X36580000Y-176240558D01*
X36679744Y-176307205D01*
X36868102Y-176385226D01*
X37068061Y-176425000D01*
X37271939Y-176425000D01*
X37471898Y-176385226D01*
X37660256Y-176307205D01*
X37685000Y-176290672D01*
X37709744Y-176307205D01*
X37898102Y-176385226D01*
X38098061Y-176425000D01*
X38301939Y-176425000D01*
X38501898Y-176385226D01*
X38690256Y-176307205D01*
X38859774Y-176193937D01*
X39003937Y-176049774D01*
X39117205Y-175880256D01*
X39195226Y-175691898D01*
X39235000Y-175491939D01*
X39235000Y-175288061D01*
X39195226Y-175088102D01*
X39117205Y-174899744D01*
X39003937Y-174730226D01*
X38859774Y-174586063D01*
X38690256Y-174472795D01*
X38501898Y-174394774D01*
X38301939Y-174355000D01*
X38098061Y-174355000D01*
X37898102Y-174394774D01*
X37709744Y-174472795D01*
X37685000Y-174489328D01*
X37660256Y-174472795D01*
X37471898Y-174394774D01*
X37271939Y-174355000D01*
X37068061Y-174355000D01*
X36875000Y-174393402D01*
X36875000Y-173763465D01*
X36879281Y-173719999D01*
X36875000Y-173676533D01*
X36875000Y-173676523D01*
X36862195Y-173546510D01*
X36811589Y-173379687D01*
X36729411Y-173225941D01*
X36618817Y-173091183D01*
X36585050Y-173063472D01*
X34221578Y-170700000D01*
X46915199Y-170700000D01*
X56176201Y-179961003D01*
X56199999Y-179990001D01*
X56228997Y-180013799D01*
X56315723Y-180084974D01*
X56428384Y-180145193D01*
X56447753Y-180155546D01*
X56591014Y-180199003D01*
X56702667Y-180210000D01*
X56702677Y-180210000D01*
X56740000Y-180213676D01*
X56777323Y-180210000D01*
X59104727Y-180210000D01*
X59147583Y-180290179D01*
X59335655Y-180519345D01*
X59564821Y-180707417D01*
X59588362Y-180720000D01*
X59564821Y-180732583D01*
X59335655Y-180920655D01*
X59184367Y-181105000D01*
X54576579Y-181105000D01*
X50329292Y-176857713D01*
X50409774Y-176803937D01*
X50553937Y-176659774D01*
X50667205Y-176490256D01*
X50745226Y-176301898D01*
X50785000Y-176101939D01*
X50785000Y-175898061D01*
X50745226Y-175698102D01*
X50667205Y-175509744D01*
X50553937Y-175340226D01*
X50409774Y-175196063D01*
X50240256Y-175082795D01*
X50051898Y-175004774D01*
X49851939Y-174965000D01*
X49648061Y-174965000D01*
X49448102Y-175004774D01*
X49259744Y-175082795D01*
X49090226Y-175196063D01*
X48946063Y-175340226D01*
X48832795Y-175509744D01*
X48754774Y-175698102D01*
X48715000Y-175898061D01*
X48715000Y-176101939D01*
X48722155Y-176137911D01*
X48590226Y-176226063D01*
X48446063Y-176370226D01*
X48332795Y-176539744D01*
X48254774Y-176728102D01*
X48215000Y-176928061D01*
X48215000Y-177131939D01*
X48254774Y-177331898D01*
X48332795Y-177520256D01*
X48446063Y-177689774D01*
X48590226Y-177833937D01*
X48759744Y-177947205D01*
X48948102Y-178025226D01*
X49004957Y-178036535D01*
X53553470Y-182585049D01*
X53581183Y-182618817D01*
X53614951Y-182646530D01*
X53614953Y-182646532D01*
X53620930Y-182651437D01*
X53715941Y-182729411D01*
X53869687Y-182811589D01*
X54036510Y-182862195D01*
X54166523Y-182875000D01*
X54166533Y-182875000D01*
X54209999Y-182879281D01*
X54253465Y-182875000D01*
X59184367Y-182875000D01*
X59335655Y-183059345D01*
X59564821Y-183247417D01*
X59826275Y-183387166D01*
X60109968Y-183473224D01*
X60331064Y-183495000D01*
X60928936Y-183495000D01*
X61150032Y-183473224D01*
X61433725Y-183387166D01*
X61695179Y-183247417D01*
X61924345Y-183059345D01*
X62112417Y-182830179D01*
X62252166Y-182568725D01*
X62338224Y-182285032D01*
X62367282Y-181990000D01*
X62338224Y-181694968D01*
X62252166Y-181411275D01*
X62112417Y-181149821D01*
X61924345Y-180920655D01*
X61695179Y-180732583D01*
X61671638Y-180720000D01*
X61695179Y-180707417D01*
X61924345Y-180519345D01*
X62112417Y-180290179D01*
X62252166Y-180028725D01*
X62338224Y-179745032D01*
X62367282Y-179450000D01*
X62338224Y-179154968D01*
X62252166Y-178871275D01*
X62112417Y-178609821D01*
X61924345Y-178380655D01*
X61695179Y-178192583D01*
X61671638Y-178180000D01*
X61695179Y-178167417D01*
X61924345Y-177979345D01*
X62112417Y-177750179D01*
X62252166Y-177488725D01*
X62338224Y-177205032D01*
X62367282Y-176910000D01*
X62338224Y-176614968D01*
X62252166Y-176331275D01*
X62112417Y-176069821D01*
X61924345Y-175840655D01*
X61695179Y-175652583D01*
X61671638Y-175640000D01*
X61695179Y-175627417D01*
X61924345Y-175439345D01*
X62112417Y-175210179D01*
X62252166Y-174948725D01*
X62338224Y-174665032D01*
X62367282Y-174370000D01*
X62338224Y-174074968D01*
X62252166Y-173791275D01*
X62112417Y-173529821D01*
X61924345Y-173300655D01*
X61695179Y-173112583D01*
X61671638Y-173100000D01*
X61695179Y-173087417D01*
X61924345Y-172899345D01*
X62112417Y-172670179D01*
X62252166Y-172408725D01*
X62338224Y-172125032D01*
X62367282Y-171830000D01*
X62338224Y-171534968D01*
X62252166Y-171251275D01*
X62112417Y-170989821D01*
X61924345Y-170760655D01*
X61695179Y-170572583D01*
X61671638Y-170560000D01*
X61695179Y-170547417D01*
X61924345Y-170359345D01*
X62112417Y-170130179D01*
X62252166Y-169868725D01*
X62338224Y-169585032D01*
X62367282Y-169290000D01*
X62338224Y-168994968D01*
X62252166Y-168711275D01*
X62112417Y-168449821D01*
X61924345Y-168220655D01*
X61695179Y-168032583D01*
X61666848Y-168017440D01*
X61807433Y-167924708D01*
X62018306Y-167716326D01*
X62184474Y-167470809D01*
X62299551Y-167197591D01*
X62316302Y-167110031D01*
X62195246Y-166877000D01*
X60757000Y-166877000D01*
X60757000Y-166897000D01*
X60503000Y-166897000D01*
X60503000Y-166877000D01*
X59064754Y-166877000D01*
X58943698Y-167110031D01*
X58960449Y-167197591D01*
X59075526Y-167470809D01*
X59241694Y-167716326D01*
X59452567Y-167924708D01*
X59593152Y-168017440D01*
X59564821Y-168032583D01*
X59335655Y-168220655D01*
X59147583Y-168449821D01*
X59007834Y-168711275D01*
X58921776Y-168994968D01*
X58892718Y-169290000D01*
X58895214Y-169315339D01*
X54505554Y-173705000D01*
X54174447Y-173705000D01*
X52523675Y-172054229D01*
X52571016Y-172006888D01*
X52684284Y-171837370D01*
X52762305Y-171649012D01*
X52773614Y-171592157D01*
X54709237Y-169656535D01*
X54766091Y-169645226D01*
X54954449Y-169567205D01*
X55123967Y-169453937D01*
X55268130Y-169309774D01*
X55381398Y-169140256D01*
X55459419Y-168951898D01*
X55499193Y-168751939D01*
X55499193Y-168548061D01*
X55459419Y-168348102D01*
X55381398Y-168159744D01*
X55268130Y-167990226D01*
X55123967Y-167846063D01*
X54954449Y-167732795D01*
X54766091Y-167654774D01*
X54566132Y-167615000D01*
X54362254Y-167615000D01*
X54162295Y-167654774D01*
X53973937Y-167732795D01*
X53804419Y-167846063D01*
X53660256Y-167990226D01*
X53546988Y-168159744D01*
X53468967Y-168348102D01*
X53457658Y-168404956D01*
X51522036Y-170340579D01*
X51465181Y-170351888D01*
X51276823Y-170429909D01*
X51107305Y-170543177D01*
X51059964Y-170590518D01*
X49012955Y-168543509D01*
X48990214Y-168500964D01*
X48895241Y-168385239D01*
X48879366Y-168372211D01*
X48971423Y-168234438D01*
X49049444Y-168046080D01*
X49089218Y-167846121D01*
X49089218Y-167642243D01*
X49049444Y-167442284D01*
X48971423Y-167253926D01*
X48858155Y-167084408D01*
X48713992Y-166940245D01*
X48544474Y-166826977D01*
X48356116Y-166748956D01*
X48156157Y-166709182D01*
X47952279Y-166709182D01*
X47752320Y-166748956D01*
X47563962Y-166826977D01*
X47394444Y-166940245D01*
X47250281Y-167084408D01*
X47137013Y-167253926D01*
X47058992Y-167442284D01*
X47020658Y-167635002D01*
X46286577Y-167635002D01*
X46525049Y-167396530D01*
X46558817Y-167368817D01*
X46590931Y-167329687D01*
X46669410Y-167234060D01*
X46679179Y-167215784D01*
X46751589Y-167080313D01*
X46802195Y-166913490D01*
X46815000Y-166783477D01*
X46815000Y-166783467D01*
X46819281Y-166740001D01*
X46815000Y-166696535D01*
X46815000Y-165653279D01*
X46974421Y-165684990D01*
X47178299Y-165684990D01*
X47378258Y-165645216D01*
X47540383Y-165578061D01*
X51465000Y-165578061D01*
X51465000Y-165781939D01*
X51504774Y-165981898D01*
X51582795Y-166170256D01*
X51696063Y-166339774D01*
X51840226Y-166483937D01*
X52009744Y-166597205D01*
X52198102Y-166675226D01*
X52398061Y-166715000D01*
X52601939Y-166715000D01*
X52801898Y-166675226D01*
X52990256Y-166597205D01*
X53159774Y-166483937D01*
X53303937Y-166339774D01*
X53417205Y-166170256D01*
X53495226Y-165981898D01*
X53535000Y-165781939D01*
X53535000Y-165578061D01*
X53495226Y-165378102D01*
X53417205Y-165189744D01*
X53303937Y-165020226D01*
X53159774Y-164876063D01*
X52990256Y-164762795D01*
X52801898Y-164684774D01*
X52601939Y-164645000D01*
X52398061Y-164645000D01*
X52198102Y-164684774D01*
X52009744Y-164762795D01*
X51840226Y-164876063D01*
X51696063Y-165020226D01*
X51582795Y-165189744D01*
X51504774Y-165378102D01*
X51465000Y-165578061D01*
X47540383Y-165578061D01*
X47566616Y-165567195D01*
X47736134Y-165453927D01*
X47880297Y-165309764D01*
X47993565Y-165140246D01*
X48071586Y-164951888D01*
X48111360Y-164751929D01*
X48111360Y-164548051D01*
X48071586Y-164348092D01*
X47993565Y-164159734D01*
X47880297Y-163990216D01*
X47736134Y-163846053D01*
X47566616Y-163732785D01*
X47378258Y-163654764D01*
X47178299Y-163614990D01*
X46974421Y-163614990D01*
X46774462Y-163654764D01*
X46644205Y-163708719D01*
X46195002Y-163259516D01*
X46195002Y-157104484D01*
X46570361Y-157479843D01*
X46570360Y-160271329D01*
X46526423Y-160315266D01*
X46413155Y-160484784D01*
X46335134Y-160673142D01*
X46295360Y-160873101D01*
X46295360Y-161076979D01*
X46335134Y-161276938D01*
X46413155Y-161465296D01*
X46526423Y-161634814D01*
X46567230Y-161675621D01*
X46566684Y-161681160D01*
X46570360Y-161718482D01*
X46570360Y-161718493D01*
X46581357Y-161830146D01*
X46598714Y-161887363D01*
X46624814Y-161973406D01*
X46695386Y-162105436D01*
X46753972Y-162176822D01*
X46790360Y-162221161D01*
X46819358Y-162244959D01*
X47940041Y-163365643D01*
X47963839Y-163394641D01*
X48079564Y-163489614D01*
X48211593Y-163560186D01*
X48354854Y-163603643D01*
X48466507Y-163614640D01*
X48466516Y-163614640D01*
X48503839Y-163618316D01*
X48541162Y-163614640D01*
X56304958Y-163614640D01*
X56342280Y-163618316D01*
X56379602Y-163614640D01*
X56379613Y-163614640D01*
X56491266Y-163603643D01*
X56634527Y-163560186D01*
X56766556Y-163489614D01*
X56882281Y-163394641D01*
X56906084Y-163365637D01*
X57033001Y-163238720D01*
X58970637Y-163238720D01*
X58964528Y-163250149D01*
X58913992Y-163416745D01*
X58896928Y-163589999D01*
X58896928Y-164830001D01*
X58913992Y-165003255D01*
X58964528Y-165169851D01*
X59046595Y-165323387D01*
X59157038Y-165457962D01*
X59291613Y-165568405D01*
X59400590Y-165626655D01*
X59241694Y-165783674D01*
X59075526Y-166029191D01*
X58960449Y-166302409D01*
X58943698Y-166389969D01*
X59064754Y-166623000D01*
X60503000Y-166623000D01*
X60503000Y-166603000D01*
X60757000Y-166603000D01*
X60757000Y-166623000D01*
X62195246Y-166623000D01*
X62316302Y-166389969D01*
X62299551Y-166302409D01*
X62184474Y-166029191D01*
X62018306Y-165783674D01*
X61859410Y-165626655D01*
X61968387Y-165568405D01*
X62102962Y-165457962D01*
X62213405Y-165323387D01*
X62295472Y-165169851D01*
X62346008Y-165003255D01*
X62363072Y-164830001D01*
X62363072Y-163589999D01*
X62346008Y-163416745D01*
X62295472Y-163250149D01*
X62289363Y-163238720D01*
X62425449Y-163238720D01*
X62469386Y-163282657D01*
X62638904Y-163395925D01*
X62827262Y-163473946D01*
X63027221Y-163513720D01*
X63231099Y-163513720D01*
X63431058Y-163473946D01*
X63619416Y-163395925D01*
X63788934Y-163282657D01*
X63933097Y-163138494D01*
X63960000Y-163098230D01*
X63960001Y-197310000D01*
X15280000Y-197310000D01*
X15280000Y-195350000D01*
X17511928Y-195350000D01*
X17524188Y-195474482D01*
X17560498Y-195594180D01*
X17619463Y-195704494D01*
X17698815Y-195801185D01*
X17795506Y-195880537D01*
X17905820Y-195939502D01*
X18025518Y-195975812D01*
X18150000Y-195988072D01*
X19614250Y-195985000D01*
X19773000Y-195826250D01*
X19773000Y-193977000D01*
X20027000Y-193977000D01*
X20027000Y-195826250D01*
X20185750Y-195985000D01*
X21650000Y-195988072D01*
X21774482Y-195975812D01*
X21894180Y-195939502D01*
X22004494Y-195880537D01*
X22101185Y-195801185D01*
X22180537Y-195704494D01*
X22239502Y-195594180D01*
X22275812Y-195474482D01*
X22288072Y-195350000D01*
X22285892Y-194488061D01*
X26555000Y-194488061D01*
X26555000Y-194691939D01*
X26594774Y-194891898D01*
X26672795Y-195080256D01*
X26786063Y-195249774D01*
X26930226Y-195393937D01*
X27099744Y-195507205D01*
X27288102Y-195585226D01*
X27488061Y-195625000D01*
X27691939Y-195625000D01*
X27891898Y-195585226D01*
X28080256Y-195507205D01*
X28249774Y-195393937D01*
X28356661Y-195287050D01*
X29025000Y-195287050D01*
X29025000Y-195732949D01*
X29046487Y-195951110D01*
X29131401Y-196231033D01*
X29269294Y-196489013D01*
X29454866Y-196715134D01*
X29680986Y-196900706D01*
X29938966Y-197038599D01*
X30218889Y-197123513D01*
X30510000Y-197152185D01*
X30801110Y-197123513D01*
X31081033Y-197038599D01*
X31339013Y-196900706D01*
X31559945Y-196719392D01*
X31570498Y-196754180D01*
X31629463Y-196864494D01*
X31708815Y-196961185D01*
X31805506Y-197040537D01*
X31915820Y-197099502D01*
X32035518Y-197135812D01*
X32160000Y-197148072D01*
X32724250Y-197145000D01*
X32883000Y-196986250D01*
X32883000Y-195637000D01*
X33137000Y-195637000D01*
X33137000Y-196986250D01*
X33295750Y-197145000D01*
X33860000Y-197148072D01*
X33984482Y-197135812D01*
X34104180Y-197099502D01*
X34214494Y-197040537D01*
X34311185Y-196961185D01*
X34390537Y-196864494D01*
X34449502Y-196754180D01*
X34485812Y-196634482D01*
X34498072Y-196510000D01*
X34495000Y-195795750D01*
X34336250Y-195637000D01*
X33137000Y-195637000D01*
X32883000Y-195637000D01*
X32863000Y-195637000D01*
X32863000Y-195383000D01*
X32883000Y-195383000D01*
X32883000Y-194033750D01*
X33137000Y-194033750D01*
X33137000Y-195383000D01*
X34336250Y-195383000D01*
X34495000Y-195224250D01*
X34498072Y-194510000D01*
X34485812Y-194385518D01*
X34449502Y-194265820D01*
X34390537Y-194155506D01*
X34311185Y-194058815D01*
X34214494Y-193979463D01*
X34104180Y-193920498D01*
X33984482Y-193884188D01*
X33860000Y-193871928D01*
X33295750Y-193875000D01*
X33137000Y-194033750D01*
X32883000Y-194033750D01*
X32724250Y-193875000D01*
X32160000Y-193871928D01*
X32035518Y-193884188D01*
X31915820Y-193920498D01*
X31805506Y-193979463D01*
X31708815Y-194058815D01*
X31629463Y-194155506D01*
X31570498Y-194265820D01*
X31559945Y-194300608D01*
X31339014Y-194119294D01*
X31081034Y-193981401D01*
X30801111Y-193896487D01*
X30510000Y-193867815D01*
X30218890Y-193896487D01*
X29938967Y-193981401D01*
X29680987Y-194119294D01*
X29454866Y-194304866D01*
X29269294Y-194530986D01*
X29131401Y-194788966D01*
X29046487Y-195068889D01*
X29025000Y-195287050D01*
X28356661Y-195287050D01*
X28393937Y-195249774D01*
X28507205Y-195080256D01*
X28585226Y-194891898D01*
X28625000Y-194691939D01*
X28625000Y-194629801D01*
X32414802Y-190840000D01*
X35072678Y-190840000D01*
X35110000Y-190843676D01*
X35147322Y-190840000D01*
X35147333Y-190840000D01*
X35258986Y-190829003D01*
X35270000Y-190825662D01*
X35270000Y-192502677D01*
X35266324Y-192540000D01*
X35270000Y-192577322D01*
X35270000Y-192577332D01*
X35280997Y-192688985D01*
X35291765Y-192724482D01*
X35324454Y-192832246D01*
X35395026Y-192964276D01*
X35434871Y-193012826D01*
X35489999Y-193080001D01*
X35519002Y-193103804D01*
X35935000Y-193519801D01*
X35935000Y-193581939D01*
X35974774Y-193781898D01*
X36052795Y-193970256D01*
X36166063Y-194139774D01*
X36310226Y-194283937D01*
X36479744Y-194397205D01*
X36668102Y-194475226D01*
X36868061Y-194515000D01*
X37071939Y-194515000D01*
X37271898Y-194475226D01*
X37460256Y-194397205D01*
X37629774Y-194283937D01*
X37773937Y-194139774D01*
X37887205Y-193970256D01*
X37965226Y-193781898D01*
X38005000Y-193581939D01*
X38005000Y-193378061D01*
X37965226Y-193178102D01*
X37887205Y-192989744D01*
X37773937Y-192820226D01*
X37629774Y-192676063D01*
X37460256Y-192562795D01*
X37271898Y-192484774D01*
X37071939Y-192445000D01*
X37009801Y-192445000D01*
X36790000Y-192225199D01*
X36790000Y-190859360D01*
X36966299Y-190859360D01*
X37166258Y-190819586D01*
X37354616Y-190741565D01*
X37402814Y-190709360D01*
X51851586Y-190709360D01*
X51899784Y-190741565D01*
X52088142Y-190819586D01*
X52288101Y-190859360D01*
X52491979Y-190859360D01*
X52691938Y-190819586D01*
X52880296Y-190741565D01*
X52928494Y-190709360D01*
X54157782Y-190709360D01*
X59443470Y-195995049D01*
X59471183Y-196028817D01*
X59504951Y-196056530D01*
X59504953Y-196056532D01*
X59605941Y-196139411D01*
X59759687Y-196221589D01*
X59926510Y-196272195D01*
X60056523Y-196285000D01*
X60056531Y-196285000D01*
X60100000Y-196289281D01*
X60143469Y-196285000D01*
X61361546Y-196285000D01*
X61409744Y-196317205D01*
X61598102Y-196395226D01*
X61798061Y-196435000D01*
X62001939Y-196435000D01*
X62201898Y-196395226D01*
X62390256Y-196317205D01*
X62559774Y-196203937D01*
X62703937Y-196059774D01*
X62817205Y-195890256D01*
X62895226Y-195701898D01*
X62935000Y-195501939D01*
X62935000Y-195298061D01*
X62895226Y-195098102D01*
X62817205Y-194909744D01*
X62703937Y-194740226D01*
X62559774Y-194596063D01*
X62390256Y-194482795D01*
X62201898Y-194404774D01*
X62001939Y-194365000D01*
X61798061Y-194365000D01*
X61598102Y-194404774D01*
X61409744Y-194482795D01*
X61361546Y-194515000D01*
X60466579Y-194515000D01*
X55180894Y-189229316D01*
X55153177Y-189195543D01*
X55018419Y-189084949D01*
X54864673Y-189002771D01*
X54697850Y-188952165D01*
X54567837Y-188939360D01*
X54567829Y-188939360D01*
X54524360Y-188935079D01*
X54480891Y-188939360D01*
X52928494Y-188939360D01*
X52880296Y-188907155D01*
X52691938Y-188829134D01*
X52491979Y-188789360D01*
X52288101Y-188789360D01*
X52088142Y-188829134D01*
X51899784Y-188907155D01*
X51851586Y-188939360D01*
X37402814Y-188939360D01*
X37354616Y-188907155D01*
X37314332Y-188890469D01*
X38284802Y-187920000D01*
X49632678Y-187920000D01*
X49670000Y-187923676D01*
X49707322Y-187920000D01*
X49707333Y-187920000D01*
X49818986Y-187909003D01*
X49962247Y-187865546D01*
X50094276Y-187794974D01*
X50210001Y-187700001D01*
X50233804Y-187670997D01*
X50630998Y-187273803D01*
X50660001Y-187250001D01*
X50733863Y-187160000D01*
X50754974Y-187134277D01*
X50825546Y-187002247D01*
X50832363Y-186979774D01*
X50869003Y-186858986D01*
X50880000Y-186747333D01*
X50880000Y-186747324D01*
X50883676Y-186710001D01*
X50880000Y-186672678D01*
X50880000Y-184933711D01*
X50923937Y-184889774D01*
X51037205Y-184720256D01*
X51115226Y-184531898D01*
X51155000Y-184331939D01*
X51155000Y-184189801D01*
X51760000Y-184794802D01*
X51760000Y-185192678D01*
X51756324Y-185230000D01*
X51760000Y-185267322D01*
X51760000Y-185267333D01*
X51770997Y-185378986D01*
X51786541Y-185430226D01*
X51814454Y-185522246D01*
X51885026Y-185654276D01*
X51956201Y-185741002D01*
X51980000Y-185770001D01*
X52008998Y-185793799D01*
X53046201Y-186831003D01*
X53069999Y-186860001D01*
X53185724Y-186954974D01*
X53317753Y-187025546D01*
X53461014Y-187069003D01*
X53572667Y-187080000D01*
X53572675Y-187080000D01*
X53610000Y-187083676D01*
X53647325Y-187080000D01*
X54496289Y-187080000D01*
X54540226Y-187123937D01*
X54709744Y-187237205D01*
X54898102Y-187315226D01*
X55098061Y-187355000D01*
X55301939Y-187355000D01*
X55501898Y-187315226D01*
X55690256Y-187237205D01*
X55859774Y-187123937D01*
X56003937Y-186979774D01*
X56117205Y-186810256D01*
X56195226Y-186621898D01*
X56235000Y-186421939D01*
X56235000Y-186218061D01*
X56195226Y-186018102D01*
X56117205Y-185829744D01*
X56003937Y-185660226D01*
X55859774Y-185516063D01*
X55690256Y-185402795D01*
X55501898Y-185324774D01*
X55301939Y-185285000D01*
X55098061Y-185285000D01*
X54898102Y-185324774D01*
X54709744Y-185402795D01*
X54540226Y-185516063D01*
X54496289Y-185560000D01*
X53924802Y-185560000D01*
X53280000Y-184915199D01*
X53280000Y-184517322D01*
X53283676Y-184479999D01*
X53280000Y-184442676D01*
X53280000Y-184442667D01*
X53269003Y-184331014D01*
X53225546Y-184187753D01*
X53154974Y-184055724D01*
X53060001Y-183939999D01*
X53031004Y-183916202D01*
X51733804Y-182619003D01*
X51710001Y-182589999D01*
X51594276Y-182495026D01*
X51462247Y-182424454D01*
X51318986Y-182380997D01*
X51207333Y-182370000D01*
X51207322Y-182370000D01*
X51170000Y-182366324D01*
X51132678Y-182370000D01*
X49457325Y-182370000D01*
X49420000Y-182366324D01*
X49382675Y-182370000D01*
X49382667Y-182370000D01*
X49271014Y-182380997D01*
X49127753Y-182424454D01*
X48995724Y-182495026D01*
X48879999Y-182589999D01*
X48856196Y-182619003D01*
X48558998Y-182916201D01*
X48530000Y-182939999D01*
X48506202Y-182968997D01*
X48506201Y-182968998D01*
X48435026Y-183055724D01*
X48364454Y-183187754D01*
X48336780Y-183278986D01*
X48320998Y-183331014D01*
X48312012Y-183422246D01*
X48306324Y-183480000D01*
X48310001Y-183517332D01*
X48310000Y-185560000D01*
X38017323Y-185560000D01*
X37980000Y-185556324D01*
X37942677Y-185560000D01*
X37942667Y-185560000D01*
X37831014Y-185570997D01*
X37702436Y-185610000D01*
X37687753Y-185614454D01*
X37555723Y-185685026D01*
X37476934Y-185749687D01*
X37439999Y-185779999D01*
X37416201Y-185808997D01*
X34818998Y-188406201D01*
X34790000Y-188429999D01*
X34766202Y-188458997D01*
X34766201Y-188458998D01*
X34695026Y-188545724D01*
X34624454Y-188677754D01*
X34594180Y-188777558D01*
X34580998Y-188821014D01*
X34570000Y-188932667D01*
X34570000Y-188932678D01*
X34566324Y-188970000D01*
X34570000Y-189007322D01*
X34570000Y-189320000D01*
X32137322Y-189320000D01*
X32099999Y-189316324D01*
X32062676Y-189320000D01*
X32062667Y-189320000D01*
X31951014Y-189330997D01*
X31807753Y-189374454D01*
X31675724Y-189445026D01*
X31559999Y-189539999D01*
X31536201Y-189568997D01*
X27550199Y-193555000D01*
X27488061Y-193555000D01*
X27288102Y-193594774D01*
X27099744Y-193672795D01*
X26930226Y-193786063D01*
X26786063Y-193930226D01*
X26672795Y-194099744D01*
X26594774Y-194288102D01*
X26555000Y-194488061D01*
X22285892Y-194488061D01*
X22285000Y-194135750D01*
X22126250Y-193977000D01*
X20027000Y-193977000D01*
X19773000Y-193977000D01*
X17673750Y-193977000D01*
X17515000Y-194135750D01*
X17511928Y-195350000D01*
X15280000Y-195350000D01*
X15280000Y-192350000D01*
X17511928Y-192350000D01*
X17515000Y-193564250D01*
X17673750Y-193723000D01*
X19773000Y-193723000D01*
X19773000Y-191873750D01*
X20027000Y-191873750D01*
X20027000Y-193723000D01*
X22126250Y-193723000D01*
X22285000Y-193564250D01*
X22286698Y-192893195D01*
X22319463Y-192954494D01*
X22398815Y-193051185D01*
X22495506Y-193130537D01*
X22605820Y-193189502D01*
X22725518Y-193225812D01*
X22850000Y-193238072D01*
X24314250Y-193235000D01*
X24473000Y-193076250D01*
X24473000Y-190977000D01*
X24727000Y-190977000D01*
X24727000Y-193076250D01*
X24885750Y-193235000D01*
X26350000Y-193238072D01*
X26474482Y-193225812D01*
X26594180Y-193189502D01*
X26704494Y-193130537D01*
X26801185Y-193051185D01*
X26880537Y-192954494D01*
X26939502Y-192844180D01*
X26975812Y-192724482D01*
X26988072Y-192600000D01*
X26985000Y-191135750D01*
X26826250Y-190977000D01*
X24727000Y-190977000D01*
X24473000Y-190977000D01*
X22373750Y-190977000D01*
X22215000Y-191135750D01*
X22213069Y-192056367D01*
X22180537Y-191995506D01*
X22101185Y-191898815D01*
X22004494Y-191819463D01*
X21894180Y-191760498D01*
X21774482Y-191724188D01*
X21650000Y-191711928D01*
X20185750Y-191715000D01*
X20027000Y-191873750D01*
X19773000Y-191873750D01*
X19614250Y-191715000D01*
X18150000Y-191711928D01*
X18025518Y-191724188D01*
X17905820Y-191760498D01*
X17795506Y-191819463D01*
X17698815Y-191898815D01*
X17619463Y-191995506D01*
X17560498Y-192105820D01*
X17524188Y-192225518D01*
X17511928Y-192350000D01*
X15280000Y-192350000D01*
X15280000Y-186100000D01*
X17511928Y-186100000D01*
X17511928Y-189600000D01*
X17524188Y-189724482D01*
X17560498Y-189844180D01*
X17619463Y-189954494D01*
X17698815Y-190051185D01*
X17795506Y-190130537D01*
X17905820Y-190189502D01*
X18025518Y-190225812D01*
X18150000Y-190238072D01*
X21650000Y-190238072D01*
X21774482Y-190225812D01*
X21894180Y-190189502D01*
X22004494Y-190130537D01*
X22101185Y-190051185D01*
X22180537Y-189954494D01*
X22213591Y-189892655D01*
X22215000Y-190564250D01*
X22373750Y-190723000D01*
X24473000Y-190723000D01*
X24473000Y-188623750D01*
X24727000Y-188623750D01*
X24727000Y-190723000D01*
X26826250Y-190723000D01*
X26985000Y-190564250D01*
X26988072Y-189100000D01*
X26975812Y-188975518D01*
X26939502Y-188855820D01*
X26880537Y-188745506D01*
X26801185Y-188648815D01*
X26704494Y-188569463D01*
X26594180Y-188510498D01*
X26474482Y-188474188D01*
X26350000Y-188461928D01*
X24885750Y-188465000D01*
X24727000Y-188623750D01*
X24473000Y-188623750D01*
X24314250Y-188465000D01*
X22850000Y-188461928D01*
X22725518Y-188474188D01*
X22605820Y-188510498D01*
X22495506Y-188569463D01*
X22398815Y-188648815D01*
X22319463Y-188745506D01*
X22288072Y-188804233D01*
X22288072Y-186100000D01*
X22275812Y-185975518D01*
X22239502Y-185855820D01*
X22180537Y-185745506D01*
X22101185Y-185648815D01*
X22004494Y-185569463D01*
X21894180Y-185510498D01*
X21774482Y-185474188D01*
X21650000Y-185461928D01*
X18150000Y-185461928D01*
X18025518Y-185474188D01*
X17905820Y-185510498D01*
X17795506Y-185569463D01*
X17698815Y-185648815D01*
X17619463Y-185745506D01*
X17560498Y-185855820D01*
X17524188Y-185975518D01*
X17511928Y-186100000D01*
X15280000Y-186100000D01*
X15280000Y-170569781D01*
X15362412Y-170680269D01*
X15578645Y-170875178D01*
X15828748Y-171024157D01*
X16103109Y-171121481D01*
X16333000Y-171000814D01*
X16333000Y-169807000D01*
X16587000Y-169807000D01*
X16587000Y-171000814D01*
X16816891Y-171121481D01*
X17091252Y-171024157D01*
X17341355Y-170875178D01*
X17557588Y-170680269D01*
X17731641Y-170446920D01*
X17856825Y-170184099D01*
X17901476Y-170036890D01*
X17780155Y-169807000D01*
X16587000Y-169807000D01*
X16333000Y-169807000D01*
X16313000Y-169807000D01*
X16313000Y-169553000D01*
X16333000Y-169553000D01*
X16333000Y-169533000D01*
X16587000Y-169533000D01*
X16587000Y-169553000D01*
X17780155Y-169553000D01*
X17901476Y-169323110D01*
X17856825Y-169175901D01*
X17731641Y-168913080D01*
X17557588Y-168679731D01*
X17341355Y-168484822D01*
X17224466Y-168415195D01*
X17406632Y-168293475D01*
X17613475Y-168086632D01*
X17775990Y-167843411D01*
X17887932Y-167573158D01*
X17945000Y-167286260D01*
X17945000Y-166993740D01*
X17887932Y-166706842D01*
X17775990Y-166436589D01*
X17613475Y-166193368D01*
X17406632Y-165986525D01*
X17232240Y-165870000D01*
X17406632Y-165753475D01*
X17613475Y-165546632D01*
X17775990Y-165303411D01*
X17887932Y-165033158D01*
X17945000Y-164746260D01*
X17945000Y-164453740D01*
X17887932Y-164166842D01*
X17775990Y-163896589D01*
X17613475Y-163653368D01*
X17406632Y-163446525D01*
X17232240Y-163330000D01*
X17406632Y-163213475D01*
X17613475Y-163006632D01*
X17775990Y-162763411D01*
X17887932Y-162493158D01*
X17945000Y-162206260D01*
X17945000Y-161913740D01*
X17887932Y-161626842D01*
X17775990Y-161356589D01*
X17613475Y-161113368D01*
X17406632Y-160906525D01*
X17232240Y-160790000D01*
X17406632Y-160673475D01*
X17613475Y-160466632D01*
X17775990Y-160223411D01*
X17887932Y-159953158D01*
X17945000Y-159666260D01*
X17945000Y-159373740D01*
X17887932Y-159086842D01*
X17775990Y-158816589D01*
X17613475Y-158573368D01*
X17406632Y-158366525D01*
X17232240Y-158250000D01*
X17406632Y-158133475D01*
X17613475Y-157926632D01*
X17775990Y-157683411D01*
X17887932Y-157413158D01*
X17945000Y-157126260D01*
X17945000Y-156833740D01*
X17887932Y-156546842D01*
X17775990Y-156276589D01*
X17613475Y-156033368D01*
X17406632Y-155826525D01*
X17232240Y-155710000D01*
X17406632Y-155593475D01*
X17613475Y-155386632D01*
X17775990Y-155143411D01*
X17887932Y-154873158D01*
X17945000Y-154586260D01*
X17945000Y-154293740D01*
X17887932Y-154006842D01*
X17775990Y-153736589D01*
X17613475Y-153493368D01*
X17406632Y-153286525D01*
X17232240Y-153170000D01*
X17406632Y-153053475D01*
X17613475Y-152846632D01*
X17775990Y-152603411D01*
X17887932Y-152333158D01*
X17945000Y-152046260D01*
X17945000Y-151753740D01*
X17887932Y-151466842D01*
X17775990Y-151196589D01*
X17613475Y-150953368D01*
X17406632Y-150746525D01*
X17232240Y-150630000D01*
X17406632Y-150513475D01*
X17613475Y-150306632D01*
X17775990Y-150063411D01*
X17887932Y-149793158D01*
X17936652Y-149548230D01*
X18285001Y-149896580D01*
X18285000Y-171063421D01*
X17464957Y-171883465D01*
X17408102Y-171894774D01*
X17219744Y-171972795D01*
X17050226Y-172086063D01*
X16906063Y-172230226D01*
X16792795Y-172399744D01*
X16714774Y-172588102D01*
X16675000Y-172788061D01*
X16675000Y-172991939D01*
X16714774Y-173191898D01*
X16792795Y-173380256D01*
X16906063Y-173549774D01*
X17050226Y-173693937D01*
X17219744Y-173807205D01*
X17408102Y-173885226D01*
X17608061Y-173925000D01*
X17811939Y-173925000D01*
X18011898Y-173885226D01*
X18200256Y-173807205D01*
X18248454Y-173775000D01*
X19396531Y-173775000D01*
X19440000Y-173779281D01*
X19483469Y-173775000D01*
X19483477Y-173775000D01*
X19613490Y-173762195D01*
X19780313Y-173711589D01*
X19934059Y-173629411D01*
X20068817Y-173518817D01*
X20096534Y-173485044D01*
X21506579Y-172075000D01*
X22242792Y-172075000D01*
X22099687Y-172118411D01*
X21945941Y-172200589D01*
X21945939Y-172200590D01*
X21945940Y-172200590D01*
X21844953Y-172283468D01*
X21844951Y-172283470D01*
X21811183Y-172311183D01*
X21783470Y-172344951D01*
X19554951Y-174573471D01*
X19521184Y-174601183D01*
X19493471Y-174634951D01*
X19493468Y-174634954D01*
X19410590Y-174735941D01*
X19328412Y-174889687D01*
X19277805Y-175056510D01*
X19260719Y-175230000D01*
X19265001Y-175273479D01*
X19265000Y-181976531D01*
X19260719Y-182020000D01*
X19265000Y-182063469D01*
X19265000Y-182063476D01*
X19277805Y-182193489D01*
X19328411Y-182360312D01*
X19410589Y-182514058D01*
X19521183Y-182648817D01*
X19554956Y-182676534D01*
X23563470Y-186685049D01*
X23591183Y-186718817D01*
X23624951Y-186746530D01*
X23624953Y-186746532D01*
X23671795Y-186784974D01*
X23725941Y-186829411D01*
X23879687Y-186911589D01*
X24046510Y-186962195D01*
X24176523Y-186975000D01*
X24176533Y-186975000D01*
X24219999Y-186979281D01*
X24263465Y-186975000D01*
X28691546Y-186975000D01*
X28739744Y-187007205D01*
X28928102Y-187085226D01*
X29128061Y-187125000D01*
X29331939Y-187125000D01*
X29531898Y-187085226D01*
X29720256Y-187007205D01*
X29889774Y-186893937D01*
X30033937Y-186749774D01*
X30147205Y-186580256D01*
X30225226Y-186391898D01*
X30265000Y-186191939D01*
X30265000Y-185988061D01*
X30225226Y-185788102D01*
X30147205Y-185599744D01*
X30033937Y-185430226D01*
X29889774Y-185286063D01*
X29720256Y-185172795D01*
X29531898Y-185094774D01*
X29331939Y-185055000D01*
X29128061Y-185055000D01*
X28928102Y-185094774D01*
X28739744Y-185172795D01*
X28691546Y-185205000D01*
X24586579Y-185205000D01*
X21035000Y-181653422D01*
X21035000Y-180599801D01*
X22793701Y-182358503D01*
X22817499Y-182387501D01*
X22933224Y-182482474D01*
X23065253Y-182553046D01*
X23208514Y-182596503D01*
X23320167Y-182607500D01*
X23320176Y-182607500D01*
X23357499Y-182611176D01*
X23394822Y-182607500D01*
X26133789Y-182607500D01*
X26177726Y-182651437D01*
X26347244Y-182764705D01*
X26535602Y-182842726D01*
X26735561Y-182882500D01*
X26939439Y-182882500D01*
X27139398Y-182842726D01*
X27327756Y-182764705D01*
X27497274Y-182651437D01*
X27641437Y-182507274D01*
X27754705Y-182337756D01*
X27832726Y-182149398D01*
X27872500Y-181949439D01*
X27872500Y-181745561D01*
X27832726Y-181545602D01*
X27754705Y-181357244D01*
X27641437Y-181187726D01*
X27523631Y-181069920D01*
X36416249Y-181069920D01*
X36485186Y-181138857D01*
X36654704Y-181252125D01*
X36843062Y-181330146D01*
X37043021Y-181369920D01*
X37246899Y-181369920D01*
X37446858Y-181330146D01*
X37635216Y-181252125D01*
X37804734Y-181138857D01*
X37948897Y-180994694D01*
X38062165Y-180825176D01*
X38140186Y-180636818D01*
X38142149Y-180626950D01*
X38380000Y-180864802D01*
X38380001Y-182316288D01*
X38336063Y-182360226D01*
X38222795Y-182529744D01*
X38144774Y-182718102D01*
X38105000Y-182918061D01*
X38105000Y-183121939D01*
X38144774Y-183321898D01*
X38222795Y-183510256D01*
X38336063Y-183679774D01*
X38480226Y-183823937D01*
X38649744Y-183937205D01*
X38838102Y-184015226D01*
X39038061Y-184055000D01*
X39241939Y-184055000D01*
X39441898Y-184015226D01*
X39630256Y-183937205D01*
X39799774Y-183823937D01*
X39943937Y-183679774D01*
X40057205Y-183510256D01*
X40135226Y-183321898D01*
X40175000Y-183121939D01*
X40175000Y-182918061D01*
X40135226Y-182718102D01*
X40057205Y-182529744D01*
X39943937Y-182360226D01*
X39900000Y-182316289D01*
X39900000Y-180587322D01*
X39903676Y-180549999D01*
X39900000Y-180512676D01*
X39900000Y-180512667D01*
X39889003Y-180401014D01*
X39845546Y-180257753D01*
X39814143Y-180199003D01*
X39774974Y-180125723D01*
X39703799Y-180038997D01*
X39680001Y-180009999D01*
X39651004Y-179986202D01*
X38073804Y-178409003D01*
X38050001Y-178379999D01*
X37934276Y-178285026D01*
X37802247Y-178214454D01*
X37658986Y-178170997D01*
X37547333Y-178160000D01*
X37547322Y-178160000D01*
X37510000Y-178156324D01*
X37472678Y-178160000D01*
X32664802Y-178160000D01*
X30065000Y-175560199D01*
X30065000Y-175506435D01*
X30108061Y-175515000D01*
X30311939Y-175515000D01*
X30511898Y-175475226D01*
X30700256Y-175397205D01*
X30869774Y-175283937D01*
X31013937Y-175139774D01*
X31127205Y-174970256D01*
X31205226Y-174781898D01*
X31245000Y-174581939D01*
X31245000Y-174378061D01*
X31205226Y-174178102D01*
X31127205Y-173989744D01*
X31013937Y-173820226D01*
X30869774Y-173676063D01*
X30700256Y-173562795D01*
X30511898Y-173484774D01*
X30455044Y-173473465D01*
X29626534Y-172644956D01*
X29598817Y-172611183D01*
X29464059Y-172500589D01*
X29310313Y-172418411D01*
X29143490Y-172367805D01*
X29013477Y-172355000D01*
X29013469Y-172355000D01*
X28970000Y-172350719D01*
X28926531Y-172355000D01*
X26726579Y-172355000D01*
X25316535Y-170944957D01*
X25305226Y-170888102D01*
X25227205Y-170699744D01*
X25113937Y-170530226D01*
X24969774Y-170386063D01*
X24800256Y-170272795D01*
X24611898Y-170194774D01*
X24411939Y-170155000D01*
X24208061Y-170155000D01*
X24008102Y-170194774D01*
X23819744Y-170272795D01*
X23771546Y-170305000D01*
X21183466Y-170305000D01*
X21139999Y-170300719D01*
X21096533Y-170305000D01*
X21096523Y-170305000D01*
X20966510Y-170317805D01*
X20799687Y-170368411D01*
X20645941Y-170450589D01*
X20645939Y-170450590D01*
X20645940Y-170450590D01*
X20544953Y-170533468D01*
X20544951Y-170533470D01*
X20511183Y-170561183D01*
X20483470Y-170594951D01*
X20055000Y-171023421D01*
X20055000Y-149573469D01*
X20059281Y-149530000D01*
X20055000Y-149486531D01*
X20055000Y-149486523D01*
X20042195Y-149356510D01*
X19991589Y-149189687D01*
X19909411Y-149035941D01*
X19826532Y-148934953D01*
X19826530Y-148934951D01*
X19798817Y-148901183D01*
X19765049Y-148873470D01*
X17948072Y-147056494D01*
X17948072Y-145970000D01*
X17935812Y-145845518D01*
X17899502Y-145725820D01*
X17840537Y-145615506D01*
X17761185Y-145518815D01*
X17664494Y-145439463D01*
X17554180Y-145380498D01*
X17434482Y-145344188D01*
X17310000Y-145331928D01*
X15610000Y-145331928D01*
X15485518Y-145344188D01*
X15365820Y-145380498D01*
X15280000Y-145426370D01*
X15280000Y-131160000D01*
X63960000Y-131160000D01*
X63960000Y-161859210D01*
%TA.AperFunction,Conductor*%
D23*
G36*
X63960000Y-161859210D02*
G01*
X63933097Y-161818946D01*
X63788934Y-161674783D01*
X63619416Y-161561515D01*
X63431058Y-161483494D01*
X63231099Y-161443720D01*
X63027221Y-161443720D01*
X62827262Y-161483494D01*
X62638904Y-161561515D01*
X62469386Y-161674783D01*
X62425449Y-161718720D01*
X56899120Y-161718720D01*
X56925906Y-161668607D01*
X56969363Y-161525346D01*
X56980360Y-161413693D01*
X56980360Y-161413684D01*
X56984036Y-161376361D01*
X56980360Y-161339038D01*
X56980360Y-156375640D01*
X57073075Y-159064377D01*
X57075027Y-159082597D01*
X57081836Y-159106544D01*
X57093187Y-159128702D01*
X57108643Y-159148221D01*
X57127609Y-159164348D01*
X57149357Y-159176466D01*
X57173052Y-159184108D01*
X57197782Y-159186981D01*
X59487782Y-159226981D01*
X59514635Y-159224588D01*
X59538468Y-159217388D01*
X59560438Y-159205676D01*
X59579701Y-159189904D01*
X59595517Y-159170677D01*
X59607278Y-159148734D01*
X59614532Y-159124918D01*
X59617000Y-159100144D01*
X59623778Y-153115059D01*
X61273101Y-153115059D01*
X61393101Y-156125059D01*
X61395328Y-156144205D01*
X61402446Y-156168062D01*
X61414081Y-156190072D01*
X61429786Y-156209390D01*
X61448959Y-156225272D01*
X61470861Y-156237109D01*
X61494652Y-156244445D01*
X61519417Y-156246999D01*
X63699417Y-156256999D01*
X63725598Y-156254393D01*
X63749374Y-156247009D01*
X63771253Y-156235129D01*
X63790393Y-156219208D01*
X63806060Y-156199859D01*
X63817651Y-156177825D01*
X63824721Y-156153954D01*
X63826997Y-156129162D01*
X63806997Y-153099162D01*
X63804450Y-153074677D01*
X63797118Y-153050885D01*
X63785286Y-153028980D01*
X63769408Y-153009804D01*
X63750094Y-152994095D01*
X63728086Y-152982455D01*
X63704230Y-152975333D01*
X63679443Y-152973001D01*
X61399443Y-152983001D01*
X61370281Y-152986526D01*
X61346764Y-152994696D01*
X61325292Y-153007298D01*
X61306691Y-153023846D01*
X61291676Y-153043705D01*
X61280824Y-153066112D01*
X61274552Y-153090205D01*
X61273101Y-153115059D01*
X59623778Y-153115059D01*
X59627000Y-150270144D01*
X59623696Y-150241220D01*
X59615705Y-150217642D01*
X59603267Y-150196075D01*
X59586861Y-150177349D01*
X59567116Y-150162183D01*
X59544793Y-150151161D01*
X59520748Y-150144706D01*
X59495905Y-150143066D01*
X57046744Y-150222071D01*
X56864602Y-150135337D01*
X56847048Y-150128524D01*
X56822637Y-150123630D01*
X56797741Y-150123593D01*
X56773315Y-150128414D01*
X56750300Y-150137907D01*
X56729579Y-150151707D01*
X56711948Y-150169285D01*
X56698086Y-150189965D01*
X56688524Y-150212952D01*
X56683630Y-150237363D01*
X56683593Y-150262259D01*
X56688414Y-150286685D01*
X56697907Y-150309700D01*
X56711707Y-150330421D01*
X56774553Y-150407233D01*
X56843609Y-152409858D01*
X56710616Y-152320995D01*
X56522258Y-152242974D01*
X56322299Y-152203200D01*
X56260161Y-152203200D01*
X55874843Y-151817882D01*
X55851041Y-151788879D01*
X55735316Y-151693906D01*
X55603287Y-151623334D01*
X55460026Y-151579877D01*
X55348373Y-151568880D01*
X55348362Y-151568880D01*
X55311040Y-151565204D01*
X55300876Y-151566205D01*
X55259614Y-151524943D01*
X55090096Y-151411675D01*
X54901738Y-151333654D01*
X54701779Y-151293880D01*
X54497901Y-151293880D01*
X54297942Y-151333654D01*
X54109584Y-151411675D01*
X53940066Y-151524943D01*
X53795903Y-151669106D01*
X53682635Y-151838624D01*
X53604614Y-152026982D01*
X53564840Y-152226941D01*
X53564840Y-152430819D01*
X53604614Y-152630778D01*
X53682635Y-152819136D01*
X53795903Y-152988654D01*
X53940066Y-153132817D01*
X54109584Y-153246085D01*
X54297942Y-153324106D01*
X54497901Y-153363880D01*
X54701779Y-153363880D01*
X54901738Y-153324106D01*
X55090096Y-153246085D01*
X55128070Y-153220712D01*
X55185360Y-153278001D01*
X55185360Y-153340139D01*
X55225134Y-153540098D01*
X55303155Y-153728456D01*
X55416423Y-153897974D01*
X55460360Y-153941911D01*
X55460361Y-161061557D01*
X55172818Y-161349101D01*
X50723995Y-161349101D01*
X50670041Y-161218846D01*
X50556773Y-161049328D01*
X50412610Y-160905165D01*
X50243092Y-160791897D01*
X50054734Y-160713876D01*
X49854775Y-160674102D01*
X49650897Y-160674102D01*
X49450938Y-160713876D01*
X49262580Y-160791897D01*
X49093062Y-160905165D01*
X48948899Y-161049328D01*
X48835631Y-161218846D01*
X48757610Y-161407204D01*
X48717836Y-161607163D01*
X48717836Y-161811041D01*
X48757610Y-162011000D01*
X48773597Y-162049595D01*
X48224226Y-161500225D01*
X48247565Y-161465296D01*
X48325586Y-161276938D01*
X48365360Y-161076979D01*
X48365360Y-160873101D01*
X48325586Y-160673142D01*
X48247565Y-160484784D01*
X48134297Y-160315266D01*
X48090360Y-160271329D01*
X48090360Y-157202363D01*
X48094036Y-157165040D01*
X48090360Y-157127717D01*
X48090360Y-157127707D01*
X48079363Y-157016054D01*
X48035906Y-156872793D01*
X48025216Y-156852794D01*
X47965334Y-156740763D01*
X47894159Y-156654037D01*
X47870361Y-156625039D01*
X47841363Y-156601241D01*
X45532662Y-154292541D01*
X45532662Y-154230403D01*
X45492888Y-154030444D01*
X45414867Y-153842086D01*
X45301599Y-153672568D01*
X45157436Y-153528405D01*
X44987918Y-153415137D01*
X44799560Y-153337116D01*
X44599601Y-153297342D01*
X44395723Y-153297342D01*
X44195764Y-153337116D01*
X44007406Y-153415137D01*
X43837888Y-153528405D01*
X43693725Y-153672568D01*
X43580457Y-153842086D01*
X43502436Y-154030444D01*
X43462662Y-154230403D01*
X43462662Y-154340000D01*
X43137322Y-154340000D01*
X43099999Y-154336324D01*
X43062676Y-154340000D01*
X43062667Y-154340000D01*
X42951014Y-154350997D01*
X42807753Y-154394454D01*
X42675724Y-154465026D01*
X42559999Y-154559999D01*
X42536196Y-154589003D01*
X42265403Y-154859796D01*
X42216355Y-154830580D01*
X44735372Y-152311564D01*
X44764370Y-152287766D01*
X44814288Y-152226941D01*
X44859343Y-152172042D01*
X44929915Y-152040012D01*
X44930940Y-152036633D01*
X44973372Y-151896751D01*
X44984369Y-151785098D01*
X44984369Y-151785089D01*
X44988045Y-151747766D01*
X44984369Y-151710443D01*
X44984369Y-143961774D01*
X44988045Y-143924449D01*
X44984369Y-143887124D01*
X44984369Y-143887116D01*
X44973372Y-143775463D01*
X44929915Y-143632202D01*
X44859343Y-143500173D01*
X44764370Y-143384448D01*
X44735373Y-143360651D01*
X38334732Y-136960011D01*
X43758433Y-136960011D01*
X49185001Y-142386580D01*
X49185000Y-147653421D01*
X48564957Y-148273465D01*
X48508102Y-148284774D01*
X48319744Y-148362795D01*
X48150226Y-148476063D01*
X48006063Y-148620226D01*
X47892795Y-148789744D01*
X47814774Y-148978102D01*
X47775000Y-149178061D01*
X47775000Y-149381939D01*
X47814774Y-149581898D01*
X47892795Y-149770256D01*
X48006063Y-149939774D01*
X48150226Y-150083937D01*
X48319744Y-150197205D01*
X48508102Y-150275226D01*
X48708061Y-150315000D01*
X48911939Y-150315000D01*
X49111898Y-150275226D01*
X49300256Y-150197205D01*
X49469774Y-150083937D01*
X49613937Y-149939774D01*
X49727205Y-149770256D01*
X49805226Y-149581898D01*
X49816535Y-149525043D01*
X50548001Y-148793578D01*
X50548000Y-153776838D01*
X49257758Y-155067081D01*
X49228760Y-155090879D01*
X49204962Y-155119877D01*
X49204961Y-155119878D01*
X49133786Y-155206604D01*
X49063214Y-155338634D01*
X49042398Y-155407258D01*
X49019758Y-155481894D01*
X49016280Y-155517205D01*
X49005084Y-155630880D01*
X49008761Y-155668212D01*
X49008761Y-155892368D01*
X48964823Y-155936306D01*
X48851555Y-156105824D01*
X48773534Y-156294182D01*
X48733760Y-156494141D01*
X48733760Y-156698019D01*
X48773534Y-156897978D01*
X48851555Y-157086336D01*
X48964823Y-157255854D01*
X49108986Y-157400017D01*
X49278504Y-157513285D01*
X49466862Y-157591306D01*
X49666821Y-157631080D01*
X49870699Y-157631080D01*
X50070658Y-157591306D01*
X50259016Y-157513285D01*
X50428534Y-157400017D01*
X50572697Y-157255854D01*
X50685965Y-157086336D01*
X50763986Y-156897978D01*
X50803760Y-156698019D01*
X50803760Y-156494141D01*
X50763986Y-156294182D01*
X50685965Y-156105824D01*
X50572697Y-155936306D01*
X50555416Y-155919025D01*
X51819004Y-154655438D01*
X51848001Y-154631641D01*
X51896623Y-154572395D01*
X51942974Y-154515917D01*
X52013546Y-154383887D01*
X52017977Y-154369280D01*
X52057003Y-154240626D01*
X52068000Y-154128973D01*
X52068000Y-154128964D01*
X52071676Y-154091641D01*
X52068000Y-154054318D01*
X52068000Y-147507801D01*
X56652002Y-142923800D01*
X59413009Y-142923800D01*
X59456946Y-142967737D01*
X59626464Y-143081005D01*
X59814822Y-143159026D01*
X60014781Y-143198800D01*
X60218659Y-143198800D01*
X60418618Y-143159026D01*
X60606976Y-143081005D01*
X60776494Y-142967737D01*
X60920657Y-142823574D01*
X61033925Y-142654056D01*
X61111946Y-142465698D01*
X61151720Y-142265739D01*
X61151720Y-142061861D01*
X61111946Y-141861902D01*
X61033925Y-141673544D01*
X60920657Y-141504026D01*
X60776494Y-141359863D01*
X60606976Y-141246595D01*
X60418618Y-141168574D01*
X60218659Y-141128800D01*
X60014781Y-141128800D01*
X59814822Y-141168574D01*
X59626464Y-141246595D01*
X59456946Y-141359863D01*
X59413009Y-141403800D01*
X56374523Y-141403800D01*
X56337200Y-141400124D01*
X56299877Y-141403800D01*
X56299867Y-141403800D01*
X56188214Y-141414797D01*
X56044953Y-141458254D01*
X55912924Y-141528826D01*
X55797199Y-141623799D01*
X55773401Y-141652797D01*
X50955000Y-146471199D01*
X50955000Y-142063466D01*
X50959281Y-142019999D01*
X50955000Y-141976533D01*
X50955000Y-141211437D01*
X51025226Y-141041898D01*
X51065000Y-140841939D01*
X51065000Y-140638061D01*
X51025226Y-140438102D01*
X50947205Y-140249744D01*
X50833937Y-140080226D01*
X50689774Y-139936063D01*
X50520256Y-139822795D01*
X50331898Y-139744774D01*
X50131939Y-139705000D01*
X49928061Y-139705000D01*
X49728102Y-139744774D01*
X49539744Y-139822795D01*
X49370226Y-139936063D01*
X49303934Y-140002355D01*
X45561578Y-136260000D01*
X50888518Y-136260000D01*
X50925840Y-136263676D01*
X50963162Y-136260000D01*
X50963173Y-136260000D01*
X51074826Y-136249003D01*
X51218087Y-136205546D01*
X51350116Y-136134974D01*
X51465841Y-136040001D01*
X51489643Y-136010998D01*
X52404442Y-135096200D01*
X52466579Y-135096200D01*
X52666538Y-135056426D01*
X52854896Y-134978405D01*
X53024414Y-134865137D01*
X53168577Y-134720974D01*
X53281845Y-134551456D01*
X53359866Y-134363098D01*
X53399640Y-134163139D01*
X53399640Y-133959261D01*
X53359866Y-133759302D01*
X53281845Y-133570944D01*
X53168577Y-133401426D01*
X53024414Y-133257263D01*
X52854896Y-133143995D01*
X52666538Y-133065974D01*
X52466579Y-133026200D01*
X52262701Y-133026200D01*
X52062742Y-133065974D01*
X51874384Y-133143995D01*
X51704866Y-133257263D01*
X51560703Y-133401426D01*
X51447435Y-133570944D01*
X51369414Y-133759302D01*
X51329640Y-133959261D01*
X51329640Y-134021398D01*
X50611039Y-134740000D01*
X32309802Y-134740000D01*
X31376872Y-133807070D01*
X40373034Y-133807070D01*
X40374580Y-133829971D01*
X40380886Y-133854056D01*
X40391770Y-133876447D01*
X40406813Y-133896285D01*
X40425437Y-133912807D01*
X40446926Y-133925378D01*
X40946926Y-134155378D01*
X40971632Y-134163791D01*
X40996328Y-134166947D01*
X43416328Y-134236947D01*
X43431498Y-134236478D01*
X43455952Y-134231805D01*
X43479024Y-134222451D01*
X43499828Y-134208775D01*
X43517564Y-134191303D01*
X43531551Y-134170707D01*
X43541251Y-134147778D01*
X43546291Y-134123398D01*
X43546478Y-134098502D01*
X43541805Y-134074048D01*
X43532451Y-134050976D01*
X43518775Y-134030172D01*
X43501303Y-134012436D01*
X43188012Y-133751360D01*
X43205398Y-132725588D01*
X43695721Y-132581873D01*
X43709926Y-132576775D01*
X43731748Y-132564791D01*
X43750813Y-132548780D01*
X43766389Y-132529358D01*
X43777875Y-132507269D01*
X43784832Y-132483365D01*
X43786992Y-132458562D01*
X43784271Y-132433815D01*
X43776775Y-132410074D01*
X43764791Y-132388252D01*
X43748780Y-132369187D01*
X43729358Y-132353611D01*
X43707269Y-132342125D01*
X43683365Y-132335168D01*
X43658562Y-132333008D01*
X41204580Y-132360789D01*
X41203497Y-132360013D01*
X41180819Y-132349739D01*
X41156573Y-132344086D01*
X41131690Y-132343272D01*
X40521690Y-132383272D01*
X40508104Y-132384902D01*
X40484119Y-132391577D01*
X40461898Y-132402804D01*
X40442293Y-132418150D01*
X40426059Y-132437025D01*
X40413820Y-132458705D01*
X40406045Y-132482356D01*
X40403034Y-132507070D01*
X40373034Y-133807070D01*
X31376872Y-133807070D01*
X31357520Y-133787719D01*
X31357520Y-133725581D01*
X31317746Y-133525622D01*
X31239725Y-133337264D01*
X31126457Y-133167746D01*
X30982294Y-133023583D01*
X30812776Y-132910315D01*
X30624418Y-132832294D01*
X30424459Y-132792520D01*
X30220581Y-132792520D01*
X30020622Y-132832294D01*
X29832264Y-132910315D01*
X29662746Y-133023583D01*
X29518583Y-133167746D01*
X29405315Y-133337264D01*
X29327294Y-133525622D01*
X29287520Y-133725581D01*
X29287520Y-133929459D01*
X29327294Y-134129418D01*
X29405315Y-134317776D01*
X29518583Y-134487294D01*
X29662746Y-134631457D01*
X29832264Y-134744725D01*
X30020622Y-134822746D01*
X30220581Y-134862520D01*
X30282719Y-134862520D01*
X30610210Y-135190011D01*
X29711589Y-135190011D01*
X29466534Y-134944956D01*
X29438817Y-134911183D01*
X29304059Y-134800589D01*
X29150313Y-134718411D01*
X28983490Y-134667805D01*
X28853477Y-134655000D01*
X28853469Y-134655000D01*
X28810000Y-134650719D01*
X28766531Y-134655000D01*
X27893476Y-134655000D01*
X27850000Y-134650718D01*
X27806523Y-134655000D01*
X27676510Y-134667805D01*
X27509687Y-134718411D01*
X27355941Y-134800589D01*
X27221183Y-134911183D01*
X27110589Y-135045941D01*
X27096935Y-135071486D01*
X24094956Y-138073466D01*
X24061183Y-138101183D01*
X23950589Y-138235942D01*
X23868411Y-138389688D01*
X23817805Y-138556511D01*
X23805000Y-138686524D01*
X23805000Y-138686531D01*
X23800719Y-138730000D01*
X23805000Y-138773469D01*
X23805000Y-139138397D01*
X19409360Y-134742759D01*
X19409360Y-134680621D01*
X19369586Y-134480662D01*
X19291565Y-134292304D01*
X19178297Y-134122786D01*
X19034134Y-133978623D01*
X18864616Y-133865355D01*
X18676258Y-133787334D01*
X18476299Y-133747560D01*
X18272421Y-133747560D01*
X18072462Y-133787334D01*
X17884104Y-133865355D01*
X17714586Y-133978623D01*
X17570423Y-134122786D01*
X17457155Y-134292304D01*
X17379134Y-134480662D01*
X17339360Y-134680621D01*
X17339360Y-134884499D01*
X17379134Y-135084458D01*
X17457155Y-135272816D01*
X17570423Y-135442334D01*
X17714586Y-135586497D01*
X17884104Y-135699765D01*
X18072462Y-135777786D01*
X18272421Y-135817560D01*
X18334559Y-135817560D01*
X22594198Y-140077201D01*
X22594199Y-150927989D01*
X22573016Y-150913835D01*
X22384658Y-150835814D01*
X22184699Y-150796040D01*
X21980821Y-150796040D01*
X21780862Y-150835814D01*
X21592504Y-150913835D01*
X21422986Y-151027103D01*
X21278823Y-151171266D01*
X21165555Y-151340784D01*
X21087534Y-151529142D01*
X21047760Y-151729101D01*
X21047760Y-151859847D01*
X21000424Y-151948407D01*
X20980312Y-152014707D01*
X20958396Y-152086954D01*
X20944205Y-152231039D01*
X20947761Y-152267144D01*
X20947762Y-162784286D01*
X20944205Y-162820401D01*
X20958396Y-162964486D01*
X20996549Y-163090256D01*
X21000425Y-163103034D01*
X21068675Y-163230721D01*
X21160524Y-163342639D01*
X21188569Y-163365655D01*
X23203746Y-165380833D01*
X23226762Y-165408878D01*
X23338680Y-165500727D01*
X23466367Y-165568977D01*
X23604915Y-165611005D01*
X23712895Y-165621640D01*
X23712904Y-165621640D01*
X23748999Y-165625195D01*
X23785094Y-165621640D01*
X29995129Y-165621640D01*
X30064066Y-165690577D01*
X30233584Y-165803845D01*
X30421942Y-165881866D01*
X30621901Y-165921640D01*
X30825779Y-165921640D01*
X31025738Y-165881866D01*
X31214096Y-165803845D01*
X31383614Y-165690577D01*
X31527777Y-165546414D01*
X31641045Y-165376896D01*
X31719066Y-165188538D01*
X31758840Y-164988579D01*
X31758840Y-164784701D01*
X31719066Y-164584742D01*
X31641045Y-164396384D01*
X31527777Y-164226866D01*
X31383614Y-164082703D01*
X31214096Y-163969435D01*
X31025738Y-163891414D01*
X30825779Y-163851640D01*
X30621901Y-163851640D01*
X30421942Y-163891414D01*
X30233584Y-163969435D01*
X30064066Y-164082703D01*
X29995129Y-164151640D01*
X24053447Y-164151640D01*
X22417761Y-162515955D01*
X22417761Y-152812554D01*
X22573016Y-152748245D01*
X22594199Y-152734091D01*
X22594199Y-156099029D01*
X22590522Y-156136362D01*
X22594199Y-156173695D01*
X22605196Y-156285348D01*
X22613250Y-156311898D01*
X22648652Y-156428608D01*
X22719224Y-156560638D01*
X22775561Y-156629284D01*
X22814198Y-156676363D01*
X22843196Y-156700161D01*
X27426299Y-161283265D01*
X27450097Y-161312263D01*
X27565822Y-161407236D01*
X27697851Y-161477808D01*
X27841112Y-161521265D01*
X27952765Y-161532262D01*
X27952773Y-161532262D01*
X27990098Y-161535938D01*
X28027423Y-161532262D01*
X28659134Y-161532262D01*
X28703071Y-161576199D01*
X28872589Y-161689467D01*
X29060947Y-161767488D01*
X29260906Y-161807262D01*
X29464784Y-161807262D01*
X29664743Y-161767488D01*
X29727867Y-161741341D01*
X29732674Y-161748535D01*
X29876837Y-161892698D01*
X30046355Y-162005966D01*
X30234713Y-162083987D01*
X30434672Y-162123761D01*
X30638550Y-162123761D01*
X30838509Y-162083987D01*
X30988060Y-162022041D01*
X30988060Y-162753285D01*
X30984383Y-162790617D01*
X30988060Y-162827950D01*
X30999057Y-162939603D01*
X31006605Y-162964486D01*
X31042513Y-163082863D01*
X31113085Y-163214893D01*
X31168698Y-163282657D01*
X31208059Y-163330618D01*
X31237057Y-163354416D01*
X36047880Y-168165240D01*
X34929922Y-168165240D01*
X34430920Y-167666239D01*
X34430920Y-167604101D01*
X34391146Y-167404142D01*
X34313125Y-167215784D01*
X34199857Y-167046266D01*
X34055694Y-166902103D01*
X33886176Y-166788835D01*
X33697818Y-166710814D01*
X33497859Y-166671040D01*
X33293981Y-166671040D01*
X33094022Y-166710814D01*
X32905664Y-166788835D01*
X32739360Y-166899955D01*
X32739360Y-166847101D01*
X32699586Y-166647142D01*
X32621565Y-166458784D01*
X32508297Y-166289266D01*
X32364134Y-166145103D01*
X32194616Y-166031835D01*
X32006258Y-165953814D01*
X31806299Y-165914040D01*
X31602421Y-165914040D01*
X31402462Y-165953814D01*
X31214104Y-166031835D01*
X31044586Y-166145103D01*
X31018632Y-166171057D01*
X30878816Y-166077635D01*
X30690458Y-165999614D01*
X30490499Y-165959840D01*
X30286621Y-165959840D01*
X30086662Y-165999614D01*
X29898304Y-166077635D01*
X29728786Y-166190903D01*
X29584623Y-166335066D01*
X29471355Y-166504584D01*
X29393334Y-166692942D01*
X29353560Y-166892901D01*
X29353560Y-167096779D01*
X29393334Y-167296738D01*
X29471355Y-167485096D01*
X29584623Y-167654614D01*
X29728786Y-167798777D01*
X29898304Y-167912045D01*
X30086662Y-167990066D01*
X30286621Y-168029840D01*
X30490499Y-168029840D01*
X30652763Y-167997564D01*
X31314716Y-168659518D01*
X31170226Y-168756063D01*
X31026063Y-168900226D01*
X30912795Y-169069744D01*
X30834774Y-169258102D01*
X30795000Y-169458061D01*
X30795000Y-169661939D01*
X30834774Y-169861898D01*
X30912795Y-170050256D01*
X31026063Y-170219774D01*
X31170226Y-170363937D01*
X31339744Y-170477205D01*
X31528102Y-170555226D01*
X31584957Y-170566535D01*
X35105000Y-174086579D01*
X35105001Y-174851545D01*
X35072795Y-174899744D01*
X34994774Y-175088102D01*
X34955000Y-175288061D01*
X34955000Y-175491939D01*
X34994774Y-175691898D01*
X35072795Y-175880256D01*
X35186063Y-176049774D01*
X35330226Y-176193937D01*
X35499744Y-176307205D01*
X35688102Y-176385226D01*
X35888061Y-176425000D01*
X36091939Y-176425000D01*
X36291898Y-176385226D01*
X36480256Y-176307205D01*
X36580000Y-176240558D01*
X36679744Y-176307205D01*
X36868102Y-176385226D01*
X37068061Y-176425000D01*
X37271939Y-176425000D01*
X37471898Y-176385226D01*
X37660256Y-176307205D01*
X37685000Y-176290672D01*
X37709744Y-176307205D01*
X37898102Y-176385226D01*
X38098061Y-176425000D01*
X38301939Y-176425000D01*
X38501898Y-176385226D01*
X38690256Y-176307205D01*
X38859774Y-176193937D01*
X39003937Y-176049774D01*
X39117205Y-175880256D01*
X39195226Y-175691898D01*
X39235000Y-175491939D01*
X39235000Y-175288061D01*
X39195226Y-175088102D01*
X39117205Y-174899744D01*
X39003937Y-174730226D01*
X38859774Y-174586063D01*
X38690256Y-174472795D01*
X38501898Y-174394774D01*
X38301939Y-174355000D01*
X38098061Y-174355000D01*
X37898102Y-174394774D01*
X37709744Y-174472795D01*
X37685000Y-174489328D01*
X37660256Y-174472795D01*
X37471898Y-174394774D01*
X37271939Y-174355000D01*
X37068061Y-174355000D01*
X36875000Y-174393402D01*
X36875000Y-173763465D01*
X36879281Y-173719999D01*
X36875000Y-173676533D01*
X36875000Y-173676523D01*
X36862195Y-173546510D01*
X36811589Y-173379687D01*
X36729411Y-173225941D01*
X36618817Y-173091183D01*
X36585050Y-173063472D01*
X34221578Y-170700000D01*
X46915199Y-170700000D01*
X56176201Y-179961003D01*
X56199999Y-179990001D01*
X56228997Y-180013799D01*
X56315723Y-180084974D01*
X56428384Y-180145193D01*
X56447753Y-180155546D01*
X56591014Y-180199003D01*
X56702667Y-180210000D01*
X56702677Y-180210000D01*
X56740000Y-180213676D01*
X56777323Y-180210000D01*
X59104727Y-180210000D01*
X59147583Y-180290179D01*
X59335655Y-180519345D01*
X59564821Y-180707417D01*
X59588362Y-180720000D01*
X59564821Y-180732583D01*
X59335655Y-180920655D01*
X59184367Y-181105000D01*
X54576579Y-181105000D01*
X50329292Y-176857713D01*
X50409774Y-176803937D01*
X50553937Y-176659774D01*
X50667205Y-176490256D01*
X50745226Y-176301898D01*
X50785000Y-176101939D01*
X50785000Y-175898061D01*
X50745226Y-175698102D01*
X50667205Y-175509744D01*
X50553937Y-175340226D01*
X50409774Y-175196063D01*
X50240256Y-175082795D01*
X50051898Y-175004774D01*
X49851939Y-174965000D01*
X49648061Y-174965000D01*
X49448102Y-175004774D01*
X49259744Y-175082795D01*
X49090226Y-175196063D01*
X48946063Y-175340226D01*
X48832795Y-175509744D01*
X48754774Y-175698102D01*
X48715000Y-175898061D01*
X48715000Y-176101939D01*
X48722155Y-176137911D01*
X48590226Y-176226063D01*
X48446063Y-176370226D01*
X48332795Y-176539744D01*
X48254774Y-176728102D01*
X48215000Y-176928061D01*
X48215000Y-177131939D01*
X48254774Y-177331898D01*
X48332795Y-177520256D01*
X48446063Y-177689774D01*
X48590226Y-177833937D01*
X48759744Y-177947205D01*
X48948102Y-178025226D01*
X49004957Y-178036535D01*
X53553470Y-182585049D01*
X53581183Y-182618817D01*
X53614951Y-182646530D01*
X53614953Y-182646532D01*
X53620930Y-182651437D01*
X53715941Y-182729411D01*
X53869687Y-182811589D01*
X54036510Y-182862195D01*
X54166523Y-182875000D01*
X54166533Y-182875000D01*
X54209999Y-182879281D01*
X54253465Y-182875000D01*
X59184367Y-182875000D01*
X59335655Y-183059345D01*
X59564821Y-183247417D01*
X59826275Y-183387166D01*
X60109968Y-183473224D01*
X60331064Y-183495000D01*
X60928936Y-183495000D01*
X61150032Y-183473224D01*
X61433725Y-183387166D01*
X61695179Y-183247417D01*
X61924345Y-183059345D01*
X62112417Y-182830179D01*
X62252166Y-182568725D01*
X62338224Y-182285032D01*
X62367282Y-181990000D01*
X62338224Y-181694968D01*
X62252166Y-181411275D01*
X62112417Y-181149821D01*
X61924345Y-180920655D01*
X61695179Y-180732583D01*
X61671638Y-180720000D01*
X61695179Y-180707417D01*
X61924345Y-180519345D01*
X62112417Y-180290179D01*
X62252166Y-180028725D01*
X62338224Y-179745032D01*
X62367282Y-179450000D01*
X62338224Y-179154968D01*
X62252166Y-178871275D01*
X62112417Y-178609821D01*
X61924345Y-178380655D01*
X61695179Y-178192583D01*
X61671638Y-178180000D01*
X61695179Y-178167417D01*
X61924345Y-177979345D01*
X62112417Y-177750179D01*
X62252166Y-177488725D01*
X62338224Y-177205032D01*
X62367282Y-176910000D01*
X62338224Y-176614968D01*
X62252166Y-176331275D01*
X62112417Y-176069821D01*
X61924345Y-175840655D01*
X61695179Y-175652583D01*
X61671638Y-175640000D01*
X61695179Y-175627417D01*
X61924345Y-175439345D01*
X62112417Y-175210179D01*
X62252166Y-174948725D01*
X62338224Y-174665032D01*
X62367282Y-174370000D01*
X62338224Y-174074968D01*
X62252166Y-173791275D01*
X62112417Y-173529821D01*
X61924345Y-173300655D01*
X61695179Y-173112583D01*
X61671638Y-173100000D01*
X61695179Y-173087417D01*
X61924345Y-172899345D01*
X62112417Y-172670179D01*
X62252166Y-172408725D01*
X62338224Y-172125032D01*
X62367282Y-171830000D01*
X62338224Y-171534968D01*
X62252166Y-171251275D01*
X62112417Y-170989821D01*
X61924345Y-170760655D01*
X61695179Y-170572583D01*
X61671638Y-170560000D01*
X61695179Y-170547417D01*
X61924345Y-170359345D01*
X62112417Y-170130179D01*
X62252166Y-169868725D01*
X62338224Y-169585032D01*
X62367282Y-169290000D01*
X62338224Y-168994968D01*
X62252166Y-168711275D01*
X62112417Y-168449821D01*
X61924345Y-168220655D01*
X61695179Y-168032583D01*
X61666848Y-168017440D01*
X61807433Y-167924708D01*
X62018306Y-167716326D01*
X62184474Y-167470809D01*
X62299551Y-167197591D01*
X62316302Y-167110031D01*
X62195246Y-166877000D01*
X60757000Y-166877000D01*
X60757000Y-166897000D01*
X60503000Y-166897000D01*
X60503000Y-166877000D01*
X59064754Y-166877000D01*
X58943698Y-167110031D01*
X58960449Y-167197591D01*
X59075526Y-167470809D01*
X59241694Y-167716326D01*
X59452567Y-167924708D01*
X59593152Y-168017440D01*
X59564821Y-168032583D01*
X59335655Y-168220655D01*
X59147583Y-168449821D01*
X59007834Y-168711275D01*
X58921776Y-168994968D01*
X58892718Y-169290000D01*
X58895214Y-169315339D01*
X54505554Y-173705000D01*
X54174447Y-173705000D01*
X52523675Y-172054229D01*
X52571016Y-172006888D01*
X52684284Y-171837370D01*
X52762305Y-171649012D01*
X52773614Y-171592157D01*
X54709237Y-169656535D01*
X54766091Y-169645226D01*
X54954449Y-169567205D01*
X55123967Y-169453937D01*
X55268130Y-169309774D01*
X55381398Y-169140256D01*
X55459419Y-168951898D01*
X55499193Y-168751939D01*
X55499193Y-168548061D01*
X55459419Y-168348102D01*
X55381398Y-168159744D01*
X55268130Y-167990226D01*
X55123967Y-167846063D01*
X54954449Y-167732795D01*
X54766091Y-167654774D01*
X54566132Y-167615000D01*
X54362254Y-167615000D01*
X54162295Y-167654774D01*
X53973937Y-167732795D01*
X53804419Y-167846063D01*
X53660256Y-167990226D01*
X53546988Y-168159744D01*
X53468967Y-168348102D01*
X53457658Y-168404956D01*
X51522036Y-170340579D01*
X51465181Y-170351888D01*
X51276823Y-170429909D01*
X51107305Y-170543177D01*
X51059964Y-170590518D01*
X49012955Y-168543509D01*
X48990214Y-168500964D01*
X48895241Y-168385239D01*
X48879366Y-168372211D01*
X48971423Y-168234438D01*
X49049444Y-168046080D01*
X49089218Y-167846121D01*
X49089218Y-167642243D01*
X49049444Y-167442284D01*
X48971423Y-167253926D01*
X48858155Y-167084408D01*
X48713992Y-166940245D01*
X48544474Y-166826977D01*
X48356116Y-166748956D01*
X48156157Y-166709182D01*
X47952279Y-166709182D01*
X47752320Y-166748956D01*
X47563962Y-166826977D01*
X47394444Y-166940245D01*
X47250281Y-167084408D01*
X47137013Y-167253926D01*
X47058992Y-167442284D01*
X47020658Y-167635002D01*
X46286577Y-167635002D01*
X46525049Y-167396530D01*
X46558817Y-167368817D01*
X46590931Y-167329687D01*
X46669410Y-167234060D01*
X46679179Y-167215784D01*
X46751589Y-167080313D01*
X46802195Y-166913490D01*
X46815000Y-166783477D01*
X46815000Y-166783467D01*
X46819281Y-166740001D01*
X46815000Y-166696535D01*
X46815000Y-165653279D01*
X46974421Y-165684990D01*
X47178299Y-165684990D01*
X47378258Y-165645216D01*
X47540383Y-165578061D01*
X51465000Y-165578061D01*
X51465000Y-165781939D01*
X51504774Y-165981898D01*
X51582795Y-166170256D01*
X51696063Y-166339774D01*
X51840226Y-166483937D01*
X52009744Y-166597205D01*
X52198102Y-166675226D01*
X52398061Y-166715000D01*
X52601939Y-166715000D01*
X52801898Y-166675226D01*
X52990256Y-166597205D01*
X53159774Y-166483937D01*
X53303937Y-166339774D01*
X53417205Y-166170256D01*
X53495226Y-165981898D01*
X53535000Y-165781939D01*
X53535000Y-165578061D01*
X53495226Y-165378102D01*
X53417205Y-165189744D01*
X53303937Y-165020226D01*
X53159774Y-164876063D01*
X52990256Y-164762795D01*
X52801898Y-164684774D01*
X52601939Y-164645000D01*
X52398061Y-164645000D01*
X52198102Y-164684774D01*
X52009744Y-164762795D01*
X51840226Y-164876063D01*
X51696063Y-165020226D01*
X51582795Y-165189744D01*
X51504774Y-165378102D01*
X51465000Y-165578061D01*
X47540383Y-165578061D01*
X47566616Y-165567195D01*
X47736134Y-165453927D01*
X47880297Y-165309764D01*
X47993565Y-165140246D01*
X48071586Y-164951888D01*
X48111360Y-164751929D01*
X48111360Y-164548051D01*
X48071586Y-164348092D01*
X47993565Y-164159734D01*
X47880297Y-163990216D01*
X47736134Y-163846053D01*
X47566616Y-163732785D01*
X47378258Y-163654764D01*
X47178299Y-163614990D01*
X46974421Y-163614990D01*
X46774462Y-163654764D01*
X46644205Y-163708719D01*
X46195002Y-163259516D01*
X46195002Y-157104484D01*
X46570361Y-157479843D01*
X46570360Y-160271329D01*
X46526423Y-160315266D01*
X46413155Y-160484784D01*
X46335134Y-160673142D01*
X46295360Y-160873101D01*
X46295360Y-161076979D01*
X46335134Y-161276938D01*
X46413155Y-161465296D01*
X46526423Y-161634814D01*
X46567230Y-161675621D01*
X46566684Y-161681160D01*
X46570360Y-161718482D01*
X46570360Y-161718493D01*
X46581357Y-161830146D01*
X46598714Y-161887363D01*
X46624814Y-161973406D01*
X46695386Y-162105436D01*
X46753972Y-162176822D01*
X46790360Y-162221161D01*
X46819358Y-162244959D01*
X47940041Y-163365643D01*
X47963839Y-163394641D01*
X48079564Y-163489614D01*
X48211593Y-163560186D01*
X48354854Y-163603643D01*
X48466507Y-163614640D01*
X48466516Y-163614640D01*
X48503839Y-163618316D01*
X48541162Y-163614640D01*
X56304958Y-163614640D01*
X56342280Y-163618316D01*
X56379602Y-163614640D01*
X56379613Y-163614640D01*
X56491266Y-163603643D01*
X56634527Y-163560186D01*
X56766556Y-163489614D01*
X56882281Y-163394641D01*
X56906084Y-163365637D01*
X57033001Y-163238720D01*
X58970637Y-163238720D01*
X58964528Y-163250149D01*
X58913992Y-163416745D01*
X58896928Y-163589999D01*
X58896928Y-164830001D01*
X58913992Y-165003255D01*
X58964528Y-165169851D01*
X59046595Y-165323387D01*
X59157038Y-165457962D01*
X59291613Y-165568405D01*
X59400590Y-165626655D01*
X59241694Y-165783674D01*
X59075526Y-166029191D01*
X58960449Y-166302409D01*
X58943698Y-166389969D01*
X59064754Y-166623000D01*
X60503000Y-166623000D01*
X60503000Y-166603000D01*
X60757000Y-166603000D01*
X60757000Y-166623000D01*
X62195246Y-166623000D01*
X62316302Y-166389969D01*
X62299551Y-166302409D01*
X62184474Y-166029191D01*
X62018306Y-165783674D01*
X61859410Y-165626655D01*
X61968387Y-165568405D01*
X62102962Y-165457962D01*
X62213405Y-165323387D01*
X62295472Y-165169851D01*
X62346008Y-165003255D01*
X62363072Y-164830001D01*
X62363072Y-163589999D01*
X62346008Y-163416745D01*
X62295472Y-163250149D01*
X62289363Y-163238720D01*
X62425449Y-163238720D01*
X62469386Y-163282657D01*
X62638904Y-163395925D01*
X62827262Y-163473946D01*
X63027221Y-163513720D01*
X63231099Y-163513720D01*
X63431058Y-163473946D01*
X63619416Y-163395925D01*
X63788934Y-163282657D01*
X63933097Y-163138494D01*
X63960000Y-163098230D01*
X63960001Y-197310000D01*
X15280000Y-197310000D01*
X15280000Y-195350000D01*
X17511928Y-195350000D01*
X17524188Y-195474482D01*
X17560498Y-195594180D01*
X17619463Y-195704494D01*
X17698815Y-195801185D01*
X17795506Y-195880537D01*
X17905820Y-195939502D01*
X18025518Y-195975812D01*
X18150000Y-195988072D01*
X19614250Y-195985000D01*
X19773000Y-195826250D01*
X19773000Y-193977000D01*
X20027000Y-193977000D01*
X20027000Y-195826250D01*
X20185750Y-195985000D01*
X21650000Y-195988072D01*
X21774482Y-195975812D01*
X21894180Y-195939502D01*
X22004494Y-195880537D01*
X22101185Y-195801185D01*
X22180537Y-195704494D01*
X22239502Y-195594180D01*
X22275812Y-195474482D01*
X22288072Y-195350000D01*
X22285892Y-194488061D01*
X26555000Y-194488061D01*
X26555000Y-194691939D01*
X26594774Y-194891898D01*
X26672795Y-195080256D01*
X26786063Y-195249774D01*
X26930226Y-195393937D01*
X27099744Y-195507205D01*
X27288102Y-195585226D01*
X27488061Y-195625000D01*
X27691939Y-195625000D01*
X27891898Y-195585226D01*
X28080256Y-195507205D01*
X28249774Y-195393937D01*
X28356661Y-195287050D01*
X29025000Y-195287050D01*
X29025000Y-195732949D01*
X29046487Y-195951110D01*
X29131401Y-196231033D01*
X29269294Y-196489013D01*
X29454866Y-196715134D01*
X29680986Y-196900706D01*
X29938966Y-197038599D01*
X30218889Y-197123513D01*
X30510000Y-197152185D01*
X30801110Y-197123513D01*
X31081033Y-197038599D01*
X31339013Y-196900706D01*
X31559945Y-196719392D01*
X31570498Y-196754180D01*
X31629463Y-196864494D01*
X31708815Y-196961185D01*
X31805506Y-197040537D01*
X31915820Y-197099502D01*
X32035518Y-197135812D01*
X32160000Y-197148072D01*
X32724250Y-197145000D01*
X32883000Y-196986250D01*
X32883000Y-195637000D01*
X33137000Y-195637000D01*
X33137000Y-196986250D01*
X33295750Y-197145000D01*
X33860000Y-197148072D01*
X33984482Y-197135812D01*
X34104180Y-197099502D01*
X34214494Y-197040537D01*
X34311185Y-196961185D01*
X34390537Y-196864494D01*
X34449502Y-196754180D01*
X34485812Y-196634482D01*
X34498072Y-196510000D01*
X34495000Y-195795750D01*
X34336250Y-195637000D01*
X33137000Y-195637000D01*
X32883000Y-195637000D01*
X32863000Y-195637000D01*
X32863000Y-195383000D01*
X32883000Y-195383000D01*
X32883000Y-194033750D01*
X33137000Y-194033750D01*
X33137000Y-195383000D01*
X34336250Y-195383000D01*
X34495000Y-195224250D01*
X34498072Y-194510000D01*
X34485812Y-194385518D01*
X34449502Y-194265820D01*
X34390537Y-194155506D01*
X34311185Y-194058815D01*
X34214494Y-193979463D01*
X34104180Y-193920498D01*
X33984482Y-193884188D01*
X33860000Y-193871928D01*
X33295750Y-193875000D01*
X33137000Y-194033750D01*
X32883000Y-194033750D01*
X32724250Y-193875000D01*
X32160000Y-193871928D01*
X32035518Y-193884188D01*
X31915820Y-193920498D01*
X31805506Y-193979463D01*
X31708815Y-194058815D01*
X31629463Y-194155506D01*
X31570498Y-194265820D01*
X31559945Y-194300608D01*
X31339014Y-194119294D01*
X31081034Y-193981401D01*
X30801111Y-193896487D01*
X30510000Y-193867815D01*
X30218890Y-193896487D01*
X29938967Y-193981401D01*
X29680987Y-194119294D01*
X29454866Y-194304866D01*
X29269294Y-194530986D01*
X29131401Y-194788966D01*
X29046487Y-195068889D01*
X29025000Y-195287050D01*
X28356661Y-195287050D01*
X28393937Y-195249774D01*
X28507205Y-195080256D01*
X28585226Y-194891898D01*
X28625000Y-194691939D01*
X28625000Y-194629801D01*
X32414802Y-190840000D01*
X35072678Y-190840000D01*
X35110000Y-190843676D01*
X35147322Y-190840000D01*
X35147333Y-190840000D01*
X35258986Y-190829003D01*
X35270000Y-190825662D01*
X35270000Y-192502677D01*
X35266324Y-192540000D01*
X35270000Y-192577322D01*
X35270000Y-192577332D01*
X35280997Y-192688985D01*
X35291765Y-192724482D01*
X35324454Y-192832246D01*
X35395026Y-192964276D01*
X35434871Y-193012826D01*
X35489999Y-193080001D01*
X35519002Y-193103804D01*
X35935000Y-193519801D01*
X35935000Y-193581939D01*
X35974774Y-193781898D01*
X36052795Y-193970256D01*
X36166063Y-194139774D01*
X36310226Y-194283937D01*
X36479744Y-194397205D01*
X36668102Y-194475226D01*
X36868061Y-194515000D01*
X37071939Y-194515000D01*
X37271898Y-194475226D01*
X37460256Y-194397205D01*
X37629774Y-194283937D01*
X37773937Y-194139774D01*
X37887205Y-193970256D01*
X37965226Y-193781898D01*
X38005000Y-193581939D01*
X38005000Y-193378061D01*
X37965226Y-193178102D01*
X37887205Y-192989744D01*
X37773937Y-192820226D01*
X37629774Y-192676063D01*
X37460256Y-192562795D01*
X37271898Y-192484774D01*
X37071939Y-192445000D01*
X37009801Y-192445000D01*
X36790000Y-192225199D01*
X36790000Y-190859360D01*
X36966299Y-190859360D01*
X37166258Y-190819586D01*
X37354616Y-190741565D01*
X37402814Y-190709360D01*
X51851586Y-190709360D01*
X51899784Y-190741565D01*
X52088142Y-190819586D01*
X52288101Y-190859360D01*
X52491979Y-190859360D01*
X52691938Y-190819586D01*
X52880296Y-190741565D01*
X52928494Y-190709360D01*
X54157782Y-190709360D01*
X59443470Y-195995049D01*
X59471183Y-196028817D01*
X59504951Y-196056530D01*
X59504953Y-196056532D01*
X59605941Y-196139411D01*
X59759687Y-196221589D01*
X59926510Y-196272195D01*
X60056523Y-196285000D01*
X60056531Y-196285000D01*
X60100000Y-196289281D01*
X60143469Y-196285000D01*
X61361546Y-196285000D01*
X61409744Y-196317205D01*
X61598102Y-196395226D01*
X61798061Y-196435000D01*
X62001939Y-196435000D01*
X62201898Y-196395226D01*
X62390256Y-196317205D01*
X62559774Y-196203937D01*
X62703937Y-196059774D01*
X62817205Y-195890256D01*
X62895226Y-195701898D01*
X62935000Y-195501939D01*
X62935000Y-195298061D01*
X62895226Y-195098102D01*
X62817205Y-194909744D01*
X62703937Y-194740226D01*
X62559774Y-194596063D01*
X62390256Y-194482795D01*
X62201898Y-194404774D01*
X62001939Y-194365000D01*
X61798061Y-194365000D01*
X61598102Y-194404774D01*
X61409744Y-194482795D01*
X61361546Y-194515000D01*
X60466579Y-194515000D01*
X55180894Y-189229316D01*
X55153177Y-189195543D01*
X55018419Y-189084949D01*
X54864673Y-189002771D01*
X54697850Y-188952165D01*
X54567837Y-188939360D01*
X54567829Y-188939360D01*
X54524360Y-188935079D01*
X54480891Y-188939360D01*
X52928494Y-188939360D01*
X52880296Y-188907155D01*
X52691938Y-188829134D01*
X52491979Y-188789360D01*
X52288101Y-188789360D01*
X52088142Y-188829134D01*
X51899784Y-188907155D01*
X51851586Y-188939360D01*
X37402814Y-188939360D01*
X37354616Y-188907155D01*
X37314332Y-188890469D01*
X38284802Y-187920000D01*
X49632678Y-187920000D01*
X49670000Y-187923676D01*
X49707322Y-187920000D01*
X49707333Y-187920000D01*
X49818986Y-187909003D01*
X49962247Y-187865546D01*
X50094276Y-187794974D01*
X50210001Y-187700001D01*
X50233804Y-187670997D01*
X50630998Y-187273803D01*
X50660001Y-187250001D01*
X50733863Y-187160000D01*
X50754974Y-187134277D01*
X50825546Y-187002247D01*
X50832363Y-186979774D01*
X50869003Y-186858986D01*
X50880000Y-186747333D01*
X50880000Y-186747324D01*
X50883676Y-186710001D01*
X50880000Y-186672678D01*
X50880000Y-184933711D01*
X50923937Y-184889774D01*
X51037205Y-184720256D01*
X51115226Y-184531898D01*
X51155000Y-184331939D01*
X51155000Y-184189801D01*
X51760000Y-184794802D01*
X51760000Y-185192678D01*
X51756324Y-185230000D01*
X51760000Y-185267322D01*
X51760000Y-185267333D01*
X51770997Y-185378986D01*
X51786541Y-185430226D01*
X51814454Y-185522246D01*
X51885026Y-185654276D01*
X51956201Y-185741002D01*
X51980000Y-185770001D01*
X52008998Y-185793799D01*
X53046201Y-186831003D01*
X53069999Y-186860001D01*
X53185724Y-186954974D01*
X53317753Y-187025546D01*
X53461014Y-187069003D01*
X53572667Y-187080000D01*
X53572675Y-187080000D01*
X53610000Y-187083676D01*
X53647325Y-187080000D01*
X54496289Y-187080000D01*
X54540226Y-187123937D01*
X54709744Y-187237205D01*
X54898102Y-187315226D01*
X55098061Y-187355000D01*
X55301939Y-187355000D01*
X55501898Y-187315226D01*
X55690256Y-187237205D01*
X55859774Y-187123937D01*
X56003937Y-186979774D01*
X56117205Y-186810256D01*
X56195226Y-186621898D01*
X56235000Y-186421939D01*
X56235000Y-186218061D01*
X56195226Y-186018102D01*
X56117205Y-185829744D01*
X56003937Y-185660226D01*
X55859774Y-185516063D01*
X55690256Y-185402795D01*
X55501898Y-185324774D01*
X55301939Y-185285000D01*
X55098061Y-185285000D01*
X54898102Y-185324774D01*
X54709744Y-185402795D01*
X54540226Y-185516063D01*
X54496289Y-185560000D01*
X53924802Y-185560000D01*
X53280000Y-184915199D01*
X53280000Y-184517322D01*
X53283676Y-184479999D01*
X53280000Y-184442676D01*
X53280000Y-184442667D01*
X53269003Y-184331014D01*
X53225546Y-184187753D01*
X53154974Y-184055724D01*
X53060001Y-183939999D01*
X53031004Y-183916202D01*
X51733804Y-182619003D01*
X51710001Y-182589999D01*
X51594276Y-182495026D01*
X51462247Y-182424454D01*
X51318986Y-182380997D01*
X51207333Y-182370000D01*
X51207322Y-182370000D01*
X51170000Y-182366324D01*
X51132678Y-182370000D01*
X49457325Y-182370000D01*
X49420000Y-182366324D01*
X49382675Y-182370000D01*
X49382667Y-182370000D01*
X49271014Y-182380997D01*
X49127753Y-182424454D01*
X48995724Y-182495026D01*
X48879999Y-182589999D01*
X48856196Y-182619003D01*
X48558998Y-182916201D01*
X48530000Y-182939999D01*
X48506202Y-182968997D01*
X48506201Y-182968998D01*
X48435026Y-183055724D01*
X48364454Y-183187754D01*
X48336780Y-183278986D01*
X48320998Y-183331014D01*
X48312012Y-183422246D01*
X48306324Y-183480000D01*
X48310001Y-183517332D01*
X48310000Y-185560000D01*
X38017323Y-185560000D01*
X37980000Y-185556324D01*
X37942677Y-185560000D01*
X37942667Y-185560000D01*
X37831014Y-185570997D01*
X37702436Y-185610000D01*
X37687753Y-185614454D01*
X37555723Y-185685026D01*
X37476934Y-185749687D01*
X37439999Y-185779999D01*
X37416201Y-185808997D01*
X34818998Y-188406201D01*
X34790000Y-188429999D01*
X34766202Y-188458997D01*
X34766201Y-188458998D01*
X34695026Y-188545724D01*
X34624454Y-188677754D01*
X34594180Y-188777558D01*
X34580998Y-188821014D01*
X34570000Y-188932667D01*
X34570000Y-188932678D01*
X34566324Y-188970000D01*
X34570000Y-189007322D01*
X34570000Y-189320000D01*
X32137322Y-189320000D01*
X32099999Y-189316324D01*
X32062676Y-189320000D01*
X32062667Y-189320000D01*
X31951014Y-189330997D01*
X31807753Y-189374454D01*
X31675724Y-189445026D01*
X31559999Y-189539999D01*
X31536201Y-189568997D01*
X27550199Y-193555000D01*
X27488061Y-193555000D01*
X27288102Y-193594774D01*
X27099744Y-193672795D01*
X26930226Y-193786063D01*
X26786063Y-193930226D01*
X26672795Y-194099744D01*
X26594774Y-194288102D01*
X26555000Y-194488061D01*
X22285892Y-194488061D01*
X22285000Y-194135750D01*
X22126250Y-193977000D01*
X20027000Y-193977000D01*
X19773000Y-193977000D01*
X17673750Y-193977000D01*
X17515000Y-194135750D01*
X17511928Y-195350000D01*
X15280000Y-195350000D01*
X15280000Y-192350000D01*
X17511928Y-192350000D01*
X17515000Y-193564250D01*
X17673750Y-193723000D01*
X19773000Y-193723000D01*
X19773000Y-191873750D01*
X20027000Y-191873750D01*
X20027000Y-193723000D01*
X22126250Y-193723000D01*
X22285000Y-193564250D01*
X22286698Y-192893195D01*
X22319463Y-192954494D01*
X22398815Y-193051185D01*
X22495506Y-193130537D01*
X22605820Y-193189502D01*
X22725518Y-193225812D01*
X22850000Y-193238072D01*
X24314250Y-193235000D01*
X24473000Y-193076250D01*
X24473000Y-190977000D01*
X24727000Y-190977000D01*
X24727000Y-193076250D01*
X24885750Y-193235000D01*
X26350000Y-193238072D01*
X26474482Y-193225812D01*
X26594180Y-193189502D01*
X26704494Y-193130537D01*
X26801185Y-193051185D01*
X26880537Y-192954494D01*
X26939502Y-192844180D01*
X26975812Y-192724482D01*
X26988072Y-192600000D01*
X26985000Y-191135750D01*
X26826250Y-190977000D01*
X24727000Y-190977000D01*
X24473000Y-190977000D01*
X22373750Y-190977000D01*
X22215000Y-191135750D01*
X22213069Y-192056367D01*
X22180537Y-191995506D01*
X22101185Y-191898815D01*
X22004494Y-191819463D01*
X21894180Y-191760498D01*
X21774482Y-191724188D01*
X21650000Y-191711928D01*
X20185750Y-191715000D01*
X20027000Y-191873750D01*
X19773000Y-191873750D01*
X19614250Y-191715000D01*
X18150000Y-191711928D01*
X18025518Y-191724188D01*
X17905820Y-191760498D01*
X17795506Y-191819463D01*
X17698815Y-191898815D01*
X17619463Y-191995506D01*
X17560498Y-192105820D01*
X17524188Y-192225518D01*
X17511928Y-192350000D01*
X15280000Y-192350000D01*
X15280000Y-186100000D01*
X17511928Y-186100000D01*
X17511928Y-189600000D01*
X17524188Y-189724482D01*
X17560498Y-189844180D01*
X17619463Y-189954494D01*
X17698815Y-190051185D01*
X17795506Y-190130537D01*
X17905820Y-190189502D01*
X18025518Y-190225812D01*
X18150000Y-190238072D01*
X21650000Y-190238072D01*
X21774482Y-190225812D01*
X21894180Y-190189502D01*
X22004494Y-190130537D01*
X22101185Y-190051185D01*
X22180537Y-189954494D01*
X22213591Y-189892655D01*
X22215000Y-190564250D01*
X22373750Y-190723000D01*
X24473000Y-190723000D01*
X24473000Y-188623750D01*
X24727000Y-188623750D01*
X24727000Y-190723000D01*
X26826250Y-190723000D01*
X26985000Y-190564250D01*
X26988072Y-189100000D01*
X26975812Y-188975518D01*
X26939502Y-188855820D01*
X26880537Y-188745506D01*
X26801185Y-188648815D01*
X26704494Y-188569463D01*
X26594180Y-188510498D01*
X26474482Y-188474188D01*
X26350000Y-188461928D01*
X24885750Y-188465000D01*
X24727000Y-188623750D01*
X24473000Y-188623750D01*
X24314250Y-188465000D01*
X22850000Y-188461928D01*
X22725518Y-188474188D01*
X22605820Y-188510498D01*
X22495506Y-188569463D01*
X22398815Y-188648815D01*
X22319463Y-188745506D01*
X22288072Y-188804233D01*
X22288072Y-186100000D01*
X22275812Y-185975518D01*
X22239502Y-185855820D01*
X22180537Y-185745506D01*
X22101185Y-185648815D01*
X22004494Y-185569463D01*
X21894180Y-185510498D01*
X21774482Y-185474188D01*
X21650000Y-185461928D01*
X18150000Y-185461928D01*
X18025518Y-185474188D01*
X17905820Y-185510498D01*
X17795506Y-185569463D01*
X17698815Y-185648815D01*
X17619463Y-185745506D01*
X17560498Y-185855820D01*
X17524188Y-185975518D01*
X17511928Y-186100000D01*
X15280000Y-186100000D01*
X15280000Y-170569781D01*
X15362412Y-170680269D01*
X15578645Y-170875178D01*
X15828748Y-171024157D01*
X16103109Y-171121481D01*
X16333000Y-171000814D01*
X16333000Y-169807000D01*
X16587000Y-169807000D01*
X16587000Y-171000814D01*
X16816891Y-171121481D01*
X17091252Y-171024157D01*
X17341355Y-170875178D01*
X17557588Y-170680269D01*
X17731641Y-170446920D01*
X17856825Y-170184099D01*
X17901476Y-170036890D01*
X17780155Y-169807000D01*
X16587000Y-169807000D01*
X16333000Y-169807000D01*
X16313000Y-169807000D01*
X16313000Y-169553000D01*
X16333000Y-169553000D01*
X16333000Y-169533000D01*
X16587000Y-169533000D01*
X16587000Y-169553000D01*
X17780155Y-169553000D01*
X17901476Y-169323110D01*
X17856825Y-169175901D01*
X17731641Y-168913080D01*
X17557588Y-168679731D01*
X17341355Y-168484822D01*
X17224466Y-168415195D01*
X17406632Y-168293475D01*
X17613475Y-168086632D01*
X17775990Y-167843411D01*
X17887932Y-167573158D01*
X17945000Y-167286260D01*
X17945000Y-166993740D01*
X17887932Y-166706842D01*
X17775990Y-166436589D01*
X17613475Y-166193368D01*
X17406632Y-165986525D01*
X17232240Y-165870000D01*
X17406632Y-165753475D01*
X17613475Y-165546632D01*
X17775990Y-165303411D01*
X17887932Y-165033158D01*
X17945000Y-164746260D01*
X17945000Y-164453740D01*
X17887932Y-164166842D01*
X17775990Y-163896589D01*
X17613475Y-163653368D01*
X17406632Y-163446525D01*
X17232240Y-163330000D01*
X17406632Y-163213475D01*
X17613475Y-163006632D01*
X17775990Y-162763411D01*
X17887932Y-162493158D01*
X17945000Y-162206260D01*
X17945000Y-161913740D01*
X17887932Y-161626842D01*
X17775990Y-161356589D01*
X17613475Y-161113368D01*
X17406632Y-160906525D01*
X17232240Y-160790000D01*
X17406632Y-160673475D01*
X17613475Y-160466632D01*
X17775990Y-160223411D01*
X17887932Y-159953158D01*
X17945000Y-159666260D01*
X17945000Y-159373740D01*
X17887932Y-159086842D01*
X17775990Y-158816589D01*
X17613475Y-158573368D01*
X17406632Y-158366525D01*
X17232240Y-158250000D01*
X17406632Y-158133475D01*
X17613475Y-157926632D01*
X17775990Y-157683411D01*
X17887932Y-157413158D01*
X17945000Y-157126260D01*
X17945000Y-156833740D01*
X17887932Y-156546842D01*
X17775990Y-156276589D01*
X17613475Y-156033368D01*
X17406632Y-155826525D01*
X17232240Y-155710000D01*
X17406632Y-155593475D01*
X17613475Y-155386632D01*
X17775990Y-155143411D01*
X17887932Y-154873158D01*
X17945000Y-154586260D01*
X17945000Y-154293740D01*
X17887932Y-154006842D01*
X17775990Y-153736589D01*
X17613475Y-153493368D01*
X17406632Y-153286525D01*
X17232240Y-153170000D01*
X17406632Y-153053475D01*
X17613475Y-152846632D01*
X17775990Y-152603411D01*
X17887932Y-152333158D01*
X17945000Y-152046260D01*
X17945000Y-151753740D01*
X17887932Y-151466842D01*
X17775990Y-151196589D01*
X17613475Y-150953368D01*
X17406632Y-150746525D01*
X17232240Y-150630000D01*
X17406632Y-150513475D01*
X17613475Y-150306632D01*
X17775990Y-150063411D01*
X17887932Y-149793158D01*
X17936652Y-149548230D01*
X18285001Y-149896580D01*
X18285000Y-171063421D01*
X17464957Y-171883465D01*
X17408102Y-171894774D01*
X17219744Y-171972795D01*
X17050226Y-172086063D01*
X16906063Y-172230226D01*
X16792795Y-172399744D01*
X16714774Y-172588102D01*
X16675000Y-172788061D01*
X16675000Y-172991939D01*
X16714774Y-173191898D01*
X16792795Y-173380256D01*
X16906063Y-173549774D01*
X17050226Y-173693937D01*
X17219744Y-173807205D01*
X17408102Y-173885226D01*
X17608061Y-173925000D01*
X17811939Y-173925000D01*
X18011898Y-173885226D01*
X18200256Y-173807205D01*
X18248454Y-173775000D01*
X19396531Y-173775000D01*
X19440000Y-173779281D01*
X19483469Y-173775000D01*
X19483477Y-173775000D01*
X19613490Y-173762195D01*
X19780313Y-173711589D01*
X19934059Y-173629411D01*
X20068817Y-173518817D01*
X20096534Y-173485044D01*
X21506579Y-172075000D01*
X22242792Y-172075000D01*
X22099687Y-172118411D01*
X21945941Y-172200589D01*
X21945939Y-172200590D01*
X21945940Y-172200590D01*
X21844953Y-172283468D01*
X21844951Y-172283470D01*
X21811183Y-172311183D01*
X21783470Y-172344951D01*
X19554951Y-174573471D01*
X19521184Y-174601183D01*
X19493471Y-174634951D01*
X19493468Y-174634954D01*
X19410590Y-174735941D01*
X19328412Y-174889687D01*
X19277805Y-175056510D01*
X19260719Y-175230000D01*
X19265001Y-175273479D01*
X19265000Y-181976531D01*
X19260719Y-182020000D01*
X19265000Y-182063469D01*
X19265000Y-182063476D01*
X19277805Y-182193489D01*
X19328411Y-182360312D01*
X19410589Y-182514058D01*
X19521183Y-182648817D01*
X19554956Y-182676534D01*
X23563470Y-186685049D01*
X23591183Y-186718817D01*
X23624951Y-186746530D01*
X23624953Y-186746532D01*
X23671795Y-186784974D01*
X23725941Y-186829411D01*
X23879687Y-186911589D01*
X24046510Y-186962195D01*
X24176523Y-186975000D01*
X24176533Y-186975000D01*
X24219999Y-186979281D01*
X24263465Y-186975000D01*
X28691546Y-186975000D01*
X28739744Y-187007205D01*
X28928102Y-187085226D01*
X29128061Y-187125000D01*
X29331939Y-187125000D01*
X29531898Y-187085226D01*
X29720256Y-187007205D01*
X29889774Y-186893937D01*
X30033937Y-186749774D01*
X30147205Y-186580256D01*
X30225226Y-186391898D01*
X30265000Y-186191939D01*
X30265000Y-185988061D01*
X30225226Y-185788102D01*
X30147205Y-185599744D01*
X30033937Y-185430226D01*
X29889774Y-185286063D01*
X29720256Y-185172795D01*
X29531898Y-185094774D01*
X29331939Y-185055000D01*
X29128061Y-185055000D01*
X28928102Y-185094774D01*
X28739744Y-185172795D01*
X28691546Y-185205000D01*
X24586579Y-185205000D01*
X21035000Y-181653422D01*
X21035000Y-180599801D01*
X22793701Y-182358503D01*
X22817499Y-182387501D01*
X22933224Y-182482474D01*
X23065253Y-182553046D01*
X23208514Y-182596503D01*
X23320167Y-182607500D01*
X23320176Y-182607500D01*
X23357499Y-182611176D01*
X23394822Y-182607500D01*
X26133789Y-182607500D01*
X26177726Y-182651437D01*
X26347244Y-182764705D01*
X26535602Y-182842726D01*
X26735561Y-182882500D01*
X26939439Y-182882500D01*
X27139398Y-182842726D01*
X27327756Y-182764705D01*
X27497274Y-182651437D01*
X27641437Y-182507274D01*
X27754705Y-182337756D01*
X27832726Y-182149398D01*
X27872500Y-181949439D01*
X27872500Y-181745561D01*
X27832726Y-181545602D01*
X27754705Y-181357244D01*
X27641437Y-181187726D01*
X27523631Y-181069920D01*
X36416249Y-181069920D01*
X36485186Y-181138857D01*
X36654704Y-181252125D01*
X36843062Y-181330146D01*
X37043021Y-181369920D01*
X37246899Y-181369920D01*
X37446858Y-181330146D01*
X37635216Y-181252125D01*
X37804734Y-181138857D01*
X37948897Y-180994694D01*
X38062165Y-180825176D01*
X38140186Y-180636818D01*
X38142149Y-180626950D01*
X38380000Y-180864802D01*
X38380001Y-182316288D01*
X38336063Y-182360226D01*
X38222795Y-182529744D01*
X38144774Y-182718102D01*
X38105000Y-182918061D01*
X38105000Y-183121939D01*
X38144774Y-183321898D01*
X38222795Y-183510256D01*
X38336063Y-183679774D01*
X38480226Y-183823937D01*
X38649744Y-183937205D01*
X38838102Y-184015226D01*
X39038061Y-184055000D01*
X39241939Y-184055000D01*
X39441898Y-184015226D01*
X39630256Y-183937205D01*
X39799774Y-183823937D01*
X39943937Y-183679774D01*
X40057205Y-183510256D01*
X40135226Y-183321898D01*
X40175000Y-183121939D01*
X40175000Y-182918061D01*
X40135226Y-182718102D01*
X40057205Y-182529744D01*
X39943937Y-182360226D01*
X39900000Y-182316289D01*
X39900000Y-180587322D01*
X39903676Y-180549999D01*
X39900000Y-180512676D01*
X39900000Y-180512667D01*
X39889003Y-180401014D01*
X39845546Y-180257753D01*
X39814143Y-180199003D01*
X39774974Y-180125723D01*
X39703799Y-180038997D01*
X39680001Y-180009999D01*
X39651004Y-179986202D01*
X38073804Y-178409003D01*
X38050001Y-178379999D01*
X37934276Y-178285026D01*
X37802247Y-178214454D01*
X37658986Y-178170997D01*
X37547333Y-178160000D01*
X37547322Y-178160000D01*
X37510000Y-178156324D01*
X37472678Y-178160000D01*
X32664802Y-178160000D01*
X30065000Y-175560199D01*
X30065000Y-175506435D01*
X30108061Y-175515000D01*
X30311939Y-175515000D01*
X30511898Y-175475226D01*
X30700256Y-175397205D01*
X30869774Y-175283937D01*
X31013937Y-175139774D01*
X31127205Y-174970256D01*
X31205226Y-174781898D01*
X31245000Y-174581939D01*
X31245000Y-174378061D01*
X31205226Y-174178102D01*
X31127205Y-173989744D01*
X31013937Y-173820226D01*
X30869774Y-173676063D01*
X30700256Y-173562795D01*
X30511898Y-173484774D01*
X30455044Y-173473465D01*
X29626534Y-172644956D01*
X29598817Y-172611183D01*
X29464059Y-172500589D01*
X29310313Y-172418411D01*
X29143490Y-172367805D01*
X29013477Y-172355000D01*
X29013469Y-172355000D01*
X28970000Y-172350719D01*
X28926531Y-172355000D01*
X26726579Y-172355000D01*
X25316535Y-170944957D01*
X25305226Y-170888102D01*
X25227205Y-170699744D01*
X25113937Y-170530226D01*
X24969774Y-170386063D01*
X24800256Y-170272795D01*
X24611898Y-170194774D01*
X24411939Y-170155000D01*
X24208061Y-170155000D01*
X24008102Y-170194774D01*
X23819744Y-170272795D01*
X23771546Y-170305000D01*
X21183466Y-170305000D01*
X21139999Y-170300719D01*
X21096533Y-170305000D01*
X21096523Y-170305000D01*
X20966510Y-170317805D01*
X20799687Y-170368411D01*
X20645941Y-170450589D01*
X20645939Y-170450590D01*
X20645940Y-170450590D01*
X20544953Y-170533468D01*
X20544951Y-170533470D01*
X20511183Y-170561183D01*
X20483470Y-170594951D01*
X20055000Y-171023421D01*
X20055000Y-149573469D01*
X20059281Y-149530000D01*
X20055000Y-149486531D01*
X20055000Y-149486523D01*
X20042195Y-149356510D01*
X19991589Y-149189687D01*
X19909411Y-149035941D01*
X19826532Y-148934953D01*
X19826530Y-148934951D01*
X19798817Y-148901183D01*
X19765049Y-148873470D01*
X17948072Y-147056494D01*
X17948072Y-145970000D01*
X17935812Y-145845518D01*
X17899502Y-145725820D01*
X17840537Y-145615506D01*
X17761185Y-145518815D01*
X17664494Y-145439463D01*
X17554180Y-145380498D01*
X17434482Y-145344188D01*
X17310000Y-145331928D01*
X15610000Y-145331928D01*
X15485518Y-145344188D01*
X15365820Y-145380498D01*
X15280000Y-145426370D01*
X15280000Y-131160000D01*
X63960000Y-131160000D01*
X63960000Y-161859210D01*
G37*
%TD.AperFunction*%
D22*
X25703470Y-173835049D02*
X25731183Y-173868817D01*
X25764951Y-173896530D01*
X25764953Y-173896532D01*
X25824995Y-173945807D01*
X25865941Y-173979411D01*
X26019687Y-174061589D01*
X26186510Y-174112195D01*
X26316523Y-174125000D01*
X26316531Y-174125000D01*
X26360000Y-174129281D01*
X26403469Y-174125000D01*
X28603422Y-174125000D01*
X29043421Y-174565000D01*
X28928061Y-174565000D01*
X28728102Y-174604774D01*
X28539744Y-174682795D01*
X28370226Y-174796063D01*
X28226063Y-174940226D01*
X28112795Y-175109744D01*
X28034774Y-175298102D01*
X27995000Y-175498061D01*
X27995000Y-175701939D01*
X28034774Y-175901898D01*
X28112795Y-176090256D01*
X28226063Y-176259774D01*
X28370226Y-176403937D01*
X28539744Y-176517205D01*
X28728102Y-176595226D01*
X28928061Y-176635000D01*
X28990199Y-176635000D01*
X31786200Y-179431002D01*
X31809999Y-179460001D01*
X31838997Y-179483799D01*
X31925723Y-179554974D01*
X32009810Y-179599920D01*
X26618951Y-179599920D01*
X26504372Y-179485341D01*
X26334854Y-179372073D01*
X26146496Y-179294052D01*
X25946537Y-179254278D01*
X25742659Y-179254278D01*
X25542700Y-179294052D01*
X25354342Y-179372073D01*
X25184824Y-179485341D01*
X25040661Y-179629504D01*
X24927393Y-179799022D01*
X24849372Y-179987380D01*
X24809598Y-180187339D01*
X24809598Y-180391217D01*
X24849372Y-180591176D01*
X24927393Y-180779534D01*
X25040661Y-180949052D01*
X25179109Y-181087500D01*
X23672302Y-181087500D01*
X22000000Y-179415199D01*
X22000000Y-178813711D01*
X22043937Y-178769774D01*
X22157205Y-178600256D01*
X22235226Y-178411898D01*
X22275000Y-178211939D01*
X22275000Y-178008061D01*
X22235226Y-177808102D01*
X22157205Y-177619744D01*
X22043937Y-177450226D01*
X21899774Y-177306063D01*
X21730256Y-177192795D01*
X21541898Y-177114774D01*
X21341939Y-177075000D01*
X21138061Y-177075000D01*
X21035000Y-177095500D01*
X21035000Y-175596578D01*
X21606578Y-175025000D01*
X22624428Y-175025000D01*
X22627500Y-176089250D01*
X22660356Y-176122106D01*
X22627387Y-176288998D01*
X22627616Y-176463328D01*
X22660539Y-176627711D01*
X22627500Y-176660750D01*
X22624428Y-177725000D01*
X22636688Y-177849482D01*
X22672998Y-177969180D01*
X22731963Y-178079494D01*
X22811315Y-178176185D01*
X22908006Y-178255537D01*
X23018320Y-178314502D01*
X23138018Y-178350812D01*
X23262500Y-178363072D01*
X24326750Y-178360000D01*
X24359606Y-178327144D01*
X24526498Y-178360113D01*
X24700828Y-178359884D01*
X24865211Y-178326961D01*
X24898250Y-178360000D01*
X25962500Y-178363072D01*
X26086982Y-178350812D01*
X26206680Y-178314502D01*
X26316994Y-178255537D01*
X26413685Y-178176185D01*
X26493037Y-178079494D01*
X26552002Y-177969180D01*
X26588312Y-177849482D01*
X26600572Y-177725000D01*
X26597500Y-176660750D01*
X26564644Y-176627894D01*
X26597613Y-176461002D01*
X26597384Y-176286672D01*
X26564461Y-176122289D01*
X26597500Y-176089250D01*
X26600572Y-175025000D01*
X26588312Y-174900518D01*
X26552002Y-174780820D01*
X26493037Y-174670506D01*
X26413685Y-174573815D01*
X26316994Y-174494463D01*
X26206680Y-174435498D01*
X26086982Y-174399188D01*
X25962500Y-174386928D01*
X24898250Y-174390000D01*
X24865394Y-174422856D01*
X24698502Y-174389887D01*
X24524172Y-174390116D01*
X24359789Y-174423039D01*
X24326750Y-174390000D01*
X23262500Y-174386928D01*
X23138018Y-174399188D01*
X23018320Y-174435498D01*
X22908006Y-174494463D01*
X22811315Y-174573815D01*
X22731963Y-174670506D01*
X22672998Y-174780820D01*
X22636688Y-174900518D01*
X22624428Y-175025000D01*
X21606578Y-175025000D01*
X22806579Y-173825000D01*
X23141546Y-173825000D01*
X23189744Y-173857205D01*
X23378102Y-173935226D01*
X23578061Y-173975000D01*
X23781939Y-173975000D01*
X23981898Y-173935226D01*
X24170256Y-173857205D01*
X24339774Y-173743937D01*
X24483937Y-173599774D01*
X24597205Y-173430256D01*
X24675226Y-173241898D01*
X24715000Y-173041939D01*
X24715000Y-172846579D01*
X25703470Y-173835049D01*
%TA.AperFunction,Conductor*%
D23*
G36*
X25703470Y-173835049D02*
G01*
X25731183Y-173868817D01*
X25764951Y-173896530D01*
X25764953Y-173896532D01*
X25824995Y-173945807D01*
X25865941Y-173979411D01*
X26019687Y-174061589D01*
X26186510Y-174112195D01*
X26316523Y-174125000D01*
X26316531Y-174125000D01*
X26360000Y-174129281D01*
X26403469Y-174125000D01*
X28603422Y-174125000D01*
X29043421Y-174565000D01*
X28928061Y-174565000D01*
X28728102Y-174604774D01*
X28539744Y-174682795D01*
X28370226Y-174796063D01*
X28226063Y-174940226D01*
X28112795Y-175109744D01*
X28034774Y-175298102D01*
X27995000Y-175498061D01*
X27995000Y-175701939D01*
X28034774Y-175901898D01*
X28112795Y-176090256D01*
X28226063Y-176259774D01*
X28370226Y-176403937D01*
X28539744Y-176517205D01*
X28728102Y-176595226D01*
X28928061Y-176635000D01*
X28990199Y-176635000D01*
X31786200Y-179431002D01*
X31809999Y-179460001D01*
X31838997Y-179483799D01*
X31925723Y-179554974D01*
X32009810Y-179599920D01*
X26618951Y-179599920D01*
X26504372Y-179485341D01*
X26334854Y-179372073D01*
X26146496Y-179294052D01*
X25946537Y-179254278D01*
X25742659Y-179254278D01*
X25542700Y-179294052D01*
X25354342Y-179372073D01*
X25184824Y-179485341D01*
X25040661Y-179629504D01*
X24927393Y-179799022D01*
X24849372Y-179987380D01*
X24809598Y-180187339D01*
X24809598Y-180391217D01*
X24849372Y-180591176D01*
X24927393Y-180779534D01*
X25040661Y-180949052D01*
X25179109Y-181087500D01*
X23672302Y-181087500D01*
X22000000Y-179415199D01*
X22000000Y-178813711D01*
X22043937Y-178769774D01*
X22157205Y-178600256D01*
X22235226Y-178411898D01*
X22275000Y-178211939D01*
X22275000Y-178008061D01*
X22235226Y-177808102D01*
X22157205Y-177619744D01*
X22043937Y-177450226D01*
X21899774Y-177306063D01*
X21730256Y-177192795D01*
X21541898Y-177114774D01*
X21341939Y-177075000D01*
X21138061Y-177075000D01*
X21035000Y-177095500D01*
X21035000Y-175596578D01*
X21606578Y-175025000D01*
X22624428Y-175025000D01*
X22627500Y-176089250D01*
X22660356Y-176122106D01*
X22627387Y-176288998D01*
X22627616Y-176463328D01*
X22660539Y-176627711D01*
X22627500Y-176660750D01*
X22624428Y-177725000D01*
X22636688Y-177849482D01*
X22672998Y-177969180D01*
X22731963Y-178079494D01*
X22811315Y-178176185D01*
X22908006Y-178255537D01*
X23018320Y-178314502D01*
X23138018Y-178350812D01*
X23262500Y-178363072D01*
X24326750Y-178360000D01*
X24359606Y-178327144D01*
X24526498Y-178360113D01*
X24700828Y-178359884D01*
X24865211Y-178326961D01*
X24898250Y-178360000D01*
X25962500Y-178363072D01*
X26086982Y-178350812D01*
X26206680Y-178314502D01*
X26316994Y-178255537D01*
X26413685Y-178176185D01*
X26493037Y-178079494D01*
X26552002Y-177969180D01*
X26588312Y-177849482D01*
X26600572Y-177725000D01*
X26597500Y-176660750D01*
X26564644Y-176627894D01*
X26597613Y-176461002D01*
X26597384Y-176286672D01*
X26564461Y-176122289D01*
X26597500Y-176089250D01*
X26600572Y-175025000D01*
X26588312Y-174900518D01*
X26552002Y-174780820D01*
X26493037Y-174670506D01*
X26413685Y-174573815D01*
X26316994Y-174494463D01*
X26206680Y-174435498D01*
X26086982Y-174399188D01*
X25962500Y-174386928D01*
X24898250Y-174390000D01*
X24865394Y-174422856D01*
X24698502Y-174389887D01*
X24524172Y-174390116D01*
X24359789Y-174423039D01*
X24326750Y-174390000D01*
X23262500Y-174386928D01*
X23138018Y-174399188D01*
X23018320Y-174435498D01*
X22908006Y-174494463D01*
X22811315Y-174573815D01*
X22731963Y-174670506D01*
X22672998Y-174780820D01*
X22636688Y-174900518D01*
X22624428Y-175025000D01*
X21606578Y-175025000D01*
X22806579Y-173825000D01*
X23141546Y-173825000D01*
X23189744Y-173857205D01*
X23378102Y-173935226D01*
X23578061Y-173975000D01*
X23781939Y-173975000D01*
X23981898Y-173935226D01*
X24170256Y-173857205D01*
X24339774Y-173743937D01*
X24483937Y-173599774D01*
X24597205Y-173430256D01*
X24675226Y-173241898D01*
X24715000Y-173041939D01*
X24715000Y-172846579D01*
X25703470Y-173835049D01*
G37*
%TD.AperFunction*%
D22*
X24739500Y-177394110D02*
X24739500Y-177555890D01*
X24629471Y-177665919D01*
X24612500Y-177648948D01*
X24595529Y-177665919D01*
X24485500Y-177555890D01*
X24485500Y-177394110D01*
X24595529Y-177284081D01*
X24612500Y-177301052D01*
X24629471Y-177284081D01*
X24739500Y-177394110D01*
%TA.AperFunction,Conductor*%
D23*
G36*
X24739500Y-177394110D02*
G01*
X24739500Y-177555890D01*
X24629471Y-177665919D01*
X24612500Y-177648948D01*
X24595529Y-177665919D01*
X24485500Y-177555890D01*
X24485500Y-177394110D01*
X24595529Y-177284081D01*
X24612500Y-177301052D01*
X24629471Y-177284081D01*
X24739500Y-177394110D01*
G37*
%TD.AperFunction*%
D22*
X24803419Y-176358029D02*
X24786448Y-176375000D01*
X24803419Y-176391971D01*
X24629471Y-176565919D01*
X24612500Y-176548948D01*
X24595529Y-176565919D01*
X24421581Y-176391971D01*
X24438552Y-176375000D01*
X24421581Y-176358029D01*
X24595529Y-176184081D01*
X24612500Y-176201052D01*
X24629471Y-176184081D01*
X24803419Y-176358029D01*
%TA.AperFunction,Conductor*%
D23*
G36*
X24803419Y-176358029D02*
G01*
X24786448Y-176375000D01*
X24803419Y-176391971D01*
X24629471Y-176565919D01*
X24612500Y-176548948D01*
X24595529Y-176565919D01*
X24421581Y-176391971D01*
X24438552Y-176375000D01*
X24421581Y-176358029D01*
X24595529Y-176184081D01*
X24612500Y-176201052D01*
X24629471Y-176184081D01*
X24803419Y-176358029D01*
G37*
%TD.AperFunction*%
D22*
X23703419Y-176358029D02*
X23686448Y-176375000D01*
X23703419Y-176391971D01*
X23593390Y-176502000D01*
X23431610Y-176502000D01*
X23321581Y-176391971D01*
X23338552Y-176375000D01*
X23321581Y-176358029D01*
X23431610Y-176248000D01*
X23593390Y-176248000D01*
X23703419Y-176358029D01*
%TA.AperFunction,Conductor*%
D23*
G36*
X23703419Y-176358029D02*
G01*
X23686448Y-176375000D01*
X23703419Y-176391971D01*
X23593390Y-176502000D01*
X23431610Y-176502000D01*
X23321581Y-176391971D01*
X23338552Y-176375000D01*
X23321581Y-176358029D01*
X23431610Y-176248000D01*
X23593390Y-176248000D01*
X23703419Y-176358029D01*
G37*
%TD.AperFunction*%
D22*
X25903419Y-176358029D02*
X25886448Y-176375000D01*
X25903419Y-176391971D01*
X25793390Y-176502000D01*
X25631610Y-176502000D01*
X25521581Y-176391971D01*
X25538552Y-176375000D01*
X25521581Y-176358029D01*
X25631610Y-176248000D01*
X25793390Y-176248000D01*
X25903419Y-176358029D01*
%TA.AperFunction,Conductor*%
D23*
G36*
X25903419Y-176358029D02*
G01*
X25886448Y-176375000D01*
X25903419Y-176391971D01*
X25793390Y-176502000D01*
X25631610Y-176502000D01*
X25521581Y-176391971D01*
X25538552Y-176375000D01*
X25521581Y-176358029D01*
X25631610Y-176248000D01*
X25793390Y-176248000D01*
X25903419Y-176358029D01*
G37*
%TD.AperFunction*%
D22*
X24739500Y-175194110D02*
X24739500Y-175355890D01*
X24629471Y-175465919D01*
X24612500Y-175448948D01*
X24595529Y-175465919D01*
X24485500Y-175355890D01*
X24485500Y-175194110D01*
X24595529Y-175084081D01*
X24612500Y-175101052D01*
X24629471Y-175084081D01*
X24739500Y-175194110D01*
%TA.AperFunction,Conductor*%
D23*
G36*
X24739500Y-175194110D02*
G01*
X24739500Y-175355890D01*
X24629471Y-175465919D01*
X24612500Y-175448948D01*
X24595529Y-175465919D01*
X24485500Y-175355890D01*
X24485500Y-175194110D01*
X24595529Y-175084081D01*
X24612500Y-175101052D01*
X24629471Y-175084081D01*
X24739500Y-175194110D01*
G37*
%TD.AperFunction*%
D22*
X35072795Y-162109744D02*
X34994774Y-162298102D01*
X34955000Y-162498061D01*
X34955000Y-162701939D01*
X34994774Y-162901898D01*
X35072795Y-163090256D01*
X35186063Y-163259774D01*
X35255001Y-163328712D01*
X35255000Y-164159580D01*
X35251444Y-164195685D01*
X35265635Y-164339770D01*
X35268160Y-164348092D01*
X35307663Y-164478317D01*
X35375913Y-164606004D01*
X35467762Y-164717922D01*
X35495808Y-164740939D01*
X36549060Y-165794192D01*
X36572076Y-165822237D01*
X36683994Y-165914086D01*
X36811681Y-165982336D01*
X36950229Y-166024364D01*
X37094314Y-166038555D01*
X37130419Y-166034999D01*
X43690617Y-166034999D01*
X43692795Y-166040256D01*
X43806063Y-166209774D01*
X43950226Y-166353937D01*
X44119744Y-166467205D01*
X44308102Y-166545226D01*
X44357240Y-166555000D01*
X42283465Y-166555000D01*
X42239999Y-166550719D01*
X42196533Y-166555000D01*
X42196523Y-166555000D01*
X42066510Y-166567805D01*
X41899687Y-166618411D01*
X41845292Y-166647485D01*
X41708102Y-166674774D01*
X41519744Y-166752795D01*
X41350226Y-166866063D01*
X41206063Y-167010226D01*
X41092795Y-167179744D01*
X41014774Y-167368102D01*
X40975000Y-167568061D01*
X40975000Y-167635002D01*
X37667246Y-167635002D01*
X32508059Y-162475816D01*
X32508059Y-162382258D01*
X32629676Y-162382258D01*
X32829635Y-162342484D01*
X33017993Y-162264463D01*
X33187511Y-162151195D01*
X33231448Y-162107258D01*
X35074456Y-162107258D01*
X35072795Y-162109744D01*
%TA.AperFunction,Conductor*%
D23*
G36*
X35072795Y-162109744D02*
G01*
X34994774Y-162298102D01*
X34955000Y-162498061D01*
X34955000Y-162701939D01*
X34994774Y-162901898D01*
X35072795Y-163090256D01*
X35186063Y-163259774D01*
X35255001Y-163328712D01*
X35255000Y-164159580D01*
X35251444Y-164195685D01*
X35265635Y-164339770D01*
X35268160Y-164348092D01*
X35307663Y-164478317D01*
X35375913Y-164606004D01*
X35467762Y-164717922D01*
X35495808Y-164740939D01*
X36549060Y-165794192D01*
X36572076Y-165822237D01*
X36683994Y-165914086D01*
X36811681Y-165982336D01*
X36950229Y-166024364D01*
X37094314Y-166038555D01*
X37130419Y-166034999D01*
X43690617Y-166034999D01*
X43692795Y-166040256D01*
X43806063Y-166209774D01*
X43950226Y-166353937D01*
X44119744Y-166467205D01*
X44308102Y-166545226D01*
X44357240Y-166555000D01*
X42283465Y-166555000D01*
X42239999Y-166550719D01*
X42196533Y-166555000D01*
X42196523Y-166555000D01*
X42066510Y-166567805D01*
X41899687Y-166618411D01*
X41845292Y-166647485D01*
X41708102Y-166674774D01*
X41519744Y-166752795D01*
X41350226Y-166866063D01*
X41206063Y-167010226D01*
X41092795Y-167179744D01*
X41014774Y-167368102D01*
X40975000Y-167568061D01*
X40975000Y-167635002D01*
X37667246Y-167635002D01*
X32508059Y-162475816D01*
X32508059Y-162382258D01*
X32629676Y-162382258D01*
X32829635Y-162342484D01*
X33017993Y-162264463D01*
X33187511Y-162151195D01*
X33231448Y-162107258D01*
X35074456Y-162107258D01*
X35072795Y-162109744D01*
G37*
%TD.AperFunction*%
D22*
X36917072Y-163312059D02*
X37028725Y-163323056D01*
X37028735Y-163323056D01*
X37066057Y-163326732D01*
X37103380Y-163323056D01*
X40021928Y-163323056D01*
X40021928Y-164564999D01*
X37398761Y-164564999D01*
X36725000Y-163891239D01*
X36725000Y-163328711D01*
X36782479Y-163271232D01*
X36917072Y-163312059D01*
%TA.AperFunction,Conductor*%
D23*
G36*
X36917072Y-163312059D02*
G01*
X37028725Y-163323056D01*
X37028735Y-163323056D01*
X37066057Y-163326732D01*
X37103380Y-163323056D01*
X40021928Y-163323056D01*
X40021928Y-164564999D01*
X37398761Y-164564999D01*
X36725000Y-163891239D01*
X36725000Y-163328711D01*
X36782479Y-163271232D01*
X36917072Y-163312059D01*
G37*
%TD.AperFunction*%
D22*
X33578079Y-157984153D02*
X33443372Y-157849446D01*
X33467205Y-157791909D01*
X33506979Y-157591950D01*
X33506979Y-157494457D01*
X33771957Y-157229480D01*
X34045128Y-157229480D01*
X34081233Y-157233036D01*
X34117338Y-157229480D01*
X34225318Y-157218845D01*
X34363866Y-157176817D01*
X34410160Y-157152072D01*
X33578079Y-157984153D01*
%TA.AperFunction,Conductor*%
D23*
G36*
X33578079Y-157984153D02*
G01*
X33443372Y-157849446D01*
X33467205Y-157791909D01*
X33506979Y-157591950D01*
X33506979Y-157494457D01*
X33771957Y-157229480D01*
X34045128Y-157229480D01*
X34081233Y-157233036D01*
X34117338Y-157229480D01*
X34225318Y-157218845D01*
X34363866Y-157176817D01*
X34410160Y-157152072D01*
X33578079Y-157984153D01*
G37*
%TD.AperFunction*%
D22*
X41637000Y-156003000D02*
X41657000Y-156003000D01*
X41657000Y-156257000D01*
X41637000Y-156257000D01*
X41637000Y-156277000D01*
X41383000Y-156277000D01*
X41383000Y-156257000D01*
X41363000Y-156257000D01*
X41363000Y-156003000D01*
X41383000Y-156003000D01*
X41383000Y-155983000D01*
X41637000Y-155983000D01*
X41637000Y-156003000D01*
%TA.AperFunction,Conductor*%
D23*
G36*
X41637000Y-156003000D02*
G01*
X41657000Y-156003000D01*
X41657000Y-156257000D01*
X41637000Y-156257000D01*
X41637000Y-156277000D01*
X41383000Y-156277000D01*
X41383000Y-156257000D01*
X41363000Y-156257000D01*
X41363000Y-156003000D01*
X41383000Y-156003000D01*
X41383000Y-155983000D01*
X41637000Y-155983000D01*
X41637000Y-156003000D01*
G37*
%TD.AperFunction*%
D22*
X36247120Y-137084139D02*
X36286894Y-137284098D01*
X36364915Y-137472456D01*
X36478183Y-137641974D01*
X36622346Y-137786137D01*
X36791864Y-137899405D01*
X36980222Y-137977426D01*
X37180181Y-138017200D01*
X37242319Y-138017200D01*
X41894668Y-142669550D01*
X41750226Y-142766063D01*
X41606063Y-142910226D01*
X41492795Y-143079744D01*
X41414774Y-143268102D01*
X41375000Y-143468061D01*
X41375000Y-143671939D01*
X41414774Y-143871898D01*
X41492795Y-144060256D01*
X41606063Y-144229774D01*
X41650000Y-144273711D01*
X41650000Y-144506918D01*
X36158120Y-139015039D01*
X36158120Y-138952901D01*
X36118346Y-138752942D01*
X36040325Y-138564584D01*
X35927057Y-138395066D01*
X35782894Y-138250903D01*
X35613376Y-138137635D01*
X35425018Y-138059614D01*
X35225059Y-138019840D01*
X35021181Y-138019840D01*
X34821222Y-138059614D01*
X34632864Y-138137635D01*
X34463346Y-138250903D01*
X34319183Y-138395066D01*
X34205915Y-138564584D01*
X34127894Y-138752942D01*
X34088120Y-138952901D01*
X34088120Y-139156779D01*
X34127894Y-139356738D01*
X34205915Y-139545096D01*
X34319183Y-139714614D01*
X34463346Y-139858777D01*
X34632864Y-139972045D01*
X34821222Y-140050066D01*
X35021181Y-140089840D01*
X35083319Y-140089840D01*
X40487345Y-145493867D01*
X40487346Y-150830433D01*
X40443408Y-150874371D01*
X40330140Y-151043889D01*
X40252119Y-151232247D01*
X40212345Y-151432206D01*
X40212345Y-151636084D01*
X40252119Y-151836043D01*
X40330140Y-152024401D01*
X40443408Y-152193919D01*
X40587571Y-152338082D01*
X40752581Y-152448338D01*
X39519373Y-153681546D01*
X39477205Y-153579744D01*
X39363937Y-153410226D01*
X39219774Y-153266063D01*
X39050256Y-153152795D01*
X38861898Y-153074774D01*
X38708595Y-153044280D01*
X38632919Y-152861583D01*
X38519651Y-152692065D01*
X38375488Y-152547902D01*
X38205970Y-152434634D01*
X38017612Y-152356613D01*
X37817653Y-152316839D01*
X37613775Y-152316839D01*
X37413816Y-152356613D01*
X37354303Y-152381264D01*
X37353577Y-152380178D01*
X37209414Y-152236015D01*
X37039896Y-152122747D01*
X36851538Y-152044726D01*
X36651579Y-152004952D01*
X36447701Y-152004952D01*
X36247742Y-152044726D01*
X36059384Y-152122747D01*
X35889866Y-152236015D01*
X35745703Y-152380178D01*
X35632435Y-152549696D01*
X35554414Y-152738054D01*
X35514640Y-152938013D01*
X35514640Y-153035505D01*
X34971341Y-153578805D01*
X34901939Y-153565000D01*
X34698061Y-153565000D01*
X34498102Y-153604774D01*
X34309744Y-153682795D01*
X34140226Y-153796063D01*
X33996063Y-153940226D01*
X33882795Y-154109744D01*
X33804774Y-154298102D01*
X33765000Y-154498061D01*
X33765000Y-154701939D01*
X33804774Y-154901898D01*
X33882795Y-155090256D01*
X33996063Y-155259774D01*
X34136278Y-155399989D01*
X33776787Y-155759480D01*
X33508216Y-155759480D01*
X33472119Y-155755925D01*
X33469814Y-155756152D01*
X33467509Y-155755925D01*
X33431414Y-155759480D01*
X33431405Y-155759480D01*
X33366037Y-155765918D01*
X33297205Y-155599744D01*
X33183937Y-155430226D01*
X33039774Y-155286063D01*
X32870256Y-155172795D01*
X32681898Y-155094774D01*
X32674976Y-155093397D01*
X30388996Y-152807418D01*
X30329411Y-152695941D01*
X30288520Y-152646115D01*
X30246532Y-152594953D01*
X30246530Y-152594951D01*
X30218817Y-152561183D01*
X30185050Y-152533471D01*
X29606535Y-151954957D01*
X29595226Y-151898102D01*
X29517205Y-151709744D01*
X29403937Y-151540226D01*
X29259774Y-151396063D01*
X29090256Y-151282795D01*
X28901898Y-151204774D01*
X28701939Y-151165000D01*
X28498061Y-151165000D01*
X28298102Y-151204774D01*
X28109744Y-151282795D01*
X28061546Y-151315000D01*
X26796579Y-151315000D01*
X25575000Y-150093422D01*
X25575000Y-139096578D01*
X27522261Y-137149318D01*
X27464774Y-137288102D01*
X27425000Y-137488061D01*
X27425000Y-137691939D01*
X27464774Y-137891898D01*
X27542795Y-138080256D01*
X27656063Y-138249774D01*
X27800226Y-138393937D01*
X27969744Y-138507205D01*
X28158102Y-138585226D01*
X28358061Y-138625000D01*
X28561939Y-138625000D01*
X28761898Y-138585226D01*
X28950256Y-138507205D01*
X29119774Y-138393937D01*
X29263937Y-138249774D01*
X29377205Y-138080256D01*
X29455226Y-137891898D01*
X29495000Y-137691939D01*
X29495000Y-137488061D01*
X29455226Y-137288102D01*
X29377205Y-137099744D01*
X29345000Y-137051546D01*
X29345000Y-136964291D01*
X29345011Y-136964292D01*
X29388480Y-136960011D01*
X36247120Y-136960011D01*
X36247120Y-137084139D01*
%TA.AperFunction,Conductor*%
D23*
G36*
X36247120Y-137084139D02*
G01*
X36286894Y-137284098D01*
X36364915Y-137472456D01*
X36478183Y-137641974D01*
X36622346Y-137786137D01*
X36791864Y-137899405D01*
X36980222Y-137977426D01*
X37180181Y-138017200D01*
X37242319Y-138017200D01*
X41894668Y-142669550D01*
X41750226Y-142766063D01*
X41606063Y-142910226D01*
X41492795Y-143079744D01*
X41414774Y-143268102D01*
X41375000Y-143468061D01*
X41375000Y-143671939D01*
X41414774Y-143871898D01*
X41492795Y-144060256D01*
X41606063Y-144229774D01*
X41650000Y-144273711D01*
X41650000Y-144506918D01*
X36158120Y-139015039D01*
X36158120Y-138952901D01*
X36118346Y-138752942D01*
X36040325Y-138564584D01*
X35927057Y-138395066D01*
X35782894Y-138250903D01*
X35613376Y-138137635D01*
X35425018Y-138059614D01*
X35225059Y-138019840D01*
X35021181Y-138019840D01*
X34821222Y-138059614D01*
X34632864Y-138137635D01*
X34463346Y-138250903D01*
X34319183Y-138395066D01*
X34205915Y-138564584D01*
X34127894Y-138752942D01*
X34088120Y-138952901D01*
X34088120Y-139156779D01*
X34127894Y-139356738D01*
X34205915Y-139545096D01*
X34319183Y-139714614D01*
X34463346Y-139858777D01*
X34632864Y-139972045D01*
X34821222Y-140050066D01*
X35021181Y-140089840D01*
X35083319Y-140089840D01*
X40487345Y-145493867D01*
X40487346Y-150830433D01*
X40443408Y-150874371D01*
X40330140Y-151043889D01*
X40252119Y-151232247D01*
X40212345Y-151432206D01*
X40212345Y-151636084D01*
X40252119Y-151836043D01*
X40330140Y-152024401D01*
X40443408Y-152193919D01*
X40587571Y-152338082D01*
X40752581Y-152448338D01*
X39519373Y-153681546D01*
X39477205Y-153579744D01*
X39363937Y-153410226D01*
X39219774Y-153266063D01*
X39050256Y-153152795D01*
X38861898Y-153074774D01*
X38708595Y-153044280D01*
X38632919Y-152861583D01*
X38519651Y-152692065D01*
X38375488Y-152547902D01*
X38205970Y-152434634D01*
X38017612Y-152356613D01*
X37817653Y-152316839D01*
X37613775Y-152316839D01*
X37413816Y-152356613D01*
X37354303Y-152381264D01*
X37353577Y-152380178D01*
X37209414Y-152236015D01*
X37039896Y-152122747D01*
X36851538Y-152044726D01*
X36651579Y-152004952D01*
X36447701Y-152004952D01*
X36247742Y-152044726D01*
X36059384Y-152122747D01*
X35889866Y-152236015D01*
X35745703Y-152380178D01*
X35632435Y-152549696D01*
X35554414Y-152738054D01*
X35514640Y-152938013D01*
X35514640Y-153035505D01*
X34971341Y-153578805D01*
X34901939Y-153565000D01*
X34698061Y-153565000D01*
X34498102Y-153604774D01*
X34309744Y-153682795D01*
X34140226Y-153796063D01*
X33996063Y-153940226D01*
X33882795Y-154109744D01*
X33804774Y-154298102D01*
X33765000Y-154498061D01*
X33765000Y-154701939D01*
X33804774Y-154901898D01*
X33882795Y-155090256D01*
X33996063Y-155259774D01*
X34136278Y-155399989D01*
X33776787Y-155759480D01*
X33508216Y-155759480D01*
X33472119Y-155755925D01*
X33469814Y-155756152D01*
X33467509Y-155755925D01*
X33431414Y-155759480D01*
X33431405Y-155759480D01*
X33366037Y-155765918D01*
X33297205Y-155599744D01*
X33183937Y-155430226D01*
X33039774Y-155286063D01*
X32870256Y-155172795D01*
X32681898Y-155094774D01*
X32674976Y-155093397D01*
X30388996Y-152807418D01*
X30329411Y-152695941D01*
X30288520Y-152646115D01*
X30246532Y-152594953D01*
X30246530Y-152594951D01*
X30218817Y-152561183D01*
X30185050Y-152533471D01*
X29606535Y-151954957D01*
X29595226Y-151898102D01*
X29517205Y-151709744D01*
X29403937Y-151540226D01*
X29259774Y-151396063D01*
X29090256Y-151282795D01*
X28901898Y-151204774D01*
X28701939Y-151165000D01*
X28498061Y-151165000D01*
X28298102Y-151204774D01*
X28109744Y-151282795D01*
X28061546Y-151315000D01*
X26796579Y-151315000D01*
X25575000Y-150093422D01*
X25575000Y-139096578D01*
X27522261Y-137149318D01*
X27464774Y-137288102D01*
X27425000Y-137488061D01*
X27425000Y-137691939D01*
X27464774Y-137891898D01*
X27542795Y-138080256D01*
X27656063Y-138249774D01*
X27800226Y-138393937D01*
X27969744Y-138507205D01*
X28158102Y-138585226D01*
X28358061Y-138625000D01*
X28561939Y-138625000D01*
X28761898Y-138585226D01*
X28950256Y-138507205D01*
X29119774Y-138393937D01*
X29263937Y-138249774D01*
X29377205Y-138080256D01*
X29455226Y-137891898D01*
X29495000Y-137691939D01*
X29495000Y-137488061D01*
X29455226Y-137288102D01*
X29377205Y-137099744D01*
X29345000Y-137051546D01*
X29345000Y-136964291D01*
X29345011Y-136964292D01*
X29388480Y-136960011D01*
X36247120Y-136960011D01*
X36247120Y-137084139D01*
G37*
%TD.AperFunction*%
D22*
X25773470Y-152795049D02*
X25800775Y-152828320D01*
X25524191Y-152828320D01*
X25455254Y-152759383D01*
X25285736Y-152646115D01*
X25097378Y-152568094D01*
X24897419Y-152528320D01*
X24693541Y-152528320D01*
X24493582Y-152568094D01*
X24305224Y-152646115D01*
X24135706Y-152759383D01*
X24114198Y-152780891D01*
X24114198Y-151135776D01*
X25773470Y-152795049D01*
%TA.AperFunction,Conductor*%
D23*
G36*
X25773470Y-152795049D02*
G01*
X25800775Y-152828320D01*
X25524191Y-152828320D01*
X25455254Y-152759383D01*
X25285736Y-152646115D01*
X25097378Y-152568094D01*
X24897419Y-152528320D01*
X24693541Y-152528320D01*
X24493582Y-152568094D01*
X24305224Y-152646115D01*
X24135706Y-152759383D01*
X24114198Y-152780891D01*
X24114198Y-151135776D01*
X25773470Y-152795049D01*
G37*
%TD.AperFunction*%
%TD*%
M02*
