M48
; DRILL file {KiCad (5.1.8)-1} date 07/02/21 09:12:59
; FORMAT={-:-/ absolute / metric / decimal}
; #@! TF.CreationDate,2021-07-02T09:12:59+03:00
; #@! TF.GenerationSoftware,Kicad,Pcbnew,(5.1.8)-1
; #@! TF.FileFunction,Plated,1,2,PTH
FMAT,2
METRIC
T1C0.200
T2C0.400
T3C1.000
T4C1.190
%
G90
G05
T1
X23.512Y-175.275
X23.512Y-176.375
X23.512Y-177.475
X24.612Y-175.275
X24.612Y-176.375
X24.612Y-177.475
X25.712Y-175.275
X25.712Y-176.375
X25.712Y-177.475
T2
X17.0Y-179.0
X17.71Y-172.89
X18.374Y-134.783
X18.9Y-179.5
X20.1Y-158.9
X21.11Y-176.37
X21.24Y-178.11
X22.083Y-151.831
X22.5Y-147.8
X22.753Y-162.098
X22.779Y-161.066
X23.68Y-172.94
X24.079Y-155.788
X24.31Y-171.19
X24.76Y-154.716
X24.795Y-153.563
X24.9Y-168.9
X25.5Y-152.6
X25.6Y-140.9
X25.845Y-180.289
X26.837Y-181.847
X27.59Y-194.59
X28.46Y-137.59
X28.6Y-152.2
X29.03Y-175.6
X29.143Y-156.604
X29.205Y-157.602
X29.23Y-186.09
X29.363Y-160.772
X29.786Y-159.866
X30.144Y-156.58
X30.21Y-174.48
X30.323Y-133.828
X30.389Y-166.995
X30.537Y-161.089
X30.575Y-182.025
X30.724Y-164.887
X30.981Y-158.416
X31.11Y-156.24
X31.704Y-166.949
X31.748Y-160.721
X31.83Y-169.56
X31.955Y-158.866
X32.38Y-156.09
X32.472Y-157.49
X32.528Y-161.347
X33.18Y-191.33
X33.315Y-165.43
X33.396Y-167.706
X33.5Y-157.9
X33.5Y-183.4
X33.635Y-160.33
X34.8Y-154.6
X35.123Y-139.055
X35.298Y-153.301
X35.469Y-165.395
X35.99Y-162.6
X35.99Y-175.39
X36.55Y-153.04
X36.864Y-189.824
X36.97Y-193.48
X37.104Y-160.688
X37.145Y-180.335
X37.17Y-175.39
X37.211Y-161.683
X37.282Y-136.982
X37.335Y-154.277
X37.648Y-164.49
X37.716Y-153.352
X38.2Y-175.39
X38.201Y-155.509
X38.56Y-154.07
X38.94Y-160.802
X39.0Y-144.9
X39.14Y-183.02
X39.384Y-157.778
X39.4Y-166.2
X40.0Y-146.4
X40.6Y-142.6
X40.6Y-167.6
X41.247Y-151.534
X42.01Y-167.67
X42.41Y-143.57
X43.282Y-146.05
X43.72Y-158.25
X43.94Y-156.01
X44.498Y-154.332
X44.61Y-165.55
X44.71Y-159.26
X46.6Y-163.3
X47.076Y-164.65
X47.1Y-153.6
X47.33Y-160.975
X47.4Y-171.4
X48.054Y-167.744
X48.81Y-149.28
X49.25Y-177.03
X49.4Y-136.225
X49.75Y-176.0
X49.753Y-161.709
X49.769Y-156.596
X50.03Y-140.74
X50.12Y-184.23
X51.767Y-171.347
X52.365Y-134.061
X52.39Y-189.824
X52.8Y-148.2
X54.0Y-161.1
X54.4Y-153.7
X54.464Y-168.65
X54.6Y-152.329
X55.2Y-186.32
X56.22Y-153.238
X58.3Y-149.0
X59.3Y-161.3
X59.5Y-132.3
X60.117Y-142.164
X60.3Y-147.8
X61.88Y-187.14
X61.9Y-195.4
X63.129Y-162.479
T3
X16.46Y-146.82
X16.46Y-149.36
X16.46Y-151.9
X16.46Y-154.44
X16.46Y-156.98
X16.46Y-159.52
X16.46Y-162.06
X16.46Y-164.6
X16.46Y-167.14
X16.46Y-169.68
X41.51Y-156.13
X41.51Y-158.67
X41.51Y-161.21
X41.51Y-163.75
X30.51Y-195.51
X33.01Y-195.51
T4
X60.63Y-164.21
X60.63Y-166.75
X60.63Y-169.29
X60.63Y-171.83
X60.63Y-174.37
X60.63Y-176.91
X60.63Y-179.45
X60.63Y-181.99
T3
G00X18.9Y-187.85
M15
G01X20.9Y-187.85
M16
G05
G00X18.9Y-193.85
M15
G01X20.9Y-193.85
M16
G05
G00X24.6Y-191.85
M15
G01X24.6Y-189.85
M16
G05
T0
M30
