%TF.GenerationSoftware,KiCad,Pcbnew,(5.1.8)-1*%
%TF.CreationDate,2021-07-02T09:13:16+03:00*%
%TF.ProjectId,CUSTOM stm32f103 DEVELOPMENT BOARD,43555354-4f4d-4207-9374-6d3332663130,rev?*%
%TF.SameCoordinates,Original*%
%TF.FileFunction,Legend,Top*%
%TF.FilePolarity,Positive*%
%FSLAX46Y46*%
G04 Gerber Fmt 4.6, Leading zero omitted, Abs format (unit mm)*
G04 Created by KiCad (PCBNEW (5.1.8)-1) date 2021-07-02 09:13:16*
%MOMM*%
%LPD*%
G01*
G04 APERTURE LIST*
%ADD10C,0.120000*%
%ADD11C,0.150000*%
G04 APERTURE END LIST*
D10*
X34200000Y-153900000D02*
G75*
G03*
X34200000Y-153900000I-100000J0D01*
G01*
D11*
X39614285Y-152926071D02*
X39721428Y-152961785D01*
X39900000Y-152961785D01*
X39971428Y-152926071D01*
X40007142Y-152890357D01*
X40042857Y-152818928D01*
X40042857Y-152747500D01*
X40007142Y-152676071D01*
X39971428Y-152640357D01*
X39900000Y-152604642D01*
X39757142Y-152568928D01*
X39685714Y-152533214D01*
X39650000Y-152497500D01*
X39614285Y-152426071D01*
X39614285Y-152354642D01*
X39650000Y-152283214D01*
X39685714Y-152247500D01*
X39757142Y-152211785D01*
X39935714Y-152211785D01*
X40042857Y-152247500D01*
X40257142Y-152211785D02*
X40685714Y-152211785D01*
X40471428Y-152961785D02*
X40471428Y-152211785D01*
X40757142Y-153033214D02*
X41328571Y-153033214D01*
X41864285Y-152961785D02*
X41507142Y-152961785D01*
X41507142Y-152211785D01*
X42114285Y-152961785D02*
X42114285Y-152211785D01*
X42471428Y-152961785D02*
X42471428Y-152211785D01*
X42900000Y-152961785D01*
X42900000Y-152211785D01*
X43257142Y-152961785D02*
X43257142Y-152211785D01*
X43685714Y-152961785D02*
X43364285Y-152533214D01*
X43685714Y-152211785D02*
X43257142Y-152640357D01*
X39257142Y-154236785D02*
X39257142Y-153486785D01*
X39435714Y-153486785D01*
X39542857Y-153522500D01*
X39614285Y-153593928D01*
X39650000Y-153665357D01*
X39685714Y-153808214D01*
X39685714Y-153915357D01*
X39650000Y-154058214D01*
X39614285Y-154129642D01*
X39542857Y-154201071D01*
X39435714Y-154236785D01*
X39257142Y-154236785D01*
X40007142Y-153843928D02*
X40257142Y-153843928D01*
X40364285Y-154236785D02*
X40007142Y-154236785D01*
X40007142Y-153486785D01*
X40364285Y-153486785D01*
X40935714Y-153843928D02*
X41042857Y-153879642D01*
X41078571Y-153915357D01*
X41114285Y-153986785D01*
X41114285Y-154093928D01*
X41078571Y-154165357D01*
X41042857Y-154201071D01*
X40971428Y-154236785D01*
X40685714Y-154236785D01*
X40685714Y-153486785D01*
X40935714Y-153486785D01*
X41007142Y-153522500D01*
X41042857Y-153558214D01*
X41078571Y-153629642D01*
X41078571Y-153701071D01*
X41042857Y-153772500D01*
X41007142Y-153808214D01*
X40935714Y-153843928D01*
X40685714Y-153843928D01*
X41435714Y-153486785D02*
X41435714Y-154093928D01*
X41471428Y-154165357D01*
X41507142Y-154201071D01*
X41578571Y-154236785D01*
X41721428Y-154236785D01*
X41792857Y-154201071D01*
X41828571Y-154165357D01*
X41864285Y-154093928D01*
X41864285Y-153486785D01*
X42614285Y-153522500D02*
X42542857Y-153486785D01*
X42435714Y-153486785D01*
X42328571Y-153522500D01*
X42257142Y-153593928D01*
X42221428Y-153665357D01*
X42185714Y-153808214D01*
X42185714Y-153915357D01*
X42221428Y-154058214D01*
X42257142Y-154129642D01*
X42328571Y-154201071D01*
X42435714Y-154236785D01*
X42507142Y-154236785D01*
X42614285Y-154201071D01*
X42650000Y-154165357D01*
X42650000Y-153915357D01*
X42507142Y-153915357D01*
X42971428Y-153843928D02*
X43221428Y-153843928D01*
X43328571Y-154236785D02*
X42971428Y-154236785D01*
X42971428Y-153486785D01*
X43328571Y-153486785D01*
X44078571Y-154236785D02*
X43828571Y-153879642D01*
X43649999Y-154236785D02*
X43649999Y-153486785D01*
X43935714Y-153486785D01*
X44007142Y-153522500D01*
X44042857Y-153558214D01*
X44078571Y-153629642D01*
X44078571Y-153736785D01*
X44042857Y-153808214D01*
X44007142Y-153843928D01*
X43935714Y-153879642D01*
X43649999Y-153879642D01*
D10*
X45099258Y-174560000D02*
G75*
G03*
X45099258Y-174560000I-269258J0D01*
G01*
D11*
X35057142Y-192723571D02*
X34985714Y-192759285D01*
X34842857Y-192759285D01*
X34771428Y-192723571D01*
X34735714Y-192687857D01*
X34700000Y-192616428D01*
X34700000Y-192402142D01*
X34735714Y-192330714D01*
X34771428Y-192295000D01*
X34842857Y-192259285D01*
X34985714Y-192259285D01*
X35057142Y-192295000D01*
X35378571Y-192759285D02*
X35378571Y-192009285D01*
X35700000Y-192759285D02*
X35700000Y-192366428D01*
X35664285Y-192295000D01*
X35592857Y-192259285D01*
X35485714Y-192259285D01*
X35414285Y-192295000D01*
X35378571Y-192330714D01*
X36378571Y-192759285D02*
X36378571Y-192366428D01*
X36342857Y-192295000D01*
X36271428Y-192259285D01*
X36128571Y-192259285D01*
X36057142Y-192295000D01*
X36378571Y-192723571D02*
X36307142Y-192759285D01*
X36128571Y-192759285D01*
X36057142Y-192723571D01*
X36021428Y-192652142D01*
X36021428Y-192580714D01*
X36057142Y-192509285D01*
X36128571Y-192473571D01*
X36307142Y-192473571D01*
X36378571Y-192437857D01*
X36735714Y-192759285D02*
X36735714Y-192259285D01*
X36735714Y-192402142D02*
X36771428Y-192330714D01*
X36807142Y-192295000D01*
X36878571Y-192259285D01*
X36950000Y-192259285D01*
X37521428Y-192259285D02*
X37521428Y-192866428D01*
X37485714Y-192937857D01*
X37450000Y-192973571D01*
X37378571Y-193009285D01*
X37271428Y-193009285D01*
X37200000Y-192973571D01*
X37521428Y-192723571D02*
X37450000Y-192759285D01*
X37307142Y-192759285D01*
X37235714Y-192723571D01*
X37200000Y-192687857D01*
X37164285Y-192616428D01*
X37164285Y-192402142D01*
X37200000Y-192330714D01*
X37235714Y-192295000D01*
X37307142Y-192259285D01*
X37450000Y-192259285D01*
X37521428Y-192295000D01*
X38164285Y-192723571D02*
X38092857Y-192759285D01*
X37950000Y-192759285D01*
X37878571Y-192723571D01*
X37842857Y-192652142D01*
X37842857Y-192366428D01*
X37878571Y-192295000D01*
X37950000Y-192259285D01*
X38092857Y-192259285D01*
X38164285Y-192295000D01*
X38200000Y-192366428D01*
X38200000Y-192437857D01*
X37842857Y-192509285D01*
X25635000Y-193109285D02*
X25920714Y-193109285D01*
X25742142Y-193609285D02*
X25742142Y-192966428D01*
X25777857Y-192895000D01*
X25849285Y-192859285D01*
X25920714Y-192859285D01*
X26492142Y-193109285D02*
X26492142Y-193609285D01*
X26170714Y-193109285D02*
X26170714Y-193502142D01*
X26206428Y-193573571D01*
X26277857Y-193609285D01*
X26385000Y-193609285D01*
X26456428Y-193573571D01*
X26492142Y-193537857D01*
X26956428Y-193609285D02*
X26885000Y-193573571D01*
X26849285Y-193502142D01*
X26849285Y-192859285D01*
X27349285Y-193609285D02*
X27277857Y-193573571D01*
X27242142Y-193502142D01*
X27242142Y-192859285D01*
X17989285Y-147667857D02*
X18739285Y-147417857D01*
X17989285Y-147167857D01*
X18739285Y-146917857D02*
X18239285Y-146917857D01*
X17989285Y-146917857D02*
X18025000Y-146953571D01*
X18060714Y-146917857D01*
X18025000Y-146882142D01*
X17989285Y-146917857D01*
X18060714Y-146917857D01*
X18239285Y-146560714D02*
X18739285Y-146560714D01*
X18310714Y-146560714D02*
X18275000Y-146525000D01*
X18239285Y-146453571D01*
X18239285Y-146346428D01*
X18275000Y-146275000D01*
X18346428Y-146239285D01*
X18739285Y-146239285D01*
X18739285Y-149975000D02*
X17989285Y-149975000D01*
X17989285Y-149689285D01*
X18025000Y-149617857D01*
X18060714Y-149582142D01*
X18132142Y-149546428D01*
X18239285Y-149546428D01*
X18310714Y-149582142D01*
X18346428Y-149617857D01*
X18382142Y-149689285D01*
X18382142Y-149975000D01*
X18525000Y-149260714D02*
X18525000Y-148903571D01*
X18739285Y-149332142D02*
X17989285Y-149082142D01*
X18739285Y-148832142D01*
X17989285Y-148439285D02*
X17989285Y-148367857D01*
X18025000Y-148296428D01*
X18060714Y-148260714D01*
X18132142Y-148225000D01*
X18275000Y-148189285D01*
X18453571Y-148189285D01*
X18596428Y-148225000D01*
X18667857Y-148260714D01*
X18703571Y-148296428D01*
X18739285Y-148367857D01*
X18739285Y-148439285D01*
X18703571Y-148510714D01*
X18667857Y-148546428D01*
X18596428Y-148582142D01*
X18453571Y-148617857D01*
X18275000Y-148617857D01*
X18132142Y-148582142D01*
X18060714Y-148546428D01*
X18025000Y-148510714D01*
X17989285Y-148439285D01*
X18739285Y-152675000D02*
X17989285Y-152675000D01*
X17989285Y-152389285D01*
X18025000Y-152317857D01*
X18060714Y-152282142D01*
X18132142Y-152246428D01*
X18239285Y-152246428D01*
X18310714Y-152282142D01*
X18346428Y-152317857D01*
X18382142Y-152389285D01*
X18382142Y-152675000D01*
X18525000Y-151960714D02*
X18525000Y-151603571D01*
X18739285Y-152032142D02*
X17989285Y-151782142D01*
X18739285Y-151532142D01*
X18739285Y-150889285D02*
X18739285Y-151317857D01*
X18739285Y-151103571D02*
X17989285Y-151103571D01*
X18096428Y-151175000D01*
X18167857Y-151246428D01*
X18203571Y-151317857D01*
X18739285Y-155175000D02*
X17989285Y-155175000D01*
X17989285Y-154889285D01*
X18025000Y-154817857D01*
X18060714Y-154782142D01*
X18132142Y-154746428D01*
X18239285Y-154746428D01*
X18310714Y-154782142D01*
X18346428Y-154817857D01*
X18382142Y-154889285D01*
X18382142Y-155175000D01*
X18525000Y-154460714D02*
X18525000Y-154103571D01*
X18739285Y-154532142D02*
X17989285Y-154282142D01*
X18739285Y-154032142D01*
X18239285Y-153460714D02*
X18739285Y-153460714D01*
X17953571Y-153639285D02*
X18489285Y-153817857D01*
X18489285Y-153353571D01*
X18739285Y-157875000D02*
X17989285Y-157875000D01*
X17989285Y-157589285D01*
X18025000Y-157517857D01*
X18060714Y-157482142D01*
X18132142Y-157446428D01*
X18239285Y-157446428D01*
X18310714Y-157482142D01*
X18346428Y-157517857D01*
X18382142Y-157589285D01*
X18382142Y-157875000D01*
X18525000Y-157160714D02*
X18525000Y-156803571D01*
X18739285Y-157232142D02*
X17989285Y-156982142D01*
X18739285Y-156732142D01*
X17989285Y-156125000D02*
X17989285Y-156482142D01*
X18346428Y-156517857D01*
X18310714Y-156482142D01*
X18275000Y-156410714D01*
X18275000Y-156232142D01*
X18310714Y-156160714D01*
X18346428Y-156125000D01*
X18417857Y-156089285D01*
X18596428Y-156089285D01*
X18667857Y-156125000D01*
X18703571Y-156160714D01*
X18739285Y-156232142D01*
X18739285Y-156410714D01*
X18703571Y-156482142D01*
X18667857Y-156517857D01*
X18739285Y-160375000D02*
X17989285Y-160375000D01*
X17989285Y-160089285D01*
X18025000Y-160017857D01*
X18060714Y-159982142D01*
X18132142Y-159946428D01*
X18239285Y-159946428D01*
X18310714Y-159982142D01*
X18346428Y-160017857D01*
X18382142Y-160089285D01*
X18382142Y-160375000D01*
X18525000Y-159660714D02*
X18525000Y-159303571D01*
X18739285Y-159732142D02*
X17989285Y-159482142D01*
X18739285Y-159232142D01*
X17989285Y-158660714D02*
X17989285Y-158803571D01*
X18025000Y-158875000D01*
X18060714Y-158910714D01*
X18167857Y-158982142D01*
X18310714Y-159017857D01*
X18596428Y-159017857D01*
X18667857Y-158982142D01*
X18703571Y-158946428D01*
X18739285Y-158875000D01*
X18739285Y-158732142D01*
X18703571Y-158660714D01*
X18667857Y-158625000D01*
X18596428Y-158589285D01*
X18417857Y-158589285D01*
X18346428Y-158625000D01*
X18310714Y-158660714D01*
X18275000Y-158732142D01*
X18275000Y-158875000D01*
X18310714Y-158946428D01*
X18346428Y-158982142D01*
X18417857Y-159017857D01*
X18739285Y-162775000D02*
X17989285Y-162775000D01*
X17989285Y-162489285D01*
X18025000Y-162417857D01*
X18060714Y-162382142D01*
X18132142Y-162346428D01*
X18239285Y-162346428D01*
X18310714Y-162382142D01*
X18346428Y-162417857D01*
X18382142Y-162489285D01*
X18382142Y-162775000D01*
X18525000Y-162060714D02*
X18525000Y-161703571D01*
X18739285Y-162132142D02*
X17989285Y-161882142D01*
X18739285Y-161632142D01*
X17989285Y-161453571D02*
X17989285Y-160953571D01*
X18739285Y-161275000D01*
X18739285Y-165732142D02*
X17989285Y-165732142D01*
X17989285Y-165446428D01*
X18025000Y-165375000D01*
X18060714Y-165339285D01*
X18132142Y-165303571D01*
X18239285Y-165303571D01*
X18310714Y-165339285D01*
X18346428Y-165375000D01*
X18382142Y-165446428D01*
X18382142Y-165732142D01*
X18525000Y-165017857D02*
X18525000Y-164660714D01*
X18739285Y-165089285D02*
X17989285Y-164839285D01*
X18739285Y-164589285D01*
X18739285Y-163946428D02*
X18739285Y-164375000D01*
X18739285Y-164160714D02*
X17989285Y-164160714D01*
X18096428Y-164232142D01*
X18167857Y-164303571D01*
X18203571Y-164375000D01*
X17989285Y-163482142D02*
X17989285Y-163410714D01*
X18025000Y-163339285D01*
X18060714Y-163303571D01*
X18132142Y-163267857D01*
X18275000Y-163232142D01*
X18453571Y-163232142D01*
X18596428Y-163267857D01*
X18667857Y-163303571D01*
X18703571Y-163339285D01*
X18739285Y-163410714D01*
X18739285Y-163482142D01*
X18703571Y-163553571D01*
X18667857Y-163589285D01*
X18596428Y-163625000D01*
X18453571Y-163660714D01*
X18275000Y-163660714D01*
X18132142Y-163625000D01*
X18060714Y-163589285D01*
X18025000Y-163553571D01*
X17989285Y-163482142D01*
X18739285Y-168632142D02*
X17989285Y-168632142D01*
X17989285Y-168346428D01*
X18025000Y-168275000D01*
X18060714Y-168239285D01*
X18132142Y-168203571D01*
X18239285Y-168203571D01*
X18310714Y-168239285D01*
X18346428Y-168275000D01*
X18382142Y-168346428D01*
X18382142Y-168632142D01*
X18525000Y-167917857D02*
X18525000Y-167560714D01*
X18739285Y-167989285D02*
X17989285Y-167739285D01*
X18739285Y-167489285D01*
X18739285Y-166846428D02*
X18739285Y-167275000D01*
X18739285Y-167060714D02*
X17989285Y-167060714D01*
X18096428Y-167132142D01*
X18167857Y-167203571D01*
X18203571Y-167275000D01*
X18739285Y-166132142D02*
X18739285Y-166560714D01*
X18739285Y-166346428D02*
X17989285Y-166346428D01*
X18096428Y-166417857D01*
X18167857Y-166489285D01*
X18203571Y-166560714D01*
X18025000Y-170571428D02*
X17989285Y-170642857D01*
X17989285Y-170750000D01*
X18025000Y-170857142D01*
X18096428Y-170928571D01*
X18167857Y-170964285D01*
X18310714Y-171000000D01*
X18417857Y-171000000D01*
X18560714Y-170964285D01*
X18632142Y-170928571D01*
X18703571Y-170857142D01*
X18739285Y-170750000D01*
X18739285Y-170678571D01*
X18703571Y-170571428D01*
X18667857Y-170535714D01*
X18417857Y-170535714D01*
X18417857Y-170678571D01*
X18739285Y-170214285D02*
X17989285Y-170214285D01*
X18739285Y-169785714D01*
X17989285Y-169785714D01*
X18739285Y-169428571D02*
X17989285Y-169428571D01*
X17989285Y-169250000D01*
X18025000Y-169142857D01*
X18096428Y-169071428D01*
X18167857Y-169035714D01*
X18310714Y-169000000D01*
X18417857Y-169000000D01*
X18560714Y-169035714D01*
X18632142Y-169071428D01*
X18703571Y-169142857D01*
X18739285Y-169250000D01*
X18739285Y-169428571D01*
X19728571Y-157638095D02*
X19776190Y-157495238D01*
X19823809Y-157447619D01*
X19919047Y-157400000D01*
X20061904Y-157400000D01*
X20157142Y-157447619D01*
X20204761Y-157495238D01*
X20252380Y-157590476D01*
X20252380Y-157971428D01*
X19252380Y-157971428D01*
X19252380Y-157638095D01*
X19300000Y-157542857D01*
X19347619Y-157495238D01*
X19442857Y-157447619D01*
X19538095Y-157447619D01*
X19633333Y-157495238D01*
X19680952Y-157542857D01*
X19728571Y-157638095D01*
X19728571Y-157971428D01*
X20252380Y-156400000D02*
X19776190Y-156733333D01*
X20252380Y-156971428D02*
X19252380Y-156971428D01*
X19252380Y-156590476D01*
X19300000Y-156495238D01*
X19347619Y-156447619D01*
X19442857Y-156400000D01*
X19585714Y-156400000D01*
X19680952Y-156447619D01*
X19728571Y-156495238D01*
X19776190Y-156590476D01*
X19776190Y-156971428D01*
X19728571Y-155971428D02*
X19728571Y-155638095D01*
X20252380Y-155495238D02*
X20252380Y-155971428D01*
X19252380Y-155971428D01*
X19252380Y-155495238D01*
X19966666Y-155114285D02*
X19966666Y-154638095D01*
X20252380Y-155209523D02*
X19252380Y-154876190D01*
X20252380Y-154542857D01*
X20252380Y-154209523D02*
X19252380Y-154209523D01*
X20252380Y-153638095D02*
X19680952Y-154066666D01*
X19252380Y-153638095D02*
X19823809Y-154209523D01*
X19252380Y-153019047D02*
X19252380Y-152828571D01*
X19300000Y-152733333D01*
X19395238Y-152638095D01*
X19585714Y-152590476D01*
X19919047Y-152590476D01*
X20109523Y-152638095D01*
X20204761Y-152733333D01*
X20252380Y-152828571D01*
X20252380Y-153019047D01*
X20204761Y-153114285D01*
X20109523Y-153209523D01*
X19919047Y-153257142D01*
X19585714Y-153257142D01*
X19395238Y-153209523D01*
X19300000Y-153114285D01*
X19252380Y-153019047D01*
X19252380Y-152161904D02*
X20061904Y-152161904D01*
X20157142Y-152114285D01*
X20204761Y-152066666D01*
X20252380Y-151971428D01*
X20252380Y-151780952D01*
X20204761Y-151685714D01*
X20157142Y-151638095D01*
X20061904Y-151590476D01*
X19252380Y-151590476D01*
X19252380Y-151257142D02*
X19252380Y-150685714D01*
X20252380Y-150971428D02*
X19252380Y-150971428D01*
X55872380Y-177810952D02*
X55872380Y-177239523D01*
X56872380Y-177525238D02*
X55872380Y-177525238D01*
X56348571Y-176572857D02*
X56348571Y-176906190D01*
X56872380Y-176906190D02*
X55872380Y-176906190D01*
X55872380Y-176430000D01*
X55872380Y-176191904D02*
X55872380Y-175620476D01*
X56872380Y-175906190D02*
X55872380Y-175906190D01*
X56824761Y-174572857D02*
X56872380Y-174430000D01*
X56872380Y-174191904D01*
X56824761Y-174096666D01*
X56777142Y-174049047D01*
X56681904Y-174001428D01*
X56586666Y-174001428D01*
X56491428Y-174049047D01*
X56443809Y-174096666D01*
X56396190Y-174191904D01*
X56348571Y-174382380D01*
X56300952Y-174477619D01*
X56253333Y-174525238D01*
X56158095Y-174572857D01*
X56062857Y-174572857D01*
X55967619Y-174525238D01*
X55920000Y-174477619D01*
X55872380Y-174382380D01*
X55872380Y-174144285D01*
X55920000Y-174001428D01*
X56777142Y-173001428D02*
X56824761Y-173049047D01*
X56872380Y-173191904D01*
X56872380Y-173287142D01*
X56824761Y-173430000D01*
X56729523Y-173525238D01*
X56634285Y-173572857D01*
X56443809Y-173620476D01*
X56300952Y-173620476D01*
X56110476Y-173572857D01*
X56015238Y-173525238D01*
X55920000Y-173430000D01*
X55872380Y-173287142D01*
X55872380Y-173191904D01*
X55920000Y-173049047D01*
X55967619Y-173001428D01*
X56872380Y-172001428D02*
X56396190Y-172334761D01*
X56872380Y-172572857D02*
X55872380Y-172572857D01*
X55872380Y-172191904D01*
X55920000Y-172096666D01*
X55967619Y-172049047D01*
X56062857Y-172001428D01*
X56205714Y-172001428D01*
X56300952Y-172049047D01*
X56348571Y-172096666D01*
X56396190Y-172191904D01*
X56396190Y-172572857D01*
X56348571Y-171572857D02*
X56348571Y-171239523D01*
X56872380Y-171096666D02*
X56872380Y-171572857D01*
X55872380Y-171572857D01*
X55872380Y-171096666D01*
X56348571Y-170668095D02*
X56348571Y-170334761D01*
X56872380Y-170191904D02*
X56872380Y-170668095D01*
X55872380Y-170668095D01*
X55872380Y-170191904D01*
X56872380Y-169763333D02*
X55872380Y-169763333D01*
X56872380Y-169191904D01*
X55872380Y-169191904D01*
D10*
X30732491Y-153130000D02*
G75*
G03*
X30732491Y-153130000I-362491J0D01*
G01*
X22230384Y-174400000D02*
G75*
G03*
X22230384Y-174400000I-130384J0D01*
G01*
D11*
X51219047Y-162728571D02*
X51361904Y-162776190D01*
X51409523Y-162823809D01*
X51457142Y-162919047D01*
X51457142Y-163061904D01*
X51409523Y-163157142D01*
X51361904Y-163204761D01*
X51266666Y-163252380D01*
X50885714Y-163252380D01*
X50885714Y-162252380D01*
X51219047Y-162252380D01*
X51314285Y-162300000D01*
X51361904Y-162347619D01*
X51409523Y-162442857D01*
X51409523Y-162538095D01*
X51361904Y-162633333D01*
X51314285Y-162680952D01*
X51219047Y-162728571D01*
X50885714Y-162728571D01*
X52076190Y-162252380D02*
X52266666Y-162252380D01*
X52361904Y-162300000D01*
X52457142Y-162395238D01*
X52504761Y-162585714D01*
X52504761Y-162919047D01*
X52457142Y-163109523D01*
X52361904Y-163204761D01*
X52266666Y-163252380D01*
X52076190Y-163252380D01*
X51980952Y-163204761D01*
X51885714Y-163109523D01*
X51838095Y-162919047D01*
X51838095Y-162585714D01*
X51885714Y-162395238D01*
X51980952Y-162300000D01*
X52076190Y-162252380D01*
X53123809Y-162252380D02*
X53314285Y-162252380D01*
X53409523Y-162300000D01*
X53504761Y-162395238D01*
X53552380Y-162585714D01*
X53552380Y-162919047D01*
X53504761Y-163109523D01*
X53409523Y-163204761D01*
X53314285Y-163252380D01*
X53123809Y-163252380D01*
X53028571Y-163204761D01*
X52933333Y-163109523D01*
X52885714Y-162919047D01*
X52885714Y-162585714D01*
X52933333Y-162395238D01*
X53028571Y-162300000D01*
X53123809Y-162252380D01*
X53838095Y-162252380D02*
X54409523Y-162252380D01*
X54123809Y-163252380D02*
X54123809Y-162252380D01*
X54933333Y-162252380D02*
X55123809Y-162252380D01*
X55219047Y-162300000D01*
X55314285Y-162395238D01*
X55361904Y-162585714D01*
X55361904Y-162919047D01*
X55314285Y-163109523D01*
X55219047Y-163204761D01*
X55123809Y-163252380D01*
X54933333Y-163252380D01*
X54838095Y-163204761D01*
X54742857Y-163109523D01*
X54695238Y-162919047D01*
X54695238Y-162585714D01*
X54742857Y-162395238D01*
X54838095Y-162300000D01*
X54933333Y-162252380D01*
X22510714Y-164039285D02*
X22260714Y-163682142D01*
X22082142Y-164039285D02*
X22082142Y-163289285D01*
X22367857Y-163289285D01*
X22439285Y-163325000D01*
X22475000Y-163360714D01*
X22510714Y-163432142D01*
X22510714Y-163539285D01*
X22475000Y-163610714D01*
X22439285Y-163646428D01*
X22367857Y-163682142D01*
X22082142Y-163682142D01*
X22832142Y-163646428D02*
X23082142Y-163646428D01*
X23189285Y-164039285D02*
X22832142Y-164039285D01*
X22832142Y-163289285D01*
X23189285Y-163289285D01*
X23475000Y-164003571D02*
X23582142Y-164039285D01*
X23760714Y-164039285D01*
X23832142Y-164003571D01*
X23867857Y-163967857D01*
X23903571Y-163896428D01*
X23903571Y-163825000D01*
X23867857Y-163753571D01*
X23832142Y-163717857D01*
X23760714Y-163682142D01*
X23617857Y-163646428D01*
X23546428Y-163610714D01*
X23510714Y-163575000D01*
X23475000Y-163503571D01*
X23475000Y-163432142D01*
X23510714Y-163360714D01*
X23546428Y-163325000D01*
X23617857Y-163289285D01*
X23796428Y-163289285D01*
X23903571Y-163325000D01*
X24225000Y-163646428D02*
X24475000Y-163646428D01*
X24582142Y-164039285D02*
X24225000Y-164039285D01*
X24225000Y-163289285D01*
X24582142Y-163289285D01*
X24796428Y-163289285D02*
X25225000Y-163289285D01*
X25010714Y-164039285D02*
X25010714Y-163289285D01*
X22471904Y-185152142D02*
X22440952Y-185183095D01*
X22348095Y-185214047D01*
X22286190Y-185214047D01*
X22193333Y-185183095D01*
X22131428Y-185121190D01*
X22100476Y-185059285D01*
X22069523Y-184935476D01*
X22069523Y-184842619D01*
X22100476Y-184718809D01*
X22131428Y-184656904D01*
X22193333Y-184595000D01*
X22286190Y-184564047D01*
X22348095Y-184564047D01*
X22440952Y-184595000D01*
X22471904Y-184625952D01*
X22750476Y-185214047D02*
X22750476Y-184564047D01*
X22750476Y-184873571D02*
X23121904Y-184873571D01*
X23121904Y-185214047D02*
X23121904Y-184564047D01*
X23400476Y-185028333D02*
X23709999Y-185028333D01*
X23338571Y-185214047D02*
X23555238Y-184564047D01*
X23771904Y-185214047D01*
X24359999Y-185214047D02*
X24143333Y-184904523D01*
X23988571Y-185214047D02*
X23988571Y-184564047D01*
X24236190Y-184564047D01*
X24298095Y-184595000D01*
X24329047Y-184625952D01*
X24359999Y-184687857D01*
X24359999Y-184780714D01*
X24329047Y-184842619D01*
X24298095Y-184873571D01*
X24236190Y-184904523D01*
X23988571Y-184904523D01*
X24979047Y-184595000D02*
X24917142Y-184564047D01*
X24824285Y-184564047D01*
X24731428Y-184595000D01*
X24669523Y-184656904D01*
X24638571Y-184718809D01*
X24607619Y-184842619D01*
X24607619Y-184935476D01*
X24638571Y-185059285D01*
X24669523Y-185121190D01*
X24731428Y-185183095D01*
X24824285Y-185214047D01*
X24886190Y-185214047D01*
X24979047Y-185183095D01*
X25009999Y-185152142D01*
X25009999Y-184935476D01*
X24886190Y-184935476D01*
X25288571Y-185214047D02*
X25288571Y-184564047D01*
X25598095Y-185214047D02*
X25598095Y-184564047D01*
X25969523Y-185214047D01*
X25969523Y-184564047D01*
X26619523Y-184595000D02*
X26557619Y-184564047D01*
X26464761Y-184564047D01*
X26371904Y-184595000D01*
X26309999Y-184656904D01*
X26279047Y-184718809D01*
X26248095Y-184842619D01*
X26248095Y-184935476D01*
X26279047Y-185059285D01*
X26309999Y-185121190D01*
X26371904Y-185183095D01*
X26464761Y-185214047D01*
X26526666Y-185214047D01*
X26619523Y-185183095D01*
X26650476Y-185152142D01*
X26650476Y-184935476D01*
X26526666Y-184935476D01*
X21049285Y-184300000D02*
X20299285Y-184300000D01*
X20299285Y-184014285D01*
X20335000Y-183942857D01*
X20370714Y-183907142D01*
X20442142Y-183871428D01*
X20549285Y-183871428D01*
X20620714Y-183907142D01*
X20656428Y-183942857D01*
X20692142Y-184014285D01*
X20692142Y-184300000D01*
X21120714Y-183728571D02*
X21120714Y-183157142D01*
X20299285Y-182835714D02*
X20299285Y-182692857D01*
X20335000Y-182621428D01*
X20406428Y-182550000D01*
X20549285Y-182514285D01*
X20799285Y-182514285D01*
X20942142Y-182550000D01*
X21013571Y-182621428D01*
X21049285Y-182692857D01*
X21049285Y-182835714D01*
X21013571Y-182907142D01*
X20942142Y-182978571D01*
X20799285Y-183014285D01*
X20549285Y-183014285D01*
X20406428Y-182978571D01*
X20335000Y-182907142D01*
X20299285Y-182835714D01*
X21049285Y-182192857D02*
X20299285Y-182192857D01*
X21049285Y-181764285D02*
X20620714Y-182085714D01*
X20299285Y-181764285D02*
X20727857Y-182192857D01*
D10*
%TO.C,U4*%
X57880000Y-187480000D02*
X57880000Y-190930000D01*
X57880000Y-187480000D02*
X57880000Y-185530000D01*
X63000000Y-187480000D02*
X63000000Y-189430000D01*
X63000000Y-187480000D02*
X63000000Y-185530000D01*
%TO.C,U1*%
X27150000Y-161900000D02*
X27150000Y-162350000D01*
X27150000Y-162350000D02*
X27600000Y-162350000D01*
X27150000Y-155580000D02*
X27150000Y-155130000D01*
X27150000Y-155130000D02*
X27600000Y-155130000D01*
X34370000Y-161900000D02*
X34370000Y-162350000D01*
X34370000Y-162350000D02*
X33920000Y-162350000D01*
X34370000Y-155580000D02*
X34370000Y-155130000D01*
X34370000Y-155130000D02*
X33920000Y-155130000D01*
X33920000Y-155130000D02*
X33920000Y-153840000D01*
%TO.C,U6*%
X62630000Y-147160000D02*
X46430000Y-147160000D01*
X46430000Y-147160000D02*
X46430000Y-146760000D01*
X62630000Y-131360000D02*
X62630000Y-130960000D01*
X62630000Y-130960000D02*
X46430000Y-130960000D01*
X46430000Y-130960000D02*
X46430000Y-131360000D01*
X62630000Y-147160000D02*
X62630000Y-146810000D01*
X62630000Y-146810000D02*
X63530000Y-146810000D01*
%TO.C,C1*%
X40380000Y-148665580D02*
X40380000Y-148384420D01*
X39360000Y-148665580D02*
X39360000Y-148384420D01*
%TO.C,C2*%
X24220000Y-148715580D02*
X24220000Y-148434420D01*
X25240000Y-148715580D02*
X25240000Y-148434420D01*
%TO.C,C3*%
X39710000Y-141034420D02*
X39710000Y-141315580D01*
X38690000Y-141034420D02*
X38690000Y-141315580D01*
%TO.C,C4*%
X24990000Y-144134420D02*
X24990000Y-144415580D01*
X26010000Y-144134420D02*
X26010000Y-144415580D01*
%TO.C,C6*%
X49335580Y-165010000D02*
X49054420Y-165010000D01*
X49335580Y-166030000D02*
X49054420Y-166030000D01*
%TO.C,C7*%
X33885000Y-180513748D02*
X33885000Y-181036252D01*
X32415000Y-180513748D02*
X32415000Y-181036252D01*
%TO.C,C8*%
X35685000Y-180384420D02*
X35685000Y-180665580D01*
X34665000Y-180384420D02*
X34665000Y-180665580D01*
%TO.C,C9*%
X28815835Y-153460000D02*
X28584165Y-153460000D01*
X28815835Y-152740000D02*
X28584165Y-152740000D01*
%TO.C,C10*%
X31810913Y-171512960D02*
X32103447Y-171512960D01*
X31810913Y-170492960D02*
X32103447Y-170492960D01*
%TO.C,C12*%
X42913748Y-170310000D02*
X43436252Y-170310000D01*
X42913748Y-168840000D02*
X43436252Y-168840000D01*
%TO.C,C13*%
X36038200Y-155402735D02*
X36038200Y-155171065D01*
X36758200Y-155402735D02*
X36758200Y-155171065D01*
%TO.C,C14*%
X34216665Y-164740000D02*
X34448335Y-164740000D01*
X34216665Y-164020000D02*
X34448335Y-164020000D01*
%TO.C,C15*%
X17936252Y-185410000D02*
X17413748Y-185410000D01*
X17936252Y-183940000D02*
X17413748Y-183940000D01*
%TO.C,C16*%
X34990000Y-190056233D02*
X34990000Y-190348767D01*
X33970000Y-190056233D02*
X33970000Y-190348767D01*
%TO.C,C17*%
X17833767Y-181140000D02*
X17541233Y-181140000D01*
X17833767Y-182160000D02*
X17541233Y-182160000D01*
%TO.C,C18*%
X20890000Y-170846267D02*
X20890000Y-170553733D01*
X21910000Y-170846267D02*
X21910000Y-170553733D01*
%TO.C,C19*%
X22610000Y-170846267D02*
X22610000Y-170553733D01*
X23630000Y-170846267D02*
X23630000Y-170553733D01*
%TO.C,C20*%
X24970000Y-170986267D02*
X24970000Y-170693733D01*
X25990000Y-170986267D02*
X25990000Y-170693733D01*
%TO.C,C21*%
X28406267Y-171250000D02*
X28113733Y-171250000D01*
X28406267Y-172270000D02*
X28113733Y-172270000D01*
%TO.C,C22*%
X29566233Y-181110000D02*
X29858767Y-181110000D01*
X29566233Y-180090000D02*
X29858767Y-180090000D01*
%TO.C,C23*%
X48720000Y-154676267D02*
X48720000Y-154383733D01*
X47700000Y-154676267D02*
X47700000Y-154383733D01*
%TO.C,C24*%
X25930000Y-182856267D02*
X25930000Y-182563733D01*
X24910000Y-182856267D02*
X24910000Y-182563733D01*
%TO.C,C25*%
X49240000Y-154646267D02*
X49240000Y-154353733D01*
X50260000Y-154646267D02*
X50260000Y-154353733D01*
%TO.C,C26*%
X30096267Y-177485000D02*
X29803733Y-177485000D01*
X30096267Y-176465000D02*
X29803733Y-176465000D01*
%TO.C,C28*%
X57000000Y-165041233D02*
X57000000Y-165333767D01*
X55980000Y-165041233D02*
X55980000Y-165333767D01*
%TO.C,D1*%
X52075000Y-190985000D02*
X49615000Y-190985000D01*
X49615000Y-190985000D02*
X49615000Y-192455000D01*
X49615000Y-192455000D02*
X52075000Y-192455000D01*
%TO.C,POWER*%
X45035000Y-168865000D02*
X45035000Y-171325000D01*
X46505000Y-168865000D02*
X45035000Y-168865000D01*
X46505000Y-171325000D02*
X46505000Y-168865000D01*
%TO.C,ON BOARD LED*%
X36077000Y-136816160D02*
X33617000Y-136816160D01*
X36077000Y-138286160D02*
X36077000Y-136816160D01*
X33617000Y-138286160D02*
X36077000Y-138286160D01*
%TO.C,D4*%
X22625000Y-183510000D02*
X22625000Y-181050000D01*
X22625000Y-181050000D02*
X21155000Y-181050000D01*
X21155000Y-181050000D02*
X21155000Y-183510000D01*
%TO.C,D5*%
X22895000Y-181045000D02*
X22895000Y-183505000D01*
X24365000Y-181045000D02*
X22895000Y-181045000D01*
X24365000Y-183505000D02*
X24365000Y-181045000D01*
%TO.C,D6*%
X30715000Y-173125000D02*
X30715000Y-175410000D01*
X30715000Y-175410000D02*
X32185000Y-175410000D01*
X32185000Y-175410000D02*
X32185000Y-173125000D01*
%TO.C,D7*%
X26865000Y-196295000D02*
X26865000Y-193835000D01*
X26865000Y-193835000D02*
X25395000Y-193835000D01*
X25395000Y-193835000D02*
X25395000Y-196295000D01*
%TO.C,D8*%
X36185000Y-194965000D02*
X36185000Y-197425000D01*
X36185000Y-197425000D02*
X37655000Y-197425000D01*
X37655000Y-197425000D02*
X37655000Y-194965000D01*
%TO.C,J1*%
X58210000Y-193570000D02*
X57830000Y-193570000D01*
X58210000Y-197620000D02*
X58210000Y-197880000D01*
X58210000Y-193570000D02*
X58210000Y-195340000D01*
X50590000Y-193570000D02*
X50970000Y-193570000D01*
X50590000Y-195340000D02*
X50590000Y-193570000D01*
X50590000Y-197880000D02*
X50590000Y-197620000D01*
%TO.C,J2*%
X16150000Y-186750000D02*
X15100000Y-186750000D01*
X15100000Y-187800000D02*
X15100000Y-186750000D01*
X24500000Y-192850000D02*
X24500000Y-201650000D01*
X24500000Y-201650000D02*
X15300000Y-201650000D01*
X21800000Y-186950000D02*
X24500000Y-186950000D01*
X24500000Y-186950000D02*
X24500000Y-188850000D01*
X15300000Y-201650000D02*
X15300000Y-186950000D01*
X15300000Y-186950000D02*
X17900000Y-186950000D01*
%TO.C,J3*%
X29820000Y-189685000D02*
X32930000Y-189685000D01*
X32360000Y-187025000D02*
X32930000Y-187025000D01*
X27730000Y-189685000D02*
X28300000Y-189685000D01*
X28300000Y-189685000D02*
X28300000Y-191205000D01*
X27730000Y-187025000D02*
X30840000Y-187025000D01*
X32930000Y-189685000D02*
X32930000Y-187025000D01*
X27730000Y-189685000D02*
X27730000Y-187025000D01*
%TO.C,J4*%
X59920960Y-161969360D02*
X53620960Y-161969360D01*
X59220960Y-149099360D02*
X53620960Y-149099360D01*
X63630960Y-161969360D02*
X61820960Y-161969360D01*
X63630960Y-149099360D02*
X63630960Y-160359360D01*
X62470960Y-149099360D02*
X63630960Y-149099360D01*
X63630960Y-161859360D02*
X63630960Y-161969360D01*
%TO.C,J5*%
X35620000Y-197220000D02*
X35620000Y-193200000D01*
X35620000Y-193200000D02*
X27900000Y-193200000D01*
X27900000Y-193200000D02*
X27900000Y-197220000D01*
X27900000Y-197220000D02*
X35620000Y-197220000D01*
X35620000Y-195510000D02*
X35120000Y-195510000D01*
X35120000Y-195510000D02*
X35120000Y-196720000D01*
X35120000Y-196720000D02*
X28400000Y-196720000D01*
X28400000Y-196720000D02*
X28400000Y-195510000D01*
X28400000Y-195510000D02*
X27900000Y-195510000D01*
X35620000Y-194700000D02*
X34620000Y-194700000D01*
X34620000Y-194700000D02*
X34620000Y-193200000D01*
X27900000Y-194700000D02*
X28900000Y-194700000D01*
X28900000Y-194700000D02*
X28900000Y-193200000D01*
X35920000Y-195400000D02*
X35920000Y-192900000D01*
X35920000Y-192900000D02*
X33420000Y-192900000D01*
%TO.C,J6*%
X42840000Y-154800000D02*
X40180000Y-154800000D01*
X42840000Y-162480000D02*
X42840000Y-154800000D01*
X40180000Y-162480000D02*
X40180000Y-154800000D01*
X42840000Y-162480000D02*
X40180000Y-162480000D01*
X42840000Y-163750000D02*
X42840000Y-165080000D01*
X42840000Y-165080000D02*
X41510000Y-165080000D01*
%TO.C,J7*%
X15130000Y-171010000D02*
X17790000Y-171010000D01*
X15130000Y-148090000D02*
X15130000Y-171010000D01*
X17790000Y-148090000D02*
X17790000Y-171010000D01*
X15130000Y-148090000D02*
X17790000Y-148090000D01*
X15130000Y-146820000D02*
X15130000Y-145490000D01*
X15130000Y-145490000D02*
X16460000Y-145490000D01*
%TO.C,J8*%
X63660000Y-162830000D02*
X57640000Y-162830000D01*
X57640000Y-162830000D02*
X57640000Y-183370000D01*
X57640000Y-183370000D02*
X63660000Y-183370000D01*
X63660000Y-183370000D02*
X63660000Y-162830000D01*
X62630000Y-162540000D02*
X58630000Y-162540000D01*
X57640000Y-164210000D02*
X58640000Y-164210000D01*
X58640000Y-164210000D02*
X58640000Y-169290000D01*
X58640000Y-169290000D02*
X57640000Y-169290000D01*
X58640000Y-164210000D02*
X59170000Y-164460000D01*
X59170000Y-164460000D02*
X59170000Y-169290000D01*
X59170000Y-169290000D02*
X58640000Y-169290000D01*
X57640000Y-164460000D02*
X58640000Y-164460000D01*
X57640000Y-181990000D02*
X58640000Y-181990000D01*
X58640000Y-181990000D02*
X58640000Y-176910000D01*
X58640000Y-176910000D02*
X57640000Y-176910000D01*
X58640000Y-181990000D02*
X59170000Y-181740000D01*
X59170000Y-181740000D02*
X59170000Y-176910000D01*
X59170000Y-176910000D02*
X58640000Y-176910000D01*
X57640000Y-181740000D02*
X58640000Y-181740000D01*
X63660000Y-163410000D02*
X63060000Y-163410000D01*
X63060000Y-163410000D02*
X63060000Y-165010000D01*
X63060000Y-165010000D02*
X63660000Y-165010000D01*
X63660000Y-165950000D02*
X63060000Y-165950000D01*
X63060000Y-165950000D02*
X63060000Y-167550000D01*
X63060000Y-167550000D02*
X63660000Y-167550000D01*
X63660000Y-168490000D02*
X63060000Y-168490000D01*
X63060000Y-168490000D02*
X63060000Y-170090000D01*
X63060000Y-170090000D02*
X63660000Y-170090000D01*
X63660000Y-171030000D02*
X63060000Y-171030000D01*
X63060000Y-171030000D02*
X63060000Y-172630000D01*
X63060000Y-172630000D02*
X63660000Y-172630000D01*
X63660000Y-173570000D02*
X63060000Y-173570000D01*
X63060000Y-173570000D02*
X63060000Y-175170000D01*
X63060000Y-175170000D02*
X63660000Y-175170000D01*
X63660000Y-176110000D02*
X63060000Y-176110000D01*
X63060000Y-176110000D02*
X63060000Y-177710000D01*
X63060000Y-177710000D02*
X63660000Y-177710000D01*
X63660000Y-178650000D02*
X63060000Y-178650000D01*
X63060000Y-178650000D02*
X63060000Y-180250000D01*
X63060000Y-180250000D02*
X63660000Y-180250000D01*
X63660000Y-181190000D02*
X63060000Y-181190000D01*
X63060000Y-181190000D02*
X63060000Y-182790000D01*
X63060000Y-182790000D02*
X63660000Y-182790000D01*
%TO.C,J9*%
X27850000Y-133950000D02*
X27850000Y-136610000D01*
X22650000Y-133950000D02*
X22650000Y-136610000D01*
X27850000Y-136610000D02*
X24740000Y-136610000D01*
X27280000Y-133950000D02*
X27280000Y-132430000D01*
X27850000Y-133950000D02*
X27280000Y-133950000D01*
X23220000Y-136610000D02*
X22650000Y-136610000D01*
X25760000Y-133950000D02*
X22650000Y-133950000D01*
%TO.C,J10*%
X19840000Y-137320000D02*
X17180000Y-137320000D01*
X19840000Y-132120000D02*
X17180000Y-132120000D01*
X17180000Y-137320000D02*
X17180000Y-134210000D01*
X19840000Y-136750000D02*
X21360000Y-136750000D01*
X19840000Y-137320000D02*
X19840000Y-136750000D01*
X17180000Y-132690000D02*
X17180000Y-132120000D01*
X19840000Y-135230000D02*
X19840000Y-132120000D01*
%TO.C,J11*%
X19770000Y-142050000D02*
X19770000Y-138940000D01*
X17110000Y-139510000D02*
X17110000Y-138940000D01*
X19770000Y-144140000D02*
X19770000Y-143570000D01*
X19770000Y-143570000D02*
X21290000Y-143570000D01*
X17110000Y-144140000D02*
X17110000Y-141030000D01*
X19770000Y-138940000D02*
X17110000Y-138940000D01*
X19770000Y-144140000D02*
X17110000Y-144140000D01*
%TO.C,L1*%
X27878733Y-169490000D02*
X28221267Y-169490000D01*
X27878733Y-170510000D02*
X28221267Y-170510000D01*
%TO.C,R1*%
X21895976Y-158354500D02*
X22405424Y-158354500D01*
X21895976Y-159399500D02*
X22405424Y-159399500D01*
%TO.C,R2*%
X48797776Y-163457500D02*
X49307224Y-163457500D01*
X48797776Y-164502500D02*
X49307224Y-164502500D01*
%TO.C,R3*%
X27507460Y-167285124D02*
X27507460Y-166775676D01*
X26462460Y-167285124D02*
X26462460Y-166775676D01*
%TO.C,R4*%
X43377224Y-170907500D02*
X42867776Y-170907500D01*
X43377224Y-171952500D02*
X42867776Y-171952500D01*
%TO.C,R5*%
X31095404Y-138109220D02*
X30585956Y-138109220D01*
X31095404Y-137064220D02*
X30585956Y-137064220D01*
%TO.C,R6*%
X17682776Y-173952500D02*
X18192224Y-173952500D01*
X17682776Y-174997500D02*
X18192224Y-174997500D01*
%TO.C,R7*%
X18142224Y-175552500D02*
X17632776Y-175552500D01*
X18142224Y-176597500D02*
X17632776Y-176597500D01*
%TO.C,R8*%
X47492500Y-158607224D02*
X47492500Y-158097776D01*
X46447500Y-158607224D02*
X46447500Y-158097776D01*
%TO.C,R9*%
X29695276Y-179347500D02*
X30204724Y-179347500D01*
X29695276Y-178302500D02*
X30204724Y-178302500D01*
%TO.C,R10*%
X46277500Y-150245276D02*
X46277500Y-150754724D01*
X47322500Y-150245276D02*
X47322500Y-150754724D01*
%TO.C,R11*%
X49810124Y-160953980D02*
X49300676Y-160953980D01*
X49810124Y-159908980D02*
X49300676Y-159908980D01*
%TO.C,R12*%
X49332776Y-150357500D02*
X49842224Y-150357500D01*
X49332776Y-151402500D02*
X49842224Y-151402500D01*
%TO.C,R13*%
X49282776Y-158037500D02*
X49792224Y-158037500D01*
X49282776Y-159082500D02*
X49792224Y-159082500D01*
%TO.C,R14*%
X18129724Y-178247500D02*
X17620276Y-178247500D01*
X18129724Y-177202500D02*
X17620276Y-177202500D01*
%TO.C,R15*%
X30594724Y-183627500D02*
X30085276Y-183627500D01*
X30594724Y-184672500D02*
X30085276Y-184672500D01*
%TO.C,R16*%
X62734724Y-192167500D02*
X62225276Y-192167500D01*
X62734724Y-193212500D02*
X62225276Y-193212500D01*
%TO.C,R17*%
X59537500Y-192665276D02*
X59537500Y-193174724D01*
X60582500Y-192665276D02*
X60582500Y-193174724D01*
%TO.C,R19*%
X56177500Y-185754724D02*
X56177500Y-185245276D01*
X57222500Y-185754724D02*
X57222500Y-185245276D01*
%TO.C,R20*%
X43787500Y-174687776D02*
X43787500Y-175197224D01*
X44832500Y-174687776D02*
X44832500Y-175197224D01*
%TO.C,R21*%
X44822500Y-178025276D02*
X44822500Y-178534724D01*
X43777500Y-178025276D02*
X43777500Y-178534724D01*
%TO.C,R22*%
X50642500Y-181037776D02*
X50642500Y-181547224D01*
X49597500Y-181037776D02*
X49597500Y-181547224D01*
%TO.C,SW1*%
X53600000Y-167330000D02*
X53900000Y-167330000D01*
X53900000Y-167330000D02*
X53900000Y-164030000D01*
X53900000Y-164030000D02*
X53600000Y-164030000D01*
X51400000Y-167330000D02*
X51100000Y-167330000D01*
X51100000Y-167330000D02*
X51100000Y-164030000D01*
X51100000Y-164030000D02*
X51400000Y-164030000D01*
%TO.C,SW2*%
X24700000Y-168250000D02*
X25000000Y-168250000D01*
X25000000Y-168250000D02*
X25000000Y-164950000D01*
X25000000Y-164950000D02*
X24700000Y-164950000D01*
X22500000Y-168250000D02*
X22200000Y-168250000D01*
X22200000Y-168250000D02*
X22200000Y-164950000D01*
X22200000Y-164950000D02*
X22500000Y-164950000D01*
%TO.C,U2*%
X38850000Y-178800000D02*
X38850000Y-177540000D01*
X38850000Y-171980000D02*
X38850000Y-173240000D01*
X35090000Y-178800000D02*
X38850000Y-178800000D01*
X32840000Y-171980000D02*
X38850000Y-171980000D01*
%TO.C,U3*%
X26247500Y-174265000D02*
X26722500Y-174265000D01*
X26722500Y-174265000D02*
X26722500Y-174740000D01*
X22977500Y-178485000D02*
X22502500Y-178485000D01*
X22502500Y-178485000D02*
X22502500Y-178010000D01*
X26247500Y-178485000D02*
X26722500Y-178485000D01*
X26722500Y-178485000D02*
X26722500Y-178010000D01*
X22977500Y-174265000D02*
X22502500Y-174265000D01*
%TO.C,U5*%
X49090000Y-179460000D02*
X51040000Y-179460000D01*
X49090000Y-179460000D02*
X47140000Y-179460000D01*
X49090000Y-174340000D02*
X51040000Y-174340000D01*
X49090000Y-174340000D02*
X45640000Y-174340000D01*
%TO.C,Y1*%
X26390000Y-151850000D02*
X38990000Y-151850000D01*
X38990000Y-151850000D02*
X38990000Y-146750000D01*
X38990000Y-146750000D02*
X26390000Y-146750000D01*
%TO.C,AE1*%
X43810000Y-134685000D02*
X43810000Y-134045000D01*
X43810000Y-131885000D02*
X43810000Y-132525000D01*
X43810000Y-134045000D02*
X44440000Y-134045000D01*
X41090000Y-134635000D02*
X41090000Y-131935000D01*
%TO.C,C29*%
X38460000Y-163676233D02*
X38460000Y-163968767D01*
X39480000Y-163676233D02*
X39480000Y-163968767D01*
%TO.C,Y2*%
X28650000Y-140550000D02*
X36050000Y-140550000D01*
X38400000Y-140550000D02*
X38250000Y-140550000D01*
X38400000Y-144950000D02*
X38250000Y-144950000D01*
X38400000Y-140550000D02*
X38400000Y-142250000D01*
X38400000Y-143250000D02*
X38400000Y-144950000D01*
X36050000Y-144950000D02*
X28650000Y-144950000D01*
X26300000Y-140550000D02*
X26450000Y-140550000D01*
X26300000Y-144950000D02*
X26300000Y-140550000D01*
X26450000Y-144950000D02*
X26300000Y-144950000D01*
X38400000Y-142250000D02*
G75*
G03*
X38400000Y-143250000I0J-500000D01*
G01*
%TO.C,C27*%
X24618135Y-161387200D02*
X24386465Y-161387200D01*
X24618135Y-162107200D02*
X24386465Y-162107200D01*
%TO.C,C5*%
X25385440Y-167451585D02*
X25385440Y-167683255D01*
X26105440Y-167451585D02*
X26105440Y-167683255D01*
%TO.C,R23*%
X19920000Y-180677621D02*
X19920000Y-180342379D01*
X20680000Y-180677621D02*
X20680000Y-180342379D01*
%TO.C,R24*%
X23554879Y-180620000D02*
X23890121Y-180620000D01*
X23554879Y-179860000D02*
X23890121Y-179860000D01*
%TO.C,Q1*%
X40300000Y-186250000D02*
X40300000Y-185150000D01*
X38490000Y-186250000D02*
X40300000Y-186250000D01*
X38490000Y-187750000D02*
X38490000Y-186250000D01*
X47080000Y-186250000D02*
X47080000Y-181125000D01*
X48890000Y-186250000D02*
X47080000Y-186250000D01*
X48890000Y-187750000D02*
X48890000Y-186250000D01*
%TO.C,C11*%
X33892164Y-153460000D02*
X34107836Y-153460000D01*
X33892164Y-152740000D02*
X34107836Y-152740000D01*
%TO.C,U4*%
D11*
X56627380Y-189101904D02*
X57436904Y-189101904D01*
X57532142Y-189054285D01*
X57579761Y-189006666D01*
X57627380Y-188911428D01*
X57627380Y-188720952D01*
X57579761Y-188625714D01*
X57532142Y-188578095D01*
X57436904Y-188530476D01*
X56627380Y-188530476D01*
X56960714Y-187625714D02*
X57627380Y-187625714D01*
X56579761Y-187863809D02*
X57294047Y-188101904D01*
X57294047Y-187482857D01*
%TO.C,U1*%
X36062380Y-159501904D02*
X36871904Y-159501904D01*
X36967142Y-159454285D01*
X37014761Y-159406666D01*
X37062380Y-159311428D01*
X37062380Y-159120952D01*
X37014761Y-159025714D01*
X36967142Y-158978095D01*
X36871904Y-158930476D01*
X36062380Y-158930476D01*
X37062380Y-157930476D02*
X37062380Y-158501904D01*
X37062380Y-158216190D02*
X36062380Y-158216190D01*
X36205238Y-158311428D01*
X36300476Y-158406666D01*
X36348095Y-158501904D01*
%TO.C,U6*%
X53638095Y-135932380D02*
X53638095Y-136741904D01*
X53685714Y-136837142D01*
X53733333Y-136884761D01*
X53828571Y-136932380D01*
X54019047Y-136932380D01*
X54114285Y-136884761D01*
X54161904Y-136837142D01*
X54209523Y-136741904D01*
X54209523Y-135932380D01*
X55114285Y-135932380D02*
X54923809Y-135932380D01*
X54828571Y-135980000D01*
X54780952Y-136027619D01*
X54685714Y-136170476D01*
X54638095Y-136360952D01*
X54638095Y-136741904D01*
X54685714Y-136837142D01*
X54733333Y-136884761D01*
X54828571Y-136932380D01*
X55019047Y-136932380D01*
X55114285Y-136884761D01*
X55161904Y-136837142D01*
X55209523Y-136741904D01*
X55209523Y-136503809D01*
X55161904Y-136408571D01*
X55114285Y-136360952D01*
X55019047Y-136313333D01*
X54828571Y-136313333D01*
X54733333Y-136360952D01*
X54685714Y-136408571D01*
X54638095Y-136503809D01*
%TO.C,C1*%
X39975000Y-146767857D02*
X39939285Y-146803571D01*
X39832142Y-146839285D01*
X39760714Y-146839285D01*
X39653571Y-146803571D01*
X39582142Y-146732142D01*
X39546428Y-146660714D01*
X39510714Y-146517857D01*
X39510714Y-146410714D01*
X39546428Y-146267857D01*
X39582142Y-146196428D01*
X39653571Y-146125000D01*
X39760714Y-146089285D01*
X39832142Y-146089285D01*
X39939285Y-146125000D01*
X39975000Y-146160714D01*
X40689285Y-146839285D02*
X40260714Y-146839285D01*
X40475000Y-146839285D02*
X40475000Y-146089285D01*
X40403571Y-146196428D01*
X40332142Y-146267857D01*
X40260714Y-146303571D01*
%TO.C,C2*%
X24575000Y-146867857D02*
X24539285Y-146903571D01*
X24432142Y-146939285D01*
X24360714Y-146939285D01*
X24253571Y-146903571D01*
X24182142Y-146832142D01*
X24146428Y-146760714D01*
X24110714Y-146617857D01*
X24110714Y-146510714D01*
X24146428Y-146367857D01*
X24182142Y-146296428D01*
X24253571Y-146225000D01*
X24360714Y-146189285D01*
X24432142Y-146189285D01*
X24539285Y-146225000D01*
X24575000Y-146260714D01*
X24860714Y-146260714D02*
X24896428Y-146225000D01*
X24967857Y-146189285D01*
X25146428Y-146189285D01*
X25217857Y-146225000D01*
X25253571Y-146260714D01*
X25289285Y-146332142D01*
X25289285Y-146403571D01*
X25253571Y-146510714D01*
X24825000Y-146939285D01*
X25289285Y-146939285D01*
%TO.C,C3*%
X40879432Y-141408123D02*
X40927051Y-141455742D01*
X40974670Y-141598599D01*
X40974670Y-141693837D01*
X40927051Y-141836695D01*
X40831813Y-141931933D01*
X40736575Y-141979552D01*
X40546099Y-142027171D01*
X40403242Y-142027171D01*
X40212766Y-141979552D01*
X40117528Y-141931933D01*
X40022290Y-141836695D01*
X39974670Y-141693837D01*
X39974670Y-141598599D01*
X40022290Y-141455742D01*
X40069909Y-141408123D01*
X39974670Y-141074790D02*
X39974670Y-140455742D01*
X40355623Y-140789076D01*
X40355623Y-140646218D01*
X40403242Y-140550980D01*
X40450861Y-140503361D01*
X40546099Y-140455742D01*
X40784194Y-140455742D01*
X40879432Y-140503361D01*
X40927051Y-140550980D01*
X40974670Y-140646218D01*
X40974670Y-140931933D01*
X40927051Y-141027171D01*
X40879432Y-141074790D01*
%TO.C,C4*%
X27287142Y-144441666D02*
X27334761Y-144489285D01*
X27382380Y-144632142D01*
X27382380Y-144727380D01*
X27334761Y-144870238D01*
X27239523Y-144965476D01*
X27144285Y-145013095D01*
X26953809Y-145060714D01*
X26810952Y-145060714D01*
X26620476Y-145013095D01*
X26525238Y-144965476D01*
X26430000Y-144870238D01*
X26382380Y-144727380D01*
X26382380Y-144632142D01*
X26430000Y-144489285D01*
X26477619Y-144441666D01*
X26715714Y-143584523D02*
X27382380Y-143584523D01*
X26334761Y-143822619D02*
X27049047Y-144060714D01*
X27049047Y-143441666D01*
%TO.C,C6*%
X49075000Y-167067857D02*
X49039285Y-167103571D01*
X48932142Y-167139285D01*
X48860714Y-167139285D01*
X48753571Y-167103571D01*
X48682142Y-167032142D01*
X48646428Y-166960714D01*
X48610714Y-166817857D01*
X48610714Y-166710714D01*
X48646428Y-166567857D01*
X48682142Y-166496428D01*
X48753571Y-166425000D01*
X48860714Y-166389285D01*
X48932142Y-166389285D01*
X49039285Y-166425000D01*
X49075000Y-166460714D01*
X49717857Y-166389285D02*
X49575000Y-166389285D01*
X49503571Y-166425000D01*
X49467857Y-166460714D01*
X49396428Y-166567857D01*
X49360714Y-166710714D01*
X49360714Y-166996428D01*
X49396428Y-167067857D01*
X49432142Y-167103571D01*
X49503571Y-167139285D01*
X49646428Y-167139285D01*
X49717857Y-167103571D01*
X49753571Y-167067857D01*
X49789285Y-166996428D01*
X49789285Y-166817857D01*
X49753571Y-166746428D01*
X49717857Y-166710714D01*
X49646428Y-166675000D01*
X49503571Y-166675000D01*
X49432142Y-166710714D01*
X49396428Y-166746428D01*
X49360714Y-166817857D01*
%TO.C,C7*%
X33767857Y-178325000D02*
X33803571Y-178360714D01*
X33839285Y-178467857D01*
X33839285Y-178539285D01*
X33803571Y-178646428D01*
X33732142Y-178717857D01*
X33660714Y-178753571D01*
X33517857Y-178789285D01*
X33410714Y-178789285D01*
X33267857Y-178753571D01*
X33196428Y-178717857D01*
X33125000Y-178646428D01*
X33089285Y-178539285D01*
X33089285Y-178467857D01*
X33125000Y-178360714D01*
X33160714Y-178325000D01*
X33089285Y-178075000D02*
X33089285Y-177575000D01*
X33839285Y-177896428D01*
%TO.C,C8*%
X35432142Y-183241666D02*
X35479761Y-183289285D01*
X35527380Y-183432142D01*
X35527380Y-183527380D01*
X35479761Y-183670238D01*
X35384523Y-183765476D01*
X35289285Y-183813095D01*
X35098809Y-183860714D01*
X34955952Y-183860714D01*
X34765476Y-183813095D01*
X34670238Y-183765476D01*
X34575000Y-183670238D01*
X34527380Y-183527380D01*
X34527380Y-183432142D01*
X34575000Y-183289285D01*
X34622619Y-183241666D01*
X34955952Y-182670238D02*
X34908333Y-182765476D01*
X34860714Y-182813095D01*
X34765476Y-182860714D01*
X34717857Y-182860714D01*
X34622619Y-182813095D01*
X34575000Y-182765476D01*
X34527380Y-182670238D01*
X34527380Y-182479761D01*
X34575000Y-182384523D01*
X34622619Y-182336904D01*
X34717857Y-182289285D01*
X34765476Y-182289285D01*
X34860714Y-182336904D01*
X34908333Y-182384523D01*
X34955952Y-182479761D01*
X34955952Y-182670238D01*
X35003571Y-182765476D01*
X35051190Y-182813095D01*
X35146428Y-182860714D01*
X35336904Y-182860714D01*
X35432142Y-182813095D01*
X35479761Y-182765476D01*
X35527380Y-182670238D01*
X35527380Y-182479761D01*
X35479761Y-182384523D01*
X35432142Y-182336904D01*
X35336904Y-182289285D01*
X35146428Y-182289285D01*
X35051190Y-182336904D01*
X35003571Y-182384523D01*
X34955952Y-182479761D01*
%TO.C,C9*%
X30467500Y-153577857D02*
X30431785Y-153613571D01*
X30324642Y-153649285D01*
X30253214Y-153649285D01*
X30146071Y-153613571D01*
X30074642Y-153542142D01*
X30038928Y-153470714D01*
X30003214Y-153327857D01*
X30003214Y-153220714D01*
X30038928Y-153077857D01*
X30074642Y-153006428D01*
X30146071Y-152935000D01*
X30253214Y-152899285D01*
X30324642Y-152899285D01*
X30431785Y-152935000D01*
X30467500Y-152970714D01*
X30824642Y-153649285D02*
X30967500Y-153649285D01*
X31038928Y-153613571D01*
X31074642Y-153577857D01*
X31146071Y-153470714D01*
X31181785Y-153327857D01*
X31181785Y-153042142D01*
X31146071Y-152970714D01*
X31110357Y-152935000D01*
X31038928Y-152899285D01*
X30896071Y-152899285D01*
X30824642Y-152935000D01*
X30788928Y-152970714D01*
X30753214Y-153042142D01*
X30753214Y-153220714D01*
X30788928Y-153292142D01*
X30824642Y-153327857D01*
X30896071Y-153363571D01*
X31038928Y-153363571D01*
X31110357Y-153327857D01*
X31146071Y-153292142D01*
X31181785Y-153220714D01*
%TO.C,C10*%
X34117857Y-171267857D02*
X34082142Y-171303571D01*
X33975000Y-171339285D01*
X33903571Y-171339285D01*
X33796428Y-171303571D01*
X33725000Y-171232142D01*
X33689285Y-171160714D01*
X33653571Y-171017857D01*
X33653571Y-170910714D01*
X33689285Y-170767857D01*
X33725000Y-170696428D01*
X33796428Y-170625000D01*
X33903571Y-170589285D01*
X33975000Y-170589285D01*
X34082142Y-170625000D01*
X34117857Y-170660714D01*
X34832142Y-171339285D02*
X34403571Y-171339285D01*
X34617857Y-171339285D02*
X34617857Y-170589285D01*
X34546428Y-170696428D01*
X34475000Y-170767857D01*
X34403571Y-170803571D01*
X35296428Y-170589285D02*
X35367857Y-170589285D01*
X35439285Y-170625000D01*
X35475000Y-170660714D01*
X35510714Y-170732142D01*
X35546428Y-170875000D01*
X35546428Y-171053571D01*
X35510714Y-171196428D01*
X35475000Y-171267857D01*
X35439285Y-171303571D01*
X35367857Y-171339285D01*
X35296428Y-171339285D01*
X35225000Y-171303571D01*
X35189285Y-171267857D01*
X35153571Y-171196428D01*
X35117857Y-171053571D01*
X35117857Y-170875000D01*
X35153571Y-170732142D01*
X35189285Y-170660714D01*
X35225000Y-170625000D01*
X35296428Y-170589285D01*
%TO.C,C12*%
X41167857Y-170082142D02*
X41203571Y-170117857D01*
X41239285Y-170225000D01*
X41239285Y-170296428D01*
X41203571Y-170403571D01*
X41132142Y-170475000D01*
X41060714Y-170510714D01*
X40917857Y-170546428D01*
X40810714Y-170546428D01*
X40667857Y-170510714D01*
X40596428Y-170475000D01*
X40525000Y-170403571D01*
X40489285Y-170296428D01*
X40489285Y-170225000D01*
X40525000Y-170117857D01*
X40560714Y-170082142D01*
X41239285Y-169367857D02*
X41239285Y-169796428D01*
X41239285Y-169582142D02*
X40489285Y-169582142D01*
X40596428Y-169653571D01*
X40667857Y-169725000D01*
X40703571Y-169796428D01*
X40560714Y-169082142D02*
X40525000Y-169046428D01*
X40489285Y-168975000D01*
X40489285Y-168796428D01*
X40525000Y-168725000D01*
X40560714Y-168689285D01*
X40632142Y-168653571D01*
X40703571Y-168653571D01*
X40810714Y-168689285D01*
X41239285Y-169117857D01*
X41239285Y-168653571D01*
%TO.C,C13*%
X37676057Y-155786542D02*
X37711771Y-155822257D01*
X37747485Y-155929400D01*
X37747485Y-156000828D01*
X37711771Y-156107971D01*
X37640342Y-156179400D01*
X37568914Y-156215114D01*
X37426057Y-156250828D01*
X37318914Y-156250828D01*
X37176057Y-156215114D01*
X37104628Y-156179400D01*
X37033200Y-156107971D01*
X36997485Y-156000828D01*
X36997485Y-155929400D01*
X37033200Y-155822257D01*
X37068914Y-155786542D01*
X37747485Y-155072257D02*
X37747485Y-155500828D01*
X37747485Y-155286542D02*
X36997485Y-155286542D01*
X37104628Y-155357971D01*
X37176057Y-155429400D01*
X37211771Y-155500828D01*
X36997485Y-154822257D02*
X36997485Y-154357971D01*
X37283200Y-154607971D01*
X37283200Y-154500828D01*
X37318914Y-154429400D01*
X37354628Y-154393685D01*
X37426057Y-154357971D01*
X37604628Y-154357971D01*
X37676057Y-154393685D01*
X37711771Y-154429400D01*
X37747485Y-154500828D01*
X37747485Y-154715114D01*
X37711771Y-154786542D01*
X37676057Y-154822257D01*
%TO.C,C14*%
X33958343Y-165967508D02*
X33910724Y-166015127D01*
X33767867Y-166062746D01*
X33672629Y-166062746D01*
X33529772Y-166015127D01*
X33434534Y-165919889D01*
X33386915Y-165824651D01*
X33339296Y-165634175D01*
X33339296Y-165491318D01*
X33386915Y-165300842D01*
X33434534Y-165205604D01*
X33529772Y-165110366D01*
X33672629Y-165062746D01*
X33767867Y-165062746D01*
X33910724Y-165110366D01*
X33958343Y-165157985D01*
X34910724Y-166062746D02*
X34339296Y-166062746D01*
X34625010Y-166062746D02*
X34625010Y-165062746D01*
X34529772Y-165205604D01*
X34434534Y-165300842D01*
X34339296Y-165348461D01*
X35767867Y-165396080D02*
X35767867Y-166062746D01*
X35529772Y-165015127D02*
X35291677Y-165729413D01*
X35910724Y-165729413D01*
%TO.C,C15*%
X15647857Y-185202142D02*
X15683571Y-185237857D01*
X15719285Y-185345000D01*
X15719285Y-185416428D01*
X15683571Y-185523571D01*
X15612142Y-185595000D01*
X15540714Y-185630714D01*
X15397857Y-185666428D01*
X15290714Y-185666428D01*
X15147857Y-185630714D01*
X15076428Y-185595000D01*
X15005000Y-185523571D01*
X14969285Y-185416428D01*
X14969285Y-185345000D01*
X15005000Y-185237857D01*
X15040714Y-185202142D01*
X15719285Y-184487857D02*
X15719285Y-184916428D01*
X15719285Y-184702142D02*
X14969285Y-184702142D01*
X15076428Y-184773571D01*
X15147857Y-184845000D01*
X15183571Y-184916428D01*
X14969285Y-183809285D02*
X14969285Y-184166428D01*
X15326428Y-184202142D01*
X15290714Y-184166428D01*
X15255000Y-184095000D01*
X15255000Y-183916428D01*
X15290714Y-183845000D01*
X15326428Y-183809285D01*
X15397857Y-183773571D01*
X15576428Y-183773571D01*
X15647857Y-183809285D01*
X15683571Y-183845000D01*
X15719285Y-183916428D01*
X15719285Y-184095000D01*
X15683571Y-184166428D01*
X15647857Y-184202142D01*
%TO.C,C16*%
X36247857Y-190422142D02*
X36283571Y-190457857D01*
X36319285Y-190565000D01*
X36319285Y-190636428D01*
X36283571Y-190743571D01*
X36212142Y-190815000D01*
X36140714Y-190850714D01*
X35997857Y-190886428D01*
X35890714Y-190886428D01*
X35747857Y-190850714D01*
X35676428Y-190815000D01*
X35605000Y-190743571D01*
X35569285Y-190636428D01*
X35569285Y-190565000D01*
X35605000Y-190457857D01*
X35640714Y-190422142D01*
X36319285Y-189707857D02*
X36319285Y-190136428D01*
X36319285Y-189922142D02*
X35569285Y-189922142D01*
X35676428Y-189993571D01*
X35747857Y-190065000D01*
X35783571Y-190136428D01*
X35569285Y-189065000D02*
X35569285Y-189207857D01*
X35605000Y-189279285D01*
X35640714Y-189315000D01*
X35747857Y-189386428D01*
X35890714Y-189422142D01*
X36176428Y-189422142D01*
X36247857Y-189386428D01*
X36283571Y-189350714D01*
X36319285Y-189279285D01*
X36319285Y-189136428D01*
X36283571Y-189065000D01*
X36247857Y-189029285D01*
X36176428Y-188993571D01*
X35997857Y-188993571D01*
X35926428Y-189029285D01*
X35890714Y-189065000D01*
X35855000Y-189136428D01*
X35855000Y-189279285D01*
X35890714Y-189350714D01*
X35926428Y-189386428D01*
X35997857Y-189422142D01*
%TO.C,C17*%
X15877857Y-182212142D02*
X15913571Y-182247857D01*
X15949285Y-182355000D01*
X15949285Y-182426428D01*
X15913571Y-182533571D01*
X15842142Y-182605000D01*
X15770714Y-182640714D01*
X15627857Y-182676428D01*
X15520714Y-182676428D01*
X15377857Y-182640714D01*
X15306428Y-182605000D01*
X15235000Y-182533571D01*
X15199285Y-182426428D01*
X15199285Y-182355000D01*
X15235000Y-182247857D01*
X15270714Y-182212142D01*
X15949285Y-181497857D02*
X15949285Y-181926428D01*
X15949285Y-181712142D02*
X15199285Y-181712142D01*
X15306428Y-181783571D01*
X15377857Y-181855000D01*
X15413571Y-181926428D01*
X15199285Y-181247857D02*
X15199285Y-180747857D01*
X15949285Y-181069285D01*
%TO.C,C18*%
X20517857Y-171394642D02*
X20553571Y-171430357D01*
X20589285Y-171537500D01*
X20589285Y-171608928D01*
X20553571Y-171716071D01*
X20482142Y-171787500D01*
X20410714Y-171823214D01*
X20267857Y-171858928D01*
X20160714Y-171858928D01*
X20017857Y-171823214D01*
X19946428Y-171787500D01*
X19875000Y-171716071D01*
X19839285Y-171608928D01*
X19839285Y-171537500D01*
X19875000Y-171430357D01*
X19910714Y-171394642D01*
X20589285Y-170680357D02*
X20589285Y-171108928D01*
X20589285Y-170894642D02*
X19839285Y-170894642D01*
X19946428Y-170966071D01*
X20017857Y-171037500D01*
X20053571Y-171108928D01*
X20160714Y-170251785D02*
X20125000Y-170323214D01*
X20089285Y-170358928D01*
X20017857Y-170394642D01*
X19982142Y-170394642D01*
X19910714Y-170358928D01*
X19875000Y-170323214D01*
X19839285Y-170251785D01*
X19839285Y-170108928D01*
X19875000Y-170037500D01*
X19910714Y-170001785D01*
X19982142Y-169966071D01*
X20017857Y-169966071D01*
X20089285Y-170001785D01*
X20125000Y-170037500D01*
X20160714Y-170108928D01*
X20160714Y-170251785D01*
X20196428Y-170323214D01*
X20232142Y-170358928D01*
X20303571Y-170394642D01*
X20446428Y-170394642D01*
X20517857Y-170358928D01*
X20553571Y-170323214D01*
X20589285Y-170251785D01*
X20589285Y-170108928D01*
X20553571Y-170037500D01*
X20517857Y-170001785D01*
X20446428Y-169966071D01*
X20303571Y-169966071D01*
X20232142Y-170001785D01*
X20196428Y-170037500D01*
X20160714Y-170108928D01*
%TO.C,C19*%
X22617857Y-173287857D02*
X22582142Y-173323571D01*
X22475000Y-173359285D01*
X22403571Y-173359285D01*
X22296428Y-173323571D01*
X22225000Y-173252142D01*
X22189285Y-173180714D01*
X22153571Y-173037857D01*
X22153571Y-172930714D01*
X22189285Y-172787857D01*
X22225000Y-172716428D01*
X22296428Y-172645000D01*
X22403571Y-172609285D01*
X22475000Y-172609285D01*
X22582142Y-172645000D01*
X22617857Y-172680714D01*
X23332142Y-173359285D02*
X22903571Y-173359285D01*
X23117857Y-173359285D02*
X23117857Y-172609285D01*
X23046428Y-172716428D01*
X22975000Y-172787857D01*
X22903571Y-172823571D01*
X23689285Y-173359285D02*
X23832142Y-173359285D01*
X23903571Y-173323571D01*
X23939285Y-173287857D01*
X24010714Y-173180714D01*
X24046428Y-173037857D01*
X24046428Y-172752142D01*
X24010714Y-172680714D01*
X23975000Y-172645000D01*
X23903571Y-172609285D01*
X23760714Y-172609285D01*
X23689285Y-172645000D01*
X23653571Y-172680714D01*
X23617857Y-172752142D01*
X23617857Y-172930714D01*
X23653571Y-173002142D01*
X23689285Y-173037857D01*
X23760714Y-173073571D01*
X23903571Y-173073571D01*
X23975000Y-173037857D01*
X24010714Y-173002142D01*
X24046428Y-172930714D01*
%TO.C,C20*%
X25117857Y-173267857D02*
X25082142Y-173303571D01*
X24975000Y-173339285D01*
X24903571Y-173339285D01*
X24796428Y-173303571D01*
X24725000Y-173232142D01*
X24689285Y-173160714D01*
X24653571Y-173017857D01*
X24653571Y-172910714D01*
X24689285Y-172767857D01*
X24725000Y-172696428D01*
X24796428Y-172625000D01*
X24903571Y-172589285D01*
X24975000Y-172589285D01*
X25082142Y-172625000D01*
X25117857Y-172660714D01*
X25403571Y-172660714D02*
X25439285Y-172625000D01*
X25510714Y-172589285D01*
X25689285Y-172589285D01*
X25760714Y-172625000D01*
X25796428Y-172660714D01*
X25832142Y-172732142D01*
X25832142Y-172803571D01*
X25796428Y-172910714D01*
X25367857Y-173339285D01*
X25832142Y-173339285D01*
X26296428Y-172589285D02*
X26367857Y-172589285D01*
X26439285Y-172625000D01*
X26475000Y-172660714D01*
X26510714Y-172732142D01*
X26546428Y-172875000D01*
X26546428Y-173053571D01*
X26510714Y-173196428D01*
X26475000Y-173267857D01*
X26439285Y-173303571D01*
X26367857Y-173339285D01*
X26296428Y-173339285D01*
X26225000Y-173303571D01*
X26189285Y-173267857D01*
X26153571Y-173196428D01*
X26117857Y-173053571D01*
X26117857Y-172875000D01*
X26153571Y-172732142D01*
X26189285Y-172660714D01*
X26225000Y-172625000D01*
X26296428Y-172589285D01*
%TO.C,C21*%
X27917857Y-173267857D02*
X27882142Y-173303571D01*
X27775000Y-173339285D01*
X27703571Y-173339285D01*
X27596428Y-173303571D01*
X27525000Y-173232142D01*
X27489285Y-173160714D01*
X27453571Y-173017857D01*
X27453571Y-172910714D01*
X27489285Y-172767857D01*
X27525000Y-172696428D01*
X27596428Y-172625000D01*
X27703571Y-172589285D01*
X27775000Y-172589285D01*
X27882142Y-172625000D01*
X27917857Y-172660714D01*
X28203571Y-172660714D02*
X28239285Y-172625000D01*
X28310714Y-172589285D01*
X28489285Y-172589285D01*
X28560714Y-172625000D01*
X28596428Y-172660714D01*
X28632142Y-172732142D01*
X28632142Y-172803571D01*
X28596428Y-172910714D01*
X28167857Y-173339285D01*
X28632142Y-173339285D01*
X29346428Y-173339285D02*
X28917857Y-173339285D01*
X29132142Y-173339285D02*
X29132142Y-172589285D01*
X29060714Y-172696428D01*
X28989285Y-172767857D01*
X28917857Y-172803571D01*
%TO.C,C22*%
D10*
X29017857Y-182067857D02*
X28982142Y-182103571D01*
X28875000Y-182139285D01*
X28803571Y-182139285D01*
X28696428Y-182103571D01*
X28625000Y-182032142D01*
X28589285Y-181960714D01*
X28553571Y-181817857D01*
X28553571Y-181710714D01*
X28589285Y-181567857D01*
X28625000Y-181496428D01*
X28696428Y-181425000D01*
X28803571Y-181389285D01*
X28875000Y-181389285D01*
X28982142Y-181425000D01*
X29017857Y-181460714D01*
X29303571Y-181460714D02*
X29339285Y-181425000D01*
X29410714Y-181389285D01*
X29589285Y-181389285D01*
X29660714Y-181425000D01*
X29696428Y-181460714D01*
X29732142Y-181532142D01*
X29732142Y-181603571D01*
X29696428Y-181710714D01*
X29267857Y-182139285D01*
X29732142Y-182139285D01*
X30017857Y-181460714D02*
X30053571Y-181425000D01*
X30125000Y-181389285D01*
X30303571Y-181389285D01*
X30375000Y-181425000D01*
X30410714Y-181460714D01*
X30446428Y-181532142D01*
X30446428Y-181603571D01*
X30410714Y-181710714D01*
X29982142Y-182139285D01*
X30446428Y-182139285D01*
%TO.C,C23*%
D11*
X47317857Y-152667857D02*
X47282142Y-152703571D01*
X47175000Y-152739285D01*
X47103571Y-152739285D01*
X46996428Y-152703571D01*
X46925000Y-152632142D01*
X46889285Y-152560714D01*
X46853571Y-152417857D01*
X46853571Y-152310714D01*
X46889285Y-152167857D01*
X46925000Y-152096428D01*
X46996428Y-152025000D01*
X47103571Y-151989285D01*
X47175000Y-151989285D01*
X47282142Y-152025000D01*
X47317857Y-152060714D01*
X47603571Y-152060714D02*
X47639285Y-152025000D01*
X47710714Y-151989285D01*
X47889285Y-151989285D01*
X47960714Y-152025000D01*
X47996428Y-152060714D01*
X48032142Y-152132142D01*
X48032142Y-152203571D01*
X47996428Y-152310714D01*
X47567857Y-152739285D01*
X48032142Y-152739285D01*
X48282142Y-151989285D02*
X48746428Y-151989285D01*
X48496428Y-152275000D01*
X48603571Y-152275000D01*
X48675000Y-152310714D01*
X48710714Y-152346428D01*
X48746428Y-152417857D01*
X48746428Y-152596428D01*
X48710714Y-152667857D01*
X48675000Y-152703571D01*
X48603571Y-152739285D01*
X48389285Y-152739285D01*
X48317857Y-152703571D01*
X48282142Y-152667857D01*
%TO.C,C24*%
X26967857Y-183682142D02*
X27003571Y-183717857D01*
X27039285Y-183825000D01*
X27039285Y-183896428D01*
X27003571Y-184003571D01*
X26932142Y-184075000D01*
X26860714Y-184110714D01*
X26717857Y-184146428D01*
X26610714Y-184146428D01*
X26467857Y-184110714D01*
X26396428Y-184075000D01*
X26325000Y-184003571D01*
X26289285Y-183896428D01*
X26289285Y-183825000D01*
X26325000Y-183717857D01*
X26360714Y-183682142D01*
X26360714Y-183396428D02*
X26325000Y-183360714D01*
X26289285Y-183289285D01*
X26289285Y-183110714D01*
X26325000Y-183039285D01*
X26360714Y-183003571D01*
X26432142Y-182967857D01*
X26503571Y-182967857D01*
X26610714Y-183003571D01*
X27039285Y-183432142D01*
X27039285Y-182967857D01*
X26539285Y-182325000D02*
X27039285Y-182325000D01*
X26253571Y-182503571D02*
X26789285Y-182682142D01*
X26789285Y-182217857D01*
%TO.C,C25*%
X49717857Y-152667857D02*
X49682142Y-152703571D01*
X49575000Y-152739285D01*
X49503571Y-152739285D01*
X49396428Y-152703571D01*
X49325000Y-152632142D01*
X49289285Y-152560714D01*
X49253571Y-152417857D01*
X49253571Y-152310714D01*
X49289285Y-152167857D01*
X49325000Y-152096428D01*
X49396428Y-152025000D01*
X49503571Y-151989285D01*
X49575000Y-151989285D01*
X49682142Y-152025000D01*
X49717857Y-152060714D01*
X50003571Y-152060714D02*
X50039285Y-152025000D01*
X50110714Y-151989285D01*
X50289285Y-151989285D01*
X50360714Y-152025000D01*
X50396428Y-152060714D01*
X50432142Y-152132142D01*
X50432142Y-152203571D01*
X50396428Y-152310714D01*
X49967857Y-152739285D01*
X50432142Y-152739285D01*
X51110714Y-151989285D02*
X50753571Y-151989285D01*
X50717857Y-152346428D01*
X50753571Y-152310714D01*
X50825000Y-152275000D01*
X51003571Y-152275000D01*
X51075000Y-152310714D01*
X51110714Y-152346428D01*
X51146428Y-152417857D01*
X51146428Y-152596428D01*
X51110714Y-152667857D01*
X51075000Y-152703571D01*
X51003571Y-152739285D01*
X50825000Y-152739285D01*
X50753571Y-152703571D01*
X50717857Y-152667857D01*
%TO.C,C26*%
X28157142Y-177692857D02*
X28204761Y-177740476D01*
X28252380Y-177883333D01*
X28252380Y-177978571D01*
X28204761Y-178121428D01*
X28109523Y-178216666D01*
X28014285Y-178264285D01*
X27823809Y-178311904D01*
X27680952Y-178311904D01*
X27490476Y-178264285D01*
X27395238Y-178216666D01*
X27300000Y-178121428D01*
X27252380Y-177978571D01*
X27252380Y-177883333D01*
X27300000Y-177740476D01*
X27347619Y-177692857D01*
X27347619Y-177311904D02*
X27300000Y-177264285D01*
X27252380Y-177169047D01*
X27252380Y-176930952D01*
X27300000Y-176835714D01*
X27347619Y-176788095D01*
X27442857Y-176740476D01*
X27538095Y-176740476D01*
X27680952Y-176788095D01*
X28252380Y-177359523D01*
X28252380Y-176740476D01*
X27252380Y-175883333D02*
X27252380Y-176073809D01*
X27300000Y-176169047D01*
X27347619Y-176216666D01*
X27490476Y-176311904D01*
X27680952Y-176359523D01*
X28061904Y-176359523D01*
X28157142Y-176311904D01*
X28204761Y-176264285D01*
X28252380Y-176169047D01*
X28252380Y-175978571D01*
X28204761Y-175883333D01*
X28157142Y-175835714D01*
X28061904Y-175788095D01*
X27823809Y-175788095D01*
X27728571Y-175835714D01*
X27680952Y-175883333D01*
X27633333Y-175978571D01*
X27633333Y-176169047D01*
X27680952Y-176264285D01*
X27728571Y-176311904D01*
X27823809Y-176359523D01*
%TO.C,C28*%
X55567857Y-165882142D02*
X55603571Y-165917857D01*
X55639285Y-166025000D01*
X55639285Y-166096428D01*
X55603571Y-166203571D01*
X55532142Y-166275000D01*
X55460714Y-166310714D01*
X55317857Y-166346428D01*
X55210714Y-166346428D01*
X55067857Y-166310714D01*
X54996428Y-166275000D01*
X54925000Y-166203571D01*
X54889285Y-166096428D01*
X54889285Y-166025000D01*
X54925000Y-165917857D01*
X54960714Y-165882142D01*
X54960714Y-165596428D02*
X54925000Y-165560714D01*
X54889285Y-165489285D01*
X54889285Y-165310714D01*
X54925000Y-165239285D01*
X54960714Y-165203571D01*
X55032142Y-165167857D01*
X55103571Y-165167857D01*
X55210714Y-165203571D01*
X55639285Y-165632142D01*
X55639285Y-165167857D01*
X55210714Y-164739285D02*
X55175000Y-164810714D01*
X55139285Y-164846428D01*
X55067857Y-164882142D01*
X55032142Y-164882142D01*
X54960714Y-164846428D01*
X54925000Y-164810714D01*
X54889285Y-164739285D01*
X54889285Y-164596428D01*
X54925000Y-164525000D01*
X54960714Y-164489285D01*
X55032142Y-164453571D01*
X55067857Y-164453571D01*
X55139285Y-164489285D01*
X55175000Y-164525000D01*
X55210714Y-164596428D01*
X55210714Y-164739285D01*
X55246428Y-164810714D01*
X55282142Y-164846428D01*
X55353571Y-164882142D01*
X55496428Y-164882142D01*
X55567857Y-164846428D01*
X55603571Y-164810714D01*
X55639285Y-164739285D01*
X55639285Y-164596428D01*
X55603571Y-164525000D01*
X55567857Y-164489285D01*
X55496428Y-164453571D01*
X55353571Y-164453571D01*
X55282142Y-164489285D01*
X55246428Y-164525000D01*
X55210714Y-164596428D01*
%TO.C,D1*%
X50536904Y-190742380D02*
X50536904Y-189742380D01*
X50775000Y-189742380D01*
X50917857Y-189790000D01*
X51013095Y-189885238D01*
X51060714Y-189980476D01*
X51108333Y-190170952D01*
X51108333Y-190313809D01*
X51060714Y-190504285D01*
X51013095Y-190599523D01*
X50917857Y-190694761D01*
X50775000Y-190742380D01*
X50536904Y-190742380D01*
X52060714Y-190742380D02*
X51489285Y-190742380D01*
X51775000Y-190742380D02*
X51775000Y-189742380D01*
X51679761Y-189885238D01*
X51584523Y-189980476D01*
X51489285Y-190028095D01*
%TO.C,POWER*%
X44567857Y-168639285D02*
X44567857Y-167889285D01*
X44853571Y-167889285D01*
X44925000Y-167925000D01*
X44960714Y-167960714D01*
X44996428Y-168032142D01*
X44996428Y-168139285D01*
X44960714Y-168210714D01*
X44925000Y-168246428D01*
X44853571Y-168282142D01*
X44567857Y-168282142D01*
X45460714Y-167889285D02*
X45603571Y-167889285D01*
X45675000Y-167925000D01*
X45746428Y-167996428D01*
X45782142Y-168139285D01*
X45782142Y-168389285D01*
X45746428Y-168532142D01*
X45675000Y-168603571D01*
X45603571Y-168639285D01*
X45460714Y-168639285D01*
X45389285Y-168603571D01*
X45317857Y-168532142D01*
X45282142Y-168389285D01*
X45282142Y-168139285D01*
X45317857Y-167996428D01*
X45389285Y-167925000D01*
X45460714Y-167889285D01*
X46032142Y-167889285D02*
X46210714Y-168639285D01*
X46353571Y-168103571D01*
X46496428Y-168639285D01*
X46675000Y-167889285D01*
X46960714Y-168246428D02*
X47210714Y-168246428D01*
X47317857Y-168639285D02*
X46960714Y-168639285D01*
X46960714Y-167889285D01*
X47317857Y-167889285D01*
X48067857Y-168639285D02*
X47817857Y-168282142D01*
X47639285Y-168639285D02*
X47639285Y-167889285D01*
X47925000Y-167889285D01*
X47996428Y-167925000D01*
X48032142Y-167960714D01*
X48067857Y-168032142D01*
X48067857Y-168139285D01*
X48032142Y-168210714D01*
X47996428Y-168246428D01*
X47925000Y-168282142D01*
X47639285Y-168282142D01*
%TO.C,ON BOARD LED*%
X29577043Y-135423660D02*
X29767520Y-135423660D01*
X29862758Y-135471280D01*
X29957996Y-135566518D01*
X30005615Y-135756994D01*
X30005615Y-136090327D01*
X29957996Y-136280803D01*
X29862758Y-136376041D01*
X29767520Y-136423660D01*
X29577043Y-136423660D01*
X29481805Y-136376041D01*
X29386567Y-136280803D01*
X29338948Y-136090327D01*
X29338948Y-135756994D01*
X29386567Y-135566518D01*
X29481805Y-135471280D01*
X29577043Y-135423660D01*
X30434186Y-136423660D02*
X30434186Y-135423660D01*
X31005615Y-136423660D01*
X31005615Y-135423660D01*
X32577043Y-135899851D02*
X32719900Y-135947470D01*
X32767520Y-135995089D01*
X32815139Y-136090327D01*
X32815139Y-136233184D01*
X32767520Y-136328422D01*
X32719900Y-136376041D01*
X32624662Y-136423660D01*
X32243710Y-136423660D01*
X32243710Y-135423660D01*
X32577043Y-135423660D01*
X32672281Y-135471280D01*
X32719900Y-135518899D01*
X32767520Y-135614137D01*
X32767520Y-135709375D01*
X32719900Y-135804613D01*
X32672281Y-135852232D01*
X32577043Y-135899851D01*
X32243710Y-135899851D01*
X33434186Y-135423660D02*
X33624662Y-135423660D01*
X33719900Y-135471280D01*
X33815139Y-135566518D01*
X33862758Y-135756994D01*
X33862758Y-136090327D01*
X33815139Y-136280803D01*
X33719900Y-136376041D01*
X33624662Y-136423660D01*
X33434186Y-136423660D01*
X33338948Y-136376041D01*
X33243710Y-136280803D01*
X33196091Y-136090327D01*
X33196091Y-135756994D01*
X33243710Y-135566518D01*
X33338948Y-135471280D01*
X33434186Y-135423660D01*
X34243710Y-136137946D02*
X34719900Y-136137946D01*
X34148472Y-136423660D02*
X34481805Y-135423660D01*
X34815139Y-136423660D01*
X35719900Y-136423660D02*
X35386567Y-135947470D01*
X35148472Y-136423660D02*
X35148472Y-135423660D01*
X35529424Y-135423660D01*
X35624662Y-135471280D01*
X35672281Y-135518899D01*
X35719900Y-135614137D01*
X35719900Y-135756994D01*
X35672281Y-135852232D01*
X35624662Y-135899851D01*
X35529424Y-135947470D01*
X35148472Y-135947470D01*
X36148472Y-136423660D02*
X36148472Y-135423660D01*
X36386567Y-135423660D01*
X36529424Y-135471280D01*
X36624662Y-135566518D01*
X36672281Y-135661756D01*
X36719900Y-135852232D01*
X36719900Y-135995089D01*
X36672281Y-136185565D01*
X36624662Y-136280803D01*
X36529424Y-136376041D01*
X36386567Y-136423660D01*
X36148472Y-136423660D01*
X38386567Y-136423660D02*
X37910377Y-136423660D01*
X37910377Y-135423660D01*
X38719900Y-135899851D02*
X39053234Y-135899851D01*
X39196091Y-136423660D02*
X38719900Y-136423660D01*
X38719900Y-135423660D01*
X39196091Y-135423660D01*
X39624662Y-136423660D02*
X39624662Y-135423660D01*
X39862758Y-135423660D01*
X40005615Y-135471280D01*
X40100853Y-135566518D01*
X40148472Y-135661756D01*
X40196091Y-135852232D01*
X40196091Y-135995089D01*
X40148472Y-136185565D01*
X40100853Y-136280803D01*
X40005615Y-136376041D01*
X39862758Y-136423660D01*
X39624662Y-136423660D01*
%TO.C,D6*%
X30527380Y-174963095D02*
X29527380Y-174963095D01*
X29527380Y-174725000D01*
X29575000Y-174582142D01*
X29670238Y-174486904D01*
X29765476Y-174439285D01*
X29955952Y-174391666D01*
X30098809Y-174391666D01*
X30289285Y-174439285D01*
X30384523Y-174486904D01*
X30479761Y-174582142D01*
X30527380Y-174725000D01*
X30527380Y-174963095D01*
X29527380Y-173534523D02*
X29527380Y-173725000D01*
X29575000Y-173820238D01*
X29622619Y-173867857D01*
X29765476Y-173963095D01*
X29955952Y-174010714D01*
X30336904Y-174010714D01*
X30432142Y-173963095D01*
X30479761Y-173915476D01*
X30527380Y-173820238D01*
X30527380Y-173629761D01*
X30479761Y-173534523D01*
X30432142Y-173486904D01*
X30336904Y-173439285D01*
X30098809Y-173439285D01*
X30003571Y-173486904D01*
X29955952Y-173534523D01*
X29908333Y-173629761D01*
X29908333Y-173820238D01*
X29955952Y-173915476D01*
X30003571Y-173963095D01*
X30098809Y-174010714D01*
%TO.C,D7*%
X27779285Y-197133571D02*
X27029285Y-197133571D01*
X27029285Y-196955000D01*
X27065000Y-196847857D01*
X27136428Y-196776428D01*
X27207857Y-196740714D01*
X27350714Y-196705000D01*
X27457857Y-196705000D01*
X27600714Y-196740714D01*
X27672142Y-196776428D01*
X27743571Y-196847857D01*
X27779285Y-196955000D01*
X27779285Y-197133571D01*
X27029285Y-196455000D02*
X27029285Y-195955000D01*
X27779285Y-196276428D01*
%TO.C,D8*%
X36616428Y-193869285D02*
X36616428Y-193119285D01*
X36795000Y-193119285D01*
X36902142Y-193155000D01*
X36973571Y-193226428D01*
X37009285Y-193297857D01*
X37045000Y-193440714D01*
X37045000Y-193547857D01*
X37009285Y-193690714D01*
X36973571Y-193762142D01*
X36902142Y-193833571D01*
X36795000Y-193869285D01*
X36616428Y-193869285D01*
X37473571Y-193440714D02*
X37402142Y-193405000D01*
X37366428Y-193369285D01*
X37330714Y-193297857D01*
X37330714Y-193262142D01*
X37366428Y-193190714D01*
X37402142Y-193155000D01*
X37473571Y-193119285D01*
X37616428Y-193119285D01*
X37687857Y-193155000D01*
X37723571Y-193190714D01*
X37759285Y-193262142D01*
X37759285Y-193297857D01*
X37723571Y-193369285D01*
X37687857Y-193405000D01*
X37616428Y-193440714D01*
X37473571Y-193440714D01*
X37402142Y-193476428D01*
X37366428Y-193512142D01*
X37330714Y-193583571D01*
X37330714Y-193726428D01*
X37366428Y-193797857D01*
X37402142Y-193833571D01*
X37473571Y-193869285D01*
X37616428Y-193869285D01*
X37687857Y-193833571D01*
X37723571Y-193797857D01*
X37759285Y-193726428D01*
X37759285Y-193583571D01*
X37723571Y-193512142D01*
X37687857Y-193476428D01*
X37616428Y-193440714D01*
%TO.C,J1*%
X54066666Y-191432380D02*
X54066666Y-192146666D01*
X54019047Y-192289523D01*
X53923809Y-192384761D01*
X53780952Y-192432380D01*
X53685714Y-192432380D01*
X55066666Y-192432380D02*
X54495238Y-192432380D01*
X54780952Y-192432380D02*
X54780952Y-191432380D01*
X54685714Y-191575238D01*
X54590476Y-191670476D01*
X54495238Y-191718095D01*
%TO.C,J2*%
X15942380Y-188723333D02*
X16656666Y-188723333D01*
X16799523Y-188770952D01*
X16894761Y-188866190D01*
X16942380Y-189009047D01*
X16942380Y-189104285D01*
X16037619Y-188294761D02*
X15990000Y-188247142D01*
X15942380Y-188151904D01*
X15942380Y-187913809D01*
X15990000Y-187818571D01*
X16037619Y-187770952D01*
X16132857Y-187723333D01*
X16228095Y-187723333D01*
X16370952Y-187770952D01*
X16942380Y-188342380D01*
X16942380Y-187723333D01*
%TO.C,J3*%
X29666666Y-185752380D02*
X29666666Y-186466666D01*
X29619047Y-186609523D01*
X29523809Y-186704761D01*
X29380952Y-186752380D01*
X29285714Y-186752380D01*
X30047619Y-185752380D02*
X30666666Y-185752380D01*
X30333333Y-186133333D01*
X30476190Y-186133333D01*
X30571428Y-186180952D01*
X30619047Y-186228571D01*
X30666666Y-186323809D01*
X30666666Y-186561904D01*
X30619047Y-186657142D01*
X30571428Y-186704761D01*
X30476190Y-186752380D01*
X30190476Y-186752380D01*
X30095238Y-186704761D01*
X30047619Y-186657142D01*
%TO.C,J4*%
X59187626Y-162571740D02*
X59187626Y-163286026D01*
X59140007Y-163428883D01*
X59044769Y-163524121D01*
X58901912Y-163571740D01*
X58806674Y-163571740D01*
X60092388Y-162905074D02*
X60092388Y-163571740D01*
X59854293Y-162524121D02*
X59616198Y-163238407D01*
X60235245Y-163238407D01*
%TO.C,J5*%
X31286666Y-191582380D02*
X31286666Y-192296666D01*
X31239047Y-192439523D01*
X31143809Y-192534761D01*
X31000952Y-192582380D01*
X30905714Y-192582380D01*
X32239047Y-191582380D02*
X31762857Y-191582380D01*
X31715238Y-192058571D01*
X31762857Y-192010952D01*
X31858095Y-191963333D01*
X32096190Y-191963333D01*
X32191428Y-192010952D01*
X32239047Y-192058571D01*
X32286666Y-192153809D01*
X32286666Y-192391904D01*
X32239047Y-192487142D01*
X32191428Y-192534761D01*
X32096190Y-192582380D01*
X31858095Y-192582380D01*
X31762857Y-192534761D01*
X31715238Y-192487142D01*
%TO.C,J6*%
X41176666Y-165532380D02*
X41176666Y-166246666D01*
X41129047Y-166389523D01*
X41033809Y-166484761D01*
X40890952Y-166532380D01*
X40795714Y-166532380D01*
X42081428Y-165532380D02*
X41890952Y-165532380D01*
X41795714Y-165580000D01*
X41748095Y-165627619D01*
X41652857Y-165770476D01*
X41605238Y-165960952D01*
X41605238Y-166341904D01*
X41652857Y-166437142D01*
X41700476Y-166484761D01*
X41795714Y-166532380D01*
X41986190Y-166532380D01*
X42081428Y-166484761D01*
X42129047Y-166437142D01*
X42176666Y-166341904D01*
X42176666Y-166103809D01*
X42129047Y-166008571D01*
X42081428Y-165960952D01*
X41986190Y-165913333D01*
X41795714Y-165913333D01*
X41700476Y-165960952D01*
X41652857Y-166008571D01*
X41605238Y-166103809D01*
%TO.C,J7*%
X16126666Y-143942380D02*
X16126666Y-144656666D01*
X16079047Y-144799523D01*
X15983809Y-144894761D01*
X15840952Y-144942380D01*
X15745714Y-144942380D01*
X16507619Y-143942380D02*
X17174285Y-143942380D01*
X16745714Y-144942380D01*
%TO.C,J8*%
X64202380Y-173433333D02*
X64916666Y-173433333D01*
X65059523Y-173480952D01*
X65154761Y-173576190D01*
X65202380Y-173719047D01*
X65202380Y-173814285D01*
X64630952Y-172814285D02*
X64583333Y-172909523D01*
X64535714Y-172957142D01*
X64440476Y-173004761D01*
X64392857Y-173004761D01*
X64297619Y-172957142D01*
X64250000Y-172909523D01*
X64202380Y-172814285D01*
X64202380Y-172623809D01*
X64250000Y-172528571D01*
X64297619Y-172480952D01*
X64392857Y-172433333D01*
X64440476Y-172433333D01*
X64535714Y-172480952D01*
X64583333Y-172528571D01*
X64630952Y-172623809D01*
X64630952Y-172814285D01*
X64678571Y-172909523D01*
X64726190Y-172957142D01*
X64821428Y-173004761D01*
X65011904Y-173004761D01*
X65107142Y-172957142D01*
X65154761Y-172909523D01*
X65202380Y-172814285D01*
X65202380Y-172623809D01*
X65154761Y-172528571D01*
X65107142Y-172480952D01*
X65011904Y-172433333D01*
X64821428Y-172433333D01*
X64726190Y-172480952D01*
X64678571Y-172528571D01*
X64630952Y-172623809D01*
%TO.C,J9*%
X24146666Y-132112380D02*
X24146666Y-132826666D01*
X24099047Y-132969523D01*
X24003809Y-133064761D01*
X23860952Y-133112380D01*
X23765714Y-133112380D01*
X24670476Y-133112380D02*
X24860952Y-133112380D01*
X24956190Y-133064761D01*
X25003809Y-133017142D01*
X25099047Y-132874285D01*
X25146666Y-132683809D01*
X25146666Y-132302857D01*
X25099047Y-132207619D01*
X25051428Y-132160000D01*
X24956190Y-132112380D01*
X24765714Y-132112380D01*
X24670476Y-132160000D01*
X24622857Y-132207619D01*
X24575238Y-132302857D01*
X24575238Y-132540952D01*
X24622857Y-132636190D01*
X24670476Y-132683809D01*
X24765714Y-132731428D01*
X24956190Y-132731428D01*
X25051428Y-132683809D01*
X25099047Y-132636190D01*
X25146666Y-132540952D01*
%TO.C,J10*%
X20152380Y-134599523D02*
X20866666Y-134599523D01*
X21009523Y-134647142D01*
X21104761Y-134742380D01*
X21152380Y-134885238D01*
X21152380Y-134980476D01*
X21152380Y-133599523D02*
X21152380Y-134170952D01*
X21152380Y-133885238D02*
X20152380Y-133885238D01*
X20295238Y-133980476D01*
X20390476Y-134075714D01*
X20438095Y-134170952D01*
X20152380Y-132980476D02*
X20152380Y-132885238D01*
X20200000Y-132790000D01*
X20247619Y-132742380D01*
X20342857Y-132694761D01*
X20533333Y-132647142D01*
X20771428Y-132647142D01*
X20961904Y-132694761D01*
X21057142Y-132742380D01*
X21104761Y-132790000D01*
X21152380Y-132885238D01*
X21152380Y-132980476D01*
X21104761Y-133075714D01*
X21057142Y-133123333D01*
X20961904Y-133170952D01*
X20771428Y-133218571D01*
X20533333Y-133218571D01*
X20342857Y-133170952D01*
X20247619Y-133123333D01*
X20200000Y-133075714D01*
X20152380Y-132980476D01*
%TO.C,J11*%
X19952380Y-141639523D02*
X20666666Y-141639523D01*
X20809523Y-141687142D01*
X20904761Y-141782380D01*
X20952380Y-141925238D01*
X20952380Y-142020476D01*
X20952380Y-140639523D02*
X20952380Y-141210952D01*
X20952380Y-140925238D02*
X19952380Y-140925238D01*
X20095238Y-141020476D01*
X20190476Y-141115714D01*
X20238095Y-141210952D01*
X20952380Y-139687142D02*
X20952380Y-140258571D01*
X20952380Y-139972857D02*
X19952380Y-139972857D01*
X20095238Y-140068095D01*
X20190476Y-140163333D01*
X20238095Y-140258571D01*
%TO.C,L1*%
X28175000Y-169139285D02*
X27817857Y-169139285D01*
X27817857Y-168389285D01*
X28817857Y-169139285D02*
X28389285Y-169139285D01*
X28603571Y-169139285D02*
X28603571Y-168389285D01*
X28532142Y-168496428D01*
X28460714Y-168567857D01*
X28389285Y-168603571D01*
%TO.C,R1*%
X22058200Y-158076285D02*
X21808200Y-157719142D01*
X21629628Y-158076285D02*
X21629628Y-157326285D01*
X21915342Y-157326285D01*
X21986771Y-157362000D01*
X22022485Y-157397714D01*
X22058200Y-157469142D01*
X22058200Y-157576285D01*
X22022485Y-157647714D01*
X21986771Y-157683428D01*
X21915342Y-157719142D01*
X21629628Y-157719142D01*
X22772485Y-158076285D02*
X22343914Y-158076285D01*
X22558200Y-158076285D02*
X22558200Y-157326285D01*
X22486771Y-157433428D01*
X22415342Y-157504857D01*
X22343914Y-157540571D01*
%TO.C,R2*%
X46575000Y-164339285D02*
X46325000Y-163982142D01*
X46146428Y-164339285D02*
X46146428Y-163589285D01*
X46432142Y-163589285D01*
X46503571Y-163625000D01*
X46539285Y-163660714D01*
X46575000Y-163732142D01*
X46575000Y-163839285D01*
X46539285Y-163910714D01*
X46503571Y-163946428D01*
X46432142Y-163982142D01*
X46146428Y-163982142D01*
X46860714Y-163660714D02*
X46896428Y-163625000D01*
X46967857Y-163589285D01*
X47146428Y-163589285D01*
X47217857Y-163625000D01*
X47253571Y-163660714D01*
X47289285Y-163732142D01*
X47289285Y-163803571D01*
X47253571Y-163910714D01*
X46825000Y-164339285D01*
X47289285Y-164339285D01*
%TO.C,R3*%
X25894245Y-167155400D02*
X25537102Y-167405400D01*
X25894245Y-167583971D02*
X25144245Y-167583971D01*
X25144245Y-167298257D01*
X25179960Y-167226828D01*
X25215674Y-167191114D01*
X25287102Y-167155400D01*
X25394245Y-167155400D01*
X25465674Y-167191114D01*
X25501388Y-167226828D01*
X25537102Y-167298257D01*
X25537102Y-167583971D01*
X25144245Y-166905400D02*
X25144245Y-166441114D01*
X25429960Y-166691114D01*
X25429960Y-166583971D01*
X25465674Y-166512542D01*
X25501388Y-166476828D01*
X25572817Y-166441114D01*
X25751388Y-166441114D01*
X25822817Y-166476828D01*
X25858531Y-166512542D01*
X25894245Y-166583971D01*
X25894245Y-166798257D01*
X25858531Y-166869685D01*
X25822817Y-166905400D01*
%TO.C,R4*%
X42895833Y-173362380D02*
X42562500Y-172886190D01*
X42324404Y-173362380D02*
X42324404Y-172362380D01*
X42705357Y-172362380D01*
X42800595Y-172410000D01*
X42848214Y-172457619D01*
X42895833Y-172552857D01*
X42895833Y-172695714D01*
X42848214Y-172790952D01*
X42800595Y-172838571D01*
X42705357Y-172886190D01*
X42324404Y-172886190D01*
X43752976Y-172695714D02*
X43752976Y-173362380D01*
X43514880Y-172314761D02*
X43276785Y-173029047D01*
X43895833Y-173029047D01*
%TO.C,R5*%
X30674013Y-139469100D02*
X30340680Y-138992910D01*
X30102584Y-139469100D02*
X30102584Y-138469100D01*
X30483537Y-138469100D01*
X30578775Y-138516720D01*
X30626394Y-138564339D01*
X30674013Y-138659577D01*
X30674013Y-138802434D01*
X30626394Y-138897672D01*
X30578775Y-138945291D01*
X30483537Y-138992910D01*
X30102584Y-138992910D01*
X31578775Y-138469100D02*
X31102584Y-138469100D01*
X31054965Y-138945291D01*
X31102584Y-138897672D01*
X31197822Y-138850053D01*
X31435918Y-138850053D01*
X31531156Y-138897672D01*
X31578775Y-138945291D01*
X31626394Y-139040529D01*
X31626394Y-139278624D01*
X31578775Y-139373862D01*
X31531156Y-139421481D01*
X31435918Y-139469100D01*
X31197822Y-139469100D01*
X31102584Y-139421481D01*
X31054965Y-139373862D01*
%TO.C,R6*%
X20175000Y-174939285D02*
X19925000Y-174582142D01*
X19746428Y-174939285D02*
X19746428Y-174189285D01*
X20032142Y-174189285D01*
X20103571Y-174225000D01*
X20139285Y-174260714D01*
X20175000Y-174332142D01*
X20175000Y-174439285D01*
X20139285Y-174510714D01*
X20103571Y-174546428D01*
X20032142Y-174582142D01*
X19746428Y-174582142D01*
X20817857Y-174189285D02*
X20675000Y-174189285D01*
X20603571Y-174225000D01*
X20567857Y-174260714D01*
X20496428Y-174367857D01*
X20460714Y-174510714D01*
X20460714Y-174796428D01*
X20496428Y-174867857D01*
X20532142Y-174903571D01*
X20603571Y-174939285D01*
X20746428Y-174939285D01*
X20817857Y-174903571D01*
X20853571Y-174867857D01*
X20889285Y-174796428D01*
X20889285Y-174617857D01*
X20853571Y-174546428D01*
X20817857Y-174510714D01*
X20746428Y-174475000D01*
X20603571Y-174475000D01*
X20532142Y-174510714D01*
X20496428Y-174546428D01*
X20460714Y-174617857D01*
%TO.C,R7*%
X20075000Y-176629285D02*
X19825000Y-176272142D01*
X19646428Y-176629285D02*
X19646428Y-175879285D01*
X19932142Y-175879285D01*
X20003571Y-175915000D01*
X20039285Y-175950714D01*
X20075000Y-176022142D01*
X20075000Y-176129285D01*
X20039285Y-176200714D01*
X20003571Y-176236428D01*
X19932142Y-176272142D01*
X19646428Y-176272142D01*
X20325000Y-175879285D02*
X20825000Y-175879285D01*
X20503571Y-176629285D01*
%TO.C,R8*%
X45992380Y-158519166D02*
X45516190Y-158852500D01*
X45992380Y-159090595D02*
X44992380Y-159090595D01*
X44992380Y-158709642D01*
X45040000Y-158614404D01*
X45087619Y-158566785D01*
X45182857Y-158519166D01*
X45325714Y-158519166D01*
X45420952Y-158566785D01*
X45468571Y-158614404D01*
X45516190Y-158709642D01*
X45516190Y-159090595D01*
X45420952Y-157947738D02*
X45373333Y-158042976D01*
X45325714Y-158090595D01*
X45230476Y-158138214D01*
X45182857Y-158138214D01*
X45087619Y-158090595D01*
X45040000Y-158042976D01*
X44992380Y-157947738D01*
X44992380Y-157757261D01*
X45040000Y-157662023D01*
X45087619Y-157614404D01*
X45182857Y-157566785D01*
X45230476Y-157566785D01*
X45325714Y-157614404D01*
X45373333Y-157662023D01*
X45420952Y-157757261D01*
X45420952Y-157947738D01*
X45468571Y-158042976D01*
X45516190Y-158090595D01*
X45611428Y-158138214D01*
X45801904Y-158138214D01*
X45897142Y-158090595D01*
X45944761Y-158042976D01*
X45992380Y-157947738D01*
X45992380Y-157757261D01*
X45944761Y-157662023D01*
X45897142Y-157614404D01*
X45801904Y-157566785D01*
X45611428Y-157566785D01*
X45516190Y-157614404D01*
X45468571Y-157662023D01*
X45420952Y-157757261D01*
%TO.C,R9*%
X32225000Y-179179285D02*
X31975000Y-178822142D01*
X31796428Y-179179285D02*
X31796428Y-178429285D01*
X32082142Y-178429285D01*
X32153571Y-178465000D01*
X32189285Y-178500714D01*
X32225000Y-178572142D01*
X32225000Y-178679285D01*
X32189285Y-178750714D01*
X32153571Y-178786428D01*
X32082142Y-178822142D01*
X31796428Y-178822142D01*
X32582142Y-179179285D02*
X32725000Y-179179285D01*
X32796428Y-179143571D01*
X32832142Y-179107857D01*
X32903571Y-179000714D01*
X32939285Y-178857857D01*
X32939285Y-178572142D01*
X32903571Y-178500714D01*
X32867857Y-178465000D01*
X32796428Y-178429285D01*
X32653571Y-178429285D01*
X32582142Y-178465000D01*
X32546428Y-178500714D01*
X32510714Y-178572142D01*
X32510714Y-178750714D01*
X32546428Y-178822142D01*
X32582142Y-178857857D01*
X32653571Y-178893571D01*
X32796428Y-178893571D01*
X32867857Y-178857857D01*
X32903571Y-178822142D01*
X32939285Y-178750714D01*
%TO.C,R10*%
X46039285Y-150882142D02*
X45682142Y-151132142D01*
X46039285Y-151310714D02*
X45289285Y-151310714D01*
X45289285Y-151025000D01*
X45325000Y-150953571D01*
X45360714Y-150917857D01*
X45432142Y-150882142D01*
X45539285Y-150882142D01*
X45610714Y-150917857D01*
X45646428Y-150953571D01*
X45682142Y-151025000D01*
X45682142Y-151310714D01*
X46039285Y-150167857D02*
X46039285Y-150596428D01*
X46039285Y-150382142D02*
X45289285Y-150382142D01*
X45396428Y-150453571D01*
X45467857Y-150525000D01*
X45503571Y-150596428D01*
X45289285Y-149703571D02*
X45289285Y-149632142D01*
X45325000Y-149560714D01*
X45360714Y-149525000D01*
X45432142Y-149489285D01*
X45575000Y-149453571D01*
X45753571Y-149453571D01*
X45896428Y-149489285D01*
X45967857Y-149525000D01*
X46003571Y-149560714D01*
X46039285Y-149632142D01*
X46039285Y-149703571D01*
X46003571Y-149775000D01*
X45967857Y-149810714D01*
X45896428Y-149846428D01*
X45753571Y-149882142D01*
X45575000Y-149882142D01*
X45432142Y-149846428D01*
X45360714Y-149810714D01*
X45325000Y-149775000D01*
X45289285Y-149703571D01*
%TO.C,R11*%
X48017857Y-161939285D02*
X47767857Y-161582142D01*
X47589285Y-161939285D02*
X47589285Y-161189285D01*
X47875000Y-161189285D01*
X47946428Y-161225000D01*
X47982142Y-161260714D01*
X48017857Y-161332142D01*
X48017857Y-161439285D01*
X47982142Y-161510714D01*
X47946428Y-161546428D01*
X47875000Y-161582142D01*
X47589285Y-161582142D01*
X48732142Y-161939285D02*
X48303571Y-161939285D01*
X48517857Y-161939285D02*
X48517857Y-161189285D01*
X48446428Y-161296428D01*
X48375000Y-161367857D01*
X48303571Y-161403571D01*
X49446428Y-161939285D02*
X49017857Y-161939285D01*
X49232142Y-161939285D02*
X49232142Y-161189285D01*
X49160714Y-161296428D01*
X49089285Y-161367857D01*
X49017857Y-161403571D01*
%TO.C,R12*%
X49717857Y-150039285D02*
X49467857Y-149682142D01*
X49289285Y-150039285D02*
X49289285Y-149289285D01*
X49575000Y-149289285D01*
X49646428Y-149325000D01*
X49682142Y-149360714D01*
X49717857Y-149432142D01*
X49717857Y-149539285D01*
X49682142Y-149610714D01*
X49646428Y-149646428D01*
X49575000Y-149682142D01*
X49289285Y-149682142D01*
X50432142Y-150039285D02*
X50003571Y-150039285D01*
X50217857Y-150039285D02*
X50217857Y-149289285D01*
X50146428Y-149396428D01*
X50075000Y-149467857D01*
X50003571Y-149503571D01*
X50717857Y-149360714D02*
X50753571Y-149325000D01*
X50825000Y-149289285D01*
X51003571Y-149289285D01*
X51075000Y-149325000D01*
X51110714Y-149360714D01*
X51146428Y-149432142D01*
X51146428Y-149503571D01*
X51110714Y-149610714D01*
X50682142Y-150039285D01*
X51146428Y-150039285D01*
%TO.C,R13*%
X49017857Y-157739285D02*
X48767857Y-157382142D01*
X48589285Y-157739285D02*
X48589285Y-156989285D01*
X48875000Y-156989285D01*
X48946428Y-157025000D01*
X48982142Y-157060714D01*
X49017857Y-157132142D01*
X49017857Y-157239285D01*
X48982142Y-157310714D01*
X48946428Y-157346428D01*
X48875000Y-157382142D01*
X48589285Y-157382142D01*
X49732142Y-157739285D02*
X49303571Y-157739285D01*
X49517857Y-157739285D02*
X49517857Y-156989285D01*
X49446428Y-157096428D01*
X49375000Y-157167857D01*
X49303571Y-157203571D01*
X49982142Y-156989285D02*
X50446428Y-156989285D01*
X50196428Y-157275000D01*
X50303571Y-157275000D01*
X50375000Y-157310714D01*
X50410714Y-157346428D01*
X50446428Y-157417857D01*
X50446428Y-157596428D01*
X50410714Y-157667857D01*
X50375000Y-157703571D01*
X50303571Y-157739285D01*
X50089285Y-157739285D01*
X50017857Y-157703571D01*
X49982142Y-157667857D01*
%TO.C,R14*%
X20227857Y-178119285D02*
X19977857Y-177762142D01*
X19799285Y-178119285D02*
X19799285Y-177369285D01*
X20085000Y-177369285D01*
X20156428Y-177405000D01*
X20192142Y-177440714D01*
X20227857Y-177512142D01*
X20227857Y-177619285D01*
X20192142Y-177690714D01*
X20156428Y-177726428D01*
X20085000Y-177762142D01*
X19799285Y-177762142D01*
X20942142Y-178119285D02*
X20513571Y-178119285D01*
X20727857Y-178119285D02*
X20727857Y-177369285D01*
X20656428Y-177476428D01*
X20585000Y-177547857D01*
X20513571Y-177583571D01*
X21585000Y-177619285D02*
X21585000Y-178119285D01*
X21406428Y-177333571D02*
X21227857Y-177869285D01*
X21692142Y-177869285D01*
%TO.C,R15*%
X29895357Y-183339285D02*
X29645357Y-182982142D01*
X29466785Y-183339285D02*
X29466785Y-182589285D01*
X29752500Y-182589285D01*
X29823928Y-182625000D01*
X29859642Y-182660714D01*
X29895357Y-182732142D01*
X29895357Y-182839285D01*
X29859642Y-182910714D01*
X29823928Y-182946428D01*
X29752500Y-182982142D01*
X29466785Y-182982142D01*
X30609642Y-183339285D02*
X30181071Y-183339285D01*
X30395357Y-183339285D02*
X30395357Y-182589285D01*
X30323928Y-182696428D01*
X30252500Y-182767857D01*
X30181071Y-182803571D01*
X31288214Y-182589285D02*
X30931071Y-182589285D01*
X30895357Y-182946428D01*
X30931071Y-182910714D01*
X31002500Y-182875000D01*
X31181071Y-182875000D01*
X31252500Y-182910714D01*
X31288214Y-182946428D01*
X31323928Y-183017857D01*
X31323928Y-183196428D01*
X31288214Y-183267857D01*
X31252500Y-183303571D01*
X31181071Y-183339285D01*
X31002500Y-183339285D01*
X30931071Y-183303571D01*
X30895357Y-183267857D01*
%TO.C,R16*%
X62017857Y-194239285D02*
X61767857Y-193882142D01*
X61589285Y-194239285D02*
X61589285Y-193489285D01*
X61875000Y-193489285D01*
X61946428Y-193525000D01*
X61982142Y-193560714D01*
X62017857Y-193632142D01*
X62017857Y-193739285D01*
X61982142Y-193810714D01*
X61946428Y-193846428D01*
X61875000Y-193882142D01*
X61589285Y-193882142D01*
X62732142Y-194239285D02*
X62303571Y-194239285D01*
X62517857Y-194239285D02*
X62517857Y-193489285D01*
X62446428Y-193596428D01*
X62375000Y-193667857D01*
X62303571Y-193703571D01*
X63375000Y-193489285D02*
X63232142Y-193489285D01*
X63160714Y-193525000D01*
X63125000Y-193560714D01*
X63053571Y-193667857D01*
X63017857Y-193810714D01*
X63017857Y-194096428D01*
X63053571Y-194167857D01*
X63089285Y-194203571D01*
X63160714Y-194239285D01*
X63303571Y-194239285D01*
X63375000Y-194203571D01*
X63410714Y-194167857D01*
X63446428Y-194096428D01*
X63446428Y-193917857D01*
X63410714Y-193846428D01*
X63375000Y-193810714D01*
X63303571Y-193775000D01*
X63160714Y-193775000D01*
X63089285Y-193810714D01*
X63053571Y-193846428D01*
X63017857Y-193917857D01*
%TO.C,R17*%
X59717857Y-195539285D02*
X59467857Y-195182142D01*
X59289285Y-195539285D02*
X59289285Y-194789285D01*
X59575000Y-194789285D01*
X59646428Y-194825000D01*
X59682142Y-194860714D01*
X59717857Y-194932142D01*
X59717857Y-195039285D01*
X59682142Y-195110714D01*
X59646428Y-195146428D01*
X59575000Y-195182142D01*
X59289285Y-195182142D01*
X60432142Y-195539285D02*
X60003571Y-195539285D01*
X60217857Y-195539285D02*
X60217857Y-194789285D01*
X60146428Y-194896428D01*
X60075000Y-194967857D01*
X60003571Y-195003571D01*
X60682142Y-194789285D02*
X61182142Y-194789285D01*
X60860714Y-195539285D01*
%TO.C,R19*%
X55839285Y-185482142D02*
X55482142Y-185732142D01*
X55839285Y-185910714D02*
X55089285Y-185910714D01*
X55089285Y-185625000D01*
X55125000Y-185553571D01*
X55160714Y-185517857D01*
X55232142Y-185482142D01*
X55339285Y-185482142D01*
X55410714Y-185517857D01*
X55446428Y-185553571D01*
X55482142Y-185625000D01*
X55482142Y-185910714D01*
X55839285Y-184767857D02*
X55839285Y-185196428D01*
X55839285Y-184982142D02*
X55089285Y-184982142D01*
X55196428Y-185053571D01*
X55267857Y-185125000D01*
X55303571Y-185196428D01*
X55839285Y-184410714D02*
X55839285Y-184267857D01*
X55803571Y-184196428D01*
X55767857Y-184160714D01*
X55660714Y-184089285D01*
X55517857Y-184053571D01*
X55232142Y-184053571D01*
X55160714Y-184089285D01*
X55125000Y-184125000D01*
X55089285Y-184196428D01*
X55089285Y-184339285D01*
X55125000Y-184410714D01*
X55160714Y-184446428D01*
X55232142Y-184482142D01*
X55410714Y-184482142D01*
X55482142Y-184446428D01*
X55517857Y-184410714D01*
X55553571Y-184339285D01*
X55553571Y-184196428D01*
X55517857Y-184125000D01*
X55482142Y-184089285D01*
X55410714Y-184053571D01*
%TO.C,R20*%
X43339285Y-175082142D02*
X42982142Y-175332142D01*
X43339285Y-175510714D02*
X42589285Y-175510714D01*
X42589285Y-175225000D01*
X42625000Y-175153571D01*
X42660714Y-175117857D01*
X42732142Y-175082142D01*
X42839285Y-175082142D01*
X42910714Y-175117857D01*
X42946428Y-175153571D01*
X42982142Y-175225000D01*
X42982142Y-175510714D01*
X42660714Y-174796428D02*
X42625000Y-174760714D01*
X42589285Y-174689285D01*
X42589285Y-174510714D01*
X42625000Y-174439285D01*
X42660714Y-174403571D01*
X42732142Y-174367857D01*
X42803571Y-174367857D01*
X42910714Y-174403571D01*
X43339285Y-174832142D01*
X43339285Y-174367857D01*
X42589285Y-173903571D02*
X42589285Y-173832142D01*
X42625000Y-173760714D01*
X42660714Y-173725000D01*
X42732142Y-173689285D01*
X42875000Y-173653571D01*
X43053571Y-173653571D01*
X43196428Y-173689285D01*
X43267857Y-173725000D01*
X43303571Y-173760714D01*
X43339285Y-173832142D01*
X43339285Y-173903571D01*
X43303571Y-173975000D01*
X43267857Y-174010714D01*
X43196428Y-174046428D01*
X43053571Y-174082142D01*
X42875000Y-174082142D01*
X42732142Y-174046428D01*
X42660714Y-174010714D01*
X42625000Y-173975000D01*
X42589285Y-173903571D01*
%TO.C,R21*%
X43319285Y-178592142D02*
X42962142Y-178842142D01*
X43319285Y-179020714D02*
X42569285Y-179020714D01*
X42569285Y-178735000D01*
X42605000Y-178663571D01*
X42640714Y-178627857D01*
X42712142Y-178592142D01*
X42819285Y-178592142D01*
X42890714Y-178627857D01*
X42926428Y-178663571D01*
X42962142Y-178735000D01*
X42962142Y-179020714D01*
X42640714Y-178306428D02*
X42605000Y-178270714D01*
X42569285Y-178199285D01*
X42569285Y-178020714D01*
X42605000Y-177949285D01*
X42640714Y-177913571D01*
X42712142Y-177877857D01*
X42783571Y-177877857D01*
X42890714Y-177913571D01*
X43319285Y-178342142D01*
X43319285Y-177877857D01*
X43319285Y-177163571D02*
X43319285Y-177592142D01*
X43319285Y-177377857D02*
X42569285Y-177377857D01*
X42676428Y-177449285D01*
X42747857Y-177520714D01*
X42783571Y-177592142D01*
%TO.C,R22*%
X49339285Y-181982142D02*
X48982142Y-182232142D01*
X49339285Y-182410714D02*
X48589285Y-182410714D01*
X48589285Y-182125000D01*
X48625000Y-182053571D01*
X48660714Y-182017857D01*
X48732142Y-181982142D01*
X48839285Y-181982142D01*
X48910714Y-182017857D01*
X48946428Y-182053571D01*
X48982142Y-182125000D01*
X48982142Y-182410714D01*
X48660714Y-181696428D02*
X48625000Y-181660714D01*
X48589285Y-181589285D01*
X48589285Y-181410714D01*
X48625000Y-181339285D01*
X48660714Y-181303571D01*
X48732142Y-181267857D01*
X48803571Y-181267857D01*
X48910714Y-181303571D01*
X49339285Y-181732142D01*
X49339285Y-181267857D01*
X48660714Y-180982142D02*
X48625000Y-180946428D01*
X48589285Y-180875000D01*
X48589285Y-180696428D01*
X48625000Y-180625000D01*
X48660714Y-180589285D01*
X48732142Y-180553571D01*
X48803571Y-180553571D01*
X48910714Y-180589285D01*
X49339285Y-181017857D01*
X49339285Y-180553571D01*
%TO.C,SW1*%
X51466666Y-169214761D02*
X51609523Y-169262380D01*
X51847619Y-169262380D01*
X51942857Y-169214761D01*
X51990476Y-169167142D01*
X52038095Y-169071904D01*
X52038095Y-168976666D01*
X51990476Y-168881428D01*
X51942857Y-168833809D01*
X51847619Y-168786190D01*
X51657142Y-168738571D01*
X51561904Y-168690952D01*
X51514285Y-168643333D01*
X51466666Y-168548095D01*
X51466666Y-168452857D01*
X51514285Y-168357619D01*
X51561904Y-168310000D01*
X51657142Y-168262380D01*
X51895238Y-168262380D01*
X52038095Y-168310000D01*
X52371428Y-168262380D02*
X52609523Y-169262380D01*
X52800000Y-168548095D01*
X52990476Y-169262380D01*
X53228571Y-168262380D01*
X54133333Y-169262380D02*
X53561904Y-169262380D01*
X53847619Y-169262380D02*
X53847619Y-168262380D01*
X53752380Y-168405238D01*
X53657142Y-168500476D01*
X53561904Y-168548095D01*
%TO.C,SW2*%
X21804761Y-168133333D02*
X21852380Y-167990476D01*
X21852380Y-167752380D01*
X21804761Y-167657142D01*
X21757142Y-167609523D01*
X21661904Y-167561904D01*
X21566666Y-167561904D01*
X21471428Y-167609523D01*
X21423809Y-167657142D01*
X21376190Y-167752380D01*
X21328571Y-167942857D01*
X21280952Y-168038095D01*
X21233333Y-168085714D01*
X21138095Y-168133333D01*
X21042857Y-168133333D01*
X20947619Y-168085714D01*
X20900000Y-168038095D01*
X20852380Y-167942857D01*
X20852380Y-167704761D01*
X20900000Y-167561904D01*
X20852380Y-167228571D02*
X21852380Y-166990476D01*
X21138095Y-166800000D01*
X21852380Y-166609523D01*
X20852380Y-166371428D01*
X20947619Y-166038095D02*
X20900000Y-165990476D01*
X20852380Y-165895238D01*
X20852380Y-165657142D01*
X20900000Y-165561904D01*
X20947619Y-165514285D01*
X21042857Y-165466666D01*
X21138095Y-165466666D01*
X21280952Y-165514285D01*
X21852380Y-166085714D01*
X21852380Y-165466666D01*
%TO.C,U2*%
X38038095Y-170652380D02*
X38038095Y-171461904D01*
X38085714Y-171557142D01*
X38133333Y-171604761D01*
X38228571Y-171652380D01*
X38419047Y-171652380D01*
X38514285Y-171604761D01*
X38561904Y-171557142D01*
X38609523Y-171461904D01*
X38609523Y-170652380D01*
X39038095Y-170747619D02*
X39085714Y-170700000D01*
X39180952Y-170652380D01*
X39419047Y-170652380D01*
X39514285Y-170700000D01*
X39561904Y-170747619D01*
X39609523Y-170842857D01*
X39609523Y-170938095D01*
X39561904Y-171080952D01*
X38990476Y-171652380D01*
X39609523Y-171652380D01*
%TO.C,U3*%
X25128571Y-179089285D02*
X25128571Y-179696428D01*
X25164285Y-179767857D01*
X25200000Y-179803571D01*
X25271428Y-179839285D01*
X25414285Y-179839285D01*
X25485714Y-179803571D01*
X25521428Y-179767857D01*
X25557142Y-179696428D01*
X25557142Y-179089285D01*
X25842857Y-179089285D02*
X26307142Y-179089285D01*
X26057142Y-179375000D01*
X26164285Y-179375000D01*
X26235714Y-179410714D01*
X26271428Y-179446428D01*
X26307142Y-179517857D01*
X26307142Y-179696428D01*
X26271428Y-179767857D01*
X26235714Y-179803571D01*
X26164285Y-179839285D01*
X25950000Y-179839285D01*
X25878571Y-179803571D01*
X25842857Y-179767857D01*
%TO.C,U5*%
X48638095Y-172952380D02*
X48638095Y-173761904D01*
X48685714Y-173857142D01*
X48733333Y-173904761D01*
X48828571Y-173952380D01*
X49019047Y-173952380D01*
X49114285Y-173904761D01*
X49161904Y-173857142D01*
X49209523Y-173761904D01*
X49209523Y-172952380D01*
X50161904Y-172952380D02*
X49685714Y-172952380D01*
X49638095Y-173428571D01*
X49685714Y-173380952D01*
X49780952Y-173333333D01*
X50019047Y-173333333D01*
X50114285Y-173380952D01*
X50161904Y-173428571D01*
X50209523Y-173523809D01*
X50209523Y-173761904D01*
X50161904Y-173857142D01*
X50114285Y-173904761D01*
X50019047Y-173952380D01*
X49780952Y-173952380D01*
X49685714Y-173904761D01*
X49638095Y-173857142D01*
%TO.C,Y1*%
X31723809Y-147876190D02*
X31723809Y-148352380D01*
X31390476Y-147352380D02*
X31723809Y-147876190D01*
X32057142Y-147352380D01*
X32914285Y-148352380D02*
X32342857Y-148352380D01*
X32628571Y-148352380D02*
X32628571Y-147352380D01*
X32533333Y-147495238D01*
X32438095Y-147590476D01*
X32342857Y-147638095D01*
%TO.C,AE1*%
X40126666Y-134196666D02*
X40126666Y-133720476D01*
X40412380Y-134291904D02*
X39412380Y-133958571D01*
X40412380Y-133625238D01*
X39888571Y-133291904D02*
X39888571Y-132958571D01*
X40412380Y-132815714D02*
X40412380Y-133291904D01*
X39412380Y-133291904D01*
X39412380Y-132815714D01*
X40412380Y-131863333D02*
X40412380Y-132434761D01*
X40412380Y-132149047D02*
X39412380Y-132149047D01*
X39555238Y-132244285D01*
X39650476Y-132339523D01*
X39698095Y-132434761D01*
%TO.C,C29*%
X39427857Y-167104642D02*
X39463571Y-167140357D01*
X39499285Y-167247500D01*
X39499285Y-167318928D01*
X39463571Y-167426071D01*
X39392142Y-167497500D01*
X39320714Y-167533214D01*
X39177857Y-167568928D01*
X39070714Y-167568928D01*
X38927857Y-167533214D01*
X38856428Y-167497500D01*
X38785000Y-167426071D01*
X38749285Y-167318928D01*
X38749285Y-167247500D01*
X38785000Y-167140357D01*
X38820714Y-167104642D01*
X38820714Y-166818928D02*
X38785000Y-166783214D01*
X38749285Y-166711785D01*
X38749285Y-166533214D01*
X38785000Y-166461785D01*
X38820714Y-166426071D01*
X38892142Y-166390357D01*
X38963571Y-166390357D01*
X39070714Y-166426071D01*
X39499285Y-166854642D01*
X39499285Y-166390357D01*
X39499285Y-166033214D02*
X39499285Y-165890357D01*
X39463571Y-165818928D01*
X39427857Y-165783214D01*
X39320714Y-165711785D01*
X39177857Y-165676071D01*
X38892142Y-165676071D01*
X38820714Y-165711785D01*
X38785000Y-165747500D01*
X38749285Y-165818928D01*
X38749285Y-165961785D01*
X38785000Y-166033214D01*
X38820714Y-166068928D01*
X38892142Y-166104642D01*
X39070714Y-166104642D01*
X39142142Y-166068928D01*
X39177857Y-166033214D01*
X39213571Y-165961785D01*
X39213571Y-165818928D01*
X39177857Y-165747500D01*
X39142142Y-165711785D01*
X39070714Y-165676071D01*
%TO.C,Y2*%
X31781809Y-141352590D02*
X31781809Y-141828780D01*
X31448476Y-140828780D02*
X31781809Y-141352590D01*
X32115142Y-140828780D01*
X32400857Y-140924019D02*
X32448476Y-140876400D01*
X32543714Y-140828780D01*
X32781809Y-140828780D01*
X32877047Y-140876400D01*
X32924666Y-140924019D01*
X32972285Y-141019257D01*
X32972285Y-141114495D01*
X32924666Y-141257352D01*
X32353238Y-141828780D01*
X32972285Y-141828780D01*
%TO.C,C27*%
X21800157Y-162025057D02*
X21764442Y-162060771D01*
X21657300Y-162096485D01*
X21585871Y-162096485D01*
X21478728Y-162060771D01*
X21407300Y-161989342D01*
X21371585Y-161917914D01*
X21335871Y-161775057D01*
X21335871Y-161667914D01*
X21371585Y-161525057D01*
X21407300Y-161453628D01*
X21478728Y-161382200D01*
X21585871Y-161346485D01*
X21657300Y-161346485D01*
X21764442Y-161382200D01*
X21800157Y-161417914D01*
X22085871Y-161417914D02*
X22121585Y-161382200D01*
X22193014Y-161346485D01*
X22371585Y-161346485D01*
X22443014Y-161382200D01*
X22478728Y-161417914D01*
X22514442Y-161489342D01*
X22514442Y-161560771D01*
X22478728Y-161667914D01*
X22050157Y-162096485D01*
X22514442Y-162096485D01*
X22764442Y-161346485D02*
X23264442Y-161346485D01*
X22943014Y-162096485D01*
%TO.C,C5*%
X26153297Y-169632420D02*
X26189011Y-169668134D01*
X26224725Y-169775277D01*
X26224725Y-169846705D01*
X26189011Y-169953848D01*
X26117582Y-170025277D01*
X26046154Y-170060991D01*
X25903297Y-170096705D01*
X25796154Y-170096705D01*
X25653297Y-170060991D01*
X25581868Y-170025277D01*
X25510440Y-169953848D01*
X25474725Y-169846705D01*
X25474725Y-169775277D01*
X25510440Y-169668134D01*
X25546154Y-169632420D01*
X25474725Y-168953848D02*
X25474725Y-169310991D01*
X25831868Y-169346705D01*
X25796154Y-169310991D01*
X25760440Y-169239562D01*
X25760440Y-169060991D01*
X25796154Y-168989562D01*
X25831868Y-168953848D01*
X25903297Y-168918134D01*
X26081868Y-168918134D01*
X26153297Y-168953848D01*
X26189011Y-168989562D01*
X26224725Y-169060991D01*
X26224725Y-169239562D01*
X26189011Y-169310991D01*
X26153297Y-169346705D01*
%TO.C,R23*%
X19817857Y-179239285D02*
X19567857Y-178882142D01*
X19389285Y-179239285D02*
X19389285Y-178489285D01*
X19675000Y-178489285D01*
X19746428Y-178525000D01*
X19782142Y-178560714D01*
X19817857Y-178632142D01*
X19817857Y-178739285D01*
X19782142Y-178810714D01*
X19746428Y-178846428D01*
X19675000Y-178882142D01*
X19389285Y-178882142D01*
X20103571Y-178560714D02*
X20139285Y-178525000D01*
X20210714Y-178489285D01*
X20389285Y-178489285D01*
X20460714Y-178525000D01*
X20496428Y-178560714D01*
X20532142Y-178632142D01*
X20532142Y-178703571D01*
X20496428Y-178810714D01*
X20067857Y-179239285D01*
X20532142Y-179239285D01*
X20782142Y-178489285D02*
X21246428Y-178489285D01*
X20996428Y-178775000D01*
X21103571Y-178775000D01*
X21175000Y-178810714D01*
X21210714Y-178846428D01*
X21246428Y-178917857D01*
X21246428Y-179096428D01*
X21210714Y-179167857D01*
X21175000Y-179203571D01*
X21103571Y-179239285D01*
X20889285Y-179239285D01*
X20817857Y-179203571D01*
X20782142Y-179167857D01*
%TO.C,R24*%
X22539285Y-180382142D02*
X22182142Y-180632142D01*
X22539285Y-180810714D02*
X21789285Y-180810714D01*
X21789285Y-180525000D01*
X21825000Y-180453571D01*
X21860714Y-180417857D01*
X21932142Y-180382142D01*
X22039285Y-180382142D01*
X22110714Y-180417857D01*
X22146428Y-180453571D01*
X22182142Y-180525000D01*
X22182142Y-180810714D01*
X21860714Y-180096428D02*
X21825000Y-180060714D01*
X21789285Y-179989285D01*
X21789285Y-179810714D01*
X21825000Y-179739285D01*
X21860714Y-179703571D01*
X21932142Y-179667857D01*
X22003571Y-179667857D01*
X22110714Y-179703571D01*
X22539285Y-180132142D01*
X22539285Y-179667857D01*
X22039285Y-179025000D02*
X22539285Y-179025000D01*
X21753571Y-179203571D02*
X22289285Y-179382142D01*
X22289285Y-178917857D01*
%TO.C,Q1*%
X43704761Y-186047619D02*
X43609523Y-186000000D01*
X43514285Y-185904761D01*
X43371428Y-185761904D01*
X43276190Y-185714285D01*
X43180952Y-185714285D01*
X43228571Y-185952380D02*
X43133333Y-185904761D01*
X43038095Y-185809523D01*
X42990476Y-185619047D01*
X42990476Y-185285714D01*
X43038095Y-185095238D01*
X43133333Y-185000000D01*
X43228571Y-184952380D01*
X43419047Y-184952380D01*
X43514285Y-185000000D01*
X43609523Y-185095238D01*
X43657142Y-185285714D01*
X43657142Y-185619047D01*
X43609523Y-185809523D01*
X43514285Y-185904761D01*
X43419047Y-185952380D01*
X43228571Y-185952380D01*
X44609523Y-185952380D02*
X44038095Y-185952380D01*
X44323809Y-185952380D02*
X44323809Y-184952380D01*
X44228571Y-185095238D01*
X44133333Y-185190476D01*
X44038095Y-185238095D01*
%TO.C,C11*%
X35517857Y-153367857D02*
X35482142Y-153403571D01*
X35375000Y-153439285D01*
X35303571Y-153439285D01*
X35196428Y-153403571D01*
X35125000Y-153332142D01*
X35089285Y-153260714D01*
X35053571Y-153117857D01*
X35053571Y-153010714D01*
X35089285Y-152867857D01*
X35125000Y-152796428D01*
X35196428Y-152725000D01*
X35303571Y-152689285D01*
X35375000Y-152689285D01*
X35482142Y-152725000D01*
X35517857Y-152760714D01*
X36232142Y-153439285D02*
X35803571Y-153439285D01*
X36017857Y-153439285D02*
X36017857Y-152689285D01*
X35946428Y-152796428D01*
X35875000Y-152867857D01*
X35803571Y-152903571D01*
X36946428Y-153439285D02*
X36517857Y-153439285D01*
X36732142Y-153439285D02*
X36732142Y-152689285D01*
X36660714Y-152796428D01*
X36589285Y-152867857D01*
X36517857Y-152903571D01*
%TD*%
M02*
