%TF.GenerationSoftware,KiCad,Pcbnew,(5.1.8)-1*%
%TF.CreationDate,2021-07-02T09:13:16+03:00*%
%TF.ProjectId,CUSTOM stm32f103 DEVELOPMENT BOARD,43555354-4f4d-4207-9374-6d3332663130,rev?*%
%TF.SameCoordinates,Original*%
%TF.FileFunction,Soldermask,Bot*%
%TF.FilePolarity,Negative*%
%FSLAX46Y46*%
G04 Gerber Fmt 4.6, Leading zero omitted, Abs format (unit mm)*
G04 Created by KiCad (PCBNEW (5.1.8)-1) date 2021-07-02 09:13:16*
%MOMM*%
%LPD*%
G01*
G04 APERTURE LIST*
%ADD10R,3.500000X3.500000*%
%ADD11O,1.700000X2.000000*%
%ADD12R,1.700000X1.700000*%
%ADD13O,1.700000X1.700000*%
%ADD14O,2.190000X1.740000*%
%ADD15C,0.800000*%
G04 APERTURE END LIST*
D10*
%TO.C,J2*%
X19900000Y-187850000D03*
G36*
G01*
X20900000Y-195350000D02*
X18900000Y-195350000D01*
G75*
G02*
X18150000Y-194600000I0J750000D01*
G01*
X18150000Y-193100000D01*
G75*
G02*
X18900000Y-192350000I750000J0D01*
G01*
X20900000Y-192350000D01*
G75*
G02*
X21650000Y-193100000I0J-750000D01*
G01*
X21650000Y-194600000D01*
G75*
G02*
X20900000Y-195350000I-750000J0D01*
G01*
G37*
G36*
G01*
X25475000Y-192600000D02*
X23725000Y-192600000D01*
G75*
G02*
X22850000Y-191725000I0J875000D01*
G01*
X22850000Y-189975000D01*
G75*
G02*
X23725000Y-189100000I875000J0D01*
G01*
X25475000Y-189100000D01*
G75*
G02*
X26350000Y-189975000I0J-875000D01*
G01*
X26350000Y-191725000D01*
G75*
G02*
X25475000Y-192600000I-875000J0D01*
G01*
G37*
%TD*%
%TO.C,J5*%
G36*
G01*
X33860000Y-194760000D02*
X33860000Y-196260000D01*
G75*
G02*
X33610000Y-196510000I-250000J0D01*
G01*
X32410000Y-196510000D01*
G75*
G02*
X32160000Y-196260000I0J250000D01*
G01*
X32160000Y-194760000D01*
G75*
G02*
X32410000Y-194510000I250000J0D01*
G01*
X33610000Y-194510000D01*
G75*
G02*
X33860000Y-194760000I0J-250000D01*
G01*
G37*
D11*
X30510000Y-195510000D03*
%TD*%
D12*
%TO.C,J6*%
X41510000Y-163750000D03*
D13*
X41510000Y-161210000D03*
X41510000Y-158670000D03*
X41510000Y-156130000D03*
%TD*%
D12*
%TO.C,J7*%
X16460000Y-146820000D03*
D13*
X16460000Y-149360000D03*
X16460000Y-151900000D03*
X16460000Y-154440000D03*
X16460000Y-156980000D03*
X16460000Y-159520000D03*
X16460000Y-162060000D03*
X16460000Y-164600000D03*
X16460000Y-167140000D03*
X16460000Y-169680000D03*
%TD*%
%TO.C,J8*%
G36*
G01*
X59784999Y-163340000D02*
X61475001Y-163340000D01*
G75*
G02*
X61725000Y-163589999I0J-249999D01*
G01*
X61725000Y-164830001D01*
G75*
G02*
X61475001Y-165080000I-249999J0D01*
G01*
X59784999Y-165080000D01*
G75*
G02*
X59535000Y-164830001I0J249999D01*
G01*
X59535000Y-163589999D01*
G75*
G02*
X59784999Y-163340000I249999J0D01*
G01*
G37*
D14*
X60630000Y-166750000D03*
X60630000Y-169290000D03*
X60630000Y-171830000D03*
X60630000Y-174370000D03*
X60630000Y-176910000D03*
X60630000Y-179450000D03*
X60630000Y-181990000D03*
%TD*%
D15*
%TO.C,SW1*%
X52500000Y-165680000D03*
%TD*%
M02*
